<svg width="73" height="73" viewBox="0 0 73 73" fill="none" xmlns="http://www.w3.org/2000/svg">
<g filter="url(#filter0_f_68_40282)">
<path d="M65.2601 18.5137C65.3178 18.6115 65.3778 18.7092 65.4311 18.8069C65.5133 18.9447 65.5933 19.0868 65.6732 19.2267L65.6977 19.2667C65.7576 19.3733 65.8132 19.4755 65.8687 19.5799C74.5512 35.4502 69.1716 55.4629 53.4923 64.7807C50.9047 66.32 48.197 67.4706 45.4317 68.2546C42.5686 69.0654 39.6478 69.4807 36.7403 69.5229C30.943 69.6029 25.2035 68.1858 20.1126 65.4204C16.3677 63.3881 12.9759 60.6338 10.1684 57.2043C9.2777 56.1204 8.44476 54.9676 7.67845 53.7504L7.65402 53.7104C7.56961 53.5727 7.48299 53.4372 7.40081 53.2973C7.34084 53.204 7.28308 53.1063 7.22533 53.0063C-2.29683 36.9828 2.96735 16.2681 18.9975 6.74154C23.411 4.11834 28.1754 2.61905 32.9687 2.15927C37.3244 1.7328 41.7023 2.16815 45.847 3.4009C51.4111 5.04679 56.5575 8.12533 60.6956 12.4744C62.4014 14.2735 63.9407 16.2881 65.2623 18.5115L65.2601 18.5137Z" fill="#A37417"/>
<path d="M66.1241 19.9686C75.6485 35.9944 70.3843 56.7046 54.3519 66.2334C51.2534 68.0747 47.9771 69.3652 44.6409 70.1249C41.8245 70.7735 38.9659 71.0467 36.1339 70.9645C30.3833 70.7935 24.7437 69.1542 19.786 66.2023C16.0856 63.9922 12.7694 61.0514 10.0706 57.4309C9.36653 56.4891 8.70241 55.4963 8.08714 54.4612C8.00052 54.3146 7.91389 54.1702 7.83392 54.0214C7.7784 53.9281 7.72509 53.8393 7.67622 53.7482L7.65179 53.7082C-1.27065 37.7891 4.08459 17.5786 19.8638 8.20308C23.8019 5.86419 28.0177 4.41599 32.2868 3.80294C36.6936 3.16547 41.147 3.41868 45.3917 4.49151C50.9957 5.91084 56.2377 8.75616 60.5179 12.8875C62.4481 14.7422 64.185 16.8612 65.6732 19.2245L65.6976 19.2645C65.7532 19.3534 65.8065 19.4422 65.862 19.5333C65.8709 19.5399 65.8753 19.5488 65.8753 19.5555C65.962 19.6888 66.0442 19.8265 66.1263 19.9642L66.1241 19.9686Z" fill="#6D3C1B"/>
<path d="M65.6044 19.0935C65.691 19.2401 65.7798 19.3889 65.8598 19.5355C65.8687 19.5422 65.8731 19.551 65.8731 19.5577C75.0288 35.5213 69.7091 55.9227 53.8322 65.3583C51.0379 67.0175 48.1038 68.228 45.1119 69.0099C42.2687 69.7584 39.3723 70.1138 36.4959 70.1005C30.7164 70.0849 25.0191 68.5812 19.9793 65.7359C16.2544 63.6391 12.8893 60.8071 10.124 57.3021C9.30658 56.267 8.54027 55.1764 7.83394 54.0236C7.74287 53.8837 7.65403 53.7349 7.56741 53.5883C7.50966 53.4928 7.4519 53.395 7.39859 53.2973C-1.89256 37.316 3.40715 16.7946 19.3396 7.32573C23.5665 4.81358 28.1132 3.32984 32.6977 2.80342C37.0734 2.29921 41.4825 2.66127 45.6671 3.82738C51.2445 5.38664 56.4287 8.3719 60.6223 12.6343C62.4237 14.4601 64.0429 16.5192 65.4289 18.807C65.4889 18.9002 65.5466 18.998 65.6044 19.0935Z" fill="url(#paint0_linear_68_40282)"/>
<path d="M63.4476 20.455C72.2612 35.2858 67.3857 54.4501 52.5572 63.2637C37.7287 72.0773 18.5644 67.1996 9.7508 52.3688C0.939414 37.5425 5.81488 18.376 20.6412 9.56464C35.4675 0.753255 54.634 5.62873 63.4454 20.455H63.4476Z" fill="url(#paint1_linear_68_40282)" stroke="#281401" stroke-width="0.00888468" stroke-miterlimit="10"/>
<path d="M62.9123 20.746C71.5327 35.2503 66.7594 53.997 52.2574 62.6173C37.7531 71.2377 19.0086 66.4688 10.3883 51.9646C1.76792 37.4603 6.53678 18.7159 21.041 10.0955C35.5453 1.47516 54.2919 6.24179 62.9123 20.746Z" fill="url(#paint2_linear_68_40282)"/>
<g style="mix-blend-mode:multiply">
<path d="M62.5081 27.2896C62.3771 27.6606 62.1128 27.9204 61.8062 28.1426C61.1888 28.5912 60.4891 28.88 59.7961 29.1732C58.821 29.5885 57.837 29.975 56.9086 30.4792L56.8974 30.4859C56.8019 30.5436 56.6998 30.5903 56.602 30.6458C54.7873 31.6387 52.9615 32.6426 51.3934 34.0064C48.0083 36.9539 45.1275 41.7317 45.8294 46.3806C46.1137 48.2641 46.8911 49.9056 48.2838 51.2294C48.5192 51.4515 48.7902 51.6359 49.0567 51.8158C49.5365 52.1379 50.0562 52.1534 50.5493 51.8891C51.1046 51.5959 51.6399 51.2583 52.1686 50.9229C52.8727 50.4764 53.5901 50.0655 54.4253 49.9167C55.4026 49.739 56.4577 50.0477 57.2395 50.6497C56.4799 50.5097 55.9246 50.8762 55.4293 51.336C54.9095 51.8113 54.4275 52.3311 53.93 52.8264C53.7834 52.9708 53.6301 53.1107 53.4702 53.2373C53.2236 53.4328 52.9615 53.5927 52.6173 53.6305C52.7394 53.746 52.8571 53.8415 52.9527 53.957C53.1659 54.2213 53.2725 54.5367 53.3391 54.8632C53.4036 55.1986 53.4635 55.5385 53.5279 55.8739C53.7412 56.9845 54.0966 57.7263 55.2116 58.3105C54.9117 58.2927 54.6141 58.2861 54.3187 58.2594C52.8483 58.1284 51.7554 57.3976 50.9914 56.1493C50.6915 55.6584 50.3961 55.1675 50.0873 54.6878C49.5432 53.8393 48.788 53.2418 47.8284 52.9242C47.3775 52.7731 46.9422 52.5954 46.5312 52.3933C46.5135 52.8509 46.4646 53.3151 46.3824 53.786C46.2025 54.7788 46.3691 55.7273 46.8533 56.6135C47.1265 57.1155 47.4175 57.6108 47.704 58.1061C48.437 59.3722 48.5547 60.6827 47.9683 62.0376C47.8506 62.3108 47.7129 62.5751 47.5863 62.8461C47.6085 61.5867 47.1265 60.9204 46.2514 60.2029C45.9871 59.9853 45.7183 59.772 45.454 59.5521C45.2008 59.3367 44.9742 59.0924 44.8432 58.7792C44.7899 58.6392 44.761 58.4904 44.7188 58.3283C44.5211 58.6126 44.2545 58.7658 43.9658 58.8902C43.777 58.9702 43.5815 59.0368 43.3838 59.0968C42.7086 59.2989 42.0245 59.4744 41.3581 59.7032C40.7184 59.9208 40.1298 60.234 39.8899 60.967C39.7345 59.9919 39.9677 58.9191 40.5896 58.1439C41.1205 57.482 41.8224 57.0489 42.5509 56.6446C43.0973 56.3403 43.6526 56.0316 44.1746 55.6828C44.6433 55.3763 44.8765 54.9121 44.8232 54.3368C44.7921 54.017 44.761 53.6905 44.6766 53.3773C44.1812 51.5226 43.1084 50.0544 41.5914 48.9038C37.8442 46.0652 32.2735 46.3117 28.0622 47.8777C26.1165 48.604 24.3617 49.7279 22.6248 50.8451C22.5293 50.9051 22.4404 50.9717 22.3405 51.0317L22.3294 51.0384C21.4431 51.6137 20.6324 52.2956 19.8017 52.9508C19.2131 53.4195 18.6245 53.8948 17.9359 54.2235C17.5938 54.3857 17.2384 54.4945 16.852 54.4323C16.4233 54.3613 16.2078 54.108 16.25 53.6793C16.2722 53.455 16.3211 53.2174 16.4099 53.0108C16.6298 52.5021 16.8608 51.9979 17.1141 51.5026C17.385 50.9629 17.5538 50.4076 17.6271 49.7967C17.967 46.9492 19.1309 44.4904 21.2188 42.4958C22.6959 41.0831 24.455 40.1391 26.3741 39.4683C26.483 39.4328 26.5962 39.3484 26.6651 39.2595C27.498 38.1134 28.5398 37.1938 29.7481 36.4653C31.083 35.6634 32.5245 35.137 34.0549 34.8549C34.4658 34.7772 34.8834 34.7283 35.301 34.6684C33.9683 35.6923 32.8777 36.8784 32.298 38.4888C32.3357 38.5043 32.3491 38.511 32.3602 38.5132C32.4201 38.5176 32.4823 38.5221 32.5468 38.5243C33.8439 38.5887 35.1166 38.8042 36.3427 39.2329C37.5222 39.6438 38.6194 40.1524 39.6234 40.7588C39.5657 39.5882 39.6434 38.3821 39.8477 37.1494C40.0588 35.8678 40.4763 34.6461 41.0405 33.4778C41.0672 33.4201 41.096 33.3645 41.1183 33.309C41.1227 33.2979 41.1227 33.2823 41.1271 33.2424C39.4368 32.9803 37.8731 33.3712 36.3361 34.0531C36.5871 33.7155 36.8314 33.3712 37.0957 33.0491C38.0753 31.8408 39.2258 30.8257 40.5696 30.035C41.7846 29.3198 43.0907 28.8467 44.4967 28.6623C44.6077 28.6445 44.7365 28.5846 44.8187 28.5068C46.3247 27.143 47.995 26.048 49.9408 25.4261C52.6906 24.5443 55.407 24.6975 58.0702 25.7615C58.6411 25.988 59.2119 26.1057 59.8138 26.1257C60.3691 26.1413 60.9244 26.179 61.4753 26.2301C61.6996 26.2523 61.9328 26.3212 62.1394 26.41C62.537 26.5766 62.6569 26.8898 62.5126 27.2985L62.5081 27.2896Z" fill="#3A2415"/>
<path d="M62.0861 27.9471C61.9551 28.318 61.6907 28.5779 61.3842 28.8C60.7667 29.2487 60.0671 29.5375 59.374 29.8306C58.399 30.246 57.415 30.6325 56.4865 31.1367L56.4754 31.1434C56.3799 31.2011 56.2777 31.2478 56.18 31.3033C54.3653 32.2961 52.5395 33.3001 50.9714 34.6639C47.5863 37.6114 44.7054 42.3892 45.4073 47.0381C45.6916 48.9216 46.469 50.5631 47.8617 51.8869C48.0972 52.109 48.3682 52.2933 48.6347 52.4733C49.1145 52.7953 49.6342 52.8109 50.1273 52.5466C50.6826 52.2534 51.2179 51.9158 51.7465 51.5804C52.4507 51.1339 53.1681 50.723 54.0033 50.5742C54.9806 50.3965 56.0356 50.7052 56.8175 51.3071C56.0578 51.1672 55.5026 51.5337 55.0072 51.9935C54.4875 52.4688 54.0055 52.9886 53.5079 53.4839C53.3613 53.6283 53.2081 53.7682 53.0482 53.8948C52.8016 54.0903 52.5395 54.2502 52.1952 54.288C52.3174 54.4035 52.4351 54.499 52.5306 54.6145C52.7439 54.8788 52.8505 55.1942 52.9171 55.5207C52.9815 55.8561 53.0415 56.1959 53.1059 56.5313C53.3191 57.6419 53.6745 58.3838 54.7895 58.968C54.4897 58.9502 54.1921 58.9435 53.8966 58.9169C52.4262 58.7858 51.3334 58.0551 50.5693 56.8068C50.2695 56.3159 49.974 55.825 49.6653 55.3452C49.1211 54.4967 48.3659 53.8993 47.4064 53.5816C46.9555 53.4306 46.5201 53.2529 46.1092 53.0508C46.0915 53.5083 46.0426 53.9726 45.9604 54.4434C45.7805 55.4363 45.9471 56.3848 46.4313 57.271C46.7045 57.773 46.9955 58.2683 47.282 58.7636C48.015 60.0297 48.1327 61.3402 47.5463 62.6951C47.4286 62.9683 47.2909 63.2326 47.1643 63.5036C47.1865 62.2442 46.7045 61.5778 45.8294 60.8604C45.565 60.6427 45.2963 60.4295 45.0319 60.2096C44.7787 59.9942 44.5522 59.7498 44.4211 59.4366C44.3678 59.2967 44.3389 59.1479 44.2967 58.9857C44.0991 59.27 43.8325 59.4233 43.5438 59.5477C43.355 59.6277 43.1595 59.6943 42.9618 59.7543C42.2866 59.9564 41.6025 60.1319 40.9361 60.3606C40.2964 60.5783 39.7078 60.8915 39.4679 61.6245C39.3124 60.6494 39.5457 59.5766 40.1676 58.8014C40.6984 58.1395 41.4003 57.7063 42.1289 57.3021C42.6753 56.9978 43.2306 56.6891 43.7525 56.3403C44.2212 56.0338 44.4544 55.5696 44.4011 54.9943C44.37 54.6744 44.3389 54.3479 44.2545 54.0348C43.7592 52.1801 42.6864 50.7119 41.1693 49.5613C37.4222 46.7227 31.8515 46.9692 27.6402 48.5351C25.6944 49.2615 23.9397 50.3854 22.2027 51.5026C22.1072 51.5626 22.0184 51.6292 21.9184 51.6892L21.9073 51.6959C21.0211 52.2711 20.2104 52.953 19.3796 53.6083C18.791 54.0769 18.2024 54.5523 17.5139 54.881C17.1718 55.0432 16.8164 55.152 16.4299 55.0898C16.0012 55.0187 15.7858 54.7655 15.828 54.3368C15.8502 54.1125 15.8991 53.8748 15.9879 53.6683C16.2078 53.1596 16.4388 52.6554 16.692 52.1601C16.963 51.6203 17.1318 51.065 17.2051 50.4542C17.545 47.6067 18.7089 45.1479 20.7968 43.1532C22.2738 41.7406 24.033 40.7966 25.9521 40.1258C26.0609 40.0902 26.1742 40.0058 26.2431 39.917C27.076 38.7709 28.1177 37.8513 29.326 37.1228C30.661 36.3209 32.1025 35.7945 33.6329 35.5124C34.0438 35.4347 34.4614 35.3858 34.879 35.3258C33.5463 36.3498 32.4557 37.5359 31.876 39.1462C31.9137 39.1618 31.927 39.1684 31.9381 39.1707C31.9981 39.1751 32.0603 39.1796 32.1247 39.1818C33.4219 39.2462 34.6946 39.4617 35.9207 39.8903C37.1001 40.3013 38.1974 40.8099 39.2014 41.4163C39.1436 40.2457 39.2214 39.0396 39.4257 37.8069C39.6367 36.5253 40.0543 35.3036 40.6185 34.1353C40.6451 34.0775 40.674 34.022 40.6962 33.9665C40.7007 33.9554 40.7007 33.9398 40.7051 33.8998C39.0148 33.6377 37.4511 34.0287 35.914 34.7106C36.165 34.3729 36.4094 34.0287 36.6737 33.7066C37.6532 32.4983 38.8038 31.4832 40.1476 30.6925C41.3626 29.9772 42.6686 29.5041 44.0746 29.3198C44.1857 29.302 44.3145 29.242 44.3967 29.1643C45.9026 27.8005 47.573 26.7055 49.5187 26.0835C52.2685 25.2017 54.985 25.355 57.6482 26.4189C58.219 26.6455 58.7899 26.7632 59.3918 26.7832C59.9471 26.7988 60.5024 26.8365 61.0533 26.8876C61.2776 26.9098 61.5108 26.9787 61.7174 27.0675C62.115 27.2341 62.2349 27.5473 62.0905 27.956L62.0861 27.9471Z" fill="url(#paint3_radial_68_40282)"/>
<path opacity="0.85" d="M62.0861 27.9471C61.9551 28.318 61.6907 28.5779 61.3842 28.8C60.7667 29.2487 60.0671 29.5375 59.374 29.8306C58.399 30.246 57.415 30.6325 56.4865 31.1367L56.4754 31.1434C56.3799 31.2011 56.2777 31.2478 56.18 31.3033C54.3653 32.2961 52.5395 33.3001 50.9714 34.6639C47.5863 37.6114 44.7054 42.3892 45.4073 47.0381C45.6916 48.9216 46.469 50.5631 47.8617 51.8869C48.0972 52.109 48.3682 52.2933 48.6347 52.4733C49.1145 52.7953 49.6342 52.8109 50.1273 52.5466C50.6826 52.2534 51.2179 51.9158 51.7465 51.5804C52.4507 51.1339 53.1681 50.723 54.0033 50.5742C54.9806 50.3965 56.0356 50.7052 56.8175 51.3071C56.0578 51.1672 55.5026 51.5337 55.0072 51.9935C54.4875 52.4688 54.0055 52.9886 53.5079 53.4839C53.3613 53.6283 53.2081 53.7682 53.0482 53.8948C52.8016 54.0903 52.5395 54.2502 52.1952 54.288C52.3174 54.4035 52.4351 54.499 52.5306 54.6145C52.7439 54.8788 52.8505 55.1942 52.9171 55.5207C52.9815 55.8561 53.0415 56.1959 53.1059 56.5313C53.3191 57.6419 53.6745 58.3838 54.7895 58.968C54.4897 58.9502 54.1921 58.9435 53.8966 58.9169C52.4262 58.7858 51.3334 58.0551 50.5693 56.8068C50.2695 56.3159 49.974 55.825 49.6653 55.3452C49.1211 54.4967 48.3659 53.8993 47.4064 53.5816C46.9555 53.4306 46.5201 53.2529 46.1092 53.0508C46.0915 53.5083 46.0426 53.9726 45.9604 54.4434C45.7805 55.4363 45.9471 56.3848 46.4313 57.271C46.7045 57.773 46.9955 58.2683 47.282 58.7636C48.015 60.0297 48.1327 61.3402 47.5463 62.6951C47.4286 62.9683 47.2909 63.2326 47.1643 63.5036C47.1865 62.2442 46.7045 61.5778 45.8294 60.8604C45.565 60.6427 45.2963 60.4295 45.0319 60.2096C44.7787 59.9942 44.5522 59.7498 44.4211 59.4366C44.3678 59.2967 44.3389 59.1479 44.2967 58.9857C44.0991 59.27 43.8325 59.4233 43.5438 59.5477C43.355 59.6277 43.1595 59.6943 42.9618 59.7543C42.2866 59.9564 41.6025 60.1319 40.9361 60.3606C40.2964 60.5783 39.7078 60.8915 39.4679 61.6245C39.3124 60.6494 39.5457 59.5766 40.1676 58.8014C40.6984 58.1395 41.4003 57.7063 42.1289 57.3021C42.6753 56.9978 43.2306 56.6891 43.7525 56.3403C44.2212 56.0338 44.4544 55.5696 44.4011 54.9943C44.37 54.6744 44.3389 54.3479 44.2545 54.0348C43.7592 52.1801 42.6864 50.7119 41.1693 49.5613C37.4222 46.7227 31.8515 46.9692 27.6402 48.5351C25.6944 49.2615 23.9397 50.3854 22.2027 51.5026C22.1072 51.5626 22.0184 51.6292 21.9184 51.6892L21.9073 51.6959C21.0211 52.2711 20.2104 52.953 19.3796 53.6083C18.791 54.0769 18.2024 54.5523 17.5139 54.881C17.1718 55.0432 16.8164 55.152 16.4299 55.0898C16.0012 55.0187 15.7858 54.7655 15.828 54.3368C15.8502 54.1125 15.8991 53.8748 15.9879 53.6683C16.2078 53.1596 16.4388 52.6554 16.692 52.1601C16.963 51.6203 17.1318 51.065 17.2051 50.4542C17.545 47.6067 18.7089 45.1479 20.7968 43.1532C22.2738 41.7406 24.033 40.7966 25.9521 40.1258C26.0609 40.0902 26.1742 40.0058 26.2431 39.917C27.076 38.7709 28.1177 37.8513 29.326 37.1228C30.661 36.3209 32.1025 35.7945 33.6329 35.5124C34.0438 35.4347 34.4614 35.3858 34.879 35.3258C33.5463 36.3498 32.4557 37.5359 31.876 39.1462C31.9137 39.1618 31.927 39.1684 31.9381 39.1707C31.9981 39.1751 32.0603 39.1796 32.1247 39.1818C33.4219 39.2462 34.6946 39.4617 35.9207 39.8903C37.1001 40.3013 38.1974 40.8099 39.2014 41.4163C39.1436 40.2457 39.2214 39.0396 39.4257 37.8069C39.6367 36.5253 40.0543 35.3036 40.6185 34.1353C40.6451 34.0775 40.674 34.022 40.6962 33.9665C40.7007 33.9554 40.7007 33.9398 40.7051 33.8998C39.0148 33.6377 37.4511 34.0287 35.914 34.7106C36.165 34.3729 36.4094 34.0287 36.6737 33.7066C37.6532 32.4983 38.8038 31.4832 40.1476 30.6925C41.3626 29.9772 42.6686 29.5041 44.0746 29.3198C44.1857 29.302 44.3145 29.242 44.3967 29.1643C45.9026 27.8005 47.573 26.7055 49.5187 26.0835C52.2685 25.2017 54.985 25.355 57.6482 26.4189C58.219 26.6455 58.7899 26.7632 59.3918 26.7832C59.9471 26.7988 60.5024 26.8365 61.0533 26.8876C61.2776 26.9098 61.5108 26.9787 61.7174 27.0675C62.115 27.2341 62.2349 27.5473 62.0905 27.956L62.0861 27.9471Z" fill="#724401"/>
<g style="mix-blend-mode:hard-light">
<path opacity="0.85" d="M62.0861 27.9471C61.9551 28.318 61.6907 28.5779 61.3842 28.8C60.7667 29.2487 60.0671 29.5375 59.374 29.8306C58.399 30.246 57.415 30.6325 56.4865 31.1367L56.4754 31.1434C56.3799 31.2011 56.2777 31.2478 56.18 31.3033C54.3653 32.2961 52.5395 33.3001 50.9714 34.6639C47.5863 37.6114 44.7054 42.3892 45.4073 47.0381C45.6916 48.9216 46.469 50.5631 47.8617 51.8869C48.0972 52.109 48.3682 52.2933 48.6347 52.4733C49.1145 52.7953 49.6342 52.8109 50.1273 52.5466C50.6826 52.2534 51.2179 51.9158 51.7465 51.5804C52.4507 51.1339 53.1681 50.723 54.0033 50.5742C54.9806 50.3965 56.0356 50.7052 56.8175 51.3071C56.0578 51.1672 55.5026 51.5337 55.0072 51.9935C54.4875 52.4688 54.0055 52.9886 53.5079 53.4839C53.3613 53.6283 53.2081 53.7682 53.0482 53.8948C52.8016 54.0903 52.5395 54.2502 52.1952 54.288C52.3174 54.4035 52.4351 54.499 52.5306 54.6145C52.7439 54.8788 52.8505 55.1942 52.9171 55.5207C52.9815 55.8561 53.0415 56.1959 53.1059 56.5313C53.3191 57.6419 53.6745 58.3838 54.7895 58.968C54.4897 58.9502 54.1921 58.9435 53.8966 58.9169C52.4262 58.7858 51.3334 58.0551 50.5693 56.8068C50.2695 56.3159 49.974 55.825 49.6653 55.3452C49.1211 54.4967 48.3659 53.8993 47.4064 53.5816C46.9555 53.4306 46.5201 53.2529 46.1092 53.0508C46.0915 53.5083 46.0426 53.9726 45.9604 54.4434C45.7805 55.4363 45.9471 56.3848 46.4313 57.271C46.7045 57.773 46.9955 58.2683 47.282 58.7636C48.015 60.0297 48.1327 61.3402 47.5463 62.6951C47.4286 62.9683 47.2909 63.2326 47.1643 63.5036C47.1865 62.2442 46.7045 61.5778 45.8294 60.8604C45.565 60.6427 45.2963 60.4295 45.0319 60.2096C44.7787 59.9942 44.5522 59.7498 44.4211 59.4366C44.3678 59.2967 44.3389 59.1479 44.2967 58.9857C44.0991 59.27 43.8325 59.4233 43.5438 59.5477C43.355 59.6277 43.1595 59.6943 42.9618 59.7543C42.2866 59.9564 41.6025 60.1319 40.9361 60.3606C40.2964 60.5783 39.7078 60.8915 39.4679 61.6245C39.3124 60.6494 39.5457 59.5766 40.1676 58.8014C40.6984 58.1395 41.4003 57.7063 42.1289 57.3021C42.6753 56.9978 43.2306 56.6891 43.7525 56.3403C44.2212 56.0338 44.4544 55.5696 44.4011 54.9943C44.37 54.6744 44.3389 54.3479 44.2545 54.0348C43.7592 52.1801 42.6864 50.7119 41.1693 49.5613C37.4222 46.7227 31.8515 46.9692 27.6402 48.5351C25.6944 49.2615 23.9397 50.3854 22.2027 51.5026C22.1072 51.5626 22.0184 51.6292 21.9184 51.6892L21.9073 51.6959C21.0211 52.2711 20.2104 52.953 19.3796 53.6083C18.791 54.0769 18.2024 54.5523 17.5139 54.881C17.1718 55.0432 16.8164 55.152 16.4299 55.0898C16.0012 55.0187 15.7858 54.7655 15.828 54.3368C15.8502 54.1125 15.8991 53.8748 15.9879 53.6683C16.2078 53.1596 16.4388 52.6554 16.692 52.1601C16.963 51.6203 17.1318 51.065 17.2051 50.4542C17.545 47.6067 18.7089 45.1479 20.7968 43.1532C22.2738 41.7406 24.033 40.7966 25.9521 40.1258C26.0609 40.0902 26.1742 40.0058 26.2431 39.917C27.076 38.7709 28.1177 37.8513 29.326 37.1228C30.661 36.3209 32.1025 35.7945 33.6329 35.5124C34.0438 35.4347 34.4614 35.3858 34.879 35.3258C33.5463 36.3498 32.4557 37.5359 31.876 39.1462C31.9137 39.1618 31.927 39.1684 31.9381 39.1707C31.9981 39.1751 32.0603 39.1796 32.1247 39.1818C33.4219 39.2462 34.6946 39.4617 35.9207 39.8903C37.1001 40.3013 38.1974 40.8099 39.2014 41.4163C39.1436 40.2457 39.2214 39.0396 39.4257 37.8069C39.6367 36.5253 40.0543 35.3036 40.6185 34.1353C40.6451 34.0775 40.674 34.022 40.6962 33.9665C40.7007 33.9554 40.7007 33.9398 40.7051 33.8998C39.0148 33.6377 37.4511 34.0287 35.914 34.7106C36.165 34.3729 36.4094 34.0287 36.6737 33.7066C37.6532 32.4983 38.8038 31.4832 40.1476 30.6925C41.3626 29.9772 42.6686 29.5041 44.0746 29.3198C44.1857 29.302 44.3145 29.242 44.3967 29.1643C45.9026 27.8005 47.573 26.7055 49.5187 26.0835C52.2685 25.2017 54.985 25.355 57.6482 26.4189C58.219 26.6455 58.7899 26.7632 59.3918 26.7832C59.9471 26.7988 60.5024 26.8365 61.0533 26.8876C61.2776 26.9098 61.5108 26.9787 61.7174 27.0675C62.115 27.2341 62.2349 27.5473 62.0905 27.956L62.0861 27.9471Z" fill="#663703"/>
</g>
<path d="M32.4445 14.5112L27.1648 13.0586L22.2516 11.7059V11.7148C22.1605 12.0746 19.8127 21.6523 19.8105 21.659C19.3574 23.5136 19.9238 25.6882 21.4386 26.8743C21.6474 27.0431 21.8762 27.1875 22.1227 27.3141C22.3471 27.4296 22.5803 27.5206 22.8202 27.5917C22.8291 27.5939 22.8402 27.5962 22.8491 27.5984C24.3683 28.067 26.1453 27.7605 27.4491 26.8809C28.764 25.9991 29.899 24.2044 29.4837 22.5652C29.2749 21.75 28.6774 21.1081 27.9955 20.6461C27.9955 20.6461 27.5313 20.2507 26.8005 20.1441C26.0653 20.0286 25.0591 20.2063 23.9841 21.3658L23.4821 21.9411H23.4799L22.1361 23.4848C21.9073 23.7269 21.5474 23.7002 21.3387 23.5114C21.2209 23.4137 21.1499 23.2715 21.1587 23.0939C21.1676 22.8406 21.5941 21.9544 21.8007 21.5213C21.8007 21.5213 21.9095 20.8793 21.9517 20.2285C22.0139 19.2024 22.4204 18.2139 23.18 17.5187C23.7553 16.9967 24.5949 16.5214 25.8143 16.3148C26.5095 16.1949 27.3247 16.1638 28.2909 16.2549C28.4686 16.2704 28.6485 16.2482 28.8062 16.1705C29.0395 16.0572 29.4482 15.9106 29.939 15.9661C30.4743 16.0216 31.1051 16.3215 31.7137 17.1678C31.7137 17.1678 30.6143 16.7902 29.5859 17.4676C29.5681 17.4787 29.5503 17.4921 29.5326 17.5032C29.5326 17.5032 29.5881 17.4987 29.6836 17.5032C30.039 17.5365 30.9519 17.7541 31.5716 19.1402C31.5716 19.1402 32.2713 20.5217 31.7204 22.5075C31.6027 22.9428 31.8048 23.3471 32.1335 23.5492C32.3712 23.6936 32.6711 23.7335 32.9643 23.6092L32.982 23.6025C34.8234 22.8229 35.7807 20.8616 35.7474 18.9291C35.7052 16.8324 34.5213 15.0799 32.4467 14.5112H32.4445ZM23.1334 13.1852L24.9858 13.7783L24.6327 15.7084L24.1196 15.5574L22.7336 15.1443L23.1289 13.2207L23.1356 13.1874L23.1334 13.1852Z" fill="#3A2415"/>
<path d="M34.7745 25.877C34.8723 26.0413 34.8167 26.2523 34.6546 26.3501L30.3388 28.9155C30.1745 29.0133 29.9635 28.9577 29.8657 28.7956C29.8058 28.6956 29.8013 28.5668 29.8546 28.4624C29.9435 28.2847 30.1789 28.2047 30.31 28.0537C30.4299 27.916 30.5188 27.7538 30.5787 27.5806C30.7031 27.2208 30.7142 26.8298 30.7076 26.4545C30.7031 26.2857 30.6965 26.1169 30.6898 25.948C30.6698 25.3683 30.6232 24.7841 30.5299 24.2089C31.214 24.8152 31.9603 25.3039 32.7644 25.7348C33.082 25.9058 33.444 25.9836 33.8017 25.9258C33.9816 25.897 34.1526 25.8348 34.3147 25.7526C34.4769 25.6704 34.679 25.7082 34.7767 25.8747L34.7745 25.877Z" fill="#3A2415"/>
<path d="M31.927 14.378L27.1604 13.0653L22.2538 11.7148L21.7385 11.5726C21.7385 11.5726 19.3019 21.519 19.2974 21.5257C18.8021 23.5514 19.524 25.9614 21.3698 27.052C21.4475 27.0986 21.5275 27.143 21.6119 27.1852C21.9939 27.3763 22.4026 27.5118 22.8269 27.5917C22.8358 27.5939 22.8469 27.5962 22.8557 27.5984C24.2506 27.856 25.781 27.5273 26.9383 26.7499C28.2532 25.8681 29.3882 24.0734 28.9728 22.4342C28.7641 21.619 28.1666 20.9771 27.4847 20.5151C27.4847 20.5151 27.2315 20.3018 26.8072 20.1464C26.1653 19.9065 25.1324 19.8043 23.9819 20.7527H23.9797C23.8131 20.8904 23.6443 21.0504 23.4732 21.2347L21.6274 23.3493C21.5453 23.4359 21.4453 23.487 21.3453 23.5092C21.0077 23.5892 20.6301 23.3515 20.6457 22.9606C20.6568 22.7118 21.0832 21.8211 21.2876 21.388C21.2876 21.388 21.3964 20.7461 21.4386 20.0953C21.5008 19.0691 21.9095 18.0807 22.6669 17.3854C23.3333 16.7791 24.3528 16.2415 25.9054 16.106C26.4563 16.0505 27.0782 16.055 27.7756 16.1216C27.9555 16.1416 28.1332 16.1149 28.2909 16.0372C28.6041 15.8861 29.2283 15.6729 29.9413 15.9661C30.3433 16.1283 30.7809 16.4525 31.1962 17.0345C31.1962 17.0345 30.0568 16.6413 29.0173 17.3699C29.0173 17.3699 29.2527 17.3477 29.5859 17.4676C29.617 17.4787 29.6503 17.4921 29.6836 17.5054C30.1034 17.6831 30.6432 18.0896 31.0541 19.0091C31.0541 19.0091 31.7515 20.3929 31.1985 22.3786C31.0252 23.0094 31.5339 23.5781 32.1314 23.5514C32.2335 23.5447 32.3401 23.5225 32.4445 23.4781L32.4623 23.4714C34.3081 22.6896 35.261 20.7305 35.2277 18.7981C35.1855 16.7013 34.0016 14.9488 31.927 14.3802V14.378ZM24.1151 15.5752L22.216 15.011L22.6159 13.0542L23.1289 13.2185L24.4728 13.645L24.1196 15.5574L24.1151 15.5774V15.5752Z" fill="url(#paint4_radial_68_40282)"/>
<path d="M34.257 25.746C34.3547 25.9103 34.2992 26.1213 34.1371 26.219L29.8213 28.7845C29.657 28.8822 29.446 28.8267 29.3482 28.6646C29.2883 28.5646 29.2838 28.4358 29.3371 28.3314C29.426 28.1537 29.6614 28.0737 29.7925 27.9227C29.9124 27.785 30.0012 27.6228 30.0612 27.4496C30.1856 27.0898 30.1967 26.6988 30.19 26.3235C30.1856 26.1546 30.1789 25.9858 30.1723 25.817C30.1523 25.2373 30.1056 24.6531 30.0124 24.0779C30.6965 24.6842 31.4428 25.1729 32.2468 25.6038C32.5645 25.7748 32.9265 25.8526 33.2841 25.7948C33.4641 25.7659 33.6351 25.7037 33.7972 25.6216C33.9594 25.5394 34.1615 25.5771 34.2592 25.7437L34.257 25.746Z" fill="url(#paint5_radial_68_40282)"/>
<g opacity="0.85">
<path d="M31.927 14.378L27.1604 13.0653L22.2538 11.7148L21.7385 11.5726C21.7385 11.5726 19.3019 21.519 19.2974 21.5257C18.8021 23.5514 19.524 25.9614 21.3698 27.052C21.4475 27.0986 21.5275 27.143 21.6119 27.1852C21.9939 27.3763 22.4026 27.5118 22.8269 27.5917C22.8358 27.5939 22.8469 27.5962 22.8557 27.5984C24.2506 27.856 25.781 27.5273 26.9383 26.7499C28.2532 25.8681 29.3882 24.0734 28.9728 22.4342C28.7641 21.619 28.1666 20.9771 27.4847 20.5151C27.4847 20.5151 27.2315 20.3018 26.8072 20.1464C26.1653 19.9065 25.1324 19.8043 23.9819 20.7527H23.9797C23.8131 20.8904 23.6443 21.0504 23.4732 21.2347L21.6274 23.3493C21.5453 23.4359 21.4453 23.487 21.3453 23.5092C21.0077 23.5892 20.6301 23.3515 20.6457 22.9606C20.6568 22.7118 21.0832 21.8211 21.2876 21.388C21.2876 21.388 21.3964 20.7461 21.4386 20.0953C21.5008 19.0691 21.9095 18.0807 22.6669 17.3854C23.3333 16.7791 24.3528 16.2415 25.9054 16.106C26.4563 16.0505 27.0782 16.055 27.7756 16.1216C27.9555 16.1416 28.1332 16.1149 28.2909 16.0372C28.6041 15.8861 29.2283 15.6729 29.9413 15.9661C30.3433 16.1283 30.7809 16.4525 31.1962 17.0345C31.1962 17.0345 30.0568 16.6413 29.0173 17.3699C29.0173 17.3699 29.2527 17.3477 29.5859 17.4676C29.617 17.4787 29.6503 17.4921 29.6836 17.5054C30.1034 17.6831 30.6432 18.0896 31.0541 19.0091C31.0541 19.0091 31.7515 20.3929 31.1985 22.3786C31.0252 23.0094 31.5339 23.5781 32.1314 23.5514C32.2335 23.5447 32.3401 23.5225 32.4445 23.4781L32.4623 23.4714C34.3081 22.6896 35.261 20.7305 35.2277 18.7981C35.1855 16.7013 34.0016 14.9488 31.927 14.3802V14.378ZM24.1151 15.5752L22.216 15.011L22.6159 13.0542L23.1289 13.2185L24.4728 13.645L24.1196 15.5574L24.1151 15.5774V15.5752Z" fill="#724401"/>
<path d="M34.257 25.746C34.3547 25.9103 34.2992 26.1213 34.1371 26.219L29.8213 28.7845C29.657 28.8822 29.446 28.8267 29.3482 28.6646C29.2883 28.5646 29.2838 28.4358 29.3371 28.3314C29.426 28.1537 29.6614 28.0737 29.7925 27.9227C29.9124 27.785 30.0012 27.6228 30.0612 27.4496C30.1856 27.0898 30.1967 26.6988 30.19 26.3235C30.1856 26.1546 30.1789 25.9858 30.1723 25.817C30.1523 25.2373 30.1056 24.6531 30.0124 24.0779C30.6965 24.6842 31.4428 25.1729 32.2468 25.6038C32.5645 25.7748 32.9265 25.8526 33.2841 25.7948C33.4641 25.7659 33.6351 25.7037 33.7972 25.6216C33.9594 25.5394 34.1615 25.5771 34.2592 25.7437L34.257 25.746Z" fill="#724401"/>
</g>
<g opacity="0.85">
<path d="M31.927 14.378L27.1604 13.0653L22.2538 11.7148L21.7385 11.5726C21.7385 11.5726 19.3019 21.519 19.2974 21.5257C18.8021 23.5514 19.524 25.9614 21.3698 27.052C21.4475 27.0986 21.5275 27.143 21.6119 27.1852C21.9939 27.3763 22.4026 27.5118 22.8269 27.5917C22.8358 27.5939 22.8469 27.5962 22.8557 27.5984C24.2506 27.856 25.781 27.5273 26.9383 26.7499C28.2532 25.8681 29.3882 24.0734 28.9728 22.4342C28.7641 21.619 28.1666 20.9771 27.4847 20.5151C27.4847 20.5151 27.2315 20.3018 26.8072 20.1464C26.1653 19.9065 25.1324 19.8043 23.9819 20.7527H23.9797C23.8131 20.8904 23.6443 21.0504 23.4732 21.2347L21.6274 23.3493C21.5453 23.4359 21.4453 23.487 21.3453 23.5092C21.0077 23.5892 20.6301 23.3515 20.6457 22.9606C20.6568 22.7118 21.0832 21.8211 21.2876 21.388C21.2876 21.388 21.3964 20.7461 21.4386 20.0953C21.5008 19.0691 21.9095 18.0807 22.6669 17.3854C23.3333 16.7791 24.3528 16.2415 25.9054 16.106C26.4563 16.0505 27.0782 16.055 27.7756 16.1216C27.9555 16.1416 28.1332 16.1149 28.2909 16.0372C28.6041 15.8861 29.2283 15.6729 29.9413 15.9661C30.3433 16.1283 30.7809 16.4525 31.1962 17.0345C31.1962 17.0345 30.0568 16.6413 29.0173 17.3699C29.0173 17.3699 29.2527 17.3477 29.5859 17.4676C29.617 17.4787 29.6503 17.4921 29.6836 17.5054C30.1034 17.6831 30.6432 18.0896 31.0541 19.0091C31.0541 19.0091 31.7515 20.3929 31.1985 22.3786C31.0252 23.0094 31.5339 23.5781 32.1314 23.5514C32.2335 23.5447 32.3401 23.5225 32.4445 23.4781L32.4623 23.4714C34.3081 22.6896 35.261 20.7305 35.2277 18.7981C35.1855 16.7013 34.0016 14.9488 31.927 14.3802V14.378ZM24.1151 15.5752L22.216 15.011L22.6159 13.0542L23.1289 13.2185L24.4728 13.645L24.1196 15.5574L24.1151 15.5774V15.5752Z" fill="#663703"/>
<path d="M34.257 25.746C34.3547 25.9103 34.2992 26.1213 34.1371 26.219L29.8213 28.7845C29.657 28.8822 29.446 28.8267 29.3482 28.6646C29.2883 28.5646 29.2838 28.4358 29.3371 28.3314C29.426 28.1537 29.6614 28.0737 29.7925 27.9227C29.9124 27.785 30.0012 27.6228 30.0612 27.4496C30.1856 27.0898 30.1967 26.6988 30.19 26.3235C30.1856 26.1546 30.1789 25.9858 30.1723 25.817C30.1523 25.2373 30.1056 24.6531 30.0124 24.0779C30.6965 24.6842 31.4428 25.1729 32.2468 25.6038C32.5645 25.7748 32.9265 25.8526 33.2841 25.7948C33.4641 25.7659 33.6351 25.7037 33.7972 25.6216C33.9594 25.5394 34.1615 25.5771 34.2592 25.7437L34.257 25.746Z" fill="#663703"/>
</g>
</g>
<path d="M45.8448 3.4009L45.6671 3.82737L45.3895 4.4915L44.6632 6.24401L44.4277 6.81484L32.58 35.3636L32.349 35.9277L27.5224 47.5556L27.3003 48.0909L21.2254 62.7328L20.9322 63.4392L20.1081 65.4227L19.9771 65.7403L19.786 66.2067C16.0856 63.9967 12.7694 61.0558 10.0706 57.4353L10.124 57.3065L10.1662 57.2066L11.2323 54.6344L11.5722 53.8059L22.3937 27.6805L22.4626 27.5139L24.3661 22.9161H24.3683L24.8237 21.8077H24.8259L26.5384 17.6697L26.6184 17.4765L27.7911 14.6423L27.7978 14.6334L31.2562 6.28399L31.5427 5.58876L32.2801 3.80516L32.6933 2.80563L32.9598 2.16149C37.3155 1.73503 41.6935 2.17038 45.8382 3.40313L45.8448 3.4009Z" fill="url(#paint6_linear_68_40282)"/>
<path d="M65.4289 18.807C65.4889 18.9003 65.5466 18.998 65.6044 19.0935C65.691 19.2401 65.7798 19.3889 65.8598 19.5355C65.8687 19.5422 65.8731 19.5511 65.8731 19.5577L65.8665 19.5777L64.6048 22.5785L64.2872 23.3337L53.5323 48.9549L53.2769 49.5591L52.1707 52.1956L51.9753 52.6643L51.8997 52.842L51.5843 53.5883L50.7048 55.6873L50.4071 56.3959L46.7089 65.2072L46.3335 66.0957L45.4273 68.2569L45.1096 69.0121L44.6387 70.1271C41.8223 70.7757 38.9636 71.0489 36.1317 70.9667L36.4937 70.1027L36.7358 69.5252L37.5288 67.6394L37.842 66.8909L41.3647 58.4993L41.6024 57.9329L42.6952 55.3364L42.9062 54.8277L43.7369 52.8575L44.0768 52.049L45.5028 48.6484L45.8248 47.8821L51.9308 33.3357L52.1396 32.8448H52.1419L54.7606 26.6011L55.0294 25.9614L59.2807 15.835L59.5406 15.2198L60.5157 12.8942L60.6223 12.6388L60.6911 12.4811C62.397 14.2802 63.9363 16.2948 65.2579 18.5182C65.3156 18.616 65.3756 18.7137 65.4289 18.8114V18.807Z" fill="url(#paint7_linear_68_40282)"/>
</g>
<defs>
<filter id="filter0_f_68_40282" x="0.482361" y="0" width="72.3862" height="72.981" filterUnits="userSpaceOnUse" color-interpolation-filters="sRGB">
<feFlood flood-opacity="0" result="BackgroundImageFix"/>
<feBlend mode="normal" in="SourceGraphic" in2="BackgroundImageFix" result="shape"/>
<feGaussianBlur stdDeviation="1" result="effect1_foregroundBlur_68_40282"/>
</filter>
<linearGradient id="paint0_linear_68_40282" x1="43.4394" y1="69.4153" x2="29.7222" y2="3.29434" gradientUnits="userSpaceOnUse">
<stop stop-color="#D3A150"/>
<stop offset="0.42" stop-color="#DDB264"/>
<stop offset="1" stop-color="#EFD186"/>
</linearGradient>
<linearGradient id="paint1_linear_68_40282" x1="20.6392" y1="9.57533" x2="52.5496" y2="63.2757" gradientUnits="userSpaceOnUse">
<stop stop-color="#513A01"/>
<stop offset="0.15" stop-color="#65440B"/>
<stop offset="0.46" stop-color="#986024"/>
<stop offset="0.58" stop-color="#AD6B2F"/>
<stop offset="1" stop-color="#FFE6CA"/>
</linearGradient>
<linearGradient id="paint2_linear_68_40282" x1="42.8527" y1="66.2888" x2="30.4394" y2="6.44922" gradientUnits="userSpaceOnUse">
<stop stop-color="#D3A150"/>
<stop offset="0.42" stop-color="#DDB264"/>
<stop offset="1" stop-color="#EFD186"/>
</linearGradient>
<radialGradient id="paint3_radial_68_40282" cx="0" cy="0" r="1" gradientUnits="userSpaceOnUse" gradientTransform="translate(42.8432 47.5805) rotate(-30.72) scale(22.0651 22.0651)">
<stop stop-color="white"/>
<stop offset="0.6" stop-color="#DDDDDD"/>
<stop offset="1" stop-color="#CCCCCC"/>
</radialGradient>
<radialGradient id="paint4_radial_68_40282" cx="0" cy="0" r="1" gradientUnits="userSpaceOnUse" gradientTransform="translate(25.688 18.3933) rotate(-30.72) scale(8.27608)">
<stop stop-color="white"/>
<stop offset="0.6" stop-color="#DDDDDD"/>
<stop offset="1" stop-color="#CCCCCC"/>
</radialGradient>
<radialGradient id="paint5_radial_68_40282" cx="0" cy="0" r="1" gradientUnits="userSpaceOnUse" gradientTransform="translate(30.965 25.8173) rotate(-30.72) scale(2.45439)">
<stop stop-color="white"/>
<stop offset="0.6" stop-color="#DDDDDD"/>
<stop offset="1" stop-color="#CCCCCC"/>
</radialGradient>
<linearGradient id="paint6_linear_68_40282" x1="12.6518" y1="81.9381" x2="36.1528" y2="2.8242" gradientUnits="userSpaceOnUse">
<stop stop-color="white" stop-opacity="0"/>
<stop offset="1" stop-color="white" stop-opacity="0.3"/>
</linearGradient>
<linearGradient id="paint7_linear_68_40282" x1="37.881" y1="89.4325" x2="61.3809" y2="10.3167" gradientUnits="userSpaceOnUse">
<stop stop-color="white" stop-opacity="0"/>
<stop offset="1" stop-color="white" stop-opacity="0.3"/>
</linearGradient>
</defs>
</svg>
