<svg width="28" height="28" viewBox="0 0 28 28" fill="none" xmlns="http://www.w3.org/2000/svg">
<path d="M28 13.6579C28 13.6908 28 13.7228 27.9991 13.7556V13.8347C27.9016 21.2963 21.6713 27.3167 14 27.3167C13.1401 27.3167 12.2994 27.2402 11.4824 27.0963C10.2072 26.8715 8.99298 26.476 7.86442 25.9384C5.60001 24.8597 3.67899 23.2024 2.30176 21.1639C1.27157 19.6391 0.545614 17.901 0.210415 16.0314C0.0828941 15.3169 0.0100204 14.5829 0.000911755 13.8347V13.7556C8.89538e-07 13.7228 0 13.6908 0 13.6579C0 6.11539 6.26675 0 13.9991 0C15.5184 0 16.9804 0.23637 18.3512 0.672676C20.1893 1.25916 21.8608 2.20641 23.2763 3.42913C25.1645 5.05973 26.5982 7.17994 27.3679 9.58629C27.7404 10.7495 27.9563 11.9802 27.9936 13.2536C27.9982 13.3877 28 13.5228 28 13.6579Z" fill="#787878"/>
<path d="M27.9991 14.3421C27.9991 21.8855 21.7314 28 13.9991 28C6.26675 28 0 21.8855 0 14.3421C0 6.79873 6.26766 0.684227 13.9991 0.684227C21.7305 0.684227 27.9991 6.79962 27.9991 14.3421Z" fill="#474747"/>
<path d="M28 13.9316C28 21.4741 21.7323 27.5886 14 27.5886C13.0472 27.5886 12.1163 27.4953 11.2173 27.3184C9.96213 27.0714 8.76709 26.6609 7.65857 26.1099C5.42057 24.9983 3.52778 23.317 2.18608 21.2617C1.17502 19.7137 0.473661 17.9534 0.170343 16.0642C0.0573952 15.3693 0 14.6567 0 13.9316C0 13.8987 8.89538e-07 13.8667 0.000911755 13.8338V13.7547C0.0983744 6.29223 6.32778 0.272804 13.9991 0.272804C15.4319 0.272804 16.8137 0.482515 18.1144 0.872614C19.9771 1.43066 21.6731 2.35747 23.115 3.56509C25.0251 5.16547 26.4889 7.25992 27.2959 9.64494C27.6839 10.7912 27.9208 12.0042 27.9836 13.2616C27.9909 13.4251 27.9973 13.5895 27.9991 13.7547V13.8338C28 13.8667 28 13.8987 28 13.9316Z" fill="url(#paint0_linear_74_25038)"/>
<path d="M26.9435 13.9591C26.9435 20.9374 21.144 26.596 13.99 26.596C6.8361 26.596 1.03662 20.9382 1.03662 13.9591C1.03662 6.98001 6.8361 1.32136 13.99 1.32136C21.144 1.32136 26.9435 6.97912 26.9435 13.9591Z" fill="url(#paint1_linear_74_25038)"/>
<path d="M26.6884 13.9493C26.6884 20.7774 21.0155 26.3099 14.0183 26.3099C7.021 26.3099 1.34814 20.7765 1.34814 13.9493C1.34814 7.12218 7.021 1.58971 14.0183 1.58971C21.0155 1.58971 26.6884 7.12307 26.6884 13.9493Z" fill="url(#paint2_linear_74_25038)"/>
<path d="M14.4937 2.61784C14.4937 2.81777 14.3279 2.9795 14.1229 2.9795C13.918 2.9795 13.7522 2.81777 13.7522 2.61784C13.7522 2.4179 13.918 2.25617 14.1229 2.25617C14.3279 2.25617 14.4937 2.4179 14.4937 2.61784Z" fill="#474747"/>
<path d="M14.531 2.52542C14.531 2.72535 14.3652 2.88708 14.1603 2.88708C13.9553 2.88708 13.7896 2.72535 13.7896 2.52542C13.7896 2.32548 13.9553 2.16376 14.1603 2.16376C14.3652 2.16376 14.531 2.32548 14.531 2.52542Z" fill="#E6E7E8"/>
<path d="M14.5128 2.57162C14.5128 2.77156 14.347 2.93329 14.1421 2.93329C13.9371 2.93329 13.7714 2.77156 13.7714 2.57162C13.7714 2.37169 13.9371 2.20996 14.1421 2.20996C14.347 2.20996 14.5128 2.37169 14.5128 2.57162Z" fill="#898989"/>
<path d="M12.662 2.6827C12.6939 2.87997 12.5563 3.06569 12.3541 3.0968C12.1519 3.1279 11.9615 2.99372 11.9296 2.79645C11.8978 2.59918 12.0353 2.41346 12.2375 2.38235C12.4397 2.35125 12.6301 2.48543 12.662 2.6827Z" fill="#474747"/>
<path d="M12.6848 2.58585C12.7167 2.78312 12.5792 2.96884 12.3769 2.99994C12.1747 3.03104 11.9843 2.89686 11.9525 2.69959C11.9206 2.50232 12.0581 2.3166 12.2604 2.2855C12.4626 2.2544 12.6529 2.38858 12.6848 2.58585Z" fill="#E6E7E8"/>
<path d="M12.6738 2.63384C12.7057 2.83111 12.5681 3.01683 12.3659 3.04793C12.1637 3.07903 11.9734 2.94485 11.9415 2.74758C11.9096 2.55031 12.0471 2.36459 12.2493 2.33349C12.4516 2.30239 12.6419 2.43656 12.6738 2.63384Z" fill="#898989"/>
<path d="M10.8639 3.0266C10.9277 3.21676 10.8202 3.42114 10.6262 3.48245C10.4312 3.54466 10.2217 3.4398 10.1589 3.25053C10.0951 3.06036 10.2026 2.85598 10.3966 2.79467C10.5915 2.73247 10.8001 2.83732 10.8639 3.0266Z" fill="#474747"/>
<path d="M10.8712 2.92618C10.9341 3.11635 10.8275 3.32073 10.6335 3.38204C10.4386 3.44335 10.2291 3.33938 10.1662 3.15011C10.1025 2.95995 10.2099 2.75557 10.4039 2.69426C10.5989 2.63294 10.8084 2.73691 10.8712 2.92618Z" fill="#E6E7E8"/>
<path d="M10.8676 2.97684C10.9313 3.167 10.8238 3.37138 10.6298 3.43269C10.4349 3.49401 10.2263 3.39004 10.1625 3.20077C10.0997 3.0106 10.2053 2.80711 10.4003 2.74491C10.5952 2.6836 10.8047 2.78756 10.8676 2.97684Z" fill="#898989"/>
<path d="M9.14328 3.63973C9.23619 3.81745 9.16332 4.03605 8.98114 4.12669C8.79897 4.21733 8.5749 4.14624 8.4829 3.96852C8.38999 3.7908 8.46284 3.57309 8.64502 3.48156C8.82719 3.39092 9.05126 3.46201 9.14417 3.63973H9.14328Z" fill="#474747"/>
<path d="M9.13418 3.54021C9.22709 3.71793 9.15421 3.93653 8.97204 4.02716C8.78987 4.1178 8.5658 4.04671 8.47289 3.86899C8.37998 3.69127 8.45285 3.47356 8.63502 3.38203C8.8172 3.2914 9.04127 3.36249 9.13418 3.54021Z" fill="#E6E7E8"/>
<path d="M9.13869 3.58997C9.2316 3.76769 9.15873 3.98629 8.97656 4.07692C8.79438 4.16756 8.57031 4.09647 8.4774 3.91875C8.3845 3.74103 8.45737 3.52332 8.63954 3.43179C8.82171 3.34116 9.04579 3.41224 9.13869 3.58997Z" fill="#898989"/>
<path d="M7.54097 4.50879C7.6612 4.67051 7.62475 4.89711 7.45898 5.0144C7.2932 5.1317 7.06093 5.09616 6.9407 4.93443C6.82047 4.7727 6.85691 4.547 7.02269 4.42881C7.18847 4.31152 7.41982 4.34706 7.54097 4.50879Z" fill="#474747"/>
<path d="M7.51643 4.41193C7.63667 4.57366 7.60024 4.79936 7.43446 4.91755C7.26869 5.03484 7.0364 4.9993 6.91616 4.83757C6.79593 4.67585 6.83238 4.44925 6.99816 4.33196C7.16393 4.21466 7.3962 4.2502 7.51643 4.41193Z" fill="#E6E7E8"/>
<path d="M7.52924 4.45992C7.64947 4.62165 7.61304 4.84824 7.44727 4.96554C7.28149 5.08283 7.04922 5.04729 6.92899 4.88556C6.80875 4.72384 6.84518 4.49813 7.01096 4.37995C7.17674 4.26265 7.40809 4.29819 7.52924 4.45992Z" fill="#898989"/>
<path d="M6.0991 5.61067C6.24393 5.75195 6.24393 5.98122 6.0991 6.1225C5.95427 6.26379 5.71927 6.26379 5.57444 6.1225C5.42961 5.98122 5.42961 5.75195 5.57444 5.61067C5.71927 5.46938 5.95427 5.46938 6.0991 5.61067Z" fill="#474747"/>
<path d="M6.05906 5.51914C6.20389 5.66042 6.20389 5.88969 6.05906 6.03097C5.91423 6.17226 5.67923 6.17226 5.5344 6.03097C5.38957 5.88969 5.38957 5.66042 5.5344 5.51914C5.67923 5.37785 5.91423 5.37785 6.05906 5.51914Z" fill="#E6E7E8"/>
<path d="M6.07908 5.56535C6.22391 5.70664 6.22391 5.93589 6.07908 6.07718C5.93425 6.21847 5.69925 6.21847 5.55442 6.07718C5.40959 5.93589 5.40959 5.70664 5.55442 5.56535C5.69925 5.42406 5.93425 5.42406 6.07908 5.56535Z" fill="#898989"/>
<path d="M4.85132 6.91958C5.0171 7.03688 5.05352 7.26347 4.93329 7.42519C4.81305 7.58692 4.58079 7.62247 4.41501 7.50517C4.24923 7.38787 4.21281 7.16128 4.33304 6.99955C4.45328 6.83783 4.68554 6.80228 4.85132 6.91958Z" fill="#474747"/>
<path d="M4.79662 6.83516C4.9624 6.95246 4.99885 7.17905 4.87861 7.34078C4.75838 7.50251 4.52612 7.53805 4.36034 7.42075C4.19456 7.30345 4.15811 7.07686 4.27835 6.91513C4.39858 6.75341 4.63085 6.71787 4.79662 6.83516Z" fill="#E6E7E8"/>
<path d="M4.82398 6.87782C4.98975 6.99511 5.0262 7.22171 4.90597 7.38343C4.78573 7.54516 4.55344 7.58071 4.38767 7.46341C4.22189 7.34611 4.18546 7.11952 4.3057 6.95779C4.42593 6.79607 4.6582 6.76052 4.82398 6.87782Z" fill="#898989"/>
<path d="M3.82836 8.40266C4.01054 8.49329 4.08341 8.71101 3.9905 8.88962C3.89759 9.06734 3.67443 9.13842 3.49135 9.04779C3.30917 8.95715 3.2363 8.73944 3.32921 8.56083C3.42212 8.38311 3.64528 8.31202 3.82836 8.40266Z" fill="#474747"/>
<path d="M3.76098 8.32802C3.94315 8.41866 4.01603 8.63636 3.92312 8.81497C3.83021 8.9927 3.60705 9.06379 3.42397 8.97315C3.24179 8.88251 3.16892 8.6648 3.26183 8.48619C3.35474 8.30847 3.5779 8.23738 3.76098 8.32802Z" fill="#E6E7E8"/>
<path d="M3.79467 8.36534C3.97685 8.45598 4.04972 8.67369 3.95681 8.8523C3.8639 9.03002 3.64074 9.10111 3.45766 9.01047C3.27548 8.91983 3.20261 8.70213 3.29552 8.52352C3.38843 8.34579 3.61159 8.2747 3.79467 8.36534Z" fill="#898989"/>
<path d="M3.05595 10.0244C3.25088 10.0857 3.35744 10.2901 3.29368 10.4802C3.22992 10.6704 3.02134 10.7744 2.82641 10.7122C2.63149 10.6508 2.52491 10.4465 2.58867 10.2563C2.65152 10.0661 2.86103 9.96217 3.05595 10.0244Z" fill="#474747"/>
<path d="M2.97756 9.96039C3.17249 10.0217 3.27907 10.2261 3.21531 10.4162C3.15155 10.6064 2.94295 10.7104 2.74802 10.6482C2.5531 10.586 2.44654 10.3825 2.5103 10.1923C2.57406 10.0022 2.78264 9.89819 2.97756 9.96039Z" fill="#E6E7E8"/>
<path d="M3.01676 9.99238C3.21168 10.0537 3.31824 10.2581 3.25448 10.4482C3.19072 10.6384 2.98214 10.7424 2.78722 10.6802C2.59229 10.618 2.48571 10.4145 2.54856 10.2243C2.61141 10.0341 2.82092 9.93018 3.01584 9.99238H3.01676Z" fill="#898989"/>
<path d="M2.55304 11.7429C2.75526 11.774 2.8937 11.9598 2.86091 12.157C2.82902 12.3543 2.63866 12.4885 2.43645 12.4574C2.23424 12.4263 2.0958 12.2406 2.12859 12.0433C2.16047 11.846 2.35083 11.7109 2.55304 11.7429Z" fill="#474747"/>
<path d="M2.46566 11.6923C2.66787 11.7234 2.80632 11.9091 2.77352 12.1064C2.74164 12.3036 2.55128 12.4387 2.34907 12.4076C2.14686 12.3765 2.00839 12.1908 2.04118 11.9935C2.07307 11.7963 2.26345 11.6612 2.46566 11.6932V11.6923Z" fill="#E6E7E8"/>
<path d="M2.5094 11.7172C2.71161 11.7483 2.85005 11.934 2.81726 12.1313C2.78538 12.3285 2.59502 12.4636 2.39281 12.4316C2.1906 12.4005 2.05215 12.2148 2.08403 12.0175C2.11591 11.8202 2.30628 11.6852 2.50849 11.7172H2.5094Z" fill="#898989"/>
<path d="M2.33276 13.5175C2.53771 13.5175 2.70347 13.6792 2.70347 13.8791C2.70347 14.0791 2.53771 14.2408 2.33276 14.2408C2.12782 14.2408 1.96204 14.0791 1.96204 13.8791C1.96204 13.6792 2.12782 13.5175 2.33276 13.5175Z" fill="#474747"/>
<path d="M2.23706 13.481C2.44201 13.481 2.60779 13.6428 2.60779 13.8427C2.60779 14.0426 2.44201 14.2044 2.23706 14.2044C2.03212 14.2044 1.86633 14.0426 1.86633 13.8427C1.86633 13.6428 2.03212 13.481 2.23706 13.481Z" fill="#E6E7E8"/>
<path d="M2.28442 13.4988C2.48937 13.4988 2.65513 13.6606 2.65513 13.8605C2.65513 14.0604 2.48937 14.2222 2.28442 14.2222C2.07948 14.2222 1.9137 14.0604 1.9137 13.8605C1.9137 13.6606 2.07948 13.4988 2.28442 13.4988Z" fill="#898989"/>
<path d="M2.39829 15.3036C2.6005 15.2725 2.79086 15.4067 2.82275 15.6048C2.85463 15.8021 2.7171 15.9878 2.51488 16.0189C2.31267 16.05 2.12229 15.9158 2.09041 15.7186C2.05853 15.5213 2.19608 15.3356 2.39829 15.3045V15.3036Z" fill="#474747"/>
<path d="M2.29902 15.2823C2.50124 15.2512 2.6916 15.3853 2.72348 15.5826C2.75536 15.7799 2.61783 15.9656 2.41562 15.9967C2.21341 16.0278 2.02304 15.8936 1.99116 15.6963C1.95928 15.4991 2.09681 15.3134 2.29902 15.2823Z" fill="#E6E7E8"/>
<path d="M2.3491 15.2929C2.55131 15.2618 2.74167 15.396 2.77355 15.5933C2.80543 15.7905 2.6679 15.9763 2.46569 16.0074C2.26348 16.0385 2.07309 15.9043 2.04121 15.707C2.00933 15.5097 2.14688 15.324 2.3491 15.2929Z" fill="#898989"/>
<path d="M2.75087 17.0586C2.94579 16.9973 3.15439 17.1012 3.21816 17.2905C3.281 17.4807 3.17442 17.6842 2.98041 17.7464C2.78548 17.8077 2.576 17.7037 2.51315 17.5144C2.44939 17.3243 2.55686 17.1208 2.75087 17.0586Z" fill="#474747"/>
<path d="M2.64879 17.0515C2.84372 16.9893 3.05321 17.0932 3.11606 17.2834C3.17891 17.4736 3.07235 17.6779 2.87742 17.7393C2.6825 17.8015 2.4739 17.6975 2.41014 17.5073C2.34729 17.3172 2.45387 17.1128 2.64788 17.0515H2.64879Z" fill="#E6E7E8"/>
<path d="M2.69974 17.055C2.89467 16.9937 3.10418 17.0968 3.16703 17.287C3.23079 17.4771 3.12421 17.6815 2.92928 17.7428C2.73436 17.8041 2.52487 17.7002 2.46202 17.5109C2.39917 17.3207 2.50573 17.1163 2.69974 17.055Z" fill="#898989"/>
<path d="M3.37923 18.7372C3.5614 18.6465 3.78456 18.7176 3.87838 18.8953C3.97129 19.0731 3.89842 19.2908 3.71625 19.3823C3.53407 19.4729 3.31091 19.4018 3.21801 19.2241C3.1251 19.0464 3.19797 18.8287 3.38014 18.7372H3.37923Z" fill="#474747"/>
<path d="M3.27724 18.7469C3.45941 18.6563 3.68257 18.7265 3.77639 18.9051C3.8693 19.0828 3.79643 19.3014 3.61425 19.3921C3.43208 19.4827 3.20892 19.4116 3.1151 19.2339C3.02219 19.0562 3.09506 18.8376 3.27724 18.7469Z" fill="#E6E7E8"/>
<path d="M3.32826 18.7416C3.51044 18.651 3.73451 18.7212 3.82741 18.8998C3.92032 19.0775 3.84836 19.2952 3.66528 19.3858C3.4831 19.4765 3.25903 19.4054 3.16613 19.2277C3.07322 19.0499 3.14609 18.8314 3.32826 18.7416Z" fill="#898989"/>
<path d="M4.27013 20.2993C4.43591 20.182 4.66726 20.2176 4.78841 20.3793C4.90864 20.541 4.87219 20.7667 4.70641 20.8849C4.54064 21.0022 4.30837 20.9667 4.18814 20.8049C4.0679 20.6432 4.10435 20.4175 4.27013 20.2993Z" fill="#474747"/>
<path d="M4.17088 20.3242C4.33666 20.2069 4.56893 20.2425 4.68916 20.4042C4.8094 20.5659 4.77297 20.7925 4.60719 20.9098C4.44142 21.0271 4.21004 20.9915 4.08889 20.8298C3.96866 20.6681 4.00511 20.4415 4.17088 20.3242Z" fill="#E6E7E8"/>
<path d="M4.22008 20.3118C4.38586 20.1945 4.61812 20.23 4.73836 20.3917C4.85859 20.5535 4.82217 20.7792 4.65639 20.8965C4.49061 21.0138 4.25832 20.9782 4.13809 20.8165C4.01785 20.6548 4.0543 20.4291 4.22008 20.3109V20.3118Z" fill="#898989"/>
<path d="M5.39964 21.7069C5.54446 21.5656 5.77947 21.5656 5.9243 21.7069C6.06912 21.8482 6.06912 22.0774 5.9243 22.2187C5.77947 22.36 5.54446 22.36 5.39964 22.2187C5.25481 22.0774 5.25481 21.8482 5.39964 21.7069Z" fill="#474747"/>
<path d="M5.30576 21.7469C5.45059 21.6056 5.6856 21.6056 5.83042 21.7469C5.97525 21.8882 5.97525 22.1174 5.83042 22.2587C5.6856 22.4 5.45059 22.4 5.30576 22.2587C5.16094 22.1174 5.16094 21.8882 5.30576 21.7469Z" fill="#E6E7E8"/>
<path d="M5.35313 21.7264C5.49796 21.5851 5.73296 21.5851 5.87779 21.7264C6.02261 21.8677 6.02261 22.0961 5.87779 22.2374C5.73296 22.3787 5.49796 22.3787 5.35313 22.2374C5.2083 22.0961 5.2083 21.8668 5.35313 21.7256V21.7264Z" fill="#898989"/>
<path d="M6.74137 22.9243C6.8616 22.7626 7.09387 22.727 7.25964 22.8443C7.42542 22.9616 7.46187 23.1882 7.34164 23.3499C7.2214 23.5116 6.98911 23.5472 6.82334 23.4299C6.65756 23.3126 6.62113 23.086 6.74137 22.9243Z" fill="#474747"/>
<path d="M6.65482 22.9776C6.77505 22.8159 7.00732 22.7803 7.1731 22.8976C7.33887 23.0149 7.3753 23.2415 7.25507 23.4032C7.13483 23.565 6.90257 23.6005 6.73679 23.4832C6.57101 23.3659 6.53458 23.1393 6.65482 22.9776Z" fill="#E6E7E8"/>
<path d="M6.69852 22.9509C6.81875 22.7892 7.05102 22.7537 7.2168 22.871C7.38258 22.9883 7.41902 23.2148 7.29879 23.3757C7.17855 23.5374 6.94627 23.573 6.78049 23.4557C6.61471 23.3384 6.57829 23.1118 6.69852 22.95V22.9509Z" fill="#898989"/>
<path d="M8.26244 23.9222C8.35535 23.7445 8.57851 23.6734 8.76159 23.764C8.94376 23.8547 9.01664 24.0724 8.92373 24.251C8.83082 24.4287 8.60766 24.4998 8.42458 24.4091C8.2424 24.3185 8.16953 24.1008 8.26244 23.9231V23.9222Z" fill="#474747"/>
<path d="M8.18505 23.9879C8.27796 23.8102 8.50112 23.7391 8.6842 23.8298C8.86638 23.9204 8.93925 24.1381 8.84634 24.3167C8.75343 24.4945 8.53025 24.5655 8.34717 24.4749C8.16499 24.3843 8.09214 24.1666 8.18505 23.9879Z" fill="#E6E7E8"/>
<path d="M8.22338 23.9551C8.31628 23.7773 8.53944 23.7063 8.72253 23.7969C8.9047 23.8875 8.97757 24.1052 8.88466 24.2838C8.79176 24.4616 8.5686 24.5327 8.38551 24.442C8.20334 24.3514 8.13047 24.1337 8.22338 23.956V23.9551Z" fill="#898989"/>
<path d="M9.92387 24.6757C9.98763 24.4856 10.1962 24.3816 10.3912 24.4438C10.5861 24.5051 10.6926 24.7095 10.6289 24.8996C10.566 25.0898 10.3565 25.1938 10.1616 25.1316C9.96669 25.0703 9.86011 24.8659 9.92387 24.6757Z" fill="#474747"/>
<path d="M9.85832 24.7521C9.92117 24.562 10.1307 24.458 10.3256 24.5202C10.5205 24.5824 10.6271 24.7859 10.5633 24.9761C10.4996 25.1662 10.291 25.2702 10.0961 25.208C9.90114 25.1458 9.79456 24.9414 9.85832 24.7521Z" fill="#E6E7E8"/>
<path d="M9.89116 24.7139C9.95401 24.5238 10.1635 24.4198 10.3584 24.482C10.5533 24.5442 10.6599 24.7477 10.5962 24.9379C10.5324 25.128 10.3238 25.232 10.1289 25.1698C9.93396 25.1085 9.8274 24.9041 9.89116 24.7139Z" fill="#898989"/>
<path d="M11.6855 25.1662C11.7174 24.969 11.9077 24.8348 12.1099 24.8659C12.3121 24.897 12.4506 25.0827 12.4178 25.28C12.3859 25.4772 12.1955 25.6114 11.9933 25.5803C11.7911 25.5492 11.6527 25.3635 11.6855 25.1662Z" fill="#474747"/>
<path d="M11.6336 25.2515C11.6655 25.0543 11.8559 24.9192 12.0581 24.9503C12.2603 24.9814 12.3987 25.1671 12.3659 25.3644C12.3341 25.5617 12.1437 25.6967 11.9415 25.6647C11.7393 25.6336 11.6008 25.4479 11.6336 25.2507V25.2515Z" fill="#E6E7E8"/>
<path d="M11.66 25.2089C11.6919 25.0116 11.8822 24.8765 12.0844 24.9085C12.2867 24.9396 12.4242 25.1254 12.3923 25.3226C12.3604 25.5199 12.1701 25.655 11.9678 25.623C11.7656 25.5919 11.6281 25.4062 11.66 25.2089Z" fill="#898989"/>
<path d="M13.5045 25.3813C13.5045 25.1813 13.6712 25.0196 13.8752 25.0196C14.0802 25.0196 14.246 25.1813 14.246 25.3813C14.246 25.5812 14.0802 25.7429 13.8752 25.7429C13.6703 25.7429 13.5045 25.5812 13.5045 25.3813Z" fill="#474747"/>
<path d="M13.4672 25.4746C13.4672 25.2746 13.6329 25.1129 13.8379 25.1129C14.0428 25.1129 14.2086 25.2746 14.2086 25.4746C14.2086 25.6745 14.0419 25.8362 13.8379 25.8362C13.6329 25.8362 13.4672 25.6736 13.4672 25.4746Z" fill="#E6E7E8"/>
<path d="M13.4863 25.4275C13.4863 25.2275 13.6521 25.0658 13.8571 25.0658C14.062 25.0658 14.2278 25.2275 14.2278 25.4275C14.2278 25.6274 14.062 25.7891 13.8571 25.7891C13.6521 25.7891 13.4863 25.6274 13.4863 25.4275Z" fill="#898989"/>
<path d="M15.3362 25.3164C15.3044 25.1191 15.4428 24.9343 15.645 24.9023C15.8472 24.8712 16.0376 25.0054 16.0695 25.2036C16.1013 25.4008 15.9638 25.5865 15.7616 25.6176C15.5594 25.6487 15.369 25.5146 15.3371 25.3173L15.3362 25.3164Z" fill="#474747"/>
<path d="M15.3134 25.4141C15.2815 25.2169 15.4191 25.0312 15.6213 25.0001C15.8235 24.969 16.0139 25.1031 16.0457 25.3013C16.0776 25.4986 15.9392 25.6843 15.7379 25.7154C15.5357 25.7465 15.3453 25.6114 15.3134 25.415V25.4141Z" fill="#E6E7E8"/>
<path d="M15.3243 25.3653C15.2924 25.168 15.43 24.9823 15.6322 24.9512C15.8344 24.9201 16.0248 25.0543 16.0566 25.2515C16.0885 25.4488 15.951 25.6345 15.7487 25.6656C15.5465 25.6967 15.3562 25.5626 15.3243 25.3644V25.3653Z" fill="#898989"/>
<path d="M17.1343 24.9734C17.0714 24.7832 17.178 24.5798 17.3729 24.5176C17.5678 24.4562 17.7773 24.5602 17.8402 24.7495C17.9039 24.9396 17.7974 25.1431 17.6015 25.2053C17.4066 25.2666 17.1971 25.1627 17.1343 24.9734Z" fill="#474747"/>
<path d="M17.1279 25.0738C17.0641 24.8837 17.1716 24.6793 17.3656 24.618C17.5605 24.5558 17.7701 24.6597 17.8329 24.8499C17.8958 25.0401 17.7892 25.2444 17.5942 25.3057C17.3993 25.3679 17.1898 25.2631 17.127 25.0738H17.1279Z" fill="#E6E7E8"/>
<path d="M17.1307 25.0232C17.0678 24.833 17.1735 24.6286 17.3684 24.5673C17.5633 24.506 17.7719 24.6091 17.8357 24.7992C17.8985 24.9894 17.792 25.1938 17.5979 25.2551C17.403 25.3173 17.1944 25.2124 17.1307 25.0232Z" fill="#898989"/>
<path d="M18.8548 24.3603C18.7619 24.1825 18.8348 23.9639 19.017 23.8733C19.1992 23.7827 19.4232 23.8538 19.5161 24.0315C19.609 24.2101 19.5362 24.4278 19.354 24.5184C19.1718 24.6091 18.9487 24.538 18.8548 24.3603Z" fill="#474747"/>
<path d="M18.8649 24.4598C18.772 24.2821 18.8439 24.0635 19.027 23.9728C19.2092 23.8822 19.4333 23.9524 19.5262 24.131C19.6191 24.3087 19.5462 24.5264 19.3641 24.618C19.1819 24.7086 18.9578 24.6375 18.8649 24.4598Z" fill="#E6E7E8"/>
<path d="M18.8603 24.41C18.7674 24.2323 18.8403 24.0137 19.0225 23.924C19.2046 23.8333 19.4278 23.9035 19.5207 24.0821C19.6136 24.2598 19.5408 24.4784 19.3586 24.5691C19.1764 24.6597 18.9532 24.5886 18.8594 24.4109L18.8603 24.41Z" fill="#898989"/>
<path d="M20.457 23.4912C20.3368 23.3295 20.3742 23.1029 20.539 22.9856C20.7048 22.8683 20.9362 22.9038 21.0573 23.0656C21.1775 23.2273 21.1411 23.453 20.9753 23.5712C20.8095 23.6885 20.5782 23.6529 20.457 23.4912Z" fill="#474747"/>
<path d="M20.4816 23.5881C20.3614 23.4263 20.3978 23.1997 20.5636 23.0824C20.7293 22.9651 20.9616 23.0007 21.0818 23.1624C21.2021 23.3241 21.1657 23.5507 20.9999 23.668C20.8341 23.7853 20.6018 23.7489 20.4816 23.5881Z" fill="#E6E7E8"/>
<path d="M20.4698 23.5392C20.3495 23.3775 20.386 23.1518 20.5517 23.0336C20.7175 22.9163 20.9489 22.9518 21.0691 23.1135C21.1893 23.2753 21.1529 23.5019 20.9871 23.6192C20.8213 23.7365 20.5891 23.7009 20.4688 23.5392H20.4698Z" fill="#898989"/>
<path d="M21.899 22.3884C21.7542 22.2472 21.7542 22.0179 21.899 21.8766C22.0439 21.7353 22.2789 21.7353 22.4237 21.8766C22.5685 22.0179 22.5685 22.2472 22.4237 22.3884C22.2789 22.5297 22.0439 22.5297 21.899 22.3884Z" fill="#474747"/>
<path d="M21.94 22.4809C21.7952 22.3396 21.7952 22.1103 21.94 21.969C22.0849 21.8277 22.3199 21.8277 22.4647 21.969C22.6095 22.1103 22.6095 22.3396 22.4647 22.4809C22.3199 22.6222 22.0849 22.6222 21.94 22.4809Z" fill="#E6E7E8"/>
<path d="M21.92 22.4347C21.7752 22.2934 21.7752 22.0641 21.92 21.9228C22.0648 21.7815 22.2999 21.7815 22.4447 21.9228C22.5895 22.0641 22.5895 22.2934 22.4447 22.4347C22.2999 22.5759 22.0648 22.5759 21.92 22.4347Z" fill="#898989"/>
<path d="M23.1468 21.0795C22.9811 20.9622 22.9446 20.7356 23.0648 20.5739C23.1851 20.4122 23.4173 20.3766 23.5831 20.4939C23.7489 20.6112 23.7853 20.8378 23.6651 20.9996C23.5449 21.1613 23.3126 21.1968 23.1468 21.0795Z" fill="#474747"/>
<path d="M23.2024 21.1648C23.0366 21.0475 23.0002 20.8209 23.1204 20.6592C23.2406 20.4975 23.4729 20.4619 23.6387 20.5792C23.8045 20.6965 23.8409 20.9231 23.7206 21.0849C23.6004 21.2466 23.3681 21.2821 23.2024 21.1648Z" fill="#E6E7E8"/>
<path d="M23.1742 21.1222C23.0084 21.0049 22.972 20.7783 23.0922 20.6166C23.2124 20.4548 23.4438 20.4193 23.6096 20.5366C23.7753 20.6539 23.8118 20.8805 23.6916 21.0422C23.5713 21.2039 23.339 21.2395 23.1733 21.1222H23.1742Z" fill="#898989"/>
<path d="M24.1698 19.5964C23.9876 19.5058 23.9148 19.2881 24.0077 19.1104C24.1006 18.9327 24.3237 18.8616 24.5068 18.9522C24.689 19.0428 24.7619 19.2605 24.669 19.4392C24.5761 19.6169 24.3529 19.688 24.1707 19.5973L24.1698 19.5964Z" fill="#474747"/>
<path d="M24.2372 19.672C24.0542 19.5813 23.9822 19.3636 24.0751 19.185C24.168 19.0073 24.3912 18.9362 24.5743 19.0268C24.7564 19.1175 24.8293 19.3352 24.7364 19.5138C24.6435 19.6915 24.4203 19.7626 24.2372 19.672Z" fill="#E6E7E8"/>
<path d="M24.2035 19.6346C24.0213 19.544 23.9485 19.3263 24.0414 19.1477C24.1343 18.97 24.3574 18.8989 24.5396 18.9895C24.7218 19.0802 24.7947 19.2988 24.7017 19.4765C24.6088 19.6542 24.3857 19.7253 24.2026 19.6346H24.2035Z" fill="#898989"/>
<path d="M24.9423 17.9756C24.7473 17.9143 24.6408 17.7099 24.7045 17.5198C24.7683 17.3296 24.9769 17.2256 25.1718 17.2878C25.3667 17.3492 25.4733 17.5535 25.4095 17.7437C25.3467 17.9339 25.1372 18.0378 24.9423 17.9756Z" fill="#474747"/>
<path d="M25.0215 18.0396C24.8265 17.9774 24.72 17.7739 24.7837 17.5837C24.8466 17.3936 25.0561 17.2896 25.251 17.3518C25.4459 17.414 25.5525 17.6175 25.4887 17.8077C25.425 17.9978 25.2164 18.1018 25.0215 18.0405V18.0396Z" fill="#E6E7E8"/>
<path d="M24.9815 18.0076C24.7875 17.9454 24.68 17.7419 24.7437 17.5518C24.8066 17.3616 25.0161 17.2576 25.211 17.3198C25.4059 17.382 25.5125 17.5855 25.4487 17.7757C25.3859 17.9658 25.1764 18.0698 24.9815 18.0076Z" fill="#898989"/>
<path d="M25.445 16.2571C25.2428 16.226 25.1053 16.0402 25.1372 15.843C25.169 15.6457 25.3594 15.5115 25.5616 15.5426C25.7638 15.5737 25.9014 15.7594 25.8695 15.9567C25.8376 16.154 25.6473 16.2882 25.445 16.2571Z" fill="#474747"/>
<path d="M25.5334 16.3077C25.3312 16.2766 25.1927 16.0909 25.2255 15.8936C25.2574 15.6963 25.4478 15.5613 25.65 15.5933C25.8522 15.6244 25.9906 15.8101 25.9588 16.0074C25.9269 16.2046 25.7365 16.3397 25.5343 16.3086L25.5334 16.3077Z" fill="#E6E7E8"/>
<path d="M25.4887 16.2819C25.2865 16.2508 25.148 16.0651 25.1808 15.8678C25.2127 15.6706 25.4022 15.5364 25.6053 15.5675C25.8075 15.5986 25.946 15.7843 25.9132 15.9816C25.8813 16.1789 25.6909 16.3139 25.4887 16.2819Z" fill="#898989"/>
<path d="M25.6654 14.4825C25.4605 14.4825 25.2947 14.3199 25.2947 14.1208C25.2947 13.9209 25.4605 13.7592 25.6654 13.7592C25.8704 13.7592 26.0361 13.9209 26.0361 14.1208C26.0361 14.3199 25.8704 14.4825 25.6654 14.4825Z" fill="#474747"/>
<path d="M25.7611 14.5189C25.5562 14.5189 25.3904 14.3563 25.3904 14.1573C25.3904 13.9573 25.5562 13.7956 25.7611 13.7956C25.9661 13.7956 26.1318 13.9573 26.1318 14.1573C26.1318 14.3572 25.9651 14.5189 25.7611 14.5189Z" fill="#E6E7E8"/>
<path d="M25.7137 14.5003C25.5088 14.5003 25.343 14.3386 25.343 14.1386C25.343 13.9387 25.5088 13.777 25.7137 13.777C25.9187 13.777 26.0845 13.9396 26.0845 14.1386C26.0845 14.3386 25.9187 14.5003 25.7137 14.5003Z" fill="#898989"/>
<path d="M25.5998 12.6955C25.3976 12.7266 25.2082 12.5916 25.1754 12.3943C25.1435 12.197 25.281 12.0113 25.4833 11.9802C25.6855 11.9491 25.8758 12.0833 25.9077 12.2814C25.9396 12.4787 25.8021 12.6635 25.5998 12.6955Z" fill="#474747"/>
<path d="M25.7 12.7177C25.4978 12.7488 25.3075 12.6138 25.2756 12.4165C25.2437 12.2192 25.3813 12.0335 25.5835 12.0024C25.7857 11.9713 25.976 12.1055 26.0079 12.3028C26.0398 12.5 25.9013 12.6858 25.7 12.7169V12.7177Z" fill="#E6E7E8"/>
<path d="M25.6499 12.7071C25.4477 12.7382 25.2573 12.604 25.2254 12.4058C25.1935 12.2086 25.3311 12.0237 25.5333 11.9917C25.7355 11.9606 25.9259 12.0948 25.9578 12.2921C25.9896 12.4894 25.8521 12.6751 25.6499 12.7062V12.7071Z" fill="#898989"/>
<path d="M25.2474 10.9414C25.0525 11.0036 24.8439 10.8988 24.7801 10.7095C24.7164 10.5193 24.8238 10.3158 25.0178 10.2536C25.2128 10.1923 25.4214 10.2963 25.4851 10.4864C25.548 10.6766 25.4414 10.8801 25.2465 10.9423L25.2474 10.9414Z" fill="#474747"/>
<path d="M25.3503 10.9476C25.1553 11.0098 24.9458 10.905 24.883 10.7148C24.8192 10.5247 24.9258 10.3212 25.1207 10.259C25.3157 10.1976 25.5251 10.3016 25.588 10.4909C25.6517 10.681 25.5443 10.8854 25.3503 10.9467V10.9476Z" fill="#E6E7E8"/>
<path d="M25.2993 10.945C25.1044 11.0063 24.8958 10.9023 24.8321 10.7122C24.7683 10.522 24.8749 10.3185 25.0698 10.2563C25.2647 10.195 25.4742 10.299 25.5371 10.4882C25.6008 10.6784 25.4934 10.8828 25.2993 10.9441V10.945Z" fill="#898989"/>
<path d="M24.6189 9.26284C24.4367 9.35347 24.2136 9.28238 24.1197 9.10466C24.0268 8.92694 24.0997 8.70835 24.2819 8.61771C24.464 8.52707 24.6872 8.59816 24.781 8.77588C24.8739 8.9536 24.8011 9.17131 24.6189 9.26284Z" fill="#474747"/>
<path d="M24.7209 9.25306C24.5378 9.3437 24.3146 9.27261 24.2217 9.09489C24.1288 8.91717 24.2008 8.69946 24.3838 8.60793C24.566 8.5173 24.7901 8.58838 24.883 8.7661C24.9759 8.94382 24.903 9.16242 24.7209 9.25306Z" fill="#E6E7E8"/>
<path d="M24.6699 9.25751C24.4877 9.34815 24.2646 9.27705 24.1708 9.09933C24.0779 8.92161 24.1507 8.7039 24.3329 8.61327C24.5151 8.52263 24.7392 8.59371 24.8321 8.77144C24.925 8.94916 24.8521 9.16775 24.6699 9.25839V9.25751Z" fill="#898989"/>
<path d="M23.728 7.69977C23.5622 7.81706 23.33 7.78063 23.2098 7.61979C23.0895 7.45807 23.1259 7.23147 23.2917 7.11417C23.4575 6.99688 23.6889 7.03242 23.81 7.19415C23.9302 7.35588 23.8938 7.58158 23.728 7.69977Z" fill="#474747"/>
<path d="M23.8283 7.67578C23.6625 7.79307 23.4302 7.75753 23.31 7.59581C23.1897 7.43408 23.2262 7.20837 23.392 7.09019C23.5577 6.97289 23.79 7.00843 23.9102 7.17016C24.0305 7.33189 23.994 7.55848 23.8283 7.67578Z" fill="#E6E7E8"/>
<path d="M23.7781 7.68733C23.6123 7.80463 23.3809 7.76909 23.2598 7.60736C23.1396 7.44563 23.176 7.21993 23.3418 7.10263C23.5075 6.98534 23.7398 7.02088 23.86 7.1826C23.9803 7.34433 23.9439 7.57004 23.7781 7.68822V7.68733Z" fill="#898989"/>
<path d="M22.5986 6.29311C22.4538 6.4344 22.2188 6.4344 22.074 6.29311C21.9291 6.15182 21.9291 5.92256 22.074 5.78127C22.2188 5.63999 22.4538 5.63999 22.5986 5.78127C22.7434 5.92256 22.7434 6.15182 22.5986 6.29311Z" fill="#474747"/>
<path d="M22.6925 6.25313C22.5477 6.39442 22.3127 6.39442 22.1678 6.25313C22.023 6.11184 22.023 5.88258 22.1678 5.74129C22.3127 5.6 22.5477 5.6 22.6925 5.74129C22.8373 5.88258 22.8373 6.11184 22.6925 6.25313Z" fill="#E6E7E8"/>
<path d="M22.6451 6.27267C22.5003 6.41396 22.2653 6.41396 22.1205 6.27267C21.9756 6.13139 21.9756 5.90301 22.1205 5.76084C22.2653 5.61955 22.5003 5.61955 22.6451 5.76084C22.7899 5.90212 22.7899 6.13139 22.6451 6.27267Z" fill="#898989"/>
<path d="M21.2568 5.07572C21.1366 5.23744 20.9043 5.27299 20.7385 5.15569C20.5727 5.0384 20.5363 4.8118 20.6565 4.65007C20.7768 4.48835 21.0081 4.4528 21.1748 4.5701C21.3406 4.6874 21.377 4.91399 21.2568 5.07572Z" fill="#474747"/>
<path d="M21.3433 5.0224C21.2231 5.18413 20.9908 5.21967 20.8251 5.10238C20.6593 4.98508 20.6228 4.75849 20.7431 4.59676C20.8633 4.43504 21.0956 4.39949 21.2613 4.51679C21.4271 4.63408 21.4636 4.86068 21.3433 5.0224Z" fill="#E6E7E8"/>
<path d="M21.2996 5.04906C21.1794 5.21079 20.9471 5.24633 20.7813 5.12903C20.6156 5.01174 20.5791 4.78603 20.6994 4.62342C20.8196 4.46169 21.0519 4.42615 21.2177 4.54344C21.3834 4.66074 21.4199 4.88733 21.2996 5.04906Z" fill="#898989"/>
<path d="M19.7366 4.07781C19.6437 4.25553 19.4205 4.32662 19.2374 4.23599C19.0553 4.14535 18.9824 3.92764 19.0753 3.74903C19.1682 3.57131 19.3914 3.50022 19.5745 3.59086C19.7566 3.6815 19.8295 3.8992 19.7366 4.07781Z" fill="#474747"/>
<path d="M19.8131 4.01206C19.7202 4.19067 19.4962 4.26087 19.314 4.17023C19.1318 4.07959 19.0589 3.86188 19.1518 3.68327C19.2448 3.50555 19.4679 3.43446 19.651 3.5251C19.8332 3.61574 19.906 3.83434 19.8131 4.01206Z" fill="#E6E7E8"/>
<path d="M19.7749 4.04494C19.682 4.22266 19.4588 4.29375 19.2766 4.20311C19.0945 4.11247 19.0216 3.89476 19.1145 3.71704C19.2074 3.53932 19.4306 3.46823 19.6136 3.55887C19.7958 3.64951 19.8687 3.86722 19.7758 4.04583L19.7749 4.04494Z" fill="#898989"/>
<path d="M18.0743 3.32428C18.0115 3.51444 17.802 3.61841 17.607 3.5562C17.4121 3.49489 17.3055 3.29051 17.3684 3.10035C17.4321 2.91019 17.6407 2.80622 17.8357 2.86842C18.0297 2.92974 18.1372 3.13412 18.0734 3.32428H18.0743Z" fill="#474747"/>
<path d="M18.1399 3.24697C18.0761 3.43713 17.8666 3.5411 17.6726 3.47889C17.4777 3.41758 17.3711 3.2132 17.4349 3.02304C17.4977 2.83288 17.7072 2.72891 17.9021 2.79111C18.0971 2.85243 18.2036 3.0577 18.1408 3.24697H18.1399Z" fill="#E6E7E8"/>
<path d="M18.1072 3.28607C18.0434 3.47623 17.8348 3.5802 17.6399 3.51799C17.4449 3.45668 17.3384 3.2523 17.4021 3.06214C17.4659 2.87198 17.6745 2.76801 17.8694 2.83021C18.0643 2.89153 18.1709 3.09591 18.1072 3.28607Z" fill="#898989"/>
<path d="M16.3127 2.83377C16.2808 3.03104 16.0904 3.16522 15.8882 3.13412C15.686 3.10301 15.5476 2.9173 15.5804 2.72002C15.6123 2.52275 15.8017 2.38858 16.0048 2.41968C16.207 2.45078 16.3446 2.6365 16.3127 2.83377Z" fill="#474747"/>
<path d="M16.3646 2.74757C16.3327 2.94484 16.1423 3.07991 15.9401 3.04792C15.7379 3.01682 15.5995 2.8311 15.6322 2.63383C15.6641 2.43656 15.8545 2.30238 16.0567 2.33348C16.2589 2.36458 16.3974 2.5503 16.3655 2.74757H16.3646Z" fill="#E6E7E8"/>
<path d="M16.3391 2.79111C16.3072 2.98838 16.1168 3.12256 15.9146 3.09146C15.7124 3.06036 15.5749 2.87553 15.6068 2.67737C15.6386 2.4801 15.829 2.34503 16.0312 2.37702C16.2334 2.40812 16.3719 2.59384 16.3391 2.79111Z" fill="#898989"/>
<path d="M17.5651 11.1591C17.5451 11.1947 17.5587 11.2391 17.5952 11.2586C18.2628 11.6132 18.7902 12.0006 19.191 12.3534C19.2293 12.3872 19.2183 12.4503 19.17 12.468C19.17 12.468 19.17 12.468 19.1691 12.468C18.987 12.5338 18.8057 12.5134 18.6244 12.468C18.261 12.3765 17.9322 12.2059 17.6025 12.0388C17.0541 11.7607 16.5149 11.4648 15.9283 11.2666C15.7862 11.2187 15.6414 11.1751 15.4965 11.1369C15.4674 11.1289 15.4164 11.1431 15.3954 11.1653C14.7642 11.8638 13.9435 12.1926 13.0217 12.3196C12.2283 12.4298 11.4395 12.3836 10.6562 12.2299C10.6471 12.2281 10.6389 12.2237 10.6106 12.2139C10.6571 12.197 10.689 12.1855 10.7209 12.1739C11.2127 12.0006 11.66 11.7572 12.0325 11.3928C12.314 11.1174 12.5144 10.7957 12.6045 10.4136C12.6127 10.3789 12.6173 10.3434 12.6264 10.2936C12.4196 10.2901 12.2211 10.2838 12.0234 10.283C11.0879 10.2803 10.1625 10.3674 9.26074 10.6224C8.26789 10.9041 7.3789 11.3599 6.67845 12.1197C6.05177 12.8004 5.67102 13.5921 5.60453 14.5136C5.5936 14.6682 5.60817 14.8255 5.62274 14.9801C5.65007 15.2556 5.80675 15.4529 6.0627 15.5559C6.34871 15.6715 6.64382 15.7665 6.93894 15.8607C7.3297 15.986 7.71044 16.1255 8.02924 16.3895C8.4027 16.6969 8.61585 17.183 8.63225 17.6593C8.44825 17.334 8.134 17.2407 7.80335 17.1954C7.45995 17.1483 7.11201 17.1297 6.7668 17.095C6.66569 17.0852 6.56549 17.071 6.46621 17.0515C6.315 17.0204 6.17017 16.9715 6.04902 16.8542C6.04265 16.9351 6.04447 17.0088 6.0299 17.0799C5.99802 17.2399 5.91058 17.3749 5.80765 17.4993C5.70108 17.6273 5.59086 17.7517 5.48338 17.8788C5.12723 18.2982 4.95691 18.6572 5.08443 19.2481C4.99699 19.1326 4.9068 19.0197 4.82391 18.9007C4.41311 18.3151 4.34663 17.6868 4.58254 17.0221C4.67454 16.7618 4.76836 16.5014 4.85489 16.2384C5.007 15.7763 4.99697 15.3151 4.81844 14.8628C4.42677 13.8694 4.38396 12.8519 4.63536 11.8291C5.15091 9.7258 6.40609 8.15474 8.31436 7.07331C8.86725 6.76052 9.46386 6.54103 10.0851 6.39174C10.1151 6.38464 10.1452 6.37753 10.1743 6.36864C10.1798 6.36775 10.1844 6.36242 10.2026 6.35087C9.77083 5.64443 9.13232 5.18413 8.39179 4.82246C8.59856 4.81358 8.80439 4.79758 9.01116 4.79581C9.7772 4.78959 10.5241 4.90599 11.2455 5.16191C11.8995 5.39473 12.4879 5.73506 13.0008 6.19892C13.0417 6.23624 13.1037 6.26467 13.1602 6.27178C14.1512 6.41307 15.0903 6.69832 15.9383 7.2297C17.1352 7.97969 17.9295 9.03268 18.3603 10.3478C18.4523 10.6286 18.5862 10.8757 18.7684 11.1058C18.9314 11.312 19.089 11.5226 19.2384 11.7376C19.3058 11.8345 19.3559 11.942 19.3896 12.0539V12.0566C19.4215 12.1597 19.2957 12.2379 19.2129 12.1677C18.8157 11.8291 18.3056 11.4639 17.6662 11.1245C17.6298 11.1049 17.5833 11.1182 17.5642 11.1547L17.5651 11.1591Z" fill="#292929"/>
<path d="M17.5069 11.0383C17.4868 11.0738 17.5005 11.1182 17.5369 11.1378C18.2046 11.4924 18.732 11.8798 19.1328 12.2326C19.171 12.2663 19.1601 12.3294 19.1118 12.3472C19.1118 12.3472 19.1118 12.3472 19.1109 12.3472C18.9288 12.4129 18.7475 12.3925 18.5662 12.3472C18.2028 12.2557 17.874 12.0851 17.5442 11.918C16.9959 11.6399 16.4567 11.344 15.8701 11.1458C15.728 11.0978 15.5831 11.0543 15.4383 11.0161C15.4092 11.0081 15.3582 11.0223 15.3372 11.0445C14.706 11.7429 13.8853 12.0717 12.9635 12.1988C12.1701 12.309 11.3813 12.2628 10.598 12.109C10.5889 12.1073 10.5807 12.1028 10.5524 12.093C10.5989 12.0762 10.6308 12.0646 10.6626 12.0531C11.1545 11.8798 11.6017 11.6363 11.9743 11.272C12.2557 10.9965 12.4561 10.6748 12.5463 10.2927C12.5545 10.2581 12.5591 10.2225 12.5682 10.1728C12.3614 10.1692 12.1628 10.163 11.9652 10.1621C11.0297 10.1594 10.1043 10.2465 9.20252 10.5016C8.20968 10.7832 7.32067 11.2391 6.62021 11.9989C5.99354 12.6795 5.61279 13.4713 5.5463 14.3928C5.53537 14.5474 5.54996 14.7047 5.56453 14.8593C5.59186 15.1347 5.74851 15.332 6.00446 15.4351C6.29048 15.5506 6.58561 15.6457 6.88073 15.7399C7.27149 15.8652 7.65223 16.0047 7.97103 16.2686C8.34449 16.5761 8.55764 17.0621 8.57404 17.5384C8.39004 17.2132 8.07578 17.1199 7.74514 17.0746C7.40174 17.0275 7.05378 17.0088 6.70856 16.9742C6.60746 16.9644 6.50728 16.9502 6.40799 16.9306C6.25679 16.8995 6.11196 16.8506 5.99081 16.7333C5.98443 16.8142 5.98626 16.888 5.97169 16.9591C5.93981 17.119 5.85237 17.2541 5.74944 17.3785C5.64287 17.5064 5.53265 17.6308 5.42517 17.7579C5.06902 18.1773 4.89867 18.5363 5.0262 19.1273C4.93875 19.0117 4.84859 18.8989 4.7657 18.7798C4.3549 18.1942 4.28839 17.566 4.52431 16.9013C4.61631 16.6409 4.71012 16.3806 4.79666 16.1175C4.94877 15.6555 4.93876 15.1943 4.76023 14.742C4.36856 13.7485 4.32575 12.7311 4.57715 11.7083C5.09269 9.60495 6.34786 8.03389 8.25612 6.95246C8.80902 6.63967 9.40565 6.42018 10.0269 6.2709C10.0569 6.26379 10.087 6.25668 10.1161 6.24779C10.1216 6.2469 10.1261 6.24157 10.1444 6.23002C9.71262 5.52358 9.07409 5.06328 8.33355 4.70162C8.54032 4.69273 8.74618 4.67673 8.95295 4.67496C9.71899 4.66874 10.4659 4.78515 11.1873 5.04107C11.8413 5.27388 12.4297 5.61422 12.9425 6.07807C12.9835 6.11539 13.0455 6.14383 13.1019 6.15093C14.093 6.29222 15.0321 6.57746 15.8801 7.10885C17.077 7.85883 17.8712 8.91184 18.3021 10.227C18.3941 10.5078 18.528 10.7548 18.7101 10.985C18.8732 11.1911 19.0308 11.4017 19.1802 11.6168C19.2476 11.7136 19.2976 11.8211 19.3313 11.9331V11.9358C19.3632 12.0388 19.2375 12.117 19.1546 12.0468C18.7575 11.7083 18.2474 11.3431 17.608 11.0036C17.5716 10.9841 17.5251 10.9974 17.506 11.0338L17.5069 11.0383Z" fill="url(#paint3_radial_74_25038)"/>
<g opacity="0.69">
<path d="M17.5069 11.0383C17.4868 11.0738 17.5005 11.1182 17.5369 11.1378C18.2046 11.4924 18.732 11.8798 19.1328 12.2326C19.171 12.2663 19.1601 12.3294 19.1118 12.3472C19.1118 12.3472 19.1118 12.3472 19.1109 12.3472C18.9288 12.4129 18.7475 12.3925 18.5662 12.3472C18.2028 12.2557 17.874 12.0851 17.5442 11.918C16.9959 11.6399 16.4567 11.344 15.8701 11.1458C15.728 11.0978 15.5831 11.0543 15.4383 11.0161C15.4092 11.0081 15.3582 11.0223 15.3372 11.0445C14.706 11.7429 13.8853 12.0717 12.9635 12.1988C12.1701 12.309 11.3813 12.2628 10.598 12.109C10.5889 12.1073 10.5807 12.1028 10.5524 12.093C10.5989 12.0762 10.6308 12.0646 10.6626 12.0531C11.1545 11.8798 11.6017 11.6363 11.9743 11.272C12.2557 10.9965 12.4561 10.6748 12.5463 10.2927C12.5545 10.2581 12.5591 10.2225 12.5682 10.1728C12.3614 10.1692 12.1628 10.163 11.9652 10.1621C11.0297 10.1594 10.1043 10.2465 9.20252 10.5016C8.20968 10.7832 7.32067 11.2391 6.62021 11.9989C5.99354 12.6795 5.61279 13.4713 5.5463 14.3928C5.53537 14.5474 5.54996 14.7047 5.56453 14.8593C5.59186 15.1347 5.74851 15.332 6.00446 15.4351C6.29048 15.5506 6.58561 15.6457 6.88073 15.7399C7.27149 15.8652 7.65223 16.0047 7.97103 16.2686C8.34449 16.5761 8.55764 17.0621 8.57404 17.5384C8.39004 17.2132 8.07578 17.1199 7.74514 17.0746C7.40174 17.0275 7.05378 17.0088 6.70856 16.9742C6.60746 16.9644 6.50728 16.9502 6.40799 16.9306C6.25679 16.8995 6.11196 16.8506 5.99081 16.7333C5.98443 16.8142 5.98626 16.888 5.97169 16.9591C5.93981 17.119 5.85237 17.2541 5.74944 17.3785C5.64287 17.5064 5.53265 17.6308 5.42517 17.7579C5.06902 18.1773 4.89867 18.5363 5.0262 19.1273C4.93875 19.0117 4.84859 18.8989 4.7657 18.7798C4.3549 18.1942 4.28839 17.566 4.52431 16.9013C4.61631 16.6409 4.71012 16.3806 4.79666 16.1175C4.94877 15.6555 4.93876 15.1943 4.76023 14.742C4.36856 13.7485 4.32575 12.7311 4.57715 11.7083C5.09269 9.60495 6.34786 8.03389 8.25612 6.95246C8.80902 6.63967 9.40565 6.42018 10.0269 6.2709C10.0569 6.26379 10.087 6.25668 10.1161 6.24779C10.1216 6.2469 10.1261 6.24157 10.1444 6.23002C9.71262 5.52358 9.07409 5.06328 8.33355 4.70162C8.54032 4.69273 8.74618 4.67673 8.95295 4.67496C9.71899 4.66874 10.4659 4.78515 11.1873 5.04107C11.8413 5.27388 12.4297 5.61422 12.9425 6.07807C12.9835 6.11539 13.0455 6.14383 13.1019 6.15093C14.093 6.29222 15.0321 6.57746 15.8801 7.10885C17.077 7.85883 17.8712 8.91184 18.3021 10.227C18.3941 10.5078 18.528 10.7548 18.7101 10.985C18.8732 11.1911 19.0308 11.4017 19.1802 11.6168C19.2476 11.7136 19.2976 11.8211 19.3313 11.9331V11.9358C19.3632 12.0388 19.2375 12.117 19.1546 12.0468C18.7575 11.7083 18.2474 11.3431 17.608 11.0036C17.5716 10.9841 17.5251 10.9974 17.506 11.0338L17.5069 11.0383Z" fill="#4A4A4A"/>
</g>
<path d="M10.883 17.5731C10.8976 17.5349 10.8776 17.4931 10.8384 17.4789C10.1261 17.2212 9.54769 16.9093 9.09864 16.6161C9.05583 16.5876 9.05765 16.5236 9.10228 16.4996C9.10228 16.4996 9.10228 16.4996 9.1032 16.4996C9.27353 16.4099 9.45663 16.4037 9.64244 16.4241C10.0159 16.4641 10.3666 16.5876 10.7172 16.7076C11.3002 16.9066 11.8777 17.1252 12.4871 17.2399C12.6346 17.2674 12.784 17.2905 12.9334 17.3092C12.9634 17.3127 13.0117 17.2923 13.029 17.2674C13.5528 16.489 14.317 16.05 15.2115 15.7959C15.9811 15.5773 16.7681 15.5142 17.5661 15.5577C17.5752 15.5577 17.5834 15.5613 17.6134 15.5675C17.5697 15.5906 17.5396 15.6066 17.5096 15.6217C17.0478 15.8607 16.6406 16.1646 16.3245 16.5761C16.0859 16.888 15.9347 17.2345 15.9001 17.6246C15.8964 17.6602 15.8973 17.6957 15.8955 17.7464C16.1005 17.7215 16.2981 17.7002 16.494 17.6735C17.4203 17.5473 18.3239 17.3323 19.1792 16.9546C20.121 16.5387 20.9353 15.9638 21.5174 15.1152C22.0384 14.3545 22.3007 13.5175 22.2324 12.5969C22.2206 12.4423 22.1842 12.2885 22.1459 12.1375C22.0785 11.8682 21.8945 11.6949 21.6267 11.6283C21.3261 11.5537 21.021 11.5003 20.7158 11.4479C20.3105 11.3786 19.9143 11.2924 19.559 11.0756C19.1446 10.8223 18.8631 10.3709 18.7775 9.90263C19.007 10.1994 19.3322 10.2483 19.6656 10.2474C20.0126 10.2465 20.3597 10.2172 20.7067 10.203C20.8078 10.1985 20.9098 10.1985 21.0109 10.2048C21.1649 10.2145 21.3161 10.243 21.4527 10.3425C21.4473 10.2616 21.4345 10.1888 21.4391 10.1168C21.4473 9.95417 21.5147 9.80843 21.5985 9.6707C21.685 9.52941 21.7761 9.39079 21.8644 9.2495C22.1559 8.78476 22.2725 8.40533 22.0603 7.83839C22.1632 7.94058 22.2698 8.04011 22.3691 8.14585C22.8609 8.66835 23.0176 9.2806 22.8809 9.97194C22.8272 10.243 22.7726 10.5131 22.7252 10.7859C22.6423 11.264 22.7188 11.7198 22.9611 12.1428C23.4931 13.0714 23.6834 14.0729 23.5841 15.1205C23.3801 17.2736 22.3663 19.0029 20.6339 20.3375C20.132 20.7241 19.5736 21.0227 18.9806 21.2572C18.9524 21.2688 18.9232 21.2795 18.895 21.2919C18.8895 21.2937 18.8859 21.299 18.8704 21.3132C19.4005 21.953 20.0992 22.32 20.8853 22.575C20.6821 22.6124 20.4799 22.6568 20.2759 22.687C19.518 22.799 18.762 22.7874 18.0115 22.6337C17.3301 22.4933 16.698 22.2383 16.1232 21.8499C16.0768 21.8188 16.0112 21.7993 15.9547 21.7993C14.9528 21.7966 13.9818 21.6438 13.0655 21.235C11.772 20.6583 10.832 19.7253 10.2144 18.4839C10.0833 18.2182 9.91387 17.9925 9.69982 17.7899C9.50854 17.6086 9.32182 17.422 9.14238 17.2292C9.06131 17.143 8.99572 17.0435 8.94653 16.9368V16.9342C8.89916 16.8364 9.01302 16.7413 9.10502 16.8C9.5477 17.0799 10.1051 17.3714 10.7874 17.6184C10.8266 17.6326 10.8703 17.6131 10.8849 17.5749L10.883 17.5731Z" fill="#292929"/>
<path d="M10.8248 17.4522C10.8394 17.414 10.8193 17.3723 10.7802 17.358C10.0679 17.1003 9.48947 16.7884 9.04041 16.4952C8.9976 16.4668 8.99942 16.4028 9.04406 16.3788C9.04406 16.3788 9.04406 16.3788 9.04497 16.3788C9.2153 16.289 9.39838 16.2828 9.58419 16.3033C9.95765 16.3433 10.3083 16.4668 10.659 16.5867C11.242 16.7858 11.8195 17.0044 12.4288 17.119C12.5764 17.1466 12.7258 17.1697 12.8752 17.1883C12.9052 17.1919 12.9535 17.1714 12.9708 17.1466C13.4945 16.3681 14.2588 15.9292 15.1532 15.675C15.9229 15.4564 16.7099 15.3933 17.5078 15.4369C17.5169 15.4369 17.5251 15.4404 17.5552 15.4466C17.5115 15.4697 17.4814 15.4857 17.4514 15.5008C16.9895 15.7399 16.5824 16.0438 16.2663 16.4552C16.0277 16.7671 15.8764 17.1137 15.8418 17.5038C15.8382 17.5393 15.8391 17.5749 15.8373 17.6255C16.0422 17.6006 16.2399 17.5793 16.4357 17.5526C17.3621 17.4265 18.2656 17.2114 19.121 16.8338C20.0628 16.4179 20.8771 15.843 21.4592 14.9943C21.9802 14.2337 22.2425 13.3966 22.1742 12.476C22.1623 12.3214 22.1259 12.1677 22.0876 12.0166C22.0202 11.7474 21.8363 11.5741 21.5685 11.5074C21.2679 11.4328 20.9627 11.3795 20.6576 11.3271C20.2523 11.2578 19.856 11.1716 19.5008 10.9547C19.0864 10.7015 18.8049 10.2501 18.7193 9.78178C18.9488 10.0786 19.274 10.1274 19.6074 10.1266C19.9544 10.1257 20.3014 10.0963 20.6485 10.0821C20.7496 10.0777 20.8516 10.0777 20.9527 10.0839C21.1067 10.0937 21.2579 10.1221 21.3945 10.2216C21.389 10.1408 21.3763 10.0679 21.3808 9.99593C21.389 9.83332 21.4564 9.68759 21.5402 9.54985C21.6267 9.40856 21.7178 9.26994 21.8062 9.12865C22.0977 8.66391 22.2143 8.28448 22.002 7.71754C22.105 7.81973 22.2115 7.91925 22.3108 8.025C22.8027 8.5475 22.9594 9.15975 22.8227 9.85109C22.769 10.1221 22.7143 10.3922 22.667 10.6651C22.5841 11.1431 22.6606 11.599 22.9029 12.022C23.4348 12.9506 23.6252 13.952 23.5259 14.9997C23.3219 17.1528 22.3081 18.882 20.5756 20.2167C20.0737 20.6032 19.5154 20.9018 18.9224 21.1364C18.8942 21.1479 18.865 21.1586 18.8368 21.171C18.8313 21.1728 18.8277 21.1782 18.8122 21.1924C19.3423 21.8322 20.0409 22.1992 20.827 22.4542C20.6239 22.4915 20.4217 22.5359 20.2176 22.5662C19.4598 22.6781 18.7038 22.6666 17.9532 22.5128C17.2719 22.3724 16.6398 22.1174 16.065 21.7291C16.0186 21.698 15.953 21.6784 15.8965 21.6784C14.8945 21.6758 13.9236 21.5229 13.0072 21.1142C11.7138 20.5375 10.7738 19.6044 10.1562 18.3631C10.0251 18.0974 9.85564 17.8717 9.64159 17.6691C9.45031 17.4878 9.26357 17.3012 9.08413 17.1083C9.00306 17.0221 8.93749 16.9226 8.8883 16.816V16.8133C8.84094 16.7156 8.95479 16.6205 9.04679 16.6791C9.48947 16.9591 10.0469 17.2505 10.7292 17.4976C10.7683 17.5118 10.8121 17.4922 10.8266 17.454L10.8248 17.4522Z" fill="url(#paint4_radial_74_25038)"/>
<g opacity="0.69">
<path d="M10.8248 17.4522C10.8394 17.414 10.8193 17.3723 10.7802 17.358C10.0679 17.1003 9.48947 16.7884 9.04041 16.4952C8.9976 16.4668 8.99942 16.4028 9.04406 16.3788C9.04406 16.3788 9.04406 16.3788 9.04497 16.3788C9.2153 16.289 9.39838 16.2828 9.58419 16.3033C9.95765 16.3433 10.3083 16.4668 10.659 16.5867C11.242 16.7858 11.8195 17.0044 12.4288 17.119C12.5764 17.1466 12.7258 17.1697 12.8752 17.1883C12.9052 17.1919 12.9535 17.1714 12.9708 17.1466C13.4945 16.3681 14.2588 15.9292 15.1532 15.675C15.9229 15.4564 16.7099 15.3933 17.5078 15.4369C17.5169 15.4369 17.5251 15.4404 17.5552 15.4466C17.5115 15.4697 17.4814 15.4857 17.4514 15.5008C16.9895 15.7399 16.5824 16.0438 16.2663 16.4552C16.0277 16.7671 15.8764 17.1137 15.8418 17.5038C15.8382 17.5393 15.8391 17.5749 15.8373 17.6255C16.0422 17.6006 16.2399 17.5793 16.4357 17.5526C17.3621 17.4265 18.2656 17.2114 19.121 16.8338C20.0628 16.4179 20.8771 15.843 21.4592 14.9943C21.9802 14.2337 22.2425 13.3966 22.1742 12.476C22.1623 12.3214 22.1259 12.1677 22.0876 12.0166C22.0202 11.7474 21.8363 11.5741 21.5685 11.5074C21.2679 11.4328 20.9627 11.3795 20.6576 11.3271C20.2523 11.2578 19.856 11.1716 19.5008 10.9547C19.0864 10.7015 18.8049 10.2501 18.7193 9.78178C18.9488 10.0786 19.274 10.1274 19.6074 10.1266C19.9544 10.1257 20.3014 10.0963 20.6485 10.0821C20.7496 10.0777 20.8516 10.0777 20.9527 10.0839C21.1067 10.0937 21.2579 10.1221 21.3945 10.2216C21.389 10.1408 21.3763 10.0679 21.3808 9.99593C21.389 9.83332 21.4564 9.68759 21.5402 9.54985C21.6267 9.40856 21.7178 9.26994 21.8062 9.12865C22.0977 8.66391 22.2143 8.28448 22.002 7.71754C22.105 7.81973 22.2115 7.91925 22.3108 8.025C22.8027 8.5475 22.9594 9.15975 22.8227 9.85109C22.769 10.1221 22.7143 10.3922 22.667 10.6651C22.5841 11.1431 22.6606 11.599 22.9029 12.022C23.4348 12.9506 23.6252 13.952 23.5259 14.9997C23.3219 17.1528 22.3081 18.882 20.5756 20.2167C20.0737 20.6032 19.5154 20.9018 18.9224 21.1364C18.8942 21.1479 18.865 21.1586 18.8368 21.171C18.8313 21.1728 18.8277 21.1782 18.8122 21.1924C19.3423 21.8322 20.0409 22.1992 20.827 22.4542C20.6239 22.4915 20.4217 22.5359 20.2176 22.5662C19.4598 22.6781 18.7038 22.6666 17.9532 22.5128C17.2719 22.3724 16.6398 22.1174 16.065 21.7291C16.0186 21.698 15.953 21.6784 15.8965 21.6784C14.8945 21.6758 13.9236 21.5229 13.0072 21.1142C11.7138 20.5375 10.7738 19.6044 10.1562 18.3631C10.0251 18.0974 9.85564 17.8717 9.64159 17.6691C9.45031 17.4878 9.26357 17.3012 9.08413 17.1083C9.00306 17.0221 8.93749 16.9226 8.8883 16.816V16.8133C8.84094 16.7156 8.95479 16.6205 9.04679 16.6791C9.48947 16.9591 10.0469 17.2505 10.7292 17.4976C10.7683 17.5118 10.8121 17.4922 10.8266 17.454L10.8248 17.4522Z" fill="#4A4A4A"/>
</g>
<path d="M15.145 13.7796L14.5639 13.2029L14.0237 12.6662H14.0228C13.9837 12.7062 12.9489 13.7565 12.948 13.7565C12.7476 13.96 12.6565 14.2799 12.7649 14.5438C12.7795 14.5811 12.7986 14.6167 12.8214 14.6505C12.8424 14.6816 12.866 14.7109 12.8915 14.7375C12.8925 14.7384 12.8934 14.7393 12.8952 14.7411C13.0582 14.9135 13.3142 15.0059 13.5519 14.9908C13.7915 14.9757 14.0766 14.8308 14.1458 14.59C14.1804 14.4701 14.1504 14.3439 14.0966 14.2346C14.0966 14.2346 14.0656 14.1502 13.9782 14.0817C13.8908 14.0124 13.7459 13.9609 13.5164 14.0293L13.4071 14.0658L13.1138 14.1626C13.0655 14.1768 13.02 14.1466 13.0072 14.1066C12.999 14.0853 13.0008 14.0622 13.0154 14.04C13.0354 14.008 13.1584 13.9271 13.2186 13.8871C13.2186 13.8871 13.2814 13.8134 13.336 13.7334C13.4217 13.6072 13.5501 13.5113 13.7031 13.4784C13.8179 13.4544 13.9645 13.4562 14.1394 13.5201C14.2396 13.5566 14.3489 13.6126 14.4683 13.6961C14.4901 13.7112 14.5156 13.7219 14.542 13.7236C14.5812 13.7263 14.6459 13.7379 14.706 13.7814C14.7716 13.8285 14.8317 13.9129 14.8472 14.0666C14.8472 14.0666 14.7315 13.9369 14.5457 13.9476C14.542 13.9476 14.5393 13.9476 14.5357 13.9476C14.5357 13.9476 14.5429 13.9511 14.5557 13.9591C14.5994 13.9893 14.7023 14.0853 14.6787 14.3083C14.6787 14.3083 14.665 14.5367 14.4418 14.7491C14.3936 14.7962 14.389 14.8628 14.4172 14.9126C14.4373 14.949 14.4737 14.9757 14.522 14.9819H14.5247C14.8253 15.0192 15.0995 14.8397 15.2416 14.59C15.3955 14.319 15.3737 14.0071 15.145 13.7805V13.7796ZM14.0265 12.9203L14.2241 13.1336L14.031 13.354L13.9755 13.2962L13.8252 13.1407L14.0228 12.9239L14.0265 12.9203Z" fill="#292929"/>
<path d="M14.5866 15.404C14.5866 15.4324 14.5639 15.4555 14.5347 15.4555L13.7742 15.4635C13.745 15.4635 13.7213 15.4413 13.7213 15.4129C13.7213 15.396 13.7304 15.3791 13.745 15.3693C13.7705 15.3533 13.8069 15.3604 13.8352 15.3507C13.8616 15.3418 13.8853 15.3276 13.9062 15.3098C13.9499 15.2734 13.9809 15.2236 14.0082 15.1756C14.021 15.1534 14.0319 15.1312 14.0447 15.1099C14.0857 15.0343 14.1239 14.9561 14.1558 14.8762C14.1995 15.0041 14.2597 15.1223 14.3325 15.2369C14.3608 15.2823 14.4026 15.3196 14.4537 15.3382C14.4792 15.348 14.5065 15.3525 14.5338 15.3542C14.5611 15.356 14.5848 15.3756 14.5848 15.404H14.5866Z" fill="#292929"/>
<path d="M15.0876 13.7245L14.563 13.2038L14.0228 12.6671L13.9663 12.6111C13.9663 12.6111 12.8915 13.7014 12.8906 13.7014C12.672 13.9236 12.5827 14.2844 12.7421 14.5607C12.7485 14.5723 12.7558 14.5838 12.764 14.5954C12.7995 14.6478 12.8423 14.6958 12.8924 14.7375C12.8933 14.7384 12.8942 14.7393 12.8961 14.7411C13.0591 14.8771 13.285 14.949 13.4954 14.9348C13.735 14.9197 14.0201 14.7749 14.0893 14.534C14.1239 14.4141 14.0938 14.2879 14.0401 14.1786C14.0401 14.1786 14.0228 14.1324 13.98 14.0809C13.9144 14.0027 13.7869 13.9129 13.5637 13.9485C13.5318 13.9538 13.4972 13.9618 13.4608 13.9725L13.0582 14.1057C13.0409 14.1111 13.0236 14.1102 13.009 14.1057C12.9589 14.0906 12.927 14.0329 12.9589 13.984C12.9789 13.9529 13.1028 13.8711 13.162 13.8312C13.162 13.8312 13.2249 13.7574 13.2795 13.6774C13.3652 13.5513 13.4945 13.4553 13.6466 13.4224C13.7796 13.3949 13.9545 13.4011 14.1676 13.4988C14.2441 13.5326 14.3252 13.5788 14.4117 13.6392C14.4336 13.6552 14.4591 13.665 14.4855 13.6668C14.5383 13.6703 14.6358 13.6899 14.7069 13.7796C14.7469 13.8303 14.7797 13.904 14.7898 14.0089C14.7898 14.0089 14.6704 13.8747 14.4791 13.8898C14.4791 13.8898 14.5119 13.904 14.5465 13.9449C14.5502 13.9485 14.5529 13.9529 14.5566 13.9573C14.5985 14.0115 14.6376 14.1031 14.6221 14.2515C14.6221 14.2515 14.6085 14.4798 14.3853 14.6922C14.3143 14.7598 14.338 14.8708 14.4181 14.9108C14.4318 14.9179 14.4473 14.9224 14.4646 14.925H14.4673C14.7688 14.9624 15.0421 14.7829 15.1841 14.5332C15.3381 14.2621 15.3162 13.9502 15.0876 13.7236V13.7245ZM13.9736 13.298L13.7677 13.0847L13.9691 12.8644L14.0237 12.923L14.1676 13.0767L13.9763 13.2944L13.9745 13.2962L13.9736 13.298Z" fill="url(#paint5_radial_74_25038)"/>
<path d="M14.5283 15.3489C14.5283 15.3773 14.5055 15.4004 14.4764 15.4004L13.7158 15.4084C13.6867 15.4084 13.663 15.3862 13.663 15.3578C13.663 15.3409 13.6721 15.324 13.6866 15.3143C13.7122 15.2983 13.7486 15.3054 13.7768 15.2956C13.8032 15.2867 13.8269 15.2725 13.8479 15.2547C13.8916 15.2183 13.9226 15.1685 13.9499 15.1205C13.9626 15.0983 13.9736 15.0761 13.9863 15.0548C14.0273 14.9792 14.0656 14.901 14.0974 14.8211C14.1412 14.949 14.2013 15.0672 14.2742 15.1818C14.3024 15.2272 14.3443 15.2645 14.3953 15.2832C14.4208 15.2929 14.4481 15.2974 14.4754 15.2991C14.5028 15.3009 14.5265 15.3205 14.5265 15.3489H14.5283Z" fill="url(#paint6_radial_74_25038)"/>
<g opacity="0.69">
<path d="M15.0876 13.7245L14.563 13.2038L14.0228 12.6671L13.9663 12.6111C13.9663 12.6111 12.8915 13.7014 12.8906 13.7014C12.672 13.9236 12.5827 14.2844 12.7421 14.5607C12.7485 14.5723 12.7558 14.5838 12.764 14.5954C12.7995 14.6478 12.8423 14.6958 12.8924 14.7375C12.8933 14.7384 12.8942 14.7393 12.8961 14.7411C13.0591 14.8771 13.285 14.949 13.4954 14.9348C13.735 14.9197 14.0201 14.7749 14.0893 14.534C14.1239 14.4141 14.0938 14.2879 14.0401 14.1786C14.0401 14.1786 14.0228 14.1324 13.98 14.0809C13.9144 14.0027 13.7869 13.9129 13.5637 13.9485C13.5318 13.9538 13.4972 13.9618 13.4608 13.9725L13.0582 14.1057C13.0409 14.1111 13.0236 14.1102 13.009 14.1057C12.9589 14.0906 12.927 14.0329 12.9589 13.984C12.9789 13.9529 13.1028 13.8711 13.162 13.8312C13.162 13.8312 13.2249 13.7574 13.2795 13.6774C13.3652 13.5513 13.4945 13.4553 13.6466 13.4224C13.7796 13.3949 13.9545 13.4011 14.1676 13.4988C14.2441 13.5326 14.3252 13.5788 14.4117 13.6392C14.4336 13.6552 14.4591 13.665 14.4855 13.6668C14.5383 13.6703 14.6358 13.6899 14.7069 13.7796C14.7469 13.8303 14.7797 13.904 14.7898 14.0089C14.7898 14.0089 14.6704 13.8747 14.4791 13.8898C14.4791 13.8898 14.5119 13.904 14.5465 13.9449C14.5502 13.9485 14.5529 13.9529 14.5566 13.9573C14.5985 14.0115 14.6376 14.1031 14.6221 14.2515C14.6221 14.2515 14.6085 14.4798 14.3853 14.6922C14.3143 14.7598 14.338 14.8708 14.4181 14.9108C14.4318 14.9179 14.4473 14.9224 14.4646 14.925H14.4673C14.7688 14.9624 15.0421 14.7829 15.1841 14.5332C15.3381 14.2621 15.3162 13.9502 15.0876 13.7236V13.7245ZM13.9736 13.298L13.7677 13.0847L13.9691 12.8644L14.0237 12.923L14.1676 13.0767L13.9763 13.2944L13.9745 13.2962L13.9736 13.298Z" fill="#4A4A4A"/>
<path d="M14.5283 15.3489C14.5283 15.3773 14.5055 15.4004 14.4764 15.4004L13.7158 15.4084C13.6867 15.4084 13.663 15.3862 13.663 15.3578C13.663 15.3409 13.6721 15.324 13.6866 15.3143C13.7122 15.2983 13.7486 15.3054 13.7768 15.2956C13.8032 15.2867 13.8269 15.2725 13.8479 15.2547C13.8916 15.2183 13.9226 15.1685 13.9499 15.1205C13.9626 15.0983 13.9736 15.0761 13.9863 15.0548C14.0273 14.9792 14.0656 14.901 14.0974 14.8211C14.1412 14.949 14.2013 15.0672 14.2742 15.1818C14.3024 15.2272 14.3443 15.2645 14.3953 15.2832C14.4208 15.2929 14.4481 15.2974 14.4754 15.2991C14.5028 15.3009 14.5265 15.3205 14.5265 15.3489H14.5283Z" fill="#4A4A4A"/>
</g>
<path d="M23.2753 3.42824L23.115 3.5642L22.8481 3.78991L22.6459 3.96141L12.5225 12.5205L12.323 12.6893L8.19865 16.1762L8.00918 16.337L2.81816 20.7268L2.56858 20.9382L2.30262 21.1631L2.18602 21.2617C1.17496 19.7137 0.473606 17.9534 0.170288 16.0642L0.210361 16.0305L0.513664 15.7745L0.806071 15.5248L10.0623 7.68912L10.1215 7.63935L11.7492 6.25935H11.751L12.1427 5.92612H12.1436L13.6092 4.68474L13.6784 4.62786L14.6822 3.77747L14.6858 3.77569L17.6434 1.2716L17.8893 1.06366L18.1143 0.873499L18.3512 0.672676C20.1893 1.25916 21.8607 2.20641 23.2762 3.42913L23.2753 3.42824Z" fill="url(#paint7_linear_74_25038)"/>
<path d="M27.9927 13.2536L27.9826 13.2625L27.4133 13.7388L27.1437 13.9645L18.0105 21.6225L17.7955 21.8029L16.8564 22.5911L16.6897 22.7314L16.626 22.7839L16.36 23.006L15.6122 23.6334L15.359 23.8458L12.2183 26.4796L11.9004 26.7444L11.4814 27.0963L11.2163 27.3193C9.96116 27.0723 8.76612 26.6618 7.65759 26.1108L7.86345 25.9384L8.19044 25.6647L8.45642 25.4408L11.4477 22.9323L11.6499 22.7626L12.5763 21.9868L12.7557 21.8348L13.4598 21.2457L13.7485 21.0049L14.9609 19.9883L15.2342 19.7591L20.4197 15.4111L20.5955 15.2645H20.5974L22.8217 13.3975L23.0494 13.2056L26.6591 10.1799L26.8796 9.99594L27.2968 9.64494L27.3678 9.5854C27.7403 10.7486 27.9562 11.9793 27.9936 13.2527L27.9927 13.2536Z" fill="url(#paint8_linear_74_25038)"/>
<defs>
<linearGradient id="paint0_linear_74_25038" x1="9.44021" y1="26.8484" x2="18.1633" y2="0.881018" gradientUnits="userSpaceOnUse">
<stop stop-color="#A7A7A7"/>
<stop offset="0.51" stop-color="#BABABA"/>
<stop offset="1" stop-color="#D2D2D2"/>
</linearGradient>
<linearGradient id="paint1_linear_74_25038" x1="13.99" y1="1.32136" x2="13.99" y2="26.596" gradientUnits="userSpaceOnUse">
<stop stop-color="#3B3B3B"/>
<stop offset="0.22" stop-color="#4F4F4F"/>
<stop offset="0.58" stop-color="#787878"/>
<stop offset="1" stop-color="#EAEAEA"/>
</linearGradient>
<linearGradient id="paint2_linear_74_25038" x1="9.89206" y1="25.6399" x2="17.7865" y2="2.13946" gradientUnits="userSpaceOnUse">
<stop stop-color="#A7A7A7"/>
<stop offset="0.51" stop-color="#BABABA"/>
<stop offset="1" stop-color="#D2D2D2"/>
</linearGradient>
<radialGradient id="paint3_radial_74_25038" cx="0" cy="0" r="1" gradientUnits="userSpaceOnUse" gradientTransform="translate(11.4072 13.2678) rotate(19.3231) scale(7.41847 7.27738)">
<stop stop-color="white"/>
<stop offset="0.6" stop-color="#DDDDDD"/>
<stop offset="1" stop-color="#CCCCCC"/>
</radialGradient>
<radialGradient id="paint4_radial_74_25038" cx="0" cy="0" r="1" gradientUnits="userSpaceOnUse" gradientTransform="translate(16.9341 14.2501) rotate(19.3231) scale(7.36306 7.22302)">
<stop stop-color="white"/>
<stop offset="0.6" stop-color="#DDDDDD"/>
<stop offset="1" stop-color="#CCCCCC"/>
</radialGradient>
<radialGradient id="paint5_radial_74_25038" cx="0" cy="0" r="1" gradientUnits="userSpaceOnUse" gradientTransform="translate(13.9718 13.7734) scale(1.25244 1.22183)">
<stop stop-color="white"/>
<stop offset="0.6" stop-color="#DDDDDD"/>
<stop offset="1" stop-color="#CCCCCC"/>
</radialGradient>
<radialGradient id="paint6_radial_74_25038" cx="0" cy="0" r="1" gradientUnits="userSpaceOnUse" gradientTransform="translate(14.0965 15.1143) scale(0.372544 0.363439)">
<stop stop-color="white"/>
<stop offset="0.6" stop-color="#DDDDDD"/>
<stop offset="1" stop-color="#CCCCCC"/>
</radialGradient>
<linearGradient id="paint7_linear_74_25038" x1="-4.48788" y1="24.3594" x2="19.9482" y2="1.21536" gradientUnits="userSpaceOnUse">
<stop stop-color="white" stop-opacity="0"/>
<stop offset="1" stop-color="white" stop-opacity="0.3"/>
</linearGradient>
<linearGradient id="paint8_linear_74_25038" x1="3.85564" y1="32.2742" x2="28.2507" y2="9.16939" gradientUnits="userSpaceOnUse">
<stop stop-color="white" stop-opacity="0"/>
<stop offset="1" stop-color="white" stop-opacity="0.3"/>
</linearGradient>
</defs>
</svg>
