<svg width="24" height="24" viewBox="0 0 24 24" fill="none" xmlns="http://www.w3.org/2000/svg">
<path d="M23.4135 11.7068C23.4135 11.7349 23.4135 11.7624 23.4127 11.7905V11.8583C23.3313 18.254 18.1215 23.4143 11.7068 23.4143C10.9877 23.4143 10.2847 23.3488 9.60153 23.2254C8.5352 23.0327 7.51991 22.6937 6.5762 22.2329C4.68271 21.3083 3.07636 19.8878 1.92472 18.1405C1.06328 16.8335 0.456241 15.3437 0.175949 13.7412C0.0693158 13.1288 0.00837904 12.4996 0.000762407 11.8583V11.7905C7.43828e-07 11.7624 0 11.7349 0 11.7068C0 5.24176 5.24024 0 11.706 0C12.9764 0 14.1989 0.202603 15.3452 0.576579C16.8823 1.07928 18.2799 1.89121 19.4635 2.93926C21.0425 4.33691 22.2413 6.15423 22.8849 8.21682C23.1964 9.21383 23.377 10.2687 23.4082 11.3602C23.412 11.4752 23.4135 11.591 23.4135 11.7068Z" fill="#787878"/>
<path d="M23.4127 12.2932C23.4127 18.759 18.1717 24 11.706 24C5.24024 24 0 18.759 0 12.2932C0 5.82748 5.241 0.586472 11.706 0.586472C18.171 0.586472 23.4127 5.82824 23.4127 12.2932Z" fill="#474747"/>
<path d="M23.4135 11.9413C23.4135 18.4063 18.1725 23.6473 11.7068 23.6473C10.9101 23.6473 10.1316 23.5674 9.37987 23.4158C8.3303 23.2041 7.33101 22.8522 6.40407 22.3799C4.53266 21.4271 2.94992 19.986 1.82799 18.2243C0.982545 16.8975 0.396074 15.3886 0.14244 13.7693C0.0479937 13.1737 0 12.5629 0 11.9413C0 11.9132 7.43828e-07 11.8857 0.000762407 11.8576V11.7898C0.0822603 5.39333 5.29127 0.233826 11.706 0.233826C12.9041 0.233826 14.0595 0.413578 15.1472 0.747948C16.7048 1.22627 18.123 2.02069 19.3287 3.05579C20.9259 4.42754 22.1499 6.22278 22.8247 8.26709C23.1492 9.24963 23.3473 10.2893 23.3998 11.3671C23.4059 11.5072 23.4112 11.6481 23.4127 11.7898V11.8576C23.4135 11.8857 23.4135 11.9132 23.4135 11.9413Z" fill="url(#paint0_linear_68_39371)"/>
<path d="M22.53 11.965C22.53 17.9463 17.6805 22.7966 11.6984 22.7966C5.7163 22.7966 0.866791 17.9471 0.866791 11.965C0.866791 5.98287 5.7163 1.1326 11.6984 1.1326C17.6805 1.1326 22.53 5.98211 22.53 11.965Z" fill="url(#paint1_linear_68_39371)"/>
<path d="M22.3167 11.9566C22.3167 17.8092 17.5731 22.5513 11.722 22.5513C5.87088 22.5513 1.12726 17.8084 1.12726 11.9566C1.12726 6.10473 5.87088 1.36261 11.722 1.36261C17.5731 1.36261 22.3167 6.10549 22.3167 11.9566Z" fill="url(#paint2_linear_68_39371)"/>
<path d="M12.1196 2.24385C12.1196 2.41522 11.9809 2.55385 11.8096 2.55385C11.6382 2.55385 11.4996 2.41522 11.4996 2.24385C11.4996 2.07248 11.6382 1.93385 11.8096 1.93385C11.9809 1.93385 12.1196 2.07248 12.1196 2.24385Z" fill="#474747"/>
<path d="M12.1508 2.16464C12.1508 2.33601 12.0122 2.47464 11.8408 2.47464C11.6694 2.47464 11.5308 2.33601 11.5308 2.16464C11.5308 1.99327 11.6694 1.85464 11.8408 1.85464C12.0122 1.85464 12.1508 1.99327 12.1508 2.16464Z" fill="#E6E7E8"/>
<path d="M12.1356 2.20425C12.1356 2.37563 11.9969 2.51425 11.8256 2.51425C11.6542 2.51425 11.5156 2.37563 11.5156 2.20425C11.5156 2.03288 11.6542 1.89426 11.8256 1.89426C11.9969 1.89426 12.1356 2.03288 12.1356 2.20425Z" fill="#898989"/>
<path d="M10.5879 2.29946C10.6145 2.46855 10.4995 2.62774 10.3304 2.65439C10.1613 2.68105 10.0021 2.56604 9.97549 2.39695C9.94883 2.22786 10.0639 2.06867 10.2329 2.04202C10.402 2.01536 10.5612 2.13037 10.5879 2.29946Z" fill="#474747"/>
<path d="M10.6069 2.21644C10.6336 2.38552 10.5186 2.54471 10.3495 2.57137C10.1804 2.59803 10.0212 2.48302 9.99453 2.31393C9.96787 2.14484 10.0829 1.98565 10.252 1.95899C10.4211 1.93233 10.5803 2.04735 10.6069 2.21644Z" fill="#E6E7E8"/>
<path d="M10.5978 2.25757C10.6244 2.42666 10.5094 2.58585 10.3403 2.61251C10.1712 2.63916 10.0121 2.52415 9.98541 2.35506C9.95875 2.18597 10.0738 2.02679 10.2428 2.00013C10.4119 1.97347 10.5711 2.08848 10.5978 2.25757Z" fill="#898989"/>
<path d="M9.08434 2.59423C9.13766 2.75722 9.04777 2.93241 8.88554 2.98496C8.72254 3.03828 8.54737 2.9484 8.49481 2.78616C8.4415 2.62317 8.53136 2.44799 8.6936 2.39543C8.85659 2.34211 9.03102 2.43199 9.08434 2.59423Z" fill="#474747"/>
<path d="M9.09044 2.50815C9.143 2.67115 9.05387 2.84633 8.89164 2.89888C8.72864 2.95144 8.55347 2.86232 8.50092 2.70009C8.4476 2.53709 8.53747 2.36191 8.6997 2.30936C8.8627 2.2568 9.03789 2.34592 9.09044 2.50815Z" fill="#E6E7E8"/>
<path d="M9.08739 2.55156C9.1407 2.71456 9.05082 2.88974 8.88858 2.9423C8.72559 2.99485 8.55118 2.90574 8.49786 2.7435C8.4453 2.58051 8.53365 2.40609 8.69664 2.35277C8.85964 2.30021 9.03483 2.38933 9.08739 2.55156Z" fill="#898989"/>
<path d="M7.64556 3.11978C7.72325 3.27211 7.66231 3.45948 7.50998 3.53717C7.35765 3.61486 7.17028 3.55393 7.09335 3.40159C7.01566 3.24926 7.07658 3.06265 7.22891 2.9842C7.38124 2.90651 7.56861 2.96744 7.6463 3.11978H7.64556Z" fill="#474747"/>
<path d="M7.63795 3.03446C7.71564 3.1868 7.65471 3.37417 7.50237 3.45186C7.35004 3.52955 7.16267 3.46861 7.08498 3.31628C7.0073 3.16395 7.06823 2.97734 7.22056 2.89889C7.3729 2.8212 7.56026 2.88213 7.63795 3.03446Z" fill="#E6E7E8"/>
<path d="M7.64177 3.07711C7.71946 3.22945 7.65852 3.41682 7.50619 3.49451C7.35386 3.57219 7.16649 3.51126 7.0888 3.35893C7.01111 3.2066 7.07205 3.01999 7.22438 2.94154C7.37671 2.86385 7.56408 2.92478 7.64177 3.07711Z" fill="#898989"/>
<path d="M6.3058 3.86467C6.40634 4.00329 6.37586 4.19752 6.23724 4.29806C6.09861 4.3986 5.90439 4.36813 5.80385 4.22951C5.70331 4.09089 5.73379 3.89742 5.87242 3.79612C6.01104 3.69558 6.2045 3.72605 6.3058 3.86467Z" fill="#474747"/>
<path d="M6.28523 3.78165C6.38577 3.92027 6.35531 4.11373 6.21669 4.21503C6.07806 4.31557 5.88382 4.28511 5.78329 4.14649C5.68275 4.00786 5.71322 3.81364 5.85185 3.7131C5.99047 3.61256 6.18469 3.64303 6.28523 3.78165Z" fill="#E6E7E8"/>
<path d="M6.2959 3.82279C6.39644 3.96141 6.36598 4.15563 6.22735 4.25617C6.08873 4.35671 5.89451 4.32625 5.79397 4.18762C5.69343 4.049 5.72389 3.85554 5.86252 3.75424C6.00114 3.6537 6.1946 3.68416 6.2959 3.82279Z" fill="#898989"/>
<path d="M5.1001 4.80912C5.22121 4.93022 5.22121 5.12673 5.1001 5.24784C4.979 5.36894 4.78249 5.36894 4.66138 5.24784C4.54028 5.12673 4.54028 4.93022 4.66138 4.80912C4.78249 4.68802 4.979 4.68802 5.1001 4.80912Z" fill="#474747"/>
<path d="M5.0666 4.73068C5.1877 4.85178 5.1877 5.04829 5.0666 5.16939C4.94549 5.2905 4.74898 5.2905 4.62788 5.16939C4.50677 5.04829 4.50677 4.85178 4.62788 4.73068C4.74898 4.60957 4.94549 4.60957 5.0666 4.73068Z" fill="#E6E7E8"/>
<path d="M5.08335 4.77029C5.20445 4.89139 5.20445 5.0879 5.08335 5.209C4.96224 5.33011 4.76574 5.33011 4.64463 5.209C4.52353 5.0879 4.52353 4.89139 4.64463 4.77029C4.76574 4.64918 4.96224 4.64918 5.08335 4.77029Z" fill="#898989"/>
<path d="M4.05661 5.93107C4.19523 6.03161 4.22569 6.22583 4.12515 6.36445C4.02461 6.50308 3.83039 6.53354 3.69177 6.43301C3.55315 6.33247 3.52269 6.13824 3.62323 5.99962C3.72377 5.861 3.91799 5.83053 4.05661 5.93107Z" fill="#474747"/>
<path d="M4.01089 5.85871C4.14951 5.95925 4.17999 6.15348 4.07945 6.2921C3.97891 6.43072 3.78469 6.46119 3.64607 6.36065C3.50744 6.26011 3.47697 6.06588 3.57751 5.92726C3.67804 5.78864 3.87226 5.75817 4.01089 5.85871Z" fill="#E6E7E8"/>
<path d="M4.03375 5.89527C4.17237 5.99581 4.20285 6.19004 4.10231 6.32866C4.00177 6.46728 3.80753 6.49775 3.66891 6.39721C3.53029 6.29667 3.49983 6.10245 3.60037 5.96382C3.70091 5.8252 3.89513 5.79473 4.03375 5.89527Z" fill="#898989"/>
<path d="M3.20129 7.20228C3.35362 7.27997 3.41456 7.46658 3.33687 7.61967C3.25918 7.77201 3.07257 7.83294 2.91948 7.75525C2.76714 7.67756 2.70621 7.49095 2.7839 7.33786C2.86159 7.18552 3.04819 7.12459 3.20129 7.20228Z" fill="#474747"/>
<path d="M3.14492 7.1383C3.29725 7.21599 3.35819 7.4026 3.2805 7.55569C3.20281 7.70802 3.0162 7.76896 2.86311 7.69127C2.71078 7.61358 2.64984 7.42697 2.72753 7.27387C2.80522 7.12154 2.99183 7.06061 3.14492 7.1383Z" fill="#E6E7E8"/>
<path d="M3.17309 7.17028C3.32542 7.24797 3.38636 7.43458 3.30867 7.58768C3.23098 7.74001 3.04437 7.80094 2.89128 7.72325C2.73895 7.64556 2.67801 7.45895 2.7557 7.30586C2.83339 7.15353 3.02 7.09259 3.17309 7.17028Z" fill="#898989"/>
<path d="M2.55536 8.59231C2.71836 8.64486 2.80746 8.82005 2.75415 8.98304C2.70083 9.14604 2.52642 9.23516 2.36342 9.18184C2.20043 9.12929 2.1113 8.9541 2.16462 8.79111C2.21718 8.62811 2.39237 8.53899 2.55536 8.59231Z" fill="#474747"/>
<path d="M2.48986 8.53747C2.65285 8.59002 2.74197 8.76521 2.68866 8.9282C2.63534 9.0912 2.46091 9.18031 2.29792 9.127C2.13492 9.07368 2.04582 8.89926 2.09913 8.73626C2.15245 8.57327 2.32686 8.48415 2.48986 8.53747Z" fill="#E6E7E8"/>
<path d="M2.52262 8.56489C2.68561 8.61744 2.77472 8.79263 2.7214 8.95562C2.66809 9.11862 2.49367 9.20773 2.33068 9.15442C2.16768 9.1011 2.07856 8.92668 2.13111 8.76368C2.18367 8.60069 2.35886 8.51157 2.52186 8.56489H2.52262Z" fill="#898989"/>
<path d="M2.13492 10.0654C2.30401 10.092 2.41977 10.2512 2.39235 10.4203C2.36569 10.5894 2.20651 10.7044 2.03742 10.6777C1.86834 10.6511 1.75257 10.4919 1.77999 10.3228C1.80665 10.1537 1.96583 10.0379 2.13492 10.0654Z" fill="#474747"/>
<path d="M2.06182 10.022C2.23091 10.0486 2.34667 10.2078 2.31925 10.3769C2.29259 10.546 2.13341 10.6617 1.96432 10.6351C1.79523 10.6084 1.67945 10.4492 1.70687 10.2802C1.73353 10.1111 1.89273 9.99529 2.06182 10.0227V10.022Z" fill="#E6E7E8"/>
<path d="M2.09837 10.0433C2.26746 10.0699 2.38322 10.2291 2.3558 10.3982C2.32915 10.5673 2.16996 10.6831 2.00088 10.6557C1.83179 10.629 1.71602 10.4698 1.74268 10.3007C1.76934 10.1316 1.92852 10.0159 2.09761 10.0433H2.09837Z" fill="#898989"/>
<path d="M1.95063 11.5864C2.122 11.5864 2.26061 11.725 2.26061 11.8964C2.26061 12.0678 2.122 12.2064 1.95063 12.2064C1.77925 12.2064 1.64062 12.0678 1.64062 11.8964C1.64062 11.725 1.77925 11.5864 1.95063 11.5864Z" fill="#474747"/>
<path d="M1.87064 11.5552C2.04201 11.5552 2.18064 11.6938 2.18064 11.8652C2.18064 12.0365 2.04201 12.1752 1.87064 12.1752C1.69927 12.1752 1.56064 12.0365 1.56064 11.8652C1.56064 11.6938 1.69927 11.5552 1.87064 11.5552Z" fill="#E6E7E8"/>
<path d="M1.91025 11.5704C2.08163 11.5704 2.22024 11.709 2.22024 11.8804C2.22024 12.0518 2.08163 12.1904 1.91025 12.1904C1.73888 12.1904 1.60025 12.0518 1.60025 11.8804C1.60025 11.709 1.73888 11.5704 1.91025 11.5704Z" fill="#898989"/>
<path d="M2.00546 13.1173C2.17455 13.0907 2.33373 13.2057 2.36039 13.3756C2.38705 13.5446 2.27205 13.7038 2.10296 13.7305C1.93387 13.7571 1.77467 13.6421 1.74801 13.473C1.72135 13.304 1.83637 13.1448 2.00546 13.1181V13.1173Z" fill="#474747"/>
<path d="M1.92244 13.0991C2.09152 13.0724 2.25071 13.1874 2.27736 13.3565C2.30402 13.5256 2.18902 13.6848 2.01993 13.7114C1.85084 13.7381 1.69166 13.6231 1.665 13.454C1.63834 13.2849 1.75335 13.1257 1.92244 13.0991Z" fill="#E6E7E8"/>
<path d="M1.96432 13.1082C2.13341 13.0816 2.29259 13.1966 2.31925 13.3657C2.34591 13.5347 2.23091 13.6939 2.06182 13.7206C1.89273 13.7472 1.73353 13.6322 1.70687 13.4631C1.68021 13.2941 1.79523 13.1349 1.96432 13.1082Z" fill="#898989"/>
<path d="M2.30019 14.6216C2.46319 14.5691 2.63762 14.6582 2.69094 14.8204C2.74349 14.9834 2.65437 15.1579 2.49214 15.2112C2.32914 15.2637 2.15397 15.1746 2.10141 15.0124C2.04809 14.8494 2.13796 14.675 2.30019 14.6216Z" fill="#474747"/>
<path d="M2.2149 14.6155C2.3779 14.5622 2.55307 14.6513 2.60562 14.8143C2.65818 14.9773 2.56907 15.1525 2.40608 15.2051C2.24308 15.2584 2.06865 15.1693 2.01534 15.0063C1.96278 14.8433 2.0519 14.6681 2.21414 14.6155H2.2149Z" fill="#E6E7E8"/>
<path d="M2.25755 14.6186C2.42054 14.566 2.59574 14.6544 2.64829 14.8174C2.70161 14.9804 2.61248 15.1556 2.44949 15.2081C2.28649 15.2607 2.11132 15.1716 2.05876 15.0093C2.00621 14.8463 2.09531 14.6712 2.25755 14.6186Z" fill="#898989"/>
<path d="M2.82579 16.0604C2.97812 15.9827 3.16473 16.0437 3.24318 16.196C3.32087 16.3483 3.25993 16.5349 3.1076 16.6134C2.95527 16.6911 2.76866 16.6301 2.69097 16.4778C2.61328 16.3255 2.67422 16.1389 2.82655 16.0604H2.82579Z" fill="#474747"/>
<path d="M2.74046 16.0688C2.89279 15.9911 3.0794 16.0513 3.15785 16.2044C3.23554 16.3567 3.1746 16.5441 3.02227 16.6218C2.86994 16.6995 2.68333 16.6385 2.60488 16.4862C2.52719 16.3339 2.58813 16.1465 2.74046 16.0688Z" fill="#E6E7E8"/>
<path d="M2.78312 16.0642C2.93546 15.9865 3.12282 16.0467 3.20051 16.1998C3.2782 16.3521 3.21803 16.5387 3.06494 16.6164C2.9126 16.6941 2.72524 16.6332 2.64755 16.4808C2.56986 16.3285 2.63079 16.1411 2.78312 16.0642Z" fill="#898989"/>
<path d="M3.57069 17.3994C3.70931 17.2989 3.90277 17.3294 4.00407 17.468C4.10461 17.6066 4.07413 17.8001 3.93551 17.9014C3.79689 18.0019 3.60267 17.9714 3.50213 17.8328C3.40159 17.6942 3.43207 17.5007 3.57069 17.3994Z" fill="#474747"/>
<path d="M3.48765 17.4208C3.62627 17.3202 3.82049 17.3507 3.92103 17.4893C4.02157 17.6279 3.99111 17.8221 3.85249 17.9227C3.71387 18.0232 3.52039 17.9928 3.41909 17.8541C3.31855 17.7155 3.34903 17.5213 3.48765 17.4208Z" fill="#E6E7E8"/>
<path d="M3.52879 17.4101C3.66741 17.3095 3.86163 17.34 3.96217 17.4786C4.06271 17.6173 4.03225 17.8107 3.89363 17.9113C3.755 18.0118 3.56077 17.9813 3.46023 17.8427C3.35969 17.7041 3.39016 17.5106 3.52879 17.4093V17.4101Z" fill="#898989"/>
<path d="M4.51514 18.6059C4.63625 18.4848 4.83276 18.4848 4.95386 18.6059C5.07497 18.727 5.07497 18.9235 4.95386 19.0446C4.83276 19.1657 4.63625 19.1657 4.51514 19.0446C4.39404 18.9235 4.39404 18.727 4.51514 18.6059Z" fill="#474747"/>
<path d="M4.43668 18.6402C4.55779 18.5191 4.7543 18.5191 4.8754 18.6402C4.99651 18.7613 4.99651 18.9578 4.8754 19.0789C4.7543 19.2 4.55779 19.2 4.43668 19.0789C4.31558 18.9578 4.31558 18.7613 4.43668 18.6402Z" fill="#E6E7E8"/>
<path d="M4.4763 18.6227C4.5974 18.5016 4.79391 18.5016 4.91501 18.6227C5.03612 18.7438 5.03612 18.9395 4.91501 19.0606C4.79391 19.1817 4.5974 19.1817 4.4763 19.0606C4.35519 18.9395 4.35519 18.743 4.4763 18.6219V18.6227Z" fill="#898989"/>
<path d="M5.63708 19.6494C5.73762 19.5107 5.93184 19.4803 6.07046 19.5808C6.20909 19.6814 6.23956 19.8756 6.13902 20.0142C6.03849 20.1528 5.84425 20.1833 5.70562 20.0828C5.567 19.9822 5.53654 19.788 5.63708 19.6494Z" fill="#474747"/>
<path d="M5.56472 19.6951C5.66526 19.5564 5.85948 19.526 5.99811 19.6265C6.13673 19.7271 6.16719 19.9213 6.06665 20.0599C5.96611 20.1985 5.77189 20.229 5.63327 20.1285C5.49464 20.0279 5.46419 19.8337 5.56472 19.6951Z" fill="#E6E7E8"/>
<path d="M5.60129 19.6722C5.70182 19.5336 5.89604 19.5031 6.03467 19.6037C6.17329 19.7042 6.20377 19.8984 6.10323 20.0363C6.00269 20.1749 5.80845 20.2054 5.66983 20.1049C5.5312 20.0043 5.50075 19.8101 5.60129 19.6715V19.6722Z" fill="#898989"/>
<path d="M6.90905 20.5047C6.98674 20.3524 7.17335 20.2915 7.32644 20.3692C7.47877 20.4468 7.53971 20.6334 7.46202 20.7865C7.38433 20.9389 7.19772 20.9998 7.04463 20.9221C6.8923 20.8444 6.83136 20.6578 6.90905 20.5055V20.5047Z" fill="#474747"/>
<path d="M6.8443 20.5611C6.92199 20.4088 7.10859 20.3478 7.26169 20.4255C7.41402 20.5032 7.47495 20.6898 7.39726 20.8429C7.31958 20.9952 7.13295 21.0562 6.97986 20.9785C6.82752 20.9008 6.76661 20.7142 6.8443 20.5611Z" fill="#E6E7E8"/>
<path d="M6.87631 20.5329C6.954 20.3806 7.1406 20.3196 7.2937 20.3973C7.44603 20.475 7.50696 20.6616 7.42927 20.8147C7.35158 20.9671 7.16498 21.028 7.01188 20.9503C6.85955 20.8726 6.79862 20.686 6.87631 20.5337V20.5329Z" fill="#898989"/>
<path d="M8.29832 21.1506C8.35163 20.9876 8.52606 20.8985 8.68906 20.9518C8.85206 21.0044 8.94116 21.1796 8.88784 21.3426C8.83529 21.5056 8.66012 21.5947 8.49712 21.5413C8.33412 21.4888 8.245 21.3136 8.29832 21.1506Z" fill="#474747"/>
<path d="M8.24348 21.2161C8.29603 21.0531 8.47123 20.964 8.63422 21.0173C8.79722 21.0706 8.88632 21.2451 8.833 21.4081C8.77969 21.5711 8.60528 21.6602 8.44228 21.6069C8.27928 21.5535 8.19016 21.3784 8.24348 21.2161Z" fill="#E6E7E8"/>
<path d="M8.27092 21.1834C8.32347 21.0204 8.49864 20.9313 8.66164 20.9846C8.82463 21.0379 8.91376 21.2123 8.86044 21.3753C8.80712 21.5383 8.63269 21.6274 8.4697 21.5741C8.3067 21.5215 8.2176 21.3464 8.27092 21.1834Z" fill="#898989"/>
<path d="M9.77139 21.5711C9.79804 21.402 9.95722 21.2869 10.1263 21.3136C10.2954 21.3403 10.4112 21.4995 10.3838 21.6685C10.3571 21.8376 10.1979 21.9526 10.0288 21.926C9.85973 21.8993 9.74397 21.7401 9.77139 21.5711Z" fill="#474747"/>
<path d="M9.72796 21.6442C9.75462 21.4751 9.91382 21.3593 10.0829 21.386C10.252 21.4126 10.3678 21.5718 10.3403 21.7409C10.3137 21.91 10.1545 22.0258 9.98541 21.9984C9.81632 21.9717 9.70054 21.8125 9.72796 21.6434V21.6442Z" fill="#E6E7E8"/>
<path d="M9.75005 21.6076C9.77671 21.4385 9.93589 21.3227 10.105 21.3502C10.2741 21.3768 10.3891 21.536 10.3624 21.7051C10.3358 21.8742 10.1766 21.99 10.0075 21.9625C9.8384 21.9359 9.7234 21.7767 9.75005 21.6076Z" fill="#898989"/>
<path d="M11.2924 21.7554C11.2924 21.584 11.4318 21.4454 11.6024 21.4454C11.7738 21.4454 11.9124 21.584 11.9124 21.7554C11.9124 21.9267 11.7738 22.0654 11.6024 22.0654C11.431 22.0654 11.2924 21.9267 11.2924 21.7554Z" fill="#474747"/>
<path d="M11.2612 21.8354C11.2612 21.664 11.3998 21.5254 11.5712 21.5254C11.7426 21.5254 11.8812 21.664 11.8812 21.8354C11.8812 22.0067 11.7418 22.1453 11.5712 22.1453C11.3998 22.1453 11.2612 22.006 11.2612 21.8354Z" fill="#E6E7E8"/>
<path d="M11.2772 21.795C11.2772 21.6236 11.4158 21.485 11.5872 21.485C11.7586 21.485 11.8972 21.6236 11.8972 21.795C11.8972 21.9664 11.7586 22.105 11.5872 22.105C11.4158 22.105 11.2772 21.9664 11.2772 21.795Z" fill="#898989"/>
<path d="M12.8241 21.6998C12.7975 21.5307 12.9132 21.3723 13.0823 21.3448C13.2514 21.3182 13.4106 21.4332 13.4373 21.603C13.4639 21.7721 13.3489 21.9313 13.1798 21.958C13.0107 21.9846 12.8516 21.8696 12.8249 21.7005L12.8241 21.6998Z" fill="#474747"/>
<path d="M12.8051 21.7836C12.7785 21.6145 12.8935 21.4553 13.0625 21.4286C13.2316 21.402 13.3908 21.517 13.4175 21.6868C13.4441 21.8559 13.3284 22.0151 13.16 22.0418C12.9909 22.0684 12.8318 21.9526 12.8051 21.7843V21.7836Z" fill="#E6E7E8"/>
<path d="M12.8143 21.7417C12.7876 21.5726 12.9026 21.4134 13.0717 21.3867C13.2408 21.3601 13.4 21.4751 13.4266 21.6442C13.4533 21.8133 13.3383 21.9724 13.1692 21.9991C13.0001 22.0258 12.8409 21.9107 12.8143 21.7409V21.7417Z" fill="#898989"/>
<path d="M14.3276 21.4058C14.2751 21.2428 14.3642 21.0683 14.5272 21.015C14.6902 20.9625 14.8654 21.0516 14.9179 21.2138C14.9713 21.3768 14.8821 21.5512 14.7184 21.6046C14.5554 21.6571 14.3802 21.568 14.3276 21.4058Z" fill="#474747"/>
<path d="M14.3223 21.4918C14.269 21.3288 14.3589 21.1537 14.5211 21.1011C14.6841 21.0478 14.8593 21.1369 14.9119 21.2999C14.9644 21.4629 14.8753 21.6381 14.7123 21.6906C14.5493 21.7439 14.3741 21.6541 14.3216 21.4918H14.3223Z" fill="#E6E7E8"/>
<path d="M14.3246 21.4484C14.2721 21.2854 14.3604 21.1102 14.5234 21.0577C14.6864 21.0051 14.8608 21.0935 14.9141 21.2565C14.9667 21.4195 14.8776 21.5947 14.7153 21.6472C14.5523 21.7005 14.3779 21.6107 14.3246 21.4484Z" fill="#898989"/>
<path d="M15.7664 20.8802C15.6888 20.7279 15.7497 20.5405 15.902 20.4628C16.0544 20.3851 16.2417 20.4461 16.3194 20.5984C16.3971 20.7515 16.3362 20.9381 16.1838 21.0158C16.0315 21.0935 15.8449 21.0325 15.7664 20.8802Z" fill="#474747"/>
<path d="M15.7748 20.9655C15.6971 20.8132 15.7573 20.6258 15.9104 20.5481C16.0627 20.4704 16.2501 20.5306 16.3278 20.6837C16.4055 20.836 16.3445 21.0227 16.1922 21.1011C16.0399 21.1788 15.8525 21.1179 15.7748 20.9655Z" fill="#E6E7E8"/>
<path d="M15.771 20.9229C15.6933 20.7705 15.7543 20.5832 15.9066 20.5062C16.0589 20.4285 16.2455 20.4887 16.3232 20.6418C16.4009 20.7941 16.34 20.9815 16.1876 21.0592C16.0353 21.1369 15.8487 21.076 15.7703 20.9236L15.771 20.9229Z" fill="#898989"/>
<path d="M17.1062 20.1353C17.0057 19.9967 17.0369 19.8025 17.1747 19.7019C17.3134 19.6014 17.5068 19.6319 17.6081 19.7705C17.7087 19.9091 17.6782 20.1026 17.5396 20.2039C17.401 20.3044 17.2075 20.2739 17.1062 20.1353Z" fill="#474747"/>
<path d="M17.1268 20.2183C17.0263 20.0797 17.0567 19.8855 17.1953 19.785C17.334 19.6844 17.5282 19.7149 17.6287 19.8535C17.7293 19.9921 17.6988 20.1863 17.5602 20.2869C17.4216 20.3874 17.2273 20.3562 17.1268 20.2183Z" fill="#E6E7E8"/>
<path d="M17.1168 20.1764C17.0163 20.0378 17.0468 19.8444 17.1854 19.7431C17.324 19.6425 17.5175 19.673 17.618 19.8116C17.7186 19.9502 17.6881 20.1445 17.5495 20.245C17.4108 20.3455 17.2166 20.3151 17.1161 20.1764H17.1168Z" fill="#898989"/>
<path d="M18.3119 19.1901C18.1908 19.069 18.1908 18.8725 18.3119 18.7514C18.433 18.6303 18.6295 18.6303 18.7506 18.7514C18.8717 18.8725 18.8717 19.069 18.7506 19.1901C18.6295 19.3112 18.433 19.3112 18.3119 19.1901Z" fill="#474747"/>
<path d="M18.3462 19.2693C18.2251 19.1482 18.2251 18.9517 18.3462 18.8306C18.4673 18.7095 18.6638 18.7095 18.7849 18.8306C18.906 18.9517 18.906 19.1482 18.7849 19.2693C18.6638 19.3904 18.4673 19.3904 18.3462 19.2693Z" fill="#E6E7E8"/>
<path d="M18.3294 19.2297C18.2083 19.1086 18.2083 18.9121 18.3294 18.791C18.4505 18.6699 18.647 18.6699 18.7681 18.791C18.8892 18.9121 18.8892 19.1086 18.7681 19.2297C18.647 19.3508 18.4505 19.3508 18.3294 19.2297Z" fill="#898989"/>
<path d="M19.3554 18.0682C19.2168 17.9676 19.1863 17.7734 19.2868 17.6348C19.3874 17.4961 19.5816 17.4657 19.7202 17.5662C19.8588 17.6668 19.8893 17.861 19.7888 17.9996C19.6882 18.1382 19.494 18.1687 19.3554 18.0682Z" fill="#474747"/>
<path d="M19.4018 18.1413C19.2632 18.0407 19.2327 17.8465 19.3333 17.7079C19.4338 17.5693 19.628 17.5388 19.7667 17.6393C19.9053 17.7399 19.9357 17.9341 19.8352 18.0727C19.7347 18.2113 19.5404 18.2418 19.4018 18.1413Z" fill="#E6E7E8"/>
<path d="M19.3782 18.1047C19.2396 18.0042 19.2091 17.8099 19.3097 17.6713C19.4102 17.5327 19.6037 17.5022 19.7423 17.6028C19.8809 17.7033 19.9114 17.8975 19.8108 18.0362C19.7103 18.1748 19.5161 18.2052 19.3774 18.1047H19.3782Z" fill="#898989"/>
<path d="M20.2107 16.797C20.0584 16.7193 19.9975 16.5327 20.0752 16.3803C20.1528 16.228 20.3395 16.1671 20.4925 16.2447C20.6449 16.3224 20.7058 16.509 20.6281 16.6621C20.5504 16.8145 20.3638 16.8754 20.2115 16.7977L20.2107 16.797Z" fill="#474747"/>
<path d="M20.2671 16.8617C20.114 16.784 20.0538 16.5974 20.1315 16.4443C20.2092 16.292 20.3958 16.231 20.5489 16.3087C20.7012 16.3864 20.7622 16.573 20.6845 16.7261C20.6068 16.8784 20.4202 16.9394 20.2671 16.8617Z" fill="#E6E7E8"/>
<path d="M20.2389 16.8297C20.0866 16.752 20.0257 16.5654 20.1034 16.4123C20.181 16.26 20.3677 16.199 20.52 16.2767C20.6723 16.3544 20.7333 16.5418 20.6556 16.6941C20.5779 16.8465 20.3913 16.9074 20.2382 16.8297H20.2389Z" fill="#898989"/>
<path d="M20.8566 15.4077C20.6936 15.3551 20.6045 15.1799 20.6578 15.0169C20.7111 14.854 20.8855 14.7648 21.0485 14.8182C21.2115 14.8707 21.3006 15.0459 21.2473 15.2089C21.1948 15.3719 21.0196 15.461 20.8566 15.4077Z" fill="#474747"/>
<path d="M20.9229 15.4625C20.7599 15.4092 20.6708 15.2348 20.7241 15.0718C20.7766 14.9088 20.9518 14.8197 21.1148 14.873C21.2778 14.9263 21.3669 15.1007 21.3136 15.2637C21.2603 15.4267 21.0859 15.5158 20.9229 15.4633V15.4625Z" fill="#E6E7E8"/>
<path d="M20.8894 15.4351C20.7271 15.3818 20.6372 15.2074 20.6906 15.0444C20.7431 14.8814 20.9183 14.7923 21.0813 14.8456C21.2443 14.8989 21.3334 15.0733 21.2801 15.2363C21.2275 15.3993 21.0523 15.4884 20.8894 15.4351Z" fill="#898989"/>
<path d="M21.277 13.9346C21.1079 13.908 20.9929 13.7488 21.0196 13.5797C21.0462 13.4106 21.2054 13.2956 21.3745 13.3222C21.5436 13.3489 21.6586 13.5081 21.632 13.6772C21.6053 13.8463 21.4461 13.9613 21.277 13.9346Z" fill="#474747"/>
<path d="M21.3509 13.978C21.1818 13.9514 21.066 13.7922 21.0934 13.6231C21.1201 13.454 21.2793 13.3382 21.4484 13.3657C21.6175 13.3923 21.7332 13.5515 21.7066 13.7206C21.6799 13.8897 21.5207 14.0055 21.3517 13.9788L21.3509 13.978Z" fill="#E6E7E8"/>
<path d="M21.3136 13.9559C21.1445 13.9293 21.0287 13.7701 21.0561 13.601C21.0828 13.4319 21.2412 13.3169 21.4111 13.3436C21.5802 13.3702 21.6959 13.5294 21.6685 13.6985C21.6419 13.8676 21.4827 13.9834 21.3136 13.9559Z" fill="#898989"/>
<path d="M21.4614 12.4136C21.29 12.4136 21.1514 12.2742 21.1514 12.1036C21.1514 11.9322 21.29 11.7936 21.4614 11.7936C21.6327 11.7936 21.7714 11.9322 21.7714 12.1036C21.7714 12.2742 21.6327 12.4136 21.4614 12.4136Z" fill="#474747"/>
<path d="M21.5413 12.4448C21.37 12.4448 21.2313 12.3054 21.2313 12.1348C21.2313 11.9634 21.37 11.8248 21.5413 11.8248C21.7127 11.8248 21.8513 11.9634 21.8513 12.1348C21.8513 12.3062 21.7119 12.4448 21.5413 12.4448Z" fill="#E6E7E8"/>
<path d="M21.5017 12.4288C21.3303 12.4288 21.1917 12.2902 21.1917 12.1188C21.1917 11.9474 21.3303 11.8088 21.5017 11.8088C21.6731 11.8088 21.8117 11.9482 21.8117 12.1188C21.8117 12.2902 21.6731 12.4288 21.5017 12.4288Z" fill="#898989"/>
<path d="M21.4065 10.8819C21.2374 10.9085 21.079 10.7928 21.0516 10.6237C21.0249 10.4546 21.1399 10.2954 21.309 10.2687C21.4781 10.2421 21.6373 10.3571 21.6639 10.5269C21.6906 10.696 21.5756 10.8545 21.4065 10.8819Z" fill="#474747"/>
<path d="M21.4903 10.9009C21.3212 10.9276 21.162 10.8118 21.1354 10.6427C21.1087 10.4736 21.2237 10.3144 21.3928 10.2878C21.5619 10.2611 21.7211 10.3761 21.7477 10.5452C21.7744 10.7143 21.6586 10.8735 21.4903 10.9002V10.9009Z" fill="#E6E7E8"/>
<path d="M21.4484 10.8918C21.2793 10.9184 21.1201 10.8034 21.0934 10.6336C21.0668 10.4645 21.1818 10.3061 21.3509 10.2786C21.52 10.252 21.6792 10.367 21.7058 10.5361C21.7325 10.7052 21.6175 10.8644 21.4484 10.891V10.8918Z" fill="#898989"/>
<path d="M21.1118 9.37836C20.9488 9.43167 20.7744 9.3418 20.7211 9.17956C20.6678 9.01657 20.7576 8.84215 20.9199 8.78883C21.0828 8.73627 21.2573 8.82539 21.3106 8.98838C21.3632 9.15138 21.274 9.3258 21.111 9.37912L21.1118 9.37836Z" fill="#474747"/>
<path d="M21.1979 9.38369C21.0349 9.437 20.8597 9.34713 20.8071 9.18413C20.7538 9.02113 20.8429 8.84671 21.0059 8.7934C21.1689 8.74084 21.3441 8.82996 21.3967 8.99219C21.45 9.15519 21.3601 9.33037 21.1979 9.38292V9.38369Z" fill="#E6E7E8"/>
<path d="M21.1552 9.38141C20.9922 9.43397 20.8178 9.34485 20.7645 9.18186C20.7112 9.01886 20.8003 8.84444 20.9633 8.79112C21.1263 8.73857 21.3014 8.82768 21.354 8.98992C21.4073 9.15291 21.3174 9.3281 21.1552 9.38065V9.38141Z" fill="#898989"/>
<path d="M20.5862 7.93957C20.4339 8.01726 20.2473 7.95633 20.1688 7.804C20.0912 7.65166 20.1521 7.4643 20.3044 7.38661C20.4568 7.30892 20.6434 7.36985 20.7218 7.52218C20.7995 7.67451 20.7386 7.86112 20.5862 7.93957Z" fill="#474747"/>
<path d="M20.6715 7.93119C20.5184 8.00888 20.3318 7.94795 20.2541 7.79562C20.1764 7.64329 20.2366 7.45668 20.3897 7.37823C20.542 7.30054 20.7294 7.36147 20.8071 7.5138C20.8848 7.66614 20.8239 7.8535 20.6715 7.93119Z" fill="#E6E7E8"/>
<path d="M20.6289 7.93501C20.4766 8.0127 20.29 7.95177 20.2115 7.79943C20.1338 7.6471 20.1947 7.4605 20.3471 7.38281C20.4994 7.30512 20.6868 7.36605 20.7645 7.51838C20.8422 7.67071 20.7812 7.85808 20.6289 7.93577V7.93501Z" fill="#898989"/>
<path d="M19.8413 6.5998C19.7027 6.70034 19.5085 6.66911 19.4079 6.53125C19.3074 6.39263 19.3378 6.1984 19.4765 6.09786C19.6151 5.99732 19.8085 6.02779 19.9099 6.16642C20.0104 6.30504 19.9799 6.4985 19.8413 6.5998Z" fill="#474747"/>
<path d="M19.9251 6.57923C19.7865 6.67977 19.5923 6.64931 19.4917 6.51068C19.3912 6.37206 19.4217 6.1786 19.5603 6.0773C19.6989 5.97676 19.8931 6.00722 19.9937 6.14584C20.0942 6.28447 20.0637 6.47869 19.9251 6.57923Z" fill="#E6E7E8"/>
<path d="M19.8832 6.58913C19.7446 6.68967 19.5511 6.65921 19.4498 6.52059C19.3493 6.38196 19.3797 6.1885 19.5183 6.08796C19.657 5.98742 19.8512 6.01789 19.9517 6.15651C20.0523 6.29513 20.0218 6.48859 19.8832 6.5899V6.58913Z" fill="#898989"/>
<path d="M18.8969 5.3941C18.7758 5.5152 18.5792 5.5152 18.4581 5.3941C18.337 5.27299 18.337 5.07648 18.4581 4.95538C18.5792 4.83427 18.7758 4.83427 18.8969 4.95538C19.018 5.07648 19.018 5.27299 18.8969 5.3941Z" fill="#474747"/>
<path d="M18.9753 5.35982C18.8542 5.48093 18.6577 5.48093 18.5366 5.35982C18.4155 5.23872 18.4155 5.04221 18.5366 4.9211C18.6577 4.8 18.8542 4.8 18.9753 4.9211C19.0964 5.04221 19.0964 5.23872 18.9753 5.35982Z" fill="#E6E7E8"/>
<path d="M18.9357 5.37658C18.8146 5.49768 18.6181 5.49768 18.497 5.37658C18.3759 5.25547 18.3759 5.05973 18.497 4.93786C18.6181 4.81675 18.8146 4.81675 18.9357 4.93786C19.0568 5.05896 19.0568 5.25547 18.9357 5.37658Z" fill="#898989"/>
<path d="M17.7749 4.35062C17.6744 4.48924 17.4801 4.51971 17.3415 4.41917C17.2029 4.31863 17.1724 4.1244 17.273 3.98578C17.3735 3.84716 17.567 3.81669 17.7064 3.91723C17.845 4.01777 17.8755 4.21199 17.7749 4.35062Z" fill="#474747"/>
<path d="M17.8472 4.30492C17.7467 4.44354 17.5525 4.47401 17.4139 4.37347C17.2752 4.27293 17.2448 4.0787 17.3453 3.94008C17.4458 3.80146 17.6401 3.77099 17.7787 3.87153C17.9173 3.97207 17.9478 4.16629 17.8472 4.30492Z" fill="#E6E7E8"/>
<path d="M17.8107 4.32778C17.7102 4.4664 17.516 4.49686 17.3773 4.39632C17.2387 4.29578 17.2083 4.10232 17.3088 3.96294C17.4093 3.82432 17.6036 3.79385 17.7422 3.89439C17.8808 3.99493 17.9113 4.18915 17.8107 4.32778Z" fill="#898989"/>
<path d="M16.5037 3.49526C16.426 3.6476 16.2394 3.70853 16.0863 3.63084C15.934 3.55315 15.8731 3.36654 15.9508 3.21345C16.0285 3.06112 16.2151 3.00019 16.3682 3.07787C16.5205 3.15556 16.5814 3.34217 16.5037 3.49526Z" fill="#474747"/>
<path d="M16.5677 3.4389C16.49 3.592 16.3026 3.65217 16.1503 3.57448C15.998 3.49679 15.937 3.31018 16.0147 3.15708C16.0924 3.00475 16.279 2.94382 16.4321 3.02151C16.5845 3.0992 16.6454 3.28657 16.5677 3.4389Z" fill="#E6E7E8"/>
<path d="M16.5357 3.46708C16.4581 3.61942 16.2715 3.68035 16.1191 3.60266C15.9668 3.52497 15.9059 3.33836 15.9835 3.18603C16.0612 3.0337 16.2478 2.97276 16.4009 3.05045C16.5533 3.12814 16.6142 3.31475 16.5365 3.46785L16.5357 3.46708Z" fill="#898989"/>
<path d="M15.1137 2.84938C15.0611 3.01237 14.8859 3.10149 14.723 3.04817C14.56 2.99561 14.4708 2.82043 14.5234 2.65744C14.5767 2.49444 14.7511 2.40533 14.9141 2.45864C15.0764 2.5112 15.1662 2.68638 15.1129 2.84938H15.1137Z" fill="#474747"/>
<path d="M15.1685 2.78311C15.1152 2.9461 14.94 3.03522 14.7778 2.9819C14.6148 2.92935 14.5257 2.75416 14.579 2.59117C14.6315 2.42817 14.8067 2.33906 14.9697 2.39237C15.1327 2.44493 15.2218 2.62087 15.1693 2.78311H15.1685Z" fill="#E6E7E8"/>
<path d="M15.1411 2.81662C15.0878 2.97961 14.9134 3.06873 14.7504 3.01541C14.5874 2.96285 14.4983 2.78767 14.5516 2.62468C14.6049 2.46168 14.7793 2.37257 14.9423 2.42588C15.1053 2.47844 15.1944 2.65362 15.1411 2.81662Z" fill="#898989"/>
<path d="M13.6406 2.42895C13.614 2.59804 13.4548 2.71305 13.2857 2.68639C13.1166 2.65973 13.0008 2.50054 13.0283 2.33145C13.0549 2.16236 13.2133 2.04736 13.3832 2.07401C13.5523 2.10067 13.6673 2.25986 13.6406 2.42895Z" fill="#474747"/>
<path d="M13.684 2.35506C13.6574 2.52415 13.4982 2.63993 13.3291 2.61251C13.16 2.58585 13.0442 2.42666 13.0716 2.25757C13.0983 2.08848 13.2575 1.97347 13.4266 2.00013C13.5957 2.02679 13.7114 2.18597 13.6848 2.35506H13.684Z" fill="#E6E7E8"/>
<path d="M13.6627 2.39239C13.6361 2.56148 13.4769 2.67649 13.3078 2.64983C13.1387 2.62317 13.0237 2.46475 13.0503 2.2949C13.077 2.12581 13.2362 2.01003 13.4053 2.03745C13.5744 2.06411 13.6901 2.2233 13.6627 2.39239Z" fill="#898989"/>
<path d="M14.6879 9.56497C14.6712 9.59544 14.6826 9.63352 14.713 9.65028C15.2713 9.95418 15.7123 10.2863 16.0475 10.5886C16.0795 10.6176 16.0703 10.6717 16.03 10.6869C16.03 10.6869 16.03 10.6869 16.0292 10.6869C15.8769 10.7433 15.7253 10.7257 15.5737 10.6869C15.2698 10.6085 14.9949 10.4622 14.7191 10.319C14.2606 10.0806 13.8097 9.82699 13.3192 9.65714C13.2004 9.61601 13.0793 9.57868 12.9582 9.54593C12.9338 9.53908 12.8911 9.55126 12.8736 9.57031C12.3458 10.169 11.6595 10.4508 10.8887 10.5597C10.2253 10.6542 9.56572 10.6145 8.91069 10.4828C8.90308 10.4813 8.89622 10.4774 8.87261 10.4691C8.91146 10.4546 8.93811 10.4447 8.96477 10.4348C9.37607 10.2863 9.75005 10.0776 10.0616 9.76529C10.2969 9.52918 10.4645 9.25345 10.5399 8.92594C10.5468 8.89623 10.5506 8.86577 10.5582 8.82311C10.3853 8.82007 10.2192 8.81474 10.054 8.81398C9.27172 8.81169 8.49787 8.88633 7.74382 9.10493C6.91361 9.34638 6.17024 9.73711 5.58452 10.3883C5.06049 10.9718 4.74212 11.6504 4.68651 12.4403C4.67737 12.5728 4.68956 12.7076 4.70174 12.8401C4.72459 13.0762 4.85561 13.2453 5.06963 13.3337C5.30879 13.4327 5.55556 13.5142 5.80234 13.5949C6.1291 13.7023 6.44747 13.8219 6.71405 14.0481C7.02633 14.3117 7.20457 14.7283 7.21828 15.1365C7.06442 14.8578 6.80164 14.7778 6.52516 14.7389C6.23801 14.6986 5.94707 14.6826 5.6584 14.6529C5.57385 14.6445 5.49007 14.6323 5.40704 14.6156C5.28061 14.5889 5.1595 14.547 5.0582 14.4465C5.05286 14.5158 5.05439 14.579 5.0422 14.6399C5.01555 14.777 4.94243 14.8928 4.85636 14.9994C4.76725 15.1091 4.67508 15.2158 4.58521 15.3247C4.2874 15.6842 4.14497 15.9919 4.25161 16.4984C4.17849 16.3994 4.10307 16.3026 4.03376 16.2006C3.69025 15.6986 3.63466 15.1601 3.83193 14.5904C3.90886 14.3673 3.98731 14.1441 4.05967 13.9186C4.18686 13.5226 4.17847 13.1273 4.02919 12.7396C3.70167 11.888 3.66587 11.0159 3.87609 10.1393C4.3072 8.33641 5.35678 6.98979 6.95246 6.06285C7.41479 5.79474 7.91368 5.60661 8.43313 5.47865C8.45826 5.47256 8.4834 5.46647 8.50777 5.45885C8.51234 5.45809 8.51615 5.45352 8.53139 5.44362C8.17036 4.83809 7.63644 4.44355 7.01721 4.13356C7.19011 4.12594 7.36223 4.11223 7.53513 4.11071C8.17568 4.10538 8.80025 4.20515 9.40349 4.42451C9.95036 4.62407 10.4424 4.91579 10.8712 5.31337C10.9055 5.34536 10.9573 5.36973 11.0045 5.37583C11.8332 5.49693 12.6185 5.74143 13.3276 6.1969C14.3284 6.83975 14.9926 7.74231 15.3528 8.86958C15.4298 9.11026 15.5417 9.32201 15.6941 9.51928C15.8304 9.69598 15.9622 9.87649 16.0871 10.0608C16.1434 10.1438 16.1853 10.236 16.2135 10.332V10.3343C16.2402 10.4226 16.1351 10.4896 16.0658 10.4295C15.7337 10.1393 15.3071 9.82622 14.7724 9.53527C14.742 9.51851 14.7031 9.52994 14.6872 9.56117L14.6879 9.56497Z" fill="#292929"/>
<path d="M14.6392 9.46138C14.6224 9.49185 14.6338 9.52993 14.6643 9.54669C15.2226 9.85059 15.6636 10.1827 15.9987 10.4851C16.0307 10.514 16.0216 10.5681 15.9812 10.5833C15.9812 10.5833 15.9812 10.5833 15.9805 10.5833C15.8281 10.6397 15.6766 10.6222 15.525 10.5833C15.2211 10.5049 14.9461 10.3586 14.6704 10.2154C14.2119 9.97703 13.761 9.7234 13.2705 9.55355C13.1516 9.51242 13.0305 9.47509 12.9094 9.44234C12.8851 9.43549 12.8424 9.44768 12.8249 9.46672C12.2971 10.0654 11.6108 10.3472 10.84 10.4561C10.1766 10.5506 9.517 10.511 8.86197 10.3792C8.85435 10.3777 8.8475 10.3739 8.82389 10.3655C8.86273 10.351 8.88939 10.3411 8.91604 10.3312C9.32734 10.1827 9.70131 9.97398 10.0128 9.6617C10.2482 9.42559 10.4158 9.14986 10.4912 8.82235C10.498 8.79264 10.5018 8.76218 10.5094 8.71953C10.3365 8.71648 10.1705 8.71115 10.0052 8.71039C9.223 8.7081 8.44914 8.78274 7.6951 9.00134C6.86488 9.24279 6.12149 9.63352 5.53577 10.2847C5.01175 10.8682 4.69337 11.5468 4.63777 12.3367C4.62863 12.4692 4.64083 12.604 4.65302 12.7365C4.67587 12.9727 4.80686 13.1417 5.02089 13.2301C5.26005 13.3291 5.50684 13.4106 5.75362 13.4913C6.08037 13.5987 6.39874 13.7183 6.66533 13.9445C6.97761 14.2081 7.15585 14.6247 7.16956 15.033C7.0157 14.7542 6.75292 14.6742 6.47644 14.6354C6.18929 14.595 5.89832 14.579 5.60965 14.5493C5.52511 14.5409 5.44134 14.5287 5.35832 14.512C5.23188 14.4853 5.11077 14.4434 5.00947 14.3429C5.00414 14.4122 5.00567 14.4754 4.99348 14.5363C4.96682 14.6734 4.89371 14.7892 4.80764 14.8958C4.71852 15.0055 4.62636 15.1122 4.53648 15.2211C4.23867 15.5806 4.09623 15.8883 4.20286 16.3948C4.12974 16.2958 4.05435 16.1991 3.98504 16.097C3.64153 15.5951 3.58592 15.0566 3.78319 14.4868C3.86012 14.2637 3.93857 14.0405 4.01092 13.815C4.13812 13.419 4.12975 13.0237 3.98046 12.636C3.65295 11.7845 3.61715 10.9124 3.82737 10.0357C4.25847 8.23282 5.30803 6.8862 6.90372 5.95926C7.36605 5.69115 7.86495 5.50302 8.3844 5.37506C8.40954 5.36897 8.43467 5.36288 8.45905 5.35526C8.46362 5.3545 8.46743 5.34993 8.48266 5.34003C8.12163 4.7345 7.5877 4.33996 6.96847 4.02997C7.14136 4.02235 7.3135 4.00864 7.4864 4.00711C8.12696 4.00178 8.75153 4.10156 9.35476 4.32092C9.90164 4.52048 10.3937 4.81219 10.8225 5.20978C10.8568 5.24177 10.9086 5.26614 10.9558 5.27224C11.7845 5.39334 12.5697 5.63783 13.2789 6.09331C14.2797 6.73615 14.9438 7.63872 15.3041 8.76599C15.381 9.00667 15.493 9.21842 15.6453 9.41569C15.7817 9.59239 15.9134 9.77291 16.0384 9.95723C16.0947 10.0402 16.1366 10.1324 16.1648 10.2284V10.2307C16.1914 10.319 16.0863 10.386 16.017 10.3259C15.6849 10.0357 15.2584 9.72263 14.7237 9.43168C14.6933 9.41492 14.6544 9.42635 14.6384 9.45758L14.6392 9.46138Z" fill="url(#paint3_radial_68_39371)"/>
<g opacity="0.69">
<path d="M14.6392 9.46138C14.6224 9.49185 14.6338 9.52993 14.6643 9.54669C15.2226 9.85059 15.6636 10.1827 15.9987 10.4851C16.0307 10.514 16.0216 10.5681 15.9812 10.5833C15.9812 10.5833 15.9812 10.5833 15.9805 10.5833C15.8281 10.6397 15.6766 10.6222 15.525 10.5833C15.2211 10.5049 14.9461 10.3586 14.6704 10.2154C14.2119 9.97703 13.761 9.7234 13.2705 9.55355C13.1516 9.51242 13.0305 9.47509 12.9094 9.44234C12.8851 9.43549 12.8424 9.44768 12.8249 9.46672C12.2971 10.0654 11.6108 10.3472 10.84 10.4561C10.1766 10.5506 9.517 10.511 8.86197 10.3792C8.85435 10.3777 8.8475 10.3739 8.82389 10.3655C8.86273 10.351 8.88939 10.3411 8.91604 10.3312C9.32734 10.1827 9.70131 9.97398 10.0128 9.6617C10.2482 9.42559 10.4158 9.14986 10.4912 8.82235C10.498 8.79264 10.5018 8.76218 10.5094 8.71953C10.3365 8.71648 10.1705 8.71115 10.0052 8.71039C9.223 8.7081 8.44914 8.78274 7.6951 9.00134C6.86488 9.24279 6.12149 9.63352 5.53577 10.2847C5.01175 10.8682 4.69337 11.5468 4.63777 12.3367C4.62863 12.4692 4.64083 12.604 4.65302 12.7365C4.67587 12.9727 4.80686 13.1417 5.02089 13.2301C5.26005 13.3291 5.50684 13.4106 5.75362 13.4913C6.08037 13.5987 6.39874 13.7183 6.66533 13.9445C6.97761 14.2081 7.15585 14.6247 7.16956 15.033C7.0157 14.7542 6.75292 14.6742 6.47644 14.6354C6.18929 14.595 5.89832 14.579 5.60965 14.5493C5.52511 14.5409 5.44134 14.5287 5.35832 14.512C5.23188 14.4853 5.11077 14.4434 5.00947 14.3429C5.00414 14.4122 5.00567 14.4754 4.99348 14.5363C4.96682 14.6734 4.89371 14.7892 4.80764 14.8958C4.71852 15.0055 4.62636 15.1122 4.53648 15.2211C4.23867 15.5806 4.09623 15.8883 4.20286 16.3948C4.12974 16.2958 4.05435 16.1991 3.98504 16.097C3.64153 15.5951 3.58592 15.0566 3.78319 14.4868C3.86012 14.2637 3.93857 14.0405 4.01092 13.815C4.13812 13.419 4.12975 13.0237 3.98046 12.636C3.65295 11.7845 3.61715 10.9124 3.82737 10.0357C4.25847 8.23282 5.30803 6.8862 6.90372 5.95926C7.36605 5.69115 7.86495 5.50302 8.3844 5.37506C8.40954 5.36897 8.43467 5.36288 8.45905 5.35526C8.46362 5.3545 8.46743 5.34993 8.48266 5.34003C8.12163 4.7345 7.5877 4.33996 6.96847 4.02997C7.14136 4.02235 7.3135 4.00864 7.4864 4.00711C8.12696 4.00178 8.75153 4.10156 9.35476 4.32092C9.90164 4.52048 10.3937 4.81219 10.8225 5.20978C10.8568 5.24177 10.9086 5.26614 10.9558 5.27224C11.7845 5.39334 12.5697 5.63783 13.2789 6.09331C14.2797 6.73615 14.9438 7.63872 15.3041 8.76599C15.381 9.00667 15.493 9.21842 15.6453 9.41569C15.7817 9.59239 15.9134 9.77291 16.0384 9.95723C16.0947 10.0402 16.1366 10.1324 16.1648 10.2284V10.2307C16.1914 10.319 16.0863 10.386 16.017 10.3259C15.6849 10.0357 15.2584 9.72263 14.7237 9.43168C14.6933 9.41492 14.6544 9.42635 14.6384 9.45758L14.6392 9.46138Z" fill="#4A4A4A"/>
</g>
<path d="M9.10035 15.0627C9.11254 15.0299 9.09578 14.9941 9.06303 14.9819C8.46741 14.761 7.98375 14.4937 7.60825 14.2424C7.57245 14.218 7.57398 14.1631 7.6113 14.1426C7.6113 14.1426 7.6113 14.1426 7.61206 14.1426C7.75449 14.0656 7.9076 14.0603 8.06298 14.0778C8.37526 14.1121 8.66848 14.218 8.96172 14.3208C9.44919 14.4914 9.9321 14.6788 10.4416 14.777C10.565 14.8006 10.6899 14.8205 10.8149 14.8364C10.84 14.8395 10.8804 14.822 10.8948 14.8006C11.3328 14.1334 11.9718 13.7572 12.7198 13.5393C13.3634 13.352 14.0215 13.2979 14.6887 13.3352C14.6963 13.3352 14.7032 13.3383 14.7283 13.3436C14.6917 13.3634 14.6666 13.3771 14.6415 13.3901C14.2553 13.5949 13.9148 13.8554 13.6505 14.2081C13.451 14.4754 13.3245 14.7725 13.2956 15.1068C13.2926 15.1373 13.2933 15.1678 13.2918 15.2112C13.4632 15.1899 13.6284 15.1716 13.7922 15.1487C14.5668 15.0406 15.3224 14.8563 16.0376 14.5325C16.8251 14.1761 17.5061 13.6833 17.9928 12.9559C18.4284 12.3039 18.6478 11.5864 18.5907 10.7973C18.5808 10.6648 18.5503 10.5331 18.5183 10.4036C18.462 10.1728 18.3081 10.0243 18.0842 9.96714C17.8328 9.90316 17.5777 9.85746 17.3225 9.81252C16.9836 9.75311 16.6522 9.67923 16.3552 9.49338C16.0086 9.27631 15.7733 8.88938 15.7017 8.48798C15.8936 8.74238 16.1655 8.78427 16.4443 8.78351C16.7345 8.78275 17.0247 8.75761 17.3149 8.74543C17.3994 8.74162 17.4847 8.74162 17.5693 8.74695C17.698 8.75533 17.8244 8.7797 17.9387 8.86501C17.9341 8.7957 17.9235 8.73324 17.9273 8.67155C17.9341 8.53216 17.9905 8.40725 18.0606 8.28919C18.1329 8.16809 18.2091 8.04927 18.283 7.92816C18.5267 7.52981 18.6242 7.20458 18.4467 6.71864C18.5328 6.80623 18.6219 6.89154 18.7049 6.98218C19.1162 7.43004 19.2472 7.95482 19.133 8.5474C19.088 8.7797 19.0423 9.01125 19.0027 9.24508C18.9334 9.65485 18.9974 10.0456 19.2 10.4081C19.6448 11.2041 19.804 12.0625 19.721 12.9605C19.5504 14.806 18.7026 16.2882 17.254 17.4322C16.8343 17.7635 16.3674 18.0194 15.8715 18.2205C15.8479 18.2304 15.8235 18.2396 15.7999 18.2502C15.7954 18.2517 15.7923 18.2563 15.7794 18.2685C16.2227 18.8169 16.8069 19.1315 17.4642 19.3501C17.2943 19.3821 17.1252 19.4201 16.9546 19.446C16.3209 19.542 15.6887 19.5321 15.0611 19.4003C14.4914 19.28 13.9628 19.0614 13.4822 18.7285C13.4434 18.7019 13.3885 18.6851 13.3413 18.6851C12.5035 18.6828 11.6915 18.5518 10.9253 18.2015C9.84373 17.7072 9.05769 16.9074 8.54129 15.8434C8.43161 15.6156 8.28994 15.4222 8.11095 15.2485C7.951 15.0931 7.79487 14.9332 7.64483 14.7679C7.57704 14.694 7.52219 14.6087 7.48106 14.5173V14.515C7.44145 14.4312 7.53666 14.3497 7.61359 14.4C7.98375 14.6399 8.44989 14.8898 9.02037 15.1015C9.05313 15.1137 9.08969 15.0969 9.10188 15.0642L9.10035 15.0627Z" fill="#292929"/>
<path d="M9.05162 14.9591C9.0638 14.9263 9.04705 14.8905 9.0143 14.8783C8.41868 14.6574 7.93501 14.3901 7.55951 14.1388C7.52371 14.1144 7.52524 14.0595 7.56256 14.039C7.56256 14.039 7.56256 14.039 7.56332 14.039C7.70575 13.962 7.85884 13.9567 8.01422 13.9742C8.3265 14.0085 8.61975 14.1144 8.91299 14.2172C9.40045 14.3878 9.88334 14.5752 10.3929 14.6734C10.5163 14.6971 10.6412 14.7169 10.7661 14.7329C10.7913 14.7359 10.8316 14.7184 10.8461 14.6971C11.284 14.0298 11.9231 13.6536 12.671 13.4357C13.3146 13.2484 13.9727 13.1943 14.6399 13.2316C14.6475 13.2316 14.6544 13.2347 14.6795 13.24C14.643 13.2598 14.6178 13.2735 14.5927 13.2865C14.2066 13.4913 13.8661 13.7518 13.6018 14.1045C13.4022 14.3718 13.2758 14.6689 13.2468 15.0032C13.2438 15.0337 13.2446 15.0642 13.243 15.1076C13.4144 15.0863 13.5797 15.068 13.7434 15.0451C14.5181 14.937 15.2736 14.7527 15.9888 14.4289C16.7764 14.0725 17.4573 13.5797 17.944 12.8523C18.3797 12.2003 18.5991 11.4828 18.5419 10.6938C18.532 10.5612 18.5016 10.4295 18.4696 10.3C18.4132 10.0692 18.2594 9.92067 18.0354 9.86354C17.7841 9.79956 17.5289 9.75386 17.2738 9.70893C16.9348 9.64952 16.6035 9.57563 16.3065 9.38979C15.9599 9.17271 15.7245 8.78579 15.6529 8.38439C15.8449 8.63879 16.1168 8.68068 16.3956 8.67992C16.6858 8.67916 16.9759 8.65402 17.2661 8.64184C17.3507 8.63803 17.436 8.63803 17.5205 8.64336C17.6493 8.65174 17.7757 8.67611 17.89 8.76142C17.8854 8.69211 17.8747 8.62965 17.8785 8.56796C17.8854 8.42857 17.9417 8.30366 18.0118 8.1856C18.0842 8.0645 18.1603 7.94568 18.2342 7.82457C18.4779 7.42622 18.5754 7.10099 18.398 6.61505C18.484 6.70264 18.5732 6.78795 18.6562 6.87858C19.0675 7.32644 19.1985 7.85123 19.0842 8.4438C19.0393 8.67611 18.9936 8.90766 18.954 9.14149C18.8847 9.55126 18.9487 9.942 19.1513 10.3045C19.5961 11.1005 19.7553 11.9589 19.6722 12.8569C19.5016 14.7024 18.6539 16.1846 17.2052 17.3286C16.7855 17.6599 16.3186 17.9158 15.8228 18.1169C15.7992 18.1268 15.7748 18.136 15.7512 18.1466C15.7466 18.1481 15.7436 18.1527 15.7306 18.1649C16.1739 18.7133 16.7581 19.0279 17.4154 19.2465C17.2456 19.2785 17.0765 19.3165 16.9059 19.3424C16.2722 19.4384 15.64 19.4285 15.0124 19.2967C14.4427 19.1764 13.9141 18.9578 13.4335 18.625C13.3946 18.5983 13.3398 18.5815 13.2926 18.5815C12.4547 18.5793 11.6428 18.4482 10.8766 18.0979C9.795 17.6036 9.00896 16.8038 8.49255 15.7398C8.38287 15.512 8.24121 15.3186 8.06222 15.1449C7.90227 14.9895 7.74612 14.8296 7.59607 14.6643C7.52828 14.5904 7.47345 14.5051 7.43232 14.4137V14.4114C7.39271 14.3276 7.48792 14.2462 7.56485 14.2964C7.93502 14.5363 8.40115 14.7862 8.97164 14.9979C9.00439 15.0101 9.04095 14.9933 9.05314 14.9606L9.05162 14.9591Z" fill="url(#paint4_radial_68_39371)"/>
<g opacity="0.69">
<path d="M9.05162 14.9591C9.0638 14.9263 9.04705 14.8905 9.0143 14.8783C8.41868 14.6574 7.93501 14.3901 7.55951 14.1388C7.52371 14.1144 7.52524 14.0595 7.56256 14.039C7.56256 14.039 7.56256 14.039 7.56332 14.039C7.70575 13.962 7.85884 13.9567 8.01422 13.9742C8.3265 14.0085 8.61975 14.1144 8.91299 14.2172C9.40045 14.3878 9.88334 14.5752 10.3929 14.6734C10.5163 14.6971 10.6412 14.7169 10.7661 14.7329C10.7913 14.7359 10.8316 14.7184 10.8461 14.6971C11.284 14.0298 11.9231 13.6536 12.671 13.4357C13.3146 13.2484 13.9727 13.1943 14.6399 13.2316C14.6475 13.2316 14.6544 13.2347 14.6795 13.24C14.643 13.2598 14.6178 13.2735 14.5927 13.2865C14.2066 13.4913 13.8661 13.7518 13.6018 14.1045C13.4022 14.3718 13.2758 14.6689 13.2468 15.0032C13.2438 15.0337 13.2446 15.0642 13.243 15.1076C13.4144 15.0863 13.5797 15.068 13.7434 15.0451C14.5181 14.937 15.2736 14.7527 15.9888 14.4289C16.7764 14.0725 17.4573 13.5797 17.944 12.8523C18.3797 12.2003 18.5991 11.4828 18.5419 10.6938C18.532 10.5612 18.5016 10.4295 18.4696 10.3C18.4132 10.0692 18.2594 9.92067 18.0354 9.86354C17.7841 9.79956 17.5289 9.75386 17.2738 9.70893C16.9348 9.64952 16.6035 9.57563 16.3065 9.38979C15.9599 9.17271 15.7245 8.78579 15.6529 8.38439C15.8449 8.63879 16.1168 8.68068 16.3956 8.67992C16.6858 8.67916 16.9759 8.65402 17.2661 8.64184C17.3507 8.63803 17.436 8.63803 17.5205 8.64336C17.6493 8.65174 17.7757 8.67611 17.89 8.76142C17.8854 8.69211 17.8747 8.62965 17.8785 8.56796C17.8854 8.42857 17.9417 8.30366 18.0118 8.1856C18.0842 8.0645 18.1603 7.94568 18.2342 7.82457C18.4779 7.42622 18.5754 7.10099 18.398 6.61505C18.484 6.70264 18.5732 6.78795 18.6562 6.87858C19.0675 7.32644 19.1985 7.85123 19.0842 8.4438C19.0393 8.67611 18.9936 8.90766 18.954 9.14149C18.8847 9.55126 18.9487 9.942 19.1513 10.3045C19.5961 11.1005 19.7553 11.9589 19.6722 12.8569C19.5016 14.7024 18.6539 16.1846 17.2052 17.3286C16.7855 17.6599 16.3186 17.9158 15.8228 18.1169C15.7992 18.1268 15.7748 18.136 15.7512 18.1466C15.7466 18.1481 15.7436 18.1527 15.7306 18.1649C16.1739 18.7133 16.7581 19.0279 17.4154 19.2465C17.2456 19.2785 17.0765 19.3165 16.9059 19.3424C16.2722 19.4384 15.64 19.4285 15.0124 19.2967C14.4427 19.1764 13.9141 18.9578 13.4335 18.625C13.3946 18.5983 13.3398 18.5815 13.2926 18.5815C12.4547 18.5793 11.6428 18.4482 10.8766 18.0979C9.795 17.6036 9.00896 16.8038 8.49255 15.7398C8.38287 15.512 8.24121 15.3186 8.06222 15.1449C7.90227 14.9895 7.74612 14.8296 7.59607 14.6643C7.52828 14.5904 7.47345 14.5051 7.43232 14.4137V14.4114C7.39271 14.3276 7.48792 14.2462 7.56485 14.2964C7.93502 14.5363 8.40115 14.7862 8.97164 14.9979C9.00439 15.0101 9.04095 14.9933 9.05314 14.9606L9.05162 14.9591Z" fill="#4A4A4A"/>
</g>
<path d="M12.6642 11.8111L12.1782 11.3168L11.7266 10.8568H11.7258C11.6931 10.891 10.8278 11.7913 10.827 11.7913C10.6595 11.9657 10.5833 12.2399 10.674 12.4661C10.6861 12.4981 10.7021 12.5286 10.7212 12.5575C10.7387 12.5842 10.7585 12.6093 10.7798 12.6322C10.7806 12.6329 10.7814 12.6337 10.7829 12.6352C10.9192 12.783 11.1332 12.8622 11.332 12.8493C11.5324 12.8363 11.7708 12.7122 11.8286 12.5057C11.8576 12.4029 11.8325 12.2948 11.7875 12.2011C11.7875 12.2011 11.7616 12.1287 11.6885 12.0701C11.6154 12.0107 11.4943 11.9665 11.3023 12.0251L11.2109 12.0564L10.9657 12.1394C10.9253 12.1516 10.8872 12.1257 10.8766 12.0914C10.8697 12.0731 10.8712 12.0533 10.8834 12.0343C10.9002 12.0069 11.003 11.9375 11.0533 11.9033C11.0533 11.9033 11.1058 11.8401 11.1515 11.7715C11.2231 11.6634 11.3305 11.5811 11.4585 11.5529C11.5544 11.5323 11.6771 11.5339 11.8233 11.5887C11.9071 11.6199 11.9985 11.6679 12.0983 11.7395C12.1166 11.7525 12.1379 11.7616 12.16 11.7631C12.1927 11.7654 12.2468 11.7753 12.2971 11.8126C12.3519 11.853 12.4022 11.9254 12.4151 12.0571C12.4151 12.0571 12.3184 11.9459 12.163 11.9551C12.16 11.9551 12.1577 11.9551 12.1546 11.9551C12.1546 11.9551 12.1607 11.9581 12.1714 11.965C12.208 11.9909 12.294 12.0731 12.2742 12.2643C12.2742 12.2643 12.2628 12.4601 12.0762 12.6421C12.0358 12.6825 12.032 12.7396 12.0556 12.7822C12.0724 12.8135 12.1028 12.8363 12.1432 12.8416H12.1455C12.3968 12.8736 12.6261 12.7198 12.7449 12.5057C12.8737 12.2734 12.8554 12.0061 12.6642 11.8119V11.8111ZM11.7289 11.0746L11.8941 11.2574L11.7327 11.4463L11.6862 11.3968L11.5605 11.2635L11.7258 11.0776L11.7289 11.0746Z" fill="#292929"/>
<path d="M12.1973 13.2034C12.1973 13.2278 12.1782 13.2476 12.1539 13.2476L11.5179 13.2545C11.4935 13.2545 11.4737 13.2354 11.4737 13.211C11.4737 13.1966 11.4813 13.1821 11.4935 13.1737C11.5148 13.16 11.5453 13.1661 11.5689 13.1577C11.591 13.1501 11.6108 13.1379 11.6283 13.1227C11.6649 13.0915 11.6908 13.0488 11.7136 13.0077C11.7243 12.9886 11.7334 12.9696 11.7441 12.9513C11.7784 12.8866 11.8104 12.8196 11.837 12.751C11.8736 12.8607 11.9239 12.962 11.9848 13.0602C12.0084 13.0991 12.0434 13.1311 12.0861 13.1471C12.1074 13.1555 12.1303 13.1593 12.1531 13.1608C12.176 13.1623 12.1958 13.1791 12.1958 13.2034H12.1973Z" fill="#292929"/>
<path d="M12.6162 11.7639L12.1775 11.3176L11.7258 10.8575L11.6786 10.8095C11.6786 10.8095 10.7798 11.7441 10.7791 11.7441C10.5963 11.9345 10.5216 12.2437 10.6549 12.4806C10.6602 12.4905 10.6664 12.5004 10.6732 12.5103C10.7029 12.5553 10.7387 12.5964 10.7806 12.6322C10.7814 12.6329 10.7821 12.6337 10.7836 12.6352C10.92 12.7518 11.1089 12.8135 11.2848 12.8013C11.4851 12.7883 11.7235 12.6642 11.7814 12.4578C11.8104 12.3549 11.7852 12.2468 11.7403 12.1531C11.7403 12.1531 11.7258 12.1135 11.69 12.0693C11.6352 12.0023 11.5285 11.9254 11.3419 11.9558C11.3153 11.9604 11.2863 11.9673 11.2559 11.9764L10.9192 12.0906C10.9048 12.0952 10.8903 12.0945 10.8781 12.0906C10.8362 12.0777 10.8095 12.0282 10.8362 11.9863C10.853 11.9596 10.9565 11.8896 11.006 11.8553C11.006 11.8553 11.0586 11.7921 11.1043 11.7235C11.1759 11.6154 11.2841 11.5331 11.4113 11.5049C11.5225 11.4813 11.6687 11.4866 11.8469 11.5704C11.9109 11.5994 11.9787 11.639 12.051 11.6908C12.0693 11.7045 12.0907 11.7129 12.1127 11.7144C12.1569 11.7174 12.2384 11.7342 12.2978 11.8111C12.3313 11.8545 12.3588 11.9177 12.3671 12.0076C12.3671 12.0076 12.2674 11.8926 12.1074 11.9056C12.1074 11.9056 12.1348 11.9177 12.1638 11.9528C12.1668 11.9558 12.1691 11.9596 12.1722 11.9634C12.2072 12.0099 12.2399 12.0884 12.227 12.2156C12.227 12.2156 12.2156 12.4113 12.029 12.5933C11.9695 12.6512 11.9894 12.7464 12.0564 12.7807C12.0678 12.7868 12.0808 12.7906 12.0952 12.7929H12.0975C12.3496 12.8249 12.5781 12.671 12.6969 12.457C12.8257 12.2247 12.8074 11.9573 12.6162 11.7631V11.7639ZM11.6847 11.3983L11.5125 11.2155L11.6809 11.0266L11.7266 11.0769L11.8469 11.2086L11.687 11.3952L11.6854 11.3968L11.6847 11.3983Z" fill="url(#paint5_radial_68_39371)"/>
<path d="M12.1485 13.1562C12.1485 13.1806 12.1295 13.2004 12.1051 13.2004L11.4691 13.2072C11.4448 13.2072 11.425 13.1882 11.425 13.1638C11.425 13.1494 11.4326 13.1349 11.4448 13.1265C11.4661 13.1128 11.4966 13.1189 11.5202 13.1105C11.5423 13.1029 11.5621 13.0907 11.5796 13.0755C11.6161 13.0442 11.642 13.0016 11.6649 12.9605C11.6755 12.9414 11.6847 12.9224 11.6954 12.9041C11.7296 12.8394 11.7616 12.7723 11.7883 12.7038C11.8248 12.8135 11.8751 12.9148 11.936 13.013C11.9596 13.0519 11.9947 13.0839 12.0373 13.0998C12.0587 13.1082 12.0815 13.112 12.1044 13.1136C12.1272 13.1151 12.147 13.1318 12.147 13.1562H12.1485Z" fill="url(#paint6_radial_68_39371)"/>
<g opacity="0.69">
<path d="M12.6162 11.7639L12.1775 11.3176L11.7258 10.8575L11.6786 10.8095C11.6786 10.8095 10.7798 11.7441 10.7791 11.7441C10.5963 11.9345 10.5216 12.2437 10.6549 12.4806C10.6602 12.4905 10.6664 12.5004 10.6732 12.5103C10.7029 12.5553 10.7387 12.5964 10.7806 12.6322C10.7814 12.6329 10.7821 12.6337 10.7836 12.6352C10.92 12.7518 11.1089 12.8135 11.2848 12.8013C11.4851 12.7883 11.7235 12.6642 11.7814 12.4578C11.8104 12.3549 11.7852 12.2468 11.7403 12.1531C11.7403 12.1531 11.7258 12.1135 11.69 12.0693C11.6352 12.0023 11.5285 11.9254 11.3419 11.9558C11.3153 11.9604 11.2863 11.9673 11.2559 11.9764L10.9192 12.0906C10.9048 12.0952 10.8903 12.0945 10.8781 12.0906C10.8362 12.0777 10.8095 12.0282 10.8362 11.9863C10.853 11.9596 10.9565 11.8896 11.006 11.8553C11.006 11.8553 11.0586 11.7921 11.1043 11.7235C11.1759 11.6154 11.2841 11.5331 11.4113 11.5049C11.5225 11.4813 11.6687 11.4866 11.8469 11.5704C11.9109 11.5994 11.9787 11.639 12.051 11.6908C12.0693 11.7045 12.0907 11.7129 12.1127 11.7144C12.1569 11.7174 12.2384 11.7342 12.2978 11.8111C12.3313 11.8545 12.3588 11.9177 12.3671 12.0076C12.3671 12.0076 12.2674 11.8926 12.1074 11.9056C12.1074 11.9056 12.1348 11.9177 12.1638 11.9528C12.1668 11.9558 12.1691 11.9596 12.1722 11.9634C12.2072 12.0099 12.2399 12.0884 12.227 12.2156C12.227 12.2156 12.2156 12.4113 12.029 12.5933C11.9695 12.6512 11.9894 12.7464 12.0564 12.7807C12.0678 12.7868 12.0808 12.7906 12.0952 12.7929H12.0975C12.3496 12.8249 12.5781 12.671 12.6969 12.457C12.8257 12.2247 12.8074 11.9573 12.6162 11.7631V11.7639ZM11.6847 11.3983L11.5125 11.2155L11.6809 11.0266L11.7266 11.0769L11.8469 11.2086L11.687 11.3952L11.6854 11.3968L11.6847 11.3983Z" fill="#4A4A4A"/>
<path d="M12.1485 13.1562C12.1485 13.1806 12.1295 13.2004 12.1051 13.2004L11.4691 13.2072C11.4448 13.2072 11.425 13.1882 11.425 13.1638C11.425 13.1494 11.4326 13.1349 11.4448 13.1265C11.4661 13.1128 11.4966 13.1189 11.5202 13.1105C11.5423 13.1029 11.5621 13.0907 11.5796 13.0755C11.6161 13.0442 11.642 13.0016 11.6649 12.9605C11.6755 12.9414 11.6847 12.9224 11.6954 12.9041C11.7296 12.8394 11.7616 12.7723 11.7883 12.7038C11.8248 12.8135 11.8751 12.9148 11.936 13.013C11.9596 13.0519 11.9947 13.0839 12.0373 13.0998C12.0587 13.1082 12.0815 13.112 12.1044 13.1136C12.1272 13.1151 12.147 13.1318 12.147 13.1562H12.1485Z" fill="#4A4A4A"/>
</g>
<path d="M19.4628 2.9385L19.3287 3.05503L19.1055 3.2485L18.9365 3.3955L10.4713 10.7318L10.3045 10.8766L6.85571 13.8653L6.69728 14.0032L2.35657 17.7658L2.14787 17.9471L1.92547 18.1398L1.82798 18.2243C0.982531 16.8975 0.396059 15.3886 0.142426 13.7693L0.175934 13.7404L0.429555 13.521L0.674065 13.307L8.41407 6.59067L8.46359 6.54802L9.82467 5.36516H9.8262L10.1537 5.07953H10.1545L11.38 4.01549L11.4379 3.96674L12.2772 3.23783L12.2803 3.23631L14.7534 1.08994L14.959 0.911715L15.1472 0.748718L15.3452 0.576584C16.8822 1.07928 18.2799 1.89121 19.4635 2.93926L19.4628 2.9385Z" fill="url(#paint7_linear_68_39371)"/>
<path d="M23.4074 11.3602L23.399 11.3678L22.923 11.7761L22.6975 11.9695L15.0603 18.5335L14.8806 18.6882L14.0953 19.3638L13.9559 19.4841L13.9026 19.529L13.6802 19.7195L13.0549 20.2572L12.8432 20.4392L10.2169 22.6968L9.9511 22.9238L9.60075 23.2254L9.37909 23.4166C8.32952 23.2048 7.33023 22.8529 6.40329 22.3807L6.57543 22.2329L6.84885 21.9984L7.07127 21.8064L9.57256 19.6562L9.74165 19.5108L10.5163 18.8458L10.6663 18.7156L11.2551 18.2106L11.4965 18.0042L12.5103 17.1328L12.7388 16.9363L17.0749 13.2095L17.222 13.0838H17.2235L19.0835 11.4836L19.2739 11.3191L22.2923 8.72561L22.4767 8.56795L22.8255 8.26709L22.8849 8.21606C23.1964 9.21308 23.377 10.268 23.4082 11.3594L23.4074 11.3602Z" fill="url(#paint8_linear_68_39371)"/>
<defs>
<linearGradient id="paint0_linear_68_39371" x1="7.89387" y1="23.0129" x2="15.5189" y2="0.869054" gradientUnits="userSpaceOnUse">
<stop stop-color="#A7A7A7"/>
<stop offset="0.51" stop-color="#BABABA"/>
<stop offset="1" stop-color="#D2D2D2"/>
</linearGradient>
<linearGradient id="paint1_linear_68_39371" x1="11.6984" y1="1.1326" x2="11.6984" y2="22.7966" gradientUnits="userSpaceOnUse">
<stop stop-color="#3B3B3B"/>
<stop offset="0.22" stop-color="#4F4F4F"/>
<stop offset="0.58" stop-color="#787878"/>
<stop offset="1" stop-color="#EAEAEA"/>
</linearGradient>
<linearGradient id="paint2_linear_68_39371" x1="8.27166" y1="21.977" x2="15.1723" y2="1.9369" gradientUnits="userSpaceOnUse">
<stop stop-color="#A7A7A7"/>
<stop offset="0.51" stop-color="#BABABA"/>
<stop offset="1" stop-color="#D2D2D2"/>
</linearGradient>
<radialGradient id="paint3_radial_68_39371" cx="0" cy="0" r="1" gradientUnits="userSpaceOnUse" gradientTransform="translate(9.53864 11.3724) rotate(19.77) scale(6.2205)">
<stop stop-color="white"/>
<stop offset="0.6" stop-color="#DDDDDD"/>
<stop offset="1" stop-color="#CCCCCC"/>
</radialGradient>
<radialGradient id="paint4_radial_68_39371" cx="0" cy="0" r="1" gradientUnits="userSpaceOnUse" gradientTransform="translate(14.1602 12.2144) rotate(19.77) scale(6.17404 6.17404)">
<stop stop-color="white"/>
<stop offset="0.6" stop-color="#DDDDDD"/>
<stop offset="1" stop-color="#CCCCCC"/>
</radialGradient>
<radialGradient id="paint5_radial_68_39371" cx="0" cy="0" r="1" gradientUnits="userSpaceOnUse" gradientTransform="translate(11.6832 11.8058) scale(1.04729 1.04729)">
<stop stop-color="white"/>
<stop offset="0.6" stop-color="#DDDDDD"/>
<stop offset="1" stop-color="#CCCCCC"/>
</radialGradient>
<radialGradient id="paint6_radial_68_39371" cx="0" cy="0" r="1" gradientUnits="userSpaceOnUse" gradientTransform="translate(11.7875 12.9551) scale(0.31152)">
<stop stop-color="white"/>
<stop offset="0.6" stop-color="#DDDDDD"/>
<stop offset="1" stop-color="#CCCCCC"/>
</radialGradient>
<linearGradient id="paint7_linear_68_39371" x1="-3.75272" y1="20.8795" x2="17.158" y2="1.55837" gradientUnits="userSpaceOnUse">
<stop stop-color="white" stop-opacity="0"/>
<stop offset="1" stop-color="white" stop-opacity="0.3"/>
</linearGradient>
<linearGradient id="paint8_linear_68_39371" x1="3.22411" y1="27.6636" x2="24.0998" y2="8.37524" gradientUnits="userSpaceOnUse">
<stop stop-color="white" stop-opacity="0"/>
<stop offset="1" stop-color="white" stop-opacity="0.3"/>
</linearGradient>
</defs>
</svg>
