<svg width="16" height="16" viewBox="0 0 16 16" fill="none" xmlns="http://www.w3.org/2000/svg">
<g clip-path="url(#clip0_74_24997)">
<g clip-path="url(#clip1_74_24997)">
<g clip-path="url(#clip2_74_24997)">
<path d="M8 16C10.1217 16 12.1566 15.1571 13.6569 13.6569C15.1571 12.1566 16 10.1217 16 8C16 5.87827 15.1571 3.84344 13.6569 2.34315C12.1566 0.842855 10.1217 0 8 0C5.87827 0 3.84344 0.842855 2.34315 2.34315C0.842855 3.84344 0 5.87827 0 8C0 10.1217 0.842855 12.1566 2.34315 13.6569C3.84344 15.1571 5.87827 16 8 16Z" fill="#CF9619"/>
<path d="M8 15.2C12.418 15.2 16 11.797 16 7.6C16 3.403 12.418 0 8 0C3.582 0 0 3.403 0 7.6C0 11.797 3.582 15.2 8 15.2Z" fill="#FFE063"/>
<g filter="url(#filter0_d_74_24997)">
<path d="M7.99961 14.0002C9.697 14.0002 11.3249 13.3259 12.5251 12.1257C13.7253 10.9254 14.3996 9.29758 14.3996 7.6002C14.3996 5.90281 13.7253 4.27495 12.5251 3.07471C11.3249 1.87448 9.697 1.2002 7.99961 1.2002C6.30222 1.2002 4.67436 1.87448 3.47413 3.07471C2.27389 4.27495 1.59961 5.90281 1.59961 7.6002C1.59961 9.29758 2.27389 10.9254 3.47413 12.1257C4.67436 13.3259 6.30222 14.0002 7.99961 14.0002Z" fill="#EBBD31"/>
</g>
<path fill-rule="evenodd" clip-rule="evenodd" d="M11.2001 5.23901C11.2001 4.11901 4.00012 4.49401 4.00012 4.49401L7.20812 5.23901L4.85712 11.6L7.21012 8.26201L7.95312 7.99001L10.3851 11.6L8.93512 7.31801C8.93512 7.31801 11.2011 6.35801 11.2011 5.23801L11.2001 5.23901ZM7.92812 6.65401L8.48412 5.36101C8.48412 5.36101 9.72812 5.36101 9.72812 5.68101C9.72812 6.00001 7.92812 6.65401 7.92812 6.65401Z" fill="#BD6D01"/>
</g>
</g>
</g>
<defs>
<filter id="filter0_d_74_24997" x="1.59961" y="1.2002" width="12.8" height="13.8" filterUnits="userSpaceOnUse" color-interpolation-filters="sRGB">
<feFlood flood-opacity="0" result="BackgroundImageFix"/>
<feColorMatrix in="SourceAlpha" type="matrix" values="0 0 0 0 0 0 0 0 0 0 0 0 0 0 0 0 0 0 127 0" result="hardAlpha"/>
<feOffset dy="1"/>
<feComposite in2="hardAlpha" operator="out"/>
<feColorMatrix type="matrix" values="0 0 0 0 0.811765 0 0 0 0 0.588235 0 0 0 0 0.0980392 0 0 0 1 0"/>
<feBlend mode="normal" in2="BackgroundImageFix" result="effect1_dropShadow_74_24997"/>
<feBlend mode="normal" in="SourceGraphic" in2="effect1_dropShadow_74_24997" result="shape"/>
</filter>
<clipPath id="clip0_74_24997">
<rect width="16" height="16" fill="white"/>
</clipPath>
<clipPath id="clip1_74_24997">
<rect width="16" height="16" fill="white"/>
</clipPath>
<clipPath id="clip2_74_24997">
<rect width="16" height="16" fill="white"/>
</clipPath>
</defs>
</svg>
