<svg width="71" height="72" viewBox="0 0 71 72" fill="none" xmlns="http://www.w3.org/2000/svg">
<g filter="url(#filter0_f_68_39862)">
<path d="M69.9062 35.1394C69.9062 35.2216 69.9062 35.3015 69.904 35.3837V35.5814C69.6663 54.2326 54.4735 69.281 35.7668 69.281C33.67 69.281 31.6199 69.09 29.6275 68.7302C26.5179 68.1682 23.5571 67.1798 20.805 65.836C15.2832 63.1395 10.5987 58.997 7.24031 53.9016C4.72817 50.0901 2.95791 45.7455 2.14051 41.0721C1.82955 39.2863 1.65185 37.4516 1.62963 35.5814V35.3837C1.62741 35.3015 1.62741 35.2216 1.62741 35.1394C1.62741 16.2861 16.9091 1 35.7646 1C39.4695 1 43.0345 1.59083 46.3773 2.68143C50.8597 4.1474 54.9355 6.51517 58.3872 9.5715C62.9917 13.6473 66.4878 18.9471 68.3647 24.962C69.2732 27.8695 69.7996 30.9458 69.8907 34.1288C69.9018 34.4642 69.9062 34.8018 69.9062 35.1394Z" fill="#787878"/>
<path d="M69.904 36.8497C69.904 55.7052 54.6201 70.9891 35.7646 70.9891C16.9091 70.9891 1.62741 55.7052 1.62741 36.8497C1.62741 17.9942 16.9113 2.7103 35.7646 2.7103C54.6179 2.7103 69.904 17.9964 69.904 36.8497Z" fill="#474747"/>
<path d="M69.9062 35.8235C69.9062 54.6768 54.6223 69.9607 35.7668 69.9607C33.4435 69.9607 31.1734 69.7275 28.9811 69.2855C25.9203 68.668 23.0062 67.6418 20.303 66.2647C14.8456 63.486 10.23 59.2835 6.95822 54.146C4.49272 50.2767 2.78245 45.8766 2.0428 41.1543C1.76737 39.4174 1.62741 37.636 1.62741 35.8235C1.62741 35.7413 1.62741 35.6614 1.62963 35.5792V35.3815C1.8673 16.7281 17.0579 1.68192 35.7646 1.68192C39.2585 1.68192 42.628 2.20611 45.7999 3.18121C50.3422 4.5761 54.478 6.89278 57.9941 9.91135C62.6519 13.9117 66.2213 19.147 68.1892 25.1086C69.1354 27.9739 69.713 31.0058 69.8662 34.1488C69.884 34.5575 69.8995 34.9684 69.904 35.3815V35.5792C69.9062 35.6614 69.9062 35.7413 69.9062 35.8235Z" fill="url(#paint0_linear_68_39862)"/>
<path d="M67.3297 35.8924C67.3297 53.3352 53.1875 67.4797 35.7424 67.4797C18.2973 67.4797 4.15513 53.3375 4.15513 35.8924C4.15513 18.4473 18.2973 4.30289 35.7424 4.30289C53.1875 4.30289 67.3297 18.4451 67.3297 35.8924Z" fill="url(#paint1_linear_68_39862)"/>
<path d="M66.7077 35.8679C66.7077 52.9354 52.8742 66.7644 35.8112 66.7644C18.7482 66.7644 4.91475 52.9332 4.91475 35.8679C4.91475 18.8027 18.7482 4.97366 35.8112 4.97366C52.8742 4.97366 66.7077 18.8049 66.7077 35.8679Z" fill="url(#paint2_linear_68_39862)"/>
<path d="M36.9708 7.54351C36.9708 8.04328 36.5665 8.44753 36.0667 8.44753C35.567 8.44753 35.1627 8.04328 35.1627 7.54351C35.1627 7.04375 35.567 6.6395 36.0667 6.6395C36.5665 6.6395 36.9708 7.04375 36.9708 7.54351Z" fill="#474747"/>
<path d="M37.0618 7.31249C37.0618 7.81225 36.6575 8.21651 36.1578 8.21651C35.658 8.21651 35.2537 7.81225 35.2537 7.31249C35.2537 6.81273 35.658 6.40848 36.1578 6.40848C36.6575 6.40848 37.0618 6.81273 37.0618 7.31249Z" fill="#E6E7E8"/>
<path d="M37.0174 7.42801C37.0174 7.92777 36.6131 8.33202 36.1134 8.33202C35.6136 8.33202 35.2093 7.92777 35.2093 7.42801C35.2093 6.92824 35.6136 6.52399 36.1134 6.52399C36.6131 6.52399 37.0174 6.92824 37.0174 7.42801Z" fill="#898989"/>
<path d="M32.504 7.70568C32.5817 8.19878 32.2464 8.663 31.7533 8.74074C31.2602 8.81848 30.7959 8.48309 30.7182 7.98999C30.6404 7.49689 30.9758 7.03266 31.4689 6.95492C31.962 6.87718 32.4263 7.21258 32.504 7.70568Z" fill="#474747"/>
<path d="M32.5595 7.46358C32.6373 7.95668 32.3019 8.42091 31.8088 8.49865C31.3157 8.57639 30.8514 8.24099 30.7737 7.74789C30.696 7.25479 31.0314 6.79056 31.5245 6.71282C32.0176 6.63508 32.4818 6.97048 32.5595 7.46358Z" fill="#E6E7E8"/>
<path d="M32.5328 7.58351C32.6106 8.07661 32.2752 8.54083 31.7821 8.61857C31.289 8.69632 30.8248 8.36092 30.7471 7.86782C30.6693 7.37472 31.0047 6.9105 31.4978 6.83276C31.9909 6.75502 32.4551 7.09041 32.5328 7.58351Z" fill="#898989"/>
<path d="M28.1193 8.56532C28.2748 9.04065 28.0127 9.55152 27.5396 9.70478C27.0643 9.86026 26.5534 9.59816 26.4002 9.12505C26.2447 8.64972 26.5067 8.13885 26.9798 7.98559C27.4552 7.83011 27.9639 8.09221 28.1193 8.56532Z" fill="#474747"/>
<path d="M28.1371 8.31432C28.2904 8.78965 28.0305 9.30052 27.5574 9.45378C27.082 9.60704 26.5712 9.34716 26.4179 8.87405C26.2625 8.39872 26.5245 7.88785 26.9976 7.73459C27.473 7.58133 27.9839 7.84121 28.1371 8.31432Z" fill="#E6E7E8"/>
<path d="M28.1282 8.44091C28.2837 8.91624 28.0216 9.42711 27.5485 9.58037C27.0732 9.73363 26.5645 9.47375 26.4091 9.00064C26.2558 8.52531 26.5134 8.01666 26.9888 7.86118C27.4641 7.70792 27.975 7.9678 28.1282 8.44091Z" fill="#898989"/>
<path d="M23.9236 10.0979C24.1501 10.5421 23.9724 11.0885 23.5282 11.3151C23.0839 11.5416 22.5375 11.3639 22.3132 10.9197C22.0866 10.4755 22.2643 9.93128 22.7085 9.7025C23.1528 9.47594 23.6992 9.65364 23.9257 10.0979H23.9236Z" fill="#474747"/>
<path d="M23.9014 9.84912C24.1279 10.2934 23.9502 10.8398 23.506 11.0663C23.0618 11.2929 22.5154 11.1152 22.2888 10.671C22.0622 10.2267 22.2399 9.68254 22.6842 9.45376C23.1284 9.2272 23.6748 9.40489 23.9014 9.84912Z" fill="#E6E7E8"/>
<path d="M23.9125 9.97348C24.139 10.4177 23.9613 10.9641 23.5171 11.1907C23.0729 11.4172 22.5265 11.2396 22.2999 10.7953C22.0733 10.3511 22.251 9.8069 22.6953 9.57811C23.1395 9.35156 23.6859 9.52925 23.9125 9.97348Z" fill="#898989"/>
<path d="M20.0165 12.2702C20.3097 12.6745 20.2208 13.2409 19.8166 13.5341C19.4123 13.8273 18.8459 13.7384 18.5527 13.3342C18.2595 12.9299 18.3484 12.3657 18.7527 12.0703C19.1569 11.7771 19.7211 11.866 20.0165 12.2702Z" fill="#474747"/>
<path d="M19.9565 12.0281C20.2497 12.4323 20.1609 12.9965 19.7567 13.2919C19.3524 13.5851 18.786 13.4963 18.4928 13.092C18.1996 12.6878 18.2885 12.1214 18.6927 11.8282C19.097 11.535 19.6634 11.6238 19.9565 12.0281Z" fill="#E6E7E8"/>
<path d="M19.9876 12.1481C20.2808 12.5523 20.192 13.1187 19.7877 13.4119C19.3835 13.7051 18.8171 13.6162 18.5239 13.212C18.2307 12.8077 18.3195 12.2436 18.7238 11.9481C19.1281 11.655 19.6922 11.7438 19.9876 12.1481Z" fill="#898989"/>
<path d="M16.5004 15.0245C16.8536 15.3776 16.8536 15.9507 16.5004 16.3039C16.1472 16.657 15.5742 16.657 15.221 16.3039C14.8678 15.9507 14.8678 15.3776 15.221 15.0245C15.5742 14.6713 16.1472 14.6713 16.5004 15.0245Z" fill="#474747"/>
<path d="M16.4027 14.7957C16.7559 15.1488 16.7559 15.7219 16.4027 16.0751C16.0495 16.4282 15.4765 16.4282 15.1233 16.0751C14.7701 15.7219 14.7701 15.1488 15.1233 14.7957C15.4765 14.4425 16.0495 14.4425 16.4027 14.7957Z" fill="#E6E7E8"/>
<path d="M16.4515 14.9112C16.8047 15.2643 16.8047 15.8374 16.4515 16.1906C16.0984 16.5437 15.5253 16.5437 15.1721 16.1906C14.819 15.8374 14.819 15.2643 15.1721 14.9112C15.5253 14.558 16.0984 14.558 16.4515 14.9112Z" fill="#898989"/>
<path d="M13.4574 18.2962C13.8617 18.5894 13.9505 19.1558 13.6573 19.56C13.3641 19.9643 12.7977 20.0531 12.3935 19.7599C11.9892 19.4668 11.9004 18.9004 12.1936 18.4961C12.4868 18.0918 13.0531 18.003 13.4574 18.2962Z" fill="#474747"/>
<path d="M13.3241 18.0852C13.7284 18.3784 13.8172 18.9448 13.524 19.3491C13.2308 19.7533 12.6645 19.8421 12.2602 19.5489C11.856 19.2558 11.7671 18.6894 12.0603 18.2851C12.3535 17.8808 12.9199 17.792 13.3241 18.0852Z" fill="#E6E7E8"/>
<path d="M13.3908 18.1918C13.795 18.485 13.8839 19.0514 13.5907 19.4556C13.2975 19.8599 12.7311 19.9487 12.3268 19.6556C11.9226 19.3624 11.8337 18.796 12.1269 18.3917C12.4201 17.9875 12.9865 17.8986 13.3908 18.1918Z" fill="#898989"/>
<path d="M10.9631 22.0033C11.4073 22.2299 11.585 22.7741 11.3584 23.2205C11.1319 23.6648 10.5877 23.8424 10.1412 23.6159C9.69701 23.3893 9.51931 22.8451 9.74587 22.3987C9.97243 21.9545 10.5166 21.7768 10.9631 22.0033Z" fill="#474747"/>
<path d="M10.7987 21.8168C11.2429 22.0433 11.4206 22.5875 11.1941 23.034C10.9675 23.4782 10.4233 23.6559 9.97686 23.4293C9.53263 23.2028 9.35493 22.6586 9.58149 22.2121C9.80805 21.7679 10.3522 21.5902 10.7987 21.8168Z" fill="#E6E7E8"/>
<path d="M10.8809 21.91C11.3251 22.1366 11.5028 22.6808 11.2762 23.1272C11.0497 23.5715 10.5055 23.7492 10.059 23.5226C9.6148 23.296 9.4371 22.7519 9.66366 22.3054C9.89022 21.8612 10.4344 21.6835 10.8809 21.91Z" fill="#898989"/>
<path d="M9.07949 26.057C9.55482 26.2102 9.81467 26.7211 9.65919 27.1964C9.50371 27.6718 8.99509 27.9316 8.51975 27.7762C8.04442 27.6229 7.78452 27.112 7.94001 26.6367C8.09327 26.1614 8.60416 25.9015 9.07949 26.057Z" fill="#474747"/>
<path d="M8.88843 25.897C9.36377 26.0503 9.62367 26.5612 9.46818 27.0365C9.3127 27.5118 8.80403 27.7717 8.3287 27.6162C7.85336 27.4608 7.59352 26.9521 7.749 26.4768C7.90448 26.0014 8.4131 25.7416 8.88843 25.897Z" fill="#E6E7E8"/>
<path d="M8.98402 25.977C9.45935 26.1303 9.7192 26.6411 9.56371 27.1165C9.40823 27.5918 8.89961 27.8517 8.42428 27.6962C7.94895 27.5407 7.68905 27.0321 7.84231 26.5567C7.99557 26.0814 8.50646 25.8215 8.9818 25.977H8.98402Z" fill="#898989"/>
<path d="M7.85343 30.3527C8.34653 30.4304 8.68412 30.8947 8.60416 31.3878C8.52642 31.8809 8.06222 32.2163 7.56912 32.1385C7.07602 32.0608 6.73842 31.5966 6.81839 31.1035C6.89613 30.6104 7.36033 30.2727 7.85343 30.3527Z" fill="#474747"/>
<path d="M7.64018 30.2261C8.13328 30.3039 8.47087 30.7681 8.39091 31.2612C8.31316 31.7543 7.84896 32.0919 7.35586 32.0142C6.86276 31.9364 6.52511 31.4722 6.60508 30.9791C6.68282 30.486 7.14708 30.1484 7.64018 30.2283V30.2261Z" fill="#E6E7E8"/>
<path d="M7.74683 30.2883C8.23993 30.366 8.57752 30.8303 8.49756 31.3234C8.41982 31.8165 7.95561 32.1541 7.46251 32.0741C6.96941 31.9964 6.63182 31.5322 6.70956 31.0391C6.7873 30.546 7.2515 30.2083 7.7446 30.2883H7.74683Z" fill="#898989"/>
<path d="M7.31591 34.7884C7.81568 34.7884 8.21989 35.1927 8.21989 35.6924C8.21989 36.1922 7.81568 36.5964 7.31591 36.5964C6.81615 36.5964 6.41188 36.1922 6.41188 35.6924C6.41188 35.1927 6.81615 34.7884 7.31591 34.7884Z" fill="#474747"/>
<path d="M7.08265 34.6974C7.58241 34.6974 7.98668 35.1016 7.98668 35.6014C7.98668 36.1011 7.58241 36.5054 7.08265 36.5054C6.58289 36.5054 6.17862 36.1011 6.17862 35.6014C6.17862 35.1016 6.58289 34.6974 7.08265 34.6974Z" fill="#E6E7E8"/>
<path d="M7.19818 34.7418C7.69795 34.7418 8.10216 35.146 8.10216 35.6458C8.10216 36.1455 7.69795 36.5498 7.19818 36.5498C6.69842 36.5498 6.29415 36.1455 6.29415 35.6458C6.29415 35.146 6.69842 34.7418 7.19818 34.7418Z" fill="#898989"/>
<path d="M7.4758 39.253C7.9689 39.1752 8.4331 39.5106 8.51084 40.006C8.58858 40.4991 8.25321 40.9633 7.76011 41.041C7.26701 41.1188 6.80275 40.7834 6.72501 40.2903C6.64727 39.7972 6.9827 39.3329 7.4758 39.2552V39.253Z" fill="#474747"/>
<path d="M7.2337 39.1997C7.7268 39.1219 8.191 39.4573 8.26874 39.9504C8.34648 40.4435 8.01111 40.9077 7.51801 40.9855C7.02491 41.0632 6.56071 40.7278 6.48297 40.2347C6.40523 39.7416 6.7406 39.2774 7.2337 39.1997Z" fill="#E6E7E8"/>
<path d="M7.35584 39.2263C7.84894 39.1486 8.31315 39.484 8.39089 39.9771C8.46863 40.4702 8.13326 40.9344 7.64016 41.0122C7.14706 41.0899 6.6828 40.7545 6.60506 40.2614C6.52732 39.7683 6.86274 39.3041 7.35584 39.2263Z" fill="#898989"/>
<path d="M8.33536 43.6398C8.81069 43.4865 9.31937 43.7464 9.47485 44.2195C9.62811 44.6948 9.36821 45.2035 8.8951 45.359C8.41977 45.5122 7.90893 45.2523 7.75567 44.7792C7.60018 44.3039 7.86225 43.7953 8.33536 43.6398Z" fill="#474747"/>
<path d="M8.0866 43.622C8.56193 43.4665 9.07277 43.7264 9.22603 44.2017C9.37929 44.677 9.11945 45.1879 8.64411 45.3412C8.16878 45.4967 7.66011 45.2368 7.50463 44.7615C7.35137 44.2861 7.61127 43.7753 8.08438 43.622H8.0866Z" fill="#E6E7E8"/>
<path d="M8.21093 43.6309C8.68627 43.4777 9.19716 43.7353 9.35042 44.2106C9.50591 44.686 9.246 45.1968 8.77067 45.3501C8.29534 45.5034 7.7845 45.2435 7.63124 44.7704C7.47798 44.295 7.73783 43.7842 8.21093 43.6309Z" fill="#898989"/>
<path d="M9.86802 47.8355C10.3123 47.609 10.8564 47.7867 11.0852 48.2309C11.3118 48.6751 11.1341 49.2193 10.6898 49.4481C10.2456 49.6747 9.70143 49.497 9.47487 49.0527C9.24831 48.6085 9.42601 48.0643 9.87024 47.8355H9.86802Z" fill="#474747"/>
<path d="M9.61922 47.86C10.0635 47.6334 10.6076 47.8089 10.8364 48.2554C11.063 48.6996 10.8853 49.246 10.441 49.4726C9.99681 49.6991 9.45263 49.5214 9.22385 49.0772C8.99729 48.633 9.17499 48.0865 9.61922 47.86Z" fill="#E6E7E8"/>
<path d="M9.74362 47.8467C10.1879 47.6201 10.7343 47.7956 10.9608 48.242C11.1874 48.6862 11.0119 49.2304 10.5654 49.457C10.1212 49.6836 9.5748 49.5059 9.34825 49.0616C9.12169 48.6174 9.29939 48.071 9.74362 47.8467Z" fill="#898989"/>
<path d="M12.0403 51.7404C12.4446 51.4472 13.0087 51.536 13.3042 51.9403C13.5973 52.3445 13.5085 52.9087 13.1042 53.2041C12.7 53.4973 12.1336 53.4085 11.8404 53.0042C11.5472 52.6 11.6361 52.0358 12.0403 51.7404Z" fill="#474747"/>
<path d="M11.7982 51.8026C12.2024 51.5094 12.7688 51.5982 13.062 52.0025C13.3552 52.4067 13.2664 52.9731 12.8621 53.2663C12.4579 53.5595 11.8937 53.4707 11.5983 53.0664C11.3051 52.6622 11.3939 52.0958 11.7982 51.8026Z" fill="#E6E7E8"/>
<path d="M11.9181 51.7715C12.3224 51.4783 12.8888 51.5671 13.182 51.9714C13.4752 52.3756 13.3863 52.9398 12.9821 53.233C12.5778 53.5262 12.0114 53.4374 11.7182 53.0331C11.425 52.6288 11.5139 52.0647 11.9181 51.7693V51.7715Z" fill="#898989"/>
<path d="M14.7946 55.2587C15.1478 54.9055 15.7208 54.9055 16.074 55.2587C16.4271 55.6119 16.4271 56.1849 16.074 56.5381C15.7208 56.8913 15.1478 56.8913 14.7946 56.5381C14.4414 56.1849 14.4414 55.6119 14.7946 55.2587Z" fill="#474747"/>
<path d="M14.5658 55.3587C14.919 55.0055 15.492 55.0055 15.8452 55.3587C16.1984 55.7118 16.1984 56.2849 15.8452 56.6381C15.492 56.9912 14.919 56.9912 14.5658 56.6381C14.2126 56.2849 14.2126 55.7118 14.5658 55.3587Z" fill="#E6E7E8"/>
<path d="M14.6813 55.3076C15.0345 54.9544 15.6075 54.9544 15.9607 55.3076C16.3139 55.6607 16.3139 56.2316 15.9607 56.5847C15.6075 56.9379 15.0345 56.9379 14.6813 56.5847C14.3281 56.2316 14.3281 55.6585 14.6813 55.3054V55.3076Z" fill="#898989"/>
<path d="M18.0663 58.3017C18.3595 57.8975 18.9259 57.8086 19.3302 58.1018C19.7344 58.395 19.8233 58.9614 19.5301 59.3656C19.2369 59.7699 18.6705 59.8588 18.2662 59.5656C17.862 59.2724 17.7731 58.706 18.0663 58.3017Z" fill="#474747"/>
<path d="M17.8553 58.435C18.1485 58.0307 18.7149 57.9419 19.1192 58.2351C19.5234 58.5283 19.6123 59.0947 19.3191 59.4989C19.0259 59.9032 18.4595 59.992 18.0552 59.6988C17.651 59.4056 17.5621 58.8392 17.8553 58.435Z" fill="#E6E7E8"/>
<path d="M17.962 58.3683C18.2551 57.9641 18.8215 57.8752 19.2258 58.1684C19.63 58.4616 19.7189 59.028 19.4257 59.43C19.1325 59.8343 18.5661 59.9231 18.1618 59.63C17.7576 59.3368 17.6688 58.7704 17.962 58.3661V58.3683Z" fill="#898989"/>
<path d="M21.7757 60.7961C22.0022 60.3519 22.5464 60.1742 22.9929 60.4008C23.4371 60.6273 23.6148 61.1715 23.3882 61.618C23.1617 62.0622 22.6175 62.2399 22.171 62.0133C21.7268 61.7868 21.5491 61.2426 21.7757 60.7984V60.7961Z" fill="#474747"/>
<path d="M21.5869 60.9605C21.8134 60.5163 22.3576 60.3386 22.8041 60.5651C23.2483 60.7917 23.426 61.3359 23.1994 61.7823C22.9729 62.2266 22.4286 62.4043 21.9822 62.1777C21.5379 61.9512 21.3603 61.407 21.5869 60.9605Z" fill="#E6E7E8"/>
<path d="M21.6802 60.8783C21.9067 60.4341 22.4509 60.2564 22.8974 60.483C23.3416 60.7095 23.5193 61.2537 23.2927 61.7002C23.0662 62.1444 22.522 62.3221 22.0755 62.0955C21.6313 61.869 21.4536 61.3248 21.6802 60.8805V60.8783Z" fill="#898989"/>
<path d="M25.8271 62.6797C25.9825 62.2044 26.4912 61.9445 26.9665 62.1C27.4419 62.2532 27.7017 62.7641 27.5462 63.2394C27.393 63.7148 26.8821 63.9746 26.4068 63.8191C25.9315 63.6659 25.6716 63.155 25.8271 62.6797Z" fill="#474747"/>
<path d="M25.6671 62.8707C25.8204 62.3954 26.3313 62.1355 26.8066 62.291C27.282 62.4465 27.5418 62.9551 27.3863 63.4304C27.2308 63.9058 26.7222 64.1656 26.2469 64.0102C25.7716 63.8547 25.5117 63.3438 25.6671 62.8707Z" fill="#E6E7E8"/>
<path d="M25.7471 62.7752C25.9004 62.2999 26.4112 62.04 26.8866 62.1955C27.3619 62.351 27.6218 62.8596 27.4663 63.3349C27.3108 63.8103 26.8022 64.0701 26.3268 63.9147C25.8515 63.7614 25.5916 63.2505 25.7471 62.7752Z" fill="#898989"/>
<path d="M30.1229 63.9058C30.2006 63.4127 30.6648 63.0773 31.1579 63.155C31.651 63.2328 31.9887 63.697 31.9087 64.1901C31.831 64.6832 31.3667 65.0186 30.8736 64.9409C30.3805 64.8631 30.0429 64.3989 30.1229 63.9058Z" fill="#474747"/>
<path d="M29.9963 64.119C30.074 63.6259 30.5383 63.2883 31.0314 63.366C31.5245 63.4438 31.8621 63.908 31.7821 64.4011C31.7043 64.8942 31.2401 65.2318 30.747 65.1518C30.2539 65.0741 29.9163 64.6099 29.9963 64.1168V64.119Z" fill="#E6E7E8"/>
<path d="M30.0607 64.0124C30.1384 63.5193 30.6026 63.1817 31.0957 63.2616C31.5888 63.3394 31.9243 63.8036 31.8465 64.2967C31.7688 64.7898 31.3045 65.1274 30.8114 65.0475C30.3183 64.9697 29.983 64.5055 30.0607 64.0124Z" fill="#898989"/>
<path d="M34.5585 64.4432C34.5585 63.9435 34.965 63.5392 35.4626 63.5392C35.9623 63.5392 36.3665 63.9435 36.3665 64.4432C36.3665 64.943 35.9623 65.3473 35.4626 65.3473C34.9628 65.3473 34.5585 64.943 34.5585 64.4432Z" fill="#474747"/>
<path d="M34.4675 64.6765C34.4675 64.1767 34.8717 63.7725 35.3715 63.7725C35.8712 63.7725 36.2755 64.1767 36.2755 64.6765C36.2755 65.1762 35.869 65.5805 35.3715 65.5805C34.8717 65.5805 34.4675 65.174 34.4675 64.6765Z" fill="#E6E7E8"/>
<path d="M34.5141 64.5587C34.5141 64.059 34.9184 63.6547 35.4181 63.6547C35.9179 63.6547 36.3221 64.059 36.3221 64.5587C36.3221 65.0585 35.9179 65.4628 35.4181 65.4628C34.9184 65.4628 34.5141 65.0585 34.5141 64.5587Z" fill="#898989"/>
<path d="M39.0253 64.2811C38.9476 63.788 39.2852 63.326 39.7783 63.2461C40.2714 63.1683 40.7356 63.5037 40.8133 63.9991C40.8911 64.4922 40.5557 64.9564 40.0626 65.0341C39.5695 65.1119 39.1053 64.7765 39.0276 64.2834L39.0253 64.2811Z" fill="#474747"/>
<path d="M38.9698 64.5255C38.8921 64.0324 39.2275 63.5682 39.7206 63.4904C40.2137 63.4127 40.6779 63.7481 40.7556 64.2434C40.8333 64.7365 40.4957 65.2007 40.0049 65.2784C39.5118 65.3562 39.0476 65.0186 38.9698 64.5277V64.5255Z" fill="#E6E7E8"/>
<path d="M38.9964 64.4033C38.9187 63.9102 39.2541 63.446 39.7472 63.3682C40.2403 63.2905 40.7045 63.6259 40.7823 64.119C40.86 64.6121 40.5246 65.0763 40.0315 65.1541C39.5384 65.2318 39.0742 64.8964 38.9964 64.4011V64.4033Z" fill="#898989"/>
<path d="M43.4099 63.4238C43.2567 62.9485 43.5165 62.4398 43.9919 62.2843C44.4672 62.1311 44.9781 62.391 45.1314 62.8641C45.2868 63.3394 45.0269 63.848 44.5494 64.0035C44.074 64.1568 43.5632 63.8969 43.4099 63.4238Z" fill="#474747"/>
<path d="M43.3944 63.6748C43.2389 63.1995 43.501 62.6886 43.9741 62.5353C44.4494 62.3798 44.9603 62.6397 45.1136 63.115C45.2668 63.5904 45.0069 64.1012 44.5316 64.2545C44.0563 64.41 43.5454 64.1479 43.3922 63.6748H43.3944Z" fill="#E6E7E8"/>
<path d="M43.4011 63.5482C43.2478 63.0728 43.5054 62.562 43.9808 62.4087C44.4561 62.2555 44.9648 62.5131 45.1202 62.9884C45.2735 63.4638 45.0136 63.9746 44.5405 64.1279C44.0652 64.2834 43.5565 64.0213 43.4011 63.5482Z" fill="#898989"/>
<path d="M47.6057 61.8911C47.3791 61.4469 47.5568 60.9005 48.0011 60.6739C48.4453 60.4474 48.9917 60.6251 49.2183 61.0693C49.4448 61.5158 49.2671 62.06 48.8229 62.2865C48.3787 62.5131 47.8345 62.3354 47.6057 61.8911Z" fill="#474747"/>
<path d="M47.6301 62.1399C47.4036 61.6957 47.579 61.1493 48.0255 60.9227C48.4697 60.6962 49.0162 60.8716 49.2427 61.3181C49.4693 61.7623 49.2916 62.3065 48.8473 62.5353C48.4031 62.7619 47.8567 62.5842 47.6301 62.1399Z" fill="#E6E7E8"/>
<path d="M47.619 62.0155C47.3925 61.5713 47.5702 61.0249 48.0144 60.8006C48.4587 60.574 49.0028 60.7495 49.2294 61.1959C49.4559 61.6402 49.2782 62.1866 48.834 62.4131C48.3898 62.6397 47.8456 62.462 47.6168 62.0178L47.619 62.0155Z" fill="#898989"/>
<path d="M51.5127 59.7188C51.2195 59.3146 51.3106 58.7482 51.7126 58.455C52.1169 58.1618 52.681 58.2506 52.9764 58.6549C53.2696 59.0591 53.1808 59.6233 52.7766 59.9187C52.3723 60.2119 51.8081 60.1231 51.5127 59.7188Z" fill="#474747"/>
<path d="M51.5727 59.9609C51.2795 59.5567 51.3683 58.9903 51.7726 58.6971C52.1769 58.4039 52.7432 58.4927 53.0364 58.897C53.3296 59.3012 53.2408 59.8676 52.8366 60.1608C52.4323 60.454 51.8659 60.363 51.5727 59.9609Z" fill="#E6E7E8"/>
<path d="M51.5438 59.8388C51.2506 59.4345 51.3395 58.8703 51.7437 58.5749C52.148 58.2817 52.7121 58.3706 53.0053 58.7748C53.2985 59.1791 53.2097 59.7455 52.8054 60.0387C52.4012 60.3319 51.8348 60.243 51.5416 59.8388H51.5438Z" fill="#898989"/>
<path d="M55.0288 56.9624C54.6757 56.6092 54.6757 56.0361 55.0288 55.683C55.382 55.3298 55.9551 55.3298 56.3082 55.683C56.6614 56.0361 56.6614 56.6092 56.3082 56.9624C55.9551 57.3155 55.382 57.3155 55.0288 56.9624Z" fill="#474747"/>
<path d="M55.1288 57.1934C54.7757 56.8402 54.7757 56.2672 55.1288 55.914C55.482 55.5608 56.0551 55.5608 56.4082 55.914C56.7614 56.2672 56.7614 56.8402 56.4082 57.1934C56.0551 57.5466 55.482 57.5466 55.1288 57.1934Z" fill="#E6E7E8"/>
<path d="M55.0799 57.0779C54.7268 56.7247 54.7268 56.1517 55.0799 55.7985C55.4331 55.4453 56.0061 55.4453 56.3593 55.7985C56.7125 56.1517 56.7125 56.7247 56.3593 57.0779C56.0061 57.4311 55.4331 57.4311 55.0799 57.0779Z" fill="#898989"/>
<path d="M58.0719 53.6906C57.6676 53.3974 57.5787 52.831 57.8719 52.4267C58.1651 52.0225 58.7315 51.9336 59.1358 52.2268C59.54 52.52 59.6289 53.0864 59.3357 53.4906C59.0425 53.8949 58.4761 53.9838 58.0719 53.6906Z" fill="#474747"/>
<path d="M58.2073 53.9038C57.8031 53.6106 57.7143 53.0442 58.0074 52.6399C58.3006 52.2357 58.867 52.1468 59.2713 52.44C59.6755 52.7332 59.7644 53.2996 59.4712 53.7039C59.178 54.1081 58.6116 54.197 58.2073 53.9038Z" fill="#E6E7E8"/>
<path d="M58.1385 53.7971C57.7342 53.504 57.6454 52.9376 57.9386 52.5333C58.2318 52.129 58.7959 52.0402 59.2002 52.3334C59.6044 52.6266 59.6933 53.193 59.4001 53.5972C59.1069 54.0015 58.5405 54.0903 58.1362 53.7971H58.1385Z" fill="#898989"/>
<path d="M60.5663 49.9834C60.122 49.7569 59.9443 49.2127 60.1709 48.7685C60.3974 48.3242 60.9416 48.1465 61.3881 48.3731C61.8323 48.5997 62.01 49.1438 61.7835 49.5903C61.5569 50.0345 61.0127 50.2122 60.5685 49.9857L60.5663 49.9834Z" fill="#474747"/>
<path d="M60.7306 50.1723C60.2841 49.9457 60.1087 49.4015 60.3352 48.9551C60.5618 48.5108 61.106 48.3332 61.5524 48.5597C61.9966 48.7863 62.1743 49.3305 61.9478 49.7769C61.7212 50.2211 61.177 50.3988 60.7306 50.1723Z" fill="#E6E7E8"/>
<path d="M60.6484 50.079C60.2042 49.8524 60.0265 49.3082 60.253 48.8618C60.4796 48.4176 61.0238 48.2399 61.468 48.4664C61.9122 48.693 62.0899 49.2394 61.8634 49.6836C61.6368 50.1279 61.0926 50.3056 60.6462 50.079H60.6484Z" fill="#898989"/>
<path d="M62.4498 45.932C61.9744 45.7788 61.7145 45.2679 61.87 44.7926C62.0255 44.3172 62.5342 44.0574 63.0095 44.2128C63.4848 44.3661 63.7447 44.877 63.5892 45.3523C63.4359 45.8276 62.9251 46.0875 62.4498 45.932Z" fill="#474747"/>
<path d="M62.643 46.0919C62.1677 45.9364 61.9078 45.4278 62.0633 44.9524C62.2166 44.4771 62.7274 44.2172 63.2028 44.3727C63.6781 44.5282 63.938 45.0369 63.7825 45.5122C63.627 45.9875 63.1183 46.2474 62.643 46.0941V46.0919Z" fill="#E6E7E8"/>
<path d="M62.5453 46.012C62.0722 45.8565 61.8101 45.3478 61.9656 44.8725C62.1188 44.3972 62.6297 44.1373 63.105 44.2928C63.5804 44.4483 63.8402 44.9569 63.6847 45.4322C63.5315 45.9076 63.0206 46.1674 62.5453 46.012Z" fill="#898989"/>
<path d="M63.6759 41.6363C63.1828 41.5585 62.8474 41.0943 62.9251 40.6012C63.0029 40.1081 63.4671 39.7727 63.9602 39.8505C64.4533 39.9282 64.7887 40.3924 64.7109 40.8855C64.6332 41.3786 64.169 41.714 63.6759 41.6363Z" fill="#474747"/>
<path d="M63.8913 41.7629C63.3982 41.6851 63.0606 41.2209 63.1405 40.7278C63.2183 40.2347 63.6825 39.8971 64.1756 39.9771C64.6687 40.0548 65.0063 40.519 64.9286 41.0121C64.8508 41.5052 64.3866 41.8428 63.8935 41.7651L63.8913 41.7629Z" fill="#E6E7E8"/>
<path d="M63.7825 41.6985C63.2894 41.6207 62.9517 41.1565 63.0317 40.6634C63.1094 40.1703 63.5715 39.8349 64.0668 39.9127C64.5599 39.9904 64.8975 40.4546 64.8175 40.9477C64.7398 41.4408 64.2756 41.7784 63.7825 41.6985Z" fill="#898989"/>
<path d="M64.2134 37.2006C63.7136 37.2006 63.3093 36.7941 63.3093 36.2966C63.3093 35.7968 63.7136 35.3926 64.2134 35.3926C64.7131 35.3926 65.1174 35.7968 65.1174 36.2966C65.1174 36.7941 64.7131 37.2006 64.2134 37.2006Z" fill="#474747"/>
<path d="M64.4466 37.2917C63.9469 37.2917 63.5426 36.8852 63.5426 36.3877C63.5426 35.8879 63.9469 35.4837 64.4466 35.4837C64.9464 35.4837 65.3506 35.8879 65.3506 36.3877C65.3506 36.8875 64.9442 37.2917 64.4466 37.2917Z" fill="#E6E7E8"/>
<path d="M64.3311 37.2451C63.8314 37.2451 63.4271 36.8408 63.4271 36.3411C63.4271 35.8413 63.8314 35.437 64.3311 35.437C64.8309 35.437 65.2352 35.8435 65.2352 36.3411C65.2352 36.8408 64.8309 37.2451 64.3311 37.2451Z" fill="#898989"/>
<path d="M64.0535 32.7338C63.5604 32.8116 63.0983 32.4739 63.0184 31.9808C62.9406 31.4877 63.2761 31.0235 63.7692 30.9458C64.2623 30.868 64.7265 31.2034 64.8042 31.6987C64.882 32.1918 64.5466 32.6539 64.0535 32.7338Z" fill="#474747"/>
<path d="M64.2978 32.7893C63.8047 32.8671 63.3405 32.5294 63.2627 32.0363C63.185 31.5432 63.5204 31.079 64.0135 31.0013C64.5066 30.9235 64.9708 31.2589 65.0485 31.752C65.1263 32.2451 64.7886 32.7094 64.2978 32.7871V32.7893Z" fill="#E6E7E8"/>
<path d="M64.1756 32.7627C63.6825 32.8404 63.2183 32.505 63.1405 32.0097C63.0628 31.5166 63.3982 31.0546 63.8913 30.9746C64.3844 30.8969 64.8486 31.2323 64.9264 31.7254C65.0041 32.2185 64.6687 32.6827 64.1756 32.7605V32.7627Z" fill="#898989"/>
<path d="M63.1939 28.3492C62.7185 28.5047 62.2099 28.2426 62.0544 27.7695C61.8989 27.2942 62.161 26.7855 62.6341 26.6301C63.1094 26.4768 63.6181 26.7367 63.7736 27.212C63.9269 27.6873 63.667 28.196 63.1916 28.3515L63.1939 28.3492Z" fill="#474747"/>
<path d="M63.4448 28.3648C62.9695 28.5203 62.4586 28.2582 62.3053 27.7829C62.1499 27.3075 62.4098 26.7989 62.8851 26.6434C63.3604 26.4901 63.8713 26.75 64.0245 27.2231C64.18 27.6985 63.9179 28.2093 63.4448 28.3626V28.3648Z" fill="#E6E7E8"/>
<path d="M63.3204 28.3582C62.8451 28.5114 62.3365 28.2515 62.181 27.7762C62.0255 27.3009 62.2854 26.7922 62.7607 26.6368C63.236 26.4835 63.7469 26.7434 63.9002 27.2165C64.0557 27.6918 63.7935 28.2027 63.3204 28.3559V28.3582Z" fill="#898989"/>
<path d="M61.6613 24.1535C61.217 24.38 60.6729 24.2023 60.4441 23.7581C60.2175 23.3138 60.3952 22.7674 60.8395 22.5409C61.2837 22.3143 61.8279 22.492 62.0567 22.9362C62.2832 23.3805 62.1055 23.9247 61.6613 24.1535Z" fill="#474747"/>
<path d="M61.91 24.129C61.4635 24.3556 60.9194 24.1779 60.6928 23.7336C60.4662 23.2894 60.6417 22.7452 61.0882 22.5164C61.5324 22.2899 62.0788 22.4676 62.3054 22.9118C62.5319 23.356 62.3542 23.9024 61.91 24.129Z" fill="#E6E7E8"/>
<path d="M61.7856 24.1401C61.3414 24.3667 60.7972 24.189 60.5684 23.7448C60.3419 23.3005 60.5195 22.7563 60.9638 22.5298C61.408 22.3032 61.9544 22.4809 62.181 22.9251C62.4076 23.3694 62.2299 23.9158 61.7856 24.1423V24.1401Z" fill="#898989"/>
<path d="M59.489 20.2464C59.0847 20.5396 58.5183 20.4485 58.2252 20.0465C57.932 19.6422 58.0208 19.0758 58.425 18.7826C58.8293 18.4895 59.3935 18.5783 59.6889 18.9826C59.9821 19.3868 59.8932 19.951 59.489 20.2464Z" fill="#474747"/>
<path d="M59.7333 20.1864C59.3291 20.4796 58.7626 20.3908 58.4694 19.9865C58.1762 19.5823 58.2651 19.0181 58.6694 18.7227C59.0736 18.4295 59.64 18.5183 59.9332 18.9226C60.2264 19.3268 60.1376 19.8932 59.7333 20.1864Z" fill="#E6E7E8"/>
<path d="M59.6112 20.2153C59.2069 20.5085 58.6427 20.4197 58.3473 20.0154C58.0541 19.6112 58.143 19.047 58.5472 18.7538C58.9515 18.4606 59.5179 18.5494 59.811 18.9537C60.1042 19.3579 60.0154 19.9221 59.6112 20.2175V20.2153Z" fill="#898989"/>
<path d="M56.7347 16.7303C56.3816 17.0835 55.8085 17.0835 55.4553 16.7303C55.1022 16.3771 55.1022 15.8041 55.4553 15.4509C55.8085 15.0977 56.3816 15.0977 56.7347 15.4509C57.0879 15.8041 57.0879 16.3771 56.7347 16.7303Z" fill="#474747"/>
<path d="M56.9635 16.6304C56.6103 16.9835 56.0373 16.9835 55.6841 16.6304C55.3309 16.2772 55.3309 15.7041 55.6841 15.351C56.0373 14.9978 56.6103 14.9978 56.9635 15.351C57.3167 15.7041 57.3167 16.2772 56.9635 16.6304Z" fill="#E6E7E8"/>
<path d="M56.848 16.6792C56.4948 17.0324 55.9218 17.0324 55.5686 16.6792C55.2154 16.3261 55.2154 15.7552 55.5686 15.3998C55.9218 15.0467 56.4948 15.0467 56.848 15.3998C57.2012 15.753 57.2012 16.3261 56.848 16.6792Z" fill="#898989"/>
<path d="M53.463 13.6873C53.1698 14.0916 52.6033 14.1804 52.1991 13.8872C51.7948 13.594 51.706 13.0276 51.9992 12.6234C52.2924 12.2191 52.8566 12.1303 53.263 12.4235C53.6673 12.7167 53.7562 13.2831 53.463 13.6873Z" fill="#474747"/>
<path d="M53.674 13.554C53.3808 13.9583 52.8144 14.0471 52.4101 13.7539C52.0059 13.4607 51.917 12.8943 52.2102 12.4901C52.5034 12.0858 53.0698 11.997 53.474 12.2902C53.8783 12.5834 53.9672 13.1498 53.674 13.554Z" fill="#E6E7E8"/>
<path d="M53.5674 13.6207C53.2742 14.0249 52.7077 14.1138 52.3035 13.8206C51.8992 13.5274 51.8104 12.9632 52.1036 12.5567C52.3968 12.1525 52.9632 12.0636 53.3674 12.3568C53.7717 12.65 53.8606 13.2164 53.5674 13.6207Z" fill="#898989"/>
<path d="M49.7558 11.1929C49.5293 11.6372 48.9851 11.8149 48.5386 11.5883C48.0944 11.3617 47.9167 10.8176 48.1432 10.3711C48.3698 9.92686 48.914 9.74917 49.3604 9.97573C49.8047 10.2023 49.9824 10.7465 49.7558 11.1929Z" fill="#474747"/>
<path d="M49.9424 11.0286C49.7159 11.475 49.1694 11.6505 48.7252 11.4239C48.281 11.1974 48.1033 10.6532 48.3298 10.2067C48.5564 9.76249 49.1006 9.5848 49.547 9.81136C49.9913 10.0379 50.169 10.5843 49.9424 11.0286Z" fill="#E6E7E8"/>
<path d="M49.8491 11.1107C49.6226 11.555 49.0784 11.7326 48.6342 11.5061C48.1899 11.2795 48.0122 10.7353 48.2388 10.2911C48.4653 9.84688 49.0095 9.66918 49.456 9.89574C49.9002 10.1223 50.0779 10.6665 49.8514 11.1129L49.8491 11.1107Z" fill="#898989"/>
<path d="M45.7021 9.30937C45.5488 9.7847 45.038 10.0446 44.5627 9.88909C44.0873 9.73583 43.8274 9.22496 43.9807 8.74963C44.1362 8.2743 44.6449 8.01443 45.1202 8.16991C45.5933 8.32317 45.8554 8.83404 45.6999 9.30937H45.7021Z" fill="#474747"/>
<path d="M45.862 9.11613C45.7065 9.59146 45.1957 9.85134 44.7226 9.69585C44.2472 9.54259 43.9873 9.03172 44.1428 8.55639C44.2961 8.08106 44.807 7.82119 45.2823 7.97667C45.7576 8.12993 46.0175 8.64302 45.8642 9.11613H45.862Z" fill="#E6E7E8"/>
<path d="M45.7821 9.21388C45.6266 9.68921 45.1179 9.94908 44.6426 9.7936C44.1673 9.64034 43.9074 9.12947 44.0629 8.65414C44.2184 8.17881 44.727 7.91894 45.2023 8.07442C45.6777 8.22768 45.9376 8.73855 45.7821 9.21388Z" fill="#898989"/>
<path d="M41.4064 8.08327C41.3287 8.57637 40.8644 8.91177 40.3713 8.83403C39.8782 8.75629 39.5406 8.29206 39.6206 7.79896C39.6983 7.30586 40.1603 6.97047 40.6556 7.04821C41.1487 7.12595 41.4841 7.59017 41.4064 8.08327Z" fill="#474747"/>
<path d="M41.533 7.86782C41.4552 8.36092 40.991 8.69854 40.4979 8.61857C40.0048 8.54083 39.6672 8.07661 39.7472 7.58351C39.8249 7.09041 40.2891 6.75502 40.7822 6.83276C41.2753 6.9105 41.6129 7.37472 41.5352 7.86782H41.533Z" fill="#E6E7E8"/>
<path d="M41.4708 7.97666C41.3931 8.46976 40.9288 8.80516 40.4357 8.72742C39.9426 8.64968 39.6073 8.18767 39.685 7.69235C39.7627 7.19925 40.227 6.86163 40.7201 6.9416C41.2132 7.01934 41.5508 7.48356 41.4708 7.97666Z" fill="#898989"/>
<path d="M44.4605 28.8934C44.4116 28.9823 44.4449 29.0933 44.5338 29.1422C46.1619 30.0284 47.4479 30.9969 48.4252 31.8787C48.5185 31.9631 48.4919 32.1208 48.3742 32.1652C48.3742 32.1652 48.3742 32.1652 48.3719 32.1652C47.9277 32.3296 47.4857 32.2785 47.0437 32.1652C46.1574 31.9364 45.3556 31.51 44.5515 31.0924C43.2144 30.3972 41.8995 29.6575 40.4691 29.1622C40.1226 29.0422 39.7694 28.9334 39.4162 28.8379C39.3451 28.8179 39.2207 28.8534 39.1696 28.909C37.6304 30.6548 35.6291 31.4766 33.3813 31.7943C31.4466 32.0697 29.5231 31.9542 27.6129 31.5699C27.5907 31.5655 27.5707 31.5544 27.5018 31.53C27.6151 31.4878 27.6928 31.4589 27.7706 31.43C28.97 30.9969 30.0606 30.3883 30.9691 29.4776C31.6554 28.789 32.1441 27.985 32.364 27.0299C32.384 26.9432 32.3951 26.8544 32.4173 26.73C31.9131 26.7211 31.4289 26.7056 30.9469 26.7034C28.6657 26.6967 26.409 26.9144 24.21 27.5518C21.789 28.256 19.6211 29.3954 17.9131 31.2945C16.3849 32.9959 15.4564 34.975 15.2943 37.2783C15.2676 37.6648 15.3032 38.058 15.3387 38.4445C15.4053 39.133 15.7874 39.6261 16.4115 39.8838C17.109 40.1725 17.8286 40.4102 18.5483 40.6456C19.5012 40.9588 20.4296 41.3075 21.207 41.9672C22.1177 42.7358 22.6375 43.9507 22.6775 45.1413C22.2288 44.3283 21.4625 44.0951 20.6562 43.9818C19.8188 43.8641 18.9703 43.8175 18.1285 43.7308C17.8819 43.7064 17.6376 43.6709 17.3955 43.622C17.0268 43.5443 16.6736 43.4221 16.3782 43.1289C16.3626 43.331 16.3671 43.5154 16.3316 43.6931C16.2538 44.0929 16.0406 44.4305 15.7896 44.7415C15.5297 45.0613 15.2609 45.3723 14.9988 45.6899C14.1304 46.7383 13.715 47.6357 14.026 49.1127C13.8128 48.824 13.5929 48.5419 13.3907 48.2443C12.389 46.7805 12.2269 45.2101 12.8021 43.5487C13.0265 42.8979 13.2553 42.2471 13.4663 41.5896C13.8372 40.4346 13.8127 39.2818 13.3774 38.1513C12.4223 35.668 12.3179 33.1248 12.9309 30.5682C14.1881 25.3107 17.2489 21.3836 21.9023 18.6805C23.2505 17.8986 24.7054 17.35 26.2202 16.9768C26.2935 16.9591 26.3668 16.9413 26.4379 16.9191C26.4512 16.9169 26.4623 16.9035 26.5067 16.8747C25.4539 15.1088 23.8969 13.9583 22.0911 13.0543C22.5953 13.032 23.0972 12.9921 23.6014 12.9876C25.4694 12.9721 27.2908 13.263 29.05 13.9027C30.6448 14.4847 32.0797 15.3354 33.3302 16.4949C33.4301 16.5881 33.5812 16.6592 33.7189 16.677C36.1355 17.0301 38.4255 17.7432 40.4935 19.0714C43.4121 20.9461 45.349 23.5782 46.3996 26.8655C46.6239 27.5674 46.9504 28.1849 47.3946 28.7602C47.7922 29.2755 48.1765 29.8019 48.5408 30.3394C48.7051 30.5815 48.8273 30.8503 48.9095 31.1301V31.1368C48.9872 31.3945 48.6807 31.5899 48.4786 31.4145C47.5101 30.5682 46.2663 29.6553 44.707 28.8068C44.6182 28.7579 44.5049 28.7913 44.4583 28.8823L44.4605 28.8934Z" fill="#292929"/>
<path d="M44.3183 28.5914C44.2695 28.6802 44.3028 28.7913 44.3916 28.8401C46.0198 29.7264 47.3058 30.6948 48.2831 31.5766C48.3764 31.661 48.3498 31.8187 48.2321 31.8631C48.2321 31.8631 48.232 31.8631 48.2298 31.8631C47.7856 32.0275 47.3436 31.9764 46.9016 31.8631C46.0153 31.6344 45.2135 31.2079 44.4094 30.7903C43.0723 30.0951 41.7573 29.3555 40.3269 28.8601C39.9804 28.7402 39.6272 28.6313 39.2741 28.5358C39.203 28.5158 39.0786 28.5514 39.0275 28.6069C37.4883 30.3528 35.487 31.1746 33.2391 31.4922C31.3045 31.7676 29.381 31.6521 27.4708 31.2679C27.4486 31.2634 27.4286 31.2523 27.3597 31.2279C27.473 31.1857 27.5507 31.1568 27.6285 31.1279C28.8279 30.6948 29.9185 30.0862 30.8269 29.1755C31.5133 28.487 32.0019 27.6829 32.2218 26.7278C32.2418 26.6412 32.2529 26.5523 32.2751 26.4279C31.7709 26.4191 31.2867 26.4035 30.8048 26.4013C28.5236 26.3946 26.2669 26.6123 24.0679 27.2498C21.6468 27.9539 19.479 29.0934 17.7709 30.9925C16.2427 32.6939 15.3143 34.6729 15.1521 36.9763C15.1255 37.3628 15.161 37.7559 15.1966 38.1424C15.2632 38.831 15.6452 39.3241 16.2694 39.5817C16.9668 39.8705 17.6865 40.1081 18.4062 40.3436C19.359 40.6568 20.2875 41.0055 21.0649 41.6652C21.9756 42.4337 22.4954 43.6487 22.5353 44.8392C22.0867 44.0263 21.3203 43.7931 20.514 43.6798C19.6767 43.5621 18.8282 43.5154 17.9863 43.4288C17.7398 43.4044 17.4955 43.3688 17.2534 43.32C16.8847 43.2422 16.5315 43.12 16.2361 42.8268C16.2205 43.029 16.225 43.2133 16.1894 43.391C16.1117 43.7908 15.8985 44.1285 15.6475 44.4394C15.3876 44.7593 15.1188 45.0702 14.8567 45.3879C13.9883 46.4363 13.5729 47.3336 13.8838 48.8107C13.6706 48.5219 13.4507 48.2398 13.2486 47.9422C12.2469 46.4785 12.0847 44.9081 12.66 43.2466C12.8843 42.5958 13.1131 41.945 13.3241 41.2876C13.695 40.1326 13.6706 38.9798 13.2353 37.8492C12.2802 35.3659 12.1758 32.8227 12.7888 30.2661C14.046 25.0086 17.1067 21.0816 21.7601 18.3784C23.1083 17.5966 24.5633 17.0479 26.0781 16.6748C26.1514 16.657 26.2247 16.6392 26.2958 16.617C26.3091 16.6148 26.3202 16.6015 26.3646 16.5726C25.3118 14.8068 23.7547 13.6562 21.9489 12.7522C22.4531 12.73 22.9551 12.69 23.4593 12.6856C25.3273 12.67 27.1487 12.961 28.9079 13.6007C30.5027 14.1826 31.9375 15.0333 33.1881 16.1928C33.288 16.2861 33.4391 16.3572 33.5768 16.3749C35.9934 16.7281 38.2834 17.4411 40.3513 18.7693C43.27 20.644 45.2068 23.2761 46.2574 26.5634C46.4817 27.2653 46.8082 27.8828 47.2525 28.4581C47.6501 28.9734 48.0344 29.4998 48.3986 30.0374C48.563 30.2795 48.6852 30.5482 48.7673 30.8281V30.8347C48.8451 31.0924 48.5386 31.2879 48.3364 31.1124C47.368 30.2661 46.1242 29.3532 44.5649 28.5047C44.476 28.4559 44.3627 28.4892 44.3161 28.5803L44.3183 28.5914Z" fill="url(#paint3_radial_68_39862)"/>
<g opacity="0.69">
<path d="M44.3183 28.5914C44.2695 28.6802 44.3028 28.7913 44.3916 28.8401C46.0198 29.7264 47.3058 30.6948 48.2831 31.5766C48.3764 31.661 48.3498 31.8187 48.2321 31.8631C48.2321 31.8631 48.232 31.8631 48.2298 31.8631C47.7856 32.0275 47.3436 31.9764 46.9016 31.8631C46.0153 31.6344 45.2135 31.2079 44.4094 30.7903C43.0723 30.0951 41.7573 29.3555 40.3269 28.8601C39.9804 28.7402 39.6272 28.6313 39.2741 28.5358C39.203 28.5158 39.0786 28.5514 39.0275 28.6069C37.4883 30.3528 35.487 31.1746 33.2391 31.4922C31.3045 31.7676 29.381 31.6521 27.4708 31.2679C27.4486 31.2634 27.4286 31.2523 27.3597 31.2279C27.473 31.1857 27.5507 31.1568 27.6285 31.1279C28.8279 30.6948 29.9185 30.0862 30.8269 29.1755C31.5133 28.487 32.0019 27.6829 32.2218 26.7278C32.2418 26.6412 32.2529 26.5523 32.2751 26.4279C31.7709 26.4191 31.2867 26.4035 30.8048 26.4013C28.5236 26.3946 26.2669 26.6123 24.0679 27.2498C21.6468 27.9539 19.479 29.0934 17.7709 30.9925C16.2427 32.6939 15.3143 34.6729 15.1521 36.9763C15.1255 37.3628 15.161 37.7559 15.1966 38.1424C15.2632 38.831 15.6452 39.3241 16.2694 39.5817C16.9668 39.8705 17.6865 40.1081 18.4062 40.3436C19.359 40.6568 20.2875 41.0055 21.0649 41.6652C21.9756 42.4337 22.4954 43.6487 22.5353 44.8392C22.0867 44.0263 21.3203 43.7931 20.514 43.6798C19.6767 43.5621 18.8282 43.5154 17.9863 43.4288C17.7398 43.4044 17.4955 43.3688 17.2534 43.32C16.8847 43.2422 16.5315 43.12 16.2361 42.8268C16.2205 43.029 16.225 43.2133 16.1894 43.391C16.1117 43.7908 15.8985 44.1285 15.6475 44.4394C15.3876 44.7593 15.1188 45.0702 14.8567 45.3879C13.9883 46.4363 13.5729 47.3336 13.8838 48.8107C13.6706 48.5219 13.4507 48.2398 13.2486 47.9422C12.2469 46.4785 12.0847 44.9081 12.66 43.2466C12.8843 42.5958 13.1131 41.945 13.3241 41.2876C13.695 40.1326 13.6706 38.9798 13.2353 37.8492C12.2802 35.3659 12.1758 32.8227 12.7888 30.2661C14.046 25.0086 17.1067 21.0816 21.7601 18.3784C23.1083 17.5966 24.5633 17.0479 26.0781 16.6748C26.1514 16.657 26.2247 16.6392 26.2958 16.617C26.3091 16.6148 26.3202 16.6015 26.3646 16.5726C25.3118 14.8068 23.7547 13.6562 21.9489 12.7522C22.4531 12.73 22.9551 12.69 23.4593 12.6856C25.3273 12.67 27.1487 12.961 28.9079 13.6007C30.5027 14.1826 31.9375 15.0333 33.1881 16.1928C33.288 16.2861 33.4391 16.3572 33.5768 16.3749C35.9934 16.7281 38.2834 17.4411 40.3513 18.7693C43.27 20.644 45.2068 23.2761 46.2574 26.5634C46.4817 27.2653 46.8082 27.8828 47.2525 28.4581C47.6501 28.9734 48.0344 29.4998 48.3986 30.0374C48.563 30.2795 48.6852 30.5482 48.7673 30.8281V30.8347C48.8451 31.0924 48.5386 31.2879 48.3364 31.1124C47.368 30.2661 46.1242 29.3532 44.5649 28.5047C44.476 28.4559 44.3627 28.4892 44.3161 28.5803L44.3183 28.5914Z" fill="#4A4A4A"/>
</g>
<path d="M28.166 44.9258C28.2015 44.8303 28.1527 44.7259 28.0571 44.6903C26.3202 44.0462 24.9097 43.2666 23.8147 42.5336C23.7103 42.4625 23.7147 42.3026 23.8236 42.2426C23.8236 42.2426 23.8236 42.2426 23.8258 42.2426C24.2412 42.0183 24.6877 42.0027 25.1408 42.0538C26.0515 42.1538 26.9066 42.4625 27.7617 42.7624C29.1833 43.2599 30.5915 43.8063 32.0775 44.0929C32.4373 44.1617 32.8016 44.2195 33.1658 44.2661C33.2391 44.275 33.3569 44.2239 33.3991 44.1617C34.6762 42.216 36.5398 41.1187 38.721 40.4834C40.5979 39.937 42.517 39.7793 44.4627 39.8882C44.485 39.8882 44.5049 39.8971 44.5782 39.9126C44.4716 39.9704 44.3983 40.0103 44.325 40.0481C43.1989 40.6456 42.206 41.4052 41.4353 42.4336C40.8533 43.2133 40.4846 44.0795 40.4002 45.0546C40.3913 45.1435 40.3935 45.2323 40.3891 45.3589C40.8889 45.2967 41.3709 45.2434 41.8484 45.1768C44.1073 44.8614 46.3107 44.3239 48.3964 43.3799C50.6931 42.3404 52.6788 40.9033 54.0982 38.782C55.3687 36.8807 56.0084 34.7884 55.8418 32.4872C55.8129 32.1007 55.7241 31.7165 55.6308 31.3389C55.4664 30.6659 55.0177 30.2328 54.3647 30.0662C53.6317 29.8796 52.8876 29.7463 52.1435 29.6153C51.1551 29.442 50.1889 29.2266 49.3226 28.6846C48.312 28.0516 47.6256 26.9232 47.4169 25.7526C47.9766 26.4945 48.7695 26.6167 49.5825 26.6145C50.4288 26.6122 51.2751 26.5389 52.1213 26.5034C52.3679 26.4923 52.6166 26.4923 52.8632 26.5078C53.2386 26.5323 53.6073 26.6034 53.9405 26.8521C53.9271 26.65 53.8961 26.4679 53.9072 26.288C53.9272 25.8815 54.0915 25.5172 54.2959 25.1729C54.5069 24.8198 54.729 24.4733 54.9444 24.1201C55.6552 22.9584 55.9395 22.01 55.422 20.5929C55.673 20.8483 55.9329 21.0971 56.175 21.3614C57.3744 22.6674 57.7564 24.1978 57.4232 25.9259C57.2922 26.6034 57.1589 27.2786 57.0434 27.9605C56.8413 29.1555 57.0279 30.2949 57.6187 31.3522C58.9159 33.6733 59.3801 36.1766 59.138 38.7954C58.6404 44.1773 56.1683 48.4997 51.9436 51.8359C50.7198 52.8021 49.3582 53.5484 47.9122 54.1348C47.8434 54.1636 47.7723 54.1903 47.7034 54.2214C47.6901 54.2258 47.6812 54.2392 47.6434 54.2747C48.9361 55.8739 50.6398 56.7913 52.5567 57.4288C52.0614 57.5221 51.5683 57.6331 51.0707 57.7086C49.2227 57.9885 47.3791 57.9596 45.5489 57.5754C43.8874 57.2244 42.3459 56.5869 40.9444 55.6163C40.8311 55.5385 40.6712 55.4897 40.5334 55.4897C38.0902 55.483 35.7224 55.101 33.4879 54.0792C30.3338 52.6377 28.0416 50.3055 26.5356 47.2025C26.2158 46.5384 25.8027 45.9742 25.2807 45.4678C24.8142 45.0146 24.3589 44.5482 23.9214 44.0662C23.7237 43.8507 23.5637 43.602 23.4438 43.3354V43.3288C23.3283 43.0844 23.6059 42.8468 23.8303 42.9934C24.9097 43.693 26.2691 44.4216 27.9328 45.0391C28.0283 45.0746 28.1349 45.0257 28.1704 44.9302L28.166 44.9258Z" fill="#292929"/>
<path d="M28.0239 44.6238C28.0594 44.5282 28.0105 44.4239 27.915 44.3883C26.1781 43.7442 24.7676 42.9645 23.6726 42.2316C23.5682 42.1605 23.5726 42.0006 23.6815 41.9406C23.6815 41.9406 23.6815 41.9406 23.6837 41.9406C24.099 41.7162 24.5455 41.7007 24.9986 41.7518C25.9093 41.8517 26.7644 42.1605 27.6196 42.4603C29.0411 42.9579 30.4494 43.5043 31.9353 43.7908C32.2951 43.8597 32.6595 43.9174 33.0237 43.9641C33.097 43.973 33.2147 43.9219 33.2569 43.8597C34.5341 41.9139 36.3977 40.8167 38.5789 40.1814C40.4558 39.635 42.3748 39.4773 44.3206 39.5861C44.3428 39.5861 44.3628 39.595 44.4361 39.6106C44.3295 39.6683 44.2562 39.7083 44.1829 39.7461C43.0567 40.3436 42.0639 41.1032 41.2931 42.1316C40.7112 42.9112 40.3424 43.7775 40.258 44.7526C40.2492 44.8414 40.2514 44.9303 40.247 45.0569C40.7467 44.9947 41.2287 44.9414 41.7062 44.8748C43.9652 44.5593 46.1686 44.0218 48.2543 43.0778C50.5509 42.0383 52.5367 40.6012 53.956 38.48C55.2265 36.5787 55.8662 34.4863 55.6996 32.1852C55.6707 31.7987 55.5819 31.4145 55.4886 31.0369C55.3243 30.3638 54.8756 29.9307 54.2226 29.7641C53.4896 29.5775 52.7455 29.4443 52.0014 29.3132C51.013 29.14 50.0468 28.9245 49.1805 28.3826C48.1699 27.7495 47.4835 26.6212 47.2747 25.4506C47.8345 26.1925 48.6274 26.3146 49.4404 26.3124C50.2866 26.3102 51.1329 26.2369 51.9792 26.2014C52.2257 26.1903 52.4745 26.1903 52.7211 26.2058C53.0964 26.2302 53.4652 26.3013 53.7983 26.5501C53.785 26.348 53.7539 26.1658 53.765 25.9859C53.785 25.5794 53.9493 25.2152 54.1537 24.8709C54.3647 24.5177 54.5868 24.1712 54.8023 23.8181C55.513 22.6564 55.7974 21.7079 55.2798 20.2908C55.5308 20.5463 55.7907 20.795 56.0328 21.0593C57.2322 22.3654 57.6143 23.8958 57.2811 25.6239C57.1501 26.3013 57.0168 26.9766 56.9013 27.6585C56.6992 28.8534 56.8857 29.9929 57.4766 31.0502C58.7737 33.3713 59.238 35.8746 58.9959 38.4933C58.4983 43.8752 56.0261 48.1976 51.8015 51.5338C50.5776 52.5 49.216 53.2463 47.7701 53.8327C47.7012 53.8616 47.6301 53.8883 47.5613 53.9194C47.5479 53.9238 47.5391 53.9371 47.5013 53.9727C48.794 55.5719 50.4976 56.4892 52.4145 57.1267C51.9192 57.22 51.4261 57.3311 50.9286 57.4066C49.0805 57.6865 47.237 57.6576 45.4068 57.2733C43.7453 56.9224 42.2038 56.2849 40.8023 55.3143C40.689 55.2365 40.529 55.1876 40.3913 55.1876C37.948 55.181 35.5803 54.7989 33.3458 53.7772C30.1917 52.3357 27.8995 50.0034 26.3935 46.9005C26.0737 46.2363 25.6605 45.6722 25.1386 45.1657C24.6721 44.7126 24.2168 44.2462 23.7792 43.7642C23.5815 43.5487 23.4216 43.2999 23.3017 43.0334V43.0267C23.1862 42.7824 23.4638 42.5447 23.6881 42.6913C24.7676 43.391 26.127 44.1196 27.7906 44.737C27.8861 44.7726 27.9928 44.7237 28.0283 44.6282L28.0239 44.6238Z" fill="url(#paint4_radial_68_39862)"/>
<g opacity="0.69">
<path d="M28.0239 44.6238C28.0594 44.5282 28.0105 44.4239 27.915 44.3883C26.1781 43.7442 24.7676 42.9645 23.6726 42.2316C23.5682 42.1605 23.5726 42.0006 23.6815 41.9406C23.6815 41.9406 23.6815 41.9406 23.6837 41.9406C24.099 41.7162 24.5455 41.7007 24.9986 41.7518C25.9093 41.8517 26.7644 42.1605 27.6196 42.4603C29.0411 42.9579 30.4494 43.5043 31.9353 43.7908C32.2951 43.8597 32.6595 43.9174 33.0237 43.9641C33.097 43.973 33.2147 43.9219 33.2569 43.8597C34.5341 41.9139 36.3977 40.8167 38.5789 40.1814C40.4558 39.635 42.3748 39.4773 44.3206 39.5861C44.3428 39.5861 44.3628 39.595 44.4361 39.6106C44.3295 39.6683 44.2562 39.7083 44.1829 39.7461C43.0567 40.3436 42.0639 41.1032 41.2931 42.1316C40.7112 42.9112 40.3424 43.7775 40.258 44.7526C40.2492 44.8414 40.2514 44.9303 40.247 45.0569C40.7467 44.9947 41.2287 44.9414 41.7062 44.8748C43.9652 44.5593 46.1686 44.0218 48.2543 43.0778C50.5509 42.0383 52.5367 40.6012 53.956 38.48C55.2265 36.5787 55.8662 34.4863 55.6996 32.1852C55.6707 31.7987 55.5819 31.4145 55.4886 31.0369C55.3243 30.3638 54.8756 29.9307 54.2226 29.7641C53.4896 29.5775 52.7455 29.4443 52.0014 29.3132C51.013 29.14 50.0468 28.9245 49.1805 28.3826C48.1699 27.7495 47.4835 26.6212 47.2747 25.4506C47.8345 26.1925 48.6274 26.3146 49.4404 26.3124C50.2866 26.3102 51.1329 26.2369 51.9792 26.2014C52.2257 26.1903 52.4745 26.1903 52.7211 26.2058C53.0964 26.2302 53.4652 26.3013 53.7983 26.5501C53.785 26.348 53.7539 26.1658 53.765 25.9859C53.785 25.5794 53.9493 25.2152 54.1537 24.8709C54.3647 24.5177 54.5868 24.1712 54.8023 23.8181C55.513 22.6564 55.7974 21.7079 55.2798 20.2908C55.5308 20.5463 55.7907 20.795 56.0328 21.0593C57.2322 22.3654 57.6143 23.8958 57.2811 25.6239C57.1501 26.3013 57.0168 26.9766 56.9013 27.6585C56.6992 28.8534 56.8857 29.9929 57.4766 31.0502C58.7737 33.3713 59.238 35.8746 58.9959 38.4933C58.4983 43.8752 56.0261 48.1976 51.8015 51.5338C50.5776 52.5 49.216 53.2463 47.7701 53.8327C47.7012 53.8616 47.6301 53.8883 47.5613 53.9194C47.5479 53.9238 47.5391 53.9371 47.5013 53.9727C48.794 55.5719 50.4976 56.4892 52.4145 57.1267C51.9192 57.22 51.4261 57.3311 50.9286 57.4066C49.0805 57.6865 47.237 57.6576 45.4068 57.2733C43.7453 56.9224 42.2038 56.2849 40.8023 55.3143C40.689 55.2365 40.529 55.1876 40.3913 55.1876C37.948 55.181 35.5803 54.7989 33.3458 53.7772C30.1917 52.3357 27.8995 50.0034 26.3935 46.9005C26.0737 46.2363 25.6605 45.6722 25.1386 45.1657C24.6721 44.7126 24.2168 44.2462 23.7792 43.7642C23.5815 43.5487 23.4216 43.2999 23.3017 43.0334V43.0267C23.1862 42.7824 23.4638 42.5447 23.6881 42.6913C24.7676 43.391 26.127 44.1196 27.7906 44.737C27.8861 44.7726 27.9928 44.7237 28.0283 44.6282L28.0239 44.6238Z" fill="#4A4A4A"/>
</g>
<path d="M38.5589 35.4437L37.1418 34.0021L35.8246 32.6606H35.8224C35.7269 32.7605 33.2036 35.3859 33.2014 35.3859C32.7127 35.8946 32.4906 36.6942 32.7549 37.3539C32.7905 37.4472 32.8371 37.536 32.8927 37.6204C32.9438 37.6982 33.0015 37.7715 33.0637 37.8381C33.0659 37.8403 33.0682 37.8425 33.0726 37.847C33.4702 38.2779 34.0943 38.5089 34.6741 38.4711C35.2582 38.4334 35.9535 38.0713 36.1223 37.4694C36.2067 37.1695 36.1334 36.8541 36.0023 36.5809C36.0023 36.5809 35.9268 36.3699 35.7136 36.1989C35.5003 36.0256 35.1471 35.8968 34.5874 36.0678L34.3209 36.1589L33.6057 36.401C33.4879 36.4365 33.3769 36.361 33.3458 36.2611C33.3258 36.2078 33.3302 36.15 33.3658 36.0945C33.4146 36.0145 33.7145 35.8124 33.8611 35.7124C33.8611 35.7124 34.0143 35.5281 34.1476 35.3282C34.3564 35.0128 34.6696 34.7729 35.0428 34.6907C35.3226 34.6307 35.6802 34.6352 36.1067 34.7951C36.351 34.8862 36.6176 35.0261 36.9086 35.2349C36.9619 35.2726 37.024 35.2993 37.0884 35.3037C37.184 35.3104 37.3417 35.3393 37.4883 35.4481C37.6482 35.5658 37.7948 35.7769 37.8326 36.1611C37.8326 36.1611 37.5505 35.8368 37.0973 35.8635C37.0885 35.8635 37.0818 35.8635 37.0729 35.8635C37.0729 35.8635 37.0907 35.8724 37.1218 35.8924C37.2284 35.9679 37.4794 36.2078 37.4216 36.7653C37.4216 36.7653 37.3883 37.3361 36.8441 37.867C36.7264 37.9847 36.7153 38.1513 36.7842 38.2757C36.833 38.3667 36.9219 38.4334 37.0396 38.4489H37.0463C37.7792 38.5422 38.4478 38.0935 38.7943 37.4694C39.1697 36.7919 39.1164 36.0123 38.5589 35.4459V35.4437ZM35.8313 33.2958L36.3133 33.8289L35.8424 34.3797L35.7069 34.2354L35.3404 33.8467L35.8224 33.3047L35.8313 33.2958Z" fill="#292929"/>
<path d="M37.1973 39.504C37.1973 39.5751 37.1418 39.6328 37.0707 39.6328L35.216 39.6528C35.1449 39.6528 35.0871 39.5973 35.0871 39.5262C35.0871 39.484 35.1094 39.4418 35.1449 39.4173C35.2071 39.3774 35.2959 39.3951 35.3648 39.3707C35.4292 39.3485 35.487 39.313 35.5381 39.2685C35.6447 39.1775 35.7202 39.0531 35.7868 38.9331C35.8179 38.8776 35.8446 38.8221 35.8757 38.7688C35.9756 38.58 36.0689 38.3845 36.1466 38.1846C36.2533 38.5044 36.3999 38.7999 36.5776 39.0864C36.6465 39.1997 36.7486 39.293 36.873 39.3396C36.9352 39.364 37.0018 39.3751 37.0685 39.3796C37.1351 39.384 37.1929 39.4329 37.1929 39.504H37.1973Z" fill="#292929"/>
<path d="M38.4189 35.3059L37.1395 34.0043L35.8223 32.6628L35.6847 32.5228C35.6847 32.5228 33.0637 35.2482 33.0614 35.2482C32.5284 35.8035 32.3107 36.7053 32.6994 37.3961C32.7149 37.425 32.7327 37.4538 32.7527 37.4827C32.8394 37.6137 32.9437 37.7337 33.0659 37.8381C33.0681 37.8403 33.0703 37.8425 33.0748 37.847C33.4724 38.1868 34.0232 38.3667 34.5363 38.3312C35.1204 38.2934 35.8157 37.9314 35.9845 37.3294C36.0689 37.0296 35.9956 36.7142 35.8645 36.441C35.8645 36.441 35.8224 36.3255 35.718 36.1966C35.558 36.0012 35.2471 35.7768 34.7029 35.8657C34.6251 35.879 34.5407 35.899 34.4519 35.9257L33.4702 36.2588C33.428 36.2722 33.3857 36.2699 33.3502 36.2588C33.228 36.2211 33.1503 36.0767 33.228 35.9545C33.2769 35.8768 33.579 35.6724 33.7233 35.5725C33.7233 35.5725 33.8766 35.3881 34.0099 35.1882C34.2187 34.8728 34.5341 34.6329 34.905 34.5508C35.2293 34.4819 35.6558 34.4974 36.1755 34.7418C36.3621 34.8262 36.5598 34.9417 36.7708 35.0927C36.8241 35.1327 36.8863 35.1571 36.9507 35.1616C37.0795 35.1705 37.3172 35.2193 37.4904 35.4437C37.5882 35.5703 37.6682 35.7546 37.6926 36.0167C37.6926 36.0167 37.4016 35.6813 36.9352 35.7191C36.9352 35.7191 37.0151 35.7546 37.0995 35.8568C37.1084 35.8657 37.1151 35.8768 37.124 35.8879C37.2261 36.0234 37.3217 36.2522 37.2839 36.6231C37.2839 36.6231 37.2506 37.1939 36.7064 37.7248C36.5331 37.8936 36.5909 38.1713 36.7864 38.2712C36.8197 38.289 36.8574 38.3001 36.8996 38.3068H36.9063C37.6415 38.4 38.3078 37.9514 38.6543 37.3272C39.0297 36.6498 38.9764 35.8701 38.4189 35.3037V35.3059ZM35.7024 34.2398L35.2004 33.7067L35.6913 33.1559L35.8246 33.3025L36.1755 33.6867L35.7091 34.2309L35.7046 34.2353L35.7024 34.2398Z" fill="url(#paint5_radial_68_39862)"/>
<path d="M37.0551 39.3663C37.0551 39.4374 36.9996 39.4951 36.9285 39.4951L35.0739 39.5151C35.0028 39.5151 34.945 39.4596 34.945 39.3885C34.945 39.3463 34.9672 39.3041 35.0028 39.2797C35.065 39.2397 35.1538 39.2574 35.2227 39.233C35.2871 39.2108 35.3448 39.1753 35.3959 39.1308C35.5025 39.0398 35.578 38.9154 35.6447 38.7954C35.6758 38.7399 35.7025 38.6844 35.7335 38.6311C35.8335 38.4423 35.9268 38.2468 36.0045 38.0469C36.1111 38.3668 36.2577 38.6622 36.4354 38.9487C36.5043 39.062 36.6065 39.1553 36.7309 39.2019C36.793 39.2264 36.8597 39.2375 36.9263 39.2419C36.9929 39.2463 37.0507 39.2952 37.0507 39.3663H37.0551Z" fill="url(#paint6_radial_68_39862)"/>
<g opacity="0.69">
<path d="M38.4189 35.3059L37.1395 34.0043L35.8223 32.6628L35.6847 32.5228C35.6847 32.5228 33.0637 35.2482 33.0614 35.2482C32.5284 35.8035 32.3107 36.7053 32.6994 37.3961C32.7149 37.425 32.7327 37.4538 32.7527 37.4827C32.8394 37.6137 32.9437 37.7337 33.0659 37.8381C33.0681 37.8403 33.0703 37.8425 33.0748 37.847C33.4724 38.1868 34.0232 38.3667 34.5363 38.3312C35.1204 38.2934 35.8157 37.9314 35.9845 37.3294C36.0689 37.0296 35.9956 36.7142 35.8645 36.441C35.8645 36.441 35.8224 36.3255 35.718 36.1966C35.558 36.0012 35.2471 35.7768 34.7029 35.8657C34.6251 35.879 34.5407 35.899 34.4519 35.9257L33.4702 36.2588C33.428 36.2722 33.3857 36.2699 33.3502 36.2588C33.228 36.2211 33.1503 36.0767 33.228 35.9545C33.2769 35.8768 33.579 35.6724 33.7233 35.5725C33.7233 35.5725 33.8766 35.3881 34.0099 35.1882C34.2187 34.8728 34.5341 34.6329 34.905 34.5508C35.2293 34.4819 35.6558 34.4974 36.1755 34.7418C36.3621 34.8262 36.5598 34.9417 36.7708 35.0927C36.8241 35.1327 36.8863 35.1571 36.9507 35.1616C37.0795 35.1705 37.3172 35.2193 37.4904 35.4437C37.5882 35.5703 37.6682 35.7546 37.6926 36.0167C37.6926 36.0167 37.4016 35.6813 36.9352 35.7191C36.9352 35.7191 37.0151 35.7546 37.0995 35.8568C37.1084 35.8657 37.1151 35.8768 37.124 35.8879C37.2261 36.0234 37.3217 36.2522 37.2839 36.6231C37.2839 36.6231 37.2506 37.1939 36.7064 37.7248C36.5331 37.8936 36.5909 38.1713 36.7864 38.2712C36.8197 38.289 36.8574 38.3001 36.8996 38.3068H36.9063C37.6415 38.4 38.3078 37.9514 38.6543 37.3272C39.0297 36.6498 38.9764 35.8701 38.4189 35.3037V35.3059ZM35.7024 34.2398L35.2004 33.7067L35.6913 33.1559L35.8246 33.3025L36.1755 33.6867L35.7091 34.2309L35.7046 34.2353L35.7024 34.2398Z" fill="#4A4A4A"/>
<path d="M37.0551 39.3663C37.0551 39.4374 36.9996 39.4951 36.9285 39.4951L35.0739 39.5151C35.0028 39.5151 34.945 39.4596 34.945 39.3885C34.945 39.3463 34.9672 39.3041 35.0028 39.2797C35.065 39.2397 35.1538 39.2574 35.2227 39.233C35.2871 39.2108 35.3448 39.1753 35.3959 39.1308C35.5025 39.0398 35.578 38.9154 35.6447 38.7954C35.6758 38.7399 35.7025 38.6844 35.7335 38.6311C35.8335 38.4423 35.9268 38.2468 36.0045 38.0469C36.1111 38.3668 36.2577 38.6622 36.4354 38.9487C36.5043 39.062 36.6065 39.1553 36.7309 39.2019C36.793 39.2264 36.8597 39.2375 36.9263 39.2419C36.9929 39.2463 37.0507 39.2952 37.0507 39.3663H37.0551Z" fill="#4A4A4A"/>
</g>
<path d="M58.385 9.56927L57.9941 9.90911L57.3433 10.4733L56.8502 10.902L32.1641 32.2963L31.6776 32.7183L21.6202 41.4342L21.1582 41.8362L8.4997 52.8088L7.8911 53.3374L7.24254 53.8994L6.95822 54.146C4.49272 50.2767 2.78245 45.8765 2.0428 41.1543L2.14051 41.0699L2.88013 40.4302L3.59317 39.8061L26.1647 20.2198L26.3091 20.0954L30.2783 16.6459H30.2827L31.2379 15.813H31.2401L34.8139 12.71L34.9827 12.5679L37.4305 10.4422L37.4393 10.4378L44.6515 4.17849L45.2512 3.65874L45.7999 3.18341L46.3773 2.68143C50.8597 4.1474 54.9355 6.51517 58.3872 9.5715L58.385 9.56927Z" fill="url(#paint7_linear_68_39862)"/>
<path d="M69.8884 34.1287L69.864 34.1509L68.4757 35.3415L67.8183 35.9057L45.5466 55.0477L45.0224 55.4986L42.7324 57.4688L42.3259 57.8197L42.1704 57.9508L41.5219 58.5061L39.6982 60.0742L39.0808 60.6051L31.4222 67.1886L30.647 67.8506L29.6253 68.7301L28.9789 69.2876C25.9181 68.6702 23.004 67.644 20.3008 66.2669L20.8028 65.8359L21.6001 65.1518L22.2488 64.5921L29.5431 58.3217L30.0361 57.8975L32.2951 55.9584L32.7327 55.5786L34.4496 54.1059L35.1537 53.504L38.1101 50.963L38.7765 50.3899L51.4216 39.5217L51.8503 39.1552H51.8548L57.2788 34.4886L57.8341 34.0088L66.6366 26.4457L67.1742 25.9859L68.1914 25.1086L68.3647 24.9597C69.2731 27.8673 69.7996 30.9436 69.8907 34.1265L69.8884 34.1287Z" fill="url(#paint8_linear_68_39862)"/>
</g>
<defs>
<filter id="filter0_f_68_39862" x="0.627411" y="0" width="70.2788" height="71.9891" filterUnits="userSpaceOnUse" color-interpolation-filters="sRGB">
<feFlood flood-opacity="0" result="BackgroundImageFix"/>
<feBlend mode="normal" in="SourceGraphic" in2="BackgroundImageFix" result="shape"/>
<feGaussianBlur stdDeviation="0.5" result="effect1_foregroundBlur_68_39862"/>
</filter>
<linearGradient id="paint0_linear_68_39862" x1="24.6476" y1="68.1105" x2="46.8838" y2="3.53438" gradientUnits="userSpaceOnUse">
<stop stop-color="#A7A7A7"/>
<stop offset="0.51" stop-color="#BABABA"/>
<stop offset="1" stop-color="#D2D2D2"/>
</linearGradient>
<linearGradient id="paint1_linear_68_39862" x1="35.7424" y1="4.30289" x2="35.7424" y2="67.4797" gradientUnits="userSpaceOnUse">
<stop stop-color="#3B3B3B"/>
<stop offset="0.22" stop-color="#4F4F4F"/>
<stop offset="0.58" stop-color="#787878"/>
<stop offset="1" stop-color="#EAEAEA"/>
</linearGradient>
<linearGradient id="paint2_linear_68_39862" x1="25.7493" y1="65.0897" x2="45.8731" y2="6.64843" gradientUnits="userSpaceOnUse">
<stop stop-color="#A7A7A7"/>
<stop offset="0.51" stop-color="#BABABA"/>
<stop offset="1" stop-color="#D2D2D2"/>
</linearGradient>
<radialGradient id="paint3_radial_68_39862" cx="0" cy="0" r="1" gradientUnits="userSpaceOnUse" gradientTransform="translate(29.4441 34.1642) rotate(19.77) scale(18.1403 18.1403)">
<stop stop-color="white"/>
<stop offset="0.6" stop-color="#DDDDDD"/>
<stop offset="1" stop-color="#CCCCCC"/>
</radialGradient>
<radialGradient id="paint4_radial_68_39862" cx="0" cy="0" r="1" gradientUnits="userSpaceOnUse" gradientTransform="translate(42.9215 36.6198) rotate(19.77) scale(18.0048 18.0048)">
<stop stop-color="white"/>
<stop offset="0.6" stop-color="#DDDDDD"/>
<stop offset="1" stop-color="#CCCCCC"/>
</radialGradient>
<radialGradient id="paint5_radial_68_39862" cx="0" cy="0" r="1" gradientUnits="userSpaceOnUse" gradientTransform="translate(35.698 35.4281) scale(3.05411 3.05411)">
<stop stop-color="white"/>
<stop offset="0.6" stop-color="#DDDDDD"/>
<stop offset="1" stop-color="#CCCCCC"/>
</radialGradient>
<radialGradient id="paint6_radial_68_39862" cx="0" cy="0" r="1" gradientUnits="userSpaceOnUse" gradientTransform="translate(36.0023 38.7799) scale(0.908459 0.908457)">
<stop stop-color="white"/>
<stop offset="0.6" stop-color="#DDDDDD"/>
<stop offset="1" stop-color="#CCCCCC"/>
</radialGradient>
<linearGradient id="paint7_linear_68_39862" x1="-9.31627" y1="61.889" x2="51.6638" y2="5.54454" gradientUnits="userSpaceOnUse">
<stop stop-color="white" stop-opacity="0"/>
<stop offset="1" stop-color="white" stop-opacity="0.3"/>
</linearGradient>
<linearGradient id="paint8_linear_68_39862" x1="11.0296" y1="81.6729" x2="71.9075" y2="25.424" gradientUnits="userSpaceOnUse">
<stop stop-color="white" stop-opacity="0"/>
<stop offset="1" stop-color="white" stop-opacity="0.3"/>
</linearGradient>
</defs>
</svg>
