<svg width="76" height="76" viewBox="0 0 76 76" fill="none" xmlns="http://www.w3.org/2000/svg">
<g filter="url(#filter0_f_68_39637)">
<path d="M72.2412 37.1394C72.2412 37.2216 72.2412 37.3015 72.2389 37.3837V37.5814C72.0013 56.2326 56.8085 71.281 38.1018 71.281C36.005 71.281 33.9549 71.09 31.9625 70.7302C28.8529 70.1682 25.892 69.1798 23.14 67.836C17.6182 65.1395 12.9337 60.997 9.57531 55.9016C7.06316 52.0901 5.2929 47.7455 4.47551 43.0721C4.16454 41.2863 3.98684 39.4516 3.96463 37.5814V37.3837C3.9624 37.3015 3.9624 37.2216 3.9624 37.1394C3.9624 18.2861 19.244 3 38.0996 3C41.8045 3 45.3695 3.59083 48.7123 4.68143C53.1946 6.1474 57.2705 8.51517 60.7222 11.5715C65.3267 15.6473 68.8228 20.9471 70.6997 26.962C71.6082 29.8695 72.1346 32.9458 72.2257 36.1288C72.2368 36.4642 72.2412 36.8018 72.2412 37.1394Z" fill="#787878"/>
<path d="M72.239 38.8497C72.239 57.7052 56.9551 72.9891 38.0996 72.9891C19.244 72.9891 3.9624 57.7052 3.9624 38.8497C3.9624 19.9942 19.2463 4.7103 38.0996 4.7103C56.9529 4.7103 72.239 19.9964 72.239 38.8497Z" fill="#474747"/>
<path d="M72.2412 37.8235C72.2412 56.6768 56.9573 71.9607 38.1018 71.9607C35.7784 71.9607 33.5084 71.7275 31.3161 71.2855C28.2553 70.668 25.3412 69.6418 22.638 68.2647C17.1806 65.486 12.565 61.2835 9.29321 56.146C6.82771 52.2767 5.11744 47.8766 4.37779 43.1543C4.10236 41.4174 3.9624 39.636 3.9624 37.8235C3.9624 37.7413 3.9624 37.6614 3.96463 37.5792V37.3815C4.20229 18.7281 19.3929 3.68192 38.0996 3.68192C41.5935 3.68192 44.963 4.20611 48.1349 5.18121C52.6771 6.5761 56.8129 8.89278 60.3291 11.9114C64.9869 15.9117 68.5563 21.147 70.5242 27.1086C71.4704 29.9739 72.0479 33.0058 72.2012 36.1488C72.219 36.5575 72.2345 36.9684 72.2389 37.3815V37.5792C72.2412 37.6614 72.2412 37.7413 72.2412 37.8235Z" fill="url(#paint0_linear_68_39637)"/>
<path d="M69.6647 37.8924C69.6647 55.3352 55.5225 69.4797 38.0774 69.4797C20.6323 69.4797 6.49013 55.3375 6.49013 37.8924C6.49013 20.4473 20.6323 6.30289 38.0774 6.30289C55.5225 6.30289 69.6647 20.4451 69.6647 37.8924Z" fill="url(#paint1_linear_68_39637)"/>
<path d="M69.0427 37.8679C69.0427 54.9354 55.2092 68.7644 38.1462 68.7644C21.0832 68.7644 7.24974 54.9332 7.24974 37.8679C7.24974 20.8027 21.0832 6.97366 38.1462 6.97366C55.2092 6.97366 69.0427 20.8049 69.0427 37.8679Z" fill="url(#paint2_linear_68_39637)"/>
<path d="M39.3057 9.54351C39.3057 10.0433 38.9015 10.4475 38.4017 10.4475C37.9019 10.4475 37.4977 10.0433 37.4977 9.54351C37.4977 9.04375 37.9019 8.6395 38.4017 8.6395C38.9015 8.6395 39.3057 9.04375 39.3057 9.54351Z" fill="#474747"/>
<path d="M39.3968 9.31249C39.3968 9.81225 38.9925 10.2165 38.4928 10.2165C37.993 10.2165 37.5887 9.81225 37.5887 9.31249C37.5887 8.81273 37.993 8.40848 38.4928 8.40848C38.9925 8.40848 39.3968 8.81273 39.3968 9.31249Z" fill="#E6E7E8"/>
<path d="M39.3524 9.42801C39.3524 9.92777 38.9481 10.332 38.4484 10.332C37.9486 10.332 37.5443 9.92777 37.5443 9.42801C37.5443 8.92824 37.9486 8.52399 38.4484 8.52399C38.9481 8.52399 39.3524 8.92824 39.3524 9.42801Z" fill="#898989"/>
<path d="M34.839 9.70568C34.9167 10.1988 34.5814 10.663 34.0883 10.7407C33.5952 10.8185 33.1309 10.4831 33.0532 9.98999C32.9754 9.49689 33.3108 9.03266 33.8039 8.95492C34.297 8.87718 34.7612 9.21258 34.839 9.70568Z" fill="#474747"/>
<path d="M34.8945 9.46358C34.9723 9.95668 34.6369 10.4209 34.1438 10.4986C33.6507 10.5764 33.1864 10.241 33.1087 9.74789C33.0309 9.25479 33.3664 8.79056 33.8595 8.71282C34.3526 8.63508 34.8168 8.97048 34.8945 9.46358Z" fill="#E6E7E8"/>
<path d="M34.8678 9.58351C34.9456 10.0766 34.6102 10.5408 34.1171 10.6186C33.624 10.6963 33.1598 10.3609 33.0821 9.86782C33.0043 9.37472 33.3397 8.9105 33.8328 8.83276C34.3259 8.75502 34.7901 9.09041 34.8678 9.58351Z" fill="#898989"/>
<path d="M30.4543 10.5653C30.6098 11.0406 30.3477 11.5515 29.8746 11.7048C29.3993 11.8603 28.8884 11.5982 28.7351 11.125C28.5797 10.6497 28.8417 10.1388 29.3148 9.98559C29.7902 9.83011 30.2989 10.0922 30.4543 10.5653Z" fill="#474747"/>
<path d="M30.4721 10.3143C30.6254 10.7896 30.3655 11.3005 29.8924 11.4538C29.417 11.607 28.9062 11.3472 28.7529 10.874C28.5975 10.3987 28.8595 9.88785 29.3326 9.73459C29.808 9.58133 30.3189 9.84121 30.4721 10.3143Z" fill="#E6E7E8"/>
<path d="M30.4632 10.4409C30.6187 10.9162 30.3566 11.4271 29.8835 11.5804C29.4082 11.7336 28.8995 11.4738 28.7441 11.0006C28.5908 10.5253 28.8484 10.0167 29.3238 9.86118C29.7991 9.70792 30.31 9.9678 30.4632 10.4409Z" fill="#898989"/>
<path d="M26.2586 12.0979C26.4851 12.5421 26.3074 13.0885 25.8632 13.3151C25.4189 13.5416 24.8725 13.3639 24.6482 12.9197C24.4216 12.4755 24.5993 11.9313 25.0435 11.7025C25.4878 11.4759 26.0342 11.6536 26.2607 12.0979H26.2586Z" fill="#474747"/>
<path d="M26.2364 11.8491C26.4629 12.2934 26.2852 12.8398 25.841 13.0663C25.3968 13.2929 24.8504 13.1152 24.6238 12.671C24.3972 12.2267 24.5749 11.6825 25.0192 11.4538C25.4634 11.2272 26.0098 11.4049 26.2364 11.8491Z" fill="#E6E7E8"/>
<path d="M26.2475 11.9735C26.474 12.4177 26.2963 12.9641 25.8521 13.1907C25.4079 13.4172 24.8615 13.2396 24.6349 12.7953C24.4083 12.3511 24.586 11.8069 25.0303 11.5781C25.4745 11.3516 26.0209 11.5292 26.2475 11.9735Z" fill="#898989"/>
<path d="M22.3515 14.2702C22.6447 14.6745 22.5558 15.2409 22.1516 15.5341C21.7473 15.8273 21.1809 15.7384 20.8877 15.3342C20.5945 14.9299 20.6834 14.3657 21.0877 14.0703C21.4919 13.7771 22.0561 13.866 22.3515 14.2702Z" fill="#474747"/>
<path d="M22.2915 14.0281C22.5847 14.4323 22.4959 14.9965 22.0917 15.2919C21.6874 15.5851 21.121 15.4963 20.8278 15.092C20.5346 14.6878 20.6235 14.1214 21.0277 13.8282C21.432 13.535 21.9984 13.6238 22.2915 14.0281Z" fill="#E6E7E8"/>
<path d="M22.3226 14.1481C22.6158 14.5523 22.527 15.1187 22.1227 15.4119C21.7185 15.7051 21.1521 15.6162 20.8589 15.212C20.5657 14.8077 20.6545 14.2436 21.0588 13.9481C21.463 13.655 22.0272 13.7438 22.3226 14.1481Z" fill="#898989"/>
<path d="M18.8354 17.0245C19.1885 17.3776 19.1885 17.9507 18.8354 18.3039C18.4822 18.657 17.9091 18.657 17.556 18.3039C17.2028 17.9507 17.2028 17.3776 17.556 17.0245C17.9091 16.6713 18.4822 16.6713 18.8354 17.0245Z" fill="#474747"/>
<path d="M18.7377 16.7957C19.0909 17.1488 19.0909 17.7219 18.7377 18.0751C18.3845 18.4282 17.8115 18.4282 17.4583 18.0751C17.1051 17.7219 17.1051 17.1488 17.4583 16.7957C17.8115 16.4425 18.3845 16.4425 18.7377 16.7957Z" fill="#E6E7E8"/>
<path d="M18.7865 16.9112C19.1397 17.2643 19.1397 17.8374 18.7865 18.1906C18.4334 18.5437 17.8603 18.5437 17.5071 18.1906C17.154 17.8374 17.154 17.2643 17.5071 16.9112C17.8603 16.558 18.4334 16.558 18.7865 16.9112Z" fill="#898989"/>
<path d="M15.7924 20.2962C16.1967 20.5894 16.2855 21.1558 15.9923 21.56C15.6991 21.9643 15.1327 22.0531 14.7285 21.7599C14.3242 21.4668 14.2354 20.9004 14.5286 20.4961C14.8218 20.0918 15.3881 20.003 15.7924 20.2962Z" fill="#474747"/>
<path d="M15.6591 20.0852C16.0633 20.3784 16.1522 20.9448 15.859 21.3491C15.5658 21.7533 14.9995 21.8421 14.5952 21.5489C14.1909 21.2558 14.1021 20.6894 14.3953 20.2851C14.6885 19.8808 15.2548 19.792 15.6591 20.0852Z" fill="#E6E7E8"/>
<path d="M15.7258 20.1918C16.13 20.485 16.2189 21.0514 15.9257 21.4556C15.6325 21.8599 15.0661 21.9487 14.6618 21.6556C14.2575 21.3624 14.1687 20.796 14.4619 20.3917C14.7551 19.9875 15.3215 19.8986 15.7258 20.1918Z" fill="#898989"/>
<path d="M13.2981 24.0033C13.7423 24.2299 13.92 24.7741 13.6934 25.2205C13.4669 25.6648 12.9227 25.8424 12.4762 25.6159C12.032 25.3893 11.8543 24.8451 12.0809 24.3987C12.3074 23.9545 12.8516 23.7768 13.2981 24.0033Z" fill="#474747"/>
<path d="M13.1337 23.8168C13.5779 24.0433 13.7556 24.5875 13.529 25.034C13.3025 25.4782 12.7583 25.6559 12.3119 25.4293C11.8676 25.2028 11.6899 24.6586 11.9165 24.2121C12.143 23.7679 12.6872 23.5902 13.1337 23.8168Z" fill="#E6E7E8"/>
<path d="M13.2158 23.91C13.6601 24.1366 13.8378 24.6808 13.6112 25.1272C13.3847 25.5715 12.8405 25.7492 12.394 25.5226C11.9498 25.296 11.7721 24.7519 11.9986 24.3054C12.2252 23.8612 12.7694 23.6835 13.2158 23.91Z" fill="#898989"/>
<path d="M11.4145 28.057C11.8898 28.2102 12.1497 28.7211 11.9942 29.1964C11.8387 29.6718 11.3301 29.9316 10.8547 29.7762C10.3794 29.6229 10.1195 29.112 10.275 28.6367C10.4283 28.1614 10.9392 27.9015 11.4145 28.057Z" fill="#474747"/>
<path d="M11.2234 27.897C11.6988 28.0503 11.9587 28.5612 11.8032 29.0365C11.6477 29.5118 11.139 29.7717 10.6637 29.6162C10.1884 29.4608 9.92851 28.9521 10.084 28.4768C10.2395 28.0014 10.7481 27.7416 11.2234 27.897Z" fill="#E6E7E8"/>
<path d="M11.319 27.977C11.7943 28.1303 12.0542 28.6411 11.8987 29.1165C11.7432 29.5918 11.2346 29.8517 10.7593 29.6962C10.2839 29.5407 10.024 29.0321 10.1773 28.5567C10.3306 28.0814 10.8415 27.8215 11.3168 27.977H11.319Z" fill="#898989"/>
<path d="M10.1884 32.3527C10.6815 32.4304 11.0191 32.8947 10.9391 33.3878C10.8614 33.8809 10.3972 34.2163 9.9041 34.1385C9.411 34.0608 9.07341 33.5966 9.15337 33.1035C9.23111 32.6104 9.69532 32.2727 10.1884 32.3527Z" fill="#474747"/>
<path d="M9.97517 32.2261C10.4683 32.3039 10.8059 32.7681 10.7259 33.2612C10.6482 33.7543 10.184 34.0919 9.69085 34.0142C9.19775 33.9364 8.86011 33.4722 8.94007 32.9791C9.01781 32.486 9.48207 32.1484 9.97517 32.2283V32.2261Z" fill="#E6E7E8"/>
<path d="M10.0818 32.2883C10.5749 32.366 10.9125 32.8303 10.8326 33.3234C10.7548 33.8165 10.2906 34.1541 9.79751 34.0741C9.30441 33.9964 8.96681 33.5322 9.04455 33.0391C9.12229 32.546 9.5865 32.2083 10.0796 32.2883H10.0818Z" fill="#898989"/>
<path d="M9.6509 36.7884C10.1507 36.7884 10.5549 37.1927 10.5549 37.6924C10.5549 38.1922 10.1507 38.5964 9.6509 38.5964C9.15114 38.5964 8.74687 38.1922 8.74687 37.6924C8.74687 37.1927 9.15114 36.7884 9.6509 36.7884Z" fill="#474747"/>
<path d="M9.41764 36.6974C9.91741 36.6974 10.3217 37.1016 10.3217 37.6014C10.3217 38.1011 9.91741 38.5054 9.41764 38.5054C8.91788 38.5054 8.51361 38.1011 8.51361 37.6014C8.51361 37.1016 8.91788 36.6974 9.41764 36.6974Z" fill="#E6E7E8"/>
<path d="M9.53318 36.7418C10.0329 36.7418 10.4372 37.146 10.4372 37.6458C10.4372 38.1455 10.0329 38.5498 9.53318 38.5498C9.03342 38.5498 8.62915 38.1455 8.62915 37.6458C8.62915 37.146 9.03342 36.7418 9.53318 36.7418Z" fill="#898989"/>
<path d="M9.81079 41.253C10.3039 41.1752 10.7681 41.5106 10.8458 42.006C10.9236 42.4991 10.5882 42.9633 10.0951 43.041C9.60201 43.1188 9.13775 42.7834 9.06001 42.2903C8.98227 41.7972 9.31769 41.3329 9.81079 41.2552V41.253Z" fill="#474747"/>
<path d="M9.56869 41.1997C10.0618 41.1219 10.526 41.4573 10.6037 41.9504C10.6815 42.4435 10.3461 42.9077 9.853 42.9855C9.3599 43.0632 8.8957 42.7278 8.81796 42.2347C8.74022 41.7416 9.07559 41.2774 9.56869 41.1997Z" fill="#E6E7E8"/>
<path d="M9.69084 41.2263C10.1839 41.1486 10.6481 41.484 10.7259 41.9771C10.8036 42.4702 10.4683 42.9344 9.97516 43.0122C9.48206 43.0899 9.0178 42.7545 8.94006 42.2614C8.86232 41.7683 9.19774 41.3041 9.69084 41.2263Z" fill="#898989"/>
<path d="M10.6704 45.6398C11.1457 45.4865 11.6544 45.7464 11.8098 46.2195C11.9631 46.6948 11.7032 47.2035 11.2301 47.359C10.7548 47.5122 10.2439 47.2523 10.0907 46.7792C9.93518 46.3039 10.1972 45.7953 10.6704 45.6398Z" fill="#474747"/>
<path d="M10.4216 45.622C10.8969 45.4665 11.4078 45.7264 11.561 46.2017C11.7143 46.677 11.4544 47.1879 10.9791 47.3412C10.5038 47.4967 9.9951 47.2368 9.83962 46.7615C9.68636 46.2861 9.94626 45.7753 10.4194 45.622H10.4216Z" fill="#E6E7E8"/>
<path d="M10.5459 45.6309C11.0213 45.4777 11.5321 45.7353 11.6854 46.2106C11.8409 46.686 11.581 47.1968 11.1057 47.3501C10.6303 47.5034 10.1195 47.2435 9.96622 46.7704C9.81296 46.295 10.0728 45.7842 10.5459 45.6309Z" fill="#898989"/>
<path d="M12.203 49.8355C12.6472 49.609 13.1914 49.7867 13.4202 50.2309C13.6468 50.6751 13.4691 51.2193 13.0248 51.4481C12.5806 51.6747 12.0364 51.497 11.8098 51.0527C11.5833 50.6085 11.761 50.0643 12.2052 49.8355H12.203Z" fill="#474747"/>
<path d="M11.9542 49.86C12.3984 49.6334 12.9426 49.8089 13.1714 50.2554C13.398 50.6996 13.2203 51.246 12.776 51.4726C12.3318 51.6991 11.7876 51.5214 11.5588 51.0772C11.3323 50.633 11.51 50.0865 11.9542 49.86Z" fill="#E6E7E8"/>
<path d="M12.0786 49.8467C12.5228 49.6201 13.0692 49.7956 13.2958 50.242C13.5224 50.6862 13.3469 51.2304 12.9004 51.457C12.4562 51.6836 11.9098 51.5059 11.6832 51.0616C11.4567 50.6174 11.6344 50.071 12.0786 49.8467Z" fill="#898989"/>
<path d="M14.3753 53.7404C14.7796 53.4472 15.3437 53.536 15.6391 53.9403C15.9323 54.3445 15.8435 54.9087 15.4392 55.2041C15.0349 55.4973 14.4686 55.4085 14.1754 55.0042C13.8822 54.6 13.9711 54.0358 14.3753 53.7404Z" fill="#474747"/>
<path d="M14.1332 53.8026C14.5374 53.5094 15.1038 53.5982 15.397 54.0025C15.6902 54.4067 15.6014 54.9731 15.1971 55.2663C14.7929 55.5595 14.2287 55.4707 13.9332 55.0664C13.64 54.6622 13.7289 54.0958 14.1332 53.8026Z" fill="#E6E7E8"/>
<path d="M14.2531 53.7715C14.6574 53.4783 15.2238 53.5671 15.517 53.9714C15.8102 54.3756 15.7213 54.9398 15.3171 55.233C14.9128 55.5262 14.3464 55.4374 14.0532 55.0331C13.76 54.6288 13.8489 54.0647 14.2531 53.7693V53.7715Z" fill="#898989"/>
<path d="M17.1296 57.2587C17.4827 56.9055 18.0558 56.9055 18.409 57.2587C18.7621 57.6119 18.7621 58.1849 18.409 58.5381C18.0558 58.8913 17.4827 58.8913 17.1296 58.5381C16.7764 58.1849 16.7764 57.6119 17.1296 57.2587Z" fill="#474747"/>
<path d="M16.9008 57.3587C17.254 57.0055 17.827 57.0055 18.1802 57.3587C18.5334 57.7118 18.5334 58.2849 18.1802 58.6381C17.827 58.9912 17.254 58.9912 16.9008 58.6381C16.5476 58.2849 16.5476 57.7118 16.9008 57.3587Z" fill="#E6E7E8"/>
<path d="M17.0163 57.3076C17.3695 56.9544 17.9425 56.9544 18.2957 57.3076C18.6489 57.6607 18.6489 58.2316 18.2957 58.5847C17.9425 58.9379 17.3695 58.9379 17.0163 58.5847C16.6631 58.2316 16.6631 57.6585 17.0163 57.3054V57.3076Z" fill="#898989"/>
<path d="M20.4013 60.3017C20.6945 59.8975 21.2609 59.8086 21.6652 60.1018C22.0694 60.395 22.1583 60.9614 21.8651 61.3656C21.5719 61.7699 21.0055 61.8588 20.6012 61.5656C20.197 61.2724 20.1081 60.706 20.4013 60.3017Z" fill="#474747"/>
<path d="M20.1903 60.435C20.4835 60.0307 21.0499 59.9419 21.4542 60.2351C21.8584 60.5283 21.9473 61.0947 21.6541 61.4989C21.3609 61.9032 20.7945 61.992 20.3902 61.6988C19.986 61.4056 19.8971 60.8392 20.1903 60.435Z" fill="#E6E7E8"/>
<path d="M20.297 60.3683C20.5901 59.9641 21.1565 59.8752 21.5608 60.1684C21.965 60.4616 22.0539 61.028 21.7607 61.43C21.4675 61.8343 20.9011 61.9231 20.4968 61.63C20.0926 61.3368 20.0038 60.7704 20.297 60.3661V60.3683Z" fill="#898989"/>
<path d="M24.1107 62.7961C24.3372 62.3519 24.8814 62.1742 25.3279 62.4008C25.7721 62.6273 25.9498 63.1715 25.7232 63.618C25.4967 64.0622 24.9525 64.2399 24.506 64.0133C24.0618 63.7868 23.8841 63.2426 24.1107 62.7984V62.7961Z" fill="#474747"/>
<path d="M23.9218 62.9605C24.1484 62.5163 24.6926 62.3386 25.139 62.5651C25.5833 62.7917 25.761 63.3359 25.5344 63.7823C25.3079 64.2266 24.7636 64.4043 24.3172 64.1777C23.8729 63.9512 23.6953 63.407 23.9218 62.9605Z" fill="#E6E7E8"/>
<path d="M24.0152 62.8783C24.2417 62.4341 24.7859 62.2564 25.2324 62.483C25.6766 62.7095 25.8543 63.2537 25.6277 63.7002C25.4012 64.1444 24.857 64.3221 24.4105 64.0955C23.9663 63.869 23.7886 63.3248 24.0152 62.8805V62.8783Z" fill="#898989"/>
<path d="M28.1621 64.6797C28.3175 64.2044 28.8262 63.9445 29.3015 64.1C29.7769 64.2532 30.0367 64.7641 29.8812 65.2394C29.728 65.7148 29.2171 65.9746 28.7418 65.8191C28.2665 65.6659 28.0066 65.155 28.1621 64.6797Z" fill="#474747"/>
<path d="M28.0021 64.8707C28.1554 64.3954 28.6663 64.1355 29.1416 64.291C29.617 64.4465 29.8768 64.9551 29.7213 65.4304C29.5658 65.9058 29.0572 66.1656 28.5819 66.0102C28.1066 65.8547 27.8467 65.3438 28.0021 64.8707Z" fill="#E6E7E8"/>
<path d="M28.0821 64.7752C28.2354 64.2999 28.7462 64.04 29.2216 64.1955C29.6969 64.351 29.9568 64.8596 29.8013 65.3349C29.6458 65.8103 29.1372 66.0701 28.6618 65.9147C28.1865 65.7614 27.9266 65.2505 28.0821 64.7752Z" fill="#898989"/>
<path d="M32.4579 65.9058C32.5356 65.4127 32.9998 65.0773 33.4929 65.155C33.986 65.2328 34.3237 65.697 34.2437 66.1901C34.166 66.6832 33.7017 67.0186 33.2086 66.9409C32.7155 66.8631 32.3779 66.3989 32.4579 65.9058Z" fill="#474747"/>
<path d="M32.3313 66.119C32.409 65.6259 32.8733 65.2883 33.3664 65.366C33.8595 65.4438 34.1971 65.908 34.1171 66.4011C34.0393 66.8942 33.5751 67.2318 33.082 67.1518C32.5889 67.0741 32.2513 66.6099 32.3313 66.1168V66.119Z" fill="#E6E7E8"/>
<path d="M32.3957 66.0124C32.4734 65.5193 32.9376 65.1817 33.4307 65.2616C33.9238 65.3394 34.2593 65.8036 34.1815 66.2967C34.1038 66.7898 33.6395 67.1274 33.1464 67.0475C32.6533 66.9697 32.318 66.5055 32.3957 66.0124Z" fill="#898989"/>
<path d="M36.8935 66.4432C36.8935 65.9435 37.3 65.5392 37.7976 65.5392C38.2973 65.5392 38.7015 65.9435 38.7015 66.4432C38.7015 66.943 38.2973 67.3473 37.7976 67.3473C37.2978 67.3473 36.8935 66.943 36.8935 66.4432Z" fill="#474747"/>
<path d="M36.8025 66.6765C36.8025 66.1767 37.2067 65.7725 37.7065 65.7725C38.2062 65.7725 38.6105 66.1767 38.6105 66.6765C38.6105 67.1762 38.204 67.5805 37.7065 67.5805C37.2067 67.5805 36.8025 67.174 36.8025 66.6765Z" fill="#E6E7E8"/>
<path d="M36.8491 66.5587C36.8491 66.059 37.2534 65.6547 37.7531 65.6547C38.2529 65.6547 38.6571 66.059 38.6571 66.5587C38.6571 67.0585 38.2529 67.4628 37.7531 67.4628C37.2534 67.4628 36.8491 67.0585 36.8491 66.5587Z" fill="#898989"/>
<path d="M41.3603 66.2811C41.2826 65.788 41.6202 65.326 42.1133 65.2461C42.6064 65.1683 43.0706 65.5037 43.1483 65.9991C43.2261 66.4922 42.8907 66.9564 42.3976 67.0341C41.9045 67.1119 41.4403 66.7765 41.3626 66.2834L41.3603 66.2811Z" fill="#474747"/>
<path d="M41.3048 66.5255C41.2271 66.0324 41.5624 65.5682 42.0555 65.4904C42.5486 65.4127 43.0128 65.7481 43.0906 66.2434C43.1683 66.7365 42.8307 67.2007 42.3399 67.2784C41.8468 67.3562 41.3826 67.0186 41.3048 66.5277V66.5255Z" fill="#E6E7E8"/>
<path d="M41.3314 66.4033C41.2537 65.9102 41.5891 65.446 42.0822 65.3682C42.5753 65.2905 43.0395 65.6259 43.1173 66.119C43.195 66.6121 42.8596 67.0763 42.3665 67.1541C41.8734 67.2318 41.4092 66.8964 41.3314 66.4011V66.4033Z" fill="#898989"/>
<path d="M45.7449 65.4238C45.5917 64.9485 45.8515 64.4398 46.3269 64.2843C46.8022 64.1311 47.3131 64.391 47.4663 64.8641C47.6218 65.3394 47.3619 65.848 46.8844 66.0035C46.409 66.1568 45.8982 65.8969 45.7449 65.4238Z" fill="#474747"/>
<path d="M45.7294 65.6748C45.5739 65.1995 45.836 64.6886 46.3091 64.5353C46.7844 64.3798 47.2953 64.6397 47.4486 65.115C47.6018 65.5904 47.3419 66.1012 46.8666 66.2545C46.3912 66.41 45.8804 66.1479 45.7271 65.6748H45.7294Z" fill="#E6E7E8"/>
<path d="M45.7361 65.5482C45.5828 65.0728 45.8404 64.562 46.3157 64.4087C46.7911 64.2555 47.2998 64.5131 47.4552 64.9884C47.6085 65.4638 47.3486 65.9746 46.8755 66.1279C46.4002 66.2834 45.8915 66.0213 45.7361 65.5482Z" fill="#898989"/>
<path d="M49.9407 63.8911C49.7141 63.4469 49.8918 62.9005 50.3361 62.6739C50.7803 62.4474 51.3267 62.6251 51.5533 63.0693C51.7798 63.5158 51.6021 64.06 51.1579 64.2865C50.7137 64.5131 50.1695 64.3354 49.9407 63.8911Z" fill="#474747"/>
<path d="M49.9651 64.1399C49.7386 63.6957 49.914 63.1493 50.3605 62.9227C50.8047 62.6962 51.3512 62.8716 51.5777 63.3181C51.8043 63.7623 51.6266 64.3065 51.1823 64.5353C50.7381 64.7619 50.1917 64.5842 49.9651 64.1399Z" fill="#E6E7E8"/>
<path d="M49.954 64.0155C49.7275 63.5713 49.9052 63.0249 50.3494 62.8006C50.7936 62.574 51.3378 62.7495 51.5644 63.1959C51.7909 63.6402 51.6132 64.1866 51.169 64.4131C50.7248 64.6397 50.1806 64.462 49.9518 64.0178L49.954 64.0155Z" fill="#898989"/>
<path d="M53.8477 61.7188C53.5545 61.3146 53.6456 60.7482 54.0476 60.455C54.4518 60.1618 55.016 60.2506 55.3114 60.6549C55.6046 61.0591 55.5158 61.6233 55.1115 61.9187C54.7073 62.2119 54.1431 62.1231 53.8477 61.7188Z" fill="#474747"/>
<path d="M53.9077 61.9609C53.6145 61.5567 53.7033 60.9903 54.1076 60.6971C54.5118 60.4039 55.0782 60.4927 55.3714 60.897C55.6646 61.3012 55.5758 61.8676 55.1715 62.1608C54.7673 62.454 54.2009 62.363 53.9077 61.9609Z" fill="#E6E7E8"/>
<path d="M53.8788 61.8388C53.5856 61.4345 53.6745 60.8703 54.0787 60.5749C54.483 60.2817 55.0471 60.3706 55.3403 60.7748C55.6335 61.1791 55.5446 61.7455 55.1404 62.0387C54.7361 62.3319 54.1698 62.243 53.8766 61.8388H53.8788Z" fill="#898989"/>
<path d="M57.3638 58.9624C57.0107 58.6092 57.0107 58.0361 57.3638 57.683C57.717 57.3298 58.2901 57.3298 58.6432 57.683C58.9964 58.0361 58.9964 58.6092 58.6432 58.9624C58.2901 59.3155 57.717 59.3155 57.3638 58.9624Z" fill="#474747"/>
<path d="M57.4638 59.1934C57.1107 58.8402 57.1107 58.2672 57.4638 57.914C57.817 57.5608 58.39 57.5608 58.7432 57.914C59.0964 58.2672 59.0964 58.8402 58.7432 59.1934C58.39 59.5466 57.817 59.5466 57.4638 59.1934Z" fill="#E6E7E8"/>
<path d="M57.4149 59.0779C57.0617 58.7247 57.0617 58.1517 57.4149 57.7985C57.7681 57.4453 58.3411 57.4453 58.6943 57.7985C59.0475 58.1517 59.0475 58.7247 58.6943 59.0779C58.3411 59.4311 57.7681 59.4311 57.4149 59.0779Z" fill="#898989"/>
<path d="M60.4069 55.6906C60.0026 55.3974 59.9137 54.831 60.2069 54.4267C60.5001 54.0225 61.0665 53.9336 61.4707 54.2268C61.875 54.52 61.9639 55.0864 61.6707 55.4906C61.3775 55.8949 60.8111 55.9838 60.4069 55.6906Z" fill="#474747"/>
<path d="M60.5423 55.9038C60.1381 55.6106 60.0492 55.0442 60.3424 54.6399C60.6356 54.2357 61.202 54.1468 61.6063 54.44C62.0105 54.7332 62.0994 55.2996 61.8062 55.7039C61.513 56.1081 60.9466 56.197 60.5423 55.9038Z" fill="#E6E7E8"/>
<path d="M60.4735 55.7971C60.0692 55.504 59.9804 54.9376 60.2736 54.5333C60.5668 54.129 61.1309 54.0402 61.5352 54.3334C61.9394 54.6266 62.0283 55.193 61.7351 55.5972C61.4419 56.0015 60.8755 56.0903 60.4712 55.7971H60.4735Z" fill="#898989"/>
<path d="M62.9012 51.9834C62.457 51.7569 62.2793 51.2127 62.5059 50.7685C62.7324 50.3242 63.2766 50.1465 63.7231 50.3731C64.1673 50.5997 64.345 51.1438 64.1184 51.5903C63.8919 52.0345 63.3477 52.2122 62.9035 51.9857L62.9012 51.9834Z" fill="#474747"/>
<path d="M63.0656 52.1723C62.6191 51.9457 62.4436 51.4015 62.6702 50.9551C62.8968 50.5108 63.4409 50.3332 63.8874 50.5597C64.3316 50.7863 64.5093 51.3305 64.2828 51.7769C64.0562 52.2211 63.512 52.3988 63.0656 52.1723Z" fill="#E6E7E8"/>
<path d="M62.9834 52.079C62.5392 51.8524 62.3615 51.3082 62.588 50.8618C62.8146 50.4176 63.3588 50.2399 63.803 50.4664C64.2472 50.693 64.4249 51.2394 64.1984 51.6836C63.9718 52.1279 63.4276 52.3056 62.9812 52.079H62.9834Z" fill="#898989"/>
<path d="M64.7848 47.932C64.3094 47.7788 64.0495 47.2679 64.205 46.7926C64.3605 46.3172 64.8692 46.0574 65.3445 46.2128C65.8198 46.3661 66.0797 46.877 65.9242 47.3523C65.7709 47.8276 65.2601 48.0875 64.7848 47.932Z" fill="#474747"/>
<path d="M64.978 48.0919C64.5027 47.9364 64.2428 47.4278 64.3983 46.9524C64.5516 46.4771 65.0624 46.2172 65.5377 46.3727C66.0131 46.5282 66.273 47.0369 66.1175 47.5122C65.962 47.9875 65.4533 48.2474 64.978 48.0941V48.0919Z" fill="#E6E7E8"/>
<path d="M64.8803 48.012C64.4072 47.8565 64.1451 47.3478 64.3005 46.8725C64.4538 46.3972 64.9647 46.1373 65.44 46.2928C65.9154 46.4483 66.1752 46.9569 66.0197 47.4322C65.8665 47.9076 65.3556 48.1674 64.8803 48.012Z" fill="#898989"/>
<path d="M66.0109 43.6363C65.5178 43.5585 65.1824 43.0943 65.2601 42.6012C65.3378 42.1081 65.8021 41.7727 66.2952 41.8505C66.7883 41.9282 67.1237 42.3924 67.0459 42.8855C66.9682 43.3786 66.504 43.714 66.0109 43.6363Z" fill="#474747"/>
<path d="M66.2263 43.7629C65.7332 43.6851 65.3956 43.2209 65.4755 42.7278C65.5533 42.2347 66.0175 41.8971 66.5106 41.9771C67.0037 42.0548 67.3413 42.519 67.2636 43.0121C67.1858 43.5052 66.7216 43.8428 66.2285 43.7651L66.2263 43.7629Z" fill="#E6E7E8"/>
<path d="M66.1175 43.6985C65.6244 43.6207 65.2867 43.1565 65.3667 42.6634C65.4444 42.1703 65.9065 41.8349 66.4018 41.9127C66.8949 41.9904 67.2325 42.4546 67.1525 42.9477C67.0748 43.4408 66.6106 43.7784 66.1175 43.6985Z" fill="#898989"/>
<path d="M66.5484 39.2006C66.0486 39.2006 65.6443 38.7941 65.6443 38.2966C65.6443 37.7968 66.0486 37.3926 66.5484 37.3926C67.0481 37.3926 67.4524 37.7968 67.4524 38.2966C67.4524 38.7941 67.0481 39.2006 66.5484 39.2006Z" fill="#474747"/>
<path d="M66.7816 39.2917C66.2819 39.2917 65.8776 38.8852 65.8776 38.3877C65.8776 37.8879 66.2819 37.4837 66.7816 37.4837C67.2814 37.4837 67.6856 37.8879 67.6856 38.3877C67.6856 38.8875 67.2792 39.2917 66.7816 39.2917Z" fill="#E6E7E8"/>
<path d="M66.6661 39.2451C66.1664 39.2451 65.7621 38.8408 65.7621 38.3411C65.7621 37.8413 66.1664 37.437 66.6661 37.437C67.1659 37.437 67.5702 37.8435 67.5702 38.3411C67.5702 38.8408 67.1659 39.2451 66.6661 39.2451Z" fill="#898989"/>
<path d="M66.3885 34.7338C65.8954 34.8116 65.4333 34.4739 65.3534 33.9808C65.2756 33.4877 65.6111 33.0235 66.1042 32.9458C66.5973 32.868 67.0615 33.2034 67.1392 33.6987C67.2169 34.1918 66.8816 34.6539 66.3885 34.7338Z" fill="#474747"/>
<path d="M66.6328 34.7893C66.1397 34.8671 65.6755 34.5294 65.5977 34.0363C65.52 33.5432 65.8554 33.079 66.3485 33.0013C66.8416 32.9235 67.3058 33.2589 67.3835 33.752C67.4613 34.2451 67.1236 34.7094 66.6328 34.7871V34.7893Z" fill="#E6E7E8"/>
<path d="M66.5106 34.7627C66.0175 34.8404 65.5533 34.505 65.4755 34.0097C65.3978 33.5166 65.7332 33.0546 66.2263 32.9746C66.7194 32.8969 67.1836 33.2323 67.2614 33.7254C67.3391 34.2185 67.0037 34.6827 66.5106 34.7605V34.7627Z" fill="#898989"/>
<path d="M65.5289 30.3492C65.0535 30.5047 64.5449 30.2426 64.3894 29.7695C64.2339 29.2942 64.496 28.7855 64.9691 28.6301C65.4444 28.4768 65.9531 28.7367 66.1086 29.212C66.2619 29.6873 66.002 30.196 65.5266 30.3515L65.5289 30.3492Z" fill="#474747"/>
<path d="M65.7798 30.3648C65.3045 30.5203 64.7936 30.2582 64.6403 29.7829C64.4849 29.3075 64.7448 28.7989 65.2201 28.6434C65.6954 28.4901 66.2063 28.75 66.3595 29.2231C66.515 29.6985 66.2529 30.2093 65.7798 30.3626V30.3648Z" fill="#E6E7E8"/>
<path d="M65.6554 30.3582C65.1801 30.5114 64.6715 30.2515 64.516 29.7762C64.3605 29.3009 64.6204 28.7922 65.0957 28.6368C65.571 28.4835 66.0819 28.7434 66.2352 29.2165C66.3907 29.6918 66.1285 30.2027 65.6554 30.3559V30.3582Z" fill="#898989"/>
<path d="M63.9963 26.1535C63.552 26.38 63.0079 26.2023 62.7791 25.7581C62.5525 25.3138 62.7302 24.7674 63.1744 24.5409C63.6187 24.3143 64.1629 24.492 64.3916 24.9362C64.6182 25.3805 64.4405 25.9247 63.9963 26.1535Z" fill="#474747"/>
<path d="M64.245 26.129C63.7985 26.3556 63.2543 26.1779 63.0278 25.7336C62.8012 25.2894 62.9767 24.7452 63.4232 24.5164C63.8674 24.2899 64.4138 24.4676 64.6404 24.9118C64.8669 25.356 64.6892 25.9024 64.245 26.129Z" fill="#E6E7E8"/>
<path d="M64.1206 26.1401C63.6764 26.3667 63.1322 26.189 62.9034 25.7448C62.6769 25.3005 62.8545 24.7563 63.2987 24.5298C63.743 24.3032 64.2894 24.4809 64.516 24.9251C64.7426 25.3694 64.5649 25.9158 64.1206 26.1423V26.1401Z" fill="#898989"/>
<path d="M61.824 22.2464C61.4197 22.5396 60.8533 22.4485 60.5602 22.0465C60.267 21.6422 60.3558 21.0758 60.76 20.7826C61.1643 20.4895 61.7285 20.5783 62.0239 20.9826C62.3171 21.3868 62.2282 21.951 61.824 22.2464Z" fill="#474747"/>
<path d="M62.0683 22.1864C61.6641 22.4796 61.0976 22.3908 60.8044 21.9865C60.5112 21.5823 60.6001 21.0181 61.0044 20.7227C61.4086 20.4295 61.975 20.5183 62.2682 20.9226C62.5614 21.3268 62.4726 21.8932 62.0683 22.1864Z" fill="#E6E7E8"/>
<path d="M61.9462 22.2153C61.5419 22.5085 60.9777 22.4197 60.6823 22.0154C60.3891 21.6112 60.478 21.047 60.8822 20.7538C61.2865 20.4606 61.8528 20.5494 62.146 20.9537C62.4392 21.3579 62.3504 21.9221 61.9462 22.2175V22.2153Z" fill="#898989"/>
<path d="M59.0697 18.7303C58.7165 19.0835 58.1435 19.0835 57.7903 18.7303C57.4371 18.3771 57.4371 17.8041 57.7903 17.4509C58.1435 17.0977 58.7165 17.0977 59.0697 17.4509C59.4229 17.8041 59.4229 18.3771 59.0697 18.7303Z" fill="#474747"/>
<path d="M59.2985 18.6304C58.9453 18.9835 58.3723 18.9835 58.0191 18.6304C57.6659 18.2772 57.6659 17.7041 58.0191 17.351C58.3723 16.9978 58.9453 16.9978 59.2985 17.351C59.6517 17.7041 59.6517 18.2772 59.2985 18.6304Z" fill="#E6E7E8"/>
<path d="M59.183 18.6792C58.8298 19.0324 58.2568 19.0324 57.9036 18.6792C57.5504 18.3261 57.5504 17.7552 57.9036 17.3998C58.2568 17.0467 58.8298 17.0467 59.183 17.3998C59.5362 17.753 59.5362 18.3261 59.183 18.6792Z" fill="#898989"/>
<path d="M55.798 15.6873C55.5048 16.0916 54.9383 16.1804 54.5341 15.8872C54.1298 15.594 54.041 15.0276 54.3342 14.6234C54.6274 14.2191 55.1916 14.1303 55.598 14.4235C56.0023 14.7167 56.0912 15.2831 55.798 15.6873Z" fill="#474747"/>
<path d="M56.009 15.554C55.7158 15.9583 55.1494 16.0471 54.7451 15.7539C54.3409 15.4607 54.252 14.8943 54.5452 14.4901C54.8384 14.0858 55.4048 13.997 55.809 14.2902C56.2133 14.5834 56.3021 15.1498 56.009 15.554Z" fill="#E6E7E8"/>
<path d="M55.9024 15.6207C55.6092 16.0249 55.0427 16.1138 54.6385 15.8206C54.2342 15.5274 54.1454 14.9632 54.4386 14.5567C54.7318 14.1525 55.2982 14.0636 55.7024 14.3568C56.1067 14.65 56.1956 15.2164 55.9024 15.6207Z" fill="#898989"/>
<path d="M52.0908 13.1929C51.8642 13.6372 51.3201 13.8149 50.8736 13.5883C50.4294 13.3617 50.2517 12.8176 50.4782 12.3711C50.7048 11.9269 51.249 11.7492 51.6954 11.9757C52.1397 12.2023 52.3174 12.7465 52.0908 13.1929Z" fill="#474747"/>
<path d="M52.2774 13.0286C52.0508 13.475 51.5044 13.6505 51.0602 13.4239C50.616 13.1974 50.4383 12.6532 50.6648 12.2067C50.8914 11.7625 51.4356 11.5848 51.882 11.8114C52.3263 12.0379 52.504 12.5843 52.2774 13.0286Z" fill="#E6E7E8"/>
<path d="M52.1841 13.1107C51.9576 13.555 51.4134 13.7326 50.9692 13.5061C50.5249 13.2795 50.3472 12.7353 50.5738 12.2911C50.8003 11.8469 51.3445 11.6692 51.791 11.8957C52.2352 12.1223 52.4129 12.6665 52.1864 13.1129L52.1841 13.1107Z" fill="#898989"/>
<path d="M48.0371 11.3094C47.8838 11.7847 47.373 12.0446 46.8977 11.8891C46.4223 11.7358 46.1624 11.225 46.3157 10.7496C46.4712 10.2743 46.9798 10.0144 47.4552 10.1699C47.9283 10.3232 48.1904 10.834 48.0349 11.3094H48.0371Z" fill="#474747"/>
<path d="M48.197 11.1161C48.0415 11.5915 47.5307 11.8513 47.0576 11.6959C46.5822 11.5426 46.3223 11.0317 46.4778 10.5564C46.6311 10.0811 47.142 9.82119 47.6173 9.97667C48.0926 10.1299 48.3525 10.643 48.1992 11.1161H48.197Z" fill="#E6E7E8"/>
<path d="M48.1171 11.2139C47.9616 11.6892 47.4529 11.9491 46.9776 11.7936C46.5022 11.6403 46.2424 11.1295 46.3979 10.6541C46.5534 10.1788 47.062 9.91894 47.5373 10.0744C48.0126 10.2277 48.2725 10.7385 48.1171 11.2139Z" fill="#898989"/>
<path d="M43.7414 10.0833C43.6637 10.5764 43.1994 10.9118 42.7063 10.834C42.2132 10.7563 41.8756 10.2921 41.9556 9.79896C42.0333 9.30586 42.4953 8.97047 42.9906 9.04821C43.4837 9.12595 43.8191 9.59017 43.7414 10.0833Z" fill="#474747"/>
<path d="M43.868 9.86782C43.7902 10.3609 43.326 10.6985 42.8329 10.6186C42.3398 10.5408 42.0022 10.0766 42.0822 9.58351C42.1599 9.09041 42.6241 8.75502 43.1172 8.83276C43.6103 8.9105 43.9479 9.37472 43.8702 9.86782H43.868Z" fill="#E6E7E8"/>
<path d="M43.8058 9.97666C43.7281 10.4698 43.2638 10.8052 42.7707 10.7274C42.2776 10.6497 41.9423 10.1877 42.02 9.69235C42.0977 9.19925 42.562 8.86163 43.0551 8.9416C43.5482 9.01934 43.8858 9.48356 43.8058 9.97666Z" fill="#898989"/>
<path d="M46.7955 30.8934C46.7466 30.9823 46.7799 31.0933 46.8687 31.1422C48.4969 32.0284 49.7829 32.9969 50.7602 33.8787C50.8535 33.9631 50.8269 34.1208 50.7091 34.1652C50.7091 34.1652 50.7091 34.1652 50.7069 34.1652C50.2627 34.3296 49.8207 34.2785 49.3787 34.1652C48.4924 33.9364 47.6906 33.51 46.8865 33.0924C45.5494 32.3972 44.2345 31.6575 42.804 31.1622C42.4575 31.0422 42.1044 30.9334 41.7512 30.8379C41.6801 30.8179 41.5557 30.8534 41.5046 30.909C39.9654 32.6548 37.9641 33.4766 35.7162 33.7943C33.7816 34.0697 31.8581 33.9542 29.9479 33.5699C29.9257 33.5655 29.9057 33.5544 29.8368 33.53C29.9501 33.4878 30.0278 33.4589 30.1056 33.43C31.305 32.9969 32.3956 32.3883 33.3041 31.4776C33.9904 30.789 34.4791 29.985 34.699 29.0299C34.719 28.9432 34.7301 28.8544 34.7523 28.73C34.2481 28.7211 33.7638 28.7056 33.2819 28.7034C31.0007 28.6967 28.744 28.9144 26.545 29.5518C24.1239 30.256 21.9561 31.3954 20.248 33.2945C18.7199 34.9959 17.7914 36.975 17.6293 39.2783C17.6026 39.6648 17.6381 40.058 17.6737 40.4445C17.7403 41.133 18.1224 41.6261 18.7465 41.8838C19.444 42.1725 20.1636 42.4102 20.8833 42.6456C21.8361 42.9588 22.7646 43.3075 23.542 43.9672C24.4527 44.7358 24.9725 45.9507 25.0124 47.1413C24.5638 46.3283 23.7974 46.0951 22.9911 45.9818C22.1538 45.8641 21.3053 45.8175 20.4635 45.7308C20.2169 45.7064 19.9726 45.6709 19.7305 45.622C19.3618 45.5443 19.0086 45.4221 18.7132 45.1289C18.6976 45.331 18.7021 45.5154 18.6665 45.6931C18.5888 46.0929 18.3756 46.4305 18.1246 46.7415C17.8647 47.0613 17.5959 47.3723 17.3338 47.6899C16.4654 48.7383 16.05 49.6357 16.361 51.1127C16.1478 50.824 15.9278 50.5419 15.7257 50.2443C14.724 48.7805 14.5618 47.2101 15.1371 45.5487C15.3615 44.8979 15.5902 44.2471 15.8012 43.5896C16.1722 42.4346 16.1477 41.2818 15.7124 40.1513C14.7573 37.668 14.6529 35.1248 15.2659 32.5682C16.5231 27.3107 19.5839 23.3836 24.2373 20.6805C25.5855 19.8986 27.0404 19.35 28.5552 18.9768C28.6285 18.9591 28.7018 18.9413 28.7729 18.9191C28.7862 18.9169 28.7973 18.9035 28.8417 18.8747C27.7889 17.1088 26.2319 15.9583 24.4261 15.0543C24.9303 15.032 25.4322 14.9921 25.9364 14.9876C27.8044 14.9721 29.6258 15.263 31.385 15.9027C32.9798 16.4847 34.4146 17.3354 35.6652 18.4949C35.7651 18.5881 35.9162 18.6592 36.0539 18.677C38.4705 19.0301 40.7605 19.7432 42.8284 21.0714C45.7471 22.9461 47.6839 25.5782 48.7346 28.8655C48.9589 29.5674 49.2854 30.1849 49.7296 30.7602C50.1272 31.2755 50.5115 31.8019 50.8757 32.3394C51.0401 32.5815 51.1623 32.8503 51.2445 33.1301V33.1368C51.3222 33.3945 51.0157 33.5899 50.8135 33.4145C49.8451 32.5682 48.6013 31.6553 47.042 30.8068C46.9531 30.7579 46.8399 30.7913 46.7933 30.8823L46.7955 30.8934Z" fill="#292929"/>
<path d="M46.6533 30.5914C46.6044 30.6802 46.6378 30.7913 46.7266 30.8401C48.3547 31.7264 49.6408 32.6948 50.6181 33.5766C50.7114 33.661 50.6848 33.8187 50.567 33.8631C50.567 33.8631 50.567 33.8631 50.5648 33.8631C50.1206 34.0275 49.6786 33.9764 49.2366 33.8631C48.3503 33.6344 47.5485 33.2079 46.7444 32.7903C45.4073 32.0951 44.0923 31.3555 42.6619 30.8601C42.3154 30.7402 41.9622 30.6313 41.609 30.5358C41.538 30.5158 41.4136 30.5514 41.3625 30.6069C39.8232 32.3528 37.822 33.1746 35.5741 33.4922C33.6395 33.7676 31.716 33.6521 29.8058 33.2679C29.7835 33.2634 29.7636 33.2523 29.6947 33.2279C29.808 33.1857 29.8857 33.1568 29.9635 33.1279C31.1629 32.6948 32.2535 32.0862 33.1619 31.1755C33.8483 30.487 34.3369 29.6829 34.5568 28.7278C34.5768 28.6412 34.5879 28.5523 34.6101 28.4279C34.1059 28.4191 33.6217 28.4035 33.1397 28.4013C30.8586 28.3946 28.6019 28.6123 26.4029 29.2498C23.9818 29.9539 21.8139 31.0934 20.1059 32.9925C18.5777 34.6939 17.6492 36.6729 17.4871 38.9763C17.4604 39.3628 17.496 39.7559 17.5316 40.1424C17.5982 40.831 17.9802 41.3241 18.6044 41.5817C19.3018 41.8705 20.0215 42.1081 20.7411 42.3436C21.694 42.6568 22.6225 43.0055 23.3999 43.6652C24.3106 44.4337 24.8303 45.6487 24.8703 46.8392C24.4216 46.0263 23.6553 45.7931 22.849 45.6798C22.0117 45.5621 21.1631 45.5154 20.3213 45.4288C20.0748 45.4044 19.8305 45.3688 19.5884 45.32C19.2197 45.2422 18.8665 45.12 18.5711 44.8268C18.5555 45.029 18.56 45.2133 18.5244 45.391C18.4467 45.7908 18.2335 46.1285 17.9825 46.4394C17.7226 46.7593 17.4538 47.0702 17.1917 47.3879C16.3232 48.4363 15.9079 49.3336 16.2188 50.8107C16.0056 50.5219 15.7857 50.2398 15.5836 49.9422C14.5818 48.4785 14.4197 46.9081 14.995 45.2466C15.2193 44.5958 15.4481 43.945 15.6591 43.2876C16.03 42.1326 16.0056 40.9798 15.5703 39.8492C14.6152 37.3659 14.5108 34.8227 15.1238 32.2661C16.381 27.0086 19.4417 23.0816 24.0951 20.3784C25.4433 19.5966 26.8982 19.0479 28.4131 18.6748C28.4864 18.657 28.5597 18.6392 28.6308 18.617C28.6441 18.6148 28.6552 18.6015 28.6996 18.5726C27.6468 16.8068 26.0897 15.6562 24.2839 14.7522C24.7881 14.73 25.2901 14.69 25.7943 14.6856C27.6623 14.67 29.4837 14.961 31.2428 15.6007C32.8377 16.1826 34.2725 17.0333 35.5231 18.1928C35.623 18.2861 35.774 18.3572 35.9118 18.3749C38.3284 18.7281 40.6184 19.4411 42.6863 20.7693C45.6049 22.644 47.5418 25.2761 48.5924 28.5634C48.8167 29.2653 49.1432 29.8828 49.5875 30.4581C49.9851 30.9734 50.3694 31.4998 50.7336 32.0374C50.898 32.2795 51.0201 32.5482 51.1023 32.8281V32.8347C51.1801 33.0924 50.8736 33.2879 50.6714 33.1124C49.703 32.2661 48.4591 31.3532 46.8999 30.5047C46.811 30.4559 46.6977 30.4892 46.6511 30.5803L46.6533 30.5914Z" fill="url(#paint3_radial_68_39637)"/>
<g opacity="0.69">
<path d="M46.6533 30.5914C46.6044 30.6802 46.6378 30.7913 46.7266 30.8401C48.3547 31.7264 49.6408 32.6948 50.6181 33.5766C50.7114 33.661 50.6848 33.8187 50.567 33.8631C50.567 33.8631 50.567 33.8631 50.5648 33.8631C50.1206 34.0275 49.6786 33.9764 49.2366 33.8631C48.3503 33.6344 47.5485 33.2079 46.7444 32.7903C45.4073 32.0951 44.0923 31.3555 42.6619 30.8601C42.3154 30.7402 41.9622 30.6313 41.609 30.5358C41.538 30.5158 41.4136 30.5514 41.3625 30.6069C39.8232 32.3528 37.822 33.1746 35.5741 33.4922C33.6395 33.7676 31.716 33.6521 29.8058 33.2679C29.7835 33.2634 29.7636 33.2523 29.6947 33.2279C29.808 33.1857 29.8857 33.1568 29.9635 33.1279C31.1629 32.6948 32.2535 32.0862 33.1619 31.1755C33.8483 30.487 34.3369 29.6829 34.5568 28.7278C34.5768 28.6412 34.5879 28.5523 34.6101 28.4279C34.1059 28.4191 33.6217 28.4035 33.1397 28.4013C30.8586 28.3946 28.6019 28.6123 26.4029 29.2498C23.9818 29.9539 21.8139 31.0934 20.1059 32.9925C18.5777 34.6939 17.6492 36.6729 17.4871 38.9763C17.4604 39.3628 17.496 39.7559 17.5316 40.1424C17.5982 40.831 17.9802 41.3241 18.6044 41.5817C19.3018 41.8705 20.0215 42.1081 20.7411 42.3436C21.694 42.6568 22.6225 43.0055 23.3999 43.6652C24.3106 44.4337 24.8303 45.6487 24.8703 46.8392C24.4216 46.0263 23.6553 45.7931 22.849 45.6798C22.0117 45.5621 21.1631 45.5154 20.3213 45.4288C20.0748 45.4044 19.8305 45.3688 19.5884 45.32C19.2197 45.2422 18.8665 45.12 18.5711 44.8268C18.5555 45.029 18.56 45.2133 18.5244 45.391C18.4467 45.7908 18.2335 46.1285 17.9825 46.4394C17.7226 46.7593 17.4538 47.0702 17.1917 47.3879C16.3232 48.4363 15.9079 49.3336 16.2188 50.8107C16.0056 50.5219 15.7857 50.2398 15.5836 49.9422C14.5818 48.4785 14.4197 46.9081 14.995 45.2466C15.2193 44.5958 15.4481 43.945 15.6591 43.2876C16.03 42.1326 16.0056 40.9798 15.5703 39.8492C14.6152 37.3659 14.5108 34.8227 15.1238 32.2661C16.381 27.0086 19.4417 23.0816 24.0951 20.3784C25.4433 19.5966 26.8982 19.0479 28.4131 18.6748C28.4864 18.657 28.5597 18.6392 28.6308 18.617C28.6441 18.6148 28.6552 18.6015 28.6996 18.5726C27.6468 16.8068 26.0897 15.6562 24.2839 14.7522C24.7881 14.73 25.2901 14.69 25.7943 14.6856C27.6623 14.67 29.4837 14.961 31.2428 15.6007C32.8377 16.1826 34.2725 17.0333 35.5231 18.1928C35.623 18.2861 35.774 18.3572 35.9118 18.3749C38.3284 18.7281 40.6184 19.4411 42.6863 20.7693C45.6049 22.644 47.5418 25.2761 48.5924 28.5634C48.8167 29.2653 49.1432 29.8828 49.5875 30.4581C49.9851 30.9734 50.3694 31.4998 50.7336 32.0374C50.898 32.2795 51.0201 32.5482 51.1023 32.8281V32.8347C51.1801 33.0924 50.8736 33.2879 50.6714 33.1124C49.703 32.2661 48.4591 31.3532 46.8999 30.5047C46.811 30.4559 46.6977 30.4892 46.6511 30.5803L46.6533 30.5914Z" fill="#4A4A4A"/>
</g>
<path d="M30.501 46.9258C30.5365 46.8303 30.4876 46.7259 30.3921 46.6903C28.6552 46.0462 27.2447 45.2666 26.1497 44.5336C26.0453 44.4625 26.0497 44.3026 26.1586 44.2426C26.1586 44.2426 26.1586 44.2426 26.1608 44.2426C26.5762 44.0183 27.0226 44.0027 27.4758 44.0538C28.3864 44.1538 29.2415 44.4625 30.0967 44.7624C31.5182 45.2599 32.9265 45.8063 34.4125 46.0929C34.7723 46.1617 35.1366 46.2195 35.5008 46.2661C35.5741 46.275 35.6919 46.2239 35.7341 46.1617C37.0112 44.216 38.8748 43.1187 41.056 42.4834C42.9329 41.937 44.852 41.7793 46.7977 41.8882C46.8199 41.8882 46.8399 41.8971 46.9132 41.9126C46.8066 41.9704 46.7333 42.0103 46.66 42.0481C45.5339 42.6456 44.541 43.4052 43.7702 44.4336C43.1883 45.2133 42.8196 46.0795 42.7352 47.0546C42.7263 47.1435 42.7285 47.2323 42.7241 47.3589C43.2238 47.2967 43.7059 47.2434 44.1834 47.1768C46.4423 46.8614 48.6457 46.3239 50.7314 45.3799C53.0281 44.3404 55.0138 42.9033 56.4331 40.782C57.7037 38.8807 58.3434 36.7884 58.1768 34.4872C58.1479 34.1007 58.0591 33.7165 57.9658 33.3389C57.8014 32.6659 57.3527 32.2328 56.6997 32.0662C55.9667 31.8796 55.2226 31.7463 54.4785 31.6153C53.4901 31.442 52.5239 31.2266 51.6576 30.6846C50.647 30.0516 49.9606 28.9232 49.7518 27.7526C50.3116 28.4945 51.1045 28.6167 51.9175 28.6145C52.7637 28.6122 53.6101 28.5389 54.4563 28.5034C54.7029 28.4923 54.9516 28.4923 55.1982 28.5078C55.5735 28.5323 55.9423 28.6034 56.2754 28.8521C56.2621 28.65 56.231 28.4679 56.2422 28.288C56.2621 27.8815 56.4265 27.5172 56.6309 27.1729C56.8419 26.8198 57.064 26.4733 57.2794 26.1201C57.9902 24.9584 58.2745 24.01 57.757 22.5929C58.0079 22.8483 58.2678 23.0971 58.51 23.3614C59.7094 24.6674 60.0914 26.1978 59.7582 27.9259C59.6272 28.6034 59.4939 29.2786 59.3784 29.9605C59.1763 31.1555 59.3629 32.2949 59.9537 33.3522C61.2509 35.6733 61.7151 38.1766 61.473 40.7954C60.9754 46.1773 58.5033 50.4997 54.2786 53.8359C53.0548 54.8021 51.6932 55.5484 50.2472 56.1348C50.1784 56.1636 50.1072 56.1903 50.0384 56.2214C50.0251 56.2258 50.0162 56.2392 49.9784 56.2747C51.2711 57.8739 52.9748 58.7913 54.8917 59.4288C54.3963 59.5221 53.9033 59.6331 53.4057 59.7086C51.5577 59.9885 49.7141 59.9596 47.8839 59.5754C46.2224 59.2244 44.6809 58.5869 43.2794 57.6163C43.1661 57.5385 43.0061 57.4897 42.8684 57.4897C40.4251 57.483 38.0574 57.101 35.8229 56.0792C32.6688 54.6377 30.3766 52.3055 28.8706 49.2025C28.5508 48.5384 28.1376 47.9742 27.6157 47.4678C27.1492 47.0146 26.6939 46.5482 26.2563 46.0662C26.0587 45.8507 25.8987 45.602 25.7788 45.3354V45.3288C25.6633 45.0844 25.9409 44.8468 26.1652 44.9934C27.2447 45.693 28.6041 46.4216 30.2677 47.0391C30.3632 47.0746 30.4699 47.0257 30.5054 46.9302L30.501 46.9258Z" fill="#292929"/>
<path d="M30.3588 46.6238C30.3944 46.5282 30.3455 46.4239 30.25 46.3883C28.5131 45.7442 27.1026 44.9645 26.0076 44.2316C25.9032 44.1605 25.9076 44.0006 26.0164 43.9406C26.0164 43.9406 26.0165 43.9406 26.0187 43.9406C26.434 43.7162 26.8805 43.7007 27.3336 43.7518C28.2443 43.8517 29.0994 44.1605 29.9546 44.4603C31.3761 44.9579 32.7843 45.5043 34.2703 45.7908C34.6301 45.8597 34.9944 45.9174 35.3587 45.9641C35.432 45.973 35.5497 45.9219 35.5919 45.8597C36.8691 43.9139 38.7327 42.8167 40.9139 42.1814C42.7907 41.635 44.7098 41.4773 46.6556 41.5861C46.6778 41.5861 46.6978 41.595 46.7711 41.6106C46.6644 41.6683 46.5912 41.7083 46.5179 41.7461C45.3917 42.3436 44.3989 43.1032 43.6281 44.1316C43.0462 44.9112 42.6774 45.7775 42.593 46.7526C42.5841 46.8414 42.5864 46.9303 42.582 47.0569C43.0817 46.9947 43.5637 46.9414 44.0412 46.8748C46.3002 46.5593 48.5036 46.0218 50.5892 45.0778C52.8859 44.0383 54.8717 42.6012 56.291 40.48C57.5615 38.5787 58.2012 36.4863 58.0346 34.1852C58.0057 33.7987 57.9169 33.4145 57.8236 33.0369C57.6592 32.3638 57.2106 31.9307 56.5575 31.7641C55.8246 31.5775 55.0805 31.4443 54.3364 31.3132C53.348 31.14 52.3818 30.9245 51.5155 30.3826C50.5049 29.7495 49.8185 28.6212 49.6097 27.4506C50.1695 28.1925 50.9624 28.3146 51.7754 28.3124C52.6216 28.3102 53.4679 28.2369 54.3141 28.2014C54.5607 28.1903 54.8095 28.1903 55.056 28.2058C55.4314 28.2302 55.8001 28.3013 56.1333 28.5501C56.12 28.348 56.0889 28.1658 56.1 27.9859C56.12 27.5794 56.2843 27.2152 56.4887 26.8709C56.6997 26.5177 56.9218 26.1712 57.1372 25.8181C57.848 24.6564 58.1324 23.7079 57.6148 22.2908C57.8658 22.5463 58.1257 22.795 58.3678 23.0593C59.5672 24.3654 59.9493 25.8958 59.6161 27.6239C59.4851 28.3013 59.3518 28.9766 59.2363 29.6585C59.0342 30.8534 59.2207 31.9929 59.8115 33.0502C61.1087 35.3713 61.5729 37.8746 61.3308 40.4933C60.8333 45.8752 58.3611 50.1976 54.1364 53.5338C52.9126 54.5 51.551 55.2463 50.105 55.8327C50.0362 55.8616 49.9651 55.8883 49.8963 55.9194C49.8829 55.9238 49.874 55.9371 49.8363 55.9727C51.129 57.5719 52.8326 58.4892 54.7495 59.1267C54.2542 59.22 53.7611 59.3311 53.2635 59.4066C51.4155 59.6865 49.572 59.6576 47.7417 59.2733C46.0803 58.9224 44.5388 58.2849 43.1372 57.3143C43.024 57.2365 42.864 57.1876 42.7263 57.1876C40.283 57.181 37.9153 56.7989 35.6808 55.7772C32.5267 54.3357 30.2344 52.0034 28.7285 48.9005C28.4086 48.2363 27.9955 47.6722 27.4735 47.1657C27.0071 46.7126 26.5517 46.2462 26.1142 45.7642C25.9165 45.5487 25.7566 45.2999 25.6366 45.0334V45.0267C25.5211 44.7824 25.7988 44.5447 26.0231 44.6913C27.1026 45.391 28.462 46.1196 30.1256 46.737C30.2211 46.7726 30.3278 46.7237 30.3633 46.6282L30.3588 46.6238Z" fill="url(#paint4_radial_68_39637)"/>
<g opacity="0.69">
<path d="M30.3588 46.6238C30.3944 46.5282 30.3455 46.4239 30.25 46.3883C28.5131 45.7442 27.1026 44.9645 26.0076 44.2316C25.9032 44.1605 25.9076 44.0006 26.0164 43.9406C26.0164 43.9406 26.0165 43.9406 26.0187 43.9406C26.434 43.7162 26.8805 43.7007 27.3336 43.7518C28.2443 43.8517 29.0994 44.1605 29.9546 44.4603C31.3761 44.9579 32.7843 45.5043 34.2703 45.7908C34.6301 45.8597 34.9944 45.9174 35.3587 45.9641C35.432 45.973 35.5497 45.9219 35.5919 45.8597C36.8691 43.9139 38.7327 42.8167 40.9139 42.1814C42.7907 41.635 44.7098 41.4773 46.6556 41.5861C46.6778 41.5861 46.6978 41.595 46.7711 41.6106C46.6644 41.6683 46.5912 41.7083 46.5179 41.7461C45.3917 42.3436 44.3989 43.1032 43.6281 44.1316C43.0462 44.9112 42.6774 45.7775 42.593 46.7526C42.5841 46.8414 42.5864 46.9303 42.582 47.0569C43.0817 46.9947 43.5637 46.9414 44.0412 46.8748C46.3002 46.5593 48.5036 46.0218 50.5892 45.0778C52.8859 44.0383 54.8717 42.6012 56.291 40.48C57.5615 38.5787 58.2012 36.4863 58.0346 34.1852C58.0057 33.7987 57.9169 33.4145 57.8236 33.0369C57.6592 32.3638 57.2106 31.9307 56.5575 31.7641C55.8246 31.5775 55.0805 31.4443 54.3364 31.3132C53.348 31.14 52.3818 30.9245 51.5155 30.3826C50.5049 29.7495 49.8185 28.6212 49.6097 27.4506C50.1695 28.1925 50.9624 28.3146 51.7754 28.3124C52.6216 28.3102 53.4679 28.2369 54.3141 28.2014C54.5607 28.1903 54.8095 28.1903 55.056 28.2058C55.4314 28.2302 55.8001 28.3013 56.1333 28.5501C56.12 28.348 56.0889 28.1658 56.1 27.9859C56.12 27.5794 56.2843 27.2152 56.4887 26.8709C56.6997 26.5177 56.9218 26.1712 57.1372 25.8181C57.848 24.6564 58.1324 23.7079 57.6148 22.2908C57.8658 22.5463 58.1257 22.795 58.3678 23.0593C59.5672 24.3654 59.9493 25.8958 59.6161 27.6239C59.4851 28.3013 59.3518 28.9766 59.2363 29.6585C59.0342 30.8534 59.2207 31.9929 59.8115 33.0502C61.1087 35.3713 61.5729 37.8746 61.3308 40.4933C60.8333 45.8752 58.3611 50.1976 54.1364 53.5338C52.9126 54.5 51.551 55.2463 50.105 55.8327C50.0362 55.8616 49.9651 55.8883 49.8963 55.9194C49.8829 55.9238 49.874 55.9371 49.8363 55.9727C51.129 57.5719 52.8326 58.4892 54.7495 59.1267C54.2542 59.22 53.7611 59.3311 53.2635 59.4066C51.4155 59.6865 49.572 59.6576 47.7417 59.2733C46.0803 58.9224 44.5388 58.2849 43.1372 57.3143C43.024 57.2365 42.864 57.1876 42.7263 57.1876C40.283 57.181 37.9153 56.7989 35.6808 55.7772C32.5267 54.3357 30.2344 52.0034 28.7285 48.9005C28.4086 48.2363 27.9955 47.6722 27.4735 47.1657C27.0071 46.7126 26.5517 46.2462 26.1142 45.7642C25.9165 45.5487 25.7566 45.2999 25.6366 45.0334V45.0267C25.5211 44.7824 25.7988 44.5447 26.0231 44.6913C27.1026 45.391 28.462 46.1196 30.1256 46.737C30.2211 46.7726 30.3278 46.7237 30.3633 46.6282L30.3588 46.6238Z" fill="#4A4A4A"/>
</g>
<path d="M40.8939 37.4437L39.4767 36.0021L38.1596 34.6606H38.1574C38.0619 34.7605 35.5386 37.3859 35.5364 37.3859C35.0477 37.8946 34.8256 38.6942 35.0899 39.3539C35.1255 39.4472 35.1721 39.536 35.2277 39.6204C35.2788 39.6982 35.3365 39.7715 35.3987 39.8381C35.4009 39.8403 35.4032 39.8425 35.4076 39.847C35.8052 40.2779 36.4293 40.5089 37.009 40.4711C37.5932 40.4334 38.2884 40.0713 38.4573 39.4694C38.5417 39.1695 38.4684 38.8541 38.3373 38.5809C38.3373 38.5809 38.2618 38.3699 38.0485 38.1989C37.8353 38.0256 37.4821 37.8968 36.9224 38.0678L36.6559 38.1589L35.9407 38.401C35.8229 38.4365 35.7119 38.361 35.6808 38.2611C35.6608 38.2078 35.6652 38.15 35.7007 38.0945C35.7496 38.0145 36.0495 37.8124 36.1961 37.7124C36.1961 37.7124 36.3493 37.5281 36.4826 37.3282C36.6914 37.0128 37.0046 36.7729 37.3777 36.6907C37.6576 36.6307 38.0152 36.6352 38.4417 36.7951C38.686 36.8862 38.9526 37.0261 39.2436 37.2349C39.2969 37.2726 39.359 37.2993 39.4234 37.3037C39.5189 37.3104 39.6767 37.3393 39.8233 37.4481C39.9832 37.5658 40.1298 37.7769 40.1675 38.1611C40.1675 38.1611 39.8854 37.8368 39.4323 37.8635C39.4234 37.8635 39.4168 37.8635 39.4079 37.8635C39.4079 37.8635 39.4257 37.8724 39.4568 37.8924C39.5634 37.9679 39.8144 38.2078 39.7566 38.7653C39.7566 38.7653 39.7233 39.3361 39.1791 39.867C39.0614 39.9847 39.0503 40.1513 39.1192 40.2757C39.168 40.3667 39.2569 40.4334 39.3746 40.4489H39.3812C40.1142 40.5422 40.7828 40.0935 41.1293 39.4694C41.5047 38.7919 41.4514 38.0123 40.8939 37.4459V37.4437ZM38.1663 35.2958L38.6482 35.8289L38.1774 36.3797L38.0419 36.2354L37.6754 35.8467L38.1574 35.3047L38.1663 35.2958Z" fill="#292929"/>
<path d="M39.5322 41.504C39.5322 41.5751 39.4768 41.6328 39.4057 41.6328L37.551 41.6528C37.4799 41.6528 37.4221 41.5973 37.4221 41.5262C37.4221 41.484 37.4443 41.4418 37.4799 41.4173C37.5421 41.3774 37.6309 41.3951 37.6998 41.3707C37.7642 41.3485 37.822 41.313 37.873 41.2685C37.9797 41.1775 38.0552 41.0531 38.1218 40.9331C38.1529 40.8776 38.1796 40.8221 38.2107 40.7688C38.3106 40.58 38.4039 40.3845 38.4816 40.1846C38.5883 40.5044 38.7349 40.7999 38.9126 41.0864C38.9814 41.1997 39.0836 41.293 39.208 41.3396C39.2702 41.364 39.3368 41.3751 39.4035 41.3796C39.4701 41.384 39.5279 41.4329 39.5279 41.504H39.5322Z" fill="#292929"/>
<path d="M40.7539 37.3059L39.4745 36.0043L38.1573 34.6628L38.0196 34.5228C38.0196 34.5228 35.3986 37.2482 35.3964 37.2482C34.8633 37.8035 34.6456 38.7053 35.0343 39.3961C35.0499 39.425 35.0677 39.4538 35.0877 39.4827C35.1743 39.6137 35.2787 39.7337 35.4009 39.8381C35.4031 39.8403 35.4053 39.8425 35.4098 39.847C35.8074 40.1868 36.3582 40.3667 36.8713 40.3312C37.4554 40.2934 38.1507 39.9314 38.3195 39.3294C38.4039 39.0296 38.3306 38.7142 38.1995 38.441C38.1995 38.441 38.1573 38.3255 38.0529 38.1966C37.893 38.0012 37.582 37.7768 37.0378 37.8657C36.9601 37.879 36.8757 37.899 36.7869 37.9257L35.8051 38.2588C35.7629 38.2722 35.7207 38.2699 35.6852 38.2588C35.563 38.2211 35.4853 38.0767 35.563 37.9545C35.6119 37.8768 35.914 37.6724 36.0583 37.5725C36.0583 37.5725 36.2116 37.3881 36.3449 37.1882C36.5537 36.8728 36.8691 36.6329 37.24 36.5508C37.5643 36.4819 37.9908 36.4974 38.5105 36.7418C38.6971 36.8262 38.8948 36.9417 39.1058 37.0927C39.1591 37.1327 39.2213 37.1571 39.2857 37.1616C39.4145 37.1705 39.6522 37.2193 39.8254 37.4437C39.9232 37.5703 40.0032 37.7546 40.0276 38.0167C40.0276 38.0167 39.7366 37.6813 39.2701 37.7191C39.2701 37.7191 39.3501 37.7546 39.4345 37.8568C39.4434 37.8657 39.4501 37.8768 39.459 37.8879C39.5611 38.0234 39.6566 38.2522 39.6189 38.6231C39.6189 38.6231 39.5855 39.1939 39.0414 39.7248C38.8681 39.8936 38.9259 40.1713 39.1213 40.2712C39.1547 40.289 39.1924 40.3001 39.2346 40.3068H39.2413C39.9765 40.4 40.6428 39.9514 40.9893 39.3272C41.3647 38.6498 41.3114 37.8701 40.7539 37.3037V37.3059ZM38.0374 36.2398L37.5354 35.7067L38.0263 35.1559L38.1596 35.3025L38.5105 35.6867L38.044 36.2309L38.0396 36.2353L38.0374 36.2398Z" fill="url(#paint5_radial_68_39637)"/>
<path d="M39.3901 41.3663C39.3901 41.4374 39.3346 41.4951 39.2635 41.4951L37.4089 41.5151C37.3378 41.5151 37.28 41.4596 37.28 41.3885C37.28 41.3463 37.3022 41.3041 37.3378 41.2797C37.4 41.2397 37.4888 41.2574 37.5577 41.233C37.6221 41.2108 37.6798 41.1753 37.7309 41.1308C37.8375 41.0398 37.913 40.9154 37.9797 40.7954C38.0107 40.7399 38.0374 40.6844 38.0685 40.6311C38.1685 40.4423 38.2618 40.2468 38.3395 40.0469C38.4461 40.3668 38.5927 40.6622 38.7704 40.9487C38.8393 41.062 38.9415 41.1553 39.0658 41.2019C39.128 41.2264 39.1946 41.2375 39.2613 41.2419C39.3279 41.2463 39.3857 41.2952 39.3857 41.3663H39.3901Z" fill="url(#paint6_radial_68_39637)"/>
<g opacity="0.69">
<path d="M40.7539 37.3059L39.4745 36.0043L38.1573 34.6628L38.0196 34.5228C38.0196 34.5228 35.3986 37.2482 35.3964 37.2482C34.8633 37.8035 34.6456 38.7053 35.0343 39.3961C35.0499 39.425 35.0677 39.4538 35.0877 39.4827C35.1743 39.6137 35.2787 39.7337 35.4009 39.8381C35.4031 39.8403 35.4053 39.8425 35.4098 39.847C35.8074 40.1868 36.3582 40.3667 36.8713 40.3312C37.4554 40.2934 38.1507 39.9314 38.3195 39.3294C38.4039 39.0296 38.3306 38.7142 38.1995 38.441C38.1995 38.441 38.1573 38.3255 38.0529 38.1966C37.893 38.0012 37.582 37.7768 37.0378 37.8657C36.9601 37.879 36.8757 37.899 36.7869 37.9257L35.8051 38.2588C35.7629 38.2722 35.7207 38.2699 35.6852 38.2588C35.563 38.2211 35.4853 38.0767 35.563 37.9545C35.6119 37.8768 35.914 37.6724 36.0583 37.5725C36.0583 37.5725 36.2116 37.3881 36.3449 37.1882C36.5537 36.8728 36.8691 36.6329 37.24 36.5508C37.5643 36.4819 37.9908 36.4974 38.5105 36.7418C38.6971 36.8262 38.8948 36.9417 39.1058 37.0927C39.1591 37.1327 39.2213 37.1571 39.2857 37.1616C39.4145 37.1705 39.6522 37.2193 39.8254 37.4437C39.9232 37.5703 40.0032 37.7546 40.0276 38.0167C40.0276 38.0167 39.7366 37.6813 39.2701 37.7191C39.2701 37.7191 39.3501 37.7546 39.4345 37.8568C39.4434 37.8657 39.4501 37.8768 39.459 37.8879C39.5611 38.0234 39.6566 38.2522 39.6189 38.6231C39.6189 38.6231 39.5855 39.1939 39.0414 39.7248C38.8681 39.8936 38.9259 40.1713 39.1213 40.2712C39.1547 40.289 39.1924 40.3001 39.2346 40.3068H39.2413C39.9765 40.4 40.6428 39.9514 40.9893 39.3272C41.3647 38.6498 41.3114 37.8701 40.7539 37.3037V37.3059ZM38.0374 36.2398L37.5354 35.7067L38.0263 35.1559L38.1596 35.3025L38.5105 35.6867L38.044 36.2309L38.0396 36.2353L38.0374 36.2398Z" fill="#4A4A4A"/>
<path d="M39.3901 41.3663C39.3901 41.4374 39.3346 41.4951 39.2635 41.4951L37.4089 41.5151C37.3378 41.5151 37.28 41.4596 37.28 41.3885C37.28 41.3463 37.3022 41.3041 37.3378 41.2797C37.4 41.2397 37.4888 41.2574 37.5577 41.233C37.6221 41.2108 37.6798 41.1753 37.7309 41.1308C37.8375 41.0398 37.913 40.9154 37.9797 40.7954C38.0107 40.7399 38.0374 40.6844 38.0685 40.6311C38.1685 40.4423 38.2618 40.2468 38.3395 40.0469C38.4461 40.3668 38.5927 40.6622 38.7704 40.9487C38.8393 41.062 38.9415 41.1553 39.0658 41.2019C39.128 41.2264 39.1946 41.2375 39.2613 41.2419C39.3279 41.2463 39.3857 41.2952 39.3857 41.3663H39.3901Z" fill="#4A4A4A"/>
</g>
<path d="M60.72 11.5693L60.3291 11.9091L59.6783 12.4733L59.1852 12.902L34.4991 34.2963L34.0126 34.7183L23.9552 43.4342L23.4931 43.8362L10.8347 54.8088L10.2261 55.3374L9.57753 55.8994L9.29322 56.146C6.82772 52.2767 5.11744 47.8765 4.37779 43.1543L4.47551 43.0699L5.21512 42.4302L5.92817 41.8061L28.4997 22.2198L28.6441 22.0954L32.6133 18.6459H32.6177L33.5729 17.813H33.5751L37.1489 14.71L37.3177 14.5679L39.7654 12.4422L39.7743 12.4378L46.9865 6.17849L47.5862 5.65874L48.1349 5.18341L48.7123 4.68143C53.1947 6.1474 57.2705 8.51517 60.7222 11.5715L60.72 11.5693Z" fill="url(#paint7_linear_68_39637)"/>
<path d="M72.2234 36.1287L72.199 36.1509L70.8107 37.3415L70.1533 37.9057L47.8816 57.0477L47.3574 57.4986L45.0674 59.4688L44.6609 59.8197L44.5054 59.9508L43.8569 60.5061L42.0332 62.0742L41.4158 62.6051L33.7572 69.1886L32.982 69.8506L31.9603 70.7301L31.3139 71.2876C28.2531 70.6702 25.339 69.644 22.6358 68.2669L23.1378 67.8359L23.9351 67.1518L24.5838 66.5921L31.878 60.3217L32.3711 59.8975L34.6301 57.9584L35.0677 57.5786L36.7846 56.1059L37.4887 55.504L40.4451 52.963L41.1115 52.3899L53.7566 41.5217L54.1853 41.1552H54.1898L59.6138 36.4886L60.1691 36.0088L68.9716 28.4457L69.5092 27.9859L70.5264 27.1086L70.6997 26.9597C71.6081 29.8673 72.1346 32.9436 72.2257 36.1265L72.2234 36.1287Z" fill="url(#paint8_linear_68_39637)"/>
</g>
<defs>
<filter id="filter0_f_68_39637" x="0.962402" y="0" width="74.2788" height="75.9891" filterUnits="userSpaceOnUse" color-interpolation-filters="sRGB">
<feFlood flood-opacity="0" result="BackgroundImageFix"/>
<feBlend mode="normal" in="SourceGraphic" in2="BackgroundImageFix" result="shape"/>
<feGaussianBlur stdDeviation="1.5" result="effect1_foregroundBlur_68_39637"/>
</filter>
<linearGradient id="paint0_linear_68_39637" x1="26.9826" y1="70.1105" x2="49.2188" y2="5.53438" gradientUnits="userSpaceOnUse">
<stop stop-color="#A7A7A7"/>
<stop offset="0.51" stop-color="#BABABA"/>
<stop offset="1" stop-color="#D2D2D2"/>
</linearGradient>
<linearGradient id="paint1_linear_68_39637" x1="38.0774" y1="6.30289" x2="38.0774" y2="69.4797" gradientUnits="userSpaceOnUse">
<stop stop-color="#3B3B3B"/>
<stop offset="0.22" stop-color="#4F4F4F"/>
<stop offset="0.58" stop-color="#787878"/>
<stop offset="1" stop-color="#EAEAEA"/>
</linearGradient>
<linearGradient id="paint2_linear_68_39637" x1="28.0843" y1="67.0897" x2="48.2081" y2="8.64843" gradientUnits="userSpaceOnUse">
<stop stop-color="#A7A7A7"/>
<stop offset="0.51" stop-color="#BABABA"/>
<stop offset="1" stop-color="#D2D2D2"/>
</linearGradient>
<radialGradient id="paint3_radial_68_39637" cx="0" cy="0" r="1" gradientUnits="userSpaceOnUse" gradientTransform="translate(31.7791 36.1642) rotate(19.77) scale(18.1403 18.1403)">
<stop stop-color="white"/>
<stop offset="0.6" stop-color="#DDDDDD"/>
<stop offset="1" stop-color="#CCCCCC"/>
</radialGradient>
<radialGradient id="paint4_radial_68_39637" cx="0" cy="0" r="1" gradientUnits="userSpaceOnUse" gradientTransform="translate(45.2565 38.6198) rotate(19.77) scale(18.0048 18.0048)">
<stop stop-color="white"/>
<stop offset="0.6" stop-color="#DDDDDD"/>
<stop offset="1" stop-color="#CCCCCC"/>
</radialGradient>
<radialGradient id="paint5_radial_68_39637" cx="0" cy="0" r="1" gradientUnits="userSpaceOnUse" gradientTransform="translate(38.0329 37.4281) scale(3.05411 3.05411)">
<stop stop-color="white"/>
<stop offset="0.6" stop-color="#DDDDDD"/>
<stop offset="1" stop-color="#CCCCCC"/>
</radialGradient>
<radialGradient id="paint6_radial_68_39637" cx="0" cy="0" r="1" gradientUnits="userSpaceOnUse" gradientTransform="translate(38.3373 40.7799) scale(0.908459 0.908457)">
<stop stop-color="white"/>
<stop offset="0.6" stop-color="#DDDDDD"/>
<stop offset="1" stop-color="#CCCCCC"/>
</radialGradient>
<linearGradient id="paint7_linear_68_39637" x1="-6.98127" y1="63.889" x2="53.9987" y2="7.54454" gradientUnits="userSpaceOnUse">
<stop stop-color="white" stop-opacity="0"/>
<stop offset="1" stop-color="white" stop-opacity="0.3"/>
</linearGradient>
<linearGradient id="paint8_linear_68_39637" x1="13.3646" y1="83.6729" x2="74.2425" y2="27.424" gradientUnits="userSpaceOnUse">
<stop stop-color="white" stop-opacity="0"/>
<stop offset="1" stop-color="white" stop-opacity="0.3"/>
</linearGradient>
</defs>
</svg>
