<svg width="28" height="28" viewBox="0 0 28 28" fill="none" xmlns="http://www.w3.org/2000/svg">
<path d="M25.7037 6.70308C25.7273 6.74275 25.7519 6.78243 25.7737 6.8221C25.8073 6.87799 25.8401 6.9357 25.8728 6.9925L25.8828 7.00872C25.9074 7.052 25.9301 7.09348 25.9528 7.13585C29.5078 13.5777 27.3052 21.7011 20.8855 25.4833C19.826 26.1081 18.7174 26.5751 17.5851 26.8934C16.4129 27.2225 15.217 27.3911 14.0265 27.4082C11.6529 27.4406 9.30292 26.8654 7.2185 25.743C5.68519 24.918 4.29648 23.8 3.14696 22.4079C2.78228 21.968 2.44124 21.5 2.12748 21.006L2.11748 20.9897C2.08292 20.9338 2.04745 20.8788 2.0138 20.822C1.98925 20.7842 1.9656 20.7445 1.94196 20.7039C-1.95679 14.1998 0.198574 5.79157 6.76196 1.92464C8.56901 0.859854 10.5197 0.251277 12.4823 0.0646472C14.2657 -0.108459 16.0582 0.0682532 17.7552 0.568638C20.0333 1.23672 22.1405 2.48633 23.8348 4.25165C24.5332 4.98194 25.1635 5.79969 25.7046 6.70218L25.7037 6.70308Z" fill="#A37417"/>
<path d="M26.0575 7.29364C29.9571 13.7986 27.8017 22.2051 21.2375 26.0729C19.9688 26.8204 18.6274 27.3442 17.2614 27.6525C16.1082 27.9158 14.9378 28.0267 13.7783 27.9933C11.4237 27.9239 9.11469 27.2585 7.08483 26.0603C5.56971 25.1632 4.21193 23.9695 3.10697 22.4999C2.81868 22.1176 2.54676 21.7146 2.29484 21.2945C2.25937 21.235 2.2239 21.1764 2.19116 21.116C2.16843 21.0781 2.1466 21.042 2.1266 21.0051L2.11659 20.9888C-1.5366 14.5271 0.65604 6.32352 7.11666 2.51789C8.72909 1.56851 10.4552 0.980671 12.2031 0.731831C14.0074 0.473074 15.8309 0.575856 17.5688 1.01133C19.8633 1.58744 22.0096 2.74239 23.762 4.41935C24.5523 5.17218 25.2635 6.0323 25.8728 6.9916L25.8828 7.00783C25.9056 7.04389 25.9274 7.07996 25.9501 7.11692C25.9538 7.11963 25.9556 7.12323 25.9556 7.12593C25.9911 7.18003 26.0247 7.23593 26.0584 7.29183L26.0575 7.29364Z" fill="#6D3C1B"/>
<path d="M25.8447 6.9384C25.8802 6.99791 25.9165 7.05832 25.9493 7.11782C25.9529 7.12053 25.9547 7.12413 25.9547 7.12683C29.7034 13.6066 27.5253 21.8877 21.0247 25.7177C19.8806 26.3912 18.6793 26.8826 17.4542 27.1999C16.2902 27.5038 15.1043 27.648 13.9266 27.6426C11.5602 27.6363 9.22751 27.0259 7.164 25.871C5.63888 25.0199 4.26109 23.8703 3.12884 22.4476C2.79417 22.0275 2.48041 21.5848 2.19121 21.1169C2.15393 21.0601 2.11755 20.9997 2.08208 20.9402C2.05844 20.9014 2.03479 20.8617 2.01297 20.8221C-1.7912 14.3351 0.378713 6.00525 6.90209 2.16176C8.63274 1.14206 10.4943 0.53979 12.3714 0.326112C14.163 0.12145 15.9682 0.268411 17.6816 0.741748C19.9652 1.37467 22.0878 2.58641 23.8048 4.31657C24.5424 5.05768 25.2054 5.89346 25.7728 6.8221C25.7974 6.85997 25.821 6.89963 25.8447 6.9384Z" fill="url(#paint0_linear_74_25024)"/>
<path d="M24.9616 7.49109C28.5702 13.511 26.574 21.29 20.5026 24.8675C14.4312 28.445 6.58462 26.4651 2.97598 20.4452C-0.631746 14.427 1.36446 6.64719 7.43494 3.07057C13.5054 -0.506056 21.3529 1.47295 24.9606 7.49109H24.9616Z" fill="url(#paint1_linear_74_25024)" stroke="#281401" stroke-width="0.0533333" stroke-miterlimit="10"/>
<path d="M24.7423 7.60919C28.2719 13.4966 26.3175 21.1061 20.3798 24.6051C14.4412 28.1042 6.76646 26.1685 3.23695 20.2811C-0.29257 14.3937 1.65999 6.78513 7.59859 3.28605C13.5372 -0.213039 21.2128 1.72178 24.7423 7.60919Z" fill="url(#paint2_linear_74_25024)"/>
<g style="mix-blend-mode:multiply">
<path d="M24.5769 10.2653C24.5232 10.4158 24.415 10.5213 24.2895 10.6115C24.0367 10.7936 23.7502 10.9108 23.4665 11.0298C23.0672 11.1984 22.6644 11.3553 22.2842 11.56L22.2797 11.5627C22.2406 11.5861 22.1987 11.6051 22.1587 11.6276C21.4157 12.0306 20.6682 12.4381 20.0261 12.9917C18.6401 14.1881 17.4606 16.1274 17.748 18.0145C17.8644 18.779 18.1827 19.4453 18.7529 19.9827C18.8493 20.0728 18.9602 20.1477 19.0694 20.2207C19.2658 20.3514 19.4786 20.3577 19.6805 20.2504C19.9079 20.1314 20.127 19.9944 20.3435 19.8582C20.6318 19.677 20.9255 19.5102 21.2675 19.4498C21.6676 19.3777 22.0996 19.503 22.4197 19.7473C22.1087 19.6905 21.8813 19.8393 21.6785 20.0259C21.4657 20.2189 21.2684 20.4299 21.0647 20.6309C21.0046 20.6895 20.9419 20.7463 20.8764 20.7977C20.7755 20.877 20.6682 20.942 20.5272 20.9573C20.5772 21.0042 20.6254 21.0429 20.6645 21.0898C20.7518 21.1971 20.7955 21.3251 20.8228 21.4577C20.8491 21.5938 20.8737 21.7318 20.9001 21.8679C20.9874 22.3187 21.1329 22.6198 21.5894 22.8569C21.4666 22.8497 21.3448 22.847 21.2238 22.8362C20.6218 22.783 20.1743 22.4864 19.8615 21.9797C19.7387 21.7804 19.6178 21.5812 19.4913 21.3864C19.2685 21.042 18.9593 20.7995 18.5665 20.6706C18.3818 20.6093 18.2036 20.5371 18.0353 20.4551C18.0281 20.6408 18.0081 20.8293 17.9744 21.0204C17.9007 21.4234 17.969 21.8084 18.1672 22.1681C18.2791 22.3719 18.3982 22.5729 18.5155 22.774C18.8156 23.2879 18.8638 23.8198 18.6237 24.3698C18.5755 24.4807 18.5192 24.588 18.4673 24.698C18.4764 24.1868 18.2791 23.9163 17.9207 23.6251C17.8125 23.5367 17.7025 23.4502 17.5943 23.3609C17.4906 23.2735 17.3978 23.1743 17.3442 23.0472C17.3223 22.9904 17.3105 22.93 17.2932 22.8642C17.2123 22.9796 17.1032 23.0418 16.9849 23.0923C16.9076 23.1247 16.8276 23.1518 16.7467 23.1761C16.4702 23.2582 16.1901 23.3294 15.9173 23.4222C15.6554 23.5106 15.4143 23.6377 15.3161 23.9352C15.2525 23.5394 15.348 23.104 15.6026 22.7893C15.82 22.5206 16.1073 22.3448 16.4056 22.1807C16.6294 22.0572 16.8567 21.9319 17.0704 21.7904C17.2623 21.6659 17.3578 21.4775 17.336 21.244C17.3233 21.1142 17.3105 20.9816 17.276 20.8545C17.0732 20.1017 16.6339 19.5057 16.0128 19.0387C14.4785 17.8865 12.1977 17.9865 10.4734 18.6222C9.67673 18.917 8.95827 19.3732 8.2471 19.8267C8.20799 19.851 8.17161 19.8781 8.13069 19.9024L8.12614 19.9051C7.76328 20.1386 7.43133 20.4154 7.09121 20.6814C6.8502 20.8716 6.60921 21.0646 6.32728 21.198C6.18723 21.2638 6.04172 21.308 5.88348 21.2828C5.70796 21.2539 5.61974 21.1511 5.63702 20.9771C5.64611 20.8861 5.66612 20.7896 5.7025 20.7057C5.79253 20.4993 5.88711 20.2946 5.99079 20.0936C6.10174 19.8745 6.17086 19.6491 6.20087 19.4011C6.34001 18.2453 6.81656 17.2472 7.67142 16.4376C8.2762 15.8642 8.99647 15.481 9.78222 15.2087C9.82678 15.1943 9.87316 15.16 9.90136 15.124C10.2424 14.6587 10.6689 14.2855 11.1637 13.9898C11.7102 13.6643 12.3004 13.4506 12.927 13.3361C13.0953 13.3046 13.2663 13.2847 13.4372 13.2604C12.8916 13.676 12.445 14.1575 12.2077 14.8111C12.2231 14.8174 12.2286 14.8201 12.2331 14.821C12.2577 14.8228 12.2832 14.8246 12.3095 14.8255C12.8407 14.8517 13.3618 14.9391 13.8638 15.1132C14.3467 15.2799 14.7959 15.4864 15.207 15.7325C15.1834 15.2574 15.2152 14.7678 15.2989 14.2675C15.3852 13.7472 15.5562 13.2514 15.7872 12.7771C15.7981 12.7537 15.81 12.7311 15.819 12.7086C15.8209 12.7041 15.8209 12.6978 15.8227 12.6816C15.1306 12.5752 14.4904 12.7338 13.861 13.0106C13.9638 12.8736 14.0638 12.7338 14.1721 12.6031C14.5731 12.1126 15.0442 11.7006 15.5944 11.3797C16.0919 11.0893 16.6266 10.8973 17.2023 10.8225C17.2478 10.8153 17.3005 10.7909 17.3342 10.7594C17.9508 10.2058 18.6347 9.76129 19.4313 9.50885C20.5572 9.15091 21.6694 9.21312 22.7599 9.64498C22.9936 9.73695 23.2273 9.78473 23.4738 9.79285C23.7011 9.79916 23.9285 9.81449 24.154 9.83522C24.2459 9.84424 24.3414 9.87219 24.4259 9.90825C24.5887 9.97587 24.6378 10.103 24.5787 10.2689L24.5769 10.2653Z" fill="#3A2415"/>
<path d="M24.404 10.5321C24.3504 10.6827 24.2422 10.7882 24.1167 10.8784C23.8638 11.0605 23.5774 11.1777 23.2936 11.2967C22.8944 11.4653 22.4915 11.6222 22.1114 11.8268L22.1068 11.8295C22.0677 11.853 22.0259 11.8719 21.9859 11.8945C21.2429 12.2975 20.4953 12.705 19.8532 13.2586C18.4673 14.455 17.2877 16.3943 17.5751 18.2813C17.6915 19.0459 18.0098 19.7122 18.58 20.2495C18.6764 20.3397 18.7874 20.4145 18.8965 20.4875C19.093 20.6183 19.3058 20.6246 19.5077 20.5173C19.735 20.3983 19.9542 20.2612 20.1706 20.1251C20.4589 19.9439 20.7527 19.7771 21.0946 19.7167C21.4948 19.6446 21.9267 19.7699 22.2469 20.0142C21.9358 19.9574 21.7085 20.1062 21.5057 20.2928C21.2929 20.4857 21.0955 20.6967 20.8918 20.8978C20.8318 20.9564 20.769 21.0132 20.7036 21.0646C20.6026 21.1439 20.4953 21.2088 20.3543 21.2242C20.4044 21.271 20.4526 21.3098 20.4917 21.3567C20.579 21.464 20.6226 21.592 20.6499 21.7245C20.6763 21.8607 20.7008 21.9986 20.7272 22.1348C20.8145 22.5856 20.96 22.8867 21.4166 23.1238C21.2938 23.1166 21.1719 23.1139 21.051 23.1031C20.4489 23.0499 20.0015 22.7533 19.6886 22.2466C19.5659 22.0473 19.4449 21.848 19.3185 21.6533C19.0957 21.3089 18.7865 21.0664 18.3936 20.9374C18.209 20.8761 18.0307 20.804 17.8625 20.722C17.8552 20.9077 17.8352 21.0961 17.8016 21.2873C17.7279 21.6903 17.7961 22.0753 17.9944 22.435C18.1062 22.6388 18.2254 22.8398 18.3427 23.0409C18.6428 23.5548 18.691 24.0867 18.4509 24.6367C18.4027 24.7476 18.3463 24.8549 18.2945 24.9649C18.3036 24.4537 18.1062 24.1832 17.7479 23.892C17.6397 23.8036 17.5296 23.7171 17.4214 23.6278C17.3177 23.5403 17.225 23.4412 17.1713 23.314C17.1495 23.2572 17.1377 23.1968 17.1204 23.131C17.0394 23.2464 16.9303 23.3086 16.8121 23.3591C16.7348 23.3916 16.6548 23.4186 16.5738 23.443C16.2973 23.525 16.0172 23.5962 15.7444 23.6891C15.4825 23.7775 15.2415 23.9046 15.1433 24.2021C15.0796 23.8063 15.1751 23.3708 15.4297 23.0562C15.6471 22.7875 15.9345 22.6117 16.2328 22.4476C16.4565 22.3241 16.6839 22.1988 16.8976 22.0572C17.0895 21.9328 17.185 21.7444 17.1631 21.5109C17.1504 21.381 17.1377 21.2485 17.1031 21.1214C16.9003 20.3685 16.461 19.7726 15.8399 19.3056C14.3057 18.1533 12.0248 18.2534 10.3005 18.889C9.50388 19.1838 8.78542 19.64 8.07424 20.0935C8.03514 20.1179 7.99876 20.1449 7.95784 20.1693L7.95329 20.172C7.59043 20.4055 7.25848 20.6823 6.91835 20.9483C6.67735 21.1385 6.43635 21.3314 6.15443 21.4649C6.01438 21.5307 5.86887 21.5749 5.71062 21.5496C5.5351 21.5208 5.44689 21.418 5.46417 21.244C5.47326 21.1529 5.49327 21.0565 5.52965 20.9726C5.61968 20.7661 5.71426 20.5615 5.81794 20.3604C5.92889 20.1413 5.99801 19.9159 6.02802 19.668C6.16716 18.5122 6.6437 17.5141 7.49857 16.7045C8.10335 16.131 8.82362 15.7479 9.60937 15.4756C9.65393 15.4612 9.70031 15.4269 9.72851 15.3908C10.0695 14.9256 10.4961 14.5524 10.9908 14.2566C11.5374 13.9312 12.1276 13.7175 12.7542 13.603C12.9224 13.5714 13.0934 13.5516 13.2644 13.5272C12.7187 13.9429 12.2722 14.4243 12.0348 15.078C12.0503 15.0843 12.0557 15.087 12.0603 15.0879C12.0849 15.0897 12.1103 15.0915 12.1367 15.0924C12.6678 15.1186 13.1889 15.206 13.6909 15.38C14.1738 15.5468 14.6231 15.7533 15.0341 15.9994C15.0105 15.5243 15.0423 15.0347 15.126 14.5343C15.2124 14.0141 15.3834 13.5182 15.6144 13.044C15.6253 13.0205 15.6371 12.998 15.6462 12.9755C15.648 12.971 15.648 12.9646 15.6498 12.9484C14.9578 12.842 14.3175 13.0007 13.6882 13.2775C13.7909 13.1405 13.891 13.0007 13.9992 12.87C14.4003 12.3795 14.8714 11.9675 15.4216 11.6465C15.919 11.3562 16.4538 11.1642 17.0294 11.0893C17.0749 11.0821 17.1277 11.0578 17.1613 11.0262C17.7779 10.4726 18.4618 10.0282 19.2585 9.77571C20.3843 9.41777 21.4966 9.47998 22.587 9.91185C22.8207 10.0038 23.0544 10.0516 23.3009 10.0597C23.5283 10.066 23.7556 10.0813 23.9812 10.1021C24.073 10.1111 24.1685 10.139 24.2531 10.1751C24.4159 10.2427 24.465 10.3699 24.4059 10.5357L24.404 10.5321Z" fill="url(#paint3_radial_74_25024)"/>
<path opacity="0.85" d="M24.404 10.5321C24.3504 10.6827 24.2422 10.7882 24.1167 10.8784C23.8638 11.0605 23.5774 11.1777 23.2936 11.2967C22.8944 11.4653 22.4915 11.6222 22.1114 11.8268L22.1068 11.8295C22.0677 11.853 22.0259 11.8719 21.9859 11.8945C21.2429 12.2975 20.4953 12.705 19.8532 13.2586C18.4673 14.455 17.2877 16.3943 17.5751 18.2813C17.6915 19.0459 18.0098 19.7122 18.58 20.2495C18.6764 20.3397 18.7874 20.4145 18.8965 20.4875C19.093 20.6183 19.3058 20.6246 19.5077 20.5173C19.735 20.3983 19.9542 20.2612 20.1706 20.1251C20.4589 19.9439 20.7527 19.7771 21.0946 19.7167C21.4948 19.6446 21.9267 19.7699 22.2469 20.0142C21.9358 19.9574 21.7085 20.1062 21.5057 20.2928C21.2929 20.4857 21.0955 20.6967 20.8918 20.8978C20.8318 20.9564 20.769 21.0132 20.7036 21.0646C20.6026 21.1439 20.4953 21.2088 20.3543 21.2242C20.4044 21.271 20.4526 21.3098 20.4917 21.3567C20.579 21.464 20.6226 21.592 20.6499 21.7245C20.6763 21.8607 20.7008 21.9986 20.7272 22.1348C20.8145 22.5856 20.96 22.8867 21.4166 23.1238C21.2938 23.1166 21.1719 23.1139 21.051 23.1031C20.4489 23.0499 20.0015 22.7533 19.6886 22.2466C19.5659 22.0473 19.4449 21.848 19.3185 21.6533C19.0957 21.3089 18.7865 21.0664 18.3936 20.9374C18.209 20.8761 18.0307 20.804 17.8625 20.722C17.8552 20.9077 17.8352 21.0961 17.8016 21.2873C17.7279 21.6903 17.7961 22.0753 17.9944 22.435C18.1062 22.6388 18.2254 22.8398 18.3427 23.0409C18.6428 23.5548 18.691 24.0867 18.4509 24.6367C18.4027 24.7476 18.3463 24.8549 18.2945 24.9649C18.3036 24.4537 18.1062 24.1832 17.7479 23.892C17.6397 23.8036 17.5296 23.7171 17.4214 23.6278C17.3177 23.5403 17.225 23.4412 17.1713 23.314C17.1495 23.2572 17.1377 23.1968 17.1204 23.131C17.0394 23.2464 16.9303 23.3086 16.8121 23.3591C16.7348 23.3916 16.6548 23.4186 16.5738 23.443C16.2973 23.525 16.0172 23.5962 15.7444 23.6891C15.4825 23.7775 15.2415 23.9046 15.1433 24.2021C15.0796 23.8063 15.1751 23.3708 15.4297 23.0562C15.6471 22.7875 15.9345 22.6117 16.2328 22.4476C16.4565 22.3241 16.6839 22.1988 16.8976 22.0572C17.0895 21.9328 17.185 21.7444 17.1631 21.5109C17.1504 21.381 17.1377 21.2485 17.1031 21.1214C16.9003 20.3685 16.461 19.7726 15.8399 19.3056C14.3057 18.1533 12.0248 18.2534 10.3005 18.889C9.50388 19.1838 8.78542 19.64 8.07424 20.0935C8.03514 20.1179 7.99876 20.1449 7.95784 20.1693L7.95329 20.172C7.59043 20.4055 7.25848 20.6823 6.91835 20.9483C6.67735 21.1385 6.43635 21.3314 6.15443 21.4649C6.01438 21.5307 5.86887 21.5749 5.71062 21.5496C5.5351 21.5208 5.44689 21.418 5.46417 21.244C5.47326 21.1529 5.49327 21.0565 5.52965 20.9726C5.61968 20.7661 5.71426 20.5615 5.81794 20.3604C5.92889 20.1413 5.99801 19.9159 6.02802 19.668C6.16716 18.5122 6.6437 17.5141 7.49857 16.7045C8.10335 16.131 8.82362 15.7479 9.60937 15.4756C9.65393 15.4612 9.70031 15.4269 9.72851 15.3908C10.0695 14.9256 10.4961 14.5524 10.9908 14.2566C11.5374 13.9312 12.1276 13.7175 12.7542 13.603C12.9224 13.5714 13.0934 13.5516 13.2644 13.5272C12.7187 13.9429 12.2722 14.4243 12.0348 15.078C12.0503 15.0843 12.0557 15.087 12.0603 15.0879C12.0849 15.0897 12.1103 15.0915 12.1367 15.0924C12.6678 15.1186 13.1889 15.206 13.6909 15.38C14.1738 15.5468 14.6231 15.7533 15.0341 15.9994C15.0105 15.5243 15.0423 15.0347 15.126 14.5343C15.2124 14.0141 15.3834 13.5182 15.6144 13.044C15.6253 13.0205 15.6371 12.998 15.6462 12.9755C15.648 12.971 15.648 12.9646 15.6498 12.9484C14.9578 12.842 14.3175 13.0007 13.6882 13.2775C13.7909 13.1405 13.891 13.0007 13.9992 12.87C14.4003 12.3795 14.8714 11.9675 15.4216 11.6465C15.919 11.3562 16.4538 11.1642 17.0294 11.0893C17.0749 11.0821 17.1277 11.0578 17.1613 11.0262C17.7779 10.4726 18.4618 10.0282 19.2585 9.77571C20.3843 9.41777 21.4966 9.47998 22.587 9.91185C22.8207 10.0038 23.0544 10.0516 23.3009 10.0597C23.5283 10.066 23.7556 10.0813 23.9812 10.1021C24.073 10.1111 24.1685 10.139 24.2531 10.1751C24.4159 10.2427 24.465 10.3699 24.4059 10.5357L24.404 10.5321Z" fill="#724401"/>
<g style="mix-blend-mode:hard-light">
<path opacity="0.85" d="M24.404 10.5321C24.3504 10.6827 24.2422 10.7882 24.1167 10.8784C23.8638 11.0605 23.5774 11.1777 23.2936 11.2967C22.8944 11.4653 22.4915 11.6222 22.1114 11.8268L22.1068 11.8295C22.0677 11.853 22.0259 11.8719 21.9859 11.8945C21.2429 12.2975 20.4953 12.705 19.8532 13.2586C18.4673 14.455 17.2877 16.3943 17.5751 18.2813C17.6915 19.0459 18.0098 19.7122 18.58 20.2495C18.6764 20.3397 18.7874 20.4145 18.8965 20.4875C19.093 20.6183 19.3058 20.6246 19.5077 20.5173C19.735 20.3983 19.9542 20.2612 20.1706 20.1251C20.4589 19.9439 20.7527 19.7771 21.0946 19.7167C21.4948 19.6446 21.9267 19.7699 22.2469 20.0142C21.9358 19.9574 21.7085 20.1062 21.5057 20.2928C21.2929 20.4857 21.0955 20.6967 20.8918 20.8978C20.8318 20.9564 20.769 21.0132 20.7036 21.0646C20.6026 21.1439 20.4953 21.2088 20.3543 21.2242C20.4044 21.271 20.4526 21.3098 20.4917 21.3567C20.579 21.464 20.6226 21.592 20.6499 21.7245C20.6763 21.8607 20.7008 21.9986 20.7272 22.1348C20.8145 22.5856 20.96 22.8867 21.4166 23.1238C21.2938 23.1166 21.1719 23.1139 21.051 23.1031C20.4489 23.0499 20.0015 22.7533 19.6886 22.2466C19.5659 22.0473 19.4449 21.848 19.3185 21.6533C19.0957 21.3089 18.7865 21.0664 18.3936 20.9374C18.209 20.8761 18.0307 20.804 17.8625 20.722C17.8552 20.9077 17.8352 21.0961 17.8016 21.2873C17.7279 21.6903 17.7961 22.0753 17.9944 22.435C18.1062 22.6388 18.2254 22.8398 18.3427 23.0409C18.6428 23.5548 18.691 24.0867 18.4509 24.6367C18.4027 24.7476 18.3463 24.8549 18.2945 24.9649C18.3036 24.4537 18.1062 24.1832 17.7479 23.892C17.6397 23.8036 17.5296 23.7171 17.4214 23.6278C17.3177 23.5403 17.225 23.4412 17.1713 23.314C17.1495 23.2572 17.1377 23.1968 17.1204 23.131C17.0394 23.2464 16.9303 23.3086 16.8121 23.3591C16.7348 23.3916 16.6548 23.4186 16.5738 23.443C16.2973 23.525 16.0172 23.5962 15.7444 23.6891C15.4825 23.7775 15.2415 23.9046 15.1433 24.2021C15.0796 23.8063 15.1751 23.3708 15.4297 23.0562C15.6471 22.7875 15.9345 22.6117 16.2328 22.4476C16.4565 22.3241 16.6839 22.1988 16.8976 22.0572C17.0895 21.9328 17.185 21.7444 17.1631 21.5109C17.1504 21.381 17.1377 21.2485 17.1031 21.1214C16.9003 20.3685 16.461 19.7726 15.8399 19.3056C14.3057 18.1533 12.0248 18.2534 10.3005 18.889C9.50388 19.1838 8.78542 19.64 8.07424 20.0935C8.03514 20.1179 7.99876 20.1449 7.95784 20.1693L7.95329 20.172C7.59043 20.4055 7.25848 20.6823 6.91835 20.9483C6.67735 21.1385 6.43635 21.3314 6.15443 21.4649C6.01438 21.5307 5.86887 21.5749 5.71062 21.5496C5.5351 21.5208 5.44689 21.418 5.46417 21.244C5.47326 21.1529 5.49327 21.0565 5.52965 20.9726C5.61968 20.7661 5.71426 20.5615 5.81794 20.3604C5.92889 20.1413 5.99801 19.9159 6.02802 19.668C6.16716 18.5122 6.6437 17.5141 7.49857 16.7045C8.10335 16.131 8.82362 15.7479 9.60937 15.4756C9.65393 15.4612 9.70031 15.4269 9.72851 15.3908C10.0695 14.9256 10.4961 14.5524 10.9908 14.2566C11.5374 13.9312 12.1276 13.7175 12.7542 13.603C12.9224 13.5714 13.0934 13.5516 13.2644 13.5272C12.7187 13.9429 12.2722 14.4243 12.0348 15.078C12.0503 15.0843 12.0557 15.087 12.0603 15.0879C12.0849 15.0897 12.1103 15.0915 12.1367 15.0924C12.6678 15.1186 13.1889 15.206 13.6909 15.38C14.1738 15.5468 14.6231 15.7533 15.0341 15.9994C15.0105 15.5243 15.0423 15.0347 15.126 14.5343C15.2124 14.0141 15.3834 13.5182 15.6144 13.044C15.6253 13.0205 15.6371 12.998 15.6462 12.9755C15.648 12.971 15.648 12.9646 15.6498 12.9484C14.9578 12.842 14.3175 13.0007 13.6882 13.2775C13.7909 13.1405 13.891 13.0007 13.9992 12.87C14.4003 12.3795 14.8714 11.9675 15.4216 11.6465C15.919 11.3562 16.4538 11.1642 17.0294 11.0893C17.0749 11.0821 17.1277 11.0578 17.1613 11.0262C17.7779 10.4726 18.4618 10.0282 19.2585 9.77571C20.3843 9.41777 21.4966 9.47998 22.587 9.91185C22.8207 10.0038 23.0544 10.0516 23.3009 10.0597C23.5283 10.066 23.7556 10.0813 23.9812 10.1021C24.073 10.1111 24.1685 10.139 24.2531 10.1751C24.4159 10.2427 24.465 10.3699 24.4059 10.5357L24.404 10.5321Z" fill="#663703"/>
</g>
<path d="M12.2677 5.07841L10.106 4.48877L8.09435 3.9397V3.9433C8.05706 4.08936 7.09579 7.97704 7.09488 7.97974C6.90936 8.73257 7.14126 9.61523 7.76149 10.0967C7.84698 10.1652 7.94065 10.2238 8.0416 10.2752C8.13345 10.3221 8.22894 10.359 8.32716 10.3879C8.3308 10.3888 8.33535 10.3897 8.33899 10.3906C8.96104 10.5808 9.68858 10.4564 10.2224 10.0994C10.7608 9.74146 11.2255 9.01297 11.0555 8.34759C10.97 8.01671 10.7253 7.75615 10.4461 7.56861C10.4461 7.56861 10.2561 7.40813 9.95687 7.36485C9.65585 7.31797 9.24387 7.3901 8.80371 7.86073L8.59817 8.09424H8.59726L8.04706 8.72085C7.95339 8.81912 7.80606 8.8083 7.72057 8.73167C7.67237 8.692 7.64327 8.6343 7.64691 8.56217C7.65054 8.45939 7.82515 8.09965 7.90973 7.92384C7.90973 7.92384 7.95429 7.66328 7.97157 7.39911C7.99704 6.98258 8.16346 6.58137 8.47449 6.29917C8.71003 6.08729 9.0538 5.89435 9.55308 5.81051C9.83773 5.76182 10.1715 5.74919 10.5671 5.78616C10.6399 5.79247 10.7135 5.78346 10.7781 5.7519C10.8736 5.70592 11.0409 5.64641 11.2419 5.66895C11.4611 5.69149 11.7194 5.81321 11.9685 6.15672C11.9685 6.15672 11.5184 6.00345 11.0973 6.27843C11.09 6.28294 11.0827 6.28835 11.0755 6.29286C11.0755 6.29286 11.0982 6.29106 11.1373 6.29286C11.2828 6.30638 11.6566 6.39474 11.9103 6.95733C11.9103 6.95733 12.1968 7.51812 11.9713 8.32415C11.9231 8.50086 12.0058 8.66495 12.1404 8.747C12.2377 8.8056 12.3605 8.82183 12.4805 8.77134L12.4878 8.76863C13.2417 8.45218 13.6337 7.65607 13.6201 6.87168C13.6028 6.02058 13.1181 5.30922 12.2686 5.07841H12.2677ZM8.45539 4.54016L9.21386 4.78088L9.06926 5.56437L8.85918 5.50306L8.2917 5.33536L8.45357 4.55459L8.4563 4.54106L8.45539 4.54016Z" fill="#3A2415"/>
<path d="M13.2219 9.69187C13.2619 9.75859 13.2391 9.84424 13.1727 9.88391L11.4057 10.9252C11.3384 10.9649 11.252 10.9424 11.212 10.8766C11.1875 10.836 11.1856 10.7837 11.2075 10.7413C11.2438 10.6692 11.3402 10.6367 11.3939 10.5754C11.443 10.5195 11.4794 10.4537 11.5039 10.3834C11.5549 10.2373 11.5594 10.0786 11.5567 9.92628C11.5549 9.85776 11.5521 9.78924 11.5494 9.72072C11.5412 9.4854 11.5221 9.24828 11.4839 9.01477C11.764 9.26091 12.0696 9.45926 12.3988 9.63417C12.5289 9.70359 12.6771 9.73515 12.8235 9.71171C12.8972 9.69999 12.9672 9.67474 13.0336 9.64138C13.1 9.60802 13.1828 9.62335 13.2228 9.69097L13.2219 9.69187Z" fill="#3A2415"/>
<path d="M12.0559 5.02431L10.1043 4.49147L8.09531 3.9433L7.88432 3.8856C7.88432 3.8856 6.88667 7.92294 6.88485 7.92564C6.68205 8.7479 6.97761 9.72612 7.73335 10.1688C7.76518 10.1877 7.79792 10.2058 7.83248 10.2229C7.98891 10.3004 8.15624 10.3554 8.32994 10.3879C8.33358 10.3888 8.33813 10.3897 8.34177 10.3906C8.91289 10.4952 9.53949 10.3617 10.0133 10.0462C10.5517 9.68826 11.0164 8.95977 10.8463 8.29439C10.7609 7.96351 10.5162 7.70294 10.237 7.51541C10.237 7.51541 10.1334 7.42886 9.95965 7.36575C9.69682 7.26838 9.27394 7.2269 8.80285 7.61188H8.80194C8.73373 7.66778 8.66462 7.7327 8.59459 7.80753L7.83885 8.66585C7.8052 8.70101 7.76428 8.72175 7.72335 8.73077C7.58512 8.76322 7.43051 8.66675 7.43688 8.50807C7.44143 8.40709 7.61604 8.04555 7.69971 7.86974C7.69971 7.86974 7.74427 7.60918 7.76155 7.34502C7.78701 6.92848 7.95435 6.52727 8.26446 6.24507C8.53729 5.99893 8.95473 5.78075 9.59042 5.72575C9.81596 5.70321 10.0706 5.70501 10.3562 5.73206C10.4298 5.74018 10.5026 5.72936 10.5672 5.6978C10.6954 5.63649 10.9509 5.54994 11.2429 5.66895C11.4075 5.73477 11.5866 5.8664 11.7567 6.10262C11.7567 6.10262 11.2902 5.94304 10.8645 6.23876C10.8645 6.23876 10.9609 6.22974 11.0974 6.27843C11.1101 6.28294 11.1237 6.28834 11.1374 6.29375C11.3092 6.36588 11.5302 6.53087 11.6985 6.90413C11.6985 6.90413 11.9841 7.46583 11.7576 8.27185C11.6867 8.5279 11.8949 8.75872 12.1396 8.7479C12.1814 8.74519 12.2251 8.73617 12.2678 8.71814L12.2751 8.71543C13.0308 8.39807 13.421 7.60287 13.4073 6.81848C13.39 5.96738 12.9053 5.25602 12.0559 5.02521V5.02431ZM8.85742 5.51027L8.07985 5.28127L8.24355 4.48696L8.45363 4.55368L9.00383 4.72678L8.85923 5.50306L8.85742 5.51117V5.51027Z" fill="url(#paint4_radial_74_25024)"/>
<path d="M13.0099 9.63868C13.05 9.70539 13.0272 9.79104 12.9608 9.83071L11.1938 10.8721C11.1265 10.9117 11.0401 10.8892 11.0001 10.8234C10.9755 10.7828 10.9737 10.7305 10.9955 10.6881C11.0319 10.616 11.1283 10.5835 11.182 10.5222C11.2311 10.4663 11.2675 10.4005 11.292 10.3302C11.343 10.1841 11.3475 10.0255 11.3448 9.87309C11.343 9.80457 11.3402 9.73604 11.3375 9.66752C11.3293 9.43221 11.3102 9.19509 11.272 8.96158C11.5521 9.20771 11.8577 9.40606 12.1869 9.58097C12.317 9.6504 12.4652 9.68195 12.6116 9.65851C12.6853 9.64679 12.7553 9.62154 12.8217 9.58818C12.8881 9.55482 12.9708 9.57015 13.0109 9.63777L13.0099 9.63868Z" fill="url(#paint5_radial_74_25024)"/>
<g opacity="0.85">
<path d="M12.0559 5.02431L10.1043 4.49147L8.09531 3.9433L7.88432 3.8856C7.88432 3.8856 6.88667 7.92294 6.88485 7.92564C6.68205 8.7479 6.97761 9.72612 7.73335 10.1688C7.76518 10.1877 7.79792 10.2058 7.83248 10.2229C7.98891 10.3004 8.15624 10.3554 8.32994 10.3879C8.33358 10.3888 8.33813 10.3897 8.34177 10.3906C8.91289 10.4952 9.53949 10.3617 10.0133 10.0462C10.5517 9.68826 11.0164 8.95977 10.8463 8.29439C10.7609 7.96351 10.5162 7.70294 10.237 7.51541C10.237 7.51541 10.1334 7.42886 9.95965 7.36575C9.69682 7.26838 9.27394 7.2269 8.80285 7.61188H8.80194C8.73373 7.66778 8.66462 7.7327 8.59459 7.80753L7.83885 8.66585C7.8052 8.70101 7.76428 8.72175 7.72335 8.73077C7.58512 8.76322 7.43051 8.66675 7.43688 8.50807C7.44143 8.40709 7.61604 8.04555 7.69971 7.86974C7.69971 7.86974 7.74427 7.60918 7.76155 7.34502C7.78701 6.92848 7.95435 6.52727 8.26446 6.24507C8.53729 5.99893 8.95473 5.78075 9.59042 5.72575C9.81596 5.70321 10.0706 5.70501 10.3562 5.73206C10.4298 5.74018 10.5026 5.72936 10.5672 5.6978C10.6954 5.63649 10.9509 5.54994 11.2429 5.66895C11.4075 5.73477 11.5866 5.8664 11.7567 6.10262C11.7567 6.10262 11.2902 5.94304 10.8645 6.23876C10.8645 6.23876 10.9609 6.22974 11.0974 6.27843C11.1101 6.28294 11.1237 6.28834 11.1374 6.29375C11.3092 6.36588 11.5302 6.53087 11.6985 6.90413C11.6985 6.90413 11.9841 7.46583 11.7576 8.27185C11.6867 8.5279 11.8949 8.75872 12.1396 8.7479C12.1814 8.74519 12.2251 8.73617 12.2678 8.71814L12.2751 8.71543C13.0308 8.39807 13.421 7.60287 13.4073 6.81848C13.39 5.96738 12.9053 5.25602 12.0559 5.02521V5.02431ZM8.85742 5.51027L8.07985 5.28127L8.24355 4.48696L8.45363 4.55368L9.00383 4.72678L8.85923 5.50306L8.85742 5.51117V5.51027Z" fill="#724401"/>
<path d="M13.0099 9.63868C13.05 9.70539 13.0272 9.79104 12.9608 9.83071L11.1938 10.8721C11.1265 10.9117 11.0401 10.8892 11.0001 10.8234C10.9755 10.7828 10.9737 10.7305 10.9955 10.6881C11.0319 10.616 11.1283 10.5835 11.182 10.5222C11.2311 10.4663 11.2675 10.4005 11.292 10.3302C11.343 10.1841 11.3475 10.0255 11.3448 9.87309C11.343 9.80457 11.3402 9.73604 11.3375 9.66752C11.3293 9.43221 11.3102 9.19509 11.272 8.96158C11.5521 9.20771 11.8577 9.40606 12.1869 9.58097C12.317 9.6504 12.4652 9.68195 12.6116 9.65851C12.6853 9.64679 12.7553 9.62154 12.8217 9.58818C12.8881 9.55482 12.9708 9.57015 13.0109 9.63777L13.0099 9.63868Z" fill="#724401"/>
</g>
<g opacity="0.85">
<path d="M12.0559 5.02431L10.1043 4.49147L8.09531 3.9433L7.88432 3.8856C7.88432 3.8856 6.88667 7.92294 6.88485 7.92564C6.68205 8.7479 6.97761 9.72612 7.73335 10.1688C7.76518 10.1877 7.79792 10.2058 7.83248 10.2229C7.98891 10.3004 8.15624 10.3554 8.32994 10.3879C8.33358 10.3888 8.33813 10.3897 8.34177 10.3906C8.91289 10.4952 9.53949 10.3617 10.0133 10.0462C10.5517 9.68826 11.0164 8.95977 10.8463 8.29439C10.7609 7.96351 10.5162 7.70294 10.237 7.51541C10.237 7.51541 10.1334 7.42886 9.95965 7.36575C9.69682 7.26838 9.27394 7.2269 8.80285 7.61188H8.80194C8.73373 7.66778 8.66462 7.7327 8.59459 7.80753L7.83885 8.66585C7.8052 8.70101 7.76428 8.72175 7.72335 8.73077C7.58512 8.76322 7.43051 8.66675 7.43688 8.50807C7.44143 8.40709 7.61604 8.04555 7.69971 7.86974C7.69971 7.86974 7.74427 7.60918 7.76155 7.34502C7.78701 6.92848 7.95435 6.52727 8.26446 6.24507C8.53729 5.99893 8.95473 5.78075 9.59042 5.72575C9.81596 5.70321 10.0706 5.70501 10.3562 5.73206C10.4298 5.74018 10.5026 5.72936 10.5672 5.6978C10.6954 5.63649 10.9509 5.54994 11.2429 5.66895C11.4075 5.73477 11.5866 5.8664 11.7567 6.10262C11.7567 6.10262 11.2902 5.94304 10.8645 6.23876C10.8645 6.23876 10.9609 6.22974 11.0974 6.27843C11.1101 6.28294 11.1237 6.28834 11.1374 6.29375C11.3092 6.36588 11.5302 6.53087 11.6985 6.90413C11.6985 6.90413 11.9841 7.46583 11.7576 8.27185C11.6867 8.5279 11.8949 8.75872 12.1396 8.7479C12.1814 8.74519 12.2251 8.73617 12.2678 8.71814L12.2751 8.71543C13.0308 8.39807 13.421 7.60287 13.4073 6.81848C13.39 5.96738 12.9053 5.25602 12.0559 5.02521V5.02431ZM8.85742 5.51027L8.07985 5.28127L8.24355 4.48696L8.45363 4.55368L9.00383 4.72678L8.85923 5.50306L8.85742 5.51117V5.51027Z" fill="#663703"/>
<path d="M13.0099 9.63868C13.05 9.70539 13.0272 9.79104 12.9608 9.83071L11.1938 10.8721C11.1265 10.9117 11.0401 10.8892 11.0001 10.8234C10.9755 10.7828 10.9737 10.7305 10.9955 10.6881C11.0319 10.616 11.1283 10.5835 11.182 10.5222C11.2311 10.4663 11.2675 10.4005 11.292 10.3302C11.343 10.1841 11.3475 10.0255 11.3448 9.87309C11.343 9.80457 11.3402 9.73604 11.3375 9.66752C11.3293 9.43221 11.3102 9.19509 11.272 8.96158C11.5521 9.20771 11.8577 9.40606 12.1869 9.58097C12.317 9.6504 12.4652 9.68195 12.6116 9.65851C12.6853 9.64679 12.7553 9.62154 12.8217 9.58818C12.8881 9.55482 12.9708 9.57015 13.0109 9.63777L13.0099 9.63868Z" fill="#663703"/>
</g>
</g>
<path d="M17.7543 0.568643L17.6815 0.741751L17.5678 1.01133L17.2705 1.72269L17.1741 1.95439L12.3231 13.5426L12.2286 13.7716L10.2524 18.4914L10.1614 18.7087L7.67411 24.652L7.55407 24.9387L7.21667 25.7439L7.16301 25.8728L7.0848 26.0621C5.56968 25.165 4.2119 23.9713 3.10693 22.5017L3.12876 22.4494L3.14604 22.4089L3.58257 21.3648L3.72171 21.0285L8.15248 10.424L8.18067 10.3563L8.96005 8.49005H8.96096L9.1474 8.04015H9.14831L9.84948 6.36049L9.88222 6.28204L10.3624 5.13161L10.3651 5.12801L11.7811 1.73891L11.8984 1.45671L12.2004 0.732734L12.3695 0.327017L12.4787 0.0655551C14.2621 -0.107551 16.0546 0.0691611 17.7516 0.569546L17.7543 0.568643Z" fill="url(#paint6_linear_74_25024)"/>
<path d="M25.7728 6.8221C25.7973 6.85996 25.821 6.89963 25.8446 6.9384C25.8801 6.99791 25.9165 7.05831 25.9492 7.11782C25.9529 7.12052 25.9547 7.12413 25.9547 7.12683L25.9519 7.13495L25.4354 8.353L25.3053 8.65954L20.9019 19.0594L20.7973 19.3047L20.3444 20.3749L20.2643 20.5651L20.2334 20.6372L20.1043 20.9402L19.7441 21.7922L19.6223 22.0798L18.1081 25.6564L17.9544 26.017L17.5833 26.8943L17.4533 27.2008L17.2605 27.6534C16.1073 27.9167 14.9369 28.0276 13.7773 27.9942L13.9256 27.6435L14.0247 27.4091L14.3494 26.6436L14.4776 26.3398L15.92 22.9336L16.0173 22.7037L16.4647 21.6497L16.5511 21.4432L16.8912 20.6435L17.0304 20.3154L17.6142 18.935L17.7461 18.624L20.2462 12.7194L20.3316 12.5202H20.3325L21.4048 9.98579L21.5148 9.72613L23.2555 5.61576L23.3619 5.36602L23.7611 4.42205L23.8048 4.31837L23.833 4.25436C24.5314 4.98465 25.1616 5.80239 25.7028 6.70489C25.7264 6.74456 25.751 6.78423 25.7728 6.8239V6.8221Z" fill="url(#paint7_linear_74_25024)"/>
<defs>
<linearGradient id="paint0_linear_74_25024" x1="16.7695" y1="27.3645" x2="11.2457" y2="0.506357" gradientUnits="userSpaceOnUse">
<stop stop-color="#D3A150"/>
<stop offset="0.42" stop-color="#DDB264"/>
<stop offset="1" stop-color="#EFD186"/>
</linearGradient>
<linearGradient id="paint1_linear_74_25024" x1="7.43414" y1="3.07491" x2="20.333" y2="24.9705" gradientUnits="userSpaceOnUse">
<stop stop-color="#513A01"/>
<stop offset="0.15" stop-color="#65440B"/>
<stop offset="0.46" stop-color="#986024"/>
<stop offset="0.58" stop-color="#AD6B2F"/>
<stop offset="1" stop-color="#FFE6CA"/>
</linearGradient>
<linearGradient id="paint2_linear_74_25024" x1="16.5292" y1="26.0954" x2="11.5304" y2="1.78876" gradientUnits="userSpaceOnUse">
<stop stop-color="#D3A150"/>
<stop offset="0.42" stop-color="#DDB264"/>
<stop offset="1" stop-color="#EFD186"/>
</linearGradient>
<radialGradient id="paint3_radial_74_25024" cx="0" cy="0" r="1" gradientUnits="userSpaceOnUse" gradientTransform="translate(16.5253 18.5015) rotate(-30.5026) scale(9.01406 8.97657)">
<stop stop-color="white"/>
<stop offset="0.6" stop-color="#DDDDDD"/>
<stop offset="1" stop-color="#CCCCCC"/>
</radialGradient>
<radialGradient id="paint4_radial_74_25024" cx="0" cy="0" r="1" gradientUnits="userSpaceOnUse" gradientTransform="translate(9.50139 6.65418) rotate(-30.5026) scale(3.38095 3.36689)">
<stop stop-color="white"/>
<stop offset="0.6" stop-color="#DDDDDD"/>
<stop offset="1" stop-color="#CCCCCC"/>
</radialGradient>
<radialGradient id="paint5_radial_74_25024" cx="0" cy="0" r="1" gradientUnits="userSpaceOnUse" gradientTransform="translate(11.6621 9.66763) rotate(-30.5026) scale(1.00267 0.998501)">
<stop stop-color="white"/>
<stop offset="0.6" stop-color="#DDDDDD"/>
<stop offset="1" stop-color="#CCCCCC"/>
</radialGradient>
<linearGradient id="paint6_linear_74_25024" x1="4.16377" y1="32.4476" x2="13.634" y2="0.289787" gradientUnits="userSpaceOnUse">
<stop stop-color="white" stop-opacity="0"/>
<stop offset="1" stop-color="white" stop-opacity="0.3"/>
</linearGradient>
<linearGradient id="paint7_linear_74_25024" x1="14.4936" y1="35.4896" x2="23.9634" y2="3.33104" gradientUnits="userSpaceOnUse">
<stop stop-color="white" stop-opacity="0"/>
<stop offset="1" stop-color="white" stop-opacity="0.3"/>
</linearGradient>
</defs>
</svg>
