<svg width="73" height="73" viewBox="0 0 73 73" fill="none" xmlns="http://www.w3.org/2000/svg">
<g filter="url(#filter0_f_68_39831)">
<path d="M65.0189 18.5137C65.0767 18.6115 65.1366 18.7092 65.1899 18.8069C65.2721 18.9447 65.3521 19.0868 65.432 19.2267L65.4565 19.2667C65.5164 19.3733 65.572 19.4755 65.6275 19.5799C74.3101 35.4502 68.9304 55.4629 53.2511 64.7807C50.6635 66.32 47.9559 67.4706 45.1905 68.2546C42.3274 69.0654 39.4066 69.4807 36.4991 69.5229C30.7018 69.6029 24.9623 68.1858 19.8714 65.4204C16.1265 63.3881 12.7348 60.6338 9.92721 57.2043C9.03652 56.1204 8.20358 54.9676 7.43727 53.7504L7.41284 53.7104C7.32843 53.5727 7.24181 53.4372 7.15963 53.2973C7.09966 53.204 7.0419 53.1063 6.98415 53.0063C-2.53801 36.9828 2.72617 16.2681 18.7564 6.74154C23.1698 4.11834 27.9342 2.61905 32.7275 2.15927C37.0832 1.7328 41.4612 2.16815 45.6059 3.4009C51.1699 5.04679 56.3164 8.12533 60.4544 12.4744C62.1603 14.2735 63.6995 16.2881 65.0211 18.5115L65.0189 18.5137Z" fill="#A37417"/>
<path d="M65.8829 19.9686C75.4073 35.9944 70.1432 56.7046 54.1107 66.2334C51.0122 68.0747 47.736 69.3652 44.3998 70.1249C41.5833 70.7735 38.7247 71.0467 35.8927 70.9645C30.1421 70.7935 24.5025 69.1542 19.5449 66.2023C15.8444 63.9922 12.5282 61.0514 9.82947 57.4309C9.12536 56.4891 8.46123 55.4963 7.84597 54.4612C7.75934 54.3146 7.67271 54.1702 7.59275 54.0214C7.53722 53.9281 7.48392 53.8393 7.43505 53.7482L7.41062 53.7082C-1.51182 37.7891 3.84342 17.5786 19.6226 8.20308C23.5607 5.86419 27.7765 4.41599 32.0456 3.80294C36.4524 3.16547 40.9059 3.41868 45.1505 4.49151C50.7545 5.91084 55.9965 8.75616 60.2767 12.8875C62.2069 14.7422 63.9439 16.8612 65.432 19.2245L65.4565 19.2645C65.512 19.3534 65.5653 19.4422 65.6208 19.5333C65.6297 19.5399 65.6342 19.5488 65.6342 19.5555C65.7208 19.6888 65.803 19.8265 65.8852 19.9642L65.8829 19.9686Z" fill="#6D3C1B"/>
<path d="M65.3632 19.0935C65.4498 19.2401 65.5387 19.3889 65.6186 19.5355C65.6275 19.5422 65.632 19.551 65.632 19.5577C74.7876 35.5213 69.4679 55.9227 53.591 65.3583C50.7967 67.0175 47.8626 68.228 44.8707 69.0099C42.0276 69.7584 39.1312 70.1138 36.2547 70.1005C30.4753 70.0849 24.778 68.5812 19.7381 65.7359C16.0132 63.6391 12.6481 60.8071 9.88278 57.3021C9.06539 56.267 8.29909 55.1764 7.59275 54.0236C7.50169 53.8837 7.41284 53.7349 7.32622 53.5883C7.26847 53.4928 7.21071 53.395 7.15741 53.2973C-2.13375 37.316 3.16596 16.7946 19.0984 7.32573C23.3253 4.81358 27.872 3.32984 32.4565 2.80342C36.8322 2.29921 41.2413 2.66127 45.426 3.82738C51.0033 5.38664 56.1875 8.3719 60.3811 12.6343C62.1825 14.4601 63.8017 16.5192 65.1877 18.807C65.2477 18.9002 65.3054 18.998 65.3632 19.0935Z" fill="url(#paint0_linear_68_39831)"/>
<path d="M63.2064 20.455C72.02 35.2858 67.1446 54.4501 52.316 63.2637C37.4875 72.0773 18.3232 67.1996 9.50962 52.3688C0.698234 37.5425 5.5737 18.376 20.4 9.56464C35.2263 0.753255 54.3928 5.62873 63.2042 20.455H63.2064Z" fill="url(#paint1_linear_68_39831)" stroke="#281401" stroke-width="0.00888468" stroke-miterlimit="10"/>
<path d="M62.6711 20.746C71.2915 35.2503 66.5182 53.997 52.0162 62.6173C37.5119 71.2377 18.7675 66.4688 10.1471 51.9646C1.52674 37.4603 6.2956 18.7159 20.7998 10.0955C35.3041 1.47516 54.0508 6.24179 62.6711 20.746Z" fill="url(#paint2_linear_68_39831)"/>
<g style="mix-blend-mode:multiply">
<path d="M62.2668 27.2896C62.1358 27.6606 61.8715 27.9204 61.565 28.1426C60.9475 28.5912 60.2478 28.88 59.5548 29.1732C58.5797 29.5885 57.5957 29.975 56.6673 30.4792L56.6562 30.4859C56.5606 30.5436 56.4585 30.5903 56.3607 30.6458C54.5461 31.6387 52.7202 32.6426 51.1521 34.0064C47.767 36.9539 44.8862 41.7317 45.5881 46.3806C45.8724 48.2641 46.6498 49.9056 48.0425 51.2294C48.2779 51.4515 48.5489 51.6359 48.8154 51.8158C49.2952 52.1379 49.815 52.1534 50.3081 51.8891C50.8633 51.5959 51.3986 51.2583 51.9273 50.9229C52.6314 50.4764 53.3488 50.0655 54.184 49.9167C55.1613 49.739 56.2164 50.0477 56.9982 50.6497C56.2386 50.5097 55.6833 50.8762 55.188 51.336C54.6682 51.8113 54.1862 52.3311 53.6887 52.8264C53.5421 52.9708 53.3888 53.1107 53.2289 53.2373C52.9823 53.4328 52.7202 53.5927 52.376 53.6305C52.4981 53.746 52.6159 53.8415 52.7114 53.957C52.9246 54.2213 53.0312 54.5367 53.0978 54.8632C53.1623 55.1986 53.2222 55.5385 53.2866 55.8739C53.4999 56.9845 53.8553 57.7263 54.9703 58.3105C54.6704 58.2927 54.3728 58.2861 54.0774 58.2594C52.607 58.1284 51.5142 57.3976 50.7501 56.1493C50.4502 55.6584 50.1548 55.1675 49.8461 54.6878C49.3019 53.8393 48.5467 53.2418 47.5871 52.9242C47.1362 52.7731 46.7009 52.5954 46.29 52.3933C46.2722 52.8509 46.2233 53.3151 46.1411 53.786C45.9612 54.7788 46.1278 55.7273 46.612 56.6135C46.8852 57.1155 47.1762 57.6108 47.4627 58.1061C48.1957 59.3722 48.3134 60.6827 47.7271 62.0376C47.6093 62.3108 47.4716 62.5751 47.345 62.8461C47.3672 61.5867 46.8852 60.9204 46.0101 60.2029C45.7458 59.9853 45.477 59.772 45.2127 59.5521C44.9595 59.3367 44.7329 59.0924 44.6019 58.7792C44.5486 58.6392 44.5197 58.4904 44.4775 58.3283C44.2798 58.6126 44.0133 58.7658 43.7245 58.8902C43.5357 58.9702 43.3402 59.0368 43.1426 59.0968C42.4673 59.2989 41.7832 59.4744 41.1168 59.7032C40.4772 59.9208 39.8885 60.234 39.6487 60.967C39.4932 59.9919 39.7264 58.9191 40.3483 58.1439C40.8792 57.482 41.5811 57.0489 42.3096 56.6446C42.856 56.3403 43.4113 56.0316 43.9333 55.6828C44.402 55.3763 44.6352 54.9121 44.5819 54.3368C44.5508 54.017 44.5197 53.6905 44.4353 53.3773C43.94 51.5226 42.8671 50.0544 41.3501 48.9038C37.603 46.0652 32.0323 46.3117 27.8209 47.8777C25.8752 48.604 24.1204 49.7279 22.3835 50.8451C22.288 50.9051 22.1991 50.9717 22.0992 51.0317L22.0881 51.0384C21.2018 51.6137 20.3911 52.2956 19.5604 52.9508C18.9718 53.4195 18.3832 53.8948 17.6946 54.2235C17.3525 54.3857 16.9971 54.4945 16.6107 54.4323C16.182 54.3613 15.9665 54.108 16.0087 53.6793C16.0309 53.455 16.0798 53.2174 16.1687 53.0108C16.3886 52.5021 16.6195 51.9979 16.8728 51.5026C17.1437 50.9629 17.3126 50.4076 17.3859 49.7967C17.7257 46.9492 18.8896 44.4904 20.9775 42.4958C22.4546 41.0831 24.2137 40.1391 26.1328 39.4683C26.2417 39.4328 26.3549 39.3484 26.4238 39.2595C27.2567 38.1134 28.2985 37.1938 29.5068 36.4653C30.8417 35.6634 32.2833 35.137 33.8136 34.8549C34.2246 34.7772 34.6421 34.7283 35.0597 34.6684C33.727 35.6923 32.6364 36.8784 32.0567 38.4888C32.0945 38.5043 32.1078 38.511 32.1189 38.5132C32.1789 38.5176 32.241 38.5221 32.3055 38.5243C33.6026 38.5887 34.8754 38.8042 36.1014 39.2329C37.2809 39.6438 38.3781 40.1524 39.3821 40.7588C39.3244 39.5882 39.4021 38.3821 39.6064 37.1494C39.8175 35.8678 40.235 34.6461 40.7992 33.4778C40.8259 33.4201 40.8547 33.3645 40.877 33.309C40.8814 33.2979 40.8814 33.2823 40.8858 33.2424C39.1955 32.9803 37.6318 33.3712 36.0948 34.0531C36.3458 33.7155 36.5901 33.3712 36.8544 33.0491C37.834 31.8408 38.9845 30.8257 40.3283 30.035C41.5433 29.3198 42.8494 28.8467 44.2554 28.6623C44.3664 28.6445 44.4952 28.5846 44.5774 28.5068C46.0834 27.143 47.7537 26.048 49.6995 25.4261C52.4493 24.5443 55.1658 24.6975 57.8289 25.7615C58.3998 25.988 58.9706 26.1057 59.5726 26.1257C60.1278 26.1413 60.6831 26.179 61.234 26.2301C61.4583 26.2523 61.6916 26.3212 61.8981 26.41C62.2957 26.5766 62.4157 26.8898 62.2713 27.2985L62.2668 27.2896Z" fill="#3A2415"/>
<path d="M61.8448 27.9471C61.7138 28.318 61.4494 28.5779 61.1429 28.8C60.5254 29.2487 59.8258 29.5375 59.1328 29.8306C58.1577 30.246 57.1737 30.6325 56.2452 31.1367L56.2341 31.1434C56.1386 31.2011 56.0364 31.2478 55.9387 31.3033C54.124 32.2961 52.2982 33.3001 50.7301 34.6639C47.345 37.6114 44.4641 42.3892 45.166 47.0381C45.4503 48.9216 46.2277 50.5631 47.6204 51.8869C47.8559 52.109 48.1269 52.2933 48.3934 52.4733C48.8732 52.7953 49.3929 52.8109 49.886 52.5466C50.4413 52.2534 50.9766 51.9158 51.5052 51.5804C52.2094 51.1339 52.9268 50.723 53.762 50.5742C54.7393 50.3965 55.7943 50.7052 56.5762 51.3071C55.8165 51.1672 55.2613 51.5337 54.7659 51.9935C54.2462 52.4688 53.7642 52.9886 53.2667 53.4839C53.1201 53.6283 52.9668 53.7682 52.8069 53.8948C52.5603 54.0903 52.2982 54.2502 51.9539 54.288C52.0761 54.4035 52.1938 54.499 52.2893 54.6145C52.5026 54.8788 52.6092 55.1942 52.6758 55.5207C52.7402 55.8561 52.8002 56.1959 52.8646 56.5313C53.0779 57.6419 53.4332 58.3838 54.5483 58.968C54.2484 58.9502 53.9508 58.9435 53.6554 58.9169C52.1849 58.7858 51.0921 58.0551 50.328 56.8068C50.0282 56.3159 49.7328 55.825 49.424 55.3452C48.8798 54.4967 48.1246 53.8993 47.1651 53.5816C46.7142 53.4306 46.2788 53.2529 45.8679 53.0508C45.8502 53.5083 45.8013 53.9726 45.7191 54.4434C45.5392 55.4363 45.7058 56.3848 46.19 57.271C46.4632 57.773 46.7542 58.2683 47.0407 58.7636C47.7737 60.0297 47.8914 61.3402 47.305 62.6951C47.1873 62.9683 47.0496 63.2326 46.923 63.5036C46.9452 62.2442 46.4632 61.5778 45.5881 60.8604C45.3237 60.6427 45.055 60.4295 44.7907 60.2096C44.5374 59.9942 44.3109 59.7498 44.1798 59.4366C44.1265 59.2967 44.0976 59.1479 44.0554 58.9857C43.8578 59.27 43.5912 59.4233 43.3025 59.5477C43.1137 59.6277 42.9182 59.6943 42.7205 59.7543C42.0453 59.9564 41.3612 60.1319 40.6948 60.3606C40.0551 60.5783 39.4665 60.8915 39.2266 61.6245C39.0711 60.6494 39.3044 59.5766 39.9263 58.8014C40.4572 58.1395 41.159 57.7063 41.8876 57.3021C42.434 56.9978 42.9893 56.6891 43.5113 56.3403C43.9799 56.0338 44.2132 55.5696 44.1598 54.9943C44.1288 54.6744 44.0976 54.3479 44.0132 54.0348C43.5179 52.1801 42.4451 50.7119 40.928 49.5613C37.1809 46.7227 31.6102 46.9692 27.3989 48.5351C25.4531 49.2615 23.6984 50.3854 21.9615 51.5026C21.8659 51.5626 21.7771 51.6292 21.6771 51.6892L21.666 51.6959C20.7798 52.2711 19.9691 52.953 19.1384 53.6083C18.5497 54.0769 17.9611 54.5523 17.2726 54.881C16.9305 55.0432 16.5751 55.152 16.1886 55.0898C15.76 55.0187 15.5445 54.7655 15.5867 54.3368C15.6089 54.1125 15.6578 53.8748 15.7466 53.6683C15.9665 53.1596 16.1975 52.6554 16.4507 52.1601C16.7217 51.6203 16.8905 51.065 16.9638 50.4542C17.3037 47.6067 18.4676 45.1479 20.5555 43.1532C22.0325 41.7406 23.7917 40.7966 25.7108 40.1258C25.8196 40.0902 25.9329 40.0058 26.0018 39.917C26.8347 38.7709 27.8764 37.8513 29.0848 37.1228C30.4197 36.3209 31.8612 35.7945 33.3916 35.5124C33.8025 35.4347 34.2201 35.3858 34.6377 35.3258C33.305 36.3498 32.2144 37.5359 31.6347 39.1462C31.6724 39.1618 31.6857 39.1684 31.6969 39.1707C31.7568 39.1751 31.819 39.1796 31.8834 39.1818C33.1806 39.2462 34.4533 39.4617 35.6794 39.8903C36.8589 40.3013 37.9561 40.8099 38.9601 41.4163C38.9023 40.2457 38.9801 39.0396 39.1844 37.8069C39.3954 36.5253 39.813 35.3036 40.3772 34.1353C40.4038 34.0775 40.4327 34.022 40.4549 33.9665C40.4594 33.9554 40.4594 33.9398 40.4638 33.8998C38.7735 33.6377 37.2098 34.0287 35.6728 34.7106C35.9237 34.3729 36.1681 34.0287 36.4324 33.7066C37.4119 32.4983 38.5625 31.4832 39.9063 30.6925C41.1213 29.9772 42.4273 29.5041 43.8333 29.3198C43.9444 29.302 44.0732 29.242 44.1554 29.1643C45.6614 27.8005 47.3317 26.7055 49.2774 26.0835C52.0272 25.2017 54.7437 25.355 57.4069 26.4189C57.9777 26.6455 58.5486 26.7632 59.1505 26.7832C59.7058 26.7988 60.2611 26.8365 60.812 26.8876C61.0363 26.9098 61.2695 26.9787 61.4761 27.0675C61.8737 27.2341 61.9936 27.5473 61.8492 27.956L61.8448 27.9471Z" fill="url(#paint3_radial_68_39831)"/>
<path opacity="0.85" d="M61.8448 27.9471C61.7138 28.318 61.4494 28.5779 61.1429 28.8C60.5254 29.2487 59.8258 29.5375 59.1328 29.8306C58.1577 30.246 57.1737 30.6325 56.2452 31.1367L56.2341 31.1434C56.1386 31.2011 56.0364 31.2478 55.9387 31.3033C54.124 32.2961 52.2982 33.3001 50.7301 34.6639C47.345 37.6114 44.4641 42.3892 45.166 47.0381C45.4503 48.9216 46.2277 50.5631 47.6204 51.8869C47.8559 52.109 48.1269 52.2933 48.3934 52.4733C48.8732 52.7953 49.3929 52.8109 49.886 52.5466C50.4413 52.2534 50.9766 51.9158 51.5052 51.5804C52.2094 51.1339 52.9268 50.723 53.762 50.5742C54.7393 50.3965 55.7943 50.7052 56.5762 51.3071C55.8165 51.1672 55.2613 51.5337 54.7659 51.9935C54.2462 52.4688 53.7642 52.9886 53.2667 53.4839C53.1201 53.6283 52.9668 53.7682 52.8069 53.8948C52.5603 54.0903 52.2982 54.2502 51.9539 54.288C52.0761 54.4035 52.1938 54.499 52.2893 54.6145C52.5026 54.8788 52.6092 55.1942 52.6758 55.5207C52.7402 55.8561 52.8002 56.1959 52.8646 56.5313C53.0779 57.6419 53.4332 58.3838 54.5483 58.968C54.2484 58.9502 53.9508 58.9435 53.6554 58.9169C52.1849 58.7858 51.0921 58.0551 50.328 56.8068C50.0282 56.3159 49.7328 55.825 49.424 55.3452C48.8798 54.4967 48.1246 53.8993 47.1651 53.5816C46.7142 53.4306 46.2788 53.2529 45.8679 53.0508C45.8502 53.5083 45.8013 53.9726 45.7191 54.4434C45.5392 55.4363 45.7058 56.3848 46.19 57.271C46.4632 57.773 46.7542 58.2683 47.0407 58.7636C47.7737 60.0297 47.8914 61.3402 47.305 62.6951C47.1873 62.9683 47.0496 63.2326 46.923 63.5036C46.9452 62.2442 46.4632 61.5778 45.5881 60.8604C45.3237 60.6427 45.055 60.4295 44.7907 60.2096C44.5374 59.9942 44.3109 59.7498 44.1798 59.4366C44.1265 59.2967 44.0976 59.1479 44.0554 58.9857C43.8578 59.27 43.5912 59.4233 43.3025 59.5477C43.1137 59.6277 42.9182 59.6943 42.7205 59.7543C42.0453 59.9564 41.3612 60.1319 40.6948 60.3606C40.0551 60.5783 39.4665 60.8915 39.2266 61.6245C39.0711 60.6494 39.3044 59.5766 39.9263 58.8014C40.4572 58.1395 41.159 57.7063 41.8876 57.3021C42.434 56.9978 42.9893 56.6891 43.5113 56.3403C43.9799 56.0338 44.2132 55.5696 44.1598 54.9943C44.1288 54.6744 44.0976 54.3479 44.0132 54.0348C43.5179 52.1801 42.4451 50.7119 40.928 49.5613C37.1809 46.7227 31.6102 46.9692 27.3989 48.5351C25.4531 49.2615 23.6984 50.3854 21.9615 51.5026C21.8659 51.5626 21.7771 51.6292 21.6771 51.6892L21.666 51.6959C20.7798 52.2711 19.9691 52.953 19.1384 53.6083C18.5497 54.0769 17.9611 54.5523 17.2726 54.881C16.9305 55.0432 16.5751 55.152 16.1886 55.0898C15.76 55.0187 15.5445 54.7655 15.5867 54.3368C15.6089 54.1125 15.6578 53.8748 15.7466 53.6683C15.9665 53.1596 16.1975 52.6554 16.4507 52.1601C16.7217 51.6203 16.8905 51.065 16.9638 50.4542C17.3037 47.6067 18.4676 45.1479 20.5555 43.1532C22.0325 41.7406 23.7917 40.7966 25.7108 40.1258C25.8196 40.0902 25.9329 40.0058 26.0018 39.917C26.8347 38.7709 27.8764 37.8513 29.0848 37.1228C30.4197 36.3209 31.8612 35.7945 33.3916 35.5124C33.8025 35.4347 34.2201 35.3858 34.6377 35.3258C33.305 36.3498 32.2144 37.5359 31.6347 39.1462C31.6724 39.1618 31.6857 39.1684 31.6969 39.1707C31.7568 39.1751 31.819 39.1796 31.8834 39.1818C33.1806 39.2462 34.4533 39.4617 35.6794 39.8903C36.8589 40.3013 37.9561 40.8099 38.9601 41.4163C38.9023 40.2457 38.9801 39.0396 39.1844 37.8069C39.3954 36.5253 39.813 35.3036 40.3772 34.1353C40.4038 34.0775 40.4327 34.022 40.4549 33.9665C40.4594 33.9554 40.4594 33.9398 40.4638 33.8998C38.7735 33.6377 37.2098 34.0287 35.6728 34.7106C35.9237 34.3729 36.1681 34.0287 36.4324 33.7066C37.4119 32.4983 38.5625 31.4832 39.9063 30.6925C41.1213 29.9772 42.4273 29.5041 43.8333 29.3198C43.9444 29.302 44.0732 29.242 44.1554 29.1643C45.6614 27.8005 47.3317 26.7055 49.2774 26.0835C52.0272 25.2017 54.7437 25.355 57.4069 26.4189C57.9777 26.6455 58.5486 26.7632 59.1505 26.7832C59.7058 26.7988 60.2611 26.8365 60.812 26.8876C61.0363 26.9098 61.2695 26.9787 61.4761 27.0675C61.8737 27.2341 61.9936 27.5473 61.8492 27.956L61.8448 27.9471Z" fill="#724401"/>
<g style="mix-blend-mode:hard-light">
<path opacity="0.85" d="M61.8448 27.9471C61.7138 28.318 61.4494 28.5779 61.1429 28.8C60.5254 29.2487 59.8258 29.5375 59.1328 29.8306C58.1577 30.246 57.1737 30.6325 56.2452 31.1367L56.2341 31.1434C56.1386 31.2011 56.0364 31.2478 55.9387 31.3033C54.124 32.2961 52.2982 33.3001 50.7301 34.6639C47.345 37.6114 44.4641 42.3892 45.166 47.0381C45.4503 48.9216 46.2277 50.5631 47.6204 51.8869C47.8559 52.109 48.1269 52.2933 48.3934 52.4733C48.8732 52.7953 49.3929 52.8109 49.886 52.5466C50.4413 52.2534 50.9766 51.9158 51.5052 51.5804C52.2094 51.1339 52.9268 50.723 53.762 50.5742C54.7393 50.3965 55.7943 50.7052 56.5762 51.3071C55.8165 51.1672 55.2613 51.5337 54.7659 51.9935C54.2462 52.4688 53.7642 52.9886 53.2667 53.4839C53.1201 53.6283 52.9668 53.7682 52.8069 53.8948C52.5603 54.0903 52.2982 54.2502 51.9539 54.288C52.0761 54.4035 52.1938 54.499 52.2893 54.6145C52.5026 54.8788 52.6092 55.1942 52.6758 55.5207C52.7402 55.8561 52.8002 56.1959 52.8646 56.5313C53.0779 57.6419 53.4332 58.3838 54.5483 58.968C54.2484 58.9502 53.9508 58.9435 53.6554 58.9169C52.1849 58.7858 51.0921 58.0551 50.328 56.8068C50.0282 56.3159 49.7328 55.825 49.424 55.3452C48.8798 54.4967 48.1246 53.8993 47.1651 53.5816C46.7142 53.4306 46.2788 53.2529 45.8679 53.0508C45.8502 53.5083 45.8013 53.9726 45.7191 54.4434C45.5392 55.4363 45.7058 56.3848 46.19 57.271C46.4632 57.773 46.7542 58.2683 47.0407 58.7636C47.7737 60.0297 47.8914 61.3402 47.305 62.6951C47.1873 62.9683 47.0496 63.2326 46.923 63.5036C46.9452 62.2442 46.4632 61.5778 45.5881 60.8604C45.3237 60.6427 45.055 60.4295 44.7907 60.2096C44.5374 59.9942 44.3109 59.7498 44.1798 59.4366C44.1265 59.2967 44.0976 59.1479 44.0554 58.9857C43.8578 59.27 43.5912 59.4233 43.3025 59.5477C43.1137 59.6277 42.9182 59.6943 42.7205 59.7543C42.0453 59.9564 41.3612 60.1319 40.6948 60.3606C40.0551 60.5783 39.4665 60.8915 39.2266 61.6245C39.0711 60.6494 39.3044 59.5766 39.9263 58.8014C40.4572 58.1395 41.159 57.7063 41.8876 57.3021C42.434 56.9978 42.9893 56.6891 43.5113 56.3403C43.9799 56.0338 44.2132 55.5696 44.1598 54.9943C44.1288 54.6744 44.0976 54.3479 44.0132 54.0348C43.5179 52.1801 42.4451 50.7119 40.928 49.5613C37.1809 46.7227 31.6102 46.9692 27.3989 48.5351C25.4531 49.2615 23.6984 50.3854 21.9615 51.5026C21.8659 51.5626 21.7771 51.6292 21.6771 51.6892L21.666 51.6959C20.7798 52.2711 19.9691 52.953 19.1384 53.6083C18.5497 54.0769 17.9611 54.5523 17.2726 54.881C16.9305 55.0432 16.5751 55.152 16.1886 55.0898C15.76 55.0187 15.5445 54.7655 15.5867 54.3368C15.6089 54.1125 15.6578 53.8748 15.7466 53.6683C15.9665 53.1596 16.1975 52.6554 16.4507 52.1601C16.7217 51.6203 16.8905 51.065 16.9638 50.4542C17.3037 47.6067 18.4676 45.1479 20.5555 43.1532C22.0325 41.7406 23.7917 40.7966 25.7108 40.1258C25.8196 40.0902 25.9329 40.0058 26.0018 39.917C26.8347 38.7709 27.8764 37.8513 29.0848 37.1228C30.4197 36.3209 31.8612 35.7945 33.3916 35.5124C33.8025 35.4347 34.2201 35.3858 34.6377 35.3258C33.305 36.3498 32.2144 37.5359 31.6347 39.1462C31.6724 39.1618 31.6857 39.1684 31.6969 39.1707C31.7568 39.1751 31.819 39.1796 31.8834 39.1818C33.1806 39.2462 34.4533 39.4617 35.6794 39.8903C36.8589 40.3013 37.9561 40.8099 38.9601 41.4163C38.9023 40.2457 38.9801 39.0396 39.1844 37.8069C39.3954 36.5253 39.813 35.3036 40.3772 34.1353C40.4038 34.0775 40.4327 34.022 40.4549 33.9665C40.4594 33.9554 40.4594 33.9398 40.4638 33.8998C38.7735 33.6377 37.2098 34.0287 35.6728 34.7106C35.9237 34.3729 36.1681 34.0287 36.4324 33.7066C37.4119 32.4983 38.5625 31.4832 39.9063 30.6925C41.1213 29.9772 42.4273 29.5041 43.8333 29.3198C43.9444 29.302 44.0732 29.242 44.1554 29.1643C45.6614 27.8005 47.3317 26.7055 49.2774 26.0835C52.0272 25.2017 54.7437 25.355 57.4069 26.4189C57.9777 26.6455 58.5486 26.7632 59.1505 26.7832C59.7058 26.7988 60.2611 26.8365 60.812 26.8876C61.0363 26.9098 61.2695 26.9787 61.4761 27.0675C61.8737 27.2341 61.9936 27.5473 61.8492 27.956L61.8448 27.9471Z" fill="#663703"/>
</g>
<path d="M32.2033 14.5112L26.9235 13.0586L22.0103 11.7059V11.7148C21.9193 12.0746 19.5715 21.6523 19.5693 21.659C19.1161 23.5136 19.6825 25.6882 21.1974 26.8743C21.4062 27.0431 21.6349 27.1875 21.8815 27.3141C22.1058 27.4296 22.3391 27.5206 22.5789 27.5917C22.5878 27.5939 22.5989 27.5962 22.6078 27.5984C24.1271 28.067 25.904 27.7605 27.2079 26.8809C28.5228 25.9991 29.6578 24.2044 29.2425 22.5652C29.0337 21.75 28.4362 21.1081 27.7543 20.6461C27.7543 20.6461 27.29 20.2507 26.5593 20.1441C25.8241 20.0286 24.8179 20.2063 23.7428 21.3658L23.2409 21.9411H23.2386L21.8948 23.4848C21.666 23.7269 21.3062 23.7002 21.0974 23.5114C20.9797 23.4137 20.9086 23.2715 20.9175 23.0939C20.9264 22.8406 21.3529 21.9544 21.5594 21.5213C21.5594 21.5213 21.6683 20.8793 21.7105 20.2285C21.7727 19.2024 22.1791 18.2139 22.9388 17.5187C23.5141 16.9967 24.3537 16.5214 25.5731 16.3148C26.2683 16.1949 27.0835 16.1638 28.0497 16.2549C28.2274 16.2704 28.4073 16.2482 28.565 16.1705C28.7982 16.0572 29.2069 15.9106 29.6978 15.9661C30.2331 16.0216 30.8639 16.3215 31.4725 17.1678C31.4725 17.1678 30.373 16.7902 29.3446 17.4676C29.3269 17.4787 29.3091 17.4921 29.2913 17.5032C29.2913 17.5032 29.3468 17.4987 29.4424 17.5032C29.7977 17.5365 30.7106 17.7541 31.3304 19.1402C31.3304 19.1402 32.03 20.5217 31.4792 22.5075C31.3615 22.9428 31.5636 23.3471 31.8923 23.5492C32.13 23.6936 32.4298 23.7335 32.723 23.6092L32.7408 23.6025C34.5821 22.8229 35.5395 20.8616 35.5062 18.9291C35.464 16.8324 34.2801 15.0799 32.2055 14.5112H32.2033ZM22.8921 13.1852L24.7446 13.7783L24.3914 15.7084L23.8783 15.5574L22.4923 15.1443L22.8877 13.2207L22.8943 13.1874L22.8921 13.1852Z" fill="#3A2415"/>
<path d="M34.5333 25.877C34.631 26.0413 34.5755 26.2523 34.4134 26.3501L30.0976 28.9155C29.9333 29.0133 29.7222 28.9577 29.6245 28.7956C29.5645 28.6956 29.5601 28.5668 29.6134 28.4624C29.7023 28.2847 29.9377 28.2047 30.0687 28.0537C30.1887 27.916 30.2775 27.7538 30.3375 27.5806C30.4619 27.2208 30.473 26.8298 30.4663 26.4545C30.4619 26.2857 30.4552 26.1169 30.4486 25.948C30.4286 25.3683 30.3819 24.7841 30.2886 24.2089C30.9728 24.8152 31.7191 25.3039 32.5231 25.7348C32.8408 25.9058 33.2028 25.9836 33.5604 25.9258C33.7403 25.897 33.9114 25.8348 34.0735 25.7526C34.2357 25.6704 34.4378 25.7082 34.5355 25.8747L34.5333 25.877Z" fill="#3A2415"/>
<path d="M31.6858 14.378L26.9191 13.0653L22.0126 11.7148L21.4973 11.5726C21.4973 11.5726 19.0606 21.519 19.0562 21.5257C18.5609 23.5514 19.2827 25.9614 21.1285 27.052C21.2063 27.0986 21.2862 27.143 21.3706 27.1852C21.7527 27.3763 22.1614 27.5118 22.5856 27.5917C22.5945 27.5939 22.6056 27.5962 22.6145 27.5984C24.0094 27.856 25.5398 27.5273 26.697 26.7499C28.0119 25.8681 29.147 24.0734 28.7316 22.4342C28.5228 21.619 27.9253 20.9771 27.2434 20.5151C27.2434 20.5151 26.9902 20.3018 26.566 20.1464C25.924 19.9065 24.8912 19.8043 23.7406 20.7527H23.7384C23.5718 20.8904 23.403 21.0504 23.232 21.2347L21.3862 23.3493C21.304 23.4359 21.2041 23.487 21.1041 23.5092C20.7665 23.5892 20.3889 23.3515 20.4044 22.9606C20.4155 22.7118 20.842 21.8211 21.0464 21.388C21.0464 21.388 21.1552 20.7461 21.1974 20.0953C21.2596 19.0691 21.6683 18.0807 22.4257 17.3854C23.0921 16.7791 24.1116 16.2415 25.6642 16.106C26.215 16.0505 26.8369 16.055 27.5344 16.1216C27.7143 16.1416 27.892 16.1149 28.0497 16.0372C28.3629 15.8861 28.987 15.6729 29.7 15.9661C30.1021 16.1283 30.5396 16.4525 30.955 17.0345C30.955 17.0345 29.8155 16.6413 28.776 17.3699C28.776 17.3699 29.0115 17.3477 29.3447 17.4676C29.3757 17.4787 29.4091 17.4921 29.4424 17.5054C29.8622 17.6831 30.4019 18.0896 30.8128 19.0091C30.8128 19.0091 31.5103 20.3929 30.9572 22.3786C30.784 23.0094 31.2926 23.5781 31.8901 23.5514C31.9923 23.5447 32.0989 23.5225 32.2033 23.4781L32.2211 23.4714C34.0669 22.6896 35.0197 20.7305 34.9864 18.7981C34.9442 16.7013 33.7603 14.9488 31.6858 14.3802V14.378ZM23.8739 15.5752L21.9748 15.011L22.3746 13.0542L22.8877 13.2185L24.2315 13.645L23.8783 15.5574L23.8739 15.5774V15.5752Z" fill="url(#paint4_radial_68_39831)"/>
<path d="M34.0158 25.746C34.1135 25.9103 34.058 26.1213 33.8958 26.219L29.5801 28.7845C29.4157 28.8822 29.2047 28.8267 29.107 28.6646C29.047 28.5646 29.0426 28.4358 29.0959 28.3314C29.1847 28.1537 29.4202 28.0737 29.5512 27.9227C29.6712 27.785 29.76 27.6228 29.82 27.4496C29.9444 27.0898 29.9555 26.6988 29.9488 26.3235C29.9444 26.1546 29.9377 25.9858 29.931 25.817C29.911 25.2373 29.8644 24.6531 29.7711 24.0779C30.4552 24.6842 31.2015 25.1729 32.0056 25.6038C32.3232 25.7748 32.6853 25.8526 33.0429 25.7948C33.2228 25.7659 33.3938 25.7037 33.556 25.6216C33.7181 25.5394 33.9202 25.5771 34.018 25.7437L34.0158 25.746Z" fill="url(#paint5_radial_68_39831)"/>
<g opacity="0.85">
<path d="M31.6858 14.378L26.9191 13.0653L22.0126 11.7148L21.4973 11.5726C21.4973 11.5726 19.0606 21.519 19.0562 21.5257C18.5609 23.5514 19.2827 25.9614 21.1285 27.052C21.2063 27.0986 21.2862 27.143 21.3706 27.1852C21.7527 27.3763 22.1614 27.5118 22.5856 27.5917C22.5945 27.5939 22.6056 27.5962 22.6145 27.5984C24.0094 27.856 25.5398 27.5273 26.697 26.7499C28.0119 25.8681 29.147 24.0734 28.7316 22.4342C28.5228 21.619 27.9253 20.9771 27.2434 20.5151C27.2434 20.5151 26.9902 20.3018 26.566 20.1464C25.924 19.9065 24.8912 19.8043 23.7406 20.7527H23.7384C23.5718 20.8904 23.403 21.0504 23.232 21.2347L21.3862 23.3493C21.304 23.4359 21.2041 23.487 21.1041 23.5092C20.7665 23.5892 20.3889 23.3515 20.4044 22.9606C20.4155 22.7118 20.842 21.8211 21.0464 21.388C21.0464 21.388 21.1552 20.7461 21.1974 20.0953C21.2596 19.0691 21.6683 18.0807 22.4257 17.3854C23.0921 16.7791 24.1116 16.2415 25.6642 16.106C26.215 16.0505 26.8369 16.055 27.5344 16.1216C27.7143 16.1416 27.892 16.1149 28.0497 16.0372C28.3629 15.8861 28.987 15.6729 29.7 15.9661C30.1021 16.1283 30.5396 16.4525 30.955 17.0345C30.955 17.0345 29.8155 16.6413 28.776 17.3699C28.776 17.3699 29.0115 17.3477 29.3447 17.4676C29.3757 17.4787 29.4091 17.4921 29.4424 17.5054C29.8622 17.6831 30.4019 18.0896 30.8128 19.0091C30.8128 19.0091 31.5103 20.3929 30.9572 22.3786C30.784 23.0094 31.2926 23.5781 31.8901 23.5514C31.9923 23.5447 32.0989 23.5225 32.2033 23.4781L32.2211 23.4714C34.0669 22.6896 35.0197 20.7305 34.9864 18.7981C34.9442 16.7013 33.7603 14.9488 31.6858 14.3802V14.378ZM23.8739 15.5752L21.9748 15.011L22.3746 13.0542L22.8877 13.2185L24.2315 13.645L23.8783 15.5574L23.8739 15.5774V15.5752Z" fill="#724401"/>
<path d="M34.0158 25.746C34.1135 25.9103 34.058 26.1213 33.8958 26.219L29.5801 28.7845C29.4157 28.8822 29.2047 28.8267 29.107 28.6646C29.047 28.5646 29.0426 28.4358 29.0959 28.3314C29.1847 28.1537 29.4202 28.0737 29.5512 27.9227C29.6712 27.785 29.76 27.6228 29.82 27.4496C29.9444 27.0898 29.9555 26.6988 29.9488 26.3235C29.9444 26.1546 29.9377 25.9858 29.931 25.817C29.911 25.2373 29.8644 24.6531 29.7711 24.0779C30.4552 24.6842 31.2015 25.1729 32.0056 25.6038C32.3232 25.7748 32.6853 25.8526 33.0429 25.7948C33.2228 25.7659 33.3938 25.7037 33.556 25.6216C33.7181 25.5394 33.9202 25.5771 34.018 25.7437L34.0158 25.746Z" fill="#724401"/>
</g>
<g opacity="0.85">
<path d="M31.6858 14.378L26.9191 13.0653L22.0126 11.7148L21.4973 11.5726C21.4973 11.5726 19.0606 21.519 19.0562 21.5257C18.5609 23.5514 19.2827 25.9614 21.1285 27.052C21.2063 27.0986 21.2862 27.143 21.3706 27.1852C21.7527 27.3763 22.1614 27.5118 22.5856 27.5917C22.5945 27.5939 22.6056 27.5962 22.6145 27.5984C24.0094 27.856 25.5398 27.5273 26.697 26.7499C28.0119 25.8681 29.147 24.0734 28.7316 22.4342C28.5228 21.619 27.9253 20.9771 27.2434 20.5151C27.2434 20.5151 26.9902 20.3018 26.566 20.1464C25.924 19.9065 24.8912 19.8043 23.7406 20.7527H23.7384C23.5718 20.8904 23.403 21.0504 23.232 21.2347L21.3862 23.3493C21.304 23.4359 21.2041 23.487 21.1041 23.5092C20.7665 23.5892 20.3889 23.3515 20.4044 22.9606C20.4155 22.7118 20.842 21.8211 21.0464 21.388C21.0464 21.388 21.1552 20.7461 21.1974 20.0953C21.2596 19.0691 21.6683 18.0807 22.4257 17.3854C23.0921 16.7791 24.1116 16.2415 25.6642 16.106C26.215 16.0505 26.8369 16.055 27.5344 16.1216C27.7143 16.1416 27.892 16.1149 28.0497 16.0372C28.3629 15.8861 28.987 15.6729 29.7 15.9661C30.1021 16.1283 30.5396 16.4525 30.955 17.0345C30.955 17.0345 29.8155 16.6413 28.776 17.3699C28.776 17.3699 29.0115 17.3477 29.3447 17.4676C29.3757 17.4787 29.4091 17.4921 29.4424 17.5054C29.8622 17.6831 30.4019 18.0896 30.8128 19.0091C30.8128 19.0091 31.5103 20.3929 30.9572 22.3786C30.784 23.0094 31.2926 23.5781 31.8901 23.5514C31.9923 23.5447 32.0989 23.5225 32.2033 23.4781L32.2211 23.4714C34.0669 22.6896 35.0197 20.7305 34.9864 18.7981C34.9442 16.7013 33.7603 14.9488 31.6858 14.3802V14.378ZM23.8739 15.5752L21.9748 15.011L22.3746 13.0542L22.8877 13.2185L24.2315 13.645L23.8783 15.5574L23.8739 15.5774V15.5752Z" fill="#663703"/>
<path d="M34.0158 25.746C34.1135 25.9103 34.058 26.1213 33.8958 26.219L29.5801 28.7845C29.4157 28.8822 29.2047 28.8267 29.107 28.6646C29.047 28.5646 29.0426 28.4358 29.0959 28.3314C29.1847 28.1537 29.4202 28.0737 29.5512 27.9227C29.6712 27.785 29.76 27.6228 29.82 27.4496C29.9444 27.0898 29.9555 26.6988 29.9488 26.3235C29.9444 26.1546 29.9377 25.9858 29.931 25.817C29.911 25.2373 29.8644 24.6531 29.7711 24.0779C30.4552 24.6842 31.2015 25.1729 32.0056 25.6038C32.3232 25.7748 32.6853 25.8526 33.0429 25.7948C33.2228 25.7659 33.3938 25.7037 33.556 25.6216C33.7181 25.5394 33.9202 25.5771 34.018 25.7437L34.0158 25.746Z" fill="#663703"/>
</g>
</g>
<path d="M45.6037 3.4009L45.4259 3.82737L45.1483 4.4915L44.422 6.24401L44.1865 6.81484L32.3388 35.3636L32.1078 35.9277L27.2812 47.5556L27.0591 48.0909L20.9842 62.7328L20.691 63.4392L19.8669 65.4227L19.7359 65.7403L19.5449 66.2067C15.8444 63.9967 12.5282 61.0558 9.82947 57.4353L9.88277 57.3065L9.92498 57.2066L10.9911 54.6344L11.331 53.8059L22.1525 27.6805L22.2214 27.5139L24.1249 22.9161H24.1271L24.5825 21.8077H24.5847L26.2972 17.6697L26.3772 17.4765L27.55 14.6423L27.5566 14.6334L31.015 6.28399L31.3015 5.58876L32.039 3.80516L32.4521 2.80563L32.7186 2.16149C37.0743 1.73503 41.4523 2.17038 45.597 3.40313L45.6037 3.4009Z" fill="url(#paint6_linear_68_39831)"/>
<path d="M65.1877 18.807C65.2477 18.9003 65.3055 18.998 65.3632 19.0935C65.4498 19.2401 65.5387 19.3889 65.6186 19.5355C65.6275 19.5422 65.632 19.5511 65.632 19.5577L65.6253 19.5777L64.3637 22.5785L64.0461 23.3337L53.2911 48.9549L53.0357 49.5591L51.9296 52.1956L51.7341 52.6643L51.6586 52.842L51.3432 53.5883L50.4636 55.6873L50.166 56.3959L46.4677 65.2072L46.0923 66.0957L45.1861 68.2569L44.8685 69.0121L44.3976 70.1271C41.5811 70.7757 38.7225 71.0489 35.8905 70.9667L36.2525 70.1027L36.4946 69.5252L37.2876 67.6394L37.6008 66.8909L41.1236 58.4993L41.3612 57.9329L42.4541 55.3364L42.6651 54.8277L43.4958 52.8575L43.8356 52.049L45.2616 48.6484L45.5837 47.8821L51.6897 33.3357L51.8985 32.8448H51.9007L54.5194 26.6011L54.7882 25.9614L59.0395 15.835L59.2994 15.2198L60.2745 12.8942L60.3811 12.6388L60.45 12.4811C62.1558 14.2802 63.6951 16.2948 65.0167 18.5182C65.0745 18.616 65.1344 18.7137 65.1877 18.8114V18.807Z" fill="url(#paint7_linear_68_39831)"/>
</g>
<defs>
<filter id="filter0_f_68_39831" x="0.24118" y="0" width="72.3862" height="72.981" filterUnits="userSpaceOnUse" color-interpolation-filters="sRGB">
<feFlood flood-opacity="0" result="BackgroundImageFix"/>
<feBlend mode="normal" in="SourceGraphic" in2="BackgroundImageFix" result="shape"/>
<feGaussianBlur stdDeviation="1" result="effect1_foregroundBlur_68_39831"/>
</filter>
<linearGradient id="paint0_linear_68_39831" x1="43.1982" y1="69.4153" x2="29.4811" y2="3.29434" gradientUnits="userSpaceOnUse">
<stop stop-color="#D3A150"/>
<stop offset="0.42" stop-color="#DDB264"/>
<stop offset="1" stop-color="#EFD186"/>
</linearGradient>
<linearGradient id="paint1_linear_68_39831" x1="20.3981" y1="9.57533" x2="52.3084" y2="63.2757" gradientUnits="userSpaceOnUse">
<stop stop-color="#513A01"/>
<stop offset="0.15" stop-color="#65440B"/>
<stop offset="0.46" stop-color="#986024"/>
<stop offset="0.58" stop-color="#AD6B2F"/>
<stop offset="1" stop-color="#FFE6CA"/>
</linearGradient>
<linearGradient id="paint2_linear_68_39831" x1="42.6115" y1="66.2888" x2="30.1983" y2="6.44922" gradientUnits="userSpaceOnUse">
<stop stop-color="#D3A150"/>
<stop offset="0.42" stop-color="#DDB264"/>
<stop offset="1" stop-color="#EFD186"/>
</linearGradient>
<radialGradient id="paint3_radial_68_39831" cx="0" cy="0" r="1" gradientUnits="userSpaceOnUse" gradientTransform="translate(42.6019 47.5805) rotate(-30.72) scale(22.0651 22.0651)">
<stop stop-color="white"/>
<stop offset="0.6" stop-color="#DDDDDD"/>
<stop offset="1" stop-color="#CCCCCC"/>
</radialGradient>
<radialGradient id="paint4_radial_68_39831" cx="0" cy="0" r="1" gradientUnits="userSpaceOnUse" gradientTransform="translate(25.4467 18.3933) rotate(-30.72) scale(8.27608)">
<stop stop-color="white"/>
<stop offset="0.6" stop-color="#DDDDDD"/>
<stop offset="1" stop-color="#CCCCCC"/>
</radialGradient>
<radialGradient id="paint5_radial_68_39831" cx="0" cy="0" r="1" gradientUnits="userSpaceOnUse" gradientTransform="translate(30.7238 25.8173) rotate(-30.72) scale(2.45439)">
<stop stop-color="white"/>
<stop offset="0.6" stop-color="#DDDDDD"/>
<stop offset="1" stop-color="#CCCCCC"/>
</radialGradient>
<linearGradient id="paint6_linear_68_39831" x1="12.4106" y1="81.9381" x2="35.9116" y2="2.8242" gradientUnits="userSpaceOnUse">
<stop stop-color="white" stop-opacity="0"/>
<stop offset="1" stop-color="white" stop-opacity="0.3"/>
</linearGradient>
<linearGradient id="paint7_linear_68_39831" x1="37.6398" y1="89.4325" x2="61.1397" y2="10.3167" gradientUnits="userSpaceOnUse">
<stop stop-color="white" stop-opacity="0"/>
<stop offset="1" stop-color="white" stop-opacity="0.3"/>
</linearGradient>
</defs>
</svg>
