<svg width="79" height="79" viewBox="0 0 79 79" fill="none" xmlns="http://www.w3.org/2000/svg">
<g filter="url(#filter0_f_68_40702)">
<path d="M68.115 21.5137C68.1728 21.6115 68.2327 21.7092 68.286 21.8069C68.3682 21.9447 68.4482 22.0868 68.5281 22.2267L68.5526 22.2667C68.6125 22.3733 68.6681 22.4755 68.7236 22.5799C77.4062 38.4502 72.0265 58.4629 56.3472 67.7807C53.7596 69.32 51.052 70.4706 48.2866 71.2546C45.4235 72.0654 42.5027 72.4807 39.5952 72.5229C33.7979 72.6029 28.0584 71.1858 22.9675 68.4204C19.2226 66.3881 15.8309 63.6338 13.0233 60.2043C12.1326 59.1204 11.2997 57.9676 10.5334 56.7504L10.5089 56.7104C10.4245 56.5727 10.3379 56.4372 10.2557 56.2973C10.1958 56.204 10.138 56.1063 10.0803 56.0063C0.558094 39.9828 5.82227 19.2681 21.8525 9.74154C26.2659 7.11834 31.0303 5.61905 35.8236 5.15927C40.1793 4.7328 44.5573 5.16815 48.702 6.4009C54.266 8.04679 59.4125 11.1253 63.5505 15.4744C65.2564 17.2735 66.7956 19.2881 68.1172 21.5115L68.115 21.5137Z" fill="#A37417"/>
<path d="M68.979 22.9686C78.5034 38.9944 73.2393 59.7046 57.2068 69.2334C54.1083 71.0747 50.8321 72.3652 47.4959 73.1249C44.6794 73.7735 41.8208 74.0467 38.9888 73.9645C33.2382 73.7935 27.5986 72.1542 22.641 69.2023C18.9405 66.9922 15.6243 64.0514 12.9256 60.4309C12.2215 59.4891 11.5573 58.4963 10.9421 57.4612C10.8555 57.3146 10.7688 57.1702 10.6889 57.0214C10.6333 56.9281 10.58 56.8393 10.5312 56.7482L10.5067 56.7082C1.58429 40.7891 6.93952 20.5786 22.7187 11.2031C26.6569 8.86419 30.8726 7.41599 35.1417 6.80294C39.5485 6.16547 44.002 6.41868 48.2466 7.49151C53.8507 8.91084 59.0926 11.7562 63.3728 15.8875C65.303 17.7422 67.04 19.8612 68.5281 22.2245L68.5526 22.2645C68.6081 22.3534 68.6614 22.4422 68.717 22.5333C68.7258 22.5399 68.7303 22.5488 68.7303 22.5555C68.8169 22.6888 68.8991 22.8265 68.9813 22.9642L68.979 22.9686Z" fill="#6D3C1B"/>
<path d="M68.4593 22.0935C68.5459 22.2401 68.6348 22.3889 68.7147 22.5355C68.7236 22.5422 68.7281 22.551 68.7281 22.5577C77.8837 38.5213 72.564 58.9227 56.6871 68.3583C53.8929 70.0175 50.9587 71.228 47.9668 72.0099C45.1237 72.7584 42.2273 73.1138 39.3509 73.1005C33.5714 73.0849 27.8741 71.5812 22.8342 68.7359C19.1093 66.6391 15.7442 63.8071 12.9789 60.3021C12.1615 59.267 11.3952 58.1764 10.6889 57.0236C10.5978 56.8837 10.509 56.7349 10.4223 56.5883C10.3646 56.4928 10.3068 56.395 10.2535 56.2973C0.962356 40.316 6.26207 19.7946 22.1945 10.3257C26.4214 7.81358 30.9682 6.32984 35.5526 5.80342C39.9284 5.29921 44.3374 5.66127 48.5221 6.82738C54.0994 8.38664 59.2836 11.3719 63.4772 15.6343C65.2786 17.4601 66.8978 19.5192 68.2838 21.807C68.3438 21.9002 68.4015 21.998 68.4593 22.0935Z" fill="url(#paint0_linear_68_40702)"/>
<path d="M66.3025 23.455C75.1161 38.2858 70.2407 57.4501 55.4121 66.2637C40.5836 75.0773 21.4193 70.1996 12.6057 55.3688C3.79433 40.5425 8.6698 21.376 23.4961 12.5646C38.3224 3.75325 57.4889 8.62873 66.3003 23.455H66.3025Z" fill="url(#paint1_linear_68_40702)" stroke="#281401" stroke-width="0.00888468" stroke-miterlimit="10"/>
<path d="M65.7672 23.746C74.3876 38.2503 69.6143 56.997 55.1123 65.6173C40.608 74.2377 21.8636 69.4688 13.2432 54.9646C4.62282 40.4603 9.39168 21.7159 23.8959 13.0955C38.4002 4.47516 57.1469 9.24179 65.7672 23.746Z" fill="url(#paint2_linear_68_40702)"/>
<g style="mix-blend-mode:multiply">
<path d="M65.363 30.2896C65.232 30.6606 64.9677 30.9204 64.6612 31.1426C64.0437 31.5912 63.344 31.88 62.651 32.1732C61.6759 32.5885 60.6919 32.975 59.7635 33.4792L59.7524 33.4859C59.6569 33.5436 59.5547 33.5903 59.457 33.6458C57.6423 34.6387 55.8165 35.6426 54.2483 37.0064C50.8632 39.9539 47.9824 44.7317 48.6843 49.3806C48.9686 51.2641 49.746 52.9056 51.1387 54.2294C51.3741 54.4515 51.6451 54.6359 51.9116 54.8158C52.3914 55.1379 52.9112 55.1534 53.4043 54.8891C53.9596 54.5959 54.4949 54.2583 55.0235 53.9229C55.7276 53.4764 56.445 53.0655 57.2802 52.9167C58.2575 52.739 59.3126 53.0477 60.0944 53.6497C59.3348 53.5097 58.7795 53.8762 58.2842 54.336C57.7644 54.8113 57.2824 55.3311 56.7849 55.8264C56.6383 55.9708 56.485 56.1107 56.3251 56.2373C56.0785 56.4328 55.8165 56.5927 55.4722 56.6305C55.5943 56.746 55.7121 56.8415 55.8076 56.957C56.0208 57.2213 56.1274 57.5367 56.1941 57.8632C56.2585 58.1986 56.3184 58.5385 56.3829 58.8739C56.5961 59.9845 56.9515 60.7263 58.0665 61.3105C57.7666 61.2927 57.469 61.2861 57.1736 61.2594C55.7032 61.1284 54.6104 60.3976 53.8463 59.1493C53.5464 58.6584 53.251 58.1675 52.9423 57.6878C52.3981 56.8393 51.6429 56.2418 50.6833 55.9242C50.2324 55.7731 49.7971 55.5954 49.3862 55.3933C49.3684 55.8509 49.3195 56.3151 49.2373 56.786C49.0574 57.7788 49.224 58.7273 49.7082 59.6135C49.9814 60.1155 50.2724 60.6108 50.5589 61.1061C51.2919 62.3722 51.4097 63.6827 50.8233 65.0376C50.7055 65.3108 50.5678 65.5751 50.4412 65.8461C50.4634 64.5867 49.9814 63.9204 49.1063 63.2029C48.842 62.9853 48.5732 62.772 48.3089 62.5521C48.0557 62.3367 47.8291 62.0924 47.6981 61.7792C47.6448 61.6392 47.6159 61.4904 47.5737 61.3283C47.376 61.6126 47.1095 61.7658 46.8207 61.8902C46.6319 61.9702 46.4365 62.0368 46.2388 62.0968C45.5635 62.2989 44.8794 62.4744 44.2131 62.7032C43.5734 62.9208 42.9847 63.234 42.7449 63.967C42.5894 62.9919 42.8226 61.9191 43.4445 61.1439C43.9754 60.482 44.6773 60.0489 45.4058 59.6446C45.9522 59.3403 46.5075 59.0316 47.0295 58.6828C47.4982 58.3763 47.7314 57.9121 47.6781 57.3368C47.647 57.017 47.6159 56.6905 47.5315 56.3773C47.0362 54.5226 45.9633 53.0544 44.4463 51.9038C40.6992 49.0652 35.1285 49.3117 30.9171 50.8777C28.9714 51.604 27.2167 52.7279 25.4797 53.8451C25.3842 53.9051 25.2953 53.9717 25.1954 54.0317L25.1843 54.0384C24.298 54.6137 23.4873 55.2956 22.6566 55.9508C22.068 56.4195 21.4794 56.8948 20.7908 57.2235C20.4487 57.3857 20.0934 57.4945 19.7069 57.4323C19.2782 57.3613 19.0627 57.108 19.1049 56.6793C19.1272 56.455 19.176 56.2174 19.2649 56.0108C19.4848 55.5021 19.7158 54.9979 19.969 54.5026C20.24 53.9629 20.4088 53.4076 20.4821 52.7967C20.8219 49.9492 21.9858 47.4904 24.0737 45.4958C25.5508 44.0831 27.3099 43.1391 29.229 42.4683C29.3379 42.4328 29.4512 42.3484 29.52 42.2595C30.3529 41.1134 31.3947 40.1938 32.603 39.4653C33.9379 38.6634 35.3795 38.137 36.9098 37.8549C37.3208 37.7772 37.7383 37.7283 38.1559 37.6684C36.8232 38.6923 35.7326 39.8784 35.1529 41.4888C35.1907 41.5043 35.204 41.511 35.2151 41.5132C35.2751 41.5176 35.3373 41.5221 35.4017 41.5243C36.6988 41.5887 37.9716 41.8042 39.1977 42.2329C40.3771 42.6438 41.4743 43.1524 42.4783 43.7588C42.4206 42.5882 42.4983 41.3821 42.7027 40.1494C42.9137 38.8678 43.3313 37.6461 43.8954 36.4778C43.9221 36.4201 43.951 36.3645 43.9732 36.309C43.9776 36.2979 43.9776 36.2823 43.9821 36.2424C42.2917 35.9803 40.728 36.3712 39.191 37.0531C39.442 36.7155 39.6863 36.3712 39.9506 36.0491C40.9302 34.8408 42.0807 33.8257 43.4245 33.035C44.6395 32.3198 45.9456 31.8467 47.3516 31.6623C47.4626 31.6445 47.5915 31.5846 47.6736 31.5068C49.1796 30.143 50.8499 29.048 52.7957 28.4261C55.5455 27.5443 58.262 27.6975 60.9252 28.7615C61.496 28.988 62.0668 29.1057 62.6688 29.1257C63.2241 29.1413 63.7794 29.179 64.3302 29.2301C64.5545 29.2523 64.7878 29.3212 64.9943 29.41C65.3919 29.5766 65.5119 29.8898 65.3675 30.2985L65.363 30.2896Z" fill="#3A2415"/>
<path d="M64.941 30.9471C64.81 31.318 64.5456 31.5779 64.2391 31.8C63.6216 32.2487 62.922 32.5375 62.229 32.8306C61.2539 33.246 60.2699 33.6325 59.3414 34.1367L59.3303 34.1434C59.2348 34.2011 59.1327 34.2478 59.0349 34.3033C57.2202 35.2961 55.3944 36.3001 53.8263 37.6639C50.4412 40.6114 47.5604 45.3892 48.2622 50.0381C48.5466 51.9216 49.324 53.5631 50.7166 54.8869C50.9521 55.109 51.2231 55.2933 51.4896 55.4733C51.9694 55.7953 52.4891 55.8109 52.9822 55.5466C53.5375 55.2534 54.0728 54.9158 54.6015 54.5804C55.3056 54.1339 56.023 53.723 56.8582 53.5742C57.8355 53.3965 58.8905 53.7052 59.6724 54.3071C58.9128 54.1672 58.3575 54.5337 57.8622 54.9935C57.3424 55.4688 56.8604 55.9886 56.3629 56.4839C56.2163 56.6283 56.063 56.7682 55.9031 56.8948C55.6565 57.0903 55.3944 57.2502 55.0501 57.288C55.1723 57.4035 55.29 57.499 55.3855 57.6145C55.5988 57.8788 55.7054 58.1942 55.772 58.5207C55.8364 58.8561 55.8964 59.1959 55.9608 59.5313C56.1741 60.6419 56.5294 61.3838 57.6445 61.968C57.3446 61.9502 57.047 61.9435 56.7516 61.9169C55.2812 61.7858 54.1883 61.0551 53.4242 59.8068C53.1244 59.3159 52.829 58.825 52.5202 58.3452C51.976 57.4967 51.2208 56.8993 50.2613 56.5816C49.8104 56.4306 49.3751 56.2529 48.9641 56.0508C48.9464 56.5083 48.8975 56.9726 48.8153 57.4434C48.6354 58.4363 48.802 59.3848 49.2862 60.271C49.5594 60.773 49.8504 61.2683 50.1369 61.7636C50.8699 63.0297 50.9876 64.3402 50.4012 65.6951C50.2835 65.9683 50.1458 66.2326 50.0192 66.5036C50.0414 65.2442 49.5594 64.5778 48.6843 63.8604C48.42 63.6427 48.1512 63.4295 47.8869 63.2096C47.6337 62.9942 47.4071 62.7498 47.276 62.4366C47.2227 62.2967 47.1939 62.1479 47.1517 61.9857C46.954 62.27 46.6874 62.4233 46.3987 62.5477C46.2099 62.6277 46.0144 62.6943 45.8167 62.7543C45.1415 62.9564 44.4574 63.1319 43.791 63.3606C43.1513 63.5783 42.5627 63.8915 42.3228 64.6245C42.1674 63.6494 42.4006 62.5766 43.0225 61.8014C43.5534 61.1395 44.2552 60.7063 44.9838 60.3021C45.5302 59.9978 46.0855 59.6891 46.6075 59.3403C47.0761 59.0338 47.3094 58.5696 47.2561 57.9943C47.225 57.6744 47.1939 57.3479 47.1095 57.0348C46.6141 55.1801 45.5413 53.7119 44.0243 52.5613C40.2771 49.7227 34.7064 49.9692 30.4951 51.5351C28.5494 52.2615 26.7946 53.3854 25.0577 54.5026C24.9622 54.5626 24.8733 54.6292 24.7734 54.6892L24.7623 54.6959C23.876 55.2711 23.0653 55.953 22.2346 56.6083C21.646 57.0769 21.0573 57.5523 20.3688 57.881C20.0267 58.0432 19.6713 58.152 19.2848 58.0898C18.8562 58.0187 18.6407 57.7655 18.6829 57.3368C18.7051 57.1125 18.754 56.8748 18.8428 56.6683C19.0627 56.1596 19.2937 55.6554 19.5469 55.1601C19.8179 54.6203 19.9867 54.065 20.06 53.4542C20.3999 50.6067 21.5638 48.1479 23.6517 46.1532C25.1287 44.7406 26.8879 43.7966 28.807 43.1258C28.9158 43.0902 29.0291 43.0058 29.098 42.917C29.9309 41.7709 30.9726 40.8513 32.181 40.1228C33.5159 39.3209 34.9574 38.7945 36.4878 38.5124C36.8987 38.4347 37.3163 38.3858 37.7339 38.3258C36.4012 39.3498 35.3106 40.5359 34.7309 42.1462C34.7686 42.1618 34.782 42.1684 34.7931 42.1707C34.853 42.1751 34.9152 42.1796 34.9796 42.1818C36.2768 42.2462 37.5495 42.4617 38.7756 42.8903C39.9551 43.3013 41.0523 43.8099 42.0563 44.4163C41.9985 43.2457 42.0763 42.0396 42.2806 40.8069C42.4916 39.5253 42.9092 38.3036 43.4734 37.1353C43.5001 37.0775 43.5289 37.022 43.5511 36.9665C43.5556 36.9554 43.5556 36.9398 43.56 36.8998C41.8697 36.6377 40.306 37.0287 38.769 37.7106C39.02 37.3729 39.2643 37.0287 39.5286 36.7066C40.5081 35.4983 41.6587 34.4832 43.0025 33.6925C44.2175 32.9772 45.5235 32.5041 46.9295 32.3198C47.0406 32.302 47.1694 32.242 47.2516 32.1643C48.7576 30.8005 50.4279 29.7055 52.3736 29.0835C55.1234 28.2017 57.8399 28.355 60.5031 29.4189C61.074 29.6455 61.6448 29.7632 62.2467 29.7832C62.802 29.7988 63.3573 29.8365 63.9082 29.8876C64.1325 29.9098 64.3657 29.9787 64.5723 30.0675C64.9699 30.2341 65.0898 30.5473 64.9455 30.956L64.941 30.9471Z" fill="url(#paint3_radial_68_40702)"/>
<path opacity="0.85" d="M64.941 30.9471C64.81 31.318 64.5456 31.5779 64.2391 31.8C63.6216 32.2487 62.922 32.5375 62.229 32.8306C61.2539 33.246 60.2699 33.6325 59.3414 34.1367L59.3303 34.1434C59.2348 34.2011 59.1327 34.2478 59.0349 34.3033C57.2202 35.2961 55.3944 36.3001 53.8263 37.6639C50.4412 40.6114 47.5604 45.3892 48.2622 50.0381C48.5466 51.9216 49.324 53.5631 50.7166 54.8869C50.9521 55.109 51.2231 55.2933 51.4896 55.4733C51.9694 55.7953 52.4891 55.8109 52.9822 55.5466C53.5375 55.2534 54.0728 54.9158 54.6015 54.5804C55.3056 54.1339 56.023 53.723 56.8582 53.5742C57.8355 53.3965 58.8905 53.7052 59.6724 54.3071C58.9128 54.1672 58.3575 54.5337 57.8622 54.9935C57.3424 55.4688 56.8604 55.9886 56.3629 56.4839C56.2163 56.6283 56.063 56.7682 55.9031 56.8948C55.6565 57.0903 55.3944 57.2502 55.0501 57.288C55.1723 57.4035 55.29 57.499 55.3855 57.6145C55.5988 57.8788 55.7054 58.1942 55.772 58.5207C55.8364 58.8561 55.8964 59.1959 55.9608 59.5313C56.1741 60.6419 56.5294 61.3838 57.6445 61.968C57.3446 61.9502 57.047 61.9435 56.7516 61.9169C55.2812 61.7858 54.1883 61.0551 53.4242 59.8068C53.1244 59.3159 52.829 58.825 52.5202 58.3452C51.976 57.4967 51.2208 56.8993 50.2613 56.5816C49.8104 56.4306 49.3751 56.2529 48.9641 56.0508C48.9464 56.5083 48.8975 56.9726 48.8153 57.4434C48.6354 58.4363 48.802 59.3848 49.2862 60.271C49.5594 60.773 49.8504 61.2683 50.1369 61.7636C50.8699 63.0297 50.9876 64.3402 50.4012 65.6951C50.2835 65.9683 50.1458 66.2326 50.0192 66.5036C50.0414 65.2442 49.5594 64.5778 48.6843 63.8604C48.42 63.6427 48.1512 63.4295 47.8869 63.2096C47.6337 62.9942 47.4071 62.7498 47.276 62.4366C47.2227 62.2967 47.1939 62.1479 47.1517 61.9857C46.954 62.27 46.6874 62.4233 46.3987 62.5477C46.2099 62.6277 46.0144 62.6943 45.8167 62.7543C45.1415 62.9564 44.4574 63.1319 43.791 63.3606C43.1513 63.5783 42.5627 63.8915 42.3228 64.6245C42.1674 63.6494 42.4006 62.5766 43.0225 61.8014C43.5534 61.1395 44.2552 60.7063 44.9838 60.3021C45.5302 59.9978 46.0855 59.6891 46.6075 59.3403C47.0761 59.0338 47.3094 58.5696 47.2561 57.9943C47.225 57.6744 47.1939 57.3479 47.1095 57.0348C46.6141 55.1801 45.5413 53.7119 44.0243 52.5613C40.2771 49.7227 34.7064 49.9692 30.4951 51.5351C28.5494 52.2615 26.7946 53.3854 25.0577 54.5026C24.9622 54.5626 24.8733 54.6292 24.7734 54.6892L24.7623 54.6959C23.876 55.2711 23.0653 55.953 22.2346 56.6083C21.646 57.0769 21.0573 57.5523 20.3688 57.881C20.0267 58.0432 19.6713 58.152 19.2848 58.0898C18.8562 58.0187 18.6407 57.7655 18.6829 57.3368C18.7051 57.1125 18.754 56.8748 18.8428 56.6683C19.0627 56.1596 19.2937 55.6554 19.5469 55.1601C19.8179 54.6203 19.9867 54.065 20.06 53.4542C20.3999 50.6067 21.5638 48.1479 23.6517 46.1532C25.1287 44.7406 26.8879 43.7966 28.807 43.1258C28.9158 43.0902 29.0291 43.0058 29.098 42.917C29.9309 41.7709 30.9726 40.8513 32.181 40.1228C33.5159 39.3209 34.9574 38.7945 36.4878 38.5124C36.8987 38.4347 37.3163 38.3858 37.7339 38.3258C36.4012 39.3498 35.3106 40.5359 34.7309 42.1462C34.7686 42.1618 34.782 42.1684 34.7931 42.1707C34.853 42.1751 34.9152 42.1796 34.9796 42.1818C36.2768 42.2462 37.5495 42.4617 38.7756 42.8903C39.9551 43.3013 41.0523 43.8099 42.0563 44.4163C41.9985 43.2457 42.0763 42.0396 42.2806 40.8069C42.4916 39.5253 42.9092 38.3036 43.4734 37.1353C43.5001 37.0775 43.5289 37.022 43.5511 36.9665C43.5556 36.9554 43.5556 36.9398 43.56 36.8998C41.8697 36.6377 40.306 37.0287 38.769 37.7106C39.02 37.3729 39.2643 37.0287 39.5286 36.7066C40.5081 35.4983 41.6587 34.4832 43.0025 33.6925C44.2175 32.9772 45.5235 32.5041 46.9295 32.3198C47.0406 32.302 47.1694 32.242 47.2516 32.1643C48.7576 30.8005 50.4279 29.7055 52.3736 29.0835C55.1234 28.2017 57.8399 28.355 60.5031 29.4189C61.074 29.6455 61.6448 29.7632 62.2467 29.7832C62.802 29.7988 63.3573 29.8365 63.9082 29.8876C64.1325 29.9098 64.3657 29.9787 64.5723 30.0675C64.9699 30.2341 65.0898 30.5473 64.9455 30.956L64.941 30.9471Z" fill="#724401"/>
<g style="mix-blend-mode:hard-light">
<path opacity="0.85" d="M64.941 30.9471C64.81 31.318 64.5456 31.5779 64.2391 31.8C63.6216 32.2487 62.922 32.5375 62.229 32.8306C61.2539 33.246 60.2699 33.6325 59.3414 34.1367L59.3303 34.1434C59.2348 34.2011 59.1327 34.2478 59.0349 34.3033C57.2202 35.2961 55.3944 36.3001 53.8263 37.6639C50.4412 40.6114 47.5604 45.3892 48.2622 50.0381C48.5466 51.9216 49.324 53.5631 50.7166 54.8869C50.9521 55.109 51.2231 55.2933 51.4896 55.4733C51.9694 55.7953 52.4891 55.8109 52.9822 55.5466C53.5375 55.2534 54.0728 54.9158 54.6015 54.5804C55.3056 54.1339 56.023 53.723 56.8582 53.5742C57.8355 53.3965 58.8905 53.7052 59.6724 54.3071C58.9128 54.1672 58.3575 54.5337 57.8622 54.9935C57.3424 55.4688 56.8604 55.9886 56.3629 56.4839C56.2163 56.6283 56.063 56.7682 55.9031 56.8948C55.6565 57.0903 55.3944 57.2502 55.0501 57.288C55.1723 57.4035 55.29 57.499 55.3855 57.6145C55.5988 57.8788 55.7054 58.1942 55.772 58.5207C55.8364 58.8561 55.8964 59.1959 55.9608 59.5313C56.1741 60.6419 56.5294 61.3838 57.6445 61.968C57.3446 61.9502 57.047 61.9435 56.7516 61.9169C55.2812 61.7858 54.1883 61.0551 53.4242 59.8068C53.1244 59.3159 52.829 58.825 52.5202 58.3452C51.976 57.4967 51.2208 56.8993 50.2613 56.5816C49.8104 56.4306 49.3751 56.2529 48.9641 56.0508C48.9464 56.5083 48.8975 56.9726 48.8153 57.4434C48.6354 58.4363 48.802 59.3848 49.2862 60.271C49.5594 60.773 49.8504 61.2683 50.1369 61.7636C50.8699 63.0297 50.9876 64.3402 50.4012 65.6951C50.2835 65.9683 50.1458 66.2326 50.0192 66.5036C50.0414 65.2442 49.5594 64.5778 48.6843 63.8604C48.42 63.6427 48.1512 63.4295 47.8869 63.2096C47.6337 62.9942 47.4071 62.7498 47.276 62.4366C47.2227 62.2967 47.1939 62.1479 47.1517 61.9857C46.954 62.27 46.6874 62.4233 46.3987 62.5477C46.2099 62.6277 46.0144 62.6943 45.8167 62.7543C45.1415 62.9564 44.4574 63.1319 43.791 63.3606C43.1513 63.5783 42.5627 63.8915 42.3228 64.6245C42.1674 63.6494 42.4006 62.5766 43.0225 61.8014C43.5534 61.1395 44.2552 60.7063 44.9838 60.3021C45.5302 59.9978 46.0855 59.6891 46.6075 59.3403C47.0761 59.0338 47.3094 58.5696 47.2561 57.9943C47.225 57.6744 47.1939 57.3479 47.1095 57.0348C46.6141 55.1801 45.5413 53.7119 44.0243 52.5613C40.2771 49.7227 34.7064 49.9692 30.4951 51.5351C28.5494 52.2615 26.7946 53.3854 25.0577 54.5026C24.9622 54.5626 24.8733 54.6292 24.7734 54.6892L24.7623 54.6959C23.876 55.2711 23.0653 55.953 22.2346 56.6083C21.646 57.0769 21.0573 57.5523 20.3688 57.881C20.0267 58.0432 19.6713 58.152 19.2848 58.0898C18.8562 58.0187 18.6407 57.7655 18.6829 57.3368C18.7051 57.1125 18.754 56.8748 18.8428 56.6683C19.0627 56.1596 19.2937 55.6554 19.5469 55.1601C19.8179 54.6203 19.9867 54.065 20.06 53.4542C20.3999 50.6067 21.5638 48.1479 23.6517 46.1532C25.1287 44.7406 26.8879 43.7966 28.807 43.1258C28.9158 43.0902 29.0291 43.0058 29.098 42.917C29.9309 41.7709 30.9726 40.8513 32.181 40.1228C33.5159 39.3209 34.9574 38.7945 36.4878 38.5124C36.8987 38.4347 37.3163 38.3858 37.7339 38.3258C36.4012 39.3498 35.3106 40.5359 34.7309 42.1462C34.7686 42.1618 34.782 42.1684 34.7931 42.1707C34.853 42.1751 34.9152 42.1796 34.9796 42.1818C36.2768 42.2462 37.5495 42.4617 38.7756 42.8903C39.9551 43.3013 41.0523 43.8099 42.0563 44.4163C41.9985 43.2457 42.0763 42.0396 42.2806 40.8069C42.4916 39.5253 42.9092 38.3036 43.4734 37.1353C43.5001 37.0775 43.5289 37.022 43.5511 36.9665C43.5556 36.9554 43.5556 36.9398 43.56 36.8998C41.8697 36.6377 40.306 37.0287 38.769 37.7106C39.02 37.3729 39.2643 37.0287 39.5286 36.7066C40.5081 35.4983 41.6587 34.4832 43.0025 33.6925C44.2175 32.9772 45.5235 32.5041 46.9295 32.3198C47.0406 32.302 47.1694 32.242 47.2516 32.1643C48.7576 30.8005 50.4279 29.7055 52.3736 29.0835C55.1234 28.2017 57.8399 28.355 60.5031 29.4189C61.074 29.6455 61.6448 29.7632 62.2467 29.7832C62.802 29.7988 63.3573 29.8365 63.9082 29.8876C64.1325 29.9098 64.3657 29.9787 64.5723 30.0675C64.9699 30.2341 65.0898 30.5473 64.9455 30.956L64.941 30.9471Z" fill="#663703"/>
</g>
<path d="M35.2994 17.5112L30.0197 16.0586L25.1065 14.7059V14.7148C25.0154 15.0746 22.6676 24.6523 22.6654 24.659C22.2123 26.5136 22.7787 28.6882 24.2935 29.8743C24.5023 30.0431 24.7311 30.1875 24.9776 30.3141C25.202 30.4296 25.4352 30.5206 25.6751 30.5917C25.684 30.5939 25.6951 30.5962 25.704 30.5984C27.2233 31.067 29.0002 30.7605 30.304 29.8809C31.6189 28.9991 32.754 27.2044 32.3386 25.5652C32.1298 24.75 31.5323 24.1081 30.8504 23.6461C30.8504 23.6461 30.3862 23.2507 29.6554 23.1441C28.9202 23.0286 27.914 23.2063 26.839 24.3658L26.337 24.9411H26.3348L24.991 26.4848C24.7622 26.7269 24.4024 26.7002 24.1936 26.5114C24.0759 26.4137 24.0048 26.2715 24.0137 26.0939C24.0225 25.8406 24.449 24.9544 24.6556 24.5213C24.6556 24.5213 24.7644 23.8793 24.8066 23.2285C24.8688 22.2024 25.2753 21.2139 26.0349 20.5187C26.6102 19.9967 27.4498 19.5214 28.6692 19.3148C29.3645 19.1949 30.1796 19.1638 31.1458 19.2549C31.3235 19.2704 31.5034 19.2482 31.6612 19.1705C31.8944 19.0572 32.3031 18.9106 32.794 18.9661C33.3293 19.0216 33.9601 19.3215 34.5687 20.1678C34.5687 20.1678 33.4692 19.7902 32.4408 20.4676C32.423 20.4787 32.4052 20.4921 32.3875 20.5032C32.3875 20.5032 32.443 20.4987 32.5385 20.5032C32.8939 20.5365 33.8068 20.7541 34.4265 22.1402C34.4265 22.1402 35.1262 23.5217 34.5753 25.5075C34.4576 25.9428 34.6597 26.3471 34.9885 26.5492C35.2261 26.6936 35.526 26.7335 35.8192 26.6092L35.837 26.6025C37.6783 25.8229 38.6356 23.8616 38.6023 21.9291C38.5601 19.8324 37.3762 18.0799 35.3016 17.5112H35.2994ZM25.9883 16.1852L27.8407 16.7783L27.4876 18.7084L26.9745 18.5574L25.5885 18.1443L25.9838 16.2207L25.9905 16.1874L25.9883 16.1852Z" fill="#3A2415"/>
<path d="M37.6295 28.877C37.7272 29.0413 37.6717 29.2523 37.5095 29.3501L33.1938 31.9155C33.0294 32.0133 32.8184 31.9577 32.7207 31.7956C32.6607 31.6956 32.6563 31.5668 32.7096 31.4624C32.7984 31.2847 33.0339 31.2047 33.1649 31.0537C33.2849 30.916 33.3737 30.7538 33.4337 30.5806C33.5581 30.2208 33.5692 29.8298 33.5625 29.4545C33.5581 29.2857 33.5514 29.1169 33.5447 28.948C33.5247 28.3683 33.4781 27.7841 33.3848 27.2089C34.0689 27.8152 34.8153 28.3039 35.6193 28.7348C35.9369 28.9058 36.299 28.9836 36.6566 28.9258C36.8365 28.897 37.0075 28.8348 37.1697 28.7526C37.3318 28.6704 37.534 28.7082 37.6317 28.8747L37.6295 28.877Z" fill="#3A2415"/>
<path d="M34.7819 17.378L30.0153 16.0653L25.1087 14.7148L24.5934 14.5726C24.5934 14.5726 22.1568 24.519 22.1523 24.5257C21.657 26.5514 22.3789 28.9614 24.2247 30.052C24.3024 30.0986 24.3824 30.143 24.4668 30.1852C24.8488 30.3763 25.2575 30.5118 25.6818 30.5917C25.6907 30.5939 25.7018 30.5962 25.7106 30.5984C27.1055 30.856 28.6359 30.5273 29.7932 29.7499C31.1081 28.8681 32.2431 27.0734 31.8278 25.4342C31.619 24.619 31.0215 23.9771 30.3396 23.5151C30.3396 23.5151 30.0864 23.3018 29.6621 23.1464C29.0202 22.9065 27.9873 22.8043 26.8368 23.7527H26.8346C26.668 23.8904 26.4992 24.0504 26.3281 24.2347L24.4823 26.3493C24.4002 26.4359 24.3002 26.487 24.2003 26.5092C23.8626 26.5892 23.485 26.3515 23.5006 25.9606C23.5117 25.7118 23.9382 24.8211 24.1425 24.388C24.1425 24.388 24.2513 23.7461 24.2935 23.0953C24.3557 22.0691 24.7644 21.0807 25.5218 20.3854C26.1882 19.7791 27.2077 19.2415 28.7603 19.106C29.3112 19.0505 29.9331 19.055 30.6305 19.1216C30.8105 19.1416 30.9881 19.1149 31.1459 19.0372C31.459 18.8861 32.0832 18.6729 32.7962 18.9661C33.1982 19.1283 33.6358 19.4525 34.0511 20.0345C34.0511 20.0345 32.9117 19.6413 31.8722 20.3699C31.8722 20.3699 32.1076 20.3477 32.4408 20.4676C32.4719 20.4787 32.5052 20.4921 32.5385 20.5054C32.9583 20.6831 33.4981 21.0896 33.909 22.0091C33.909 22.0091 34.6064 23.3929 34.0534 25.3786C33.8801 26.0094 34.3888 26.5781 34.9863 26.5514C35.0884 26.5447 35.195 26.5225 35.2994 26.4781L35.3172 26.4714C37.163 25.6896 38.1159 23.7305 38.0826 21.7981C38.0404 19.7013 36.8565 17.9488 34.7819 17.3802V17.378ZM26.9701 18.5752L25.0709 18.011L25.4708 16.0542L25.9839 16.2185L27.3277 16.645L26.9745 18.5574L26.9701 18.5774V18.5752Z" fill="url(#paint4_radial_68_40702)"/>
<path d="M37.1119 28.746C37.2096 28.9103 37.1541 29.1213 36.992 29.219L32.6762 31.7845C32.5119 31.8822 32.3008 31.8267 32.2031 31.6646C32.1431 31.5646 32.1387 31.4358 32.192 31.3314C32.2808 31.1537 32.5163 31.0737 32.6473 30.9227C32.7673 30.785 32.8561 30.6228 32.9161 30.4496C33.0405 30.0898 33.0516 29.6988 33.0449 29.3235C33.0405 29.1546 33.0338 28.9858 33.0272 28.817C33.0072 28.2373 32.9605 27.6531 32.8672 27.0779C33.5514 27.6842 34.2977 28.1729 35.1017 28.6038C35.4194 28.7748 35.7814 28.8526 36.139 28.7948C36.3189 28.7659 36.49 28.7037 36.6521 28.6216C36.8143 28.5394 37.0164 28.5771 37.1141 28.7437L37.1119 28.746Z" fill="url(#paint5_radial_68_40702)"/>
<g opacity="0.85">
<path d="M34.7819 17.378L30.0153 16.0653L25.1087 14.7148L24.5934 14.5726C24.5934 14.5726 22.1568 24.519 22.1523 24.5257C21.657 26.5514 22.3789 28.9614 24.2247 30.052C24.3024 30.0986 24.3824 30.143 24.4668 30.1852C24.8488 30.3763 25.2575 30.5118 25.6818 30.5917C25.6907 30.5939 25.7018 30.5962 25.7106 30.5984C27.1055 30.856 28.6359 30.5273 29.7932 29.7499C31.1081 28.8681 32.2431 27.0734 31.8278 25.4342C31.619 24.619 31.0215 23.9771 30.3396 23.5151C30.3396 23.5151 30.0864 23.3018 29.6621 23.1464C29.0202 22.9065 27.9873 22.8043 26.8368 23.7527H26.8346C26.668 23.8904 26.4992 24.0504 26.3281 24.2347L24.4823 26.3493C24.4002 26.4359 24.3002 26.487 24.2003 26.5092C23.8626 26.5892 23.485 26.3515 23.5006 25.9606C23.5117 25.7118 23.9382 24.8211 24.1425 24.388C24.1425 24.388 24.2513 23.7461 24.2935 23.0953C24.3557 22.0691 24.7644 21.0807 25.5218 20.3854C26.1882 19.7791 27.2077 19.2415 28.7603 19.106C29.3112 19.0505 29.9331 19.055 30.6305 19.1216C30.8105 19.1416 30.9881 19.1149 31.1459 19.0372C31.459 18.8861 32.0832 18.6729 32.7962 18.9661C33.1982 19.1283 33.6358 19.4525 34.0511 20.0345C34.0511 20.0345 32.9117 19.6413 31.8722 20.3699C31.8722 20.3699 32.1076 20.3477 32.4408 20.4676C32.4719 20.4787 32.5052 20.4921 32.5385 20.5054C32.9583 20.6831 33.4981 21.0896 33.909 22.0091C33.909 22.0091 34.6064 23.3929 34.0534 25.3786C33.8801 26.0094 34.3888 26.5781 34.9863 26.5514C35.0884 26.5447 35.195 26.5225 35.2994 26.4781L35.3172 26.4714C37.163 25.6896 38.1159 23.7305 38.0826 21.7981C38.0404 19.7013 36.8565 17.9488 34.7819 17.3802V17.378ZM26.9701 18.5752L25.0709 18.011L25.4708 16.0542L25.9839 16.2185L27.3277 16.645L26.9745 18.5574L26.9701 18.5774V18.5752Z" fill="#724401"/>
<path d="M37.1119 28.746C37.2096 28.9103 37.1541 29.1213 36.992 29.219L32.6762 31.7845C32.5119 31.8822 32.3008 31.8267 32.2031 31.6646C32.1431 31.5646 32.1387 31.4358 32.192 31.3314C32.2808 31.1537 32.5163 31.0737 32.6473 30.9227C32.7673 30.785 32.8561 30.6228 32.9161 30.4496C33.0405 30.0898 33.0516 29.6988 33.0449 29.3235C33.0405 29.1546 33.0338 28.9858 33.0272 28.817C33.0072 28.2373 32.9605 27.6531 32.8672 27.0779C33.5514 27.6842 34.2977 28.1729 35.1017 28.6038C35.4194 28.7748 35.7814 28.8526 36.139 28.7948C36.3189 28.7659 36.49 28.7037 36.6521 28.6216C36.8143 28.5394 37.0164 28.5771 37.1141 28.7437L37.1119 28.746Z" fill="#724401"/>
</g>
<g opacity="0.85">
<path d="M34.7819 17.378L30.0153 16.0653L25.1087 14.7148L24.5934 14.5726C24.5934 14.5726 22.1568 24.519 22.1523 24.5257C21.657 26.5514 22.3789 28.9614 24.2247 30.052C24.3024 30.0986 24.3824 30.143 24.4668 30.1852C24.8488 30.3763 25.2575 30.5118 25.6818 30.5917C25.6907 30.5939 25.7018 30.5962 25.7106 30.5984C27.1055 30.856 28.6359 30.5273 29.7932 29.7499C31.1081 28.8681 32.2431 27.0734 31.8278 25.4342C31.619 24.619 31.0215 23.9771 30.3396 23.5151C30.3396 23.5151 30.0864 23.3018 29.6621 23.1464C29.0202 22.9065 27.9873 22.8043 26.8368 23.7527H26.8346C26.668 23.8904 26.4992 24.0504 26.3281 24.2347L24.4823 26.3493C24.4002 26.4359 24.3002 26.487 24.2003 26.5092C23.8626 26.5892 23.485 26.3515 23.5006 25.9606C23.5117 25.7118 23.9382 24.8211 24.1425 24.388C24.1425 24.388 24.2513 23.7461 24.2935 23.0953C24.3557 22.0691 24.7644 21.0807 25.5218 20.3854C26.1882 19.7791 27.2077 19.2415 28.7603 19.106C29.3112 19.0505 29.9331 19.055 30.6305 19.1216C30.8105 19.1416 30.9881 19.1149 31.1459 19.0372C31.459 18.8861 32.0832 18.6729 32.7962 18.9661C33.1982 19.1283 33.6358 19.4525 34.0511 20.0345C34.0511 20.0345 32.9117 19.6413 31.8722 20.3699C31.8722 20.3699 32.1076 20.3477 32.4408 20.4676C32.4719 20.4787 32.5052 20.4921 32.5385 20.5054C32.9583 20.6831 33.4981 21.0896 33.909 22.0091C33.909 22.0091 34.6064 23.3929 34.0534 25.3786C33.8801 26.0094 34.3888 26.5781 34.9863 26.5514C35.0884 26.5447 35.195 26.5225 35.2994 26.4781L35.3172 26.4714C37.163 25.6896 38.1159 23.7305 38.0826 21.7981C38.0404 19.7013 36.8565 17.9488 34.7819 17.3802V17.378ZM26.9701 18.5752L25.0709 18.011L25.4708 16.0542L25.9839 16.2185L27.3277 16.645L26.9745 18.5574L26.9701 18.5774V18.5752Z" fill="#663703"/>
<path d="M37.1119 28.746C37.2096 28.9103 37.1541 29.1213 36.992 29.219L32.6762 31.7845C32.5119 31.8822 32.3008 31.8267 32.2031 31.6646C32.1431 31.5646 32.1387 31.4358 32.192 31.3314C32.2808 31.1537 32.5163 31.0737 32.6473 30.9227C32.7673 30.785 32.8561 30.6228 32.9161 30.4496C33.0405 30.0898 33.0516 29.6988 33.0449 29.3235C33.0405 29.1546 33.0338 28.9858 33.0272 28.817C33.0072 28.2373 32.9605 27.6531 32.8672 27.0779C33.5514 27.6842 34.2977 28.1729 35.1017 28.6038C35.4194 28.7748 35.7814 28.8526 36.139 28.7948C36.3189 28.7659 36.49 28.7037 36.6521 28.6216C36.8143 28.5394 37.0164 28.5771 37.1141 28.7437L37.1119 28.746Z" fill="#663703"/>
</g>
</g>
<path d="M48.6998 6.4009L48.522 6.82737L48.2444 7.4915L47.5181 9.24401L47.2826 9.81484L35.4349 38.3636L35.2039 38.9277L30.3773 50.5556L30.1552 51.0909L24.0803 65.7328L23.7871 66.4392L22.963 68.4227L22.832 68.7403L22.641 69.2067C18.9405 66.9967 15.6243 64.0558 12.9256 60.4353L12.9789 60.3065L13.0211 60.2066L14.0872 57.6344L14.4271 56.8059L25.2486 30.6805L25.3175 30.5139L27.221 25.9161H27.2232L27.6786 24.8077H27.6808L29.3933 20.6697L29.4733 20.4765L30.6461 17.6423L30.6527 17.6334L34.1111 9.28399L34.3976 8.58876L35.1351 6.80516L35.5482 5.80563L35.8147 5.16149C40.1704 4.73503 44.5484 5.17038 48.6931 6.40313L48.6998 6.4009Z" fill="url(#paint6_linear_68_40702)"/>
<path d="M68.2838 21.807C68.3438 21.9003 68.4015 21.998 68.4593 22.0935C68.5459 22.2401 68.6348 22.3889 68.7147 22.5355C68.7236 22.5422 68.7281 22.5511 68.7281 22.5577L68.7214 22.5777L67.4598 25.5785L67.1421 26.3337L56.3872 51.9549L56.1318 52.5591L55.0257 55.1956L54.8302 55.6643L54.7547 55.842L54.4393 56.5883L53.5597 58.6873L53.262 59.3959L49.5638 68.2072L49.1884 69.0957L48.2822 71.2569L47.9646 72.0121L47.4937 73.1271C44.6772 73.7757 41.8186 74.0489 38.9866 73.9667L39.3486 73.1027L39.5907 72.5252L40.3837 70.6394L40.6969 69.8909L44.2197 61.4993L44.4573 60.9329L45.5501 58.3364L45.7611 57.8277L46.5919 55.8575L46.9317 55.049L48.3577 51.6484L48.6798 50.8821L54.7858 36.3357L54.9946 35.8448H54.9968L57.6155 29.6011L57.8843 28.9614L62.1356 18.835L62.3955 18.2198L63.3706 15.8942L63.4772 15.6388L63.5461 15.4811C65.2519 17.2802 66.7912 19.2948 68.1128 21.5182C68.1705 21.616 68.2305 21.7137 68.2838 21.8114V21.807Z" fill="url(#paint7_linear_68_40702)"/>
</g>
<defs>
<filter id="filter0_f_68_40702" x="0.33728" y="-4.76837e-07" width="78.3862" height="78.981" filterUnits="userSpaceOnUse" color-interpolation-filters="sRGB">
<feFlood flood-opacity="0" result="BackgroundImageFix"/>
<feBlend mode="normal" in="SourceGraphic" in2="BackgroundImageFix" result="shape"/>
<feGaussianBlur stdDeviation="2.5" result="effect1_foregroundBlur_68_40702"/>
</filter>
<linearGradient id="paint0_linear_68_40702" x1="46.2943" y1="72.4153" x2="32.5772" y2="6.29434" gradientUnits="userSpaceOnUse">
<stop stop-color="#D3A150"/>
<stop offset="0.42" stop-color="#DDB264"/>
<stop offset="1" stop-color="#EFD186"/>
</linearGradient>
<linearGradient id="paint1_linear_68_40702" x1="23.4942" y1="12.5753" x2="55.4045" y2="66.2757" gradientUnits="userSpaceOnUse">
<stop stop-color="#513A01"/>
<stop offset="0.15" stop-color="#65440B"/>
<stop offset="0.46" stop-color="#986024"/>
<stop offset="0.58" stop-color="#AD6B2F"/>
<stop offset="1" stop-color="#FFE6CA"/>
</linearGradient>
<linearGradient id="paint2_linear_68_40702" x1="45.7076" y1="69.2888" x2="33.2943" y2="9.44922" gradientUnits="userSpaceOnUse">
<stop stop-color="#D3A150"/>
<stop offset="0.42" stop-color="#DDB264"/>
<stop offset="1" stop-color="#EFD186"/>
</linearGradient>
<radialGradient id="paint3_radial_68_40702" cx="0" cy="0" r="1" gradientUnits="userSpaceOnUse" gradientTransform="translate(45.6982 50.5805) rotate(-30.72) scale(22.0651 22.0651)">
<stop stop-color="white"/>
<stop offset="0.6" stop-color="#DDDDDD"/>
<stop offset="1" stop-color="#CCCCCC"/>
</radialGradient>
<radialGradient id="paint4_radial_68_40702" cx="0" cy="0" r="1" gradientUnits="userSpaceOnUse" gradientTransform="translate(28.5429 21.3933) rotate(-30.72) scale(8.27608)">
<stop stop-color="white"/>
<stop offset="0.6" stop-color="#DDDDDD"/>
<stop offset="1" stop-color="#CCCCCC"/>
</radialGradient>
<radialGradient id="paint5_radial_68_40702" cx="0" cy="0" r="1" gradientUnits="userSpaceOnUse" gradientTransform="translate(33.8199 28.8173) rotate(-30.72) scale(2.45439)">
<stop stop-color="white"/>
<stop offset="0.6" stop-color="#DDDDDD"/>
<stop offset="1" stop-color="#CCCCCC"/>
</radialGradient>
<linearGradient id="paint6_linear_68_40702" x1="15.5067" y1="84.9381" x2="39.0077" y2="5.8242" gradientUnits="userSpaceOnUse">
<stop stop-color="white" stop-opacity="0"/>
<stop offset="1" stop-color="white" stop-opacity="0.3"/>
</linearGradient>
<linearGradient id="paint7_linear_68_40702" x1="40.7359" y1="92.4325" x2="64.2358" y2="13.3167" gradientUnits="userSpaceOnUse">
<stop stop-color="white" stop-opacity="0"/>
<stop offset="1" stop-color="white" stop-opacity="0.3"/>
</linearGradient>
</defs>
</svg>
