<svg width="24" height="24" viewBox="0 0 24 24" fill="none" xmlns="http://www.w3.org/2000/svg">
<path d="M23.827 11.7068C23.827 11.7349 23.827 11.7624 23.8263 11.7905V11.8583C23.7448 18.254 18.535 23.4143 12.1203 23.4143C11.4013 23.4143 10.6983 23.3488 10.015 23.2254C8.94871 23.0327 7.93342 22.6937 6.98972 22.2329C5.09622 21.3083 3.48987 19.8878 2.33824 18.1405C1.4768 16.8335 0.869754 15.3437 0.589462 13.7412C0.482829 13.1288 0.421892 12.4996 0.414276 11.8583V11.7905C0.413514 11.7624 0.413513 11.7349 0.413513 11.7068C0.413513 5.24176 5.65375 0 12.1195 0C13.39 0 14.6124 0.202603 15.7587 0.576579C17.2958 1.07928 18.6934 1.89121 19.8771 2.93926C21.456 4.33691 22.6548 6.15423 23.2984 8.21682C23.61 9.21383 23.7905 10.2687 23.8217 11.3602C23.8255 11.4752 23.827 11.591 23.827 11.7068Z" fill="#787878"/>
<path d="M23.8263 12.2932C23.8263 18.759 18.5853 24 12.1195 24C5.65375 24 0.413513 18.759 0.413513 12.2932C0.413513 5.82748 5.65451 0.586472 12.1195 0.586472C18.5845 0.586472 23.8263 5.82824 23.8263 12.2932Z" fill="#474747"/>
<path d="M23.827 11.9413C23.827 18.4063 18.586 23.6473 12.1203 23.6473C11.3236 23.6473 10.5451 23.5674 9.79338 23.4158C8.74381 23.2041 7.74452 22.8522 6.81758 22.3799C4.94618 21.4271 3.36343 19.986 2.2415 18.2243C1.39606 16.8975 0.809587 15.3886 0.555953 13.7693C0.461507 13.1737 0.413513 12.5629 0.413513 11.9413C0.413513 11.9132 0.413514 11.8857 0.414276 11.8576V11.7898C0.495774 5.39333 5.70478 0.233826 12.1195 0.233826C13.3176 0.233826 14.4731 0.413578 15.5607 0.747948C17.1183 1.22627 18.5365 2.02069 19.7422 3.05579C21.3394 4.42754 22.5634 6.22278 23.2383 8.26709C23.5627 9.24963 23.7608 10.2893 23.8133 11.3671C23.8194 11.5072 23.8247 11.6481 23.8263 11.7898V11.8576C23.827 11.8857 23.827 11.9132 23.827 11.9413Z" fill="url(#paint0_linear_68_39374)"/>
<path d="M22.9435 11.965C22.9435 17.9463 18.094 22.7966 12.1119 22.7966C6.12978 22.7966 1.28027 17.9471 1.28027 11.965C1.28027 5.98287 6.12978 1.1326 12.1119 1.1326C18.094 1.1326 22.9435 5.98211 22.9435 11.965Z" fill="url(#paint1_linear_68_39374)"/>
<path d="M22.7302 11.9566C22.7302 17.8092 17.9866 22.5513 12.1355 22.5513C6.2844 22.5513 1.54077 17.8084 1.54077 11.9566C1.54077 6.10472 6.2844 1.36261 12.1355 1.36261C17.9866 1.36261 22.7302 6.10549 22.7302 11.9566Z" fill="url(#paint2_linear_68_39374)"/>
<path d="M12.5332 2.24385C12.5332 2.41522 12.3945 2.55385 12.2231 2.55385C12.0518 2.55385 11.9131 2.41522 11.9131 2.24385C11.9131 2.07248 12.0518 1.93385 12.2231 1.93385C12.3945 1.93385 12.5332 2.07248 12.5332 2.24385Z" fill="#474747"/>
<path d="M12.5644 2.16464C12.5644 2.33601 12.4258 2.47464 12.2544 2.47464C12.083 2.47464 11.9444 2.33601 11.9444 2.16464C11.9444 1.99327 12.083 1.85464 12.2544 1.85464C12.4258 1.85464 12.5644 1.99327 12.5644 2.16464Z" fill="#E6E7E8"/>
<path d="M12.5491 2.20425C12.5491 2.37563 12.4105 2.51425 12.2391 2.51425C12.0678 2.51425 11.9291 2.37563 11.9291 2.20425C11.9291 2.03288 12.0678 1.89426 12.2391 1.89426C12.4105 1.89426 12.5491 2.03288 12.5491 2.20425Z" fill="#898989"/>
<path d="M11.0014 2.29946C11.0281 2.46855 10.9131 2.62774 10.744 2.65439C10.5749 2.68105 10.4157 2.56604 10.389 2.39695C10.3624 2.22786 10.4774 2.06867 10.6465 2.04202C10.8156 2.01536 10.9748 2.13037 11.0014 2.29946Z" fill="#474747"/>
<path d="M11.0205 2.21644C11.0471 2.38552 10.9321 2.54471 10.763 2.57137C10.5939 2.59803 10.4347 2.48302 10.4081 2.31393C10.3814 2.14484 10.4964 1.98565 10.6655 1.95899C10.8346 1.93233 10.9938 2.04735 11.0205 2.21644Z" fill="#E6E7E8"/>
<path d="M11.0113 2.25757C11.0379 2.42666 10.9229 2.58585 10.7538 2.61251C10.5848 2.63916 10.4256 2.52415 10.3989 2.35506C10.3723 2.18597 10.4873 2.02679 10.6564 2.00013C10.8254 1.97347 10.9846 2.08848 11.0113 2.25757Z" fill="#898989"/>
<path d="M9.49791 2.59423C9.55123 2.75722 9.46135 2.93241 9.29911 2.98496C9.13612 3.03828 8.96094 2.9484 8.90839 2.78616C8.85507 2.62317 8.94494 2.44799 9.10717 2.39543C9.27017 2.34211 9.4446 2.43199 9.49791 2.59423Z" fill="#474747"/>
<path d="M9.50402 2.50815C9.55657 2.67115 9.46745 2.84633 9.30522 2.89888C9.14222 2.95144 8.96705 2.86232 8.91449 2.70009C8.86117 2.53709 8.95104 2.36191 9.11327 2.30936C9.27627 2.2568 9.45146 2.34592 9.50402 2.50815Z" fill="#E6E7E8"/>
<path d="M9.50099 2.55156C9.55431 2.71456 9.46442 2.88974 9.30219 2.9423C9.13919 2.99485 8.96478 2.90574 8.91146 2.7435C8.85891 2.58051 8.94725 2.40609 9.11025 2.35277C9.27324 2.30021 9.44844 2.38933 9.50099 2.55156Z" fill="#898989"/>
<path d="M8.05913 3.11978C8.13682 3.27211 8.07588 3.45948 7.92355 3.53717C7.77122 3.61486 7.58385 3.55393 7.50692 3.40159C7.42924 3.24926 7.49015 3.06265 7.64248 2.9842C7.79482 2.90651 7.98218 2.96744 8.05987 3.11978H8.05913Z" fill="#474747"/>
<path d="M8.05153 3.03446C8.12922 3.1868 8.06828 3.37417 7.91595 3.45186C7.76362 3.52955 7.57625 3.46861 7.49856 3.31628C7.42087 3.16395 7.4818 2.97734 7.63414 2.89889C7.78647 2.8212 7.97384 2.88213 8.05153 3.03446Z" fill="#E6E7E8"/>
<path d="M8.05531 3.07711C8.133 3.22945 8.07207 3.41682 7.91973 3.49451C7.7674 3.57219 7.58003 3.51126 7.50234 3.35893C7.42465 3.2066 7.48559 3.01999 7.63792 2.94154C7.79025 2.86385 7.97762 2.92478 8.05531 3.07711Z" fill="#898989"/>
<path d="M6.71937 3.86467C6.81991 4.00329 6.78943 4.19752 6.65081 4.29806C6.51219 4.3986 6.31797 4.36813 6.21743 4.22951C6.11689 4.09089 6.14737 3.89742 6.28599 3.79612C6.42461 3.69558 6.61807 3.72605 6.71937 3.86467Z" fill="#474747"/>
<path d="M6.6988 3.78165C6.79934 3.92027 6.76888 4.11373 6.63026 4.21503C6.49164 4.31557 6.2974 4.28511 6.19686 4.14649C6.09632 4.00786 6.1268 3.81364 6.26542 3.7131C6.40404 3.61256 6.59826 3.64303 6.6988 3.78165Z" fill="#E6E7E8"/>
<path d="M6.70947 3.82279C6.81001 3.96141 6.77955 4.15563 6.64093 4.25617C6.50231 4.35671 6.30809 4.32625 6.20755 4.18762C6.10701 4.049 6.13747 3.85554 6.27609 3.75424C6.41471 3.6537 6.60817 3.68416 6.70947 3.82279Z" fill="#898989"/>
<path d="M5.51362 4.80912C5.63472 4.93022 5.63472 5.12673 5.51362 5.24784C5.39251 5.36894 5.196 5.36894 5.0749 5.24784C4.95379 5.12673 4.95379 4.93022 5.0749 4.80912C5.196 4.68802 5.39251 4.68802 5.51362 4.80912Z" fill="#474747"/>
<path d="M5.48011 4.73068C5.60121 4.85178 5.60121 5.04829 5.48011 5.16939C5.359 5.2905 5.16249 5.2905 5.04139 5.16939C4.92029 5.04829 4.92029 4.85178 5.04139 4.73068C5.16249 4.60957 5.359 4.60957 5.48011 4.73068Z" fill="#E6E7E8"/>
<path d="M5.49683 4.77029C5.61794 4.89139 5.61794 5.0879 5.49683 5.209C5.37573 5.33011 5.17922 5.33011 5.05811 5.209C4.93701 5.0879 4.93701 4.89139 5.05811 4.77029C5.17922 4.64918 5.37573 4.64918 5.49683 4.77029Z" fill="#898989"/>
<path d="M4.47015 5.93107C4.60878 6.03161 4.63923 6.22583 4.53869 6.36445C4.43816 6.50308 4.24394 6.53354 4.10531 6.433C3.96669 6.33247 3.93623 6.13824 4.03677 5.99962C4.13731 5.861 4.33153 5.83053 4.47015 5.93107Z" fill="#474747"/>
<path d="M4.42443 5.85871C4.56305 5.95925 4.59353 6.15348 4.49299 6.2921C4.39245 6.43072 4.19823 6.46119 4.05961 6.36065C3.92099 6.26011 3.89051 6.06588 3.99105 5.92726C4.09159 5.78864 4.28581 5.75817 4.42443 5.85871Z" fill="#E6E7E8"/>
<path d="M4.44726 5.89527C4.58589 5.99581 4.61636 6.19004 4.51583 6.32866C4.41529 6.46728 4.22105 6.49775 4.08242 6.39721C3.9438 6.29667 3.91334 6.10245 4.01388 5.96382C4.11442 5.8252 4.30864 5.79473 4.44726 5.89527Z" fill="#898989"/>
<path d="M3.6148 7.20228C3.76713 7.27997 3.82807 7.46658 3.75038 7.61967C3.67269 7.77201 3.48608 7.83294 3.33299 7.75525C3.18066 7.67756 3.11972 7.49095 3.19741 7.33786C3.2751 7.18552 3.46171 7.12459 3.6148 7.20228Z" fill="#474747"/>
<path d="M3.55847 7.1383C3.7108 7.21599 3.77173 7.4026 3.69404 7.55569C3.61635 7.70802 3.42975 7.76896 3.27665 7.69127C3.12432 7.61358 3.06339 7.42697 3.14108 7.27387C3.21877 7.12154 3.40537 7.06061 3.55847 7.1383Z" fill="#E6E7E8"/>
<path d="M3.58666 7.17028C3.739 7.24797 3.79993 7.43458 3.72224 7.58768C3.64455 7.74001 3.45795 7.80094 3.30485 7.72325C3.15252 7.64556 3.09158 7.45895 3.16927 7.30586C3.24696 7.15353 3.43357 7.09259 3.58666 7.17028Z" fill="#898989"/>
<path d="M2.96894 8.59231C3.13193 8.64486 3.22104 8.82005 3.16772 8.98304C3.1144 9.14604 2.93999 9.23516 2.777 9.18184C2.614 9.12929 2.52488 8.9541 2.57819 8.79111C2.63075 8.62811 2.80594 8.53899 2.96894 8.59231Z" fill="#474747"/>
<path d="M2.90343 8.53747C3.06643 8.59002 3.15555 8.76521 3.10223 8.9282C3.04892 9.0912 2.87449 9.18031 2.71149 9.127C2.54849 9.07368 2.45939 8.89926 2.51271 8.73626C2.56602 8.57327 2.74043 8.48415 2.90343 8.53747Z" fill="#E6E7E8"/>
<path d="M2.93619 8.56489C3.09919 8.61744 3.18829 8.79263 3.13498 8.95562C3.08166 9.11862 2.90725 9.20773 2.74425 9.15442C2.58126 9.1011 2.49213 8.92668 2.54469 8.76368C2.59724 8.60069 2.77243 8.51157 2.93543 8.56489H2.93619Z" fill="#898989"/>
<path d="M2.54846 10.0654C2.71755 10.092 2.83332 10.2512 2.8059 10.4203C2.77924 10.5894 2.62006 10.7044 2.45097 10.6777C2.28188 10.6511 2.16612 10.4919 2.19354 10.3228C2.22019 10.1537 2.37937 10.0379 2.54846 10.0654Z" fill="#474747"/>
<path d="M2.47536 10.022C2.64445 10.0486 2.76021 10.2078 2.73279 10.3769C2.70614 10.546 2.54696 10.6617 2.37787 10.6351C2.20878 10.6084 2.09299 10.4492 2.12041 10.2802C2.14707 10.1111 2.30627 9.99529 2.47536 10.0227V10.022Z" fill="#E6E7E8"/>
<path d="M2.51191 10.0433C2.681 10.0699 2.79677 10.2291 2.76935 10.3982C2.74269 10.5673 2.58351 10.6831 2.41442 10.6557C2.24533 10.629 2.12957 10.4698 2.15622 10.3007C2.18288 10.1316 2.34206 10.0159 2.51115 10.0433H2.51191Z" fill="#898989"/>
<path d="M2.36414 11.5864C2.53551 11.5864 2.67412 11.725 2.67412 11.8964C2.67412 12.0678 2.53551 12.2064 2.36414 12.2064C2.19277 12.2064 2.05414 12.0678 2.05414 11.8964C2.05414 11.725 2.19277 11.5864 2.36414 11.5864Z" fill="#474747"/>
<path d="M2.28418 11.5552C2.45556 11.5552 2.59419 11.6938 2.59419 11.8652C2.59419 12.0365 2.45556 12.1752 2.28418 12.1752C2.11281 12.1752 1.97418 12.0365 1.97418 11.8652C1.97418 11.6938 2.11281 11.5552 2.28418 11.5552Z" fill="#E6E7E8"/>
<path d="M2.3238 11.5704C2.49517 11.5704 2.63378 11.709 2.63378 11.8804C2.63378 12.0518 2.49517 12.1904 2.3238 12.1904C2.15242 12.1904 2.01379 12.0518 2.01379 11.8804C2.01379 11.709 2.15242 11.5704 2.3238 11.5704Z" fill="#898989"/>
<path d="M2.419 13.1173C2.58809 13.0907 2.74727 13.2057 2.77393 13.3756C2.80059 13.5446 2.68559 13.7038 2.5165 13.7305C2.34741 13.7571 2.18821 13.6421 2.16155 13.473C2.13489 13.304 2.24992 13.1448 2.419 13.1181V13.1173Z" fill="#474747"/>
<path d="M2.33598 13.0991C2.50507 13.0724 2.66425 13.1874 2.69091 13.3565C2.71757 13.5256 2.60256 13.6848 2.43347 13.7114C2.26438 13.7381 2.1052 13.6231 2.07855 13.454C2.05189 13.2849 2.16689 13.1257 2.33598 13.0991Z" fill="#E6E7E8"/>
<path d="M2.37787 13.1082C2.54696 13.0816 2.70614 13.1966 2.7328 13.3657C2.75945 13.5347 2.64445 13.6939 2.47536 13.7206C2.30627 13.7472 2.14707 13.6322 2.12042 13.4631C2.09376 13.2941 2.20878 13.1349 2.37787 13.1082Z" fill="#898989"/>
<path d="M2.7138 14.6216C2.8768 14.5691 3.05123 14.6582 3.10454 14.8204C3.1571 14.9834 3.06797 15.1579 2.90574 15.2112C2.74274 15.2637 2.56757 15.1746 2.51502 15.0124C2.4617 14.8494 2.55157 14.675 2.7138 14.6216Z" fill="#474747"/>
<path d="M2.62847 14.6155C2.79147 14.5622 2.96664 14.6513 3.0192 14.8143C3.07175 14.9773 2.98265 15.1525 2.81965 15.2051C2.65666 15.2584 2.48223 15.1693 2.42891 15.0063C2.37635 14.8433 2.46548 14.6681 2.62771 14.6155H2.62847Z" fill="#E6E7E8"/>
<path d="M2.67109 14.6186C2.83409 14.566 3.00928 14.6544 3.06183 14.8174C3.11515 14.9804 3.02603 15.1556 2.86303 15.2081C2.70004 15.2607 2.52486 15.1716 2.47231 15.0093C2.41975 14.8463 2.50886 14.6712 2.67109 14.6186Z" fill="#898989"/>
<path d="M3.23933 16.0604C3.39166 15.9827 3.57827 16.0437 3.65672 16.196C3.73441 16.3483 3.67348 16.5349 3.52114 16.6134C3.36881 16.6911 3.18221 16.6301 3.10452 16.4778C3.02683 16.3255 3.08776 16.1389 3.24009 16.0604H3.23933Z" fill="#474747"/>
<path d="M3.15403 16.0688C3.30637 15.9911 3.49297 16.0513 3.57142 16.2044C3.64911 16.3567 3.58818 16.5441 3.43585 16.6218C3.28351 16.6995 3.09691 16.6385 3.01846 16.4862C2.94077 16.3339 3.0017 16.1465 3.15403 16.0688Z" fill="#E6E7E8"/>
<path d="M3.1967 16.0642C3.34903 15.9865 3.5364 16.0467 3.61409 16.1998C3.69178 16.3521 3.6316 16.5387 3.47851 16.6164C3.32618 16.6941 3.13881 16.6332 3.06112 16.4808C2.98343 16.3285 3.04437 16.1411 3.1967 16.0642Z" fill="#898989"/>
<path d="M3.98417 17.3994C4.12279 17.2989 4.31625 17.3294 4.41755 17.468C4.51809 17.6066 4.48761 17.8001 4.34899 17.9014C4.21037 18.0019 4.01615 17.9714 3.91561 17.8328C3.81507 17.6942 3.84555 17.5007 3.98417 17.3994Z" fill="#474747"/>
<path d="M3.90116 17.4208C4.03979 17.3202 4.234 17.3507 4.33454 17.4893C4.43508 17.6279 4.40462 17.8221 4.266 17.9227C4.12738 18.0232 3.9339 17.9928 3.8326 17.8541C3.73206 17.7155 3.76254 17.5213 3.90116 17.4208Z" fill="#E6E7E8"/>
<path d="M3.9423 17.4101C4.08092 17.3095 4.27514 17.34 4.37568 17.4786C4.47622 17.6173 4.44576 17.8107 4.30714 17.9113C4.16852 18.0118 3.97428 17.9813 3.87374 17.8427C3.7732 17.7041 3.80368 17.5106 3.9423 17.4093V17.4101Z" fill="#898989"/>
<path d="M4.92866 18.6059C5.04976 18.4848 5.24627 18.4848 5.36738 18.6059C5.48848 18.727 5.48848 18.9235 5.36738 19.0446C5.24627 19.1657 5.04976 19.1657 4.92866 19.0446C4.80755 18.9235 4.80755 18.727 4.92866 18.6059Z" fill="#474747"/>
<path d="M4.85023 18.6402C4.97133 18.5191 5.16784 18.5191 5.28895 18.6402C5.41005 18.7613 5.41005 18.9578 5.28895 19.0789C5.16784 19.2 4.97133 19.2 4.85023 19.0789C4.72912 18.9578 4.72912 18.7613 4.85023 18.6402Z" fill="#E6E7E8"/>
<path d="M4.88984 18.6227C5.01094 18.5016 5.20745 18.5016 5.32856 18.6227C5.44966 18.7438 5.44966 18.9395 5.32856 19.0606C5.20745 19.1817 5.01094 19.1817 4.88984 19.0606C4.76874 18.9395 4.76874 18.743 4.88984 18.6219V18.6227Z" fill="#898989"/>
<path d="M6.05056 19.6494C6.1511 19.5107 6.34532 19.4803 6.48395 19.5808C6.62257 19.6814 6.65305 19.8756 6.55251 20.0142C6.45197 20.1528 6.25773 20.1833 6.11911 20.0828C5.98048 19.9822 5.95003 19.788 6.05056 19.6494Z" fill="#474747"/>
<path d="M5.97824 19.6951C6.07878 19.5564 6.273 19.526 6.41162 19.6265C6.55024 19.7271 6.5807 19.9213 6.48016 20.0599C6.37962 20.1985 6.1854 20.229 6.04678 20.1285C5.90816 20.0279 5.8777 19.8337 5.97824 19.6951Z" fill="#E6E7E8"/>
<path d="M6.0148 19.6722C6.11534 19.5336 6.30956 19.5031 6.44818 19.6037C6.5868 19.7042 6.61728 19.8984 6.51674 20.0363C6.4162 20.1749 6.22196 20.2054 6.08334 20.1049C5.94472 20.0043 5.91426 19.8101 6.0148 19.6715V19.6722Z" fill="#898989"/>
<path d="M7.32259 20.5047C7.40028 20.3524 7.58689 20.2915 7.73998 20.3692C7.89232 20.4468 7.95325 20.6334 7.87556 20.7865C7.79787 20.9389 7.61127 20.9998 7.45817 20.9221C7.30584 20.8444 7.24491 20.6578 7.32259 20.5055V20.5047Z" fill="#474747"/>
<path d="M7.25784 20.5611C7.33553 20.4088 7.52214 20.3478 7.67523 20.4255C7.82756 20.5032 7.8885 20.6898 7.81081 20.8429C7.73312 20.9952 7.54649 21.0562 7.3934 20.9785C7.24107 20.9008 7.18015 20.7142 7.25784 20.5611Z" fill="#E6E7E8"/>
<path d="M7.28982 20.5329C7.36751 20.3806 7.55411 20.3196 7.70721 20.3973C7.85954 20.475 7.92048 20.6616 7.84279 20.8147C7.7651 20.9671 7.57849 21.028 7.4254 20.9503C7.27306 20.8726 7.21213 20.686 7.28982 20.5337V20.5329Z" fill="#898989"/>
<path d="M8.7118 21.1506C8.76512 20.9876 8.93955 20.8985 9.10254 20.9518C9.26554 21.0044 9.35464 21.1796 9.30133 21.3426C9.24877 21.5056 9.0736 21.5947 8.9106 21.5413C8.74761 21.4888 8.65848 21.3136 8.7118 21.1506Z" fill="#474747"/>
<path d="M8.65699 21.2161C8.70955 21.0531 8.88474 20.964 9.04773 21.0173C9.21073 21.0706 9.29983 21.2451 9.24652 21.4081C9.1932 21.5711 9.01879 21.6602 8.85579 21.6069C8.6928 21.5535 8.60367 21.3784 8.65699 21.2161Z" fill="#E6E7E8"/>
<path d="M8.6844 21.1834C8.73695 21.0204 8.91213 20.9313 9.07512 20.9846C9.23812 21.0379 9.32724 21.2123 9.27392 21.3753C9.22061 21.5383 9.04618 21.6274 8.88318 21.5741C8.72019 21.5215 8.63108 21.3464 8.6844 21.1834Z" fill="#898989"/>
<path d="M10.1849 21.5711C10.2115 21.402 10.3707 21.2869 10.5398 21.3136C10.7089 21.3403 10.8247 21.4995 10.7972 21.6685C10.7706 21.8376 10.6114 21.9526 10.4423 21.926C10.2732 21.8993 10.1574 21.7401 10.1849 21.5711Z" fill="#474747"/>
<path d="M10.1415 21.6442C10.1681 21.4751 10.3273 21.3593 10.4964 21.386C10.6655 21.4126 10.7813 21.5718 10.7539 21.7409C10.7272 21.91 10.568 22.0258 10.3989 21.9984C10.2298 21.9717 10.1141 21.8125 10.1415 21.6434V21.6442Z" fill="#E6E7E8"/>
<path d="M10.1636 21.6076C10.1902 21.4385 10.3494 21.3227 10.5185 21.3502C10.6876 21.3768 10.8026 21.536 10.7759 21.7051C10.7493 21.8742 10.5901 21.99 10.421 21.9625C10.2519 21.9359 10.1369 21.7767 10.1636 21.6076Z" fill="#898989"/>
<path d="M11.706 21.7554C11.706 21.584 11.8454 21.4454 12.016 21.4454C12.1874 21.4454 12.326 21.584 12.326 21.7554C12.326 21.9267 12.1874 22.0654 12.016 22.0654C11.8446 22.0654 11.706 21.9267 11.706 21.7554Z" fill="#474747"/>
<path d="M11.6747 21.8354C11.6747 21.664 11.8134 21.5254 11.9847 21.5254C12.1561 21.5254 12.2947 21.664 12.2947 21.8354C12.2947 22.0067 12.1553 22.1453 11.9847 22.1453C11.8134 22.1453 11.6747 22.006 11.6747 21.8354Z" fill="#E6E7E8"/>
<path d="M11.6907 21.795C11.6907 21.6236 11.8294 21.485 12.0007 21.485C12.1721 21.485 12.3107 21.6236 12.3107 21.795C12.3107 21.9664 12.1721 22.105 12.0007 22.105C11.8294 22.105 11.6907 21.9664 11.6907 21.795Z" fill="#898989"/>
<path d="M13.2376 21.6998C13.211 21.5307 13.3268 21.3723 13.4958 21.3448C13.6649 21.3182 13.8241 21.4332 13.8508 21.603C13.8774 21.7721 13.7624 21.9313 13.5933 21.958C13.4242 21.9846 13.2651 21.8696 13.2384 21.7005L13.2376 21.6998Z" fill="#474747"/>
<path d="M13.2186 21.7836C13.192 21.6145 13.307 21.4553 13.4761 21.4286C13.6451 21.402 13.8043 21.517 13.831 21.6868C13.8576 21.8559 13.7419 22.0151 13.5735 22.0418C13.4045 22.0684 13.2453 21.9526 13.2186 21.7843V21.7836Z" fill="#E6E7E8"/>
<path d="M13.2278 21.7417C13.2011 21.5726 13.3161 21.4134 13.4852 21.3867C13.6543 21.3601 13.8135 21.4751 13.8402 21.6442C13.8668 21.8133 13.7518 21.9724 13.5827 21.9991C13.4136 22.0258 13.2544 21.9107 13.2278 21.7409V21.7417Z" fill="#898989"/>
<path d="M14.7412 21.4058C14.6886 21.2428 14.7777 21.0683 14.9407 21.015C15.1037 20.9625 15.2789 21.0516 15.3314 21.2138C15.3848 21.3768 15.2956 21.5512 15.1319 21.6046C14.9689 21.6571 14.7937 21.568 14.7412 21.4058Z" fill="#474747"/>
<path d="M14.7358 21.4918C14.6825 21.3288 14.7724 21.1537 14.9346 21.1011C15.0976 21.0478 15.2728 21.1369 15.3254 21.2999C15.3779 21.4629 15.2888 21.6381 15.1258 21.6906C14.9628 21.7439 14.7876 21.6541 14.7351 21.4918H14.7358Z" fill="#E6E7E8"/>
<path d="M14.7381 21.4484C14.6856 21.2854 14.7739 21.1102 14.9369 21.0577C15.0999 21.0051 15.2743 21.0935 15.3276 21.2565C15.3802 21.4195 15.2911 21.5947 15.1288 21.6472C14.9659 21.7005 14.7914 21.6107 14.7381 21.4484Z" fill="#898989"/>
<path d="M16.18 20.8802C16.1023 20.7279 16.1632 20.5405 16.3155 20.4628C16.4679 20.3851 16.6552 20.4461 16.7329 20.5984C16.8106 20.7515 16.7497 20.9381 16.5973 21.0158C16.445 21.0935 16.2584 21.0325 16.18 20.8802Z" fill="#474747"/>
<path d="M16.1883 20.9655C16.1107 20.8132 16.1708 20.6258 16.3239 20.5481C16.4762 20.4704 16.6636 20.5306 16.7413 20.6837C16.819 20.836 16.7581 21.0226 16.6057 21.1011C16.4534 21.1788 16.266 21.1178 16.1883 20.9655Z" fill="#E6E7E8"/>
<path d="M16.1845 20.9229C16.1068 20.7705 16.1678 20.5832 16.3201 20.5062C16.4724 20.4285 16.659 20.4887 16.7367 20.6418C16.8144 20.7941 16.7535 20.9815 16.6012 21.0592C16.4488 21.1369 16.2622 21.076 16.1838 20.9236L16.1845 20.9229Z" fill="#898989"/>
<path d="M17.5197 20.1353C17.4192 19.9967 17.4504 19.8025 17.5882 19.7019C17.7269 19.6014 17.9203 19.6319 18.0216 19.7705C18.1222 19.9091 18.0917 20.1026 17.9531 20.2039C17.8145 20.3044 17.621 20.2739 17.5197 20.1353Z" fill="#474747"/>
<path d="M17.5403 20.2183C17.4398 20.0797 17.4702 19.8855 17.6089 19.785C17.7475 19.6844 17.9417 19.7149 18.0422 19.8535C18.1428 19.9921 18.1123 20.1864 17.9737 20.2869C17.8351 20.3874 17.6409 20.3562 17.5403 20.2183Z" fill="#E6E7E8"/>
<path d="M17.5304 20.1764C17.4298 20.0378 17.4603 19.8444 17.5989 19.7431C17.7375 19.6425 17.931 19.673 18.0315 19.8116C18.1321 19.9502 18.1016 20.1445 17.963 20.245C17.8244 20.3455 17.6301 20.3151 17.5296 20.1764H17.5304Z" fill="#898989"/>
<path d="M18.7255 19.1901C18.6044 19.069 18.6044 18.8725 18.7255 18.7514C18.8466 18.6303 19.0431 18.6303 19.1642 18.7514C19.2853 18.8725 19.2853 19.069 19.1642 19.1901C19.0431 19.3112 18.8466 19.3112 18.7255 19.1901Z" fill="#474747"/>
<path d="M18.7598 19.2693C18.6387 19.1482 18.6387 18.9517 18.7598 18.8306C18.8809 18.7095 19.0774 18.7095 19.1985 18.8306C19.3196 18.9517 19.3196 19.1482 19.1985 19.2693C19.0774 19.3904 18.8809 19.3904 18.7598 19.2693Z" fill="#E6E7E8"/>
<path d="M18.743 19.2297C18.6219 19.1086 18.6219 18.9121 18.743 18.791C18.8641 18.6699 19.0606 18.6699 19.1817 18.791C19.3028 18.9121 19.3028 19.1086 19.1817 19.2297C19.0606 19.3508 18.8641 19.3508 18.743 19.2297Z" fill="#898989"/>
<path d="M19.7689 18.0682C19.6303 17.9676 19.5998 17.7734 19.7003 17.6348C19.8009 17.4962 19.9951 17.4657 20.1337 17.5662C20.2723 17.6668 20.3028 17.861 20.2023 17.9996C20.1017 18.1382 19.9075 18.1687 19.7689 18.0682Z" fill="#474747"/>
<path d="M19.8153 18.1413C19.6767 18.0408 19.6463 17.8465 19.7468 17.7079C19.8473 17.5693 20.0416 17.5388 20.1802 17.6394C20.3188 17.7399 20.3493 17.9341 20.2487 18.0727C20.1482 18.2114 19.954 18.2418 19.8153 18.1413Z" fill="#E6E7E8"/>
<path d="M19.7917 18.1047C19.6531 18.0042 19.6226 17.81 19.7232 17.6713C19.8237 17.5327 20.0172 17.5023 20.1558 17.6028C20.2944 17.7033 20.3249 17.8976 20.2244 18.0362C20.1238 18.1748 19.9296 18.2053 19.791 18.1047H19.7917Z" fill="#898989"/>
<path d="M20.6242 16.797C20.4719 16.7193 20.411 16.5327 20.4887 16.3803C20.5664 16.228 20.753 16.1671 20.9061 16.2447C21.0584 16.3224 21.1193 16.509 21.0416 16.6621C20.9639 16.8145 20.7773 16.8754 20.625 16.7977L20.6242 16.797Z" fill="#474747"/>
<path d="M20.6806 16.8617C20.5275 16.784 20.4673 16.5974 20.545 16.4443C20.6227 16.292 20.8093 16.231 20.9624 16.3087C21.1147 16.3864 21.1757 16.573 21.098 16.7261C21.0203 16.8784 20.8337 16.9394 20.6806 16.8617Z" fill="#E6E7E8"/>
<path d="M20.6524 16.8297C20.5001 16.752 20.4392 16.5654 20.5169 16.4123C20.5946 16.26 20.7812 16.199 20.9335 16.2767C21.0858 16.3544 21.1468 16.5418 21.0691 16.6941C20.9914 16.8465 20.8048 16.9074 20.6517 16.8297H20.6524Z" fill="#898989"/>
<path d="M21.2702 15.4077C21.1072 15.3551 21.018 15.1799 21.0714 15.0169C21.1247 14.854 21.2991 14.7648 21.4621 14.8182C21.6251 14.8707 21.7142 15.0459 21.6609 15.2089C21.6083 15.3719 21.4332 15.461 21.2702 15.4077Z" fill="#474747"/>
<path d="M21.3364 15.4625C21.1734 15.4092 21.0843 15.2348 21.1376 15.0718C21.1902 14.9088 21.3654 14.8197 21.5284 14.873C21.6914 14.9263 21.7805 15.1007 21.7272 15.2637C21.6739 15.4267 21.4994 15.5158 21.3364 15.4633V15.4625Z" fill="#E6E7E8"/>
<path d="M21.3029 15.4351C21.1407 15.3818 21.0508 15.2074 21.1041 15.0444C21.1567 14.8814 21.3319 14.7923 21.4949 14.8456C21.6579 14.8989 21.747 15.0733 21.6937 15.2363C21.6411 15.3993 21.4659 15.4884 21.3029 15.4351Z" fill="#898989"/>
<path d="M21.6906 13.9346C21.5215 13.908 21.4065 13.7488 21.4332 13.5797C21.4598 13.4106 21.619 13.2956 21.7881 13.3222C21.9572 13.3489 22.0722 13.5081 22.0455 13.6772C22.0189 13.8463 21.8597 13.9613 21.6906 13.9346Z" fill="#474747"/>
<path d="M21.7645 13.978C21.5954 13.9514 21.4796 13.7922 21.507 13.6231C21.5337 13.454 21.6929 13.3382 21.862 13.3657C22.031 13.3923 22.1468 13.5515 22.1202 13.7206C22.0935 13.8897 21.9343 14.0054 21.7652 13.9788L21.7645 13.978Z" fill="#E6E7E8"/>
<path d="M21.7272 13.9559C21.5581 13.9293 21.4423 13.7701 21.4697 13.601C21.4964 13.4319 21.6548 13.3169 21.8247 13.3436C21.9938 13.3702 22.1095 13.5294 22.0821 13.6985C22.0554 13.8676 21.8963 13.9834 21.7272 13.9559Z" fill="#898989"/>
<path d="M21.8749 12.4136C21.7036 12.4136 21.5649 12.2742 21.5649 12.1036C21.5649 11.9322 21.7036 11.7936 21.8749 11.7936C22.0463 11.7936 22.1849 11.9322 22.1849 12.1036C22.1849 12.2742 22.0463 12.4136 21.8749 12.4136Z" fill="#474747"/>
<path d="M21.9549 12.4448C21.7835 12.4448 21.6449 12.3054 21.6449 12.1348C21.6449 11.9634 21.7835 11.8248 21.9549 11.8248C22.1263 11.8248 22.2649 11.9634 22.2649 12.1348C22.2649 12.3062 22.1255 12.4448 21.9549 12.4448Z" fill="#E6E7E8"/>
<path d="M21.9153 12.4288C21.7439 12.4288 21.6053 12.2902 21.6053 12.1188C21.6053 11.9474 21.7439 11.8088 21.9153 11.8088C22.0867 11.8088 22.2253 11.9482 22.2253 12.1188C22.2253 12.2902 22.0867 12.4288 21.9153 12.4288Z" fill="#898989"/>
<path d="M21.8201 10.8819C21.651 10.9085 21.4926 10.7928 21.4651 10.6237C21.4385 10.4546 21.5535 10.2954 21.7226 10.2687C21.8917 10.2421 22.0509 10.3571 22.0775 10.5269C22.1042 10.696 21.9892 10.8545 21.8201 10.8819Z" fill="#474747"/>
<path d="M21.9039 10.9009C21.7348 10.9276 21.5756 10.8118 21.5489 10.6427C21.5223 10.4736 21.6373 10.3144 21.8064 10.2878C21.9755 10.2611 22.1347 10.3761 22.1613 10.5452C22.188 10.7143 22.0722 10.8735 21.9039 10.9002V10.9009Z" fill="#E6E7E8"/>
<path d="M21.862 10.8918C21.6929 10.9184 21.5337 10.8034 21.507 10.6336C21.4804 10.4645 21.5954 10.3061 21.7645 10.2786C21.9336 10.252 22.0927 10.367 22.1194 10.5361C22.146 10.7052 22.031 10.8644 21.862 10.891V10.8918Z" fill="#898989"/>
<path d="M21.5253 9.37836C21.3623 9.43167 21.1879 9.3418 21.1346 9.17956C21.0813 9.01657 21.1711 8.84215 21.3334 8.78883C21.4964 8.73627 21.6708 8.82539 21.7241 8.98838C21.7767 9.15138 21.6875 9.3258 21.5245 9.37912L21.5253 9.37836Z" fill="#474747"/>
<path d="M21.6114 9.38369C21.4484 9.437 21.2732 9.34713 21.2207 9.18413C21.1673 9.02113 21.2565 8.84671 21.4195 8.7934C21.5824 8.74084 21.7576 8.82996 21.8102 8.99219C21.8635 9.15519 21.7736 9.33037 21.6114 9.38292V9.38369Z" fill="#E6E7E8"/>
<path d="M21.5687 9.38141C21.4057 9.43397 21.2313 9.34485 21.178 9.18186C21.1247 9.01886 21.2138 8.84444 21.3768 8.79112C21.5398 8.73857 21.715 8.82768 21.7675 8.98992C21.8208 9.15291 21.7309 9.3281 21.5687 9.38065V9.38141Z" fill="#898989"/>
<path d="M20.9998 7.93957C20.8474 8.01726 20.6608 7.95633 20.5824 7.804C20.5047 7.65166 20.5656 7.4643 20.7179 7.38661C20.8703 7.30892 21.0569 7.36985 21.1353 7.52218C21.213 7.67451 21.1521 7.86112 20.9998 7.93957Z" fill="#474747"/>
<path d="M21.085 7.93119C20.9319 8.00888 20.7453 7.94795 20.6676 7.79562C20.59 7.64329 20.6501 7.45668 20.8032 7.37823C20.9556 7.30054 21.1429 7.36147 21.2206 7.5138C21.2983 7.66614 21.2374 7.8535 21.085 7.93119Z" fill="#E6E7E8"/>
<path d="M21.0424 7.935C20.8901 8.01269 20.7035 7.95175 20.625 7.79942C20.5473 7.64709 20.6083 7.46048 20.7606 7.38279C20.9129 7.3051 21.1003 7.36603 21.178 7.51836C21.2557 7.6707 21.1948 7.85806 21.0424 7.93575V7.935Z" fill="#898989"/>
<path d="M20.2549 6.5998C20.1163 6.70034 19.922 6.66911 19.8215 6.53125C19.721 6.39263 19.7514 6.1984 19.89 6.09786C20.0287 5.99732 20.2221 6.02779 20.3234 6.16642C20.424 6.30504 20.3935 6.4985 20.2549 6.5998Z" fill="#474747"/>
<path d="M20.3386 6.57923C20.2 6.67977 20.0058 6.64931 19.9052 6.51068C19.8047 6.37206 19.8352 6.1786 19.9738 6.0773C20.1124 5.97676 20.3066 6.00722 20.4072 6.14584C20.5077 6.28447 20.4773 6.47869 20.3386 6.57923Z" fill="#E6E7E8"/>
<path d="M20.2968 6.58913C20.1581 6.68967 19.9647 6.65921 19.8634 6.52059C19.7628 6.38196 19.7933 6.1885 19.9319 6.08796C20.0705 5.98742 20.2648 6.01789 20.3653 6.15651C20.4658 6.29513 20.4354 6.48859 20.2968 6.5899V6.58913Z" fill="#898989"/>
<path d="M19.3104 5.39409C19.1893 5.5152 18.9928 5.5152 18.8717 5.39409C18.7506 5.27299 18.7506 5.07648 18.8717 4.95538C18.9928 4.83427 19.1893 4.83427 19.3104 4.95538C19.4315 5.07648 19.4315 5.27299 19.3104 5.39409Z" fill="#474747"/>
<path d="M19.3889 5.35982C19.2678 5.48093 19.0712 5.48093 18.9501 5.35982C18.829 5.23872 18.829 5.04221 18.9501 4.9211C19.0712 4.8 19.2678 4.8 19.3889 4.9211C19.51 5.04221 19.51 5.23872 19.3889 5.35982Z" fill="#E6E7E8"/>
<path d="M19.3493 5.37658C19.2281 5.49768 19.0316 5.49768 18.9105 5.37658C18.7894 5.25547 18.7894 5.05973 18.9105 4.93786C19.0316 4.81675 19.2281 4.81675 19.3493 4.93786C19.4704 5.05896 19.4704 5.25547 19.3493 5.37658Z" fill="#898989"/>
<path d="M18.1885 4.35062C18.088 4.48924 17.8937 4.51971 17.7551 4.41917C17.6165 4.31863 17.586 4.1244 17.6866 3.98578C17.7871 3.84716 17.9805 3.81669 18.1199 3.91723C18.2586 4.01777 18.289 4.212 18.1885 4.35062Z" fill="#474747"/>
<path d="M18.2608 4.30492C18.1603 4.44354 17.9661 4.47401 17.8274 4.37347C17.6888 4.27293 17.6583 4.0787 17.7589 3.94008C17.8594 3.80146 18.0536 3.77099 18.1923 3.87153C18.3309 3.97207 18.3614 4.16629 18.2608 4.30492Z" fill="#E6E7E8"/>
<path d="M18.2243 4.32778C18.1238 4.4664 17.9295 4.49686 17.7909 4.39632C17.6523 4.29578 17.6218 4.10232 17.7224 3.96294C17.8229 3.82432 18.0171 3.79385 18.1558 3.89439C18.2944 3.99493 18.3249 4.18915 18.2243 4.32778Z" fill="#898989"/>
<path d="M16.9172 3.49526C16.8396 3.6476 16.653 3.70853 16.4999 3.63084C16.3475 3.55315 16.2866 3.36654 16.3643 3.21345C16.442 3.06112 16.6286 3.00019 16.7817 3.07787C16.934 3.15556 16.9949 3.34217 16.9172 3.49526Z" fill="#474747"/>
<path d="M16.9812 3.4389C16.9035 3.592 16.7162 3.65217 16.5638 3.57448C16.4115 3.49679 16.3506 3.31018 16.4282 3.15708C16.5059 3.00475 16.6925 2.94382 16.8456 3.02151C16.998 3.0992 17.0589 3.28657 16.9812 3.4389Z" fill="#E6E7E8"/>
<path d="M16.9493 3.46708C16.8716 3.61942 16.685 3.68035 16.5326 3.60266C16.3803 3.52497 16.3194 3.33836 16.3971 3.18603C16.4747 3.0337 16.6614 2.97276 16.8144 3.05045C16.9668 3.12814 17.0277 3.31475 16.95 3.46785L16.9493 3.46708Z" fill="#898989"/>
<path d="M15.5272 2.84938C15.4746 3.01237 15.2995 3.10149 15.1365 3.04817C14.9735 2.99561 14.8843 2.82043 14.9369 2.65744C14.9902 2.49444 15.1646 2.40533 15.3276 2.45864C15.4899 2.5112 15.5797 2.68638 15.5264 2.84938H15.5272Z" fill="#474747"/>
<path d="M15.582 2.78311C15.5287 2.9461 15.3535 3.03522 15.1913 2.9819C15.0283 2.92935 14.9392 2.75416 14.9925 2.59117C15.0451 2.42817 15.2202 2.33906 15.3832 2.39237C15.5462 2.44493 15.6353 2.62087 15.5828 2.78311H15.582Z" fill="#E6E7E8"/>
<path d="M15.5546 2.81662C15.5013 2.97961 15.3269 3.06873 15.1639 3.01541C15.0009 2.96285 14.9118 2.78767 14.9651 2.62468C15.0184 2.46168 15.1928 2.37257 15.3558 2.42588C15.5188 2.47844 15.6079 2.65362 15.5546 2.81662Z" fill="#898989"/>
<path d="M14.0541 2.42895C14.0275 2.59804 13.8683 2.71305 13.6992 2.68639C13.5301 2.65973 13.4143 2.50054 13.4418 2.33145C13.4684 2.16236 13.6268 2.04736 13.7967 2.07401C13.9658 2.10067 14.0808 2.25986 14.0541 2.42895Z" fill="#474747"/>
<path d="M14.0975 2.35506C14.0709 2.52415 13.9117 2.63993 13.7426 2.61251C13.5735 2.58585 13.4577 2.42666 13.4852 2.25757C13.5118 2.08848 13.671 1.97347 13.8401 2.00013C14.0092 2.02679 14.1249 2.18597 14.0983 2.35506H14.0975Z" fill="#E6E7E8"/>
<path d="M14.0762 2.39239C14.0496 2.56148 13.8904 2.67649 13.7213 2.64983C13.5522 2.62317 13.4372 2.46475 13.4639 2.2949C13.4905 2.12581 13.6497 2.01003 13.8188 2.03745C13.9879 2.06411 14.1037 2.2233 14.0762 2.39239Z" fill="#898989"/>
<path d="M15.1014 9.56497C15.0847 9.59544 15.0961 9.63352 15.1265 9.65028C15.6848 9.95418 16.1259 10.2863 16.461 10.5886C16.493 10.6176 16.4838 10.6717 16.4435 10.6869C16.4435 10.6869 16.4435 10.6869 16.4427 10.6869C16.2904 10.7433 16.1388 10.7257 15.9872 10.6869C15.6833 10.6085 15.4084 10.4622 15.1326 10.319C14.6741 10.0806 14.2232 9.82699 13.7327 9.65714C13.6139 9.61601 13.4928 9.57868 13.3717 9.54593C13.3473 9.53908 13.3047 9.55126 13.2871 9.57031C12.7593 10.169 12.073 10.4508 11.3022 10.5597C10.6388 10.6542 9.97924 10.6145 9.32421 10.4828C9.31659 10.4813 9.30973 10.4774 9.28612 10.4691C9.32497 10.4546 9.35162 10.4447 9.37828 10.4348C9.78958 10.2863 10.1636 10.0776 10.4751 9.76529C10.7104 9.52918 10.878 9.25345 10.9534 8.92594C10.9603 8.89623 10.9641 8.86577 10.9717 8.82311C10.7988 8.82007 10.6327 8.81474 10.4675 8.81398C9.68523 8.81169 8.91138 8.88633 8.15733 9.10493C7.32712 9.34638 6.58375 9.73711 5.99803 10.3883C5.47401 10.9718 5.15563 11.6504 5.10003 12.4403C5.09089 12.5728 5.10307 12.7076 5.11526 12.8401C5.13811 13.0762 5.26912 13.2453 5.48315 13.3337C5.72231 13.4327 5.96908 13.5142 6.21586 13.5949C6.54261 13.7023 6.86098 13.8219 7.12756 14.0481C7.43985 14.3117 7.61808 14.7283 7.63179 15.1365C7.47794 14.8578 7.21516 14.7778 6.93867 14.7389C6.65153 14.6986 6.36058 14.6826 6.07191 14.6529C5.98736 14.6445 5.90358 14.6323 5.82056 14.6156C5.69412 14.5889 5.57301 14.547 5.47171 14.4465C5.46638 14.5158 5.4679 14.579 5.45572 14.6399C5.42906 14.777 5.35594 14.8928 5.26988 14.9994C5.18076 15.1091 5.0886 15.2158 4.99872 15.3247C4.70091 15.6842 4.55849 15.9919 4.66512 16.4984C4.592 16.3994 4.51659 16.3026 4.44728 16.2006C4.10377 15.6986 4.04817 15.1601 4.24544 14.5904C4.32237 14.3673 4.40082 14.1441 4.47318 13.9186C4.60038 13.5226 4.59199 13.1273 4.4427 12.7396C4.11519 11.888 4.07939 11.0159 4.28961 10.1393C4.72071 8.33641 5.77029 6.98979 7.36597 6.06285C7.8283 5.79474 8.32719 5.60661 8.84664 5.47865C8.87178 5.47256 8.89691 5.46647 8.92128 5.45885C8.92585 5.45809 8.92967 5.45352 8.9449 5.44362C8.58387 4.83809 8.04995 4.44355 7.43072 4.13356C7.60362 4.12594 7.77574 4.11223 7.94864 4.11071C8.5892 4.10538 9.21376 4.20515 9.817 4.42451C10.3639 4.62407 10.8559 4.91579 11.2847 5.31337C11.319 5.34536 11.3708 5.36973 11.418 5.37583C12.2467 5.49693 13.032 5.74143 13.7411 6.1969C14.7419 6.83975 15.4061 7.74231 15.7664 8.86958C15.8433 9.11026 15.9552 9.32201 16.1076 9.51928C16.2439 9.69598 16.3757 9.87649 16.5006 10.0608C16.557 10.1438 16.5989 10.236 16.627 10.332V10.3343C16.6537 10.4226 16.5486 10.4896 16.4793 10.4295C16.1472 10.1393 15.7206 9.82622 15.186 9.53527C15.1555 9.51851 15.1167 9.52994 15.1007 9.56117L15.1014 9.56497Z" fill="#292929"/>
<path d="M15.0527 9.46138C15.0359 9.49185 15.0473 9.52993 15.0778 9.54669C15.6361 9.85059 16.0771 10.1827 16.4122 10.4851C16.4442 10.514 16.4351 10.5681 16.3947 10.5833C16.3947 10.5833 16.3947 10.5833 16.394 10.5833C16.2416 10.6397 16.09 10.6222 15.9385 10.5833C15.6346 10.5049 15.3596 10.3586 15.0839 10.2154C14.6254 9.97703 14.1745 9.7234 13.6839 9.55355C13.5651 9.51242 13.444 9.47509 13.3229 9.44234C13.2985 9.43549 13.2559 9.44768 13.2384 9.46672C12.7106 10.0654 12.0243 10.3472 11.2535 10.4561C10.5901 10.5506 9.93048 10.511 9.27545 10.3792C9.26784 10.3777 9.26098 10.3739 9.23737 10.3655C9.27621 10.351 9.30287 10.3411 9.32953 10.3312C9.74082 10.1827 10.1148 9.97398 10.4263 9.6617C10.6617 9.42559 10.8292 9.14986 10.9046 8.82235C10.9115 8.79264 10.9153 8.76218 10.9229 8.71953C10.75 8.71648 10.584 8.71115 10.4187 8.71039C9.63648 8.7081 8.86263 8.78274 8.10858 9.00134C7.27837 9.24279 6.53498 9.63352 5.94926 10.2847C5.42523 10.8682 5.10686 11.5468 5.05125 12.3367C5.04211 12.4692 5.05432 12.604 5.0665 12.7365C5.08935 12.9727 5.22035 13.1417 5.43437 13.2301C5.67353 13.3291 5.92032 13.4106 6.1671 13.4913C6.49385 13.5987 6.81223 13.7183 7.07881 13.9445C7.39109 14.2081 7.56933 14.6247 7.58304 15.033C7.42918 14.7542 7.1664 14.6742 6.88992 14.6354C6.60277 14.595 6.31181 14.579 6.02314 14.5493C5.93859 14.5409 5.85482 14.5287 5.7718 14.512C5.64537 14.4853 5.52426 14.4434 5.42295 14.3429C5.41762 14.4122 5.41915 14.4754 5.40696 14.5363C5.3803 14.6734 5.30719 14.7892 5.22112 14.8958C5.13201 15.0055 5.03984 15.1122 4.94997 15.2211C4.65215 15.5806 4.50971 15.8883 4.61635 16.3948C4.54323 16.2958 4.46783 16.1991 4.39852 16.097C4.05501 15.5951 3.9994 15.0566 4.19667 14.4868C4.2736 14.2637 4.35205 14.0405 4.42441 13.815C4.5516 13.419 4.54323 13.0237 4.39395 12.636C4.06643 11.7845 4.03063 10.9124 4.24085 10.0357C4.67195 8.23282 5.72152 6.8862 7.3172 5.95926C7.77953 5.69115 8.27843 5.50302 8.79789 5.37506C8.82302 5.36897 8.84816 5.36288 8.87253 5.35526C8.8771 5.3545 8.88091 5.34993 8.89614 5.34003C8.53512 4.7345 8.00118 4.33996 7.38195 4.02997C7.55485 4.02235 7.72699 4.00864 7.89988 4.00711C8.54044 4.00178 9.16501 4.10156 9.76825 4.32092C10.3151 4.52048 10.8072 4.81219 11.236 5.20978C11.2702 5.24177 11.322 5.26614 11.3693 5.27224C12.198 5.39334 12.9832 5.63783 13.6923 6.09331C14.6932 6.73615 15.3573 7.63872 15.7176 8.76599C15.7945 9.00667 15.9065 9.21842 16.0588 9.41569C16.1951 9.59239 16.3269 9.77291 16.4518 9.95723C16.5082 10.0402 16.5501 10.1324 16.5783 10.2284V10.2307C16.6049 10.319 16.4998 10.386 16.4305 10.3259C16.0984 10.0357 15.6719 9.72263 15.1372 9.43168C15.1067 9.41492 15.0679 9.42635 15.0519 9.45758L15.0527 9.46138Z" fill="url(#paint3_radial_68_39374)"/>
<g opacity="0.69">
<path d="M15.0527 9.46138C15.0359 9.49185 15.0473 9.52993 15.0778 9.54669C15.6361 9.85059 16.0771 10.1827 16.4122 10.4851C16.4442 10.514 16.4351 10.5681 16.3947 10.5833C16.3947 10.5833 16.3947 10.5833 16.394 10.5833C16.2416 10.6397 16.09 10.6222 15.9385 10.5833C15.6346 10.5049 15.3596 10.3586 15.0839 10.2154C14.6254 9.97703 14.1745 9.7234 13.6839 9.55355C13.5651 9.51242 13.444 9.47509 13.3229 9.44234C13.2985 9.43549 13.2559 9.44768 13.2384 9.46672C12.7106 10.0654 12.0243 10.3472 11.2535 10.4561C10.5901 10.5506 9.93048 10.511 9.27545 10.3792C9.26784 10.3777 9.26098 10.3739 9.23737 10.3655C9.27621 10.351 9.30287 10.3411 9.32953 10.3312C9.74082 10.1827 10.1148 9.97398 10.4263 9.6617C10.6617 9.42559 10.8292 9.14986 10.9046 8.82235C10.9115 8.79264 10.9153 8.76218 10.9229 8.71953C10.75 8.71648 10.584 8.71115 10.4187 8.71039C9.63648 8.7081 8.86263 8.78274 8.10858 9.00134C7.27837 9.24279 6.53498 9.63352 5.94926 10.2847C5.42523 10.8682 5.10686 11.5468 5.05125 12.3367C5.04211 12.4692 5.05432 12.604 5.0665 12.7365C5.08935 12.9727 5.22035 13.1417 5.43437 13.2301C5.67353 13.3291 5.92032 13.4106 6.1671 13.4913C6.49385 13.5987 6.81223 13.7183 7.07881 13.9445C7.39109 14.2081 7.56933 14.6247 7.58304 15.033C7.42918 14.7542 7.1664 14.6742 6.88992 14.6354C6.60277 14.595 6.31181 14.579 6.02314 14.5493C5.93859 14.5409 5.85482 14.5287 5.7718 14.512C5.64537 14.4853 5.52426 14.4434 5.42295 14.3429C5.41762 14.4122 5.41915 14.4754 5.40696 14.5363C5.3803 14.6734 5.30719 14.7892 5.22112 14.8958C5.13201 15.0055 5.03984 15.1122 4.94997 15.2211C4.65215 15.5806 4.50971 15.8883 4.61635 16.3948C4.54323 16.2958 4.46783 16.1991 4.39852 16.097C4.05501 15.5951 3.9994 15.0566 4.19667 14.4868C4.2736 14.2637 4.35205 14.0405 4.42441 13.815C4.5516 13.419 4.54323 13.0237 4.39395 12.636C4.06643 11.7845 4.03063 10.9124 4.24085 10.0357C4.67195 8.23282 5.72152 6.8862 7.3172 5.95926C7.77953 5.69115 8.27843 5.50302 8.79789 5.37506C8.82302 5.36897 8.84816 5.36288 8.87253 5.35526C8.8771 5.3545 8.88091 5.34993 8.89614 5.34003C8.53512 4.7345 8.00118 4.33996 7.38195 4.02997C7.55485 4.02235 7.72699 4.00864 7.89988 4.00711C8.54044 4.00178 9.16501 4.10156 9.76825 4.32092C10.3151 4.52048 10.8072 4.81219 11.236 5.20978C11.2702 5.24177 11.322 5.26614 11.3693 5.27224C12.198 5.39334 12.9832 5.63783 13.6923 6.09331C14.6932 6.73615 15.3573 7.63872 15.7176 8.76599C15.7945 9.00667 15.9065 9.21842 16.0588 9.41569C16.1951 9.59239 16.3269 9.77291 16.4518 9.95723C16.5082 10.0402 16.5501 10.1324 16.5783 10.2284V10.2307C16.6049 10.319 16.4998 10.386 16.4305 10.3259C16.0984 10.0357 15.6719 9.72263 15.1372 9.43168C15.1067 9.41492 15.0679 9.42635 15.0519 9.45758L15.0527 9.46138Z" fill="#4A4A4A"/>
</g>
<path d="M9.5139 15.0627C9.52608 15.0299 9.50933 14.9941 9.47658 14.9819C8.88096 14.761 8.39729 14.4937 8.02179 14.2424C7.98599 14.218 7.98752 14.1631 8.02484 14.1426C8.02484 14.1426 8.02484 14.1426 8.0256 14.1426C8.16804 14.0656 8.32114 14.0603 8.47652 14.0778C8.7888 14.1121 9.08203 14.218 9.37527 14.3208C9.86273 14.4914 10.3456 14.6788 10.8552 14.777C10.9786 14.8006 11.1035 14.8205 11.2284 14.8364C11.2535 14.8395 11.2939 14.822 11.3084 14.8006C11.7463 14.1334 12.3854 13.7572 13.1333 13.5393C13.7769 13.352 14.435 13.2979 15.1022 13.3352C15.1098 13.3352 15.1167 13.3383 15.1418 13.3436C15.1053 13.3634 15.0801 13.3771 15.055 13.3901C14.6688 13.5949 14.3284 13.8554 14.0641 14.2081C13.8645 14.4754 13.7381 14.7725 13.7091 15.1068C13.7061 15.1373 13.7069 15.1678 13.7053 15.2112C13.8767 15.1899 14.042 15.1716 14.2057 15.1487C14.9804 15.0406 15.7359 14.8563 16.4511 14.5325C17.2387 14.1761 17.9196 13.6833 18.4063 12.9559C18.842 12.3039 19.0613 11.5864 19.0042 10.7973C18.9943 10.6648 18.9639 10.5331 18.9319 10.4036C18.8755 10.1728 18.7216 10.0243 18.4977 9.96714C18.2464 9.90316 17.9912 9.85746 17.736 9.81252C17.3971 9.75311 17.0658 9.67923 16.7687 9.49338C16.4222 9.27631 16.1868 8.88938 16.1152 8.48798C16.3072 8.74238 16.5791 8.78427 16.8578 8.78351C17.148 8.78275 17.4382 8.75761 17.7284 8.74543C17.813 8.74162 17.8983 8.74162 17.9828 8.74695C18.1115 8.75533 18.238 8.7797 18.3522 8.86501C18.3477 8.7957 18.337 8.73324 18.3408 8.67155C18.3477 8.53216 18.404 8.40725 18.4741 8.28919C18.5465 8.16809 18.6226 8.04927 18.6965 7.92816C18.9402 7.52981 19.0377 7.20458 18.8603 6.71864C18.9463 6.80623 19.0355 6.89154 19.1185 6.98218C19.5298 7.43004 19.6608 7.95482 19.5465 8.5474C19.5016 8.7797 19.4559 9.01125 19.4163 9.24508C19.347 9.65485 19.411 10.0456 19.6136 10.4081C20.0584 11.2041 20.2175 12.0625 20.1345 12.9605C19.9639 14.806 19.1162 16.2882 17.6675 17.4322C17.2478 17.7635 16.7809 18.0194 16.2851 18.2205C16.2615 18.2304 16.2371 18.2396 16.2135 18.2502C16.2089 18.2517 16.2059 18.2563 16.1929 18.2685C16.6362 18.8169 17.2204 19.1315 17.8777 19.3501C17.7079 19.3821 17.5388 19.4201 17.3682 19.446C16.7345 19.542 16.1023 19.5321 15.4747 19.4003C14.9049 19.28 14.3764 19.0614 13.8957 18.7285C13.8569 18.7019 13.8021 18.6851 13.7548 18.6851C12.917 18.6828 12.1051 18.5518 11.3388 18.2015C10.2573 17.7072 9.47124 16.9074 8.95483 15.8434C8.84515 15.6156 8.70349 15.4222 8.5245 15.2485C8.36455 15.0931 8.20842 14.9332 8.05837 14.7679C7.99058 14.694 7.93573 14.6087 7.8946 14.5173V14.515C7.85499 14.4312 7.9502 14.3497 8.02713 14.4C8.3973 14.6399 8.86343 14.8898 9.43392 15.1015C9.46667 15.1137 9.50323 15.0969 9.51542 15.0642L9.5139 15.0627Z" fill="#292929"/>
<path d="M9.46513 14.9591C9.47732 14.9263 9.46056 14.8905 9.42781 14.8783C8.83219 14.6575 8.34852 14.3901 7.97303 14.1388C7.93723 14.1144 7.93875 14.0595 7.97607 14.039C7.97607 14.039 7.97608 14.039 7.97684 14.039C8.11927 13.9621 8.27236 13.9567 8.42774 13.9742C8.74002 14.0085 9.03326 14.1144 9.3265 14.2172C9.81397 14.3878 10.2969 14.5752 10.8064 14.6734C10.9298 14.6971 11.0547 14.7169 11.1796 14.7329C11.2048 14.7359 11.2451 14.7184 11.2596 14.6971C11.6975 14.0298 12.3366 13.6536 13.0846 13.4357C13.7282 13.2484 14.3862 13.1943 15.0534 13.2316C15.0611 13.2316 15.0679 13.2347 15.093 13.24C15.0565 13.2598 15.0314 13.2735 15.0062 13.2865C14.6201 13.4913 14.2796 13.7518 14.0153 14.1045C13.8157 14.3718 13.6893 14.6689 13.6604 15.0032C13.6573 15.0337 13.6581 15.0642 13.6566 15.1076C13.8279 15.0863 13.9932 15.068 14.157 15.0451C14.9316 14.937 15.6871 14.7527 16.4023 14.4289C17.1899 14.0725 17.8708 13.5797 18.3575 12.8523C18.7932 12.2003 19.0126 11.4828 18.9554 10.6938C18.9455 10.5612 18.9151 10.4295 18.8831 10.3C18.8267 10.0692 18.6729 9.92067 18.4489 9.86354C18.1976 9.79956 17.9424 9.75386 17.6873 9.70893C17.3483 9.64952 17.017 9.57563 16.72 9.38979C16.3734 9.17272 16.1381 8.78579 16.0665 8.38439C16.2584 8.63879 16.5303 8.68068 16.8091 8.67992C17.0993 8.67916 17.3895 8.65402 17.6797 8.64184C17.7642 8.63803 17.8495 8.63803 17.9341 8.64336C18.0628 8.65174 18.1892 8.67611 18.3035 8.76142C18.2989 8.69211 18.2882 8.62965 18.292 8.56796C18.2989 8.42857 18.3553 8.30366 18.4253 8.1856C18.4977 8.0645 18.5738 7.94568 18.6477 7.82457C18.8915 7.42622 18.989 7.10099 18.8115 6.61505C18.8976 6.70264 18.9867 6.78795 19.0697 6.87858C19.481 7.32644 19.612 7.85123 19.4978 8.4438C19.4528 8.67611 19.4071 8.90766 19.3675 9.14149C19.2982 9.55126 19.3622 9.942 19.5648 10.3045C20.0096 11.1005 20.1688 11.9589 20.0858 12.8569C19.9151 14.7024 19.0674 16.1846 17.6187 17.3286C17.199 17.6599 16.7321 17.9158 16.2363 18.1169C16.2127 18.1268 16.1883 18.136 16.1647 18.1466C16.1601 18.1481 16.1571 18.1527 16.1441 18.1649C16.5874 18.7133 17.1716 19.0279 17.8289 19.2465C17.6591 19.2785 17.49 19.3165 17.3194 19.3424C16.6857 19.4384 16.0535 19.4285 15.4259 19.2967C14.8562 19.1764 14.3276 18.9578 13.847 18.625C13.8081 18.5983 13.7533 18.5815 13.7061 18.5815C12.8682 18.5793 12.0563 18.4482 11.2901 18.0979C10.2085 17.6036 9.42247 16.8038 8.90606 15.7398C8.79638 15.512 8.65472 15.3186 8.47573 15.1449C8.31578 14.9895 8.15963 14.8296 8.00958 14.6643C7.9418 14.5904 7.88696 14.5051 7.84583 14.4137V14.4114C7.80623 14.3277 7.90143 14.2462 7.97836 14.2964C8.34853 14.5363 8.81467 14.7862 9.38515 14.9979C9.4179 15.0101 9.45447 14.9933 9.46665 14.9606L9.46513 14.9591Z" fill="url(#paint4_radial_68_39374)"/>
<g opacity="0.69">
<path d="M9.46513 14.9591C9.47732 14.9263 9.46056 14.8905 9.42781 14.8783C8.83219 14.6575 8.34852 14.3901 7.97303 14.1388C7.93723 14.1144 7.93875 14.0595 7.97607 14.039C7.97607 14.039 7.97608 14.039 7.97684 14.039C8.11927 13.9621 8.27236 13.9567 8.42774 13.9742C8.74002 14.0085 9.03326 14.1144 9.3265 14.2172C9.81397 14.3878 10.2969 14.5752 10.8064 14.6734C10.9298 14.6971 11.0547 14.7169 11.1796 14.7329C11.2048 14.7359 11.2451 14.7184 11.2596 14.6971C11.6975 14.0298 12.3366 13.6536 13.0846 13.4357C13.7282 13.2484 14.3862 13.1943 15.0534 13.2316C15.0611 13.2316 15.0679 13.2347 15.093 13.24C15.0565 13.2598 15.0314 13.2735 15.0062 13.2865C14.6201 13.4913 14.2796 13.7518 14.0153 14.1045C13.8157 14.3718 13.6893 14.6689 13.6604 15.0032C13.6573 15.0337 13.6581 15.0642 13.6566 15.1076C13.8279 15.0863 13.9932 15.068 14.157 15.0451C14.9316 14.937 15.6871 14.7527 16.4023 14.4289C17.1899 14.0725 17.8708 13.5797 18.3575 12.8523C18.7932 12.2003 19.0126 11.4828 18.9554 10.6938C18.9455 10.5612 18.9151 10.4295 18.8831 10.3C18.8267 10.0692 18.6729 9.92067 18.4489 9.86354C18.1976 9.79956 17.9424 9.75386 17.6873 9.70893C17.3483 9.64952 17.017 9.57563 16.72 9.38979C16.3734 9.17272 16.1381 8.78579 16.0665 8.38439C16.2584 8.63879 16.5303 8.68068 16.8091 8.67992C17.0993 8.67916 17.3895 8.65402 17.6797 8.64184C17.7642 8.63803 17.8495 8.63803 17.9341 8.64336C18.0628 8.65174 18.1892 8.67611 18.3035 8.76142C18.2989 8.69211 18.2882 8.62965 18.292 8.56796C18.2989 8.42857 18.3553 8.30366 18.4253 8.1856C18.4977 8.0645 18.5738 7.94568 18.6477 7.82457C18.8915 7.42622 18.989 7.10099 18.8115 6.61505C18.8976 6.70264 18.9867 6.78795 19.0697 6.87858C19.481 7.32644 19.612 7.85123 19.4978 8.4438C19.4528 8.67611 19.4071 8.90766 19.3675 9.14149C19.2982 9.55126 19.3622 9.942 19.5648 10.3045C20.0096 11.1005 20.1688 11.9589 20.0858 12.8569C19.9151 14.7024 19.0674 16.1846 17.6187 17.3286C17.199 17.6599 16.7321 17.9158 16.2363 18.1169C16.2127 18.1268 16.1883 18.136 16.1647 18.1466C16.1601 18.1481 16.1571 18.1527 16.1441 18.1649C16.5874 18.7133 17.1716 19.0279 17.8289 19.2465C17.6591 19.2785 17.49 19.3165 17.3194 19.3424C16.6857 19.4384 16.0535 19.4285 15.4259 19.2967C14.8562 19.1764 14.3276 18.9578 13.847 18.625C13.8081 18.5983 13.7533 18.5815 13.7061 18.5815C12.8682 18.5793 12.0563 18.4482 11.2901 18.0979C10.2085 17.6036 9.42247 16.8038 8.90606 15.7398C8.79638 15.512 8.65472 15.3186 8.47573 15.1449C8.31578 14.9895 8.15963 14.8296 8.00958 14.6643C7.9418 14.5904 7.88696 14.5051 7.84583 14.4137V14.4114C7.80623 14.3277 7.90143 14.2462 7.97836 14.2964C8.34853 14.5363 8.81467 14.7862 9.38515 14.9979C9.4179 15.0101 9.45447 14.9933 9.46665 14.9606L9.46513 14.9591Z" fill="#4A4A4A"/>
</g>
<path d="M13.0777 11.8111L12.5917 11.3168L12.1401 10.8568H12.1393C12.1065 10.891 11.2413 11.7913 11.2405 11.7913C11.073 11.9657 10.9968 12.2399 11.0874 12.4661C11.0996 12.4981 11.1156 12.5286 11.1347 12.5575C11.1522 12.5842 11.172 12.6093 11.1933 12.6322C11.1941 12.6329 11.1948 12.6337 11.1964 12.6352C11.3327 12.783 11.5467 12.8622 11.7455 12.8493C11.9458 12.8363 12.1842 12.7122 12.2421 12.5057C12.2711 12.4029 12.2459 12.2948 12.201 12.2011C12.201 12.2011 12.1751 12.1287 12.102 12.0701C12.0289 12.0107 11.9077 11.9665 11.7158 12.0251L11.6244 12.0564L11.3792 12.1394C11.3388 12.1516 11.3007 12.1257 11.2901 12.0914C11.2832 12.0731 11.2847 12.0533 11.2969 12.0343C11.3137 12.0069 11.4165 11.9375 11.4668 11.9033C11.4668 11.9033 11.5193 11.8401 11.565 11.7715C11.6366 11.6634 11.744 11.5811 11.872 11.5529C11.9679 11.5323 12.0906 11.5339 12.2368 11.5887C12.3206 11.6199 12.412 11.6679 12.5118 11.7395C12.53 11.7525 12.5514 11.7616 12.5734 11.7631C12.6062 11.7654 12.6603 11.7753 12.7105 11.8126C12.7654 11.853 12.8157 11.9254 12.8286 12.0571C12.8286 12.0571 12.7319 11.9459 12.5765 11.9551C12.5734 11.9551 12.5712 11.9551 12.5681 11.9551C12.5681 11.9551 12.5742 11.9581 12.5849 11.965C12.6214 11.9909 12.7075 12.0731 12.6877 12.2643C12.6877 12.2643 12.6763 12.4601 12.4897 12.6421C12.4493 12.6825 12.4455 12.7396 12.4691 12.7822C12.4859 12.8135 12.5163 12.8363 12.5567 12.8416H12.559C12.8103 12.8736 13.0396 12.7198 13.1584 12.5057C13.2871 12.2734 13.2689 12.0061 13.0777 11.8119V11.8111ZM12.1423 11.0746L12.3076 11.2574L12.1462 11.4463L12.0997 11.3968L11.974 11.2635L12.1393 11.0776L12.1423 11.0746Z" fill="#292929"/>
<path d="M12.6108 13.2034C12.6108 13.2278 12.5918 13.2476 12.5674 13.2476L11.9314 13.2545C11.907 13.2545 11.8872 13.2354 11.8872 13.211C11.8872 13.1966 11.8948 13.1821 11.907 13.1737C11.9283 13.16 11.9588 13.1661 11.9824 13.1577C12.0045 13.1501 12.0243 13.1379 12.0418 13.1227C12.0784 13.0915 12.1043 13.0488 12.1271 13.0077C12.1378 12.9886 12.1469 12.9696 12.1576 12.9513C12.1919 12.8866 12.2239 12.8196 12.2505 12.751C12.2871 12.8607 12.3374 12.962 12.3983 13.0602C12.4219 13.0991 12.4569 13.1311 12.4996 13.1471C12.5209 13.1555 12.5438 13.1593 12.5666 13.1608C12.5895 13.1623 12.6093 13.1791 12.6093 13.2034H12.6108Z" fill="#292929"/>
<path d="M13.0296 11.7639L12.5909 11.3176L12.1393 10.8575L12.0921 10.8095C12.0921 10.8095 11.1933 11.7441 11.1925 11.7441C11.0097 11.9345 10.9351 12.2437 11.0684 12.4806C11.0737 12.4905 11.0798 12.5004 11.0867 12.5103C11.1164 12.5553 11.1522 12.5964 11.194 12.6322C11.1948 12.6329 11.1956 12.6337 11.1971 12.6352C11.3334 12.7518 11.5223 12.8135 11.6983 12.8013C11.8986 12.7883 12.137 12.6642 12.1949 12.4578C12.2238 12.3549 12.1987 12.2468 12.1537 12.1531C12.1537 12.1531 12.1393 12.1135 12.1035 12.0693C12.0486 12.0023 11.942 11.9254 11.7554 11.9558C11.7287 11.9604 11.6998 11.9673 11.6693 11.9764L11.3327 12.0906C11.3182 12.0952 11.3037 12.0945 11.2915 12.0906C11.2497 12.0777 11.223 12.0282 11.2496 11.9863C11.2664 11.9596 11.37 11.8896 11.4195 11.8553C11.4195 11.8553 11.4721 11.7921 11.5178 11.7235C11.5894 11.6154 11.6975 11.5331 11.8247 11.5049C11.9359 11.4813 12.0821 11.4866 12.2604 11.5704C12.3244 11.5994 12.3921 11.639 12.4645 11.6908C12.4828 11.7045 12.5041 11.7129 12.5262 11.7144C12.5704 11.7174 12.6519 11.7342 12.7113 11.8111C12.7448 11.8545 12.7722 11.9177 12.7806 12.0076C12.7806 12.0076 12.6808 11.8926 12.5209 11.9056C12.5209 11.9056 12.5483 11.9177 12.5772 11.9528C12.5803 11.9558 12.5826 11.9596 12.5856 11.9634C12.6206 12.0099 12.6534 12.0884 12.6404 12.2156C12.6404 12.2156 12.629 12.4113 12.4424 12.5933C12.383 12.6512 12.4028 12.7464 12.4698 12.7807C12.4813 12.7868 12.4942 12.7906 12.5087 12.7929H12.511C12.7631 12.8249 12.9916 12.671 13.1104 12.457C13.2391 12.2247 13.2208 11.9573 13.0296 11.7631V11.7639ZM12.0981 11.3983L11.926 11.2155L12.0943 11.0266L12.14 11.0769L12.2604 11.2086L12.1004 11.3952L12.0989 11.3968L12.0981 11.3983Z" fill="url(#paint5_radial_68_39374)"/>
<path d="M12.562 13.1562C12.562 13.1806 12.543 13.2004 12.5186 13.2004L11.8826 13.2072C11.8582 13.2072 11.8384 13.1882 11.8384 13.1638C11.8384 13.1494 11.8461 13.1349 11.8582 13.1265C11.8796 13.1128 11.91 13.1189 11.9336 13.1105C11.9557 13.1029 11.9755 13.0907 11.9931 13.0755C12.0296 13.0442 12.0555 13.0016 12.0784 12.9605C12.089 12.9414 12.0982 12.9224 12.1088 12.9041C12.1431 12.8394 12.1751 12.7723 12.2018 12.7038C12.2383 12.8135 12.2886 12.9148 12.3495 13.013C12.3731 13.0519 12.4082 13.0839 12.4508 13.0998C12.4721 13.1082 12.495 13.112 12.5178 13.1136C12.5407 13.1151 12.5605 13.1318 12.5605 13.1562H12.562Z" fill="url(#paint6_radial_68_39374)"/>
<g opacity="0.69">
<path d="M13.0296 11.7639L12.5909 11.3176L12.1393 10.8575L12.0921 10.8095C12.0921 10.8095 11.1933 11.7441 11.1925 11.7441C11.0097 11.9345 10.9351 12.2437 11.0684 12.4806C11.0737 12.4905 11.0798 12.5004 11.0867 12.5103C11.1164 12.5553 11.1522 12.5964 11.194 12.6322C11.1948 12.6329 11.1956 12.6337 11.1971 12.6352C11.3334 12.7518 11.5223 12.8135 11.6983 12.8013C11.8986 12.7883 12.137 12.6642 12.1949 12.4578C12.2238 12.3549 12.1987 12.2468 12.1537 12.1531C12.1537 12.1531 12.1393 12.1135 12.1035 12.0693C12.0486 12.0023 11.942 11.9254 11.7554 11.9558C11.7287 11.9604 11.6998 11.9673 11.6693 11.9764L11.3327 12.0906C11.3182 12.0952 11.3037 12.0945 11.2915 12.0906C11.2497 12.0777 11.223 12.0282 11.2496 11.9863C11.2664 11.9596 11.37 11.8896 11.4195 11.8553C11.4195 11.8553 11.4721 11.7921 11.5178 11.7235C11.5894 11.6154 11.6975 11.5331 11.8247 11.5049C11.9359 11.4813 12.0821 11.4866 12.2604 11.5704C12.3244 11.5994 12.3921 11.639 12.4645 11.6908C12.4828 11.7045 12.5041 11.7129 12.5262 11.7144C12.5704 11.7174 12.6519 11.7342 12.7113 11.8111C12.7448 11.8545 12.7722 11.9177 12.7806 12.0076C12.7806 12.0076 12.6808 11.8926 12.5209 11.9056C12.5209 11.9056 12.5483 11.9177 12.5772 11.9528C12.5803 11.9558 12.5826 11.9596 12.5856 11.9634C12.6206 12.0099 12.6534 12.0884 12.6404 12.2156C12.6404 12.2156 12.629 12.4113 12.4424 12.5933C12.383 12.6512 12.4028 12.7464 12.4698 12.7807C12.4813 12.7868 12.4942 12.7906 12.5087 12.7929H12.511C12.7631 12.8249 12.9916 12.671 13.1104 12.457C13.2391 12.2247 13.2208 11.9573 13.0296 11.7631V11.7639ZM12.0981 11.3983L11.926 11.2155L12.0943 11.0266L12.14 11.0769L12.2604 11.2086L12.1004 11.3952L12.0989 11.3968L12.0981 11.3983Z" fill="#4A4A4A"/>
<path d="M12.562 13.1562C12.562 13.1806 12.543 13.2004 12.5186 13.2004L11.8826 13.2072C11.8582 13.2072 11.8384 13.1882 11.8384 13.1638C11.8384 13.1494 11.8461 13.1349 11.8582 13.1265C11.8796 13.1128 11.91 13.1189 11.9336 13.1105C11.9557 13.1029 11.9755 13.0907 11.9931 13.0755C12.0296 13.0442 12.0555 13.0016 12.0784 12.9605C12.089 12.9414 12.0982 12.9224 12.1088 12.9041C12.1431 12.8394 12.1751 12.7723 12.2018 12.7038C12.2383 12.8135 12.2886 12.9148 12.3495 13.013C12.3731 13.0519 12.4082 13.0839 12.4508 13.0998C12.4721 13.1082 12.495 13.112 12.5178 13.1136C12.5407 13.1151 12.5605 13.1318 12.5605 13.1562H12.562Z" fill="#4A4A4A"/>
</g>
<path d="M19.8763 2.9385L19.7423 3.05503L19.5191 3.2485L19.35 3.3955L10.8849 10.7318L10.7181 10.8766L7.26926 13.8653L7.11083 14.0032L2.77011 17.7658L2.56141 17.9471L2.33902 18.1398L2.24152 18.2243C1.39607 16.8975 0.809603 15.3886 0.555969 13.7693L0.589478 13.7404L0.843099 13.521L1.08761 13.307L8.82762 6.59067L8.87714 6.54802L10.2382 5.36516H10.2397L10.5673 5.07953H10.568L11.7935 4.01549L11.8514 3.96674L12.6908 3.23783L12.6938 3.23631L15.1669 1.08994L15.3726 0.911715L15.5607 0.748718L15.7587 0.576584C17.2958 1.07928 18.6934 1.89121 19.8771 2.93926L19.8763 2.9385Z" fill="url(#paint7_linear_68_39374)"/>
<path d="M23.821 11.3602L23.8126 11.3678L23.3365 11.7761L23.1111 11.9695L15.4739 18.5335L15.2941 18.6882L14.5089 19.3638L14.3695 19.4841L14.3162 19.529L14.0938 19.7195L13.4684 20.2572L13.2567 20.4392L10.6305 22.6968L10.3646 22.9238L10.0143 23.2254L9.79264 23.4166C8.74307 23.2048 7.74378 22.8529 6.81683 22.3807L6.98897 22.2329L7.2624 21.9984L7.48481 21.8064L9.9861 19.6562L10.1552 19.5108L10.9298 18.8458L11.0799 18.7156L11.6686 18.2106L11.9101 18.0042L12.9238 17.1328L13.1523 16.9363L17.4885 13.2095L17.6355 13.0839H17.637L19.497 11.4836L19.6874 11.3191L22.7059 8.72561L22.8902 8.56795L23.239 8.26709L23.2985 8.21606C23.61 9.21308 23.7905 10.268 23.8217 11.3594L23.821 11.3602Z" fill="url(#paint8_linear_68_39374)"/>
<path d="M23.827 11.9413C23.827 18.4063 18.586 23.6473 12.1203 23.6473C11.3236 23.6473 10.5451 23.5673 9.79338 23.4158C8.74381 23.204 7.74452 22.8521 6.81758 22.3799C4.94618 21.4271 3.36343 19.986 2.2415 18.2243C1.39606 16.8975 0.809587 15.3886 0.555953 13.7693C0.461507 13.1737 0.413513 12.5628 0.413513 11.9413C0.413513 11.9131 0.413514 11.8857 0.414276 11.8575V11.7897C0.495774 5.3933 5.70478 0.233795 12.1195 0.233795C13.3176 0.233795 14.4731 0.413548 15.5607 0.747918C17.1183 1.22624 18.5365 2.02066 19.7422 3.05576C21.3394 4.42751 22.5634 6.22275 23.2383 8.26705C23.5627 9.2496 23.7608 10.2893 23.8133 11.367C23.8194 11.5072 23.8247 11.6481 23.8263 11.7897V11.8575C23.827 11.8857 23.827 11.9131 23.827 11.9413Z" fill="url(#paint9_linear_68_39374)" style="mix-blend-mode:difference"/>
<defs>
<linearGradient id="paint0_linear_68_39374" x1="8.30739" y1="23.0129" x2="15.9324" y2="0.869054" gradientUnits="userSpaceOnUse">
<stop stop-color="#A7A7A7"/>
<stop offset="0.51" stop-color="#BABABA"/>
<stop offset="1" stop-color="#D2D2D2"/>
</linearGradient>
<linearGradient id="paint1_linear_68_39374" x1="12.1119" y1="1.1326" x2="12.1119" y2="22.7966" gradientUnits="userSpaceOnUse">
<stop stop-color="#3B3B3B"/>
<stop offset="0.22" stop-color="#4F4F4F"/>
<stop offset="0.58" stop-color="#787878"/>
<stop offset="1" stop-color="#EAEAEA"/>
</linearGradient>
<linearGradient id="paint2_linear_68_39374" x1="8.68517" y1="21.977" x2="15.5858" y2="1.9369" gradientUnits="userSpaceOnUse">
<stop stop-color="#A7A7A7"/>
<stop offset="0.51" stop-color="#BABABA"/>
<stop offset="1" stop-color="#D2D2D2"/>
</linearGradient>
<radialGradient id="paint3_radial_68_39374" cx="0" cy="0" r="1" gradientUnits="userSpaceOnUse" gradientTransform="translate(9.95213 11.3724) rotate(19.77) scale(6.2205)">
<stop stop-color="white"/>
<stop offset="0.6" stop-color="#DDDDDD"/>
<stop offset="1" stop-color="#CCCCCC"/>
</radialGradient>
<radialGradient id="paint4_radial_68_39374" cx="0" cy="0" r="1" gradientUnits="userSpaceOnUse" gradientTransform="translate(14.5737 12.2144) rotate(19.77) scale(6.17404 6.17404)">
<stop stop-color="white"/>
<stop offset="0.6" stop-color="#DDDDDD"/>
<stop offset="1" stop-color="#CCCCCC"/>
</radialGradient>
<radialGradient id="paint5_radial_68_39374" cx="0" cy="0" r="1" gradientUnits="userSpaceOnUse" gradientTransform="translate(12.0966 11.8058) scale(1.04729)">
<stop stop-color="white"/>
<stop offset="0.6" stop-color="#DDDDDD"/>
<stop offset="1" stop-color="#CCCCCC"/>
</radialGradient>
<radialGradient id="paint6_radial_68_39374" cx="0" cy="0" r="1" gradientUnits="userSpaceOnUse" gradientTransform="translate(12.201 12.9551) scale(0.31152)">
<stop stop-color="white"/>
<stop offset="0.6" stop-color="#DDDDDD"/>
<stop offset="1" stop-color="#CCCCCC"/>
</radialGradient>
<linearGradient id="paint7_linear_68_39374" x1="-3.33917" y1="20.8795" x2="17.5715" y2="1.55837" gradientUnits="userSpaceOnUse">
<stop stop-color="white" stop-opacity="0"/>
<stop offset="1" stop-color="white" stop-opacity="0.3"/>
</linearGradient>
<linearGradient id="paint8_linear_68_39374" x1="3.63765" y1="27.6636" x2="24.5133" y2="8.37524" gradientUnits="userSpaceOnUse">
<stop stop-color="white" stop-opacity="0"/>
<stop offset="1" stop-color="white" stop-opacity="0.3"/>
</linearGradient>
<linearGradient id="paint9_linear_68_39374" x1="8.30739" y1="23.0128" x2="15.9324" y2="0.869024" gradientUnits="userSpaceOnUse">
<stop stop-color="#EDEDED"/>
<stop offset="0.51" stop-color="#E8E8E8"/>
<stop offset="1" stop-color="#F2F2F2"/>
</linearGradient>
</defs>
</svg>
