<svg width="70" height="69" viewBox="0 0 70 69" fill="none" xmlns="http://www.w3.org/2000/svg">
<path d="M63.6839 16.5137C63.7417 16.6115 63.8016 16.7092 63.855 16.8069C63.9371 16.9447 64.0171 17.0868 64.0971 17.2267L64.1215 17.2667C64.1815 17.3733 64.237 17.4755 64.2925 17.5799C72.9751 33.4502 67.5954 53.4629 51.9162 62.7807C49.3285 64.32 46.6209 65.4706 43.8555 66.2546C40.9924 67.0654 38.0716 67.4807 35.1641 67.5229C29.3668 67.6029 23.6273 66.1858 18.5364 63.4204C14.7915 61.3881 11.3998 58.6338 8.59221 55.2043C7.70152 54.1204 6.86859 52.9676 6.10228 51.7504L6.07785 51.7104C5.99344 51.5727 5.90682 51.4372 5.82464 51.2973C5.76467 51.204 5.70691 51.1063 5.64916 51.0063C-3.873 34.9828 1.39118 14.2681 17.4214 4.74154C21.8348 2.11834 26.5992 0.619048 31.3925 0.159265C35.7482 -0.2672 40.1262 0.168149 44.2709 1.4009C49.8349 3.04679 54.9814 6.12533 59.1194 10.4744C60.8253 12.2735 62.3645 14.2881 63.6861 16.5115L63.6839 16.5137Z" fill="#A37417"/>
<path d="M64.548 17.9686C74.0723 33.9944 68.8082 54.7046 52.7757 64.2334C49.6772 66.0747 46.401 67.3652 43.0648 68.1249C40.2483 68.7735 37.3897 69.0467 34.5577 68.9645C28.8071 68.7935 23.1675 67.1542 18.2099 64.2023C14.5094 61.9922 11.1932 59.0514 8.49448 55.4309C7.79037 54.4891 7.12624 53.4963 6.51098 52.4612C6.42435 52.3146 6.33772 52.1702 6.25776 52.0214C6.20223 51.9281 6.14892 51.8393 6.10006 51.7482L6.07563 51.7082C-2.84681 35.7891 2.50842 15.5786 18.2876 6.20308C22.2258 3.86419 26.4415 2.41599 30.7106 1.80294C35.1174 1.16547 39.5709 1.41868 43.8155 2.49151C49.4196 3.91084 54.6615 6.75616 58.9417 10.8875C60.8719 12.7422 62.6089 14.8612 64.097 17.2245L64.1215 17.2645C64.177 17.3534 64.2303 17.4422 64.2859 17.5333C64.2947 17.5399 64.2992 17.5488 64.2992 17.5555C64.3858 17.6888 64.468 17.8265 64.5502 17.9642L64.548 17.9686Z" fill="#6D3C1B"/>
<path d="M64.0282 17.0935C64.1148 17.2401 64.2037 17.3889 64.2836 17.5355C64.2925 17.5422 64.297 17.551 64.297 17.5577C73.4526 33.5213 68.1329 53.9227 52.256 63.3583C49.4618 65.0175 46.5276 66.228 43.5357 67.0099C40.6926 67.7584 37.7962 68.1138 34.9198 68.1005C29.1403 68.0849 23.443 66.5812 18.4031 63.7359C14.6782 61.6391 11.3131 58.8071 8.54779 55.3021C7.7304 54.267 6.9641 53.1764 6.25776 52.0236C6.16669 51.8837 6.07785 51.7349 5.99123 51.5883C5.93348 51.4928 5.87572 51.395 5.82241 51.2973C-3.46874 35.316 1.83097 14.7946 17.7634 5.32573C21.9903 2.81358 26.5371 1.32984 31.1215 0.803419C35.4973 0.299213 39.9063 0.661267 44.091 1.82738C49.6683 3.38664 54.8525 6.3719 59.0461 10.6343C60.8475 12.4601 62.4667 14.5192 63.8527 16.807C63.9127 16.9002 63.9704 16.998 64.0282 17.0935Z" fill="url(#paint0_linear_68_40056)"/>
<path d="M61.8714 18.455C70.6851 33.2858 65.8096 52.4501 50.981 61.2637C36.1525 70.0773 16.9882 65.1996 8.17463 50.3688C-0.636758 35.5425 4.23871 16.376 19.065 7.56464C33.8913 -1.24675 53.0578 3.62873 61.8692 18.455H61.8714Z" fill="url(#paint1_linear_68_40056)" stroke="#281401" stroke-width="0.00888468" stroke-miterlimit="10"/>
<path d="M61.3361 18.746C69.9565 33.2503 65.1832 51.997 50.6812 60.6173C36.1769 69.2377 17.4325 64.4688 8.81211 49.9646C0.191747 35.4603 4.9606 16.7159 19.4649 8.09552C33.9691 -0.524843 52.7158 4.24179 61.3361 18.746Z" fill="url(#paint2_linear_68_40056)"/>
<g style="mix-blend-mode:multiply">
<path d="M60.932 25.2896C60.8009 25.6606 60.5366 25.9204 60.2301 26.1426C59.6126 26.5912 58.9129 26.88 58.2199 27.1732C57.2448 27.5885 56.2608 27.975 55.3324 28.4792L55.3213 28.4859C55.2258 28.5436 55.1236 28.5903 55.0259 28.6458C53.2112 29.6387 51.3854 30.6426 49.8172 32.0064C46.4322 34.9539 43.5513 39.7317 44.2532 44.3806C44.5375 46.2641 45.3149 47.9056 46.7076 49.2294C46.943 49.4515 47.214 49.6359 47.4805 49.8158C47.9603 50.1379 48.4801 50.1534 48.9732 49.8891C49.5285 49.5959 50.0638 49.2583 50.5924 48.9229C51.2965 48.4764 52.014 48.0655 52.8491 47.9167C53.8264 47.739 54.8815 48.0477 55.6633 48.6497C54.9037 48.5097 54.3484 48.8762 53.8531 49.336C53.3333 49.8113 52.8513 50.3311 52.3538 50.8264C52.2072 50.9708 52.0539 51.1107 51.894 51.2373C51.6475 51.4328 51.3854 51.5927 51.0411 51.6305C51.1632 51.746 51.281 51.8415 51.3765 51.957C51.5897 52.2213 51.6963 52.5367 51.763 52.8632C51.8274 53.1986 51.8873 53.5385 51.9518 53.8739C52.165 54.9845 52.5204 55.7263 53.6354 56.3105C53.3356 56.2927 53.0379 56.2861 52.7425 56.2594C51.2721 56.1284 50.1793 55.3976 49.4152 54.1493C49.1153 53.6584 48.8199 53.1675 48.5112 52.6878C47.967 51.8393 47.2118 51.2418 46.2522 50.9242C45.8013 50.7731 45.366 50.5954 44.9551 50.3933C44.9373 50.8509 44.8884 51.3151 44.8063 51.786C44.6263 52.7788 44.7929 53.7273 45.2771 54.6135C45.5503 55.1155 45.8413 55.6108 46.1279 56.1061C46.8608 57.3722 46.9786 58.6827 46.3922 60.0376C46.2745 60.3108 46.1367 60.5751 46.0101 60.8461C46.0323 59.5867 45.5503 58.9204 44.6752 58.2029C44.4109 57.9853 44.1421 57.772 43.8778 57.5521C43.6246 57.3367 43.398 57.0924 43.267 56.7792C43.2137 56.6392 43.1848 56.4904 43.1426 56.3283C42.9449 56.6126 42.6784 56.7658 42.3896 56.8902C42.2008 56.9702 42.0054 57.0368 41.8077 57.0968C41.1324 57.2989 40.4483 57.4744 39.782 57.7032C39.1423 57.9208 38.5537 58.234 38.3138 58.967C38.1583 57.9919 38.3915 56.9191 39.0134 56.1439C39.5443 55.482 40.2462 55.0489 40.9747 54.6446C41.5211 54.3403 42.0764 54.0316 42.5984 53.6828C43.0671 53.3763 43.3003 52.9121 43.247 52.3368C43.2159 52.017 43.1848 51.6905 43.1004 51.3773C42.6051 49.5226 41.5322 48.0544 40.0152 46.9038C36.2681 44.0652 30.6974 44.3117 26.486 45.8777C24.5403 46.604 22.7856 47.7279 21.0486 48.8451C20.9531 48.9051 20.8642 48.9717 20.7643 49.0317L20.7532 49.0384C19.8669 49.6137 19.0562 50.2956 18.2255 50.9508C17.6369 51.4195 17.0483 51.8948 16.3597 52.2235C16.0177 52.3857 15.6623 52.4945 15.2758 52.4323C14.8471 52.3613 14.6316 52.108 14.6738 51.6793C14.6961 51.455 14.7449 51.2174 14.8338 51.0108C15.0537 50.5021 15.2847 49.9979 15.5379 49.5026C15.8089 48.9629 15.9777 48.4076 16.051 47.7967C16.3908 44.9492 17.5547 42.4904 19.6426 40.4958C21.1197 39.0831 22.8789 38.1391 24.7979 37.4683C24.9068 37.4328 25.0201 37.3484 25.0889 37.2595C25.9219 36.1134 26.9636 35.1938 28.1719 34.4653C29.5068 33.6634 30.9484 33.137 32.4788 32.8549C32.8897 32.7772 33.3073 32.7283 33.7248 32.6684C32.3921 33.6923 31.3015 34.8784 30.7218 36.4888C30.7596 36.5043 30.7729 36.511 30.784 36.5132C30.844 36.5176 30.9062 36.5221 30.9706 36.5243C32.2677 36.5887 33.5405 36.8042 34.7666 37.2329C35.946 37.6438 37.0433 38.1524 38.0472 38.7588C37.9895 37.5882 38.0672 36.3821 38.2716 35.1494C38.4826 33.8678 38.9002 32.6461 39.4643 31.4778C39.491 31.4201 39.5199 31.3645 39.5421 31.309C39.5465 31.2979 39.5465 31.2823 39.551 31.2424C37.8607 30.9803 36.2969 31.3712 34.7599 32.0531C35.0109 31.7155 35.2552 31.3712 35.5195 31.0491C36.4991 29.8408 37.6496 28.8257 38.9935 28.035C40.2084 27.3198 41.5145 26.8467 42.9205 26.6623C43.0315 26.6445 43.1604 26.5846 43.2425 26.5068C44.7485 25.143 46.4188 24.048 48.3646 23.4261C51.1144 22.5443 53.8309 22.6975 56.4941 23.7615C57.0649 23.988 57.6357 24.1057 58.2377 24.1257C58.793 24.1413 59.3483 24.179 59.8991 24.2301C60.1235 24.2523 60.3567 24.3212 60.5632 24.41C60.9608 24.5766 61.0808 24.8898 60.9364 25.2985L60.932 25.2896Z" fill="#3A2415"/>
<path d="M60.5099 25.9471C60.3789 26.318 60.1146 26.5779 59.808 26.8C59.1905 27.2487 58.4909 27.5375 57.7979 27.8306C56.8228 28.246 55.8388 28.6325 54.9104 29.1367L54.8993 29.1434C54.8037 29.2011 54.7016 29.2478 54.6038 29.3033C52.7891 30.2961 50.9633 31.3001 49.3952 32.6639C46.0101 35.6114 43.1293 40.3892 43.8312 45.0381C44.1155 46.9216 44.8929 48.5631 46.2855 49.8869C46.521 50.109 46.792 50.2933 47.0585 50.4733C47.5383 50.7953 48.058 50.8109 48.5511 50.5466C49.1064 50.2534 49.6417 49.9158 50.1704 49.5804C50.8745 49.1339 51.5919 48.723 52.4271 48.5742C53.4044 48.3965 54.4595 48.7052 55.2413 49.3071C54.4817 49.1672 53.9264 49.5337 53.4311 49.9935C52.9113 50.4688 52.4293 50.9886 51.9318 51.4839C51.7852 51.6283 51.6319 51.7682 51.472 51.8948C51.2254 52.0903 50.9633 52.2502 50.619 52.288C50.7412 52.4035 50.8589 52.499 50.9544 52.6145C51.1677 52.8788 51.2743 53.1942 51.3409 53.5207C51.4053 53.8561 51.4653 54.1959 51.5297 54.5313C51.743 55.6419 52.0983 56.3838 53.2134 56.968C52.9135 56.9502 52.6159 56.9435 52.3205 56.9169C50.8501 56.7858 49.7572 56.0551 48.9932 54.8068C48.6933 54.3159 48.3979 53.825 48.0891 53.3452C47.5449 52.4967 46.7898 51.8993 45.8302 51.5816C45.3793 51.4306 44.944 51.2529 44.533 51.0508C44.5153 51.5083 44.4664 51.9726 44.3842 52.4434C44.2043 53.4363 44.3709 54.3848 44.8551 55.271C45.1283 55.773 45.4193 56.2683 45.7058 56.7636C46.4388 58.0297 46.5565 59.3402 45.9701 60.6951C45.8524 60.9683 45.7147 61.2326 45.5881 61.5036C45.6103 60.2442 45.1283 59.5778 44.2532 58.8604C43.9889 58.6427 43.7201 58.4295 43.4558 58.2096C43.2026 57.9942 42.976 57.7498 42.845 57.4366C42.7916 57.2967 42.7628 57.1479 42.7206 56.9857C42.5229 57.27 42.2563 57.4233 41.9676 57.5477C41.7788 57.6277 41.5833 57.6943 41.3856 57.7543C40.7104 57.9564 40.0263 58.1319 39.3599 58.3606C38.7202 58.5783 38.1316 58.8915 37.8917 59.6245C37.7363 58.6494 37.9695 57.5766 38.5914 56.8014C39.1223 56.1395 39.8242 55.7063 40.5527 55.3021C41.0991 54.9978 41.6544 54.6891 42.1764 54.3403C42.645 54.0338 42.8783 53.5696 42.825 52.9943C42.7939 52.6744 42.7628 52.3479 42.6784 52.0348C42.183 50.1801 41.1102 48.7119 39.5932 47.5613C35.846 44.7227 30.2753 44.9692 26.064 46.5351C24.1183 47.2615 22.3635 48.3854 20.6266 49.5026C20.5311 49.5626 20.4422 49.6292 20.3423 49.6892L20.3312 49.6959C19.4449 50.2711 18.6342 50.953 17.8035 51.6083C17.2149 52.0769 16.6263 52.5523 15.9377 52.881C15.5956 53.0432 15.2402 53.152 14.8538 53.0898C14.4251 53.0187 14.2096 52.7655 14.2518 52.3368C14.274 52.1125 14.3229 51.8748 14.4117 51.6683C14.6316 51.1596 14.8626 50.6554 15.1159 50.1601C15.3868 49.6203 15.5556 49.065 15.6289 48.4542C15.9688 45.6067 17.1327 43.1479 19.2206 41.1532C20.6977 39.7406 22.4568 38.7966 24.3759 38.1258C24.4848 38.0902 24.598 38.0058 24.6669 37.917C25.4998 36.7709 26.5416 35.8513 27.7499 35.1228C29.0848 34.3209 30.5263 33.7945 32.0567 33.5124C32.4676 33.4347 32.8852 33.3858 33.3028 33.3258C31.9701 34.3498 30.8795 35.5359 30.2998 37.1462C30.3375 37.1618 30.3509 37.1684 30.362 37.1707C30.4219 37.1751 30.4841 37.1796 30.5486 37.1818C31.8457 37.2462 33.1184 37.4617 34.3445 37.8903C35.524 38.3013 36.6212 38.8099 37.6252 39.4163C37.5674 38.2457 37.6452 37.0396 37.8495 35.8069C38.0606 34.5253 38.4781 33.3036 39.0423 32.1353C39.069 32.0775 39.0978 32.022 39.1201 31.9665C39.1245 31.9554 39.1245 31.9398 39.1289 31.8998C37.4386 31.6377 35.8749 32.0287 34.3379 32.7106C34.5889 32.3729 34.8332 32.0287 35.0975 31.7066C36.077 30.4983 37.2276 29.4832 38.5714 28.6925C39.7864 27.9772 41.0924 27.5041 42.4984 27.3198C42.6095 27.302 42.7383 27.242 42.8205 27.1643C44.3265 25.8005 45.9968 24.7055 47.9425 24.0835C50.6924 23.2017 53.4088 23.355 56.072 24.4189C56.6429 24.6455 57.2137 24.7632 57.8156 24.7832C58.3709 24.7988 58.9262 24.8365 59.4771 24.8876C59.7014 24.9098 59.9346 24.9787 60.1412 25.0675C60.5388 25.2341 60.6587 25.5473 60.5144 25.956L60.5099 25.9471Z" fill="url(#paint3_radial_68_40056)"/>
<path opacity="0.85" d="M60.5099 25.9471C60.3789 26.318 60.1146 26.5779 59.808 26.8C59.1905 27.2487 58.4909 27.5375 57.7979 27.8306C56.8228 28.246 55.8388 28.6325 54.9104 29.1367L54.8993 29.1434C54.8037 29.2011 54.7016 29.2478 54.6038 29.3033C52.7891 30.2961 50.9633 31.3001 49.3952 32.6639C46.0101 35.6114 43.1293 40.3892 43.8312 45.0381C44.1155 46.9216 44.8929 48.5631 46.2855 49.8869C46.521 50.109 46.792 50.2933 47.0585 50.4733C47.5383 50.7953 48.058 50.8109 48.5511 50.5466C49.1064 50.2534 49.6417 49.9158 50.1704 49.5804C50.8745 49.1339 51.5919 48.723 52.4271 48.5742C53.4044 48.3965 54.4595 48.7052 55.2413 49.3071C54.4817 49.1672 53.9264 49.5337 53.4311 49.9935C52.9113 50.4688 52.4293 50.9886 51.9318 51.4839C51.7852 51.6283 51.6319 51.7682 51.472 51.8948C51.2254 52.0903 50.9633 52.2502 50.619 52.288C50.7412 52.4035 50.8589 52.499 50.9544 52.6145C51.1677 52.8788 51.2743 53.1942 51.3409 53.5207C51.4053 53.8561 51.4653 54.1959 51.5297 54.5313C51.743 55.6419 52.0983 56.3838 53.2134 56.968C52.9135 56.9502 52.6159 56.9435 52.3205 56.9169C50.8501 56.7858 49.7572 56.0551 48.9932 54.8068C48.6933 54.3159 48.3979 53.825 48.0891 53.3452C47.5449 52.4967 46.7898 51.8993 45.8302 51.5816C45.3793 51.4306 44.944 51.2529 44.533 51.0508C44.5153 51.5083 44.4664 51.9726 44.3842 52.4434C44.2043 53.4363 44.3709 54.3848 44.8551 55.271C45.1283 55.773 45.4193 56.2683 45.7058 56.7636C46.4388 58.0297 46.5565 59.3402 45.9701 60.6951C45.8524 60.9683 45.7147 61.2326 45.5881 61.5036C45.6103 60.2442 45.1283 59.5778 44.2532 58.8604C43.9889 58.6427 43.7201 58.4295 43.4558 58.2096C43.2026 57.9942 42.976 57.7498 42.845 57.4366C42.7916 57.2967 42.7628 57.1479 42.7206 56.9857C42.5229 57.27 42.2563 57.4233 41.9676 57.5477C41.7788 57.6277 41.5833 57.6943 41.3856 57.7543C40.7104 57.9564 40.0263 58.1319 39.3599 58.3606C38.7202 58.5783 38.1316 58.8915 37.8917 59.6245C37.7363 58.6494 37.9695 57.5766 38.5914 56.8014C39.1223 56.1395 39.8242 55.7063 40.5527 55.3021C41.0991 54.9978 41.6544 54.6891 42.1764 54.3403C42.645 54.0338 42.8783 53.5696 42.825 52.9943C42.7939 52.6744 42.7628 52.3479 42.6784 52.0348C42.183 50.1801 41.1102 48.7119 39.5932 47.5613C35.846 44.7227 30.2753 44.9692 26.064 46.5351C24.1183 47.2615 22.3635 48.3854 20.6266 49.5026C20.5311 49.5626 20.4422 49.6292 20.3423 49.6892L20.3312 49.6959C19.4449 50.2711 18.6342 50.953 17.8035 51.6083C17.2149 52.0769 16.6263 52.5523 15.9377 52.881C15.5956 53.0432 15.2402 53.152 14.8538 53.0898C14.4251 53.0187 14.2096 52.7655 14.2518 52.3368C14.274 52.1125 14.3229 51.8748 14.4117 51.6683C14.6316 51.1596 14.8626 50.6554 15.1159 50.1601C15.3868 49.6203 15.5556 49.065 15.6289 48.4542C15.9688 45.6067 17.1327 43.1479 19.2206 41.1532C20.6977 39.7406 22.4568 38.7966 24.3759 38.1258C24.4848 38.0902 24.598 38.0058 24.6669 37.917C25.4998 36.7709 26.5416 35.8513 27.7499 35.1228C29.0848 34.3209 30.5263 33.7945 32.0567 33.5124C32.4676 33.4347 32.8852 33.3858 33.3028 33.3258C31.9701 34.3498 30.8795 35.5359 30.2998 37.1462C30.3375 37.1618 30.3509 37.1684 30.362 37.1707C30.4219 37.1751 30.4841 37.1796 30.5486 37.1818C31.8457 37.2462 33.1184 37.4617 34.3445 37.8903C35.524 38.3013 36.6212 38.8099 37.6252 39.4163C37.5674 38.2457 37.6452 37.0396 37.8495 35.8069C38.0606 34.5253 38.4781 33.3036 39.0423 32.1353C39.069 32.0775 39.0978 32.022 39.1201 31.9665C39.1245 31.9554 39.1245 31.9398 39.1289 31.8998C37.4386 31.6377 35.8749 32.0287 34.3379 32.7106C34.5889 32.3729 34.8332 32.0287 35.0975 31.7066C36.077 30.4983 37.2276 29.4832 38.5714 28.6925C39.7864 27.9772 41.0924 27.5041 42.4984 27.3198C42.6095 27.302 42.7383 27.242 42.8205 27.1643C44.3265 25.8005 45.9968 24.7055 47.9425 24.0835C50.6924 23.2017 53.4088 23.355 56.072 24.4189C56.6429 24.6455 57.2137 24.7632 57.8156 24.7832C58.3709 24.7988 58.9262 24.8365 59.4771 24.8876C59.7014 24.9098 59.9346 24.9787 60.1412 25.0675C60.5388 25.2341 60.6587 25.5473 60.5144 25.956L60.5099 25.9471Z" fill="#724401"/>
<g style="mix-blend-mode:hard-light">
<path opacity="0.85" d="M60.5099 25.9471C60.3789 26.318 60.1146 26.5779 59.808 26.8C59.1905 27.2487 58.4909 27.5375 57.7979 27.8306C56.8228 28.246 55.8388 28.6325 54.9104 29.1367L54.8993 29.1434C54.8037 29.2011 54.7016 29.2478 54.6038 29.3033C52.7891 30.2961 50.9633 31.3001 49.3952 32.6639C46.0101 35.6114 43.1293 40.3892 43.8312 45.0381C44.1155 46.9216 44.8929 48.5631 46.2855 49.8869C46.521 50.109 46.792 50.2933 47.0585 50.4733C47.5383 50.7953 48.058 50.8109 48.5511 50.5466C49.1064 50.2534 49.6417 49.9158 50.1704 49.5804C50.8745 49.1339 51.5919 48.723 52.4271 48.5742C53.4044 48.3965 54.4595 48.7052 55.2413 49.3071C54.4817 49.1672 53.9264 49.5337 53.4311 49.9935C52.9113 50.4688 52.4293 50.9886 51.9318 51.4839C51.7852 51.6283 51.6319 51.7682 51.472 51.8948C51.2254 52.0903 50.9633 52.2502 50.619 52.288C50.7412 52.4035 50.8589 52.499 50.9544 52.6145C51.1677 52.8788 51.2743 53.1942 51.3409 53.5207C51.4053 53.8561 51.4653 54.1959 51.5297 54.5313C51.743 55.6419 52.0983 56.3838 53.2134 56.968C52.9135 56.9502 52.6159 56.9435 52.3205 56.9169C50.8501 56.7858 49.7572 56.0551 48.9932 54.8068C48.6933 54.3159 48.3979 53.825 48.0891 53.3452C47.5449 52.4967 46.7898 51.8993 45.8302 51.5816C45.3793 51.4306 44.944 51.2529 44.533 51.0508C44.5153 51.5083 44.4664 51.9726 44.3842 52.4434C44.2043 53.4363 44.3709 54.3848 44.8551 55.271C45.1283 55.773 45.4193 56.2683 45.7058 56.7636C46.4388 58.0297 46.5565 59.3402 45.9701 60.6951C45.8524 60.9683 45.7147 61.2326 45.5881 61.5036C45.6103 60.2442 45.1283 59.5778 44.2532 58.8604C43.9889 58.6427 43.7201 58.4295 43.4558 58.2096C43.2026 57.9942 42.976 57.7498 42.845 57.4366C42.7916 57.2967 42.7628 57.1479 42.7206 56.9857C42.5229 57.27 42.2563 57.4233 41.9676 57.5477C41.7788 57.6277 41.5833 57.6943 41.3856 57.7543C40.7104 57.9564 40.0263 58.1319 39.3599 58.3606C38.7202 58.5783 38.1316 58.8915 37.8917 59.6245C37.7363 58.6494 37.9695 57.5766 38.5914 56.8014C39.1223 56.1395 39.8242 55.7063 40.5527 55.3021C41.0991 54.9978 41.6544 54.6891 42.1764 54.3403C42.645 54.0338 42.8783 53.5696 42.825 52.9943C42.7939 52.6744 42.7628 52.3479 42.6784 52.0348C42.183 50.1801 41.1102 48.7119 39.5932 47.5613C35.846 44.7227 30.2753 44.9692 26.064 46.5351C24.1183 47.2615 22.3635 48.3854 20.6266 49.5026C20.5311 49.5626 20.4422 49.6292 20.3423 49.6892L20.3312 49.6959C19.4449 50.2711 18.6342 50.953 17.8035 51.6083C17.2149 52.0769 16.6263 52.5523 15.9377 52.881C15.5956 53.0432 15.2402 53.152 14.8538 53.0898C14.4251 53.0187 14.2096 52.7655 14.2518 52.3368C14.274 52.1125 14.3229 51.8748 14.4117 51.6683C14.6316 51.1596 14.8626 50.6554 15.1159 50.1601C15.3868 49.6203 15.5556 49.065 15.6289 48.4542C15.9688 45.6067 17.1327 43.1479 19.2206 41.1532C20.6977 39.7406 22.4568 38.7966 24.3759 38.1258C24.4848 38.0902 24.598 38.0058 24.6669 37.917C25.4998 36.7709 26.5416 35.8513 27.7499 35.1228C29.0848 34.3209 30.5263 33.7945 32.0567 33.5124C32.4676 33.4347 32.8852 33.3858 33.3028 33.3258C31.9701 34.3498 30.8795 35.5359 30.2998 37.1462C30.3375 37.1618 30.3509 37.1684 30.362 37.1707C30.4219 37.1751 30.4841 37.1796 30.5486 37.1818C31.8457 37.2462 33.1184 37.4617 34.3445 37.8903C35.524 38.3013 36.6212 38.8099 37.6252 39.4163C37.5674 38.2457 37.6452 37.0396 37.8495 35.8069C38.0606 34.5253 38.4781 33.3036 39.0423 32.1353C39.069 32.0775 39.0978 32.022 39.1201 31.9665C39.1245 31.9554 39.1245 31.9398 39.1289 31.8998C37.4386 31.6377 35.8749 32.0287 34.3379 32.7106C34.5889 32.3729 34.8332 32.0287 35.0975 31.7066C36.077 30.4983 37.2276 29.4832 38.5714 28.6925C39.7864 27.9772 41.0924 27.5041 42.4984 27.3198C42.6095 27.302 42.7383 27.242 42.8205 27.1643C44.3265 25.8005 45.9968 24.7055 47.9425 24.0835C50.6924 23.2017 53.4088 23.355 56.072 24.4189C56.6429 24.6455 57.2137 24.7632 57.8156 24.7832C58.3709 24.7988 58.9262 24.8365 59.4771 24.8876C59.7014 24.9098 59.9346 24.9787 60.1412 25.0675C60.5388 25.2341 60.6587 25.5473 60.5144 25.956L60.5099 25.9471Z" fill="#663703"/>
</g>
<path d="M30.8683 12.5112L25.5886 11.0586L20.6754 9.7059V9.71478C20.5843 10.0746 18.2365 19.6523 18.2343 19.659C17.7812 21.5136 18.3476 23.6882 19.8624 24.8743C20.0712 25.0431 20.3 25.1875 20.5465 25.3141C20.7709 25.4296 21.0041 25.5206 21.244 25.5917C21.2529 25.5939 21.264 25.5962 21.2729 25.5984C22.7921 26.067 24.5691 25.7605 25.8729 24.8809C27.1878 23.9991 28.3229 22.2044 27.9075 20.5652C27.6987 19.75 27.1012 19.1081 26.4193 18.6461C26.4193 18.6461 25.9551 18.2507 25.2243 18.1441C24.4891 18.0286 23.4829 18.2063 22.4079 19.3658L21.9059 19.9411H21.9037L20.5599 21.4848C20.3311 21.7269 19.9713 21.7002 19.7625 21.5114C19.6447 21.4137 19.5737 21.2715 19.5826 21.0939C19.5914 20.8406 20.0179 19.9544 20.2245 19.5213C20.2245 19.5213 20.3333 18.8793 20.3755 18.2285C20.4377 17.2024 20.8442 16.2139 21.6038 15.5187C22.1791 14.9967 23.0187 14.5214 24.2381 14.3148C24.9334 14.1949 25.7485 14.1638 26.7147 14.2549C26.8924 14.2704 27.0723 14.2482 27.23 14.1705C27.4633 14.0572 27.872 13.9106 28.3628 13.9661C28.8981 14.0216 29.529 14.3215 30.1376 15.1678C30.1376 15.1678 29.0381 14.7902 28.0097 15.4676C27.9919 15.4787 27.9741 15.4921 27.9564 15.5032C27.9564 15.5032 28.0119 15.4987 28.1074 15.5032C28.4628 15.5365 29.3757 15.7541 29.9954 17.1402C29.9954 17.1402 30.6951 18.5217 30.1442 20.5075C30.0265 20.9428 30.2286 21.3471 30.5574 21.5492C30.795 21.6936 31.0949 21.7335 31.3881 21.6092L31.4058 21.6025C33.2472 20.8229 34.2045 18.8616 34.1712 16.9291C34.129 14.8324 32.9451 13.0799 30.8705 12.5112H30.8683ZM21.5572 11.1852L23.4096 11.7783L23.0565 13.7084L22.5434 13.5574L21.1574 13.1443L21.5527 11.2207L21.5594 11.1874L21.5572 11.1852Z" fill="#3A2415"/>
<path d="M33.1984 23.877C33.2961 24.0413 33.2406 24.2523 33.0784 24.3501L28.7627 26.9155C28.5983 27.0133 28.3873 26.9577 28.2896 26.7956C28.2296 26.6956 28.2252 26.5668 28.2785 26.4624C28.3673 26.2847 28.6027 26.2047 28.7338 26.0537C28.8537 25.916 28.9426 25.7538 29.0026 25.5806C29.1269 25.2208 29.1381 24.8298 29.1314 24.4545C29.1269 24.2857 29.1203 24.1169 29.1136 23.948C29.0936 23.3683 29.047 22.7841 28.9537 22.2089C29.6378 22.8152 30.3841 23.3039 31.1882 23.7348C31.5058 23.9058 31.8679 23.9836 32.2255 23.9258C32.4054 23.897 32.5764 23.8348 32.7386 23.7526C32.9007 23.6704 33.1028 23.7082 33.2006 23.8747L33.1984 23.877Z" fill="#3A2415"/>
<path d="M30.3508 12.378L25.5842 11.0653L20.6776 9.71478L20.1623 9.57263C20.1623 9.57263 17.7257 19.519 17.7213 19.5257C17.2259 21.5514 17.9478 23.9614 19.7936 25.052C19.8713 25.0986 19.9513 25.143 20.0357 25.1852C20.4177 25.3763 20.8264 25.5118 21.2507 25.5917C21.2596 25.5939 21.2707 25.5962 21.2796 25.5984C22.6745 25.856 24.2048 25.5273 25.3621 24.7499C26.677 23.8681 27.812 22.0734 27.3967 20.4342C27.1879 19.619 26.5904 18.9771 25.9085 18.5151C25.9085 18.5151 25.6553 18.3018 25.231 18.1464C24.5891 17.9065 23.5563 17.8043 22.4057 18.7527H22.4035C22.2369 18.8904 22.0681 19.0504 21.897 19.2347L20.0513 21.3493C19.9691 21.4359 19.8691 21.487 19.7692 21.5092C19.4316 21.5892 19.054 21.3515 19.0695 20.9606C19.0806 20.7118 19.5071 19.8211 19.7114 19.388C19.7114 19.388 19.8203 18.7461 19.8625 18.0953C19.9246 17.0691 20.3333 16.0807 21.0908 15.3854C21.7571 14.7791 22.7766 14.2415 24.3292 14.106C24.8801 14.0505 25.502 14.055 26.1995 14.1216C26.3794 14.1416 26.5571 14.1149 26.7148 14.0372C27.028 13.8861 27.6521 13.6729 28.3651 13.9661C28.7671 14.1283 29.2047 14.4525 29.6201 15.0345C29.6201 15.0345 28.4806 14.6413 27.4411 15.3699C27.4411 15.3699 27.6765 15.3477 28.0097 15.4676C28.0408 15.4787 28.0741 15.4921 28.1074 15.5054C28.5272 15.6831 29.067 16.0896 29.4779 17.0091C29.4779 17.0091 30.1754 18.3929 29.6223 20.3786C29.449 21.0094 29.9577 21.5781 30.5552 21.5514C30.6573 21.5447 30.764 21.5225 30.8684 21.4781L30.8861 21.4714C32.7319 20.6896 33.6848 18.7305 33.6515 16.7981C33.6093 14.7013 32.4254 12.9488 30.3508 12.3802V12.378ZM22.539 13.5752L20.6399 13.011L21.0397 11.0542L21.5528 11.2185L22.8966 11.645L22.5434 13.5574L22.539 13.5774V13.5752Z" fill="url(#paint4_radial_68_40056)"/>
<path d="M32.6808 23.746C32.7786 23.9103 32.723 24.1213 32.5609 24.219L28.2451 26.7845C28.0808 26.8822 27.8698 26.8267 27.772 26.6646C27.7121 26.5646 27.7076 26.4358 27.7609 26.3314C27.8498 26.1537 28.0852 26.0737 28.2163 25.9227C28.3362 25.785 28.4251 25.6228 28.485 25.4496C28.6094 25.0898 28.6205 24.6988 28.6139 24.3235C28.6094 24.1546 28.6028 23.9858 28.5961 23.817C28.5761 23.2373 28.5295 22.6531 28.4362 22.0779C29.1203 22.6842 29.8666 23.1729 30.6707 23.6038C30.9883 23.7748 31.3503 23.8526 31.708 23.7948C31.8879 23.7659 32.0589 23.7037 32.221 23.6216C32.3832 23.5394 32.5853 23.5771 32.683 23.7437L32.6808 23.746Z" fill="url(#paint5_radial_68_40056)"/>
<g opacity="0.85">
<path d="M30.3508 12.378L25.5842 11.0653L20.6776 9.71478L20.1623 9.57263C20.1623 9.57263 17.7257 19.519 17.7213 19.5257C17.2259 21.5514 17.9478 23.9614 19.7936 25.052C19.8713 25.0986 19.9513 25.143 20.0357 25.1852C20.4177 25.3763 20.8264 25.5118 21.2507 25.5917C21.2596 25.5939 21.2707 25.5962 21.2796 25.5984C22.6745 25.856 24.2048 25.5273 25.3621 24.7499C26.677 23.8681 27.812 22.0734 27.3967 20.4342C27.1879 19.619 26.5904 18.9771 25.9085 18.5151C25.9085 18.5151 25.6553 18.3018 25.231 18.1464C24.5891 17.9065 23.5563 17.8043 22.4057 18.7527H22.4035C22.2369 18.8904 22.0681 19.0504 21.897 19.2347L20.0513 21.3493C19.9691 21.4359 19.8691 21.487 19.7692 21.5092C19.4316 21.5892 19.054 21.3515 19.0695 20.9606C19.0806 20.7118 19.5071 19.8211 19.7114 19.388C19.7114 19.388 19.8203 18.7461 19.8625 18.0953C19.9246 17.0691 20.3333 16.0807 21.0908 15.3854C21.7571 14.7791 22.7766 14.2415 24.3292 14.106C24.8801 14.0505 25.502 14.055 26.1995 14.1216C26.3794 14.1416 26.5571 14.1149 26.7148 14.0372C27.028 13.8861 27.6521 13.6729 28.3651 13.9661C28.7671 14.1283 29.2047 14.4525 29.6201 15.0345C29.6201 15.0345 28.4806 14.6413 27.4411 15.3699C27.4411 15.3699 27.6765 15.3477 28.0097 15.4676C28.0408 15.4787 28.0741 15.4921 28.1074 15.5054C28.5272 15.6831 29.067 16.0896 29.4779 17.0091C29.4779 17.0091 30.1754 18.3929 29.6223 20.3786C29.449 21.0094 29.9577 21.5781 30.5552 21.5514C30.6573 21.5447 30.764 21.5225 30.8684 21.4781L30.8861 21.4714C32.7319 20.6896 33.6848 18.7305 33.6515 16.7981C33.6093 14.7013 32.4254 12.9488 30.3508 12.3802V12.378ZM22.539 13.5752L20.6399 13.011L21.0397 11.0542L21.5528 11.2185L22.8966 11.645L22.5434 13.5574L22.539 13.5774V13.5752Z" fill="#724401"/>
<path d="M32.6808 23.746C32.7786 23.9103 32.723 24.1213 32.5609 24.219L28.2451 26.7845C28.0808 26.8822 27.8698 26.8267 27.772 26.6646C27.7121 26.5646 27.7076 26.4358 27.7609 26.3314C27.8498 26.1537 28.0852 26.0737 28.2163 25.9227C28.3362 25.785 28.4251 25.6228 28.485 25.4496C28.6094 25.0898 28.6205 24.6988 28.6139 24.3235C28.6094 24.1546 28.6028 23.9858 28.5961 23.817C28.5761 23.2373 28.5295 22.6531 28.4362 22.0779C29.1203 22.6842 29.8666 23.1729 30.6707 23.6038C30.9883 23.7748 31.3503 23.8526 31.708 23.7948C31.8879 23.7659 32.0589 23.7037 32.221 23.6216C32.3832 23.5394 32.5853 23.5771 32.683 23.7437L32.6808 23.746Z" fill="#724401"/>
</g>
<g opacity="0.85">
<path d="M30.3508 12.378L25.5842 11.0653L20.6776 9.71478L20.1623 9.57263C20.1623 9.57263 17.7257 19.519 17.7213 19.5257C17.2259 21.5514 17.9478 23.9614 19.7936 25.052C19.8713 25.0986 19.9513 25.143 20.0357 25.1852C20.4177 25.3763 20.8264 25.5118 21.2507 25.5917C21.2596 25.5939 21.2707 25.5962 21.2796 25.5984C22.6745 25.856 24.2048 25.5273 25.3621 24.7499C26.677 23.8681 27.812 22.0734 27.3967 20.4342C27.1879 19.619 26.5904 18.9771 25.9085 18.5151C25.9085 18.5151 25.6553 18.3018 25.231 18.1464C24.5891 17.9065 23.5563 17.8043 22.4057 18.7527H22.4035C22.2369 18.8904 22.0681 19.0504 21.897 19.2347L20.0513 21.3493C19.9691 21.4359 19.8691 21.487 19.7692 21.5092C19.4316 21.5892 19.054 21.3515 19.0695 20.9606C19.0806 20.7118 19.5071 19.8211 19.7114 19.388C19.7114 19.388 19.8203 18.7461 19.8625 18.0953C19.9246 17.0691 20.3333 16.0807 21.0908 15.3854C21.7571 14.7791 22.7766 14.2415 24.3292 14.106C24.8801 14.0505 25.502 14.055 26.1995 14.1216C26.3794 14.1416 26.5571 14.1149 26.7148 14.0372C27.028 13.8861 27.6521 13.6729 28.3651 13.9661C28.7671 14.1283 29.2047 14.4525 29.6201 15.0345C29.6201 15.0345 28.4806 14.6413 27.4411 15.3699C27.4411 15.3699 27.6765 15.3477 28.0097 15.4676C28.0408 15.4787 28.0741 15.4921 28.1074 15.5054C28.5272 15.6831 29.067 16.0896 29.4779 17.0091C29.4779 17.0091 30.1754 18.3929 29.6223 20.3786C29.449 21.0094 29.9577 21.5781 30.5552 21.5514C30.6573 21.5447 30.764 21.5225 30.8684 21.4781L30.8861 21.4714C32.7319 20.6896 33.6848 18.7305 33.6515 16.7981C33.6093 14.7013 32.4254 12.9488 30.3508 12.3802V12.378ZM22.539 13.5752L20.6399 13.011L21.0397 11.0542L21.5528 11.2185L22.8966 11.645L22.5434 13.5574L22.539 13.5774V13.5752Z" fill="#663703"/>
<path d="M32.6808 23.746C32.7786 23.9103 32.723 24.1213 32.5609 24.219L28.2451 26.7845C28.0808 26.8822 27.8698 26.8267 27.772 26.6646C27.7121 26.5646 27.7076 26.4358 27.7609 26.3314C27.8498 26.1537 28.0852 26.0737 28.2163 25.9227C28.3362 25.785 28.4251 25.6228 28.485 25.4496C28.6094 25.0898 28.6205 24.6988 28.6139 24.3235C28.6094 24.1546 28.6028 23.9858 28.5961 23.817C28.5761 23.2373 28.5295 22.6531 28.4362 22.0779C29.1203 22.6842 29.8666 23.1729 30.6707 23.6038C30.9883 23.7748 31.3503 23.8526 31.708 23.7948C31.8879 23.7659 32.0589 23.7037 32.221 23.6216C32.3832 23.5394 32.5853 23.5771 32.683 23.7437L32.6808 23.746Z" fill="#663703"/>
</g>
</g>
<path d="M44.2687 1.4009L44.091 1.82737L43.8133 2.4915L43.087 4.24401L42.8516 4.81484L31.0038 33.3636L30.7728 33.9277L25.9462 45.5556L25.7241 46.0909L19.6492 60.7328L19.356 61.4392L18.5319 63.4227L18.4009 63.7403L18.2099 64.2067C14.5094 61.9967 11.1932 59.0558 8.49448 55.4353L8.54778 55.3065L8.58999 55.2066L9.65615 52.6344L9.99599 51.8059L20.8175 25.6805L20.8864 25.5139L22.7899 20.9161H22.7922L23.2475 19.8077H23.2497L24.9622 15.6697L25.0422 15.4765L26.215 12.6423L26.2216 12.6334L29.68 4.28399L29.9665 3.58876L30.704 1.80516L31.1171 0.805631L31.3836 0.161493C35.7394 -0.264972 40.1173 0.170377 44.262 1.40313L44.2687 1.4009Z" fill="url(#paint6_linear_68_40056)"/>
<path d="M63.8527 16.807C63.9127 16.9003 63.9705 16.998 64.0282 17.0935C64.1148 17.2401 64.2037 17.3889 64.2837 17.5355C64.2925 17.5422 64.297 17.5511 64.297 17.5577L64.2903 17.5777L63.0287 20.5785L62.7111 21.3337L51.9562 46.9549L51.7007 47.5591L50.5946 50.1956L50.3991 50.6643L50.3236 50.842L50.0082 51.5883L49.1286 53.6873L48.831 54.3959L45.1327 63.2072L44.7573 64.0957L43.8511 66.2569L43.5335 67.0121L43.0626 68.1271C40.2461 68.7757 37.3875 69.0489 34.5555 68.9667L34.9175 68.1027L35.1597 67.5252L35.9526 65.6394L36.2658 64.8909L39.7886 56.4993L40.0262 55.9329L41.1191 53.3364L41.3301 52.8277L42.1608 50.8575L42.5006 50.049L43.9266 46.6484L44.2487 45.8821L50.3547 31.3357L50.5635 30.8448H50.5657L53.1845 24.6011L53.4532 23.9614L57.7045 13.835L57.9644 13.2198L58.9395 10.8942L59.0461 10.6388L59.115 10.4811C60.8208 12.2802 62.3601 14.2948 63.6817 16.5182C63.7395 16.616 63.7994 16.7137 63.8527 16.8114V16.807Z" fill="url(#paint7_linear_68_40056)"/>
<defs>
<linearGradient id="paint0_linear_68_40056" x1="41.8632" y1="67.4153" x2="28.1461" y2="1.29434" gradientUnits="userSpaceOnUse">
<stop stop-color="#D3A150"/>
<stop offset="0.42" stop-color="#DDB264"/>
<stop offset="1" stop-color="#EFD186"/>
</linearGradient>
<linearGradient id="paint1_linear_68_40056" x1="19.0631" y1="7.57533" x2="50.9734" y2="61.2757" gradientUnits="userSpaceOnUse">
<stop stop-color="#513A01"/>
<stop offset="0.15" stop-color="#65440B"/>
<stop offset="0.46" stop-color="#986024"/>
<stop offset="0.58" stop-color="#AD6B2F"/>
<stop offset="1" stop-color="#FFE6CA"/>
</linearGradient>
<linearGradient id="paint2_linear_68_40056" x1="41.2766" y1="64.2888" x2="28.8633" y2="4.44922" gradientUnits="userSpaceOnUse">
<stop stop-color="#D3A150"/>
<stop offset="0.42" stop-color="#DDB264"/>
<stop offset="1" stop-color="#EFD186"/>
</linearGradient>
<radialGradient id="paint3_radial_68_40056" cx="0" cy="0" r="1" gradientUnits="userSpaceOnUse" gradientTransform="translate(41.2671 45.5805) rotate(-30.72) scale(22.0651 22.0651)">
<stop stop-color="white"/>
<stop offset="0.6" stop-color="#DDDDDD"/>
<stop offset="1" stop-color="#CCCCCC"/>
</radialGradient>
<radialGradient id="paint4_radial_68_40056" cx="0" cy="0" r="1" gradientUnits="userSpaceOnUse" gradientTransform="translate(24.1118 16.3933) rotate(-30.72) scale(8.27608)">
<stop stop-color="white"/>
<stop offset="0.6" stop-color="#DDDDDD"/>
<stop offset="1" stop-color="#CCCCCC"/>
</radialGradient>
<radialGradient id="paint5_radial_68_40056" cx="0" cy="0" r="1" gradientUnits="userSpaceOnUse" gradientTransform="translate(29.3888 23.8173) rotate(-30.72) scale(2.45439)">
<stop stop-color="white"/>
<stop offset="0.6" stop-color="#DDDDDD"/>
<stop offset="1" stop-color="#CCCCCC"/>
</radialGradient>
<linearGradient id="paint6_linear_68_40056" x1="11.0756" y1="79.9381" x2="34.5767" y2="0.824198" gradientUnits="userSpaceOnUse">
<stop stop-color="white" stop-opacity="0"/>
<stop offset="1" stop-color="white" stop-opacity="0.3"/>
</linearGradient>
<linearGradient id="paint7_linear_68_40056" x1="36.3049" y1="87.4325" x2="59.8047" y2="8.31667" gradientUnits="userSpaceOnUse">
<stop stop-color="white" stop-opacity="0"/>
<stop offset="1" stop-color="white" stop-opacity="0.3"/>
</linearGradient>
</defs>
</svg>
