<svg width="77" height="77" viewBox="0 0 77 77" fill="none" xmlns="http://www.w3.org/2000/svg">
<g filter="url(#filter0_f_68_39606)">
<path d="M67.3539 20.5137C67.4117 20.6115 67.4716 20.7092 67.5249 20.8069C67.6071 20.9447 67.6871 21.0868 67.767 21.2267L67.7915 21.2667C67.8514 21.3733 67.907 21.4755 67.9625 21.5799C76.6451 37.4502 71.2654 57.4629 55.5861 66.7807C52.9985 68.32 50.2909 69.4706 47.5255 70.2546C44.6624 71.0654 41.7416 71.4807 38.8341 71.5229C33.0368 71.6029 27.2973 70.1858 22.2064 67.4204C18.4615 65.3881 15.0698 62.6338 12.2622 59.2043C11.3715 58.1204 10.5386 56.9676 9.77227 55.7504L9.74783 55.7104C9.66342 55.5727 9.5768 55.4372 9.49462 55.2973C9.43465 55.204 9.3769 55.1063 9.31915 55.0063C-0.203014 38.9828 5.06116 18.2681 21.0914 8.74154C25.5048 6.11834 30.2692 4.61905 35.0625 4.15927C39.4182 3.7328 43.7962 4.16815 47.9409 5.4009C53.5049 7.04679 58.6514 10.1253 62.7894 14.4744C64.4953 16.2735 66.0345 18.2881 67.3561 20.5115L67.3539 20.5137Z" fill="#A37417"/>
<path d="M68.2179 21.9686C77.7423 37.9944 72.4781 58.7046 56.4457 68.2334C53.3472 70.0747 50.071 71.3652 46.7348 72.1249C43.9183 72.7735 41.0597 73.0467 38.2277 72.9645C32.4771 72.7935 26.8375 71.1542 21.8799 68.2023C18.1794 65.9922 14.8632 63.0514 12.1645 59.4309C11.4603 58.4891 10.7962 57.4963 10.181 56.4612C10.0943 56.3146 10.0077 56.1702 9.92774 56.0214C9.87221 55.9281 9.8189 55.8393 9.77003 55.7482L9.7456 55.7082C0.823162 39.7891 6.1784 19.5786 21.9576 10.2031C25.8957 7.86419 30.1115 6.41599 34.3806 5.80294C38.7874 5.16547 43.2409 5.41868 47.4855 6.49151C53.0895 7.91084 58.3315 10.7562 62.6117 14.8875C64.5419 16.7422 66.2788 18.8612 67.767 21.2245L67.7915 21.2645C67.847 21.3534 67.9003 21.4422 67.9558 21.5333C67.9647 21.5399 67.9692 21.5488 67.9692 21.5555C68.0558 21.6888 68.138 21.8265 68.2201 21.9642L68.2179 21.9686Z" fill="#6D3C1B"/>
<path d="M67.6982 21.0935C67.7848 21.2401 67.8737 21.3889 67.9536 21.5355C67.9625 21.5422 67.9669 21.551 67.9669 21.5577C77.1226 37.5213 71.8029 57.9227 55.926 67.3583C53.1317 69.0175 50.1976 70.228 47.2057 71.0099C44.3626 71.7584 41.4662 72.1138 38.5897 72.1005C32.8103 72.0849 27.113 70.5812 22.0731 67.7359C18.3482 65.6391 14.9831 62.8071 12.2178 59.3021C11.4004 58.267 10.6341 57.1764 9.92775 56.0236C9.83669 55.8837 9.74784 55.7349 9.66122 55.5883C9.60347 55.4928 9.54571 55.395 9.49241 55.2973C0.201248 39.316 5.50096 18.7946 21.4334 9.32573C25.6603 6.81358 30.207 5.32984 34.7915 4.80342C39.1672 4.29921 43.5763 4.66127 47.761 5.82738C53.3383 7.38664 58.5225 10.3719 62.7161 14.6343C64.5175 16.4601 66.1367 18.5192 67.5227 20.807C67.5827 20.9002 67.6404 20.998 67.6982 21.0935Z" fill="url(#paint0_linear_68_39606)"/>
<path d="M65.5414 22.455C74.355 37.2858 69.4796 56.4501 54.651 65.2637C39.8225 74.0773 20.6582 69.1996 11.8446 54.3688C3.03323 39.5425 7.90869 20.376 22.735 11.5646C37.5613 2.75325 56.7278 7.62873 65.5392 22.455H65.5414Z" fill="url(#paint1_linear_68_39606)" stroke="#281401" stroke-width="0.00888468" stroke-miterlimit="10"/>
<path d="M65.0061 22.746C73.6265 37.2503 68.8532 55.997 54.3512 64.6173C39.8469 73.2377 21.1025 68.4688 12.4821 53.9646C3.86173 39.4603 8.63059 20.7159 23.1348 12.0955C37.6391 3.47516 56.3858 8.24179 65.0061 22.746Z" fill="url(#paint2_linear_68_39606)"/>
<g style="mix-blend-mode:multiply">
<path d="M64.6018 29.2896C64.4708 29.6606 64.2065 29.9204 63.8999 30.1426C63.2824 30.5912 62.5828 30.88 61.8898 31.1732C60.9147 31.5885 59.9307 31.975 59.0023 32.4792L58.9911 32.4859C58.8956 32.5436 58.7935 32.5903 58.6957 32.6458C56.881 33.6387 55.0552 34.6426 53.4871 36.0064C50.102 38.9539 47.2212 43.7317 47.923 48.3806C48.2074 50.2641 48.9848 51.9056 50.3774 53.2294C50.6129 53.4515 50.8839 53.6359 51.1504 53.8158C51.6302 54.1379 52.1499 54.1534 52.643 53.8891C53.1983 53.5959 53.7336 53.2583 54.2623 52.9229C54.9664 52.4764 55.6838 52.0655 56.519 51.9167C57.4963 51.739 58.5514 52.0477 59.3332 52.6497C58.5736 52.5097 58.0183 52.8762 57.5229 53.336C57.0032 53.8113 56.5212 54.3311 56.0237 54.8264C55.8771 54.9708 55.7238 55.1107 55.5639 55.2373C55.3173 55.4328 55.0552 55.5927 54.7109 55.6305C54.8331 55.746 54.9508 55.8415 55.0463 55.957C55.2596 56.2213 55.3662 56.5367 55.4328 56.8632C55.4972 57.1986 55.5572 57.5385 55.6216 57.8739C55.8349 58.9845 56.1902 59.7263 57.3053 60.3105C57.0054 60.2927 56.7078 60.2861 56.4124 60.2594C54.9419 60.1284 53.8491 59.3976 53.085 58.1493C52.7852 57.6584 52.4898 57.1675 52.181 56.6878C51.6368 55.8393 50.8816 55.2418 49.9221 54.9242C49.4712 54.7731 49.0359 54.5954 48.6249 54.3933C48.6072 54.8509 48.5583 55.3151 48.4761 55.786C48.2962 56.7788 48.4628 57.7273 48.947 58.6135C49.2202 59.1155 49.5112 59.6108 49.7977 60.1061C50.5307 61.3722 50.6484 62.6827 50.062 64.0376C49.9443 64.3108 49.8066 64.5751 49.68 64.8461C49.7022 63.5867 49.2202 62.9204 48.3451 62.2029C48.0807 61.9853 47.812 61.772 47.5477 61.5521C47.2945 61.3367 47.0679 61.0924 46.9368 60.7792C46.8835 60.6392 46.8547 60.4904 46.8125 60.3283C46.6148 60.6126 46.3482 60.7658 46.0595 60.8902C45.8707 60.9702 45.6752 61.0368 45.4775 61.0968C44.8023 61.2989 44.1182 61.4744 43.4518 61.7032C42.8121 61.9208 42.2235 62.234 41.9836 62.967C41.8282 61.9919 42.0614 60.9191 42.6833 60.1439C43.2142 59.482 43.9161 59.0489 44.6446 58.6446C45.191 58.3403 45.7463 58.0316 46.2683 57.6828C46.7369 57.3763 46.9702 56.9121 46.9169 56.3368C46.8858 56.017 46.8547 55.6905 46.7703 55.3773C46.2749 53.5226 45.2021 52.0544 43.6851 50.9038C39.9379 48.0652 34.3672 48.3117 30.1559 49.8777C28.2102 50.604 26.4554 51.7279 24.7185 52.8451C24.623 52.9051 24.5341 52.9717 24.4342 53.0317L24.4231 53.0384C23.5368 53.6137 22.7261 54.2956 21.8954 54.9508C21.3067 55.4195 20.7181 55.8948 20.0296 56.2235C19.6875 56.3857 19.3321 56.4945 18.9456 56.4323C18.517 56.3613 18.3015 56.108 18.3437 55.6793C18.3659 55.455 18.4148 55.2174 18.5036 55.0108C18.7235 54.5021 18.9545 53.9979 19.2077 53.5026C19.4787 52.9629 19.6475 52.4076 19.7208 51.7967C20.0607 48.9492 21.2246 46.4904 23.3125 44.4958C24.7895 43.0831 26.5487 42.1391 28.4678 41.4683C28.5766 41.4328 28.6899 41.3484 28.7588 41.2595C29.5917 40.1134 30.6334 39.1938 31.8418 38.4653C33.1767 37.6634 34.6182 37.137 36.1486 36.8549C36.5595 36.7772 36.9771 36.7283 37.3947 36.6684C36.062 37.6923 34.9714 38.8784 34.3917 40.4888C34.4294 40.5043 34.4428 40.511 34.4539 40.5132C34.5138 40.5176 34.576 40.5221 34.6404 40.5243C35.9376 40.5887 37.2103 40.8042 38.4364 41.2329C39.6159 41.6438 40.7131 42.1524 41.7171 42.7588C41.6593 41.5882 41.7371 40.3821 41.9414 39.1494C42.1524 37.8678 42.57 36.6461 43.1342 35.4778C43.1609 35.4201 43.1897 35.3645 43.2119 35.309C43.2164 35.2979 43.2164 35.2823 43.2208 35.2424C41.5305 34.9803 39.9668 35.3712 38.4298 36.0531C38.6808 35.7155 38.9251 35.3712 39.1894 35.0491C40.1689 33.8408 41.3195 32.8257 42.6633 32.035C43.8783 31.3198 45.1843 30.8467 46.5903 30.6623C46.7014 30.6445 46.8302 30.5846 46.9124 30.5068C48.4184 29.143 50.0887 28.048 52.0344 27.4261C54.7842 26.5443 57.5007 26.6975 60.1639 27.7615C60.7348 27.988 61.3056 28.1057 61.9075 28.1257C62.4628 28.1413 63.0181 28.179 63.569 28.2301C63.7933 28.2523 64.0265 28.3212 64.2331 28.41C64.6307 28.5766 64.7506 28.8898 64.6063 29.2985L64.6018 29.2896Z" fill="#3A2415"/>
<path d="M64.1798 29.9471C64.0487 30.318 63.7844 30.5779 63.4779 30.8C62.8604 31.2487 62.1607 31.5375 61.4677 31.8306C60.4926 32.246 59.5087 32.6325 58.5802 33.1367L58.5691 33.1434C58.4736 33.2011 58.3714 33.2478 58.2737 33.3033C56.459 34.2961 54.6332 35.3001 53.065 36.6639C49.68 39.6114 46.7991 44.3892 47.501 49.0381C47.7853 50.9216 48.5627 52.5631 49.9554 53.8869C50.1908 54.109 50.4618 54.2933 50.7284 54.4733C51.2082 54.7953 51.7279 54.8109 52.221 54.5466C52.7763 54.2534 53.3116 53.9158 53.8402 53.5804C54.5443 53.1339 55.2618 52.723 56.0969 52.5742C57.0743 52.3965 58.1293 52.7052 58.9112 53.3071C58.1515 53.1672 57.5962 53.5337 57.1009 53.9935C56.5812 54.4688 56.0992 54.9886 55.6016 55.4839C55.455 55.6283 55.3018 55.7682 55.1418 55.8948C54.8953 56.0903 54.6332 56.2502 54.2889 56.288C54.4111 56.4035 54.5288 56.499 54.6243 56.6145C54.8375 56.8788 54.9442 57.1942 55.0108 57.5207C55.0752 57.8561 55.1352 58.1959 55.1996 58.5313C55.4128 59.6419 55.7682 60.3838 56.8832 60.968C56.5834 60.9502 56.2858 60.9435 55.9903 60.9169C54.5199 60.7858 53.4271 60.0551 52.663 58.8068C52.3632 58.3159 52.0677 57.825 51.759 57.3452C51.2148 56.4967 50.4596 55.8993 49.5001 55.5816C49.0492 55.4306 48.6138 55.2529 48.2029 55.0508C48.1851 55.5083 48.1363 55.9726 48.0541 56.4434C47.8742 57.4363 48.0408 58.3848 48.525 59.271C48.7982 59.773 49.0891 60.2683 49.3757 60.7636C50.1087 62.0297 50.2264 63.3402 49.64 64.6951C49.5223 64.9683 49.3846 65.2326 49.258 65.5036C49.2802 64.2442 48.7982 63.5778 47.923 62.8604C47.6587 62.6427 47.39 62.4295 47.1256 62.2096C46.8724 61.9942 46.6459 61.7498 46.5148 61.4366C46.4615 61.2967 46.4326 61.1479 46.3904 60.9857C46.1927 61.27 45.9262 61.4233 45.6374 61.5477C45.4486 61.6277 45.2532 61.6943 45.0555 61.7543C44.3803 61.9564 43.6961 62.1319 43.0298 62.3606C42.3901 62.5783 41.8015 62.8915 41.5616 63.6245C41.4061 62.6494 41.6393 61.5766 42.2613 60.8014C42.7921 60.1395 43.494 59.7063 44.2226 59.3021C44.769 58.9978 45.3243 58.6891 45.8462 58.3403C46.3149 58.0338 46.5481 57.5696 46.4948 56.9943C46.4637 56.6744 46.4326 56.3479 46.3482 56.0348C45.8529 54.1801 44.7801 52.7119 43.263 51.5613C39.5159 48.7227 33.9452 48.9692 29.7339 50.5351C27.7881 51.2615 26.0334 52.3854 24.2964 53.5026C24.2009 53.5626 24.1121 53.6292 24.0121 53.6892L24.001 53.6959C23.1148 54.2711 22.3041 54.953 21.4733 55.6083C20.8847 56.0769 20.2961 56.5523 19.6076 56.881C19.2655 57.0432 18.9101 57.152 18.5236 57.0898C18.0949 57.0187 17.8795 56.7655 17.9217 56.3368C17.9439 56.1125 17.9928 55.8748 18.0816 55.6683C18.3015 55.1596 18.5325 54.6554 18.7857 54.1601C19.0567 53.6203 19.2255 53.065 19.2988 52.4542C19.6386 49.6067 20.8025 47.1479 22.8904 45.1532C24.3675 43.7406 26.1267 42.7966 28.0458 42.1258C28.1546 42.0902 28.2679 42.0058 28.3368 41.917C29.1697 40.7709 30.2114 39.8513 31.4197 39.1228C32.7547 38.3209 34.1962 37.7945 35.7266 37.5124C36.1375 37.4347 36.5551 37.3858 36.9727 37.3258C35.64 38.3498 34.5494 39.5359 33.9696 41.1462C34.0074 41.1618 34.0207 41.1684 34.0318 41.1707C34.0918 41.1751 34.154 41.1796 34.2184 41.1818C35.5156 41.2462 36.7883 41.4617 38.0144 41.8903C39.1938 42.3013 40.2911 42.8099 41.2951 43.4163C41.2373 42.2457 41.3151 41.0396 41.5194 39.8069C41.7304 38.5253 42.148 37.3036 42.7122 36.1353C42.7388 36.0775 42.7677 36.022 42.7899 35.9665C42.7944 35.9554 42.7944 35.9398 42.7988 35.8998C41.1085 35.6377 39.5448 36.0287 38.0077 36.7106C38.2587 36.3729 38.503 36.0287 38.7674 35.7066C39.7469 34.4983 40.8975 33.4832 42.2413 32.6925C43.4563 31.9772 44.7623 31.5041 46.1683 31.3198C46.2794 31.302 46.4082 31.242 46.4904 31.1643C47.9963 29.8005 49.6667 28.7055 51.6124 28.0835C54.3622 27.2017 57.0787 27.355 59.7419 28.4189C60.3127 28.6455 60.8836 28.7632 61.4855 28.7832C62.0408 28.7988 62.5961 28.8365 63.1469 28.8876C63.3713 28.9098 63.6045 28.9787 63.8111 29.0675C64.2087 29.2341 64.3286 29.5473 64.1842 29.956L64.1798 29.9471Z" fill="url(#paint3_radial_68_39606)"/>
<path opacity="0.85" d="M64.1798 29.9471C64.0487 30.318 63.7844 30.5779 63.4779 30.8C62.8604 31.2487 62.1607 31.5375 61.4677 31.8306C60.4926 32.246 59.5087 32.6325 58.5802 33.1367L58.5691 33.1434C58.4736 33.2011 58.3714 33.2478 58.2737 33.3033C56.459 34.2961 54.6332 35.3001 53.065 36.6639C49.68 39.6114 46.7991 44.3892 47.501 49.0381C47.7853 50.9216 48.5627 52.5631 49.9554 53.8869C50.1908 54.109 50.4618 54.2933 50.7284 54.4733C51.2082 54.7953 51.7279 54.8109 52.221 54.5466C52.7763 54.2534 53.3116 53.9158 53.8402 53.5804C54.5443 53.1339 55.2618 52.723 56.0969 52.5742C57.0743 52.3965 58.1293 52.7052 58.9112 53.3071C58.1515 53.1672 57.5962 53.5337 57.1009 53.9935C56.5812 54.4688 56.0992 54.9886 55.6016 55.4839C55.455 55.6283 55.3018 55.7682 55.1418 55.8948C54.8953 56.0903 54.6332 56.2502 54.2889 56.288C54.4111 56.4035 54.5288 56.499 54.6243 56.6145C54.8375 56.8788 54.9442 57.1942 55.0108 57.5207C55.0752 57.8561 55.1352 58.1959 55.1996 58.5313C55.4128 59.6419 55.7682 60.3838 56.8832 60.968C56.5834 60.9502 56.2858 60.9435 55.9903 60.9169C54.5199 60.7858 53.4271 60.0551 52.663 58.8068C52.3632 58.3159 52.0677 57.825 51.759 57.3452C51.2148 56.4967 50.4596 55.8993 49.5001 55.5816C49.0492 55.4306 48.6138 55.2529 48.2029 55.0508C48.1851 55.5083 48.1363 55.9726 48.0541 56.4434C47.8742 57.4363 48.0408 58.3848 48.525 59.271C48.7982 59.773 49.0891 60.2683 49.3757 60.7636C50.1087 62.0297 50.2264 63.3402 49.64 64.6951C49.5223 64.9683 49.3846 65.2326 49.258 65.5036C49.2802 64.2442 48.7982 63.5778 47.923 62.8604C47.6587 62.6427 47.39 62.4295 47.1256 62.2096C46.8724 61.9942 46.6459 61.7498 46.5148 61.4366C46.4615 61.2967 46.4326 61.1479 46.3904 60.9857C46.1927 61.27 45.9262 61.4233 45.6374 61.5477C45.4486 61.6277 45.2532 61.6943 45.0555 61.7543C44.3803 61.9564 43.6961 62.1319 43.0298 62.3606C42.3901 62.5783 41.8015 62.8915 41.5616 63.6245C41.4061 62.6494 41.6393 61.5766 42.2613 60.8014C42.7921 60.1395 43.494 59.7063 44.2226 59.3021C44.769 58.9978 45.3243 58.6891 45.8462 58.3403C46.3149 58.0338 46.5481 57.5696 46.4948 56.9943C46.4637 56.6744 46.4326 56.3479 46.3482 56.0348C45.8529 54.1801 44.7801 52.7119 43.263 51.5613C39.5159 48.7227 33.9452 48.9692 29.7339 50.5351C27.7881 51.2615 26.0334 52.3854 24.2964 53.5026C24.2009 53.5626 24.1121 53.6292 24.0121 53.6892L24.001 53.6959C23.1148 54.2711 22.3041 54.953 21.4733 55.6083C20.8847 56.0769 20.2961 56.5523 19.6076 56.881C19.2655 57.0432 18.9101 57.152 18.5236 57.0898C18.0949 57.0187 17.8795 56.7655 17.9217 56.3368C17.9439 56.1125 17.9928 55.8748 18.0816 55.6683C18.3015 55.1596 18.5325 54.6554 18.7857 54.1601C19.0567 53.6203 19.2255 53.065 19.2988 52.4542C19.6386 49.6067 20.8025 47.1479 22.8904 45.1532C24.3675 43.7406 26.1267 42.7966 28.0458 42.1258C28.1546 42.0902 28.2679 42.0058 28.3368 41.917C29.1697 40.7709 30.2114 39.8513 31.4197 39.1228C32.7547 38.3209 34.1962 37.7945 35.7266 37.5124C36.1375 37.4347 36.5551 37.3858 36.9727 37.3258C35.64 38.3498 34.5494 39.5359 33.9696 41.1462C34.0074 41.1618 34.0207 41.1684 34.0318 41.1707C34.0918 41.1751 34.154 41.1796 34.2184 41.1818C35.5156 41.2462 36.7883 41.4617 38.0144 41.8903C39.1938 42.3013 40.2911 42.8099 41.2951 43.4163C41.2373 42.2457 41.3151 41.0396 41.5194 39.8069C41.7304 38.5253 42.148 37.3036 42.7122 36.1353C42.7388 36.0775 42.7677 36.022 42.7899 35.9665C42.7944 35.9554 42.7944 35.9398 42.7988 35.8998C41.1085 35.6377 39.5448 36.0287 38.0077 36.7106C38.2587 36.3729 38.503 36.0287 38.7674 35.7066C39.7469 34.4983 40.8975 33.4832 42.2413 32.6925C43.4563 31.9772 44.7623 31.5041 46.1683 31.3198C46.2794 31.302 46.4082 31.242 46.4904 31.1643C47.9963 29.8005 49.6667 28.7055 51.6124 28.0835C54.3622 27.2017 57.0787 27.355 59.7419 28.4189C60.3127 28.6455 60.8836 28.7632 61.4855 28.7832C62.0408 28.7988 62.5961 28.8365 63.1469 28.8876C63.3713 28.9098 63.6045 28.9787 63.8111 29.0675C64.2087 29.2341 64.3286 29.5473 64.1842 29.956L64.1798 29.9471Z" fill="#724401"/>
<g style="mix-blend-mode:hard-light">
<path opacity="0.85" d="M64.1798 29.9471C64.0487 30.318 63.7844 30.5779 63.4779 30.8C62.8604 31.2487 62.1607 31.5375 61.4677 31.8306C60.4926 32.246 59.5087 32.6325 58.5802 33.1367L58.5691 33.1434C58.4736 33.2011 58.3714 33.2478 58.2737 33.3033C56.459 34.2961 54.6332 35.3001 53.065 36.6639C49.68 39.6114 46.7991 44.3892 47.501 49.0381C47.7853 50.9216 48.5627 52.5631 49.9554 53.8869C50.1908 54.109 50.4618 54.2933 50.7284 54.4733C51.2082 54.7953 51.7279 54.8109 52.221 54.5466C52.7763 54.2534 53.3116 53.9158 53.8402 53.5804C54.5443 53.1339 55.2618 52.723 56.0969 52.5742C57.0743 52.3965 58.1293 52.7052 58.9112 53.3071C58.1515 53.1672 57.5962 53.5337 57.1009 53.9935C56.5812 54.4688 56.0992 54.9886 55.6016 55.4839C55.455 55.6283 55.3018 55.7682 55.1418 55.8948C54.8953 56.0903 54.6332 56.2502 54.2889 56.288C54.4111 56.4035 54.5288 56.499 54.6243 56.6145C54.8375 56.8788 54.9442 57.1942 55.0108 57.5207C55.0752 57.8561 55.1352 58.1959 55.1996 58.5313C55.4128 59.6419 55.7682 60.3838 56.8832 60.968C56.5834 60.9502 56.2858 60.9435 55.9903 60.9169C54.5199 60.7858 53.4271 60.0551 52.663 58.8068C52.3632 58.3159 52.0677 57.825 51.759 57.3452C51.2148 56.4967 50.4596 55.8993 49.5001 55.5816C49.0492 55.4306 48.6138 55.2529 48.2029 55.0508C48.1851 55.5083 48.1363 55.9726 48.0541 56.4434C47.8742 57.4363 48.0408 58.3848 48.525 59.271C48.7982 59.773 49.0891 60.2683 49.3757 60.7636C50.1087 62.0297 50.2264 63.3402 49.64 64.6951C49.5223 64.9683 49.3846 65.2326 49.258 65.5036C49.2802 64.2442 48.7982 63.5778 47.923 62.8604C47.6587 62.6427 47.39 62.4295 47.1256 62.2096C46.8724 61.9942 46.6459 61.7498 46.5148 61.4366C46.4615 61.2967 46.4326 61.1479 46.3904 60.9857C46.1927 61.27 45.9262 61.4233 45.6374 61.5477C45.4486 61.6277 45.2532 61.6943 45.0555 61.7543C44.3803 61.9564 43.6961 62.1319 43.0298 62.3606C42.3901 62.5783 41.8015 62.8915 41.5616 63.6245C41.4061 62.6494 41.6393 61.5766 42.2613 60.8014C42.7921 60.1395 43.494 59.7063 44.2226 59.3021C44.769 58.9978 45.3243 58.6891 45.8462 58.3403C46.3149 58.0338 46.5481 57.5696 46.4948 56.9943C46.4637 56.6744 46.4326 56.3479 46.3482 56.0348C45.8529 54.1801 44.7801 52.7119 43.263 51.5613C39.5159 48.7227 33.9452 48.9692 29.7339 50.5351C27.7881 51.2615 26.0334 52.3854 24.2964 53.5026C24.2009 53.5626 24.1121 53.6292 24.0121 53.6892L24.001 53.6959C23.1148 54.2711 22.3041 54.953 21.4733 55.6083C20.8847 56.0769 20.2961 56.5523 19.6076 56.881C19.2655 57.0432 18.9101 57.152 18.5236 57.0898C18.0949 57.0187 17.8795 56.7655 17.9217 56.3368C17.9439 56.1125 17.9928 55.8748 18.0816 55.6683C18.3015 55.1596 18.5325 54.6554 18.7857 54.1601C19.0567 53.6203 19.2255 53.065 19.2988 52.4542C19.6386 49.6067 20.8025 47.1479 22.8904 45.1532C24.3675 43.7406 26.1267 42.7966 28.0458 42.1258C28.1546 42.0902 28.2679 42.0058 28.3368 41.917C29.1697 40.7709 30.2114 39.8513 31.4197 39.1228C32.7547 38.3209 34.1962 37.7945 35.7266 37.5124C36.1375 37.4347 36.5551 37.3858 36.9727 37.3258C35.64 38.3498 34.5494 39.5359 33.9696 41.1462C34.0074 41.1618 34.0207 41.1684 34.0318 41.1707C34.0918 41.1751 34.154 41.1796 34.2184 41.1818C35.5156 41.2462 36.7883 41.4617 38.0144 41.8903C39.1938 42.3013 40.2911 42.8099 41.2951 43.4163C41.2373 42.2457 41.3151 41.0396 41.5194 39.8069C41.7304 38.5253 42.148 37.3036 42.7122 36.1353C42.7388 36.0775 42.7677 36.022 42.7899 35.9665C42.7944 35.9554 42.7944 35.9398 42.7988 35.8998C41.1085 35.6377 39.5448 36.0287 38.0077 36.7106C38.2587 36.3729 38.503 36.0287 38.7674 35.7066C39.7469 34.4983 40.8975 33.4832 42.2413 32.6925C43.4563 31.9772 44.7623 31.5041 46.1683 31.3198C46.2794 31.302 46.4082 31.242 46.4904 31.1643C47.9963 29.8005 49.6667 28.7055 51.6124 28.0835C54.3622 27.2017 57.0787 27.355 59.7419 28.4189C60.3127 28.6455 60.8836 28.7632 61.4855 28.7832C62.0408 28.7988 62.5961 28.8365 63.1469 28.8876C63.3713 28.9098 63.6045 28.9787 63.8111 29.0675C64.2087 29.2341 64.3286 29.5473 64.1842 29.956L64.1798 29.9471Z" fill="#663703"/>
</g>
<path d="M34.5383 16.5112L29.2585 15.0586L24.3453 13.7059V13.7148C24.2542 14.0746 21.9065 23.6523 21.9042 23.659C21.4511 25.5136 22.0175 27.6882 23.5324 28.8743C23.7411 29.0431 23.9699 29.1875 24.2165 29.3141C24.4408 29.4296 24.674 29.5206 24.9139 29.5917C24.9228 29.5939 24.9339 29.5962 24.9428 29.5984C26.4621 30.067 28.239 29.7605 29.5428 28.8809C30.8578 27.9991 31.9928 26.2044 31.5774 24.5652C31.3686 23.75 30.7712 23.1081 30.0893 22.6461C30.0893 22.6461 29.625 22.2507 28.8943 22.1441C28.1591 22.0286 27.1529 22.2063 26.0778 23.3658L25.5758 23.9411H25.5736L24.2298 25.4848C24.001 25.7269 23.6412 25.7002 23.4324 25.5114C23.3147 25.4137 23.2436 25.2715 23.2525 25.0939C23.2614 24.8406 23.6878 23.9544 23.8944 23.5213C23.8944 23.5213 24.0032 22.8793 24.0454 22.2285C24.1076 21.2024 24.5141 20.2139 25.2738 19.5187C25.849 18.9967 26.6886 18.5214 27.9081 18.3148C28.6033 18.1949 29.4185 18.1638 30.3847 18.2549C30.5624 18.2704 30.7423 18.2482 30.9 18.1705C31.1332 18.0572 31.5419 17.9106 32.0328 17.9661C32.5681 18.0216 33.1989 18.3215 33.8075 19.1678C33.8075 19.1678 32.708 18.7902 31.6796 19.4676C31.6618 19.4787 31.6441 19.4921 31.6263 19.5032C31.6263 19.5032 31.6818 19.4987 31.7773 19.5032C32.1327 19.5365 33.0456 19.7541 33.6653 21.1402C33.6653 21.1402 34.365 22.5217 33.8142 24.5075C33.6964 24.9428 33.8986 25.3471 34.2273 25.5492C34.465 25.6936 34.7648 25.7335 35.058 25.6092L35.0758 25.6025C36.9171 24.8229 37.8745 22.8616 37.8411 20.9291C37.7989 18.8324 36.6151 17.0799 34.5405 16.5112H34.5383ZM25.2271 15.1852L27.0796 15.7783L26.7264 17.7084L26.2133 17.5574L24.8273 17.1443L25.2227 15.2207L25.2293 15.1874L25.2271 15.1852Z" fill="#3A2415"/>
<path d="M36.8683 27.877C36.966 28.0413 36.9105 28.2523 36.7483 28.3501L32.4326 30.9155C32.2682 31.0133 32.0572 30.9577 31.9595 30.7956C31.8995 30.6956 31.8951 30.5668 31.9484 30.4624C32.0372 30.2847 32.2727 30.2047 32.4037 30.0537C32.5237 29.916 32.6125 29.7538 32.6725 29.5806C32.7969 29.2208 32.808 28.8298 32.8013 28.4545C32.7969 28.2857 32.7902 28.1169 32.7836 27.948C32.7636 27.3683 32.7169 26.7841 32.6236 26.2089C33.3078 26.8152 34.0541 27.3039 34.8581 27.7348C35.1758 27.9058 35.5378 27.9836 35.8954 27.9258C36.0753 27.897 36.2464 27.8348 36.4085 27.7526C36.5707 27.6704 36.7728 27.7082 36.8705 27.8747L36.8683 27.877Z" fill="#3A2415"/>
<path d="M34.0208 16.378L29.2541 15.0653L24.3476 13.7148L23.8322 13.5726C23.8322 13.5726 21.3956 23.519 21.3912 23.5257C20.8959 25.5514 21.6177 27.9614 23.4635 29.052C23.5413 29.0986 23.6212 29.143 23.7056 29.1852C24.0877 29.3763 24.4964 29.5118 24.9206 29.5917C24.9295 29.5939 24.9406 29.5962 24.9495 29.5984C26.3444 29.856 27.8748 29.5273 29.032 28.7499C30.3469 27.8681 31.482 26.0734 31.0666 24.4342C30.8578 23.619 30.2603 22.9771 29.5784 22.5151C29.5784 22.5151 29.3252 22.3018 28.901 22.1464C28.259 21.9065 27.2262 21.8043 26.0756 22.7527H26.0734C25.9068 22.8904 25.738 23.0504 25.567 23.2347L23.7212 25.3493C23.639 25.4359 23.5391 25.487 23.4391 25.5092C23.1015 25.5892 22.7239 25.3515 22.7394 24.9606C22.7505 24.7118 23.177 23.8211 23.3813 23.388C23.3813 23.388 23.4902 22.7461 23.5324 22.0953C23.5946 21.0691 24.0033 20.0807 24.7607 19.3854C25.427 18.7791 26.4466 18.2415 27.9992 18.106C28.55 18.0505 29.1719 18.055 29.8694 18.1216C30.0493 18.1416 30.227 18.1149 30.3847 18.0372C30.6979 17.8861 31.322 17.6729 32.035 17.9661C32.4371 18.1283 32.8746 18.4525 33.29 19.0345C33.29 19.0345 32.1505 18.6413 31.111 19.3699C31.111 19.3699 31.3465 19.3477 31.6796 19.4676C31.7107 19.4787 31.7441 19.4921 31.7774 19.5054C32.1972 19.6831 32.7369 20.0896 33.1478 21.0091C33.1478 21.0091 33.8453 22.3929 33.2922 24.3786C33.119 25.0094 33.6276 25.5781 34.2251 25.5514C34.3273 25.5447 34.4339 25.5225 34.5383 25.4781L34.5561 25.4714C36.4018 24.6896 37.3547 22.7305 37.3214 20.7981C37.2792 18.7013 36.0953 16.9488 34.0208 16.3802V16.378ZM26.2089 17.5752L24.3098 17.011L24.7096 15.0542L25.2227 15.2185L26.5665 15.645L26.2133 17.5574L26.2089 17.5774V17.5752Z" fill="url(#paint4_radial_68_39606)"/>
<path d="M36.3507 27.746C36.4485 27.9103 36.3929 28.1213 36.2308 28.219L31.9151 30.7845C31.7507 30.8822 31.5397 30.8267 31.442 30.6646C31.382 30.5646 31.3775 30.4358 31.4308 30.3314C31.5197 30.1537 31.7551 30.0737 31.8862 29.9227C32.0061 29.785 32.095 29.6228 32.155 29.4496C32.2793 29.0898 32.2904 28.6988 32.2838 28.3235C32.2793 28.1546 32.2727 27.9858 32.266 27.817C32.246 27.2373 32.1994 26.6531 32.1061 26.0779C32.7902 26.6842 33.5365 27.1729 34.3406 27.6038C34.6582 27.7748 35.0203 27.8526 35.3779 27.7948C35.5578 27.7659 35.7288 27.7037 35.891 27.6216C36.0531 27.5394 36.2552 27.5771 36.353 27.7437L36.3507 27.746Z" fill="url(#paint5_radial_68_39606)"/>
<g opacity="0.85">
<path d="M34.0208 16.378L29.2541 15.0653L24.3476 13.7148L23.8322 13.5726C23.8322 13.5726 21.3956 23.519 21.3912 23.5257C20.8959 25.5514 21.6177 27.9614 23.4635 29.052C23.5413 29.0986 23.6212 29.143 23.7056 29.1852C24.0877 29.3763 24.4964 29.5118 24.9206 29.5917C24.9295 29.5939 24.9406 29.5962 24.9495 29.5984C26.3444 29.856 27.8748 29.5273 29.032 28.7499C30.3469 27.8681 31.482 26.0734 31.0666 24.4342C30.8578 23.619 30.2603 22.9771 29.5784 22.5151C29.5784 22.5151 29.3252 22.3018 28.901 22.1464C28.259 21.9065 27.2262 21.8043 26.0756 22.7527H26.0734C25.9068 22.8904 25.738 23.0504 25.567 23.2347L23.7212 25.3493C23.639 25.4359 23.5391 25.487 23.4391 25.5092C23.1015 25.5892 22.7239 25.3515 22.7394 24.9606C22.7505 24.7118 23.177 23.8211 23.3813 23.388C23.3813 23.388 23.4902 22.7461 23.5324 22.0953C23.5946 21.0691 24.0033 20.0807 24.7607 19.3854C25.427 18.7791 26.4466 18.2415 27.9992 18.106C28.55 18.0505 29.1719 18.055 29.8694 18.1216C30.0493 18.1416 30.227 18.1149 30.3847 18.0372C30.6979 17.8861 31.322 17.6729 32.035 17.9661C32.4371 18.1283 32.8746 18.4525 33.29 19.0345C33.29 19.0345 32.1505 18.6413 31.111 19.3699C31.111 19.3699 31.3465 19.3477 31.6796 19.4676C31.7107 19.4787 31.7441 19.4921 31.7774 19.5054C32.1972 19.6831 32.7369 20.0896 33.1478 21.0091C33.1478 21.0091 33.8453 22.3929 33.2922 24.3786C33.119 25.0094 33.6276 25.5781 34.2251 25.5514C34.3273 25.5447 34.4339 25.5225 34.5383 25.4781L34.5561 25.4714C36.4018 24.6896 37.3547 22.7305 37.3214 20.7981C37.2792 18.7013 36.0953 16.9488 34.0208 16.3802V16.378ZM26.2089 17.5752L24.3098 17.011L24.7096 15.0542L25.2227 15.2185L26.5665 15.645L26.2133 17.5574L26.2089 17.5774V17.5752Z" fill="#724401"/>
<path d="M36.3507 27.746C36.4485 27.9103 36.3929 28.1213 36.2308 28.219L31.9151 30.7845C31.7507 30.8822 31.5397 30.8267 31.442 30.6646C31.382 30.5646 31.3775 30.4358 31.4308 30.3314C31.5197 30.1537 31.7551 30.0737 31.8862 29.9227C32.0061 29.785 32.095 29.6228 32.155 29.4496C32.2793 29.0898 32.2904 28.6988 32.2838 28.3235C32.2793 28.1546 32.2727 27.9858 32.266 27.817C32.246 27.2373 32.1994 26.6531 32.1061 26.0779C32.7902 26.6842 33.5365 27.1729 34.3406 27.6038C34.6582 27.7748 35.0203 27.8526 35.3779 27.7948C35.5578 27.7659 35.7288 27.7037 35.891 27.6216C36.0531 27.5394 36.2552 27.5771 36.353 27.7437L36.3507 27.746Z" fill="#724401"/>
</g>
<g opacity="0.85">
<path d="M34.0208 16.378L29.2541 15.0653L24.3476 13.7148L23.8322 13.5726C23.8322 13.5726 21.3956 23.519 21.3912 23.5257C20.8959 25.5514 21.6177 27.9614 23.4635 29.052C23.5413 29.0986 23.6212 29.143 23.7056 29.1852C24.0877 29.3763 24.4964 29.5118 24.9206 29.5917C24.9295 29.5939 24.9406 29.5962 24.9495 29.5984C26.3444 29.856 27.8748 29.5273 29.032 28.7499C30.3469 27.8681 31.482 26.0734 31.0666 24.4342C30.8578 23.619 30.2603 22.9771 29.5784 22.5151C29.5784 22.5151 29.3252 22.3018 28.901 22.1464C28.259 21.9065 27.2262 21.8043 26.0756 22.7527H26.0734C25.9068 22.8904 25.738 23.0504 25.567 23.2347L23.7212 25.3493C23.639 25.4359 23.5391 25.487 23.4391 25.5092C23.1015 25.5892 22.7239 25.3515 22.7394 24.9606C22.7505 24.7118 23.177 23.8211 23.3813 23.388C23.3813 23.388 23.4902 22.7461 23.5324 22.0953C23.5946 21.0691 24.0033 20.0807 24.7607 19.3854C25.427 18.7791 26.4466 18.2415 27.9992 18.106C28.55 18.0505 29.1719 18.055 29.8694 18.1216C30.0493 18.1416 30.227 18.1149 30.3847 18.0372C30.6979 17.8861 31.322 17.6729 32.035 17.9661C32.4371 18.1283 32.8746 18.4525 33.29 19.0345C33.29 19.0345 32.1505 18.6413 31.111 19.3699C31.111 19.3699 31.3465 19.3477 31.6796 19.4676C31.7107 19.4787 31.7441 19.4921 31.7774 19.5054C32.1972 19.6831 32.7369 20.0896 33.1478 21.0091C33.1478 21.0091 33.8453 22.3929 33.2922 24.3786C33.119 25.0094 33.6276 25.5781 34.2251 25.5514C34.3273 25.5447 34.4339 25.5225 34.5383 25.4781L34.5561 25.4714C36.4018 24.6896 37.3547 22.7305 37.3214 20.7981C37.2792 18.7013 36.0953 16.9488 34.0208 16.3802V16.378ZM26.2089 17.5752L24.3098 17.011L24.7096 15.0542L25.2227 15.2185L26.5665 15.645L26.2133 17.5574L26.2089 17.5774V17.5752Z" fill="#663703"/>
<path d="M36.3507 27.746C36.4485 27.9103 36.3929 28.1213 36.2308 28.219L31.9151 30.7845C31.7507 30.8822 31.5397 30.8267 31.442 30.6646C31.382 30.5646 31.3775 30.4358 31.4308 30.3314C31.5197 30.1537 31.7551 30.0737 31.8862 29.9227C32.0061 29.785 32.095 29.6228 32.155 29.4496C32.2793 29.0898 32.2904 28.6988 32.2838 28.3235C32.2793 28.1546 32.2727 27.9858 32.266 27.817C32.246 27.2373 32.1994 26.6531 32.1061 26.0779C32.7902 26.6842 33.5365 27.1729 34.3406 27.6038C34.6582 27.7748 35.0203 27.8526 35.3779 27.7948C35.5578 27.7659 35.7288 27.7037 35.891 27.6216C36.0531 27.5394 36.2552 27.5771 36.353 27.7437L36.3507 27.746Z" fill="#663703"/>
</g>
</g>
<path d="M47.9386 5.4009L47.7609 5.82737L47.4833 6.4915L46.757 8.24401L46.5215 8.81484L34.6738 37.3636L34.4428 37.9277L29.6162 49.5556L29.3941 50.0909L23.3192 64.7328L23.026 65.4392L22.2019 67.4227L22.0709 67.7403L21.8799 68.2067C18.1794 65.9967 14.8632 63.0558 12.1645 59.4353L12.2178 59.3065L12.26 59.2066L13.3261 56.6344L13.666 55.8059L24.4875 29.6805L24.5564 29.5139L26.4599 24.9161H26.4621L26.9175 23.8077H26.9197L28.6322 19.6697L28.7122 19.4765L29.885 16.6423L29.8916 16.6334L33.35 8.28399L33.6365 7.58876L34.3739 5.80516L34.7871 4.80563L35.0536 4.16149C39.4093 3.73503 43.7873 4.17038 47.932 5.40313L47.9386 5.4009Z" fill="url(#paint6_linear_68_39606)"/>
<path d="M67.5227 20.807C67.5827 20.9003 67.6404 20.998 67.6982 21.0935C67.7848 21.2401 67.8737 21.3889 67.9536 21.5355C67.9625 21.5422 67.967 21.5511 67.967 21.5577L67.9603 21.5777L66.6987 24.5785L66.381 25.3337L55.6261 50.9549L55.3707 51.5591L54.2646 54.1956L54.0691 54.6643L53.9936 54.842L53.6782 55.5883L52.7986 57.6873L52.5009 58.3959L48.8027 67.2072L48.4273 68.0957L47.5211 70.2569L47.2035 71.0121L46.7326 72.1271C43.9161 72.7757 41.0575 73.0489 38.2255 72.9667L38.5875 72.1027L38.8296 71.5252L39.6226 69.6394L39.9358 68.8909L43.4586 60.4993L43.6962 59.9329L44.789 57.3364L45.0001 56.8277L45.8308 54.8575L46.1706 54.049L47.5966 50.6484L47.9187 49.8821L54.0247 35.3357L54.2335 34.8448H54.2357L56.8544 28.6011L57.1232 27.9614L61.3745 17.835L61.6344 17.2198L62.6095 14.8942L62.7161 14.6388L62.785 14.4811C64.4908 16.2802 66.0301 18.2948 67.3517 20.5182C67.4094 20.616 67.4694 20.7137 67.5227 20.8114V20.807Z" fill="url(#paint7_linear_68_39606)"/>
</g>
<defs>
<filter id="filter0_f_68_39606" x="0.576172" y="0" width="76.3862" height="76.981" filterUnits="userSpaceOnUse" color-interpolation-filters="sRGB">
<feFlood flood-opacity="0" result="BackgroundImageFix"/>
<feBlend mode="normal" in="SourceGraphic" in2="BackgroundImageFix" result="shape"/>
<feGaussianBlur stdDeviation="2" result="effect1_foregroundBlur_68_39606"/>
</filter>
<linearGradient id="paint0_linear_68_39606" x1="45.5332" y1="71.4153" x2="31.8161" y2="5.29434" gradientUnits="userSpaceOnUse">
<stop stop-color="#D3A150"/>
<stop offset="0.42" stop-color="#DDB264"/>
<stop offset="1" stop-color="#EFD186"/>
</linearGradient>
<linearGradient id="paint1_linear_68_39606" x1="22.7331" y1="11.5753" x2="54.6434" y2="65.2757" gradientUnits="userSpaceOnUse">
<stop stop-color="#513A01"/>
<stop offset="0.15" stop-color="#65440B"/>
<stop offset="0.46" stop-color="#986024"/>
<stop offset="0.58" stop-color="#AD6B2F"/>
<stop offset="1" stop-color="#FFE6CA"/>
</linearGradient>
<linearGradient id="paint2_linear_68_39606" x1="44.9465" y1="68.2888" x2="32.5333" y2="8.44922" gradientUnits="userSpaceOnUse">
<stop stop-color="#D3A150"/>
<stop offset="0.42" stop-color="#DDB264"/>
<stop offset="1" stop-color="#EFD186"/>
</linearGradient>
<radialGradient id="paint3_radial_68_39606" cx="0" cy="0" r="1" gradientUnits="userSpaceOnUse" gradientTransform="translate(44.9369 49.5805) rotate(-30.72) scale(22.0651 22.0651)">
<stop stop-color="white"/>
<stop offset="0.6" stop-color="#DDDDDD"/>
<stop offset="1" stop-color="#CCCCCC"/>
</radialGradient>
<radialGradient id="paint4_radial_68_39606" cx="0" cy="0" r="1" gradientUnits="userSpaceOnUse" gradientTransform="translate(27.7817 20.3933) rotate(-30.72) scale(8.27608)">
<stop stop-color="white"/>
<stop offset="0.6" stop-color="#DDDDDD"/>
<stop offset="1" stop-color="#CCCCCC"/>
</radialGradient>
<radialGradient id="paint5_radial_68_39606" cx="0" cy="0" r="1" gradientUnits="userSpaceOnUse" gradientTransform="translate(33.0588 27.8173) rotate(-30.72) scale(2.45439)">
<stop stop-color="white"/>
<stop offset="0.6" stop-color="#DDDDDD"/>
<stop offset="1" stop-color="#CCCCCC"/>
</radialGradient>
<linearGradient id="paint6_linear_68_39606" x1="14.7456" y1="83.9381" x2="38.2466" y2="4.8242" gradientUnits="userSpaceOnUse">
<stop stop-color="white" stop-opacity="0"/>
<stop offset="1" stop-color="white" stop-opacity="0.3"/>
</linearGradient>
<linearGradient id="paint7_linear_68_39606" x1="39.9748" y1="91.4325" x2="63.4747" y2="12.3167" gradientUnits="userSpaceOnUse">
<stop stop-color="white" stop-opacity="0"/>
<stop offset="1" stop-color="white" stop-opacity="0.3"/>
</linearGradient>
</defs>
</svg>
