<svg width="79" height="80" viewBox="0 0 79 80" fill="none" xmlns="http://www.w3.org/2000/svg">
<g filter="url(#filter0_f_68_39411)">
<path d="M73.5762 39.1286C73.5762 39.2107 73.5762 39.2907 73.574 39.3728V39.5704C73.3366 58.2157 58.1636 73.2593 39.4812 73.2593C37.3871 73.2593 35.3397 73.0684 33.3499 72.7087C30.2443 72.1469 27.2873 71.1588 24.5389 69.8154C19.0242 67.1198 14.3459 62.9786 10.9918 57.8848C8.48296 54.0745 6.71499 49.7313 5.89867 45.0594C5.58811 43.2742 5.41063 41.4401 5.38845 39.5704V39.3728C5.38623 39.2907 5.38623 39.2107 5.38623 39.1286C5.38623 20.2812 20.648 5 39.479 5C43.1791 5 46.7394 5.59065 50.0779 6.68089C54.5544 8.1464 58.625 10.5134 62.0722 13.5688C66.6707 17.6433 70.1623 22.9414 72.0367 28.9544C72.944 31.861 73.4697 34.9363 73.5607 38.1182C73.5718 38.4535 73.5762 38.791 73.5762 39.1286Z" fill="#787878"/>
<path d="M73.574 40.8383C73.574 59.6879 58.31 74.9669 39.479 74.9669C20.648 74.9669 5.38623 59.6879 5.38623 40.8383C5.38623 21.9888 20.6502 6.70975 39.479 6.70975C58.3078 6.70975 73.574 21.991 73.574 40.8383Z" fill="#474747"/>
<path d="M73.5762 39.8125C73.5762 58.6598 58.3122 73.9388 39.4812 73.9388C37.1609 73.9388 34.8938 73.7057 32.7043 73.2638C29.6476 72.6465 26.7372 71.6206 24.0376 70.2439C18.5872 67.4661 13.9776 63.265 10.7101 58.1291C8.24781 54.261 6.53976 49.8623 5.80108 45.1416C5.52601 43.4052 5.38623 41.6244 5.38623 39.8125C5.38623 39.7303 5.38623 39.6504 5.38845 39.5682V39.3706C5.62581 20.7231 20.7966 5.68167 39.479 5.68167C42.9683 5.68167 46.3335 6.2057 49.5012 7.18049C54.0376 8.57494 58.168 10.8909 61.6796 13.9085C66.3313 17.9076 69.8961 23.1412 71.8615 29.1009C72.8064 31.9653 73.3832 34.9963 73.5363 38.1382C73.554 38.5468 73.5695 38.9576 73.574 39.3706V39.5682C73.5762 39.6504 73.5762 39.7303 73.5762 39.8125Z" fill="url(#paint0_linear_68_39411)"/>
<path d="M71.003 39.8813C71.003 57.3186 56.8792 71.4586 39.4568 71.4586C22.0344 71.4586 7.91064 57.3209 7.91064 39.8813C7.91064 22.4418 22.0344 8.30185 39.4568 8.30185C56.8792 8.30185 71.003 22.4396 71.003 39.8813Z" fill="url(#paint1_linear_68_39411)"/>
<path d="M70.3819 39.8569C70.3819 56.9189 56.5664 70.7435 39.5256 70.7435C22.4847 70.7435 8.66931 56.9167 8.66931 39.8569C8.66931 22.797 22.4847 8.97241 39.5256 8.97241C56.5664 8.97241 70.3819 22.7993 70.3819 39.8569Z" fill="url(#paint2_linear_68_39411)"/>
<path d="M40.6836 11.5414C40.6836 12.041 40.2799 12.4452 39.7808 12.4452C39.2816 12.4452 38.8779 12.041 38.8779 11.5414C38.8779 11.0418 39.2816 10.6377 39.7808 10.6377C40.2799 10.6377 40.6836 11.0418 40.6836 11.5414Z" fill="#474747"/>
<path d="M40.7746 11.3105C40.7746 11.8101 40.3708 12.2142 39.8717 12.2142C39.3726 12.2142 38.9688 11.8101 38.9688 11.3105C38.9688 10.8109 39.3726 10.4068 39.8717 10.4068C40.3708 10.4068 40.7746 10.8109 40.7746 11.3105Z" fill="#E6E7E8"/>
<path d="M40.7302 11.426C40.7302 11.9256 40.3264 12.3297 39.8273 12.3297C39.3282 12.3297 38.9245 11.9256 38.9245 11.426C38.9245 10.9264 39.3282 10.5222 39.8273 10.5222C40.3264 10.5222 40.7302 10.9264 40.7302 11.426Z" fill="#898989"/>
<path d="M36.2226 11.7036C36.3002 12.1965 35.9653 12.6606 35.4728 12.7383C34.9804 12.8161 34.5167 12.4808 34.4391 11.9878C34.3614 11.4949 34.6964 11.0308 35.1889 10.9531C35.6813 10.8754 36.1449 11.2107 36.2226 11.7036Z" fill="#474747"/>
<path d="M36.2781 11.4616C36.3557 11.9545 36.0208 12.4186 35.5283 12.4963C35.0358 12.574 34.5722 12.2387 34.4945 11.7458C34.4169 11.2528 34.7519 10.7888 35.2444 10.7111C35.7368 10.6333 36.2004 10.9686 36.2781 11.4616Z" fill="#E6E7E8"/>
<path d="M36.2514 11.5815C36.329 12.0744 35.9941 12.5385 35.5016 12.6162C35.0092 12.6939 34.5456 12.3586 34.4679 11.8657C34.3903 11.3727 34.7252 10.9087 35.2177 10.831C35.7101 10.7532 36.1738 11.0885 36.2514 11.5815Z" fill="#898989"/>
<path d="M31.8437 12.5629C31.999 13.038 31.7372 13.5487 31.2648 13.702C30.79 13.8574 30.2799 13.5954 30.1268 13.1224C29.9715 12.6472 30.2332 12.1365 30.7057 11.9833C31.1805 11.8279 31.6885 12.0899 31.8437 12.5629Z" fill="#474747"/>
<path d="M31.8615 12.3119C32.0146 12.7871 31.755 13.2978 31.2825 13.451C30.8078 13.6042 30.2976 13.3444 30.1446 12.8715C29.9893 12.3963 30.251 11.8856 30.7235 11.7324C31.1982 11.5792 31.7084 11.839 31.8615 12.3119Z" fill="#E6E7E8"/>
<path d="M31.8526 12.4385C32.0079 12.9137 31.7461 13.4244 31.2736 13.5776C30.7989 13.7308 30.291 13.471 30.1357 12.9981C29.9826 12.5229 30.2399 12.0144 30.7146 11.859C31.1893 11.7058 31.6996 11.9656 31.8526 12.4385Z" fill="#898989"/>
<path d="M27.6534 14.095C27.8797 14.5391 27.7022 15.0854 27.2586 15.3118C26.8149 15.5383 26.2692 15.3607 26.0452 14.9166C25.8189 14.4725 25.9963 13.9285 26.44 13.6998C26.8836 13.4733 27.4293 13.6509 27.6556 14.095H27.6534Z" fill="#474747"/>
<path d="M27.6312 13.8463C27.8575 14.2904 27.68 14.8366 27.2363 15.0631C26.7927 15.2896 26.247 15.112 26.0207 14.6679C25.7945 14.2238 25.9719 13.6798 26.4156 13.4511C26.8592 13.2246 27.4049 13.4022 27.6312 13.8463Z" fill="#E6E7E8"/>
<path d="M27.6423 13.9707C27.8686 14.4148 27.6911 14.961 27.2475 15.1875C26.8038 15.414 26.2581 15.2363 26.0319 14.7922C25.8056 14.3482 25.9831 13.8041 26.4267 13.5754C26.8704 13.3489 27.4161 13.5266 27.6423 13.9707Z" fill="#898989"/>
<path d="M23.7514 16.2666C24.0442 16.6707 23.9555 17.237 23.5517 17.5301C23.148 17.8232 22.5824 17.7343 22.2896 17.3302C21.9967 16.9261 22.0855 16.3621 22.4892 16.0668C22.893 15.7737 23.4564 15.8625 23.7514 16.2666Z" fill="#474747"/>
<path d="M23.6915 16.0246C23.9843 16.4287 23.8956 16.9927 23.4919 17.288C23.0882 17.5811 22.5225 17.4923 22.2296 17.0882C21.9368 16.6841 22.0256 16.1178 22.4293 15.8247C22.8331 15.5316 23.3987 15.6205 23.6915 16.0246Z" fill="#E6E7E8"/>
<path d="M23.7226 16.1445C24.0154 16.5486 23.9267 17.1148 23.523 17.4079C23.1192 17.701 22.5536 17.6122 22.2608 17.2081C21.968 16.804 22.0567 16.24 22.4604 15.9446C22.8641 15.6515 23.4275 15.7404 23.7226 16.1445Z" fill="#898989"/>
<path d="M20.2399 19.02C20.5926 19.3731 20.5926 19.9459 20.2399 20.299C19.8872 20.6521 19.3149 20.6521 18.9622 20.299C18.6095 19.9459 18.6095 19.3731 18.9622 19.02C19.3149 18.667 19.8872 18.667 20.2399 19.02Z" fill="#474747"/>
<path d="M20.1423 18.7913C20.495 19.1443 20.495 19.7172 20.1423 20.0703C19.7896 20.4233 19.2173 20.4233 18.8646 20.0703C18.5119 19.7172 18.5119 19.1443 18.8646 18.7913C19.2173 18.4382 19.7896 18.4382 20.1423 18.7913Z" fill="#E6E7E8"/>
<path d="M20.1911 18.9068C20.5438 19.2598 20.5438 19.8327 20.1911 20.1857C19.8384 20.5388 19.2661 20.5388 18.9134 20.1857C18.5607 19.8327 18.5607 19.2598 18.9134 18.9068C19.2661 18.5537 19.8384 18.5537 20.1911 18.9068Z" fill="#898989"/>
<path d="M17.2008 22.2907C17.6046 22.5838 17.6933 23.1501 17.4005 23.5542C17.1077 23.9583 16.542 24.0471 16.1383 23.754C15.7345 23.4609 15.6458 22.8947 15.9387 22.4906C16.2315 22.0865 16.7971 21.9976 17.2008 22.2907Z" fill="#474747"/>
<path d="M17.0677 22.0798C17.4714 22.3729 17.5602 22.9391 17.2674 23.3433C16.9746 23.7474 16.4089 23.8362 16.0052 23.5431C15.6015 23.25 15.5127 22.6838 15.8055 22.2796C16.0983 21.8755 16.664 21.7867 17.0677 22.0798Z" fill="#E6E7E8"/>
<path d="M17.1343 22.1864C17.538 22.4795 17.6268 23.0457 17.334 23.4498C17.0411 23.8539 16.4754 23.9428 16.0717 23.6497C15.668 23.3566 15.5793 22.7903 15.8721 22.3862C16.1649 21.9821 16.7306 21.8933 17.1343 22.1864Z" fill="#898989"/>
<path d="M14.7097 25.9967C15.1534 26.2232 15.3308 26.7672 15.1046 27.2135C14.8783 27.6576 14.3348 27.8352 13.889 27.6088C13.4453 27.3823 13.2678 26.8383 13.4941 26.3919C13.7204 25.9478 14.2638 25.7702 14.7097 25.9967Z" fill="#474747"/>
<path d="M14.5456 25.8102C14.9892 26.0367 15.1667 26.5807 14.9404 27.027C14.7142 27.4711 14.1707 27.6487 13.7248 27.4222C13.2812 27.1957 13.1037 26.6517 13.33 26.2054C13.5562 25.7613 14.0997 25.5837 14.5456 25.8102Z" fill="#E6E7E8"/>
<path d="M14.6276 25.9034C15.0713 26.1299 15.2487 26.6739 15.0225 27.1203C14.7962 27.5643 14.2527 27.742 13.8069 27.5155C13.3632 27.289 13.1857 26.745 13.412 26.2987C13.6383 25.8546 14.1817 25.6769 14.6276 25.9034Z" fill="#898989"/>
<path d="M12.8286 30.049C13.3033 30.2022 13.5628 30.7129 13.4075 31.1881C13.2523 31.6633 12.7443 31.9231 12.2696 31.7677C11.7949 31.6145 11.5353 31.1037 11.6906 30.6286C11.8437 30.1534 12.3539 29.8936 12.8286 30.049Z" fill="#474747"/>
<path d="M12.6378 29.8892C13.1125 30.0424 13.3721 30.5531 13.2168 31.0283C13.0615 31.5034 12.5535 31.7632 12.0788 31.6078C11.6041 31.4524 11.3446 30.9439 11.4999 30.4687C11.6551 29.9935 12.1631 29.7337 12.6378 29.8892Z" fill="#E6E7E8"/>
<path d="M12.7333 29.9691C13.208 30.1223 13.4675 30.633 13.3122 31.1082C13.1569 31.5834 12.649 31.8432 12.1743 31.6877C11.6995 31.5323 11.44 31.0238 11.593 30.5486C11.7461 30.0734 12.2563 29.8137 12.731 29.9691H12.7333Z" fill="#898989"/>
<path d="M11.6041 34.3434C12.0966 34.4211 12.4337 34.8852 12.3538 35.3781C12.2762 35.8711 11.8126 36.2064 11.3201 36.1287C10.8277 36.051 10.4905 35.5869 10.5704 35.0939C10.648 34.601 11.1116 34.2635 11.6041 34.3434Z" fill="#474747"/>
<path d="M11.3912 34.2169C11.8836 34.2946 12.2208 34.7587 12.1409 35.2516C12.0633 35.7446 11.5997 36.0821 11.1072 36.0043C10.6148 35.9266 10.2776 35.4626 10.3574 34.9696C10.4351 34.4767 10.8987 34.1392 11.3912 34.2191V34.2169Z" fill="#E6E7E8"/>
<path d="M11.4976 34.2791C11.9901 34.3568 12.3272 34.8208 12.2474 35.3138C12.1697 35.8067 11.7061 36.1442 11.2137 36.0643C10.7212 35.9866 10.3841 35.5225 10.4617 35.0296C10.5394 34.5366 11.003 34.1991 11.4954 34.2791H11.4976Z" fill="#898989"/>
<path d="M11.0673 38.7777C11.5665 38.7777 11.9701 39.1818 11.9701 39.6814C11.9701 40.181 11.5665 40.5852 11.0673 40.5852C10.5682 40.5852 10.1645 40.181 10.1645 39.6814C10.1645 39.1818 10.5682 38.7777 11.0673 38.7777Z" fill="#474747"/>
<path d="M10.8344 38.6867C11.3335 38.6867 11.7372 39.0908 11.7372 39.5904C11.7372 40.09 11.3335 40.4941 10.8344 40.4941C10.3353 40.4941 9.93152 40.09 9.93152 39.5904C9.93152 39.0908 10.3353 38.6867 10.8344 38.6867Z" fill="#E6E7E8"/>
<path d="M10.9498 38.7311C11.4489 38.7311 11.8526 39.1352 11.8526 39.6348C11.8526 40.1344 11.4489 40.5385 10.9498 40.5385C10.4506 40.5385 10.0469 40.1344 10.0469 39.6348C10.0469 39.1352 10.4506 38.7311 10.9498 38.7311Z" fill="#898989"/>
<path d="M11.2271 43.2408C11.7195 43.1631 12.1831 43.4984 12.2608 43.9936C12.3384 44.4865 12.0035 44.9506 11.511 45.0283C11.0186 45.106 10.5549 44.7707 10.4773 44.2778C10.3996 43.7848 10.7346 43.3208 11.2271 43.2431V43.2408Z" fill="#474747"/>
<path d="M10.9852 43.1876C11.4777 43.1098 11.9413 43.4451 12.0189 43.9381C12.0966 44.431 11.7616 44.8951 11.2692 44.9728C10.7767 45.0505 10.3131 44.7152 10.2355 44.2223C10.1578 43.7293 10.4928 43.2653 10.9852 43.1876Z" fill="#E6E7E8"/>
<path d="M11.1073 43.2142C11.5997 43.1365 12.0633 43.4718 12.141 43.9647C12.2186 44.4577 11.8837 44.9217 11.3912 44.9994C10.8988 45.0772 10.4351 44.7419 10.3575 44.2489C10.2798 43.756 10.6148 43.2919 11.1073 43.2142Z" fill="#898989"/>
<path d="M12.0855 47.6262C12.5602 47.473 13.0682 47.7328 13.2235 48.2058C13.3766 48.681 13.117 49.1894 12.6445 49.3449C12.1698 49.4981 11.6596 49.2383 11.5066 48.7653C11.3513 48.2902 11.613 47.7817 12.0855 47.6262Z" fill="#474747"/>
<path d="M11.837 47.6085C12.3117 47.4531 12.8219 47.7129 12.975 48.188C13.128 48.6632 12.8685 49.1739 12.3938 49.3271C11.9191 49.4826 11.4111 49.2228 11.2558 48.7476C11.1027 48.2724 11.3623 47.7617 11.8348 47.6085H11.837Z" fill="#E6E7E8"/>
<path d="M11.9612 47.6174C12.436 47.4642 12.9462 47.7217 13.0993 48.1969C13.2545 48.6721 12.995 49.1828 12.5203 49.336C12.0455 49.4892 11.5354 49.2294 11.3823 48.7565C11.2292 48.2813 11.4888 47.7706 11.9612 47.6174Z" fill="#898989"/>
<path d="M13.6161 51.8207C14.0598 51.5942 14.6033 51.7718 14.8317 52.2159C15.058 52.66 14.8805 53.204 14.4369 53.4327C13.9932 53.6592 13.4498 53.4816 13.2235 53.0375C12.9972 52.5934 13.1747 52.0494 13.6184 51.8207H13.6161Z" fill="#474747"/>
<path d="M13.3677 51.8451C13.8113 51.6186 14.3548 51.794 14.5833 52.2404C14.8095 52.6845 14.6321 53.2307 14.1884 53.4572C13.7447 53.6837 13.2013 53.506 12.9728 53.0619C12.7465 52.6178 12.924 52.0716 13.3677 51.8451Z" fill="#E6E7E8"/>
<path d="M13.4919 51.8318C13.9355 51.6053 14.4812 51.7807 14.7075 52.227C14.9338 52.6711 14.7585 53.2151 14.3126 53.4416C13.869 53.6681 13.3233 53.4905 13.097 53.0464C12.8708 52.6023 13.0482 52.0561 13.4919 51.8318Z" fill="#898989"/>
<path d="M15.7856 55.7243C16.1893 55.4312 16.7527 55.52 17.0478 55.9242C17.3406 56.3283 17.2518 56.8923 16.8481 57.1876C16.4444 57.4807 15.8787 57.3919 15.5859 56.9877C15.2931 56.5836 15.3819 56.0196 15.7856 55.7243Z" fill="#474747"/>
<path d="M15.5438 55.7865C15.9475 55.4934 16.5131 55.5822 16.806 55.9863C17.0988 56.3905 17.0101 56.9567 16.6063 57.2498C16.2026 57.5429 15.6391 57.4541 15.3441 57.0499C15.0513 56.6458 15.14 56.0796 15.5438 55.7865Z" fill="#E6E7E8"/>
<path d="M15.6636 55.7554C16.0673 55.4623 16.633 55.5511 16.9258 55.9552C17.2186 56.3594 17.1299 56.9234 16.7261 57.2165C16.3224 57.5096 15.7567 57.4207 15.4639 57.0166C15.1711 56.6125 15.2599 56.0485 15.6636 55.7532V55.7554Z" fill="#898989"/>
<path d="M18.5363 59.2415C18.889 58.8885 19.4613 58.8885 19.814 59.2415C20.1667 59.5946 20.1667 60.1675 19.814 60.5205C19.4613 60.8736 18.889 60.8736 18.5363 60.5205C18.1836 60.1675 18.1836 59.5946 18.5363 59.2415Z" fill="#474747"/>
<path d="M18.3078 59.3415C18.6605 58.9884 19.2328 58.9884 19.5855 59.3415C19.9382 59.6945 19.9382 60.2674 19.5855 60.6205C19.2328 60.9735 18.6605 60.9735 18.3078 60.6205C17.9551 60.2674 17.9551 59.6945 18.3078 59.3415Z" fill="#E6E7E8"/>
<path d="M18.4231 59.2904C18.7758 58.9373 19.3482 58.9373 19.7009 59.2904C20.0536 59.6434 20.0536 60.2141 19.7009 60.5672C19.3482 60.9202 18.7758 60.9202 18.4231 60.5672C18.0704 60.2141 18.0704 59.6412 18.4231 59.2882V59.2904Z" fill="#898989"/>
<path d="M21.8038 62.2836C22.0966 61.8794 22.6622 61.7906 23.066 62.0837C23.4697 62.3768 23.5584 62.943 23.2656 63.3472C22.9728 63.7513 22.4071 63.8401 22.0034 63.547C21.5997 63.2539 21.511 62.6877 21.8038 62.2836Z" fill="#474747"/>
<path d="M21.593 62.4168C21.8858 62.0127 22.4515 61.9239 22.8552 62.217C23.2589 62.5101 23.3476 63.0763 23.0548 63.4804C22.762 63.8845 22.1964 63.9733 21.7926 63.6802C21.3889 63.3871 21.3002 62.8209 21.593 62.4168Z" fill="#E6E7E8"/>
<path d="M21.6995 62.3502C21.9923 61.9461 22.5579 61.8572 22.9617 62.1503C23.3654 62.4434 23.4542 63.0096 23.1614 63.4116C22.8685 63.8157 22.3028 63.9045 21.8991 63.6114C21.4954 63.3183 21.4067 62.7521 21.6995 62.348V62.3502Z" fill="#898989"/>
<path d="M25.5083 64.7772C25.7346 64.3331 26.2781 64.1555 26.7239 64.3819C27.1676 64.6084 27.3451 65.1524 27.1188 65.5988C26.8925 66.0428 26.349 66.2205 25.9032 65.994C25.4595 65.7675 25.282 65.2235 25.5083 64.7794V64.7772Z" fill="#474747"/>
<path d="M25.3197 64.9415C25.546 64.4974 26.0895 64.3198 26.5353 64.5463C26.979 64.7727 27.1565 65.3168 26.9302 65.7631C26.7039 66.2072 26.1604 66.3848 25.7145 66.1583C25.2709 65.9318 25.0935 65.3878 25.3197 64.9415Z" fill="#E6E7E8"/>
<path d="M25.4129 64.8593C25.6392 64.4152 26.1827 64.2376 26.6285 64.4641C27.0722 64.6906 27.2497 65.2346 27.0234 65.6809C26.7971 66.125 26.2537 66.3026 25.8078 66.0761C25.3641 65.8497 25.1867 65.3057 25.4129 64.8616V64.8593Z" fill="#898989"/>
<path d="M29.5544 66.6601C29.7097 66.185 30.2177 65.9252 30.6924 66.0806C31.1671 66.2338 31.4267 66.7445 31.2714 67.2197C31.1183 67.6949 30.6081 67.9547 30.1334 67.7992C29.6587 67.646 29.3991 67.1353 29.5544 66.6601Z" fill="#474747"/>
<path d="M29.3947 66.8511C29.5478 66.3759 30.058 66.1161 30.5327 66.2715C31.0074 66.427 31.2669 66.9355 31.1116 67.4106C30.9564 67.8858 30.4484 68.1456 29.9737 67.9902C29.499 67.8348 29.2394 67.3241 29.3947 66.8511Z" fill="#E6E7E8"/>
<path d="M29.4746 66.7556C29.6277 66.2804 30.1378 66.0206 30.6126 66.1761C31.0873 66.3315 31.3468 66.84 31.1915 67.3152C31.0363 67.7903 30.5283 68.0501 30.0535 67.8947C29.5788 67.7415 29.3193 67.2308 29.4746 66.7556Z" fill="#898989"/>
<path d="M33.8446 67.8858C33.9222 67.3929 34.3858 67.0576 34.8783 67.1353C35.3707 67.213 35.7079 67.6771 35.6281 68.1701C35.5504 68.663 35.0868 68.9983 34.5943 68.9206C34.1019 68.8429 33.7647 68.3788 33.8446 67.8858Z" fill="#474747"/>
<path d="M33.7181 68.099C33.7957 67.606 34.2594 67.2685 34.7519 67.3462C35.2443 67.424 35.5815 67.888 35.5016 68.381C35.424 68.8739 34.9604 69.2114 34.4679 69.1315C33.9754 69.0538 33.6382 68.5897 33.7181 68.0968V68.099Z" fill="#E6E7E8"/>
<path d="M33.7825 67.9924C33.8601 67.4995 34.3237 67.1619 34.8162 67.2419C35.3086 67.3196 35.6436 67.7837 35.566 68.2766C35.4884 68.7696 35.0247 69.1071 34.5322 69.0271C34.0398 68.9494 33.7048 68.4853 33.7825 67.9924Z" fill="#898989"/>
<path d="M38.2745 68.4232C38.2745 67.9236 38.6804 67.5194 39.1773 67.5194C39.6764 67.5194 40.0801 67.9236 40.0801 68.4232C40.0801 68.9228 39.6764 69.3269 39.1773 69.3269C38.6782 69.3269 38.2745 68.9228 38.2745 68.4232Z" fill="#474747"/>
<path d="M38.1836 68.6563C38.1836 68.1567 38.5873 67.7526 39.0864 67.7526C39.5855 67.7526 39.9892 68.1567 39.9892 68.6563C39.9892 69.1559 39.5833 69.56 39.0864 69.56C38.5873 69.56 38.1836 69.1537 38.1836 68.6563Z" fill="#E6E7E8"/>
<path d="M38.2301 68.5386C38.2301 68.039 38.6339 67.6349 39.133 67.6349C39.6321 67.6349 40.0358 68.039 40.0358 68.5386C40.0358 69.0382 39.6321 69.4424 39.133 69.4424C38.6339 69.4424 38.2301 69.0382 38.2301 68.5386Z" fill="#898989"/>
<path d="M42.7355 68.261C42.6579 67.7681 42.9951 67.3062 43.4875 67.2263C43.98 67.1486 44.4436 67.4839 44.5212 67.979C44.5989 68.472 44.2639 68.9361 43.7715 69.0138C43.279 69.0915 42.8154 68.7562 42.7378 68.2633L42.7355 68.261Z" fill="#474747"/>
<path d="M42.6801 68.5053C42.6025 68.0124 42.9374 67.5483 43.4298 67.4706C43.9223 67.3929 44.3859 67.7281 44.4635 68.2233C44.5412 68.7163 44.204 69.1803 43.7138 69.258C43.2213 69.3358 42.7577 68.9982 42.6801 68.5075V68.5053Z" fill="#E6E7E8"/>
<path d="M42.7067 68.3832C42.629 67.8902 42.964 67.4262 43.4565 67.3484C43.9489 67.2707 44.4125 67.606 44.4902 68.099C44.5678 68.5919 44.2328 69.056 43.7404 69.1337C43.2479 69.2114 42.7843 68.8761 42.7067 68.3809V68.3832Z" fill="#898989"/>
<path d="M47.1144 67.404C46.9613 66.9288 47.2208 66.4203 47.6955 66.2649C48.1702 66.1116 48.6805 66.3714 48.8335 66.8444C48.9888 67.3196 48.7293 67.8281 48.2523 67.9835C47.7776 68.1367 47.2674 67.8769 47.1144 67.404Z" fill="#474747"/>
<path d="M47.0988 67.6548C46.9436 67.1797 47.2053 66.669 47.6778 66.5157C48.1525 66.3603 48.6627 66.6201 48.8158 67.0953C48.9689 67.5705 48.7093 68.0812 48.2346 68.2344C47.7599 68.3898 47.2497 68.1278 47.0966 67.6548H47.0988Z" fill="#E6E7E8"/>
<path d="M47.1055 67.5283C46.9524 67.0531 47.2097 66.5424 47.6844 66.3892C48.1592 66.236 48.6672 66.4936 48.8224 66.9687C48.9755 67.4439 48.7159 67.9546 48.2435 68.1078C47.7687 68.2633 47.2608 68.0013 47.1055 67.5283Z" fill="#898989"/>
<path d="M51.3047 65.8718C51.0784 65.4277 51.2559 64.8815 51.6996 64.655C52.1432 64.4285 52.6889 64.6062 52.9152 65.0503C53.1414 65.4966 52.964 66.0406 52.5203 66.2671C52.0767 66.4936 51.5332 66.3159 51.3047 65.8718Z" fill="#474747"/>
<path d="M51.3291 66.1205C51.1028 65.6764 51.278 65.1302 51.7239 64.9037C52.1676 64.6772 52.7133 64.8526 52.9396 65.2989C53.1658 65.743 52.9884 66.287 52.5447 66.5157C52.1011 66.7422 51.5554 66.5646 51.3291 66.1205Z" fill="#E6E7E8"/>
<path d="M51.318 65.9962C51.0918 65.5521 51.2692 65.0059 51.7129 64.7816C52.1566 64.5551 52.7 64.7305 52.9263 65.1768C53.1526 65.6209 52.9751 66.1672 52.5314 66.3936C52.0878 66.6201 51.5443 66.4425 51.3158 65.9984L51.318 65.9962Z" fill="#898989"/>
<path d="M55.2066 63.7002C54.9138 63.2961 55.0048 62.7299 55.4063 62.4368C55.81 62.1437 56.3734 62.2325 56.6685 62.6366C56.9613 63.0407 56.8726 63.6047 56.4688 63.9001C56.0651 64.1932 55.5017 64.1043 55.2066 63.7002Z" fill="#474747"/>
<path d="M55.2666 63.9422C54.9738 63.5381 55.0625 62.9718 55.4662 62.6787C55.8699 62.3856 56.4356 62.4745 56.7284 62.8786C57.0212 63.2827 56.9325 63.8489 56.5288 64.142C56.1251 64.4351 55.5594 64.3441 55.2666 63.9422Z" fill="#E6E7E8"/>
<path d="M55.2377 63.8201C54.9449 63.416 55.0337 62.852 55.4374 62.5566C55.8411 62.2635 56.4046 62.3524 56.6974 62.7565C56.9902 63.1606 56.9014 63.7268 56.4977 64.0199C56.094 64.313 55.5283 64.2242 55.2355 63.8201H55.2377Z" fill="#898989"/>
<path d="M58.7182 60.9446C58.3655 60.5915 58.3655 60.0187 58.7182 59.6656C59.0709 59.3126 59.6432 59.3126 59.9959 59.6656C60.3486 60.0187 60.3486 60.5915 59.9959 60.9446C59.6432 61.2977 59.0709 61.2977 58.7182 60.9446Z" fill="#474747"/>
<path d="M58.8181 61.1755C58.4654 60.8225 58.4654 60.2496 58.8181 59.8965C59.1708 59.5435 59.7431 59.5435 60.0958 59.8965C60.4485 60.2496 60.4485 60.8225 60.0958 61.1755C59.7431 61.5286 59.1708 61.5286 58.8181 61.1755Z" fill="#E6E7E8"/>
<path d="M58.7692 61.06C58.4165 60.707 58.4165 60.1341 58.7692 59.7811C59.1219 59.428 59.6942 59.428 60.0469 59.7811C60.3997 60.1341 60.3997 60.707 60.0469 61.06C59.6942 61.4131 59.1219 61.4131 58.7692 61.06Z" fill="#898989"/>
<path d="M61.7572 57.6739C61.3535 57.3808 61.2647 56.8145 61.5576 56.4104C61.8504 56.0063 62.416 55.9175 62.8197 56.2106C63.2235 56.5037 63.3122 57.0699 63.0194 57.474C62.7266 57.8781 62.161 57.967 61.7572 57.6739Z" fill="#474747"/>
<path d="M61.8925 57.887C61.4888 57.5939 61.4001 57.0277 61.6929 56.6236C61.9857 56.2194 62.5514 56.1306 62.9551 56.4237C63.3588 56.7168 63.4475 57.283 63.1547 57.6872C62.8619 58.0913 62.2962 58.1801 61.8925 57.887Z" fill="#E6E7E8"/>
<path d="M61.8237 57.7804C61.42 57.4873 61.3313 56.9211 61.6241 56.517C61.9169 56.1129 62.4803 56.024 62.8841 56.3171C63.2878 56.6102 63.3766 57.1765 63.0838 57.5806C62.7909 57.9847 62.2252 58.0735 61.8215 57.7804H61.8237Z" fill="#898989"/>
<path d="M64.2484 53.9679C63.8047 53.7414 63.6273 53.1974 63.8535 52.7533C64.0798 52.3092 64.6233 52.1316 65.0692 52.3581C65.5128 52.5845 65.6903 53.1286 65.464 53.5749C65.2378 54.019 64.6943 54.1966 64.2506 53.9701L64.2484 53.9679Z" fill="#474747"/>
<path d="M64.4125 54.1566C63.9667 53.9301 63.7914 53.3861 64.0177 52.9398C64.2439 52.4957 64.7874 52.3181 65.2333 52.5446C65.677 52.7711 65.8544 53.3151 65.6282 53.7614C65.4019 54.2055 64.8584 54.3831 64.4125 54.1566Z" fill="#E6E7E8"/>
<path d="M64.3305 54.0633C63.8868 53.8369 63.7093 53.2928 63.9356 52.8465C64.1619 52.4024 64.7053 52.2248 65.149 52.4513C65.5927 52.6778 65.7701 53.224 65.5439 53.6681C65.3176 54.1122 64.7741 54.2898 64.3282 54.0633H64.3305Z" fill="#898989"/>
<path d="M66.1295 49.9178C65.6547 49.7646 65.3952 49.2538 65.5505 48.7787C65.7057 48.3035 66.2138 48.0437 66.6885 48.1991C67.1632 48.3523 67.4227 48.863 67.2674 49.3382C67.1143 49.8134 66.6042 50.0732 66.1295 49.9178Z" fill="#474747"/>
<path d="M66.3224 50.0776C65.8477 49.9222 65.5882 49.4137 65.7435 48.9385C65.8966 48.4634 66.4067 48.2036 66.8814 48.359C67.3562 48.5144 67.6157 49.0229 67.4604 49.4981C67.3052 49.9733 66.7971 50.2331 66.3224 50.0799V50.0776Z" fill="#E6E7E8"/>
<path d="M66.2248 49.9977C65.7524 49.8423 65.4906 49.3338 65.6459 48.8586C65.7989 48.3834 66.3091 48.1236 66.7839 48.2791C67.2586 48.4345 67.5181 48.943 67.3628 49.4182C67.2097 49.8933 66.6996 50.1531 66.2248 49.9977Z" fill="#898989"/>
<path d="M67.354 45.6234C66.8615 45.5457 66.5266 45.0816 66.6042 44.5886C66.6818 44.0957 67.1455 43.7604 67.638 43.8381C68.1304 43.9158 68.4653 44.3799 68.3877 44.8729C68.3101 45.3658 67.8465 45.7011 67.354 45.6234Z" fill="#474747"/>
<path d="M67.5692 45.7499C67.0767 45.6722 66.7395 45.2082 66.8194 44.7152C66.897 44.2223 67.3607 43.8848 67.8531 43.9647C68.3456 44.0424 68.6827 44.5065 68.6051 44.9994C68.5275 45.4924 68.0639 45.8299 67.5714 45.7522L67.5692 45.7499Z" fill="#E6E7E8"/>
<path d="M67.4605 45.6856C66.968 45.6078 66.6308 45.1438 66.7107 44.6508C66.7883 44.1579 67.2498 43.8226 67.7444 43.9003C68.2369 43.978 68.5741 44.4421 68.4942 44.935C68.4166 45.428 67.953 45.7655 67.4605 45.6856Z" fill="#898989"/>
<path d="M67.8908 41.1891C67.3917 41.1891 66.9879 40.7828 66.9879 40.2854C66.9879 39.7858 67.3917 39.3817 67.8908 39.3817C68.3899 39.3817 68.7936 39.7858 68.7936 40.2854C68.7936 40.7828 68.3899 41.1891 67.8908 41.1891Z" fill="#474747"/>
<path d="M68.1237 41.2802C67.6246 41.2802 67.2208 40.8738 67.2208 40.3764C67.2208 39.8768 67.6246 39.4727 68.1237 39.4727C68.6228 39.4727 69.0265 39.8768 69.0265 40.3764C69.0265 40.8761 68.6206 41.2802 68.1237 41.2802Z" fill="#E6E7E8"/>
<path d="M68.0083 41.2335C67.5092 41.2335 67.1055 40.8294 67.1055 40.3298C67.1055 39.8302 67.5092 39.4261 68.0083 39.4261C68.5074 39.4261 68.9112 39.8324 68.9112 40.3298C68.9112 40.8294 68.5074 41.2335 68.0083 41.2335Z" fill="#898989"/>
<path d="M67.7311 36.7238C67.2386 36.8015 66.7772 36.464 66.6973 35.971C66.6197 35.4781 66.9547 35.014 67.4471 34.9363C67.9396 34.8586 68.4032 35.1939 68.4808 35.689C68.5585 36.182 68.2235 36.6438 67.7311 36.7238Z" fill="#474747"/>
<path d="M67.975 36.7793C67.4826 36.857 67.019 36.5195 66.9413 36.0266C66.8637 35.5336 67.1987 35.0696 67.6911 34.9918C68.1836 34.9141 68.6472 35.2494 68.7248 35.7424C68.8025 36.2353 68.4653 36.6994 67.975 36.7771V36.7793Z" fill="#E6E7E8"/>
<path d="M67.8531 36.7526C67.3606 36.8304 66.897 36.4951 66.8193 35.9999C66.7417 35.507 67.0767 35.0451 67.5691 34.9652C68.0616 34.8875 68.5252 35.2227 68.6028 35.7157C68.6805 36.2086 68.3455 36.6727 67.8531 36.7504V36.7526Z" fill="#898989"/>
<path d="M66.8726 32.3406C66.3979 32.496 65.8899 32.234 65.7346 31.761C65.5794 31.2858 65.8411 30.7774 66.3136 30.6219C66.7883 30.4687 67.2963 30.7285 67.4516 31.2037C67.6046 31.6789 67.3451 32.1874 66.8704 32.3428L66.8726 32.3406Z" fill="#474747"/>
<path d="M67.1233 32.3561C66.6485 32.5115 66.1383 32.2495 65.9852 31.7743C65.83 31.2992 66.0895 30.7907 66.5642 30.6352C67.039 30.482 67.5491 30.7418 67.7022 31.2148C67.8575 31.69 67.5957 32.2007 67.1233 32.3539V32.3561Z" fill="#E6E7E8"/>
<path d="M66.999 32.3494C66.5243 32.5026 66.0163 32.2428 65.8611 31.7677C65.7058 31.2925 65.9653 30.784 66.44 30.6286C66.9147 30.4753 67.4249 30.7351 67.578 31.2081C67.7333 31.6833 67.4715 32.194 66.999 32.3472V32.3494Z" fill="#898989"/>
<path d="M65.342 28.1461C64.8984 28.3726 64.3549 28.195 64.1264 27.7509C63.9002 27.3068 64.0776 26.7605 64.5213 26.534C64.9649 26.3076 65.5084 26.4852 65.7369 26.9293C65.9632 27.3734 65.7857 27.9174 65.342 28.1461Z" fill="#474747"/>
<path d="M65.5904 28.1217C65.1445 28.3482 64.6011 28.1705 64.3748 27.7264C64.1485 27.2824 64.3238 26.7383 64.7697 26.5096C65.2133 26.2831 65.759 26.4608 65.9853 26.9049C66.2115 27.349 66.0341 27.8952 65.5904 28.1217Z" fill="#E6E7E8"/>
<path d="M65.4662 28.1328C65.0226 28.3593 64.4791 28.1816 64.2506 27.7375C64.0243 27.2934 64.2018 26.7494 64.6454 26.5229C65.0891 26.2965 65.6348 26.4741 65.8611 26.9182C66.0873 27.3623 65.9099 27.9085 65.4662 28.135V28.1328Z" fill="#898989"/>
<path d="M63.1725 24.2403C62.7688 24.5334 62.2031 24.4424 61.9103 24.0405C61.6175 23.6363 61.7062 23.0701 62.1099 22.777C62.5137 22.4839 63.0771 22.5727 63.3721 22.9769C63.6649 23.381 63.5762 23.945 63.1725 24.2403Z" fill="#474747"/>
<path d="M63.4165 24.1804C63.0128 24.4735 62.4471 24.3846 62.1543 23.9805C61.8615 23.5764 61.9502 23.0124 62.3539 22.7171C62.7577 22.424 63.3233 22.5128 63.6161 22.9169C63.9089 23.321 63.8202 23.8873 63.4165 24.1804Z" fill="#E6E7E8"/>
<path d="M63.2945 24.2092C62.8908 24.5023 62.3273 24.4135 62.0323 24.0094C61.7395 23.6053 61.8282 23.0413 62.2319 22.7482C62.6357 22.4551 63.2013 22.5439 63.4941 22.948C63.7869 23.3521 63.6982 23.9161 63.2945 24.2115V24.2092Z" fill="#898989"/>
<path d="M60.4219 20.7253C60.0692 21.0784 59.4968 21.0784 59.1441 20.7253C58.7914 20.3723 58.7914 19.7994 59.1441 19.4463C59.4968 19.0933 60.0692 19.0933 60.4219 19.4463C60.7746 19.7994 60.7746 20.3723 60.4219 20.7253Z" fill="#474747"/>
<path d="M60.6504 20.6254C60.2976 20.9785 59.7253 20.9785 59.3726 20.6254C59.0199 20.2724 59.0199 19.6995 59.3726 19.3464C59.7253 18.9934 60.2976 18.9934 60.6504 19.3464C61.0031 19.6995 61.0031 20.2724 60.6504 20.6254Z" fill="#E6E7E8"/>
<path d="M60.535 20.6743C60.1823 21.0273 59.61 21.0273 59.2573 20.6743C58.9046 20.3212 58.9046 19.7506 59.2573 19.3953C59.61 19.0422 60.1823 19.0422 60.535 19.3953C60.8877 19.7483 60.8877 20.3212 60.535 20.6743Z" fill="#898989"/>
<path d="M57.1543 17.6833C56.8615 18.0874 56.2958 18.1762 55.8921 17.8831C55.4883 17.59 55.3996 17.0238 55.6924 16.6197C55.9852 16.2155 56.5487 16.1267 56.9546 16.4198C57.3584 16.7129 57.4471 17.2792 57.1543 17.6833Z" fill="#474747"/>
<path d="M57.365 17.55C57.0722 17.9542 56.5065 18.043 56.1028 17.7499C55.6991 17.4568 55.6103 16.8906 55.9031 16.4864C56.196 16.0823 56.7616 15.9935 57.1653 16.2866C57.5691 16.5797 57.6578 17.1459 57.365 17.55Z" fill="#E6E7E8"/>
<path d="M57.2586 17.6167C56.9658 18.0208 56.4 18.1096 55.9963 17.8165C55.5926 17.5234 55.5039 16.9594 55.7967 16.5531C56.0895 16.1489 56.6552 16.0601 57.0589 16.3532C57.4626 16.6463 57.5514 17.2125 57.2586 17.6167Z" fill="#898989"/>
<path d="M53.452 15.1897C53.2257 15.6338 52.6822 15.8114 52.2364 15.5849C51.7927 15.3584 51.6152 14.8144 51.8415 14.3681C52.0678 13.924 52.6112 13.7464 53.0571 13.9729C53.5008 14.1993 53.6782 14.7434 53.452 15.1897Z" fill="#474747"/>
<path d="M53.6383 15.0253C53.4121 15.4717 52.8664 15.6471 52.4227 15.4206C51.9791 15.1941 51.8016 14.6501 52.0279 14.2038C52.2541 13.7597 52.7976 13.582 53.2435 13.8085C53.6871 14.035 53.8646 14.5812 53.6383 15.0253Z" fill="#E6E7E8"/>
<path d="M53.5452 15.1075C53.3189 15.5516 52.7754 15.7292 52.3318 15.5027C51.8881 15.2763 51.7107 14.7322 51.9369 14.2881C52.1632 13.8441 52.7067 13.6664 53.1525 13.8929C53.5962 14.1194 53.7737 14.6634 53.5474 15.1097L53.5452 15.1075Z" fill="#898989"/>
<path d="M49.4036 13.3067C49.2505 13.7819 48.7403 14.0417 48.2656 13.8863C47.7909 13.7331 47.5313 13.2224 47.6844 12.7472C47.8397 12.272 48.3477 12.0122 48.8224 12.1676C49.2949 12.3208 49.5566 12.8316 49.4014 13.3067H49.4036Z" fill="#474747"/>
<path d="M49.5633 13.1136C49.408 13.5887 48.8978 13.8485 48.4253 13.6931C47.9506 13.5399 47.691 13.0292 47.8463 12.554C47.9994 12.0788 48.5096 11.819 48.9843 11.9745C49.459 12.1277 49.7186 12.6406 49.5655 13.1136H49.5633Z" fill="#E6E7E8"/>
<path d="M49.4834 13.2113C49.3282 13.6865 48.8202 13.9462 48.3454 13.7908C47.8707 13.6376 47.6112 13.1269 47.7665 12.6517C47.9218 12.1765 48.4297 11.9167 48.9045 12.0722C49.3792 12.2254 49.6387 12.7361 49.4834 13.2113Z" fill="#898989"/>
<path d="M45.1135 12.081C45.0358 12.574 44.5722 12.9093 44.0797 12.8315C43.5873 12.7538 43.2501 12.2897 43.33 11.7968C43.4076 11.3039 43.869 10.9686 44.3637 11.0463C44.8561 11.124 45.1911 11.5881 45.1135 12.081Z" fill="#474747"/>
<path d="M45.2399 11.8657C45.1623 12.3586 44.6987 12.6961 44.2062 12.6162C43.7137 12.5385 43.3766 12.0744 43.4564 11.5814C43.5341 11.0885 43.9977 10.7532 44.4901 10.8309C44.9826 10.9086 45.3198 11.3727 45.2421 11.8657H45.2399Z" fill="#E6E7E8"/>
<path d="M45.1778 11.9744C45.1002 12.4674 44.6365 12.8027 44.1441 12.725C43.6516 12.6472 43.3167 12.1854 43.3943 11.6902C43.472 11.1973 43.9356 10.8598 44.428 10.9397C44.9205 11.0174 45.2577 11.4815 45.1778 11.9744Z" fill="#898989"/>
<path d="M48.1636 32.8846C48.1148 32.9734 48.148 33.0844 48.2367 33.1333C49.8627 34.0192 51.1471 34.9874 52.1232 35.8689C52.2163 35.9533 52.1897 36.1109 52.0722 36.1553C52.0722 36.1553 52.0722 36.1553 52.0699 36.1553C51.6263 36.3196 51.1848 36.2686 50.7434 36.1553C49.8583 35.9266 49.0575 35.5003 48.2545 35.0829C46.9191 34.3878 45.6059 33.6484 44.1773 33.1533C43.8313 33.0334 43.4786 32.9246 43.1259 32.8291C43.0549 32.8091 42.9306 32.8446 42.8796 32.9001C41.3423 34.6454 39.3437 35.467 37.0988 35.7845C35.1666 36.0599 33.2456 35.9444 31.3379 35.5602C31.3157 35.5558 31.2957 35.5447 31.227 35.5203C31.3401 35.4781 31.4177 35.4492 31.4954 35.4204C32.6932 34.9874 33.7825 34.379 34.6897 33.4686C35.3752 32.7802 35.8632 31.9764 36.0828 31.0216C36.1028 30.935 36.1139 30.8462 36.1361 30.7219C35.6325 30.713 35.1489 30.6974 34.6675 30.6952C32.3894 30.6886 30.1356 30.9062 27.9395 31.5434C25.5215 32.2473 23.3565 33.3864 21.6507 35.2849C20.1245 36.9858 19.1972 38.9642 19.0353 41.2668C19.0087 41.6532 19.0442 42.0462 19.0797 42.4326C19.1462 43.1209 19.5278 43.6139 20.1511 43.8715C20.8477 44.1601 21.5663 44.3977 22.2851 44.6331C23.2367 44.9462 24.1639 45.2948 24.9403 45.9542C25.8498 46.7225 26.3689 47.9371 26.4089 49.1273C25.9608 48.3146 25.1955 48.0815 24.3902 47.9682C23.5539 47.8505 22.7066 47.8039 21.8658 47.7173C21.6196 47.6929 21.3756 47.6573 21.1338 47.6085C20.7656 47.5308 20.4128 47.4087 20.1178 47.1156C20.1023 47.3176 20.1067 47.5019 20.0712 47.6796C19.9936 48.0792 19.7806 48.4168 19.53 48.7276C19.2704 49.0474 19.002 49.3582 18.7403 49.6758C17.8729 50.7238 17.4581 51.6209 17.7687 53.0975C17.5557 52.8088 17.3361 52.5268 17.1342 52.2293C16.1338 50.766 15.9719 49.1961 16.5464 47.5352C16.7704 46.8846 16.9989 46.234 17.2097 45.5768C17.5801 44.4221 17.5557 43.2697 17.1209 42.1395C16.167 39.657 16.0628 37.1146 16.675 34.5588C17.9306 29.303 20.9874 25.3772 25.6347 22.6749C26.9812 21.8933 28.4342 21.3448 29.947 20.9718C30.0202 20.954 30.0934 20.9363 30.1644 20.9141C30.1777 20.9118 30.1888 20.8985 30.2332 20.8697C29.1817 19.1044 27.6267 17.9542 25.8233 17.0504C26.3268 17.0282 26.8281 16.9883 27.3317 16.9838C29.1972 16.9683 31.0162 17.2592 32.7731 17.8987C34.3658 18.4804 35.7988 19.3309 37.0477 20.49C37.1476 20.5832 37.2984 20.6543 37.4359 20.672C39.8494 21.0251 42.1365 21.7379 44.2017 23.0657C47.1165 24.9398 49.0509 27.571 50.1001 30.8573C50.3242 31.559 50.6503 32.1763 51.0939 32.7514C51.491 33.2665 51.8747 33.7928 52.2385 34.3301C52.4027 34.5721 52.5247 34.8408 52.6068 35.1206V35.1273C52.6844 35.3848 52.3783 35.5802 52.1764 35.4048C51.2092 34.5588 49.967 33.6462 48.4098 32.798C48.321 32.7491 48.2079 32.7825 48.1614 32.8735L48.1636 32.8846Z" fill="#292929"/>
<path d="M48.0216 32.5826C47.9728 32.6714 48.0061 32.7825 48.0948 32.8313C49.7208 33.7173 51.0052 34.6854 51.9812 35.5669C52.0744 35.6513 52.0478 35.809 51.9302 35.8534C51.9302 35.8534 51.9302 35.8534 51.928 35.8534C51.4843 36.0177 51.0429 35.9666 50.6015 35.8534C49.7164 35.6247 48.9156 35.1983 48.1126 34.7809C46.7772 34.0859 45.4639 33.3465 44.0353 32.8513C43.6893 32.7314 43.3366 32.6226 42.9839 32.5271C42.9129 32.5071 42.7887 32.5427 42.7377 32.5982C41.2004 34.3435 39.2017 35.165 36.9568 35.4826C35.0247 35.7579 33.1037 35.6424 31.196 35.2583C31.1738 35.2538 31.1538 35.2427 31.085 35.2183C31.1982 35.1761 31.2758 35.1473 31.3534 35.1184C32.5513 34.6854 33.6405 34.077 34.5478 33.1666C35.2332 32.4783 35.7212 31.6745 35.9408 30.7197C35.9608 30.6331 35.9719 30.5442 35.9941 30.4199C35.4905 30.411 35.007 30.3955 34.5256 30.3932C32.2474 30.3866 29.9936 30.6042 27.7975 31.2415C25.3796 31.9454 23.2145 33.0845 21.5087 34.983C19.9825 36.6838 19.0553 38.6623 18.8933 40.9649C18.8667 41.3512 18.9022 41.7443 18.9377 42.1306C19.0043 42.819 19.3858 43.3119 20.0091 43.5695C20.7057 43.8582 21.4244 44.0957 22.1431 44.3311C23.0948 44.6442 24.022 44.9928 24.7984 45.6523C25.7079 46.4206 26.227 47.6352 26.2669 48.8253C25.8188 48.0126 25.0535 47.7795 24.2483 47.6663C23.412 47.5486 22.5646 47.5019 21.7239 47.4153C21.4776 47.3909 21.2337 47.3554 20.9919 47.3065C20.6236 47.2288 20.2709 47.1067 19.9759 46.8136C19.9603 47.0156 19.9648 47.2 19.9293 47.3776C19.8517 47.7773 19.6387 48.1148 19.388 48.4256C19.1285 48.7454 18.8601 49.0563 18.5983 49.3738C17.731 50.4218 17.3161 51.3189 17.6267 52.7955C17.4137 52.5069 17.1942 52.2249 16.9923 51.9273C15.9919 50.464 15.8299 48.8942 16.4044 47.2333C16.6285 46.5827 16.8569 45.9321 17.0677 45.2748C17.4381 44.1202 17.4138 42.9677 16.979 41.8375C16.0251 39.355 15.9209 36.8126 16.5331 34.2569C17.7886 29.001 20.8454 25.0752 25.4927 22.3729C26.8392 21.5913 28.2922 21.0429 29.8051 20.6698C29.8783 20.6521 29.9515 20.6343 30.0225 20.6121C30.0358 20.6099 30.0469 20.5965 30.0913 20.5677C29.0398 18.8024 27.4847 17.6522 25.6813 16.7485C26.1848 16.7263 26.6862 16.6863 27.1897 16.6819C29.0553 16.6663 30.8743 16.9572 32.6312 17.5967C34.2239 18.1785 35.6569 19.0289 36.9058 20.188C37.0056 20.2812 37.1565 20.3523 37.294 20.3701C39.7075 20.7231 41.9945 21.4359 44.0598 22.7637C46.9746 24.6378 48.9089 27.269 49.9581 30.5553C50.1822 31.257 50.5083 31.8743 50.9519 32.4494C51.349 32.9646 51.7328 33.4908 52.0966 34.0282C52.2607 34.2702 52.3827 34.5389 52.4648 34.8186V34.8253C52.5425 35.0829 52.2363 35.2783 52.0345 35.1028C51.0673 34.2569 49.8251 33.3442 48.2678 32.496C48.1791 32.4472 48.066 32.4805 48.0194 32.5715L48.0216 32.5826Z" fill="url(#paint3_radial_68_39411)"/>
<g opacity="0.69">
<path d="M48.0216 32.5826C47.9728 32.6714 48.0061 32.7825 48.0948 32.8313C49.7208 33.7173 51.0052 34.6854 51.9812 35.5669C52.0744 35.6513 52.0478 35.809 51.9302 35.8534C51.9302 35.8534 51.9302 35.8534 51.928 35.8534C51.4843 36.0177 51.0429 35.9666 50.6015 35.8534C49.7164 35.6247 48.9156 35.1983 48.1126 34.7809C46.7772 34.0859 45.4639 33.3465 44.0353 32.8513C43.6893 32.7314 43.3366 32.6226 42.9839 32.5271C42.9129 32.5071 42.7887 32.5427 42.7377 32.5982C41.2004 34.3435 39.2017 35.165 36.9568 35.4826C35.0247 35.7579 33.1037 35.6424 31.196 35.2583C31.1738 35.2538 31.1538 35.2427 31.085 35.2183C31.1982 35.1761 31.2758 35.1473 31.3534 35.1184C32.5513 34.6854 33.6405 34.077 34.5478 33.1666C35.2332 32.4783 35.7212 31.6745 35.9408 30.7197C35.9608 30.6331 35.9719 30.5442 35.9941 30.4199C35.4905 30.411 35.007 30.3955 34.5256 30.3932C32.2474 30.3866 29.9936 30.6042 27.7975 31.2415C25.3796 31.9454 23.2145 33.0845 21.5087 34.983C19.9825 36.6838 19.0553 38.6623 18.8933 40.9649C18.8667 41.3512 18.9022 41.7443 18.9377 42.1306C19.0043 42.819 19.3858 43.3119 20.0091 43.5695C20.7057 43.8582 21.4244 44.0957 22.1431 44.3311C23.0948 44.6442 24.022 44.9928 24.7984 45.6523C25.7079 46.4206 26.227 47.6352 26.2669 48.8253C25.8188 48.0126 25.0535 47.7795 24.2483 47.6663C23.412 47.5486 22.5646 47.5019 21.7239 47.4153C21.4776 47.3909 21.2337 47.3554 20.9919 47.3065C20.6236 47.2288 20.2709 47.1067 19.9759 46.8136C19.9603 47.0156 19.9648 47.2 19.9293 47.3776C19.8517 47.7773 19.6387 48.1148 19.388 48.4256C19.1285 48.7454 18.8601 49.0563 18.5983 49.3738C17.731 50.4218 17.3161 51.3189 17.6267 52.7955C17.4137 52.5069 17.1942 52.2249 16.9923 51.9273C15.9919 50.464 15.8299 48.8942 16.4044 47.2333C16.6285 46.5827 16.8569 45.9321 17.0677 45.2748C17.4381 44.1202 17.4138 42.9677 16.979 41.8375C16.0251 39.355 15.9209 36.8126 16.5331 34.2569C17.7886 29.001 20.8454 25.0752 25.4927 22.3729C26.8392 21.5913 28.2922 21.0429 29.8051 20.6698C29.8783 20.6521 29.9515 20.6343 30.0225 20.6121C30.0358 20.6099 30.0469 20.5965 30.0913 20.5677C29.0398 18.8024 27.4847 17.6522 25.6813 16.7485C26.1848 16.7263 26.6862 16.6863 27.1897 16.6819C29.0553 16.6663 30.8743 16.9572 32.6312 17.5967C34.2239 18.1785 35.6569 19.0289 36.9058 20.188C37.0056 20.2812 37.1565 20.3523 37.294 20.3701C39.7075 20.7231 41.9945 21.4359 44.0598 22.7637C46.9746 24.6378 48.9089 27.269 49.9581 30.5553C50.1822 31.257 50.5083 31.8743 50.9519 32.4494C51.349 32.9646 51.7328 33.4908 52.0966 34.0282C52.2607 34.2702 52.3827 34.5389 52.4648 34.8186V34.8253C52.5425 35.0829 52.2363 35.2783 52.0345 35.1028C51.0673 34.2569 49.8251 33.3442 48.2678 32.496C48.1791 32.4472 48.066 32.4805 48.0194 32.5715L48.0216 32.5826Z" fill="#4A4A4A"/>
</g>
<path d="M31.8903 48.912C31.9258 48.8165 31.877 48.7121 31.7816 48.6766C30.0469 48.0327 28.6383 47.2533 27.5447 46.5205C27.4404 46.4495 27.4449 46.2896 27.5535 46.2297C27.5535 46.2297 27.5535 46.2297 27.5558 46.2297C27.9706 46.0054 28.4165 45.9898 28.869 46.0409C29.7785 46.1408 30.6325 46.4495 31.4866 46.7492C32.9063 47.2466 34.3127 47.7928 35.7967 48.0793C36.1561 48.1481 36.5199 48.2059 36.8837 48.2525C36.9569 48.2614 37.0744 48.2103 37.1166 48.1481C38.3921 46.203 40.2532 45.1061 42.4316 44.471C44.306 43.9248 46.2226 43.7671 48.1659 43.8759C48.188 43.8759 48.208 43.8848 48.2812 43.9004C48.1747 43.9581 48.1015 43.9981 48.0283 44.0358C46.9036 44.6331 45.9121 45.3925 45.1423 46.4206C44.5611 47.2 44.1929 48.066 44.1086 49.0408C44.0997 49.1296 44.1019 49.2184 44.0975 49.345C44.5966 49.2828 45.078 49.2295 45.5549 49.1629C47.8109 48.8476 50.0115 48.3102 52.0944 47.3665C54.3881 46.3274 56.3713 44.8907 57.7887 42.7702C59.0576 40.8694 59.6965 38.7778 59.5301 36.4774C59.5013 36.091 59.4125 35.7069 59.3194 35.3294C59.1552 34.6566 58.7071 34.2236 58.0549 34.0571C57.3229 33.8705 56.5798 33.7373 55.8366 33.6063C54.8495 33.4331 53.8846 33.2177 53.0194 32.6759C52.0101 32.0431 51.3246 30.9151 51.1161 29.7449C51.6751 30.4865 52.4671 30.6087 53.2789 30.6064C54.1241 30.6042 54.9693 30.5309 55.8145 30.4954C56.0607 30.4843 56.3091 30.4843 56.5554 30.4999C56.9302 30.5243 57.2985 30.5953 57.6312 30.844C57.6179 30.642 57.5869 30.4599 57.598 30.28C57.618 29.8737 57.7821 29.5095 57.9862 29.1654C58.1969 28.8123 58.4187 28.4659 58.6339 28.1129C59.3438 26.9516 59.6277 26.0034 59.1108 24.5868C59.3615 24.8421 59.6211 25.0908 59.8629 25.355C61.0607 26.6607 61.4422 28.1906 61.1095 29.9181C60.9786 30.5953 60.8455 31.2704 60.7302 31.952C60.5283 33.1467 60.7147 34.2858 61.3047 35.3427C62.6002 37.6631 63.0638 40.1656 62.822 42.7835C62.3251 48.1637 59.8562 52.4847 55.637 55.8198C54.4147 56.7857 53.055 57.5318 51.6109 58.118C51.5421 58.1469 51.4711 58.1735 51.4023 58.2046C51.389 58.2091 51.3801 58.2224 51.3424 58.2579C52.6334 59.8566 54.3349 60.7737 56.2493 61.411C55.7546 61.5042 55.2621 61.6152 54.7652 61.6907C52.9196 61.9705 51.0784 61.9417 49.2506 61.5575C47.5913 61.2067 46.0518 60.5694 44.6521 59.5991C44.5389 59.5214 44.3792 59.4725 44.2417 59.4725C41.8016 59.4658 39.4369 59.0839 37.2053 58.0625C34.0553 56.6214 31.7661 54.2899 30.2621 51.1879C29.9426 50.524 29.53 49.96 29.0088 49.4538C28.5429 49.0008 28.0882 48.5345 27.6512 48.0526C27.4538 47.8373 27.294 47.5886 27.1742 47.3221V47.3154C27.0589 47.0712 27.3362 46.8336 27.5602 46.9802C28.6383 47.6796 29.9959 48.4079 31.6574 49.0252C31.7528 49.0607 31.8592 49.0119 31.8947 48.9164L31.8903 48.912Z" fill="#292929"/>
<path d="M31.7483 48.61C31.7838 48.5145 31.735 48.4101 31.6396 48.3746C29.9049 47.7307 28.4963 46.9513 27.4027 46.2185C27.2984 46.1475 27.3029 45.9876 27.4116 45.9276C27.4116 45.9276 27.4116 45.9276 27.4138 45.9276C27.8286 45.7034 28.2745 45.6878 28.727 45.7389C29.6365 45.8388 30.4905 46.1475 31.3446 46.4472C32.7643 46.9446 34.1707 47.4908 35.6547 47.7773C36.0141 47.8461 36.3779 47.9039 36.7417 47.9505C36.8149 47.9594 36.9324 47.9083 36.9746 47.8461C38.2501 45.901 40.1113 44.8041 42.2896 44.169C44.1641 43.6228 46.0806 43.4651 48.0238 43.5739C48.046 43.5739 48.066 43.5828 48.1392 43.5984C48.0327 43.6561 47.9595 43.6961 47.8863 43.7338C46.7617 44.3311 45.7701 45.0905 45.0003 46.1186C44.4192 46.898 44.0509 47.764 43.9666 48.7388C43.9577 48.8276 43.96 48.9164 43.9555 49.043C44.4547 48.9808 44.936 48.9275 45.4129 48.8609C47.6689 48.5456 49.8694 48.0082 51.9524 47.0645C54.2461 46.0253 56.2293 44.5887 57.6468 42.4682C58.9156 40.5674 59.5545 38.4758 59.3881 36.1754C59.3592 35.789 59.2705 35.4049 59.1774 35.0274C59.0132 34.3546 58.5651 33.9216 57.9129 33.755C57.1809 33.5685 56.4378 33.4353 55.6947 33.3043C54.7075 33.1311 53.7426 32.9157 52.8775 32.3739C51.8681 31.7411 51.1827 30.6131 50.9742 29.4429C51.5332 30.1845 52.3251 30.3067 53.137 30.3044C53.9821 30.3022 54.8273 30.2289 55.6725 30.1934C55.9187 30.1823 56.1672 30.1823 56.4134 30.1979C56.7883 30.2223 57.1565 30.2933 57.4893 30.542C57.476 30.34 57.4449 30.1579 57.456 29.978C57.4759 29.5717 57.6401 29.2075 57.8442 28.8634C58.0549 28.5103 58.2767 28.1639 58.4919 27.8109C59.2017 26.6496 59.4857 25.7014 58.9689 24.2848C59.2195 24.5401 59.479 24.7888 59.7208 25.053C60.9187 26.3587 61.3003 27.8886 60.9675 29.6161C60.8366 30.2933 60.7036 30.9684 60.5882 31.65C60.3863 32.8447 60.5726 33.9838 61.1627 35.0407C62.4582 37.3611 62.9218 39.8636 62.68 42.4815C62.1831 47.8617 59.7142 52.1827 55.495 55.5178C54.2727 56.4837 52.9129 57.2298 51.4688 57.816C51.4001 57.8449 51.3291 57.8715 51.2603 57.9026C51.247 57.907 51.2381 57.9204 51.2004 57.9559C52.4915 59.5546 54.1929 60.4717 56.1072 61.109C55.6126 61.2022 55.1201 61.3132 54.6232 61.3887C52.7776 61.6685 50.9365 61.6397 49.1086 61.2555C47.4493 60.9047 45.9098 60.2674 44.5101 59.2971C44.397 59.2193 44.2372 59.1705 44.0997 59.1705C41.6596 59.1638 39.2949 58.7819 37.0633 57.7605C33.9134 56.3194 31.6241 53.9879 30.1201 50.8859C29.8007 50.222 29.3881 49.658 28.8668 49.1518C28.4009 48.6988 27.9462 48.2325 27.5092 47.7506C27.3117 47.5353 27.152 47.2866 27.0323 47.0201V47.0134C26.9169 46.7692 27.1942 46.5316 27.4182 46.6782C28.4963 47.3776 29.8539 48.1059 31.5154 48.7232C31.6108 48.7587 31.7173 48.7099 31.7528 48.6144L31.7483 48.61Z" fill="url(#paint4_radial_68_39411)"/>
<g opacity="0.69">
<path d="M31.7483 48.61C31.7838 48.5145 31.735 48.4101 31.6396 48.3746C29.9049 47.7307 28.4963 46.9513 27.4027 46.2185C27.2984 46.1475 27.3029 45.9876 27.4116 45.9276C27.4116 45.9276 27.4116 45.9276 27.4138 45.9276C27.8286 45.7034 28.2745 45.6878 28.727 45.7389C29.6365 45.8388 30.4905 46.1475 31.3446 46.4472C32.7643 46.9446 34.1707 47.4908 35.6547 47.7773C36.0141 47.8461 36.3779 47.9039 36.7417 47.9505C36.8149 47.9594 36.9324 47.9083 36.9746 47.8461C38.2501 45.901 40.1113 44.8041 42.2896 44.169C44.1641 43.6228 46.0806 43.4651 48.0238 43.5739C48.046 43.5739 48.066 43.5828 48.1392 43.5984C48.0327 43.6561 47.9595 43.6961 47.8863 43.7338C46.7617 44.3311 45.7701 45.0905 45.0003 46.1186C44.4192 46.898 44.0509 47.764 43.9666 48.7388C43.9577 48.8276 43.96 48.9164 43.9555 49.043C44.4547 48.9808 44.936 48.9275 45.4129 48.8609C47.6689 48.5456 49.8694 48.0082 51.9524 47.0645C54.2461 46.0253 56.2293 44.5887 57.6468 42.4682C58.9156 40.5674 59.5545 38.4758 59.3881 36.1754C59.3592 35.789 59.2705 35.4049 59.1774 35.0274C59.0132 34.3546 58.5651 33.9216 57.9129 33.755C57.1809 33.5685 56.4378 33.4353 55.6947 33.3043C54.7075 33.1311 53.7426 32.9157 52.8775 32.3739C51.8681 31.7411 51.1827 30.6131 50.9742 29.4429C51.5332 30.1845 52.3251 30.3067 53.137 30.3044C53.9821 30.3022 54.8273 30.2289 55.6725 30.1934C55.9187 30.1823 56.1672 30.1823 56.4134 30.1979C56.7883 30.2223 57.1565 30.2933 57.4893 30.542C57.476 30.34 57.4449 30.1579 57.456 29.978C57.4759 29.5717 57.6401 29.2075 57.8442 28.8634C58.0549 28.5103 58.2767 28.1639 58.4919 27.8109C59.2017 26.6496 59.4857 25.7014 58.9689 24.2848C59.2195 24.5401 59.479 24.7888 59.7208 25.053C60.9187 26.3587 61.3003 27.8886 60.9675 29.6161C60.8366 30.2933 60.7036 30.9684 60.5882 31.65C60.3863 32.8447 60.5726 33.9838 61.1627 35.0407C62.4582 37.3611 62.9218 39.8636 62.68 42.4815C62.1831 47.8617 59.7142 52.1827 55.495 55.5178C54.2727 56.4837 52.9129 57.2298 51.4688 57.816C51.4001 57.8449 51.3291 57.8715 51.2603 57.9026C51.247 57.907 51.2381 57.9204 51.2004 57.9559C52.4915 59.5546 54.1929 60.4717 56.1072 61.109C55.6126 61.2022 55.1201 61.3132 54.6232 61.3887C52.7776 61.6685 50.9365 61.6397 49.1086 61.2555C47.4493 60.9047 45.9098 60.2674 44.5101 59.2971C44.397 59.2193 44.2372 59.1705 44.0997 59.1705C41.6596 59.1638 39.2949 58.7819 37.0633 57.7605C33.9134 56.3194 31.6241 53.9879 30.1201 50.8859C29.8007 50.222 29.3881 49.658 28.8668 49.1518C28.4009 48.6988 27.9462 48.2325 27.5092 47.7506C27.3117 47.5353 27.152 47.2866 27.0323 47.0201V47.0134C26.9169 46.7692 27.1942 46.5316 27.4182 46.6782C28.4963 47.3776 29.8539 48.1059 31.5154 48.7232C31.6108 48.7587 31.7173 48.7099 31.7528 48.6144L31.7483 48.61Z" fill="#4A4A4A"/>
</g>
<path d="M42.2696 39.4328L40.8543 37.9917L39.5389 36.6505H39.5367C39.4413 36.7505 36.9213 39.375 36.9191 39.375C36.431 39.8835 36.2092 40.6829 36.4732 41.3424C36.5087 41.4356 36.5553 41.5245 36.6108 41.6088C36.6618 41.6866 36.7195 41.7598 36.7816 41.8264C36.7838 41.8287 36.786 41.8309 36.7904 41.8353C37.1875 42.2661 37.8108 42.497 38.3898 42.4593C38.9732 42.4215 39.6676 42.0596 39.8361 41.4578C39.9204 41.1581 39.8472 40.8428 39.7163 40.5697C39.7163 40.5697 39.6409 40.3587 39.428 40.1877C39.215 40.0145 38.8623 39.8858 38.3033 40.0567L38.0371 40.1478L37.3228 40.3898C37.2052 40.4253 37.0943 40.3498 37.0633 40.2499C37.0433 40.1966 37.0477 40.1389 37.0832 40.0834C37.132 40.0034 37.4315 39.8014 37.5779 39.7015C37.5779 39.7015 37.731 39.5172 37.8641 39.3173C38.0726 39.002 38.3854 38.7622 38.758 38.6801C39.0375 38.6201 39.3947 38.6245 39.8206 38.7844C40.0646 38.8754 40.3308 39.0153 40.6214 39.2241C40.6747 39.2618 40.7367 39.2884 40.8011 39.2929C40.8965 39.2996 41.054 39.3284 41.2004 39.4372C41.3601 39.5549 41.5065 39.7659 41.5442 40.15C41.5442 40.15 41.2625 39.8258 40.8099 39.8525C40.8011 39.8525 40.7944 39.8525 40.7856 39.8525C40.7856 39.8525 40.8033 39.8613 40.8344 39.8813C40.9409 39.9568 41.1915 40.1966 41.1338 40.754C41.1338 40.754 41.1006 41.3246 40.5571 41.8553C40.4395 41.973 40.4284 42.1395 40.4972 42.2639C40.546 42.3549 40.6347 42.4215 40.7523 42.4371H40.7589C41.491 42.5303 42.1587 42.0818 42.5047 41.4578C42.8796 40.7806 42.8264 40.0012 42.2696 39.435V39.4328ZM39.5455 37.2856L40.0269 37.8185L39.5566 38.3692L39.4213 38.2248L39.0553 37.8363L39.5367 37.2945L39.5455 37.2856Z" fill="#292929"/>
<path d="M40.9097 43.4918C40.9097 43.5629 40.8543 43.6206 40.7833 43.6206L38.931 43.6406C38.86 43.6406 38.8023 43.5851 38.8023 43.514C38.8023 43.4718 38.8245 43.4296 38.86 43.4052C38.9221 43.3652 39.0109 43.383 39.0796 43.3586C39.144 43.3364 39.2016 43.3008 39.2527 43.2564C39.3591 43.1654 39.4346 43.0411 39.5011 42.9211C39.5322 42.8656 39.5588 42.8101 39.5898 42.7568C39.6897 42.5681 39.7828 42.3727 39.8605 42.1729C39.9669 42.4926 40.1134 42.7879 40.2909 43.0744C40.3596 43.1876 40.4616 43.2809 40.5858 43.3275C40.648 43.3519 40.7145 43.363 40.7811 43.3675C40.8476 43.3719 40.9053 43.4208 40.9053 43.4918H40.9097Z" fill="#292929"/>
<path d="M42.1298 39.2951L40.8521 37.9939L39.5366 36.6528L39.3991 36.5129C39.3991 36.5129 36.7815 39.2374 36.7793 39.2374C36.2469 39.7925 36.0295 40.694 36.4177 41.3846C36.4332 41.4134 36.451 41.4423 36.471 41.4712C36.5575 41.6022 36.6618 41.7221 36.7838 41.8265C36.786 41.8287 36.7882 41.8309 36.7927 41.8353C37.1897 42.1751 37.7398 42.3549 38.2522 42.3194C38.8357 42.2816 39.53 41.9197 39.6986 41.318C39.7829 41.0182 39.7096 40.7029 39.5788 40.4298C39.5788 40.4298 39.5366 40.3143 39.4324 40.1855C39.2727 39.9901 38.9621 39.7659 38.4186 39.8547C38.341 39.868 38.2567 39.888 38.168 39.9146L37.1875 40.2477C37.1454 40.261 37.1032 40.2588 37.0677 40.2477C36.9457 40.21 36.8681 40.0656 36.9457 39.9435C36.9945 39.8658 37.2962 39.6615 37.4404 39.5616C37.4404 39.5616 37.5934 39.3773 37.7265 39.1774C37.9351 38.8621 38.2501 38.6223 38.6205 38.5402C38.9444 38.4713 39.3703 38.4869 39.8894 38.7311C40.0757 38.8155 40.2731 38.931 40.4838 39.082C40.5371 39.1219 40.5992 39.1464 40.6635 39.1508C40.7922 39.1597 41.0295 39.2085 41.2026 39.4328C41.3002 39.5594 41.3801 39.7437 41.4045 40.0057C41.4045 40.0057 41.1138 39.6704 40.648 39.7081C40.648 39.7081 40.7279 39.7437 40.8121 39.8458C40.821 39.8547 40.8277 39.8658 40.8366 39.8769C40.9386 40.0123 41.034 40.241 40.9963 40.6119C40.9963 40.6119 40.963 41.1825 40.4195 41.7132C40.2465 41.882 40.3042 42.1595 40.4994 42.2594C40.5327 42.2772 40.5704 42.2883 40.6125 42.295H40.6192C41.3534 42.3882 42.0189 41.9397 42.3649 41.3157C42.7398 40.6385 42.6866 39.8591 42.1298 39.2929V39.2951ZM39.4168 38.2293L38.9155 37.6964L39.4058 37.1457L39.5389 37.2923L39.8894 37.6764L39.4235 38.2204L39.4191 38.2248L39.4168 38.2293Z" fill="url(#paint5_radial_68_39411)"/>
<path d="M40.7678 43.3541C40.7678 43.4252 40.7123 43.4829 40.6413 43.4829L38.7891 43.5029C38.7181 43.5029 38.6604 43.4474 38.6604 43.3763C38.6604 43.3341 38.6826 43.2919 38.7181 43.2675C38.7802 43.2275 38.8689 43.2453 38.9377 43.2209C39.002 43.1987 39.0597 43.1632 39.1107 43.1187C39.2172 43.0277 39.2926 42.9034 39.3592 42.7835C39.3902 42.7279 39.4169 42.6724 39.4479 42.6191C39.5478 42.4304 39.6409 42.235 39.7186 42.0352C39.825 42.3549 39.9714 42.6502 40.1489 42.9367C40.2177 43.0499 40.3197 43.1432 40.4439 43.1898C40.506 43.2142 40.5726 43.2253 40.6391 43.2298C40.7057 43.2342 40.7634 43.2831 40.7634 43.3541H40.7678Z" fill="url(#paint6_radial_68_39411)"/>
<g opacity="0.69">
<path d="M42.1298 39.2951L40.8521 37.9939L39.5366 36.6528L39.3991 36.5129C39.3991 36.5129 36.7815 39.2374 36.7793 39.2374C36.2469 39.7925 36.0295 40.694 36.4177 41.3846C36.4332 41.4134 36.451 41.4423 36.471 41.4712C36.5575 41.6022 36.6618 41.7221 36.7838 41.8265C36.786 41.8287 36.7882 41.8309 36.7927 41.8353C37.1897 42.1751 37.7398 42.3549 38.2522 42.3194C38.8357 42.2816 39.53 41.9197 39.6986 41.318C39.7829 41.0182 39.7096 40.7029 39.5788 40.4298C39.5788 40.4298 39.5366 40.3143 39.4324 40.1855C39.2727 39.9901 38.9621 39.7659 38.4186 39.8547C38.341 39.868 38.2567 39.888 38.168 39.9146L37.1875 40.2477C37.1454 40.261 37.1032 40.2588 37.0677 40.2477C36.9457 40.21 36.8681 40.0656 36.9457 39.9435C36.9945 39.8658 37.2962 39.6615 37.4404 39.5616C37.4404 39.5616 37.5934 39.3773 37.7265 39.1774C37.9351 38.8621 38.2501 38.6223 38.6205 38.5402C38.9444 38.4713 39.3703 38.4869 39.8894 38.7311C40.0757 38.8155 40.2731 38.931 40.4838 39.082C40.5371 39.1219 40.5992 39.1464 40.6635 39.1508C40.7922 39.1597 41.0295 39.2085 41.2026 39.4328C41.3002 39.5594 41.3801 39.7437 41.4045 40.0057C41.4045 40.0057 41.1138 39.6704 40.648 39.7081C40.648 39.7081 40.7279 39.7437 40.8121 39.8458C40.821 39.8547 40.8277 39.8658 40.8366 39.8769C40.9386 40.0123 41.034 40.241 40.9963 40.6119C40.9963 40.6119 40.963 41.1825 40.4195 41.7132C40.2465 41.882 40.3042 42.1595 40.4994 42.2594C40.5327 42.2772 40.5704 42.2883 40.6125 42.295H40.6192C41.3534 42.3882 42.0189 41.9397 42.3649 41.3157C42.7398 40.6385 42.6866 39.8591 42.1298 39.2929V39.2951ZM39.4168 38.2293L38.9155 37.6964L39.4058 37.1457L39.5389 37.2923L39.8894 37.6764L39.4235 38.2204L39.4191 38.2248L39.4168 38.2293Z" fill="#4A4A4A"/>
<path d="M40.7678 43.3541C40.7678 43.4252 40.7123 43.4829 40.6413 43.4829L38.7891 43.5029C38.7181 43.5029 38.6604 43.4474 38.6604 43.3763C38.6604 43.3341 38.6826 43.2919 38.7181 43.2675C38.7802 43.2275 38.8689 43.2453 38.9377 43.2209C39.002 43.1987 39.0597 43.1632 39.1107 43.1187C39.2172 43.0277 39.2926 42.9034 39.3592 42.7835C39.3902 42.7279 39.4169 42.6724 39.4479 42.6191C39.5478 42.4304 39.6409 42.235 39.7186 42.0352C39.825 42.3549 39.9714 42.6502 40.1489 42.9367C40.2177 43.0499 40.3197 43.1432 40.4439 43.1898C40.506 43.2142 40.5726 43.2253 40.6391 43.2298C40.7057 43.2342 40.7634 43.2831 40.7634 43.3541H40.7678Z" fill="#4A4A4A"/>
</g>
<path d="M62.07 13.5666L61.6796 13.9063L61.0296 14.4703L60.5372 14.8988L35.8832 36.2864L35.3974 36.7083L25.353 45.4214L24.8916 45.8233L12.2496 56.7924L11.6418 57.3208L10.9941 57.8826L10.7101 58.1291C8.24782 54.2611 6.53977 49.8623 5.80109 45.1416L5.89868 45.0572L6.63733 44.4177L7.34944 43.7938L29.8916 24.2137L30.0358 24.0894L33.9999 20.641H34.0043L34.9582 19.8083H34.9604L38.5296 16.7063L38.6982 16.5642L41.1427 14.4392L41.1516 14.4348L48.3543 8.1775L48.9533 7.65791L49.5012 7.18273L50.0779 6.68091C54.5544 8.14642 58.625 10.5134 62.0722 13.5688L62.07 13.5666Z" fill="url(#paint7_linear_68_39411)"/>
<path d="M73.5585 38.1183L73.534 38.1405L72.1476 39.3306L71.491 39.8946L49.2483 59.0306L48.7248 59.4814L46.4378 61.4509L46.0318 61.8017L45.8765 61.9328L45.2288 62.4879L43.4076 64.0555L42.7909 64.5862L35.1422 71.1677L34.3681 71.8294L33.3477 72.7087L32.7021 73.266C29.6453 72.6487 26.735 71.6229 24.0353 70.2462L24.5367 69.8154L25.333 69.1315L25.9808 68.572L33.2656 62.3036L33.758 61.8795L36.0141 59.941L36.4511 59.5613L38.1658 58.0891L38.869 57.4874L41.8215 54.9472L42.487 54.3743L55.1156 43.5096L55.5438 43.1432H55.5483L60.9653 38.478L61.5199 37.9984L70.3109 30.4377L70.8477 29.978L71.8637 29.1009L72.0367 28.9522C72.944 31.8588 73.4697 34.9341 73.5607 38.116L73.5585 38.1183Z" fill="url(#paint8_linear_68_39411)"/>
<path d="M73.5762 39.8123C73.5762 58.6596 58.3122 73.9387 39.4812 73.9387C37.1609 73.9387 34.8938 73.7055 32.7043 73.2637C29.6476 72.6464 26.7372 71.6205 24.0376 70.2438C18.5872 67.466 13.9776 63.2649 10.7101 58.129C8.24781 54.2609 6.53976 49.8622 5.80108 45.1415C5.52601 43.405 5.38623 41.6242 5.38623 39.8123C5.38623 39.7302 5.38623 39.6502 5.38845 39.5681V39.3705C5.62581 20.723 20.7966 5.68155 39.479 5.68155C42.9683 5.68155 46.3335 6.20558 49.5012 7.18036C54.0376 8.57482 58.168 10.8908 61.6796 13.9084C66.3313 17.9074 69.8961 23.1411 71.8615 29.1008C72.8064 31.9652 73.3832 34.9961 73.5363 38.1381C73.554 38.5467 73.5695 38.9575 73.574 39.3705V39.5681C73.5762 39.6502 73.5762 39.7302 73.5762 39.8123Z" fill="url(#paint9_linear_68_39411)" style="mix-blend-mode:difference"/>
</g>
<defs>
<filter id="filter0_f_68_39411" x="0.38623" y="-4.76837e-07" width="78.1899" height="79.9669" filterUnits="userSpaceOnUse" color-interpolation-filters="sRGB">
<feFlood flood-opacity="0" result="BackgroundImageFix"/>
<feBlend mode="normal" in="SourceGraphic" in2="BackgroundImageFix" result="shape"/>
<feGaussianBlur stdDeviation="2.5" result="effect1_foregroundBlur_68_39411"/>
</filter>
<linearGradient id="paint0_linear_68_39411" x1="28.3765" y1="72.0891" x2="50.6228" y2="7.54703" gradientUnits="userSpaceOnUse">
<stop stop-color="#A7A7A7"/>
<stop offset="0.51" stop-color="#BABABA"/>
<stop offset="1" stop-color="#D2D2D2"/>
</linearGradient>
<linearGradient id="paint1_linear_68_39411" x1="39.4568" y1="8.30185" x2="39.4568" y2="71.4586" gradientUnits="userSpaceOnUse">
<stop stop-color="#3B3B3B"/>
<stop offset="0.22" stop-color="#4F4F4F"/>
<stop offset="0.58" stop-color="#787878"/>
<stop offset="1" stop-color="#EAEAEA"/>
</linearGradient>
<linearGradient id="paint2_linear_68_39411" x1="29.4768" y1="69.0693" x2="49.6098" y2="10.6588" gradientUnits="userSpaceOnUse">
<stop stop-color="#A7A7A7"/>
<stop offset="0.51" stop-color="#BABABA"/>
<stop offset="1" stop-color="#D2D2D2"/>
</linearGradient>
<radialGradient id="paint3_radial_68_39411" cx="0" cy="0" r="1" gradientUnits="userSpaceOnUse" gradientTransform="translate(33.1667 38.1537) rotate(19.788) scale(18.1187 18.1325)">
<stop stop-color="white"/>
<stop offset="0.6" stop-color="#DDDDDD"/>
<stop offset="1" stop-color="#CCCCCC"/>
</radialGradient>
<radialGradient id="paint4_radial_68_39411" cx="0" cy="0" r="1" gradientUnits="userSpaceOnUse" gradientTransform="translate(46.6266 40.6085) rotate(19.788) scale(17.9834 17.9971)">
<stop stop-color="white"/>
<stop offset="0.6" stop-color="#DDDDDD"/>
<stop offset="1" stop-color="#CCCCCC"/>
</radialGradient>
<radialGradient id="paint5_radial_68_39411" cx="0" cy="0" r="1" gradientUnits="userSpaceOnUse" gradientTransform="translate(39.4124 39.4172) scale(3.05014 3.05314)">
<stop stop-color="white"/>
<stop offset="0.6" stop-color="#DDDDDD"/>
<stop offset="1" stop-color="#CCCCCC"/>
</radialGradient>
<radialGradient id="paint6_radial_68_39411" cx="0" cy="0" r="1" gradientUnits="userSpaceOnUse" gradientTransform="translate(39.7163 42.7679) scale(0.907277 0.908169)">
<stop stop-color="white"/>
<stop offset="0.6" stop-color="#DDDDDD"/>
<stop offset="1" stop-color="#CCCCCC"/>
</radialGradient>
<linearGradient id="paint7_linear_68_39411" x1="-5.5432" y1="65.8696" x2="55.4127" y2="9.60292" gradientUnits="userSpaceOnUse">
<stop stop-color="white" stop-opacity="0"/>
<stop offset="1" stop-color="white" stop-opacity="0.3"/>
</linearGradient>
<linearGradient id="paint8_linear_68_39411" x1="14.7762" y1="85.6473" x2="75.63" y2="29.476" gradientUnits="userSpaceOnUse">
<stop stop-color="white" stop-opacity="0"/>
<stop offset="1" stop-color="white" stop-opacity="0.3"/>
</linearGradient>
<linearGradient id="paint9_linear_68_39411" x1="28.3765" y1="72.089" x2="50.6228" y2="7.5469" gradientUnits="userSpaceOnUse">
<stop stop-color="#EDEDED"/>
<stop offset="0.51" stop-color="#E8E8E8"/>
<stop offset="1" stop-color="#F2F2F2"/>
</linearGradient>
</defs>
</svg>
