<svg width="71" height="72" viewBox="0 0 71 72" fill="none" xmlns="http://www.w3.org/2000/svg">
<g filter="url(#filter0_f_68_40087)">
<path d="M69.4824 35.1286C69.4824 35.2107 69.4824 35.2907 69.4801 35.3728V35.5704C69.2428 54.2157 54.0698 69.2593 35.3874 69.2593C33.2933 69.2593 31.2459 69.0684 29.2561 68.7087C26.1505 68.1469 23.1935 67.1588 20.4451 65.8154C14.9304 63.1198 10.2521 58.9786 6.89802 53.8848C4.38914 50.0745 2.62118 45.7313 1.80486 41.0594C1.4943 39.2742 1.31682 37.4401 1.29464 35.5704V35.3728C1.29242 35.2907 1.29242 35.2107 1.29242 35.1286C1.29242 16.2812 16.5542 1 35.3852 1C39.0853 1 42.6456 1.59065 45.9841 2.68089C50.4606 4.1464 54.5312 6.51342 57.9784 9.56878C62.5769 13.6433 66.0685 18.9414 67.9429 24.9544C68.8502 27.861 69.3759 30.9363 69.4669 34.1182C69.478 34.4535 69.4824 34.791 69.4824 35.1286Z" fill="#787878"/>
<path d="M69.4801 36.8383C69.4801 55.6879 54.2162 70.9669 35.3852 70.9669C16.5542 70.9669 1.29242 55.6879 1.29242 36.8383C1.29242 17.9888 16.5564 2.70975 35.3852 2.70975C54.2139 2.70975 69.4801 17.991 69.4801 36.8383Z" fill="#474747"/>
<path d="M69.4824 35.8125C69.4824 54.6598 54.2184 69.9388 35.3874 69.9388C33.0671 69.9388 30.8 69.7057 28.6105 69.2638C25.5537 68.6465 22.6434 67.6206 19.9437 66.2439C14.4934 63.4661 9.88382 59.265 6.61629 54.1291C4.154 50.261 2.44595 45.8623 1.70726 41.1416C1.4322 39.4052 1.29242 37.6244 1.29242 35.8125C1.29242 35.7303 1.29242 35.6504 1.29464 35.5682V35.3706C1.532 16.7231 16.7028 1.68167 35.3852 1.68167C38.8745 1.68167 42.2397 2.2057 45.4074 3.18049C49.9438 4.57494 54.0742 6.89088 57.5858 9.9085C62.2375 13.9076 65.8022 19.1412 67.7676 25.1009C68.7126 27.9653 69.2894 30.9963 69.4425 34.1382C69.4602 34.5468 69.4757 34.9576 69.4801 35.3706V35.5682C69.4824 35.6504 69.4824 35.7303 69.4824 35.8125Z" fill="url(#paint0_linear_68_40087)"/>
<path d="M66.9092 35.8813C66.9092 53.3186 52.7854 67.4586 35.363 67.4586C17.9407 67.4586 3.81686 53.3209 3.81686 35.8813C3.81686 18.4418 17.9407 4.30185 35.363 4.30185C52.7854 4.30185 66.9092 18.4396 66.9092 35.8813Z" fill="url(#paint1_linear_68_40087)"/>
<path d="M66.2881 35.8569C66.2881 52.9189 52.4726 66.7435 35.4317 66.7435C18.3909 66.7435 4.57549 52.9167 4.57549 35.8569C4.57549 18.797 18.3909 4.97241 35.4317 4.97241C52.4726 4.97241 66.2881 18.7993 66.2881 35.8569Z" fill="url(#paint2_linear_68_40087)"/>
<path d="M36.5898 7.54143C36.5898 8.04103 36.186 8.44516 35.6869 8.44516C35.1878 8.44516 34.784 8.04103 34.784 7.54143C34.784 7.04182 35.1878 6.6377 35.6869 6.6377C36.186 6.6377 36.5898 7.04182 36.5898 7.54143Z" fill="#474747"/>
<path d="M36.6807 7.31049C36.6807 7.8101 36.277 8.21422 35.7778 8.21422C35.2787 8.21422 34.875 7.8101 34.875 7.31049C34.875 6.81089 35.2787 6.40677 35.7778 6.40677C36.277 6.40677 36.6807 6.81089 36.6807 7.31049Z" fill="#E6E7E8"/>
<path d="M36.6363 7.42598C36.6363 7.92558 36.2326 8.32971 35.7335 8.32971C35.2344 8.32971 34.8306 7.92558 34.8306 7.42598C34.8306 6.92637 35.2344 6.52225 35.7335 6.52225C36.2326 6.52225 36.6363 6.92637 36.6363 7.42598Z" fill="#898989"/>
<path d="M32.1288 7.7036C32.2064 8.19655 31.8715 8.66063 31.3791 8.73834C30.8866 8.81606 30.4229 8.48077 30.3453 7.98782C30.2677 7.49488 30.6026 7.0308 31.0951 6.95309C31.5876 6.87537 32.0512 7.21066 32.1288 7.7036Z" fill="#474747"/>
<path d="M32.1843 7.46157C32.2619 7.95451 31.927 8.41859 31.4345 8.49631C30.942 8.57402 30.4784 8.23873 30.4008 7.74579C30.3231 7.25284 30.6581 6.78877 31.1506 6.71105C31.643 6.63333 32.1066 6.96863 32.1843 7.46157Z" fill="#E6E7E8"/>
<path d="M32.1576 7.58147C32.2353 8.07441 31.9003 8.53849 31.4079 8.6162C30.9154 8.69392 30.4518 8.35863 30.3742 7.86569C30.2965 7.37274 30.6315 6.90867 31.1239 6.83095C31.6164 6.75324 32.08 7.08852 32.1576 7.58147Z" fill="#898989"/>
<path d="M27.7499 8.56286C27.9052 9.03804 27.6434 9.54875 27.1709 9.70196C26.6962 9.85739 26.186 9.59537 26.033 9.12242C25.8777 8.64724 26.1394 8.13653 26.6119 7.98332C27.0866 7.82788 27.5946 8.0899 27.7499 8.56286Z" fill="#474747"/>
<path d="M27.7677 8.31192C27.9207 8.7871 27.6612 9.29781 27.1887 9.45102C26.714 9.60423 26.2038 9.34444 26.0507 8.87148C25.8955 8.3963 26.1572 7.88559 26.6297 7.73238C27.1044 7.57917 27.6146 7.83896 27.7677 8.31192Z" fill="#E6E7E8"/>
<path d="M27.7588 8.43851C27.9141 8.91369 27.6523 9.4244 27.1798 9.57761C26.7051 9.73083 26.1971 9.47103 26.0419 8.99807C25.8888 8.52289 26.1461 8.0144 26.6208 7.85897C27.0955 7.70576 27.6057 7.96555 27.7588 8.43851Z" fill="#898989"/>
<path d="M23.5595 10.095C23.7858 10.5391 23.6083 11.0854 23.1647 11.3118C22.721 11.5383 22.1753 11.3607 21.9513 10.9166C21.725 10.4725 21.9024 9.9285 22.3461 9.69979C22.7897 9.4733 23.3354 9.65094 23.5617 10.095H23.5595Z" fill="#474747"/>
<path d="M23.5374 9.84631C23.7636 10.2904 23.5862 10.8366 23.1425 11.0631C22.6988 11.2896 22.1532 11.112 21.9269 10.6679C21.7006 10.2238 21.8781 9.67978 22.3218 9.45107C22.7654 9.22458 23.3111 9.40222 23.5374 9.84631Z" fill="#E6E7E8"/>
<path d="M23.5484 9.97067C23.7747 10.4148 23.5972 10.961 23.1536 11.1875C22.7099 11.414 22.1642 11.2363 21.938 10.7922C21.7117 10.3482 21.8892 9.80414 22.3328 9.57543C22.7765 9.34894 23.3222 9.52658 23.5484 9.97067Z" fill="#898989"/>
<path d="M19.6575 12.2666C19.9504 12.6707 19.8616 13.237 19.4579 13.5301C19.0541 13.8232 18.4885 13.7343 18.1957 13.3302C17.9029 12.9261 17.9916 12.3621 18.3954 12.0668C18.7991 11.7737 19.3625 11.8625 19.6575 12.2666Z" fill="#474747"/>
<path d="M19.5977 12.0246C19.8905 12.4287 19.8018 12.9927 19.398 13.288C18.9943 13.5811 18.4286 13.4923 18.1358 13.0882C17.843 12.6841 17.9317 12.1178 18.3355 11.8247C18.7392 11.5316 19.3048 11.6205 19.5977 12.0246Z" fill="#E6E7E8"/>
<path d="M19.6287 12.1445C19.9215 12.5486 19.8328 13.1148 19.4291 13.4079C19.0254 13.701 18.4597 13.6122 18.1669 13.2081C17.8741 12.804 17.9628 12.24 18.3665 11.9446C18.7702 11.6515 19.3337 11.7404 19.6287 12.1445Z" fill="#898989"/>
<path d="M16.1461 15.02C16.4988 15.3731 16.4988 15.9459 16.1461 16.299C15.7934 16.6521 15.2211 16.6521 14.8684 16.299C14.5157 15.9459 14.5157 15.3731 14.8684 15.02C15.2211 14.667 15.7934 14.667 16.1461 15.02Z" fill="#474747"/>
<path d="M16.0485 14.7913C16.4012 15.1443 16.4012 15.7172 16.0485 16.0703C15.6958 16.4233 15.1234 16.4233 14.7707 16.0703C14.418 15.7172 14.418 15.1443 14.7707 14.7913C15.1234 14.4382 15.6958 14.4382 16.0485 14.7913Z" fill="#E6E7E8"/>
<path d="M16.0973 14.9068C16.45 15.2598 16.45 15.8327 16.0973 16.1857C15.7446 16.5388 15.1723 16.5388 14.8196 16.1857C14.4669 15.8327 14.4669 15.2598 14.8196 14.9068C15.1723 14.5537 15.7446 14.5537 16.0973 14.9068Z" fill="#898989"/>
<path d="M13.107 18.2907C13.5107 18.5838 13.5994 19.1501 13.3066 19.5542C13.0138 19.9583 12.4481 20.0471 12.0444 19.754C11.6407 19.4609 11.552 18.8947 11.8448 18.4906C12.1376 18.0865 12.7032 17.9976 13.107 18.2907Z" fill="#474747"/>
<path d="M12.9739 18.0798C13.3776 18.3729 13.4664 18.9391 13.1735 19.3433C12.8807 19.7474 12.3151 19.8362 11.9114 19.5431C11.5076 19.25 11.4189 18.6838 11.7117 18.2796C12.0045 17.8755 12.5701 17.7867 12.9739 18.0798Z" fill="#E6E7E8"/>
<path d="M13.0404 18.1864C13.4441 18.4795 13.5329 19.0457 13.2401 19.4498C12.9473 19.8539 12.3816 19.9428 11.9778 19.6497C11.5741 19.3566 11.4854 18.7903 11.7782 18.3862C12.071 17.9821 12.6367 17.8933 13.0404 18.1864Z" fill="#898989"/>
<path d="M10.6158 21.9967C11.0595 22.2232 11.237 22.7672 11.0107 23.2135C10.7844 23.6576 10.241 23.8352 9.7951 23.6088C9.35144 23.3823 9.17397 22.8383 9.40024 22.3919C9.6265 21.9478 10.17 21.7702 10.6158 21.9967Z" fill="#474747"/>
<path d="M10.4517 21.8102C10.8954 22.0367 11.0728 22.5807 10.8466 23.027C10.6203 23.4711 10.0768 23.6487 9.63096 23.4222C9.1873 23.1957 9.00983 22.6517 9.2361 22.2054C9.46236 21.7613 10.0058 21.5837 10.4517 21.8102Z" fill="#E6E7E8"/>
<path d="M10.5337 21.9034C10.9774 22.1299 11.1549 22.6739 10.9286 23.1203C10.7023 23.5643 10.1589 23.742 9.71299 23.5155C9.26933 23.289 9.09186 22.745 9.31813 22.2987C9.54439 21.8546 10.0879 21.6769 10.5337 21.9034Z" fill="#898989"/>
<path d="M8.73476 26.049C9.20948 26.2022 9.46898 26.7129 9.3137 27.1881C9.15842 27.6633 8.65046 27.9231 8.17575 27.7677C7.70104 27.6145 7.44148 27.1037 7.59676 26.6286C7.74982 26.1534 8.26005 25.8936 8.73476 26.049Z" fill="#474747"/>
<path d="M8.54396 25.8892C9.01868 26.0424 9.27824 26.5531 9.12296 27.0283C8.96768 27.5034 8.45967 27.7632 7.98495 27.6078C7.51024 27.4524 7.25073 26.9439 7.40601 26.4687C7.56129 25.9935 8.06925 25.7337 8.54396 25.8892Z" fill="#E6E7E8"/>
<path d="M8.63939 25.9691C9.11411 26.1223 9.37361 26.633 9.21833 27.1082C9.06305 27.5834 8.55509 27.8432 8.08038 27.6877C7.60567 27.5323 7.3461 27.0238 7.49917 26.5486C7.65223 26.0734 8.16246 25.8137 8.63717 25.9691H8.63939Z" fill="#898989"/>
<path d="M7.51027 30.3434C8.00273 30.4211 8.33988 30.8852 8.26002 31.3781C8.18238 31.8711 7.71878 32.2064 7.22632 32.1287C6.73386 32.051 6.39671 31.5869 6.47657 31.0939C6.55421 30.601 7.01781 30.2635 7.51027 30.3434Z" fill="#474747"/>
<path d="M7.29732 30.2169C7.78978 30.2946 8.12694 30.7587 8.04708 31.2516C7.96944 31.7446 7.50584 32.0821 7.01338 32.0043C6.52092 31.9266 6.18371 31.4626 6.26357 30.9696C6.34121 30.4767 6.80487 30.1392 7.29732 30.2191V30.2169Z" fill="#E6E7E8"/>
<path d="M7.40379 30.2791C7.89625 30.3568 8.2334 30.8208 8.15355 31.3138C8.07591 31.8067 7.6123 32.1442 7.11985 32.0643C6.62739 31.9866 6.29023 31.5225 6.36787 31.0296C6.44551 30.5366 6.90911 30.1991 7.40157 30.2791H7.40379Z" fill="#898989"/>
<path d="M6.97344 34.7777C7.47256 34.7777 7.87624 35.1818 7.87624 35.6814C7.87624 36.181 7.47256 36.5852 6.97344 36.5852C6.47433 36.5852 6.07059 36.181 6.07059 35.6814C6.07059 35.1818 6.47433 34.7777 6.97344 34.7777Z" fill="#474747"/>
<path d="M6.74053 34.6867C7.23965 34.6867 7.64339 35.0908 7.64339 35.5904C7.64339 36.09 7.23965 36.4941 6.74053 36.4941C6.24142 36.4941 5.83768 36.09 5.83768 35.5904C5.83768 35.0908 6.24142 34.6867 6.74053 34.6867Z" fill="#E6E7E8"/>
<path d="M6.85586 34.7311C7.35497 34.7311 7.75866 35.1352 7.75866 35.6348C7.75866 36.1344 7.35497 36.5385 6.85586 36.5385C6.35675 36.5385 5.953 36.1344 5.953 35.6348C5.953 35.1352 6.35675 34.7311 6.85586 34.7311Z" fill="#898989"/>
<path d="M7.13321 39.2408C7.62567 39.1631 8.08927 39.4984 8.16691 39.9936C8.24455 40.4865 7.90961 40.9506 7.41716 41.0283C6.9247 41.106 6.46104 40.7707 6.3834 40.2778C6.30576 39.7848 6.64075 39.3208 7.13321 39.2431V39.2408Z" fill="#474747"/>
<path d="M6.89138 39.1876C7.38384 39.1098 7.84744 39.4451 7.92508 39.9381C8.00272 40.431 7.66779 40.8951 7.17533 40.9728C6.68287 41.0505 6.21927 40.7152 6.14163 40.2223C6.06399 39.7293 6.39892 39.2653 6.89138 39.1876Z" fill="#E6E7E8"/>
<path d="M7.01343 39.2142C7.50589 39.1365 7.96949 39.4718 8.04713 39.9647C8.12477 40.4577 7.78983 40.9217 7.29737 40.9994C6.80492 41.0772 6.34126 40.7419 6.26362 40.2489C6.18598 39.756 6.52097 39.2919 7.01343 39.2142Z" fill="#898989"/>
<path d="M7.99164 43.6262C8.46636 43.473 8.97437 43.7328 9.12965 44.2058C9.28271 44.681 9.02315 45.1894 8.55066 45.3449C8.07594 45.4981 7.56576 45.2383 7.4127 44.7653C7.25742 44.2902 7.51915 43.7817 7.99164 43.6262Z" fill="#474747"/>
<path d="M7.74316 43.6085C8.21788 43.4531 8.72805 43.7129 8.88112 44.188C9.03418 44.6632 8.77467 45.1739 8.29995 45.3271C7.82524 45.4826 7.31723 45.2228 7.16195 44.7476C7.00889 44.2724 7.26845 43.7617 7.74094 43.6085H7.74316Z" fill="#E6E7E8"/>
<path d="M7.86737 43.6174C8.34209 43.4642 8.85232 43.7217 9.00538 44.1969C9.16066 44.6721 8.9011 45.1828 8.42639 45.336C7.95167 45.4892 7.44149 45.2294 7.28843 44.7565C7.13537 44.2813 7.39488 43.7706 7.86737 43.6174Z" fill="#898989"/>
<path d="M9.52232 47.8207C9.96598 47.5942 10.5095 47.7718 10.7379 48.2159C10.9642 48.66 10.7867 49.204 10.3431 49.4327C9.89942 49.6592 9.35595 49.4816 9.12968 49.0375C8.90342 48.5934 9.08089 48.0494 9.52454 47.8207H9.52232Z" fill="#474747"/>
<path d="M9.27386 47.8451C9.71751 47.6186 10.261 47.794 10.4895 48.2404C10.7157 48.6845 10.5383 49.2307 10.0946 49.4572C9.65095 49.6837 9.10748 49.506 8.879 49.0619C8.65273 48.6178 8.8302 48.0716 9.27386 47.8451Z" fill="#E6E7E8"/>
<path d="M9.39808 47.8318C9.84173 47.6053 10.3874 47.7807 10.6137 48.227C10.84 48.6711 10.6647 49.2151 10.2188 49.4416C9.77517 49.6681 9.22948 49.4905 9.00322 49.0464C8.77695 48.6023 8.95442 48.0561 9.39808 47.8318Z" fill="#898989"/>
<path d="M11.6917 51.7243C12.0954 51.4312 12.6588 51.52 12.9539 51.9242C13.2467 52.3283 13.1579 52.8923 12.7542 53.1876C12.3505 53.4807 11.7848 53.3919 11.492 52.9877C11.1992 52.5836 11.288 52.0196 11.6917 51.7243Z" fill="#474747"/>
<path d="M11.4499 51.7865C11.8536 51.4934 12.4193 51.5822 12.7121 51.9863C13.0049 52.3905 12.9162 52.9567 12.5124 53.2498C12.1087 53.5429 11.5452 53.4541 11.2502 53.0499C10.9574 52.6458 11.0462 52.0796 11.4499 51.7865Z" fill="#E6E7E8"/>
<path d="M11.5697 51.7554C11.9734 51.4623 12.539 51.5511 12.8318 51.9552C13.1247 52.3594 13.036 52.9234 12.6322 53.2165C12.2285 53.5096 11.6628 53.4207 11.37 53.0166C11.0772 52.6125 11.1659 52.0485 11.5697 51.7532V51.7554Z" fill="#898989"/>
<path d="M14.4424 55.2415C14.7951 54.8885 15.3674 54.8885 15.7201 55.2415C16.0729 55.5946 16.0729 56.1675 15.7201 56.5205C15.3674 56.8736 14.7951 56.8736 14.4424 56.5205C14.0897 56.1675 14.0897 55.5946 14.4424 55.2415Z" fill="#474747"/>
<path d="M14.2139 55.3415C14.5666 54.9884 15.1389 54.9884 15.4916 55.3415C15.8444 55.6945 15.8444 56.2674 15.4916 56.6205C15.1389 56.9735 14.5666 56.9735 14.2139 56.6205C13.8612 56.2674 13.8612 55.6945 14.2139 55.3415Z" fill="#E6E7E8"/>
<path d="M14.3293 55.2904C14.682 54.9373 15.2543 54.9373 15.607 55.2904C15.9597 55.6434 15.9597 56.2141 15.607 56.5672C15.2543 56.9202 14.682 56.9202 14.3293 56.5672C13.9766 56.2141 13.9766 55.6412 14.3293 55.2882V55.2904Z" fill="#898989"/>
<path d="M17.7099 58.2836C18.0028 57.8794 18.5684 57.7906 18.9721 58.0837C19.3759 58.3768 19.4646 58.943 19.1718 59.3472C18.879 59.7513 18.3133 59.8401 17.9096 59.547C17.5058 59.2539 17.4171 58.6877 17.7099 58.2836Z" fill="#474747"/>
<path d="M17.4992 58.4168C17.792 58.0127 18.3577 57.9239 18.7614 58.217C19.1651 58.5101 19.2538 59.0763 18.961 59.4804C18.6682 59.8845 18.1026 59.9733 17.6988 59.6802C17.2951 59.3871 17.2064 58.8209 17.4992 58.4168Z" fill="#E6E7E8"/>
<path d="M17.6057 58.3502C17.8985 57.9461 18.4642 57.8572 18.8679 58.1503C19.2716 58.4434 19.3604 59.0096 19.0676 59.4116C18.7747 59.8157 18.209 59.9045 17.8053 59.6114C17.4016 59.3183 17.3129 58.7521 17.6057 58.348V58.3502Z" fill="#898989"/>
<path d="M21.4145 60.7772C21.6407 60.3331 22.1842 60.1555 22.6301 60.3819C23.0737 60.6084 23.2512 61.1524 23.0249 61.5988C22.7987 62.0428 22.2552 62.2205 21.8093 61.994C21.3657 61.7675 21.1882 61.2235 21.4145 60.7794V60.7772Z" fill="#474747"/>
<path d="M21.2259 60.9415C21.4522 60.4974 21.9956 60.3198 22.4415 60.5463C22.8852 60.7727 23.0626 61.3168 22.8364 61.7631C22.6101 62.2072 22.0666 62.3848 21.6207 62.1583C21.177 61.9318 20.9996 61.3878 21.2259 60.9415Z" fill="#E6E7E8"/>
<path d="M21.3191 60.8593C21.5454 60.4152 22.0888 60.2376 22.5347 60.4641C22.9784 60.6906 23.1558 61.2346 22.9296 61.6809C22.7033 62.125 22.1598 62.3026 21.714 62.0761C21.2703 61.8497 21.0928 61.3057 21.3191 60.8616V60.8593Z" fill="#898989"/>
<path d="M25.4605 62.6601C25.6158 62.185 26.1238 61.9252 26.5985 62.0806C27.0732 62.2338 27.3327 62.7445 27.1775 63.2197C27.0244 63.6949 26.5142 63.9547 26.0395 63.7992C25.5648 63.646 25.3052 63.1353 25.4605 62.6601Z" fill="#474747"/>
<path d="M25.3008 62.8511C25.4539 62.3759 25.9641 62.1161 26.4388 62.2715C26.9135 62.427 27.173 62.9355 27.0178 63.4106C26.8625 63.8858 26.3545 64.1456 25.8798 63.9902C25.4051 63.8348 25.1455 63.3241 25.3008 62.8511Z" fill="#E6E7E8"/>
<path d="M25.3807 62.7556C25.5338 62.2804 26.0439 62.0206 26.5186 62.1761C26.9934 62.3315 27.2529 62.84 27.0976 63.3152C26.9424 63.7903 26.4344 64.0501 25.9596 63.8947C25.4849 63.7415 25.2254 63.2308 25.3807 62.7556Z" fill="#898989"/>
<path d="M29.7508 63.8858C29.8284 63.3929 30.292 63.0576 30.7845 63.1353C31.2769 63.213 31.6141 63.6771 31.5343 64.1701C31.4567 64.663 30.993 64.9983 30.5005 64.9206C30.0081 64.8429 29.6709 64.3788 29.7508 63.8858Z" fill="#474747"/>
<path d="M29.6243 64.099C29.702 63.606 30.1656 63.2685 30.6581 63.3462C31.1505 63.424 31.4877 63.888 31.4078 64.381C31.3302 64.8739 30.8666 65.2114 30.3741 65.1315C29.8817 65.0538 29.5445 64.5897 29.6243 64.0968V64.099Z" fill="#E6E7E8"/>
<path d="M29.6887 63.9924C29.7663 63.4995 30.2299 63.1619 30.7224 63.2419C31.2148 63.3196 31.5498 63.7837 31.4722 64.2766C31.3946 64.7696 30.9309 65.1071 30.4384 65.0271C29.946 64.9494 29.611 64.4853 29.6887 63.9924Z" fill="#898989"/>
<path d="M34.1806 64.4232C34.1806 63.9236 34.5866 63.5194 35.0835 63.5194C35.5826 63.5194 35.9863 63.9236 35.9863 64.4232C35.9863 64.9228 35.5826 65.3269 35.0835 65.3269C34.5844 65.3269 34.1806 64.9228 34.1806 64.4232Z" fill="#474747"/>
<path d="M34.0897 64.6563C34.0897 64.1567 34.4934 63.7526 34.9925 63.7526C35.4916 63.7526 35.8954 64.1567 35.8954 64.6563C35.8954 65.1559 35.4894 65.56 34.9925 65.56C34.4934 65.56 34.0897 65.1537 34.0897 64.6563Z" fill="#E6E7E8"/>
<path d="M34.1363 64.5386C34.1363 64.039 34.54 63.6349 35.0391 63.6349C35.5383 63.6349 35.942 64.039 35.942 64.5386C35.942 65.0382 35.5383 65.4424 35.0391 65.4424C34.54 65.4424 34.1363 65.0382 34.1363 64.5386Z" fill="#898989"/>
<path d="M38.6417 64.261C38.564 63.7681 38.9012 63.3062 39.3937 63.2263C39.8861 63.1486 40.3497 63.4839 40.4274 63.979C40.505 64.472 40.1701 64.9361 39.6776 65.0138C39.1851 65.0915 38.7215 64.7562 38.6439 64.2633L38.6417 64.261Z" fill="#474747"/>
<path d="M38.5862 64.5053C38.5086 64.0124 38.8435 63.5483 39.336 63.4706C39.8284 63.3929 40.2921 63.7281 40.3697 64.2233C40.4473 64.7163 40.1102 65.1803 39.6199 65.258C39.1275 65.3358 38.6639 64.9982 38.5862 64.5075V64.5053Z" fill="#E6E7E8"/>
<path d="M38.6128 64.3832C38.5352 63.8902 38.8702 63.4262 39.3626 63.3484C39.8551 63.2707 40.3187 63.606 40.3963 64.099C40.474 64.5919 40.139 65.056 39.6465 65.1337C39.1541 65.2114 38.6905 64.8761 38.6128 64.3809V64.3832Z" fill="#898989"/>
<path d="M43.0206 63.404C42.8675 62.9288 43.127 62.4203 43.6017 62.2649C44.0765 62.1116 44.5867 62.3714 44.7397 62.8444C44.895 63.3196 44.6355 63.8281 44.1585 63.9835C43.6838 64.1367 43.1736 63.8769 43.0206 63.404Z" fill="#474747"/>
<path d="M43.005 63.6548C42.8498 63.1797 43.1115 62.669 43.584 62.5157C44.0587 62.3603 44.5689 62.6201 44.722 63.0953C44.875 63.5705 44.6155 64.0812 44.1408 64.2344C43.6661 64.3898 43.1559 64.1278 43.0028 63.6548H43.005Z" fill="#E6E7E8"/>
<path d="M43.0117 63.5283C42.8586 63.0531 43.1159 62.5424 43.5906 62.3892C44.0654 62.236 44.5734 62.4936 44.7287 62.9687C44.8817 63.4439 44.6222 63.9546 44.1497 64.1078C43.6749 64.2633 43.167 64.0013 43.0117 63.5283Z" fill="#898989"/>
<path d="M47.2109 61.8718C46.9846 61.4277 47.1621 60.8815 47.6057 60.655C48.0494 60.4285 48.5951 60.6062 48.8213 61.0503C49.0476 61.4966 48.8701 62.0406 48.4265 62.2671C47.9828 62.4936 47.4393 62.3159 47.2109 61.8718Z" fill="#474747"/>
<path d="M47.2353 62.1205C47.009 61.6764 47.1842 61.1302 47.6301 60.9037C48.0738 60.6772 48.6195 60.8526 48.8458 61.2989C49.072 61.743 48.8946 62.287 48.4509 62.5157C48.0073 62.7422 47.4616 62.5646 47.2353 62.1205Z" fill="#E6E7E8"/>
<path d="M47.2242 61.9962C46.9979 61.5521 47.1754 61.0059 47.619 60.7816C48.0627 60.5551 48.6062 60.7305 48.8324 61.1768C49.0587 61.6209 48.8812 62.1672 48.4376 62.3936C47.9939 62.6201 47.4504 62.4425 47.222 61.9984L47.2242 61.9962Z" fill="#898989"/>
<path d="M51.1128 59.7002C50.82 59.2961 50.9109 58.7299 51.3124 58.4368C51.7161 58.1437 52.2796 58.2325 52.5746 58.6366C52.8674 59.0407 52.7787 59.6047 52.375 59.9001C51.9713 60.1932 51.4078 60.1043 51.1128 59.7002Z" fill="#474747"/>
<path d="M51.1727 59.9422C50.8799 59.5381 50.9686 58.9718 51.3723 58.6787C51.776 58.3856 52.3417 58.4745 52.6345 58.8786C52.9273 59.2827 52.8386 59.8489 52.4349 60.142C52.0311 60.4351 51.4655 60.3441 51.1727 59.9422Z" fill="#E6E7E8"/>
<path d="M51.1438 59.8201C50.851 59.416 50.9397 58.852 51.3435 58.5566C51.7472 58.2635 52.3106 58.3524 52.6034 58.7565C52.8963 59.1606 52.8075 59.7268 52.4038 60.0199C52 60.313 51.4344 60.2242 51.1416 59.8201H51.1438Z" fill="#898989"/>
<path d="M54.6243 56.9446C54.2716 56.5915 54.2716 56.0187 54.6243 55.6656C54.9771 55.3126 55.5494 55.3126 55.9021 55.6656C56.2548 56.0187 56.2548 56.5915 55.9021 56.9446C55.5494 57.2977 54.9771 57.2977 54.6243 56.9446Z" fill="#474747"/>
<path d="M54.7242 57.1755C54.3715 56.8225 54.3715 56.2496 54.7242 55.8965C55.0769 55.5435 55.6493 55.5435 56.002 55.8965C56.3547 56.2496 56.3547 56.8225 56.002 57.1755C55.6493 57.5286 55.0769 57.5286 54.7242 57.1755Z" fill="#E6E7E8"/>
<path d="M54.6754 57.06C54.3227 56.707 54.3227 56.1341 54.6754 55.7811C55.0281 55.428 55.6004 55.428 55.9531 55.7811C56.3058 56.1341 56.3058 56.707 55.9531 57.06C55.6004 57.4131 55.0281 57.4131 54.6754 57.06Z" fill="#898989"/>
<path d="M57.6634 53.6739C57.2597 53.3808 57.1709 52.8145 57.4637 52.4104C57.7565 52.0063 58.3222 51.9175 58.7259 52.2106C59.1296 52.5037 59.2184 53.0699 58.9256 53.474C58.6328 53.8781 58.0671 53.967 57.6634 53.6739Z" fill="#474747"/>
<path d="M57.7987 53.887C57.395 53.5939 57.3063 53.0277 57.5991 52.6236C57.8919 52.2194 58.4576 52.1306 58.8613 52.4237C59.265 52.7168 59.3537 53.283 59.0609 53.6872C58.7681 54.0913 58.2025 54.1801 57.7987 53.887Z" fill="#E6E7E8"/>
<path d="M57.73 53.7804C57.3263 53.4873 57.2375 52.9211 57.5304 52.517C57.8232 52.1129 58.3866 52.024 58.7903 52.3171C59.1941 52.6102 59.2828 53.1765 58.99 53.5806C58.6972 53.9847 58.1315 54.0735 57.7278 53.7804H57.73Z" fill="#898989"/>
<path d="M60.1545 49.9679C59.7109 49.7414 59.5334 49.1974 59.7597 48.7533C59.986 48.3092 60.5294 48.1316 60.9753 48.3581C61.419 48.5845 61.5964 49.1286 61.3702 49.5749C61.1439 50.019 60.6004 50.1966 60.1568 49.9701L60.1545 49.9679Z" fill="#474747"/>
<path d="M60.3187 50.1566C59.8728 49.9301 59.6976 49.3861 59.9238 48.9398C60.1501 48.4957 60.6936 48.3181 61.1394 48.5446C61.5831 48.7711 61.7606 49.3151 61.5343 49.7614C61.308 50.2055 60.7646 50.3831 60.3187 50.1566Z" fill="#E6E7E8"/>
<path d="M60.2366 50.0633C59.793 49.8369 59.6155 49.2928 59.8417 48.8465C60.068 48.4024 60.6115 48.2248 61.0551 48.4513C61.4988 48.6778 61.6763 49.224 61.45 49.6681C61.2237 50.1122 60.6803 50.2898 60.2344 50.0633H60.2366Z" fill="#898989"/>
<path d="M62.0356 45.9178C61.5609 45.7646 61.3013 45.2538 61.4566 44.7787C61.6119 44.3035 62.1199 44.0437 62.5946 44.1991C63.0693 44.3523 63.3288 44.863 63.1736 45.3382C63.0205 45.8134 62.5103 46.0732 62.0356 45.9178Z" fill="#474747"/>
<path d="M62.2285 46.0776C61.7538 45.9222 61.4943 45.4137 61.6496 44.9385C61.8027 44.4634 62.3128 44.2036 62.7876 44.359C63.2623 44.5144 63.5218 45.0229 63.3666 45.4981C63.2113 45.9733 62.7033 46.2331 62.2285 46.0799V46.0776Z" fill="#E6E7E8"/>
<path d="M62.1309 45.9977C61.6585 45.8423 61.3967 45.3338 61.5519 44.8586C61.705 44.3834 62.2152 44.1236 62.69 44.2791C63.1647 44.4345 63.4242 44.943 63.2689 45.4182C63.1158 45.8933 62.6057 46.1531 62.1309 45.9977Z" fill="#898989"/>
<path d="M63.2602 41.6234C62.7677 41.5457 62.4327 41.0816 62.5104 40.5886C62.588 40.0957 63.0517 39.7604 63.5441 39.8381C64.0366 39.9158 64.3715 40.3799 64.2939 40.8729C64.2162 41.3658 63.7526 41.7011 63.2602 41.6234Z" fill="#474747"/>
<path d="M63.4753 41.7499C62.9828 41.6722 62.6456 41.2082 62.7255 40.7152C62.8031 40.2223 63.2668 39.8848 63.7593 39.9647C64.2517 40.0424 64.5889 40.5065 64.5112 40.9994C64.4336 41.4924 63.97 41.8299 63.4775 41.7522L63.4753 41.7499Z" fill="#E6E7E8"/>
<path d="M63.3666 41.6856C62.8741 41.6078 62.5369 41.1438 62.6168 40.6508C62.6944 40.1579 63.1559 39.8226 63.6506 39.9003C64.143 39.978 64.4802 40.4421 64.4003 40.935C64.3227 41.428 63.8591 41.7655 63.3666 41.6856Z" fill="#898989"/>
<path d="M63.7969 37.1891C63.2978 37.1891 62.8941 36.7828 62.8941 36.2854C62.8941 35.7858 63.2978 35.3817 63.7969 35.3817C64.296 35.3817 64.6998 35.7858 64.6998 36.2854C64.6998 36.7828 64.296 37.1891 63.7969 37.1891Z" fill="#474747"/>
<path d="M64.0299 37.2802C63.5307 37.2802 63.127 36.8738 63.127 36.3764C63.127 35.8768 63.5307 35.4727 64.0299 35.4727C64.529 35.4727 64.9327 35.8768 64.9327 36.3764C64.9327 36.8761 64.5267 37.2802 64.0299 37.2802Z" fill="#E6E7E8"/>
<path d="M63.9145 37.2335C63.4154 37.2335 63.0116 36.8294 63.0116 36.3298C63.0116 35.8302 63.4154 35.4261 63.9145 35.4261C64.4136 35.4261 64.8173 35.8324 64.8173 36.3298C64.8173 36.8294 64.4136 37.2335 63.9145 37.2335Z" fill="#898989"/>
<path d="M63.6372 32.7238C63.1448 32.8015 62.6833 32.464 62.6035 31.971C62.5258 31.4781 62.8608 31.014 63.3533 30.9363C63.8457 30.8586 64.3093 31.1939 64.387 31.689C64.4646 32.182 64.1297 32.6438 63.6372 32.7238Z" fill="#474747"/>
<path d="M63.8812 32.7793C63.3887 32.857 62.9251 32.5195 62.8475 32.0266C62.7698 31.5336 63.1048 31.0696 63.5973 30.9918C64.0897 30.9141 64.5534 31.2494 64.631 31.7424C64.7086 32.2353 64.3714 32.6994 63.8812 32.7771V32.7793Z" fill="#E6E7E8"/>
<path d="M63.7592 32.7526C63.2668 32.8304 62.8031 32.4951 62.7255 31.9999C62.6478 31.507 62.9828 31.0451 63.4753 30.9652C63.9677 30.8875 64.4313 31.2227 64.509 31.7157C64.5866 32.2086 64.2517 32.6727 63.7592 32.7504V32.7526Z" fill="#898989"/>
<path d="M62.7787 28.3406C62.304 28.496 61.7961 28.234 61.6408 27.761C61.4855 27.2858 61.7472 26.7774 62.2197 26.6219C62.6944 26.4687 63.2024 26.7285 63.3577 27.2037C63.5108 27.6789 63.2512 28.1874 62.7765 28.3428L62.7787 28.3406Z" fill="#474747"/>
<path d="M63.0294 28.3561C62.5547 28.5115 62.0444 28.2495 61.8914 27.7743C61.7361 27.2992 61.9957 26.7907 62.4704 26.6352C62.9451 26.482 63.4553 26.7418 63.6083 27.2148C63.7636 27.69 63.5019 28.2007 63.0294 28.3539V28.3561Z" fill="#E6E7E8"/>
<path d="M62.9052 28.3494C62.4304 28.5026 61.9225 28.2428 61.7672 27.7677C61.6119 27.2925 61.8714 26.784 62.3461 26.6286C62.8209 26.4753 63.3311 26.7351 63.4842 27.2081C63.6394 27.6833 63.3777 28.194 62.9052 28.3472V28.3494Z" fill="#898989"/>
<path d="M61.2482 24.1461C60.8045 24.3726 60.2611 24.195 60.0326 23.7509C59.8063 23.3068 59.9838 22.7605 60.4274 22.534C60.8711 22.3076 61.4146 22.4852 61.6431 22.9293C61.8693 23.3734 61.6918 23.9174 61.2482 24.1461Z" fill="#474747"/>
<path d="M61.4966 24.1217C61.0507 24.3482 60.5072 24.1705 60.281 23.7264C60.0547 23.2824 60.23 22.7383 60.6758 22.5096C61.1195 22.2831 61.6652 22.4608 61.8914 22.9049C62.1177 23.349 61.9402 23.8952 61.4966 24.1217Z" fill="#E6E7E8"/>
<path d="M61.3724 24.1328C60.9287 24.3593 60.3853 24.1816 60.1568 23.7375C59.9305 23.2934 60.1079 22.7494 60.5516 22.5229C60.9952 22.2965 61.541 22.4741 61.7673 22.9182C61.9935 23.3623 61.816 23.9085 61.3724 24.135V24.1328Z" fill="#898989"/>
<path d="M59.0787 20.2403C58.6749 20.5334 58.1093 20.4424 57.8165 20.0405C57.5237 19.6363 57.6124 19.0701 58.0161 18.777C58.4198 18.4839 58.9833 18.5727 59.2783 18.9769C59.5711 19.381 59.4824 19.945 59.0787 20.2403Z" fill="#474747"/>
<path d="M59.3227 20.1804C58.9189 20.4735 58.3532 20.3846 58.0604 19.9805C57.7676 19.5764 57.8564 19.0124 58.2601 18.7171C58.6638 18.424 59.2295 18.5128 59.5223 18.9169C59.8151 19.321 59.7264 19.8873 59.3227 20.1804Z" fill="#E6E7E8"/>
<path d="M59.2007 20.2092C58.7969 20.5023 58.2335 20.4135 57.9385 20.0094C57.6457 19.6053 57.7344 19.0413 58.1381 18.7482C58.5418 18.4551 59.1075 18.5439 59.4003 18.948C59.6931 19.3521 59.6044 19.9161 59.2007 20.2115V20.2092Z" fill="#898989"/>
<path d="M56.328 16.7253C55.9752 17.0784 55.4029 17.0784 55.0502 16.7253C54.6975 16.3723 54.6975 15.7994 55.0502 15.4463C55.4029 15.0933 55.9752 15.0933 56.328 15.4463C56.6807 15.7994 56.6807 16.3723 56.328 16.7253Z" fill="#474747"/>
<path d="M56.5564 16.6254C56.2037 16.9785 55.6314 16.9785 55.2787 16.6254C54.926 16.2724 54.926 15.6995 55.2787 15.3464C55.6314 14.9934 56.2037 14.9934 56.5564 15.3464C56.9091 15.6995 56.9091 16.2724 56.5564 16.6254Z" fill="#E6E7E8"/>
<path d="M56.4411 16.6743C56.0884 17.0273 55.516 17.0273 55.1633 16.6743C54.8106 16.3212 54.8106 15.7506 55.1633 15.3953C55.516 15.0422 56.0884 15.0422 56.4411 15.3953C56.7938 15.7483 56.7938 16.3212 56.4411 16.6743Z" fill="#898989"/>
<path d="M53.0605 13.6833C52.7677 14.0874 52.202 14.1762 51.7983 13.8831C51.3946 13.59 51.3059 13.0238 51.5987 12.6197C51.8915 12.2155 52.4549 12.1267 52.8609 12.4198C53.2646 12.7129 53.3534 13.2792 53.0605 13.6833Z" fill="#474747"/>
<path d="M53.2713 13.55C52.9784 13.9542 52.4128 14.043 52.0091 13.7499C51.6053 13.4568 51.5166 12.8906 51.8094 12.4864C52.1022 12.0823 52.6679 11.9935 53.0716 12.2866C53.4753 12.5797 53.5641 13.1459 53.2713 13.55Z" fill="#E6E7E8"/>
<path d="M53.1648 13.6167C52.872 14.0208 52.3063 14.1096 51.9026 13.8165C51.4988 13.5234 51.4101 12.9594 51.7029 12.5531C51.9957 12.1489 52.5614 12.0601 52.9651 12.3532C53.3688 12.6463 53.4576 13.2125 53.1648 13.6167Z" fill="#898989"/>
<path d="M49.3581 11.1897C49.1318 11.6338 48.5884 11.8114 48.1425 11.5849C47.6988 11.3584 47.5214 10.8144 47.7476 10.3681C47.9739 9.92401 48.5174 9.74637 48.9632 9.97286C49.4069 10.1993 49.5844 10.7434 49.3581 11.1897Z" fill="#474747"/>
<path d="M49.5444 11.0253C49.3182 11.4717 48.7725 11.6471 48.3288 11.4206C47.8852 11.1941 47.7077 10.6501 47.934 10.2038C48.1602 9.75967 48.7037 9.58203 49.1496 9.80852C49.5932 10.035 49.7707 10.5812 49.5444 11.0253Z" fill="#E6E7E8"/>
<path d="M49.4513 11.1075C49.225 11.5516 48.6815 11.7292 48.2379 11.5027C47.7942 11.2763 47.6168 10.7322 47.843 10.2881C48.0693 9.84405 48.6128 9.66642 49.0586 9.8929C49.5023 10.1194 49.6798 10.6634 49.4535 11.1097L49.4513 11.1075Z" fill="#898989"/>
<path d="M45.3097 9.30673C45.1567 9.78191 44.6465 10.0417 44.1718 9.88627C43.6971 9.73306 43.4375 9.22235 43.5906 8.74717C43.7459 8.27199 44.2539 8.0122 44.7286 8.16763C45.2011 8.32085 45.4628 8.83155 45.3075 9.30673H45.3097Z" fill="#474747"/>
<path d="M45.4694 9.11356C45.3141 9.58874 44.804 9.84853 44.3315 9.6931C43.8568 9.53988 43.5972 9.02918 43.7525 8.554C43.9055 8.07882 44.4158 7.81903 44.8905 7.97446C45.3652 8.12767 45.6247 8.6406 45.4716 9.11356H45.4694Z" fill="#E6E7E8"/>
<path d="M45.3896 9.21128C45.2343 9.68646 44.7263 9.94625 44.2516 9.79081C43.7769 9.6376 43.5174 9.12689 43.6727 8.65171C43.8279 8.17653 44.3359 7.91674 44.8106 8.07218C45.2853 8.22539 45.5449 8.7361 45.3896 9.21128Z" fill="#898989"/>
<path d="M41.0197 8.08102C40.942 8.57396 40.4784 8.90925 39.9859 8.83154C39.4934 8.75382 39.1563 8.28974 39.2362 7.7968C39.3138 7.30385 39.7752 6.96857 40.2699 7.04629C40.7623 7.124 41.0973 7.58807 41.0197 8.08102Z" fill="#474747"/>
<path d="M41.1461 7.86565C41.0684 8.3586 40.6048 8.69611 40.1124 8.61617C39.6199 8.53846 39.2828 8.07438 39.3626 7.58144C39.4403 7.08849 39.9039 6.75321 40.3963 6.83092C40.8888 6.90864 41.2259 7.37271 41.1483 7.86565H41.1461Z" fill="#E6E7E8"/>
<path d="M41.084 7.97444C41.0064 8.46738 40.5427 8.80267 40.0503 8.72496C39.5578 8.64724 39.2229 8.18538 39.3005 7.69022C39.3781 7.19727 39.8417 6.85976 40.3342 6.9397C40.8267 7.01742 41.1639 7.48149 41.084 7.97444Z" fill="#898989"/>
<path d="M44.0698 28.8846C44.021 28.9734 44.0542 29.0844 44.143 29.1333C45.769 30.0192 47.0533 30.9874 48.0294 31.8689C48.1226 31.9533 48.0959 32.1109 47.9784 32.1553C47.9784 32.1553 47.9784 32.1553 47.9762 32.1553C47.5325 32.3196 47.0911 32.2686 46.6496 32.1553C45.7645 31.9266 44.9637 31.5003 44.1607 31.0829C42.8253 30.3878 41.5121 29.6484 40.0835 29.1533C39.7375 29.0334 39.3848 28.9246 39.0321 28.8291C38.9611 28.8091 38.8369 28.8446 38.7858 28.9001C37.2486 30.6454 35.2499 31.467 33.005 31.7845C31.0729 32.0599 29.1518 31.9444 27.2441 31.5602C27.2219 31.5558 27.202 31.5447 27.1332 31.5203C27.2463 31.4781 27.324 31.4492 27.4016 31.4204C28.5995 30.9874 29.6887 30.379 30.596 29.4686C31.2814 28.7802 31.7694 27.9764 31.989 27.0216C32.009 26.935 32.0201 26.8462 32.0423 26.7219C31.5387 26.713 31.0551 26.6974 30.5737 26.6952C28.2956 26.6886 26.0418 26.9062 23.8457 27.5434C21.4278 28.2473 19.2627 29.3864 17.5569 31.2849C16.0307 32.9858 15.1035 34.9642 14.9415 37.2668C14.9149 37.6532 14.9504 38.0462 14.9859 38.4326C15.0524 39.1209 15.434 39.6139 16.0573 39.8715C16.7539 40.1601 17.4726 40.3977 18.1913 40.6331C19.1429 40.9462 20.0702 41.2948 20.8466 41.9542C21.7561 42.7225 22.2752 43.9371 22.3151 45.1273C21.867 44.3146 21.1017 44.0815 20.2964 43.9682C19.4601 43.8505 18.6128 43.8039 17.7721 43.7173C17.5258 43.6929 17.2818 43.6573 17.04 43.6085C16.6718 43.5308 16.3191 43.4087 16.024 43.1156C16.0085 43.3176 16.0129 43.5019 15.9774 43.6796C15.8998 44.0792 15.6869 44.4168 15.4362 44.7276C15.1767 45.0474 14.9082 45.3582 14.6465 45.6758C13.7791 46.7238 13.3643 47.6209 13.6749 49.0975C13.4619 48.8088 13.2423 48.5268 13.0404 48.2293C12.04 46.766 11.8781 45.1961 12.4526 43.5352C12.6767 42.8846 12.9052 42.234 13.1159 41.5768C13.4863 40.4221 13.4619 39.2697 13.0271 38.1395C12.0733 35.657 11.969 33.1146 12.5812 30.5588C13.8368 25.303 16.8936 21.3772 21.5409 18.6749C22.8874 17.8933 24.3404 17.3448 25.8532 16.9718C25.9264 16.954 25.9996 16.9363 26.0706 16.9141C26.0839 16.9118 26.095 16.8985 26.1394 16.8697C25.0879 15.1044 23.533 13.9542 21.7295 13.0504C22.233 13.0282 22.7343 12.9883 23.2379 12.9838C25.1035 12.9683 26.9224 13.2592 28.6793 13.8987C30.2721 14.4804 31.7051 15.3309 32.954 16.49C33.0538 16.5832 33.2046 16.6543 33.3422 16.672C35.7556 17.0251 38.0427 17.7379 40.1079 19.0657C43.0227 20.9398 44.9571 23.571 46.0063 26.8573C46.2304 27.559 46.5565 28.1763 47.0001 28.7514C47.3972 29.2665 47.7809 29.7928 48.1447 30.3301C48.3089 30.5721 48.4309 30.8408 48.513 31.1206V31.1273C48.5907 31.3848 48.2845 31.5802 48.0826 31.4048C47.1155 30.5588 45.8732 29.6462 44.316 28.798C44.2273 28.7491 44.1142 28.7825 44.0676 28.8735L44.0698 28.8846Z" fill="#292929"/>
<path d="M43.9278 28.5826C43.879 28.6714 43.9123 28.7825 44.001 28.8313C45.627 29.7173 46.9114 30.6854 47.8875 31.5669C47.9806 31.6513 47.954 31.809 47.8364 31.8534C47.8364 31.8534 47.8364 31.8534 47.8342 31.8534C47.3906 32.0177 46.9491 31.9666 46.5077 31.8534C45.6226 31.6247 44.8218 31.1983 44.0188 30.7809C42.6834 30.0859 41.3701 29.3465 39.9416 28.8513C39.5955 28.7314 39.2428 28.6226 38.8901 28.5271C38.8191 28.5071 38.6949 28.5427 38.6439 28.5982C37.1066 30.3435 35.1079 31.165 32.863 31.4826C30.9309 31.7579 29.0099 31.6424 27.1022 31.2583C27.08 31.2538 27.06 31.2427 26.9913 31.2183C27.1044 31.1761 27.182 31.1473 27.2597 31.1184C28.4575 30.6854 29.5467 30.077 30.454 29.1666C31.1394 28.4783 31.6274 27.6745 31.8471 26.7197C31.867 26.6331 31.8781 26.5442 31.9003 26.4199C31.3967 26.411 30.9132 26.3955 30.4318 26.3932C28.1536 26.3866 25.8999 26.6042 23.7038 27.2415C21.2858 27.9454 19.1208 29.0845 17.4149 30.983C15.8887 32.6838 14.9615 34.6623 14.7995 36.9649C14.7729 37.3512 14.8085 37.7443 14.844 38.1306C14.9105 38.819 15.292 39.3119 15.9153 39.5695C16.6119 39.8582 17.3306 40.0957 18.0494 40.3311C19.001 40.6442 19.9282 40.9928 20.7046 41.6523C21.6141 42.4206 22.1332 43.6352 22.1732 44.8253C21.7251 44.0126 20.9597 43.7795 20.1545 43.6663C19.3182 43.5486 18.4708 43.5019 17.6301 43.4153C17.3838 43.3909 17.1399 43.3554 16.8981 43.3065C16.5298 43.2288 16.1771 43.1067 15.8821 42.8136C15.8666 43.0156 15.871 43.2 15.8355 43.3776C15.7579 43.7773 15.5449 44.1148 15.2943 44.4256C15.0347 44.7454 14.7663 45.0563 14.5045 45.3738C13.6372 46.4218 13.2224 47.3189 13.5329 48.7955C13.32 48.5069 13.1004 48.2249 12.8985 47.9273C11.8981 46.464 11.7361 44.8942 12.3106 43.2333C12.5347 42.5827 12.7632 41.9321 12.9739 41.2748C13.3444 40.1202 13.32 38.9677 12.8852 37.8375C11.9313 35.355 11.8271 32.8126 12.4393 30.2569C13.6949 25.001 16.7516 21.0752 21.3989 18.3729C22.7454 17.5913 24.1984 17.0429 25.7113 16.6698C25.7845 16.6521 25.8577 16.6343 25.9287 16.6121C25.942 16.6099 25.9531 16.5965 25.9975 16.5677C24.946 14.8024 23.391 13.6522 21.5875 12.7485C22.0911 12.7263 22.5924 12.6863 23.0959 12.6819C24.9615 12.6663 26.7805 12.9572 28.5374 13.5967C30.1301 14.1785 31.5631 15.0289 32.812 16.188C32.9119 16.2812 33.0627 16.3523 33.2002 16.3701C35.6137 16.7231 37.9008 17.4359 39.966 18.7637C42.8808 20.6378 44.8151 23.269 45.8644 26.5553C46.0884 27.257 46.4145 27.8743 46.8582 28.4494C47.2552 28.9646 47.639 29.4908 48.0028 30.0282C48.167 30.2702 48.289 30.5389 48.371 30.8186V30.8253C48.4487 31.0829 48.1426 31.2783 47.9407 31.1028C46.9735 30.2569 45.7313 29.3442 44.1741 28.496C44.0853 28.4472 43.9722 28.4805 43.9256 28.5715L43.9278 28.5826Z" fill="url(#paint3_radial_68_40087)"/>
<g opacity="0.69">
<path d="M43.9278 28.5826C43.879 28.6714 43.9123 28.7825 44.001 28.8313C45.627 29.7173 46.9114 30.6854 47.8875 31.5669C47.9806 31.6513 47.954 31.809 47.8364 31.8534C47.8364 31.8534 47.8364 31.8534 47.8342 31.8534C47.3906 32.0177 46.9491 31.9666 46.5077 31.8534C45.6226 31.6247 44.8218 31.1983 44.0188 30.7809C42.6834 30.0859 41.3701 29.3465 39.9416 28.8513C39.5955 28.7314 39.2428 28.6226 38.8901 28.5271C38.8191 28.5071 38.6949 28.5427 38.6439 28.5982C37.1066 30.3435 35.1079 31.165 32.863 31.4826C30.9309 31.7579 29.0099 31.6424 27.1022 31.2583C27.08 31.2538 27.06 31.2427 26.9913 31.2183C27.1044 31.1761 27.182 31.1473 27.2597 31.1184C28.4575 30.6854 29.5467 30.077 30.454 29.1666C31.1394 28.4783 31.6274 27.6745 31.8471 26.7197C31.867 26.6331 31.8781 26.5442 31.9003 26.4199C31.3967 26.411 30.9132 26.3955 30.4318 26.3932C28.1536 26.3866 25.8999 26.6042 23.7038 27.2415C21.2858 27.9454 19.1208 29.0845 17.4149 30.983C15.8887 32.6838 14.9615 34.6623 14.7995 36.9649C14.7729 37.3512 14.8085 37.7443 14.844 38.1306C14.9105 38.819 15.292 39.3119 15.9153 39.5695C16.6119 39.8582 17.3306 40.0957 18.0494 40.3311C19.001 40.6442 19.9282 40.9928 20.7046 41.6523C21.6141 42.4206 22.1332 43.6352 22.1732 44.8253C21.7251 44.0126 20.9597 43.7795 20.1545 43.6663C19.3182 43.5486 18.4708 43.5019 17.6301 43.4153C17.3838 43.3909 17.1399 43.3554 16.8981 43.3065C16.5298 43.2288 16.1771 43.1067 15.8821 42.8136C15.8666 43.0156 15.871 43.2 15.8355 43.3776C15.7579 43.7773 15.5449 44.1148 15.2943 44.4256C15.0347 44.7454 14.7663 45.0563 14.5045 45.3738C13.6372 46.4218 13.2224 47.3189 13.5329 48.7955C13.32 48.5069 13.1004 48.2249 12.8985 47.9273C11.8981 46.464 11.7361 44.8942 12.3106 43.2333C12.5347 42.5827 12.7632 41.9321 12.9739 41.2748C13.3444 40.1202 13.32 38.9677 12.8852 37.8375C11.9313 35.355 11.8271 32.8126 12.4393 30.2569C13.6949 25.001 16.7516 21.0752 21.3989 18.3729C22.7454 17.5913 24.1984 17.0429 25.7113 16.6698C25.7845 16.6521 25.8577 16.6343 25.9287 16.6121C25.942 16.6099 25.9531 16.5965 25.9975 16.5677C24.946 14.8024 23.391 13.6522 21.5875 12.7485C22.0911 12.7263 22.5924 12.6863 23.0959 12.6819C24.9615 12.6663 26.7805 12.9572 28.5374 13.5967C30.1301 14.1785 31.5631 15.0289 32.812 16.188C32.9119 16.2812 33.0627 16.3523 33.2002 16.3701C35.6137 16.7231 37.9008 17.4359 39.966 18.7637C42.8808 20.6378 44.8151 23.269 45.8644 26.5553C46.0884 27.257 46.4145 27.8743 46.8582 28.4494C47.2552 28.9646 47.639 29.4908 48.0028 30.0282C48.167 30.2702 48.289 30.5389 48.371 30.8186V30.8253C48.4487 31.0829 48.1426 31.2783 47.9407 31.1028C46.9735 30.2569 45.7313 29.3442 44.1741 28.496C44.0853 28.4472 43.9722 28.4805 43.9256 28.5715L43.9278 28.5826Z" fill="#4A4A4A"/>
</g>
<path d="M27.7965 44.912C27.832 44.8165 27.7832 44.7121 27.6878 44.6766C25.9531 44.0327 24.5445 43.2533 23.4509 42.5205C23.3466 42.4495 23.351 42.2896 23.4597 42.2297C23.4597 42.2297 23.4597 42.2297 23.462 42.2297C23.8768 42.0054 24.3227 41.9898 24.7752 42.0409C25.6847 42.1408 26.5387 42.4495 27.3927 42.7492C28.8124 43.2466 30.2189 43.7928 31.7029 44.0793C32.0623 44.1481 32.426 44.2059 32.7898 44.2525C32.863 44.2614 32.9806 44.2103 33.0228 44.1481C34.2983 42.203 36.1594 41.1061 38.3378 40.471C40.2122 39.9248 42.1288 39.7671 44.072 39.8759C44.0942 39.8759 44.1142 39.8848 44.1874 39.9004C44.0809 39.9581 44.0077 39.9981 43.9345 40.0358C42.8098 40.6331 41.8182 41.3925 41.0485 42.4206C40.4673 43.2 40.0991 44.066 40.0148 45.0408C40.0059 45.1296 40.0081 45.2184 40.0037 45.345C40.5028 45.2828 40.9842 45.2295 41.4611 45.1629C43.7171 44.8476 45.9176 44.3102 48.0006 43.3665C50.2943 42.3274 52.2774 40.8907 53.6949 38.7702C54.9638 36.8694 55.6027 34.7778 55.4363 32.4774C55.4075 32.091 55.3187 31.7069 55.2256 31.3294C55.0614 30.6566 54.6133 30.2236 53.9611 30.0571C53.2291 29.8705 52.4859 29.7373 51.7428 29.6063C50.7557 29.4331 49.7907 29.2177 48.9256 28.6759C47.9163 28.0431 47.2308 26.9151 47.0223 25.7449C47.5813 26.4865 48.3732 26.6087 49.1851 26.6064C50.0303 26.6042 50.8755 26.5309 51.7207 26.4954C51.9669 26.4843 52.2153 26.4843 52.4615 26.4999C52.8364 26.5243 53.2047 26.5953 53.5374 26.844C53.5241 26.642 53.4931 26.4599 53.5042 26.28C53.5241 25.8737 53.6883 25.5095 53.8924 25.1654C54.1031 24.8123 54.3249 24.4659 54.5401 24.1129C55.25 22.9516 55.5339 22.0034 55.017 20.5868C55.2677 20.8421 55.5272 21.0908 55.769 21.355C56.9669 22.6607 57.3484 24.1906 57.0157 25.9181C56.8848 26.5953 56.7517 27.2704 56.6364 27.952C56.4345 29.1467 56.6209 30.2858 57.2109 31.3427C58.5064 33.6631 58.97 36.1656 58.7282 38.7835C58.2313 44.1637 55.7624 48.4847 51.5432 51.8198C50.3209 52.7857 48.9611 53.5318 47.517 54.118C47.4483 54.1469 47.3772 54.1735 47.3085 54.2046C47.2952 54.2091 47.2863 54.2224 47.2486 54.2579C48.5396 55.8566 50.2411 56.7737 52.1554 57.411C51.6608 57.5042 51.1683 57.6152 50.6714 57.6907C48.8258 57.9705 46.9846 57.9417 45.1568 57.5575C43.4975 57.2067 41.958 56.5694 40.5583 55.5991C40.4451 55.5214 40.2854 55.4725 40.1479 55.4725C37.7078 55.4658 35.3431 55.0839 33.1115 54.0625C29.9615 52.6214 27.6722 50.2899 26.1682 47.1879C25.8488 46.524 25.4362 45.96 24.9149 45.4538C24.4491 45.0008 23.9944 44.5345 23.5574 44.0526C23.36 43.8373 23.2002 43.5886 23.0804 43.3221V43.3154C22.9651 43.0712 23.2424 42.8336 23.4664 42.9802C24.5445 43.6796 25.9021 44.4079 27.5636 45.0252C27.6589 45.0607 27.7654 45.0119 27.8009 44.9164L27.7965 44.912Z" fill="#292929"/>
<path d="M27.6546 44.61C27.6901 44.5145 27.6413 44.4101 27.5459 44.3746C25.8112 43.7307 24.4025 42.9513 23.3089 42.2185C23.2047 42.1475 23.2091 41.9876 23.3178 41.9276C23.3178 41.9276 23.3178 41.9276 23.32 41.9276C23.7349 41.7034 24.1807 41.6878 24.6332 41.7389C25.5427 41.8388 26.3968 42.1475 27.2508 42.4472C28.6705 42.9446 30.0769 43.4908 31.5609 43.7773C31.9203 43.8461 32.2841 43.9039 32.6479 43.9505C32.7211 43.9594 32.8386 43.9083 32.8808 43.8461C34.1563 41.901 36.0175 40.8041 38.1958 40.169C40.0703 39.6228 41.9869 39.4651 43.9301 39.5739C43.9522 39.5739 43.9722 39.5828 44.0454 39.5984C43.9389 39.6561 43.8658 39.6961 43.7926 39.7338C42.6679 40.3311 41.6763 41.0905 40.9066 42.1186C40.3254 42.898 39.9571 43.764 39.8728 44.7388C39.8639 44.8276 39.8662 44.9164 39.8618 45.043C40.3609 44.9808 40.8422 44.9275 41.3191 44.8609C43.5751 44.5456 45.7757 44.0082 47.8586 43.0645C50.1523 42.0253 52.1355 40.5887 53.553 38.4682C54.8219 36.5674 55.4607 34.4758 55.2943 32.1754C55.2655 31.789 55.1768 31.4049 55.0836 31.0274C54.9194 30.3546 54.4714 29.9216 53.8192 29.755C53.0872 29.5685 52.344 29.4353 51.6009 29.3043C50.6138 29.1311 49.6488 28.9157 48.7837 28.3739C47.7744 27.7411 47.0889 26.6131 46.8804 25.4429C47.4394 26.1845 48.2313 26.3067 49.0432 26.3044C49.8884 26.3022 50.7335 26.2289 51.5787 26.1934C51.8249 26.1823 52.0734 26.1823 52.3196 26.1979C52.6945 26.2223 53.0628 26.2933 53.3955 26.542C53.3822 26.34 53.3511 26.1579 53.3622 25.978C53.3822 25.5717 53.5463 25.2075 53.7504 24.8634C53.9611 24.5103 54.183 24.1639 54.3981 23.8109C55.108 22.6496 55.3919 21.7014 54.8751 20.2848C55.1258 20.5401 55.3853 20.7888 55.6271 21.053C56.8249 22.3587 57.2065 23.8886 56.8738 25.6161C56.7429 26.2933 56.6098 26.9684 56.4944 27.65C56.2926 28.8447 56.4789 29.9838 57.0689 31.0407C58.3644 33.3611 58.8281 35.8636 58.5863 38.4815C58.0894 43.8617 55.6204 48.1827 51.4012 51.5178C50.179 52.4837 48.8192 53.2298 47.3751 53.816C47.3063 53.8449 47.2353 53.8715 47.1666 53.9026C47.1532 53.907 47.1444 53.9204 47.1067 53.9559C48.3977 55.5546 50.0991 56.4717 52.0135 57.109C51.5188 57.2022 51.0263 57.3132 50.5295 57.3887C48.6838 57.6685 46.8427 57.6397 45.0148 57.2555C43.3556 56.9047 41.8161 56.2674 40.4163 55.2971C40.3032 55.2193 40.1435 55.1705 40.0059 55.1705C37.5658 55.1638 35.2011 54.7819 32.9696 53.7605C29.8196 52.3194 27.5303 49.9879 26.0263 46.8859C25.7069 46.222 25.2943 45.658 24.773 45.1518C24.3072 44.6988 23.8524 44.2325 23.4154 43.7506C23.218 43.5353 23.0583 43.2866 22.9385 43.0201V43.0134C22.8231 42.7692 23.1004 42.5316 23.3245 42.6782C24.4026 43.3776 25.7601 44.1059 27.4216 44.7232C27.517 44.7587 27.6235 44.7099 27.659 44.6144L27.6546 44.61Z" fill="url(#paint4_radial_68_40087)"/>
<g opacity="0.69">
<path d="M27.6546 44.61C27.6901 44.5145 27.6413 44.4101 27.5459 44.3746C25.8112 43.7307 24.4025 42.9513 23.3089 42.2185C23.2047 42.1475 23.2091 41.9876 23.3178 41.9276C23.3178 41.9276 23.3178 41.9276 23.32 41.9276C23.7349 41.7034 24.1807 41.6878 24.6332 41.7389C25.5427 41.8388 26.3968 42.1475 27.2508 42.4472C28.6705 42.9446 30.0769 43.4908 31.5609 43.7773C31.9203 43.8461 32.2841 43.9039 32.6479 43.9505C32.7211 43.9594 32.8386 43.9083 32.8808 43.8461C34.1563 41.901 36.0175 40.8041 38.1958 40.169C40.0703 39.6228 41.9869 39.4651 43.9301 39.5739C43.9522 39.5739 43.9722 39.5828 44.0454 39.5984C43.9389 39.6561 43.8658 39.6961 43.7926 39.7338C42.6679 40.3311 41.6763 41.0905 40.9066 42.1186C40.3254 42.898 39.9571 43.764 39.8728 44.7388C39.8639 44.8276 39.8662 44.9164 39.8618 45.043C40.3609 44.9808 40.8422 44.9275 41.3191 44.8609C43.5751 44.5456 45.7757 44.0082 47.8586 43.0645C50.1523 42.0253 52.1355 40.5887 53.553 38.4682C54.8219 36.5674 55.4607 34.4758 55.2943 32.1754C55.2655 31.789 55.1768 31.4049 55.0836 31.0274C54.9194 30.3546 54.4714 29.9216 53.8192 29.755C53.0872 29.5685 52.344 29.4353 51.6009 29.3043C50.6138 29.1311 49.6488 28.9157 48.7837 28.3739C47.7744 27.7411 47.0889 26.6131 46.8804 25.4429C47.4394 26.1845 48.2313 26.3067 49.0432 26.3044C49.8884 26.3022 50.7335 26.2289 51.5787 26.1934C51.8249 26.1823 52.0734 26.1823 52.3196 26.1979C52.6945 26.2223 53.0628 26.2933 53.3955 26.542C53.3822 26.34 53.3511 26.1579 53.3622 25.978C53.3822 25.5717 53.5463 25.2075 53.7504 24.8634C53.9611 24.5103 54.183 24.1639 54.3981 23.8109C55.108 22.6496 55.3919 21.7014 54.8751 20.2848C55.1258 20.5401 55.3853 20.7888 55.6271 21.053C56.8249 22.3587 57.2065 23.8886 56.8738 25.6161C56.7429 26.2933 56.6098 26.9684 56.4944 27.65C56.2926 28.8447 56.4789 29.9838 57.0689 31.0407C58.3644 33.3611 58.8281 35.8636 58.5863 38.4815C58.0894 43.8617 55.6204 48.1827 51.4012 51.5178C50.179 52.4837 48.8192 53.2298 47.3751 53.816C47.3063 53.8449 47.2353 53.8715 47.1666 53.9026C47.1532 53.907 47.1444 53.9204 47.1067 53.9559C48.3977 55.5546 50.0991 56.4717 52.0135 57.109C51.5188 57.2022 51.0263 57.3132 50.5295 57.3887C48.6838 57.6685 46.8427 57.6397 45.0148 57.2555C43.3556 56.9047 41.8161 56.2674 40.4163 55.2971C40.3032 55.2193 40.1435 55.1705 40.0059 55.1705C37.5658 55.1638 35.2011 54.7819 32.9696 53.7605C29.8196 52.3194 27.5303 49.9879 26.0263 46.8859C25.7069 46.222 25.2943 45.658 24.773 45.1518C24.3072 44.6988 23.8524 44.2325 23.4154 43.7506C23.218 43.5353 23.0583 43.2866 22.9385 43.0201V43.0134C22.8231 42.7692 23.1004 42.5316 23.3245 42.6782C24.4026 43.3776 25.7601 44.1059 27.4216 44.7232C27.517 44.7587 27.6235 44.7099 27.659 44.6144L27.6546 44.61Z" fill="#4A4A4A"/>
</g>
<path d="M38.1759 35.4328L36.7606 33.9917L35.4452 32.6505H35.4429C35.3475 32.7505 32.8276 35.375 32.8254 35.375C32.3373 35.8835 32.1155 36.6829 32.3795 37.3424C32.415 37.4356 32.4616 37.5245 32.517 37.6088C32.5681 37.6866 32.6257 37.7598 32.6878 37.8264C32.6901 37.8287 32.6923 37.8309 32.6967 37.8353C33.0938 38.2661 33.7171 38.497 34.2961 38.4593C34.8795 38.4215 35.5738 38.0596 35.7424 37.4578C35.8267 37.1581 35.7535 36.8428 35.6226 36.5697C35.6226 36.5697 35.5472 36.3587 35.3342 36.1877C35.1213 36.0145 34.7686 35.8858 34.2096 36.0567L33.9434 36.1478L33.2291 36.3898C33.1115 36.4253 33.0006 36.3498 32.9696 36.2499C32.9496 36.1966 32.954 36.1389 32.9895 36.0834C33.0383 36.0034 33.3378 35.8014 33.4842 35.7015C33.4842 35.7015 33.6372 35.5172 33.7703 35.3173C33.9789 35.002 34.2916 34.7622 34.6643 34.6801C34.9438 34.6201 35.301 34.6245 35.7269 34.7844C35.9709 34.8754 36.2371 35.0153 36.5277 35.2241C36.5809 35.2618 36.643 35.2884 36.7073 35.2929C36.8027 35.2996 36.9602 35.3284 37.1066 35.4372C37.2664 35.5549 37.4128 35.7659 37.4505 36.15C37.4505 36.15 37.1688 35.8258 36.7162 35.8525C36.7074 35.8525 36.7007 35.8525 36.6919 35.8525C36.6919 35.8525 36.7096 35.8613 36.7407 35.8813C36.8471 35.9568 37.0978 36.1966 37.0401 36.754C37.0401 36.754 37.0068 37.3246 36.4634 37.8553C36.3458 37.973 36.3347 38.1395 36.4035 38.2639C36.4523 38.3549 36.541 38.4215 36.6586 38.4371H36.6652C37.3972 38.5303 38.065 38.0818 38.411 37.4578C38.7859 36.7806 38.7327 36.0012 38.1759 35.435V35.4328ZM35.4518 33.2856L35.9332 33.8185L35.4629 34.3692L35.3276 34.2248L34.9616 33.8363L35.4429 33.2945L35.4518 33.2856Z" fill="#292929"/>
<path d="M36.8161 39.4918C36.8161 39.5629 36.7607 39.6206 36.6897 39.6206L34.8374 39.6406C34.7664 39.6406 34.7087 39.5851 34.7087 39.514C34.7087 39.4718 34.7309 39.4296 34.7664 39.4052C34.8285 39.3652 34.9172 39.383 34.986 39.3586C35.0503 39.3364 35.108 39.3008 35.159 39.2564C35.2655 39.1654 35.341 39.0411 35.4075 38.9211C35.4386 38.8656 35.4652 38.8101 35.4962 38.7568C35.596 38.5681 35.6892 38.3727 35.7669 38.1729C35.8733 38.4926 36.0198 38.7879 36.1972 39.0744C36.266 39.1876 36.368 39.2809 36.4922 39.3275C36.5543 39.3519 36.6209 39.363 36.6875 39.3675C36.754 39.3719 36.8117 39.4208 36.8117 39.4918H36.8161Z" fill="#292929"/>
<path d="M38.036 35.2951L36.7584 33.9939L35.4429 32.6528L35.3054 32.5129C35.3054 32.5129 32.6878 35.2374 32.6856 35.2374C32.1532 35.7925 31.9358 36.694 32.324 37.3846C32.3395 37.4134 32.3573 37.4423 32.3773 37.4712C32.4638 37.6022 32.568 37.7221 32.69 37.8265C32.6922 37.8287 32.6945 37.8309 32.6989 37.8353C33.096 38.1751 33.6461 38.3549 34.1585 38.3194C34.7419 38.2816 35.4362 37.9197 35.6048 37.318C35.6891 37.0182 35.6159 36.7029 35.485 36.4298C35.485 36.4298 35.4429 36.3143 35.3386 36.1855C35.1789 35.9901 34.8683 35.7659 34.3249 35.8547C34.2472 35.868 34.163 35.888 34.0742 35.9146L33.0938 36.2477C33.0516 36.261 33.0095 36.2588 32.974 36.2477C32.852 36.21 32.7743 36.0656 32.8519 35.9435C32.9008 35.8658 33.2024 35.6615 33.3466 35.5616C33.3466 35.5616 33.4997 35.3773 33.6328 35.1774C33.8413 34.8621 34.1563 34.6223 34.5268 34.5402C34.8506 34.4713 35.2765 34.4869 35.7956 34.7311C35.9819 34.8155 36.1794 34.931 36.3901 35.082C36.4433 35.1219 36.5055 35.1464 36.5698 35.1508C36.6985 35.1597 36.9358 35.2085 37.1088 35.4328C37.2064 35.5594 37.2863 35.7437 37.3107 36.0057C37.3107 36.0057 37.0201 35.6704 36.5542 35.7081C36.5542 35.7081 36.6341 35.7437 36.7184 35.8458C36.7273 35.8547 36.734 35.8658 36.7428 35.8769C36.8449 36.0123 36.9402 36.241 36.9025 36.6119C36.9025 36.6119 36.8692 37.1825 36.3258 37.7132C36.1527 37.882 36.2104 38.1595 36.4056 38.2594C36.4389 38.2772 36.4766 38.2883 36.5188 38.295H36.5254C37.2597 38.3882 37.9251 37.9397 38.2712 37.3157C38.6461 36.6385 38.5928 35.8591 38.036 35.2929V35.2951ZM35.3231 34.2293L34.8218 33.6964L35.312 33.1457L35.4451 33.2923L35.7956 33.6764L35.3298 34.2204L35.3253 34.2248L35.3231 34.2293Z" fill="url(#paint5_radial_68_40087)"/>
<path d="M36.6741 39.3541C36.6741 39.4252 36.6186 39.4829 36.5476 39.4829L34.6954 39.5029C34.6244 39.5029 34.5667 39.4474 34.5667 39.3763C34.5667 39.3341 34.5889 39.2919 34.6244 39.2675C34.6865 39.2275 34.7752 39.2453 34.844 39.2209C34.9083 39.1987 34.966 39.1632 35.017 39.1187C35.1235 39.0277 35.1989 38.9034 35.2654 38.7835C35.2965 38.7279 35.3232 38.6724 35.3542 38.6191C35.454 38.4304 35.5472 38.235 35.6248 38.0352C35.7313 38.3549 35.8777 38.6502 36.0552 38.9367C36.1239 39.0499 36.226 39.1432 36.3502 39.1898C36.4123 39.2142 36.4789 39.2253 36.5454 39.2298C36.6119 39.2342 36.6696 39.2831 36.6696 39.3541H36.6741Z" fill="url(#paint6_radial_68_40087)"/>
<g opacity="0.69">
<path d="M38.036 35.2951L36.7584 33.9939L35.4429 32.6528L35.3054 32.5129C35.3054 32.5129 32.6878 35.2374 32.6856 35.2374C32.1532 35.7925 31.9358 36.694 32.324 37.3846C32.3395 37.4134 32.3573 37.4423 32.3773 37.4712C32.4638 37.6022 32.568 37.7221 32.69 37.8265C32.6922 37.8287 32.6945 37.8309 32.6989 37.8353C33.096 38.1751 33.6461 38.3549 34.1585 38.3194C34.7419 38.2816 35.4362 37.9197 35.6048 37.318C35.6891 37.0182 35.6159 36.7029 35.485 36.4298C35.485 36.4298 35.4429 36.3143 35.3386 36.1855C35.1789 35.9901 34.8683 35.7659 34.3249 35.8547C34.2472 35.868 34.163 35.888 34.0742 35.9146L33.0938 36.2477C33.0516 36.261 33.0095 36.2588 32.974 36.2477C32.852 36.21 32.7743 36.0656 32.8519 35.9435C32.9008 35.8658 33.2024 35.6615 33.3466 35.5616C33.3466 35.5616 33.4997 35.3773 33.6328 35.1774C33.8413 34.8621 34.1563 34.6223 34.5268 34.5402C34.8506 34.4713 35.2765 34.4869 35.7956 34.7311C35.9819 34.8155 36.1794 34.931 36.3901 35.082C36.4433 35.1219 36.5055 35.1464 36.5698 35.1508C36.6985 35.1597 36.9358 35.2085 37.1088 35.4328C37.2064 35.5594 37.2863 35.7437 37.3107 36.0057C37.3107 36.0057 37.0201 35.6704 36.5542 35.7081C36.5542 35.7081 36.6341 35.7437 36.7184 35.8458C36.7273 35.8547 36.734 35.8658 36.7428 35.8769C36.8449 36.0123 36.9402 36.241 36.9025 36.6119C36.9025 36.6119 36.8692 37.1825 36.3258 37.7132C36.1527 37.882 36.2104 38.1595 36.4056 38.2594C36.4389 38.2772 36.4766 38.2883 36.5188 38.295H36.5254C37.2597 38.3882 37.9251 37.9397 38.2712 37.3157C38.6461 36.6385 38.5928 35.8591 38.036 35.2929V35.2951ZM35.3231 34.2293L34.8218 33.6964L35.312 33.1457L35.4451 33.2923L35.7956 33.6764L35.3298 34.2204L35.3253 34.2248L35.3231 34.2293Z" fill="#4A4A4A"/>
<path d="M36.6741 39.3541C36.6741 39.4252 36.6186 39.4829 36.5476 39.4829L34.6954 39.5029C34.6244 39.5029 34.5667 39.4474 34.5667 39.3763C34.5667 39.3341 34.5889 39.2919 34.6244 39.2675C34.6865 39.2275 34.7752 39.2453 34.844 39.2209C34.9083 39.1987 34.966 39.1632 35.017 39.1187C35.1235 39.0277 35.1989 38.9034 35.2654 38.7835C35.2965 38.7279 35.3232 38.6724 35.3542 38.6191C35.454 38.4304 35.5472 38.235 35.6248 38.0352C35.7313 38.3549 35.8777 38.6502 36.0552 38.9367C36.1239 39.0499 36.226 39.1432 36.3502 39.1898C36.4123 39.2142 36.4789 39.2253 36.5454 39.2298C36.6119 39.2342 36.6696 39.2831 36.6696 39.3541H36.6741Z" fill="#4A4A4A"/>
</g>
<path d="M57.9762 9.56657L57.5857 9.9063L56.9358 10.4703L56.4434 10.8988L31.7893 32.2864L31.3036 32.7083L21.2592 41.4214L20.7977 41.8233L8.15577 52.7924L7.54796 53.3208L6.90024 53.8826L6.61629 54.1291C4.154 50.2611 2.44595 45.8623 1.70726 41.1416L1.80485 41.0572L2.5435 40.4177L3.25562 39.7938L25.7978 20.2137L25.942 20.0894L29.906 16.641H29.9105L30.8643 15.8083H30.8666L34.4357 12.7063L34.6043 12.5642L37.0489 10.4392L37.0578 10.4348L44.2605 4.1775L44.8594 3.65791L45.4074 3.18273L45.9841 2.68091C50.4606 4.14642 54.5312 6.51343 57.9784 9.56879L57.9762 9.56657Z" fill="url(#paint7_linear_68_40087)"/>
<path d="M69.4647 34.1183L69.4403 34.1405L68.0539 35.3306L67.3973 35.8946L45.1545 55.0306L44.6311 55.4814L42.344 57.4509L41.938 57.8017L41.7828 57.9328L41.135 58.4879L39.3138 60.0555L38.6972 60.5862L31.0485 67.1677L30.2743 67.8294L29.2539 68.7087L28.6084 69.266C25.5516 68.6487 22.6412 67.6229 19.9416 66.2462L20.4429 65.8154L21.2392 65.1315L21.887 64.572L29.1718 58.3036L29.6643 57.8795L31.9203 55.941L32.3573 55.5613L34.072 54.0891L34.7752 53.4874L37.7277 50.9472L38.3932 50.3743L51.0219 39.5096L51.4501 39.1432H51.4545L56.8715 34.478L57.4261 33.9984L66.2171 26.4377L66.754 25.978L67.7699 25.1009L67.9429 24.9522C68.8502 27.8588 69.376 30.9341 69.4669 34.116L69.4647 34.1183Z" fill="url(#paint8_linear_68_40087)"/>
<path d="M69.4824 35.8123C69.4824 54.6596 54.2184 69.9387 35.3874 69.9387C33.0671 69.9387 30.8 69.7055 28.6105 69.2637C25.5537 68.6464 22.6434 67.6205 19.9437 66.2438C14.4934 63.466 9.88382 59.2649 6.61629 54.129C4.154 50.2609 2.44595 45.8622 1.70726 41.1415C1.4322 39.405 1.29242 37.6242 1.29242 35.8123C1.29242 35.7302 1.29242 35.6502 1.29464 35.5681V35.3705C1.532 16.723 16.7028 1.68155 35.3852 1.68155C38.8745 1.68155 42.2397 2.20558 45.4074 3.18036C49.9438 4.57482 54.0742 6.89076 57.5858 9.90837C62.2375 13.9074 65.8022 19.1411 67.7676 25.1008C68.7126 27.9652 69.2894 30.9961 69.4425 34.1381C69.4602 34.5467 69.4757 34.9575 69.4801 35.3705V35.5681C69.4824 35.6502 69.4824 35.7302 69.4824 35.8123Z" fill="url(#paint9_linear_68_40087)" style="mix-blend-mode:difference"/>
</g>
<defs>
<filter id="filter0_f_68_40087" x="0.292419" y="0" width="70.1899" height="71.9669" filterUnits="userSpaceOnUse" color-interpolation-filters="sRGB">
<feFlood flood-opacity="0" result="BackgroundImageFix"/>
<feBlend mode="normal" in="SourceGraphic" in2="BackgroundImageFix" result="shape"/>
<feGaussianBlur stdDeviation="0.5" result="effect1_foregroundBlur_68_40087"/>
</filter>
<linearGradient id="paint0_linear_68_40087" x1="24.2827" y1="68.0891" x2="46.529" y2="3.54703" gradientUnits="userSpaceOnUse">
<stop stop-color="#A7A7A7"/>
<stop offset="0.51" stop-color="#BABABA"/>
<stop offset="1" stop-color="#D2D2D2"/>
</linearGradient>
<linearGradient id="paint1_linear_68_40087" x1="35.363" y1="4.30185" x2="35.363" y2="67.4586" gradientUnits="userSpaceOnUse">
<stop stop-color="#3B3B3B"/>
<stop offset="0.22" stop-color="#4F4F4F"/>
<stop offset="0.58" stop-color="#787878"/>
<stop offset="1" stop-color="#EAEAEA"/>
</linearGradient>
<linearGradient id="paint2_linear_68_40087" x1="25.383" y1="65.0693" x2="45.516" y2="6.65884" gradientUnits="userSpaceOnUse">
<stop stop-color="#A7A7A7"/>
<stop offset="0.51" stop-color="#BABABA"/>
<stop offset="1" stop-color="#D2D2D2"/>
</linearGradient>
<radialGradient id="paint3_radial_68_40087" cx="0" cy="0" r="1" gradientUnits="userSpaceOnUse" gradientTransform="translate(29.0729 34.1537) rotate(19.788) scale(18.1187 18.1325)">
<stop stop-color="white"/>
<stop offset="0.6" stop-color="#DDDDDD"/>
<stop offset="1" stop-color="#CCCCCC"/>
</radialGradient>
<radialGradient id="paint4_radial_68_40087" cx="0" cy="0" r="1" gradientUnits="userSpaceOnUse" gradientTransform="translate(42.5329 36.6085) rotate(19.788) scale(17.9834 17.9971)">
<stop stop-color="white"/>
<stop offset="0.6" stop-color="#DDDDDD"/>
<stop offset="1" stop-color="#CCCCCC"/>
</radialGradient>
<radialGradient id="paint5_radial_68_40087" cx="0" cy="0" r="1" gradientUnits="userSpaceOnUse" gradientTransform="translate(35.3187 35.4172) scale(3.05014 3.05314)">
<stop stop-color="white"/>
<stop offset="0.6" stop-color="#DDDDDD"/>
<stop offset="1" stop-color="#CCCCCC"/>
</radialGradient>
<radialGradient id="paint6_radial_68_40087" cx="0" cy="0" r="1" gradientUnits="userSpaceOnUse" gradientTransform="translate(35.6226 38.7679) scale(0.907277 0.908169)">
<stop stop-color="white"/>
<stop offset="0.6" stop-color="#DDDDDD"/>
<stop offset="1" stop-color="#CCCCCC"/>
</radialGradient>
<linearGradient id="paint7_linear_68_40087" x1="-9.63703" y1="61.8696" x2="51.3189" y2="5.60292" gradientUnits="userSpaceOnUse">
<stop stop-color="white" stop-opacity="0"/>
<stop offset="1" stop-color="white" stop-opacity="0.3"/>
</linearGradient>
<linearGradient id="paint8_linear_68_40087" x1="10.6825" y1="81.6473" x2="71.5362" y2="25.476" gradientUnits="userSpaceOnUse">
<stop stop-color="white" stop-opacity="0"/>
<stop offset="1" stop-color="white" stop-opacity="0.3"/>
</linearGradient>
<linearGradient id="paint9_linear_68_40087" x1="24.2827" y1="68.089" x2="46.529" y2="3.5469" gradientUnits="userSpaceOnUse">
<stop stop-color="#EDEDED"/>
<stop offset="0.51" stop-color="#E8E8E8"/>
<stop offset="1" stop-color="#F2F2F2"/>
</linearGradient>
</defs>
</svg>
