<svg width="76" height="76" viewBox="0 0 76 76" fill="none" xmlns="http://www.w3.org/2000/svg">
<g filter="url(#filter0_f_68_40313)">
<path d="M72.1474 37.1394C72.1474 37.2216 72.1474 37.3015 72.1451 37.3837V37.5814C71.9075 56.2326 56.7147 71.281 38.008 71.281C35.9112 71.281 33.8611 71.09 31.8687 70.7302C28.759 70.1682 25.7982 69.1798 23.0462 67.836C17.5244 65.1395 12.8399 60.997 9.48149 55.9016C6.96935 52.0901 5.19909 47.7455 4.38169 43.0721C4.07073 41.2863 3.89303 39.4516 3.87081 37.5814V37.3837C3.86859 37.3015 3.86859 37.2216 3.86859 37.1394C3.86859 18.2861 19.1502 3 38.0058 3C41.7107 3 45.2757 3.59083 48.6185 4.68143C53.1008 6.1474 57.1767 8.51517 60.6284 11.5715C65.2329 15.6473 68.729 20.9471 70.6059 26.962C71.5143 29.8695 72.0408 32.9458 72.1319 36.1288C72.143 36.4642 72.1474 36.8018 72.1474 37.1394Z" fill="#787878"/>
<path d="M72.1451 38.8497C72.1451 57.7052 56.8613 72.9891 38.0058 72.9891C19.1502 72.9891 3.86859 57.7052 3.86859 38.8497C3.86859 19.9942 19.1525 4.7103 38.0058 4.7103C56.8591 4.7103 72.1451 19.9964 72.1451 38.8497Z" fill="#474747"/>
<path d="M72.1474 37.8235C72.1474 56.6768 56.8635 71.9607 38.008 71.9607C35.6846 71.9607 33.4146 71.7275 31.2223 71.2855C28.1615 70.668 25.2474 69.6418 22.5442 68.2647C17.0868 65.486 12.4712 61.2835 9.1994 56.146C6.7339 52.2767 5.02363 47.8766 4.28398 43.1543C4.00855 41.4174 3.86859 39.636 3.86859 37.8235C3.86859 37.7413 3.86859 37.6614 3.87081 37.5792V37.3815C4.10848 18.7281 19.2991 3.68192 38.0058 3.68192C41.4997 3.68192 44.8692 4.20611 48.041 5.18121C52.5833 6.5761 56.7191 8.89278 60.2352 11.9114C64.893 15.9117 68.4624 21.147 70.4304 27.1086C71.3766 29.9739 71.9541 33.0058 72.1074 36.1488C72.1252 36.5575 72.1407 36.9684 72.1451 37.3815V37.5792C72.1474 37.6614 72.1474 37.7413 72.1474 37.8235Z" fill="url(#paint0_linear_68_40313)"/>
<path d="M69.5708 37.8924C69.5708 55.3352 55.4286 69.4797 37.9836 69.4797C20.5385 69.4797 6.3963 55.3375 6.3963 37.8924C6.3963 20.4473 20.5385 6.30289 37.9836 6.30289C55.4286 6.30289 69.5708 20.4451 69.5708 37.8924Z" fill="url(#paint1_linear_68_40313)"/>
<path d="M68.9489 37.8679C68.9489 54.9354 55.1154 68.7644 38.0524 68.7644C20.9894 68.7644 7.15594 54.9332 7.15594 37.8679C7.15594 20.8027 20.9894 6.97366 38.0524 6.97366C55.1154 6.97366 68.9489 20.8049 68.9489 37.8679Z" fill="url(#paint2_linear_68_40313)"/>
<path d="M39.2119 9.54351C39.2119 10.0433 38.8076 10.4475 38.3079 10.4475C37.8081 10.4475 37.4038 10.0433 37.4038 9.54351C37.4038 9.04375 37.8081 8.6395 38.3079 8.6395C38.8076 8.6395 39.2119 9.04375 39.2119 9.54351Z" fill="#474747"/>
<path d="M39.3029 9.31249C39.3029 9.81225 38.8987 10.2165 38.3989 10.2165C37.8991 10.2165 37.4949 9.81225 37.4949 9.31249C37.4949 8.81273 37.8991 8.40848 38.3989 8.40848C38.8987 8.40848 39.3029 8.81273 39.3029 9.31249Z" fill="#E6E7E8"/>
<path d="M39.2585 9.42801C39.2585 9.92777 38.8543 10.332 38.3545 10.332C37.8547 10.332 37.4505 9.92777 37.4505 9.42801C37.4505 8.92824 37.8547 8.52399 38.3545 8.52399C38.8543 8.52399 39.2585 8.92824 39.2585 9.42801Z" fill="#898989"/>
<path d="M34.7452 9.70568C34.8229 10.1988 34.4875 10.663 33.9944 10.7407C33.5013 10.8185 33.0371 10.4831 32.9593 9.98999C32.8816 9.49689 33.217 9.03266 33.7101 8.95492C34.2032 8.87718 34.6674 9.21258 34.7452 9.70568Z" fill="#474747"/>
<path d="M34.8007 9.46358C34.8785 9.95668 34.5431 10.4209 34.05 10.4986C33.5569 10.5764 33.0926 10.241 33.0149 9.74789C32.9371 9.25479 33.2726 8.79056 33.7657 8.71282C34.2588 8.63508 34.723 8.97048 34.8007 9.46358Z" fill="#E6E7E8"/>
<path d="M34.774 9.58351C34.8518 10.0766 34.5164 10.5408 34.0233 10.6186C33.5302 10.6963 33.066 10.3609 32.9882 9.86782C32.9105 9.37472 33.2459 8.9105 33.739 8.83276C34.2321 8.75502 34.6963 9.09041 34.774 9.58351Z" fill="#898989"/>
<path d="M30.3605 10.5653C30.516 11.0406 30.2539 11.5515 29.7808 11.7048C29.3054 11.8603 28.7946 11.5982 28.6413 11.125C28.4858 10.6497 28.7479 10.1388 29.221 9.98559C29.6963 9.83011 30.205 10.0922 30.3605 10.5653Z" fill="#474747"/>
<path d="M30.3783 10.3143C30.5316 10.7896 30.2717 11.3005 29.7985 11.4538C29.3232 11.607 28.8124 11.3472 28.6591 10.874C28.5036 10.3987 28.7657 9.88785 29.2388 9.73459C29.7141 9.58133 30.225 9.84121 30.3783 10.3143Z" fill="#E6E7E8"/>
<path d="M30.3694 10.4409C30.5249 10.9162 30.2628 11.4271 29.7897 11.5804C29.3143 11.7336 28.8057 11.4738 28.6502 11.0006C28.497 10.5253 28.7546 10.0167 29.2299 9.86118C29.7053 9.70792 30.2162 9.9678 30.3694 10.4409Z" fill="#898989"/>
<path d="M26.1647 12.0979C26.3913 12.5421 26.2136 13.0885 25.7694 13.3151C25.3251 13.5416 24.7787 13.3639 24.5544 12.9197C24.3278 12.4755 24.5055 11.9313 24.9497 11.7025C25.3939 11.4759 25.9403 11.6536 26.1669 12.0979H26.1647Z" fill="#474747"/>
<path d="M26.1426 11.8491C26.3691 12.2934 26.1914 12.8398 25.7472 13.0663C25.3029 13.2929 24.7565 13.1152 24.53 12.671C24.3034 12.2267 24.4811 11.6825 24.9254 11.4538C25.3696 11.2272 25.916 11.4049 26.1426 11.8491Z" fill="#E6E7E8"/>
<path d="M26.1537 11.9735C26.3802 12.4177 26.2025 12.9641 25.7583 13.1907C25.3141 13.4172 24.7677 13.2396 24.5411 12.7953C24.3145 12.3511 24.4922 11.8069 24.9365 11.5781C25.3807 11.3516 25.9271 11.5292 26.1537 11.9735Z" fill="#898989"/>
<path d="M22.2577 14.2702C22.5509 14.6745 22.462 15.2409 22.0578 15.5341C21.6535 15.8273 21.0871 15.7384 20.7939 15.3342C20.5007 14.9299 20.5896 14.3657 20.9939 14.0703C21.3981 13.7771 21.9623 13.866 22.2577 14.2702Z" fill="#474747"/>
<path d="M22.1977 14.0281C22.4909 14.4323 22.4021 14.9965 21.9978 15.2919C21.5936 15.5851 21.0272 15.4963 20.734 15.092C20.4408 14.6878 20.5296 14.1214 20.9339 13.8282C21.3382 13.535 21.9045 13.6238 22.1977 14.0281Z" fill="#E6E7E8"/>
<path d="M22.2288 14.1481C22.522 14.5523 22.4332 15.1187 22.0289 15.4119C21.6247 15.7051 21.0583 15.6162 20.7651 15.212C20.4719 14.8077 20.5607 14.2436 20.965 13.9481C21.3692 13.655 21.9334 13.7438 22.2288 14.1481Z" fill="#898989"/>
<path d="M18.7416 17.0245C19.0948 17.3776 19.0948 17.9507 18.7416 18.3039C18.3885 18.657 17.8154 18.657 17.4622 18.3039C17.1091 17.9507 17.1091 17.3776 17.4622 17.0245C17.8154 16.6713 18.3885 16.6713 18.7416 17.0245Z" fill="#474747"/>
<path d="M18.6439 16.7957C18.997 17.1488 18.997 17.7219 18.6439 18.0751C18.2907 18.4282 17.7177 18.4282 17.3645 18.0751C17.0113 17.7219 17.0113 17.1488 17.3645 16.7957C17.7177 16.4425 18.2907 16.4425 18.6439 16.7957Z" fill="#E6E7E8"/>
<path d="M18.6928 16.9112C19.0459 17.2643 19.0459 17.8374 18.6928 18.1906C18.3396 18.5437 17.7665 18.5437 17.4134 18.1906C17.0602 17.8374 17.0602 17.2643 17.4134 16.9112C17.7665 16.558 18.3396 16.558 18.6928 16.9112Z" fill="#898989"/>
<path d="M15.6986 20.2962C16.1028 20.5894 16.1917 21.1558 15.8985 21.56C15.6053 21.9643 15.0389 22.0531 14.6346 21.7599C14.2304 21.4668 14.1416 20.9004 14.4348 20.4961C14.728 20.0918 15.2943 20.003 15.6986 20.2962Z" fill="#474747"/>
<path d="M15.5653 20.0852C15.9696 20.3784 16.0584 20.9448 15.7652 21.3491C15.472 21.7533 14.9057 21.8421 14.5014 21.5489C14.0972 21.2558 14.0083 20.6894 14.3015 20.2851C14.5947 19.8808 15.161 19.792 15.5653 20.0852Z" fill="#E6E7E8"/>
<path d="M15.6319 20.1918C16.0362 20.485 16.1251 21.0514 15.8319 21.4556C15.5387 21.8599 14.9722 21.9487 14.568 21.6556C14.1637 21.3624 14.0749 20.796 14.3681 20.3917C14.6613 19.9875 15.2277 19.8986 15.6319 20.1918Z" fill="#898989"/>
<path d="M13.2042 24.0033C13.6484 24.2299 13.8261 24.7741 13.5996 25.2205C13.373 25.6648 12.8288 25.8424 12.3824 25.6159C11.9382 25.3893 11.7605 24.8451 11.987 24.3987C12.2136 23.9545 12.7578 23.7768 13.2042 24.0033Z" fill="#474747"/>
<path d="M13.0399 23.8168C13.4841 24.0433 13.6618 24.5875 13.4353 25.034C13.2087 25.4782 12.6645 25.6559 12.2181 25.4293C11.7738 25.2028 11.5961 24.6586 11.8227 24.2121C12.0492 23.7679 12.5934 23.5902 13.0399 23.8168Z" fill="#E6E7E8"/>
<path d="M13.122 23.91C13.5662 24.1366 13.7439 24.6808 13.5174 25.1272C13.2908 25.5715 12.7466 25.7492 12.3002 25.5226C11.8559 25.296 11.6782 24.7519 11.9048 24.3054C12.1314 23.8612 12.6755 23.6835 13.122 23.91Z" fill="#898989"/>
<path d="M11.3206 28.057C11.796 28.2102 12.0558 28.7211 11.9003 29.1964C11.7448 29.6718 11.2362 29.9316 10.7609 29.7762C10.2856 29.6229 10.0257 29.112 10.1811 28.6367C10.3344 28.1614 10.8453 27.9015 11.3206 28.057Z" fill="#474747"/>
<path d="M11.1296 27.897C11.605 28.0503 11.8649 28.5612 11.7094 29.0365C11.5539 29.5118 11.0452 29.7717 10.5699 29.6162C10.0946 29.4608 9.83471 28.9521 9.99019 28.4768C10.1457 28.0014 10.6543 27.7416 11.1296 27.897Z" fill="#E6E7E8"/>
<path d="M11.2252 27.977C11.7005 28.1303 11.9603 28.6411 11.8049 29.1165C11.6494 29.5918 11.1408 29.8517 10.6654 29.6962C10.1901 29.5407 9.93019 29.0321 10.0835 28.5567C10.2367 28.0814 10.7476 27.8215 11.2229 27.977H11.2252Z" fill="#898989"/>
<path d="M10.0946 32.3527C10.5877 32.4304 10.9253 32.8947 10.8453 33.3878C10.7676 33.8809 10.3033 34.2163 9.81025 34.1385C9.31715 34.0608 8.97955 33.5966 9.05952 33.1035C9.13726 32.6104 9.60146 32.2727 10.0946 32.3527Z" fill="#474747"/>
<path d="M9.88136 32.2261C10.3745 32.3039 10.7121 32.7681 10.6321 33.2612C10.5543 33.7543 10.0901 34.0919 9.59704 34.0142C9.10394 33.9364 8.7663 33.4722 8.84626 32.9791C8.924 32.486 9.38826 32.1484 9.88136 32.2283V32.2261Z" fill="#E6E7E8"/>
<path d="M9.98795 32.2883C10.4811 32.366 10.8186 32.8303 10.7387 33.3234C10.6609 33.8165 10.1967 34.1541 9.70363 34.0741C9.21053 33.9964 8.87294 33.5322 8.95068 33.0391C9.02842 32.546 9.49263 32.2083 9.98573 32.2883H9.98795Z" fill="#898989"/>
<path d="M9.55711 36.7884C10.0569 36.7884 10.4611 37.1927 10.4611 37.6924C10.4611 38.1922 10.0569 38.5964 9.55711 38.5964C9.05734 38.5964 8.65308 38.1922 8.65308 37.6924C8.65308 37.1927 9.05734 36.7884 9.55711 36.7884Z" fill="#474747"/>
<path d="M9.32383 36.6974C9.8236 36.6974 10.2279 37.1016 10.2279 37.6014C10.2279 38.1011 9.8236 38.5054 9.32383 38.5054C8.82407 38.5054 8.4198 38.1011 8.4198 37.6014C8.4198 37.1016 8.82407 36.6974 9.32383 36.6974Z" fill="#E6E7E8"/>
<path d="M9.43937 36.7418C9.93913 36.7418 10.3433 37.146 10.3433 37.6458C10.3433 38.1455 9.93913 38.5498 9.43937 38.5498C8.93961 38.5498 8.53534 38.1455 8.53534 37.6458C8.53534 37.146 8.93961 36.7418 9.43937 36.7418Z" fill="#898989"/>
<path d="M9.71696 41.253C10.2101 41.1752 10.6743 41.5106 10.752 42.006C10.8298 42.4991 10.4944 42.9633 10.0013 43.041C9.50818 43.1188 9.04392 42.7834 8.96618 42.2903C8.88844 41.7972 9.22386 41.3329 9.71696 41.2552V41.253Z" fill="#474747"/>
<path d="M9.47488 41.1997C9.96798 41.1219 10.4322 41.4573 10.5099 41.9504C10.5877 42.4435 10.2523 42.9077 9.75919 42.9855C9.26609 43.0632 8.80189 42.7278 8.72415 42.2347C8.64641 41.7416 8.98178 41.2774 9.47488 41.1997Z" fill="#E6E7E8"/>
<path d="M9.59703 41.2263C10.0901 41.1486 10.5543 41.484 10.6321 41.9771C10.7098 42.4702 10.3744 42.9344 9.88135 43.0122C9.38825 43.0899 8.92399 42.7545 8.84625 42.2614C8.7685 41.7683 9.10393 41.3041 9.59703 41.2263Z" fill="#898989"/>
<path d="M10.5766 45.6398C11.0519 45.4865 11.5606 45.7464 11.7161 46.2195C11.8694 46.6948 11.6095 47.2035 11.1363 47.359C10.661 47.5122 10.1502 47.2523 9.99691 46.7792C9.84143 46.3039 10.1035 45.7953 10.5766 45.6398Z" fill="#474747"/>
<path d="M10.3278 45.622C10.8031 45.4665 11.314 45.7264 11.4672 46.2017C11.6205 46.677 11.3606 47.1879 10.8853 47.3412C10.41 47.4967 9.9013 47.2368 9.74582 46.7615C9.59256 46.2861 9.85246 45.7753 10.3256 45.622H10.3278Z" fill="#E6E7E8"/>
<path d="M10.4522 45.6309C10.9275 45.4777 11.4384 45.7353 11.5917 46.2106C11.7472 46.686 11.4873 47.1968 11.0119 47.3501C10.5366 47.5034 10.0258 47.2435 9.87251 46.7704C9.71924 46.295 9.97909 45.7842 10.4522 45.6309Z" fill="#898989"/>
<path d="M12.1092 49.8355C12.5534 49.609 13.0976 49.7867 13.3264 50.2309C13.553 50.6751 13.3753 51.2193 12.931 51.4481C12.4868 51.6747 11.9426 51.497 11.7161 51.0527C11.4895 50.6085 11.6672 50.0643 12.1114 49.8355H12.1092Z" fill="#474747"/>
<path d="M11.8604 49.86C12.3047 49.6334 12.8488 49.8089 13.0776 50.2554C13.3042 50.6996 13.1265 51.246 12.6822 51.4726C12.238 51.6991 11.6938 51.5214 11.465 51.0772C11.2385 50.633 11.4162 50.0865 11.8604 49.86Z" fill="#E6E7E8"/>
<path d="M11.9848 49.8467C12.429 49.6201 12.9754 49.7956 13.202 50.242C13.4286 50.6862 13.2531 51.2304 12.8066 51.457C12.3624 51.6836 11.816 51.5059 11.5894 51.0616C11.3629 50.6174 11.5406 50.071 11.9848 49.8467Z" fill="#898989"/>
<path d="M14.2815 53.7404C14.6857 53.4472 15.2499 53.536 15.5453 53.9403C15.8385 54.3445 15.7496 54.9087 15.3454 55.2041C14.9411 55.4973 14.3748 55.4085 14.0816 55.0042C13.7884 54.6 13.8772 54.0358 14.2815 53.7404Z" fill="#474747"/>
<path d="M14.0394 53.8026C14.4436 53.5094 15.01 53.5982 15.3032 54.0025C15.5964 54.4067 15.5076 54.9731 15.1033 55.2663C14.6991 55.5595 14.1348 55.4707 13.8394 55.0664C13.5462 54.6622 13.6351 54.0958 14.0394 53.8026Z" fill="#E6E7E8"/>
<path d="M14.1593 53.7715C14.5636 53.4783 15.13 53.5671 15.4232 53.9714C15.7164 54.3756 15.6275 54.9398 15.2233 55.233C14.819 55.5262 14.2526 55.4374 13.9594 55.0331C13.6662 54.6288 13.7551 54.0647 14.1593 53.7693V53.7715Z" fill="#898989"/>
<path d="M17.0357 57.2587C17.3889 56.9055 17.962 56.9055 18.3151 57.2587C18.6683 57.6119 18.6683 58.1849 18.3151 58.5381C17.962 58.8913 17.3889 58.8913 17.0357 58.5381C16.6826 58.1849 16.6826 57.6119 17.0357 57.2587Z" fill="#474747"/>
<path d="M16.807 57.3587C17.1601 57.0055 17.7332 57.0055 18.0864 57.3587C18.4395 57.7118 18.4395 58.2849 18.0864 58.6381C17.7332 58.9912 17.1601 58.9912 16.807 58.6381C16.4538 58.2849 16.4538 57.7118 16.807 57.3587Z" fill="#E6E7E8"/>
<path d="M16.9225 57.3076C17.2756 56.9544 17.8487 56.9544 18.2019 57.3076C18.555 57.6607 18.555 58.2316 18.2019 58.5847C17.8487 58.9379 17.2756 58.9379 16.9225 58.5847C16.5693 58.2316 16.5693 57.6585 16.9225 57.3054V57.3076Z" fill="#898989"/>
<path d="M20.3075 60.3017C20.6007 59.8975 21.1671 59.8086 21.5714 60.1018C21.9756 60.395 22.0645 60.9614 21.7713 61.3656C21.4781 61.7699 20.9117 61.8588 20.5074 61.5656C20.1032 61.2724 20.0143 60.706 20.3075 60.3017Z" fill="#474747"/>
<path d="M20.0965 60.435C20.3897 60.0307 20.9561 59.9419 21.3604 60.2351C21.7646 60.5283 21.8534 61.0947 21.5602 61.4989C21.2671 61.9032 20.7007 61.992 20.2964 61.6988C19.8922 61.4056 19.8033 60.8392 20.0965 60.435Z" fill="#E6E7E8"/>
<path d="M20.2031 60.3683C20.4963 59.9641 21.0627 59.8752 21.467 60.1684C21.8712 60.4616 21.9601 61.028 21.6669 61.43C21.3737 61.8343 20.8073 61.9231 20.403 61.63C19.9988 61.3368 19.9099 60.7704 20.2031 60.3661V60.3683Z" fill="#898989"/>
<path d="M24.0168 62.7961C24.2434 62.3519 24.7876 62.1742 25.234 62.4008C25.6783 62.6273 25.856 63.1715 25.6294 63.618C25.4028 64.0622 24.8587 64.2399 24.4122 64.0133C23.968 63.7868 23.7903 63.2426 24.0168 62.7984V62.7961Z" fill="#474747"/>
<path d="M23.828 62.9605C24.0546 62.5163 24.5988 62.3386 25.0452 62.5651C25.4895 62.7917 25.6672 63.3359 25.4406 63.7823C25.214 64.2266 24.6698 64.4043 24.2234 64.1777C23.7791 63.9512 23.6015 63.407 23.828 62.9605Z" fill="#E6E7E8"/>
<path d="M23.9213 62.8783C24.1479 62.4341 24.6921 62.2564 25.1385 62.483C25.5828 62.7095 25.7605 63.2537 25.5339 63.7002C25.3074 64.1444 24.7632 64.3221 24.3167 64.0955C23.8725 63.869 23.6948 63.3248 23.9213 62.8805V62.8783Z" fill="#898989"/>
<path d="M28.0683 64.6797C28.2238 64.2044 28.7324 63.9445 29.2078 64.1C29.6831 64.2532 29.9429 64.7641 29.7875 65.2394C29.6342 65.7148 29.1234 65.9746 28.648 65.8191C28.1727 65.6659 27.9128 65.155 28.0683 64.6797Z" fill="#474747"/>
<path d="M27.9084 64.8707C28.0616 64.3954 28.5725 64.1355 29.0479 64.291C29.5232 64.4465 29.783 64.9551 29.6276 65.4304C29.4721 65.9058 28.9634 66.1656 28.4881 66.0102C28.0128 65.8547 27.7529 65.3438 27.9084 64.8707Z" fill="#E6E7E8"/>
<path d="M27.9884 64.7752C28.1416 64.2999 28.6525 64.04 29.1278 64.1955C29.6031 64.351 29.863 64.8596 29.7075 65.3349C29.5521 65.8103 29.0434 66.0701 28.5681 65.9147C28.0927 65.7614 27.8329 65.2505 27.9884 64.7752Z" fill="#898989"/>
<path d="M32.3641 65.9058C32.4418 65.4127 32.906 65.0773 33.3991 65.155C33.8922 65.2328 34.2299 65.697 34.1499 66.1901C34.0722 66.6832 33.6079 67.0186 33.1148 66.9409C32.6217 66.8631 32.2841 66.3989 32.3641 65.9058Z" fill="#474747"/>
<path d="M32.2375 66.119C32.3152 65.6259 32.7795 65.2883 33.2726 65.366C33.7657 65.4438 34.1033 65.908 34.0233 66.4011C33.9456 66.8942 33.4813 67.2318 32.9882 67.1518C32.4951 67.0741 32.1575 66.6099 32.2375 66.1168V66.119Z" fill="#E6E7E8"/>
<path d="M32.3019 66.0124C32.3796 65.5193 32.8438 65.1817 33.3369 65.2616C33.83 65.3394 34.1654 65.8036 34.0877 66.2967C34.01 66.7898 33.5457 67.1274 33.0526 67.0475C32.5595 66.9697 32.2241 66.5055 32.3019 66.0124Z" fill="#898989"/>
<path d="M36.7997 66.4432C36.7997 65.9435 37.2061 65.5392 37.7037 65.5392C38.2034 65.5392 38.6077 65.9435 38.6077 66.4432C38.6077 66.943 38.2034 67.3473 37.7037 67.3473C37.2039 67.3473 36.7997 66.943 36.7997 66.4432Z" fill="#474747"/>
<path d="M36.7086 66.6765C36.7086 66.1767 37.1128 65.7725 37.6126 65.7725C38.1123 65.7725 38.5166 66.1767 38.5166 66.6765C38.5166 67.1762 38.1101 67.5805 37.6126 67.5805C37.1128 67.5805 36.7086 67.174 36.7086 66.6765Z" fill="#E6E7E8"/>
<path d="M36.7552 66.5587C36.7552 66.059 37.1595 65.6547 37.6593 65.6547C38.159 65.6547 38.5632 66.059 38.5632 66.5587C38.5632 67.0585 38.159 67.4628 37.6593 67.4628C37.1595 67.4628 36.7552 67.0585 36.7552 66.5587Z" fill="#898989"/>
<path d="M41.2665 66.2811C41.1888 65.788 41.5264 65.326 42.0195 65.2461C42.5126 65.1683 42.9768 65.5037 43.0545 65.9991C43.1323 66.4922 42.7969 66.9564 42.3038 67.0341C41.8107 67.1119 41.3465 66.7765 41.2688 66.2834L41.2665 66.2811Z" fill="#474747"/>
<path d="M41.211 66.5255C41.1333 66.0324 41.4686 65.5682 41.9617 65.4904C42.4548 65.4127 42.919 65.7481 42.9968 66.2434C43.0745 66.7365 42.7369 67.2007 42.246 67.2784C41.7529 67.3562 41.2887 67.0186 41.211 66.5277V66.5255Z" fill="#E6E7E8"/>
<path d="M41.2376 66.4033C41.1599 65.9102 41.4953 65.446 41.9884 65.3682C42.4815 65.2905 42.9457 65.6259 43.0235 66.119C43.1012 66.6121 42.7658 67.0763 42.2727 67.1541C41.7796 67.2318 41.3154 66.8964 41.2376 66.4011V66.4033Z" fill="#898989"/>
<path d="M45.6511 65.4238C45.4979 64.9485 45.7577 64.4398 46.2331 64.2843C46.7084 64.1311 47.2193 64.391 47.3726 64.8641C47.528 65.3394 47.2681 65.848 46.7906 66.0035C46.3152 66.1568 45.8044 65.8969 45.6511 65.4238Z" fill="#474747"/>
<path d="M45.6356 65.6748C45.4801 65.1995 45.7421 64.6886 46.2153 64.5353C46.6906 64.3798 47.2015 64.6397 47.3547 65.115C47.508 65.5904 47.2481 66.1012 46.7728 66.2545C46.2974 66.41 45.7866 66.1479 45.6333 65.6748H45.6356Z" fill="#E6E7E8"/>
<path d="M45.6422 65.5482C45.489 65.0728 45.7466 64.562 46.2219 64.4087C46.6973 64.2555 47.2059 64.5131 47.3614 64.9884C47.5147 65.4638 47.2548 65.9746 46.7817 66.1279C46.3063 66.2834 45.7977 66.0213 45.6422 65.5482Z" fill="#898989"/>
<path d="M49.8469 63.8911C49.6203 63.4469 49.798 62.9005 50.2423 62.6739C50.6865 62.4474 51.2329 62.6251 51.4595 63.0693C51.686 63.5158 51.5083 64.06 51.0641 64.2865C50.6198 64.5131 50.0757 64.3354 49.8469 63.8911Z" fill="#474747"/>
<path d="M49.8713 64.1399C49.6448 63.6957 49.8202 63.1493 50.2666 62.9227C50.7109 62.6962 51.2573 62.8716 51.4839 63.3181C51.7105 63.7623 51.5328 64.3065 51.0885 64.5353C50.6443 64.7619 50.0979 64.5842 49.8713 64.1399Z" fill="#E6E7E8"/>
<path d="M49.8602 64.0155C49.6337 63.5713 49.8114 63.0249 50.2556 62.8006C50.6998 62.574 51.244 62.7495 51.4706 63.1959C51.6971 63.6402 51.5194 64.1866 51.0752 64.4131C50.631 64.6397 50.0868 64.462 49.858 64.0178L49.8602 64.0155Z" fill="#898989"/>
<path d="M53.7539 61.7188C53.4607 61.3146 53.5517 60.7482 53.9538 60.455C54.358 60.1618 54.9222 60.2506 55.2176 60.6549C55.5108 61.0591 55.422 61.6233 55.0177 61.9187C54.6135 62.2119 54.0493 62.1231 53.7539 61.7188Z" fill="#474747"/>
<path d="M53.8139 61.9609C53.5207 61.5567 53.6096 60.9903 54.0138 60.6971C54.4181 60.4039 54.9845 60.4927 55.2777 60.897C55.5708 61.3012 55.482 61.8676 55.0778 62.1608C54.6735 62.454 54.1071 62.363 53.8139 61.9609Z" fill="#E6E7E8"/>
<path d="M53.785 61.8388C53.4918 61.4345 53.5807 60.8703 53.985 60.5749C54.3892 60.2817 54.9534 60.3706 55.2466 60.7748C55.5398 61.1791 55.4509 61.7455 55.0466 62.0387C54.6424 62.3319 54.076 62.243 53.7828 61.8388H53.785Z" fill="#898989"/>
<path d="M57.27 58.9624C56.9169 58.6092 56.9169 58.0361 57.27 57.683C57.6232 57.3298 58.1963 57.3298 58.5494 57.683C58.9026 58.0361 58.9026 58.6092 58.5494 58.9624C58.1963 59.3155 57.6232 59.3155 57.27 58.9624Z" fill="#474747"/>
<path d="M57.3701 59.1934C57.0169 58.8402 57.0169 58.2672 57.3701 57.914C57.7232 57.5608 58.2963 57.5608 58.6495 57.914C59.0026 58.2672 59.0026 58.8402 58.6495 59.1934C58.2963 59.5466 57.7232 59.5466 57.3701 59.1934Z" fill="#E6E7E8"/>
<path d="M57.3212 59.0779C56.968 58.7247 56.968 58.1517 57.3212 57.7985C57.6743 57.4453 58.2474 57.4453 58.6006 57.7985C58.9537 58.1517 58.9537 58.7247 58.6006 59.0779C58.2474 59.4311 57.6743 59.4311 57.3212 59.0779Z" fill="#898989"/>
<path d="M60.3131 55.6906C59.9088 55.3974 59.8199 54.831 60.1131 54.4267C60.4063 54.0225 60.9727 53.9336 61.3769 54.2268C61.7812 54.52 61.8701 55.0864 61.5769 55.4906C61.2837 55.8949 60.7173 55.9838 60.3131 55.6906Z" fill="#474747"/>
<path d="M60.4485 55.9038C60.0443 55.6106 59.9554 55.0442 60.2486 54.6399C60.5418 54.2357 61.1082 54.1468 61.5125 54.44C61.9167 54.7332 62.0055 55.2996 61.7123 55.7039C61.4192 56.1081 60.8528 56.197 60.4485 55.9038Z" fill="#E6E7E8"/>
<path d="M60.3797 55.7971C59.9754 55.504 59.8866 54.9376 60.1798 54.5333C60.473 54.129 61.0371 54.0402 61.4414 54.3334C61.8456 54.6266 61.9345 55.193 61.6413 55.5972C61.3481 56.0015 60.7817 56.0903 60.3774 55.7971H60.3797Z" fill="#898989"/>
<path d="M62.8074 51.9834C62.3632 51.7569 62.1855 51.2127 62.4121 50.7685C62.6386 50.3242 63.1828 50.1465 63.6293 50.3731C64.0735 50.5997 64.2512 51.1438 64.0246 51.5903C63.7981 52.0345 63.2539 52.2122 62.8097 51.9857L62.8074 51.9834Z" fill="#474747"/>
<path d="M62.9718 52.1723C62.5253 51.9457 62.3498 51.4015 62.5764 50.9551C62.8029 50.5108 63.3471 50.3332 63.7936 50.5597C64.2378 50.7863 64.4155 51.3305 64.189 51.7769C63.9624 52.2211 63.4182 52.3988 62.9718 52.1723Z" fill="#E6E7E8"/>
<path d="M62.8896 52.079C62.4454 51.8524 62.2677 51.3082 62.4942 50.8618C62.7208 50.4176 63.265 50.2399 63.7092 50.4664C64.1534 50.693 64.3311 51.2394 64.1046 51.6836C63.878 52.1279 63.3338 52.3056 62.8874 52.079H62.8896Z" fill="#898989"/>
<path d="M64.691 47.932C64.2156 47.7788 63.9557 47.2679 64.1112 46.7926C64.2667 46.3172 64.7754 46.0574 65.2507 46.2128C65.726 46.3661 65.9859 46.877 65.8304 47.3523C65.6771 47.8276 65.1663 48.0875 64.691 47.932Z" fill="#474747"/>
<path d="M64.8842 48.0919C64.4089 47.9364 64.149 47.4278 64.3045 46.9524C64.4578 46.4771 64.9686 46.2172 65.444 46.3727C65.9193 46.5282 66.1792 47.0369 66.0237 47.5122C65.8682 47.9875 65.3595 48.2474 64.8842 48.0941V48.0919Z" fill="#E6E7E8"/>
<path d="M64.7865 48.012C64.3134 47.8565 64.0513 47.3478 64.2067 46.8725C64.36 46.3972 64.8709 46.1373 65.3462 46.2928C65.8216 46.4483 66.0814 46.9569 65.9259 47.4322C65.7727 47.9076 65.2618 48.1674 64.7865 48.012Z" fill="#898989"/>
<path d="M65.9171 43.6363C65.424 43.5585 65.0885 43.0943 65.1663 42.6012C65.244 42.1081 65.7083 41.7727 66.2014 41.8505C66.6945 41.9282 67.0299 42.3924 66.9521 42.8855C66.8744 43.3786 66.4102 43.714 65.9171 43.6363Z" fill="#474747"/>
<path d="M66.1325 43.7629C65.6394 43.6851 65.3017 43.2209 65.3817 42.7278C65.4594 42.2347 65.9237 41.8971 66.4168 41.9771C66.9099 42.0548 67.2475 42.519 67.1697 43.0121C67.092 43.5052 66.6278 43.8428 66.1347 43.7651L66.1325 43.7629Z" fill="#E6E7E8"/>
<path d="M66.0236 43.6985C65.5305 43.6207 65.1929 43.1565 65.2729 42.6634C65.3506 42.1703 65.8126 41.8349 66.308 41.9127C66.8011 41.9904 67.1387 42.4546 67.0587 42.9477C66.981 43.4408 66.5167 43.7784 66.0236 43.6985Z" fill="#898989"/>
<path d="M66.4546 39.2006C65.9548 39.2006 65.5505 38.7941 65.5505 38.2966C65.5505 37.7968 65.9548 37.3926 66.4546 37.3926C66.9543 37.3926 67.3586 37.7968 67.3586 38.2966C67.3586 38.7941 66.9543 39.2006 66.4546 39.2006Z" fill="#474747"/>
<path d="M66.6878 39.2917C66.1881 39.2917 65.7838 38.8852 65.7838 38.3877C65.7838 37.8879 66.1881 37.4837 66.6878 37.4837C67.1876 37.4837 67.5918 37.8879 67.5918 38.3877C67.5918 38.8875 67.1854 39.2917 66.6878 39.2917Z" fill="#E6E7E8"/>
<path d="M66.5723 39.2451C66.0725 39.2451 65.6683 38.8408 65.6683 38.3411C65.6683 37.8413 66.0725 37.437 66.5723 37.437C67.0721 37.437 67.4763 37.8435 67.4763 38.3411C67.4763 38.8408 67.0721 39.2451 66.5723 39.2451Z" fill="#898989"/>
<path d="M66.2947 34.7338C65.8016 34.8116 65.3395 34.4739 65.2596 33.9808C65.1818 33.4877 65.5173 33.0235 66.0104 32.9458C66.5035 32.868 66.9677 33.2034 67.0454 33.6987C67.1231 34.1918 66.7878 34.6539 66.2947 34.7338Z" fill="#474747"/>
<path d="M66.539 34.7893C66.0459 34.8671 65.5817 34.5294 65.5039 34.0363C65.4262 33.5432 65.7616 33.079 66.2547 33.0013C66.7478 32.9235 67.212 33.2589 67.2898 33.752C67.3675 34.2451 67.0299 34.7094 66.539 34.7871V34.7893Z" fill="#E6E7E8"/>
<path d="M66.4168 34.7627C65.9237 34.8404 65.4595 34.505 65.3817 34.0097C65.304 33.5166 65.6394 33.0546 66.1325 32.9746C66.6256 32.8969 67.0898 33.2323 67.1676 33.7254C67.2453 34.2185 66.9099 34.6827 66.4168 34.7605V34.7627Z" fill="#898989"/>
<path d="M65.435 30.3492C64.9597 30.5047 64.4511 30.2426 64.2956 29.7695C64.1401 29.2942 64.4022 28.7855 64.8753 28.6301C65.3506 28.4768 65.8593 28.7367 66.0148 29.212C66.168 29.6873 65.9081 30.196 65.4328 30.3515L65.435 30.3492Z" fill="#474747"/>
<path d="M65.6861 30.3648C65.2107 30.5203 64.6998 30.2582 64.5466 29.7829C64.3911 29.3075 64.651 28.7989 65.1263 28.6434C65.6017 28.4901 66.1125 28.75 66.2658 29.2231C66.4212 29.6985 66.1592 30.2093 65.6861 30.3626V30.3648Z" fill="#E6E7E8"/>
<path d="M65.5617 30.3582C65.0863 30.5114 64.5777 30.2515 64.4222 29.7762C64.2667 29.3009 64.5266 28.7922 65.0019 28.6368C65.4773 28.4835 65.9882 28.7434 66.1414 29.2165C66.2969 29.6918 66.0348 30.2027 65.5617 30.3559V30.3582Z" fill="#898989"/>
<path d="M63.9025 26.1535C63.4582 26.38 62.914 26.2023 62.6853 25.7581C62.4587 25.3138 62.6364 24.7674 63.0806 24.5409C63.5249 24.3143 64.0691 24.492 64.2978 24.9362C64.5244 25.3805 64.3467 25.9247 63.9025 26.1535Z" fill="#474747"/>
<path d="M64.1512 26.129C63.7047 26.3556 63.1606 26.1779 62.934 25.7336C62.7074 25.2894 62.8829 24.7452 63.3294 24.5164C63.7736 24.2899 64.32 24.4676 64.5466 24.9118C64.7731 25.356 64.5954 25.9024 64.1512 26.129Z" fill="#E6E7E8"/>
<path d="M64.0268 26.1401C63.5826 26.3667 63.0384 26.189 62.8096 25.7448C62.5831 25.3005 62.7607 24.7563 63.205 24.5298C63.6492 24.3032 64.1956 24.4809 64.4222 24.9251C64.6488 25.3694 64.4711 25.9158 64.0268 26.1423V26.1401Z" fill="#898989"/>
<path d="M61.7302 22.2464C61.3259 22.5396 60.7595 22.4485 60.4663 22.0465C60.1731 21.6422 60.262 21.0758 60.6662 20.7826C61.0705 20.4895 61.6346 20.5783 61.9301 20.9826C62.2233 21.3868 62.1344 21.951 61.7302 22.2464Z" fill="#474747"/>
<path d="M61.9745 22.1864C61.5703 22.4796 61.0038 22.3908 60.7106 21.9865C60.4174 21.5823 60.5063 21.0181 60.9106 20.7227C61.3148 20.4295 61.8812 20.5183 62.1744 20.9226C62.4676 21.3268 62.3788 21.8932 61.9745 22.1864Z" fill="#E6E7E8"/>
<path d="M61.8523 22.2153C61.4481 22.5085 60.8839 22.4197 60.5885 22.0154C60.2953 21.6112 60.3841 21.047 60.7884 20.7538C61.1926 20.4606 61.759 20.5494 62.0522 20.9537C62.3454 21.3579 62.2566 21.9221 61.8523 22.2175V22.2153Z" fill="#898989"/>
<path d="M58.9759 18.7303C58.6228 19.0835 58.0497 19.0835 57.6965 18.7303C57.3434 18.3771 57.3434 17.8041 57.6965 17.4509C58.0497 17.0977 58.6228 17.0977 58.9759 17.4509C59.3291 17.8041 59.3291 18.3771 58.9759 18.7303Z" fill="#474747"/>
<path d="M59.2047 18.6304C58.8516 18.9835 58.2785 18.9835 57.9253 18.6304C57.5722 18.2772 57.5722 17.7041 57.9253 17.351C58.2785 16.9978 58.8516 16.9978 59.2047 17.351C59.5579 17.7041 59.5579 18.2772 59.2047 18.6304Z" fill="#E6E7E8"/>
<path d="M59.0892 18.6792C58.7361 19.0324 58.163 19.0324 57.8098 18.6792C57.4567 18.3261 57.4567 17.7552 57.8098 17.3998C58.163 17.0467 58.7361 17.0467 59.0892 17.3998C59.4424 17.753 59.4424 18.3261 59.0892 18.6792Z" fill="#898989"/>
<path d="M55.7042 15.6873C55.411 16.0916 54.8445 16.1804 54.4403 15.8872C54.036 15.594 53.9472 15.0276 54.2404 14.6234C54.5336 14.2191 55.0977 14.1303 55.5042 14.4235C55.9085 14.7167 55.9974 15.2831 55.7042 15.6873Z" fill="#474747"/>
<path d="M55.9151 15.554C55.6219 15.9583 55.0556 16.0471 54.6513 15.7539C54.2471 15.4607 54.1582 14.8943 54.4514 14.4901C54.7446 14.0858 55.3109 13.997 55.7152 14.2902C56.1195 14.5834 56.2083 15.1498 55.9151 15.554Z" fill="#E6E7E8"/>
<path d="M55.8086 15.6207C55.5154 16.0249 54.9489 16.1138 54.5447 15.8206C54.1404 15.5274 54.0516 14.9632 54.3448 14.5567C54.638 14.1525 55.2044 14.0636 55.6086 14.3568C56.0129 14.65 56.1018 15.2164 55.8086 15.6207Z" fill="#898989"/>
<path d="M51.997 13.1929C51.7704 13.6372 51.2262 13.8149 50.7798 13.5883C50.3356 13.3617 50.1579 12.8176 50.3844 12.3711C50.611 11.9269 51.1552 11.7492 51.6016 11.9757C52.0458 12.2023 52.2235 12.7465 51.997 13.1929Z" fill="#474747"/>
<path d="M52.1836 13.0286C51.957 13.475 51.4106 13.6505 50.9664 13.4239C50.5221 13.1974 50.3444 12.6532 50.571 12.2067C50.7976 11.7625 51.3417 11.5848 51.7882 11.8114C52.2324 12.0379 52.4101 12.5843 52.1836 13.0286Z" fill="#E6E7E8"/>
<path d="M52.0903 13.1107C51.8638 13.555 51.3196 13.7326 50.8753 13.5061C50.4311 13.2795 50.2534 12.7353 50.48 12.2911C50.7065 11.8469 51.2507 11.6692 51.6972 11.8957C52.1414 12.1223 52.3191 12.6665 52.0925 13.1129L52.0903 13.1107Z" fill="#898989"/>
<path d="M47.9433 11.3094C47.79 11.7847 47.2792 12.0446 46.8039 11.8891C46.3285 11.7358 46.0686 11.225 46.2219 10.7496C46.3774 10.2743 46.886 10.0144 47.3614 10.1699C47.8345 10.3232 48.0965 10.834 47.9411 11.3094H47.9433Z" fill="#474747"/>
<path d="M48.1032 11.1161C47.9477 11.5915 47.4368 11.8513 46.9637 11.6959C46.4884 11.5426 46.2285 11.0317 46.384 10.5564C46.5372 10.0811 47.0481 9.82119 47.5235 9.97667C47.9988 10.1299 48.2587 10.643 48.1054 11.1161H48.1032Z" fill="#E6E7E8"/>
<path d="M48.0232 11.2139C47.8678 11.6892 47.3591 11.9491 46.8838 11.7936C46.4084 11.6403 46.1486 11.1295 46.3041 10.6541C46.4595 10.1788 46.9682 9.91894 47.4435 10.0744C47.9188 10.2277 48.1787 10.7385 48.0232 11.2139Z" fill="#898989"/>
<path d="M43.6476 10.0833C43.5698 10.5764 43.1056 10.9118 42.6125 10.834C42.1194 10.7563 41.7818 10.2921 41.8617 9.79896C41.9395 9.30586 42.4015 8.97047 42.8968 9.04821C43.3899 9.12595 43.7253 9.59017 43.6476 10.0833Z" fill="#474747"/>
<path d="M43.7742 9.86782C43.6964 10.3609 43.2322 10.6985 42.7391 10.6186C42.246 10.5408 41.9084 10.0766 41.9884 9.58351C42.0661 9.09041 42.5303 8.75502 43.0234 8.83276C43.5165 8.9105 43.8541 9.37472 43.7764 9.86782H43.7742Z" fill="#E6E7E8"/>
<path d="M43.712 9.97666C43.6343 10.4698 43.17 10.8052 42.6769 10.7274C42.1838 10.6497 41.8484 10.1877 41.9262 9.69235C42.0039 9.19925 42.4681 8.86163 42.9612 8.9416C43.4543 9.01934 43.792 9.48356 43.712 9.97666Z" fill="#898989"/>
<path d="M46.7017 30.8934C46.6528 30.9823 46.6861 31.0933 46.7749 31.1422C48.4031 32.0284 49.6891 32.9969 50.6664 33.8787C50.7597 33.9631 50.7331 34.1208 50.6154 34.1652C50.6154 34.1652 50.6154 34.1652 50.6131 34.1652C50.1689 34.3296 49.7269 34.2785 49.2849 34.1652C48.3986 33.9364 47.5968 33.51 46.7927 33.0924C45.4556 32.3972 44.1407 31.6575 42.7102 31.1622C42.3637 31.0422 42.0106 30.9334 41.6574 30.8379C41.5863 30.8179 41.4619 30.8534 41.4108 30.909C39.8716 32.6548 37.8703 33.4766 35.6224 33.7943C33.6878 34.0697 31.7643 33.9542 29.8541 33.5699C29.8319 33.5655 29.8119 33.5544 29.743 33.53C29.8563 33.4878 29.934 33.4589 30.0118 33.43C31.2112 32.9969 32.3018 32.3883 33.2103 31.4776C33.8966 30.789 34.3853 29.985 34.6052 29.0299C34.6252 28.9432 34.6363 28.8544 34.6585 28.73C34.1543 28.7211 33.67 28.7056 33.1881 28.7034C30.9069 28.6967 28.6502 28.9144 26.4512 29.5518C24.0302 30.256 21.8623 31.3954 20.1542 33.2945C18.6261 34.9959 17.6976 36.975 17.5355 39.2783C17.5088 39.6648 17.5443 40.058 17.5799 40.4445C17.6465 41.133 18.0286 41.6261 18.6527 41.8838C19.3502 42.1725 20.0698 42.4102 20.7895 42.6456C21.7423 42.9588 22.6708 43.3075 23.4482 43.9672C24.3589 44.7358 24.8787 45.9507 24.9186 47.1413C24.47 46.3283 23.7036 46.0951 22.8974 45.9818C22.06 45.8641 21.2115 45.8175 20.3697 45.7308C20.1231 45.7064 19.8788 45.6709 19.6367 45.622C19.268 45.5443 18.9148 45.4221 18.6194 45.1289C18.6038 45.331 18.6083 45.5154 18.5727 45.6931C18.495 46.0929 18.2818 46.4305 18.0308 46.7415C17.7709 47.0613 17.5021 47.3723 17.24 47.6899C16.3716 48.7383 15.9562 49.6357 16.2672 51.1127C16.054 50.824 15.834 50.5419 15.6319 50.2443C14.6302 48.7805 14.468 47.2101 15.0433 45.5487C15.2677 44.8979 15.4964 44.2471 15.7075 43.5896C16.0784 42.4346 16.0539 41.2818 15.6186 40.1513C14.6635 37.668 14.5591 35.1248 15.1721 32.5682C16.4293 27.3107 19.4901 23.3836 24.1435 20.6805C25.4917 19.8986 26.9466 19.35 28.4614 18.9768C28.5347 18.9591 28.608 18.9413 28.6791 18.9191C28.6924 18.9169 28.7035 18.9035 28.7479 18.8747C27.6951 17.1088 26.1381 15.9583 24.3323 15.0543C24.8365 15.032 25.3384 14.9921 25.8426 14.9876C27.7106 14.9721 29.532 15.263 31.2912 15.9027C32.886 16.4847 34.3208 17.3354 35.5714 18.4949C35.6713 18.5881 35.8224 18.6592 35.9601 18.677C38.3767 19.0301 40.6667 19.7432 42.7346 21.0714C45.6533 22.9461 47.5901 25.5782 48.6408 28.8655C48.8651 29.5674 49.1916 30.1849 49.6358 30.7602C50.0334 31.2755 50.4177 31.8019 50.7819 32.3394C50.9463 32.5815 51.0685 32.8503 51.1507 33.1301V33.1368C51.2284 33.3945 50.9219 33.5899 50.7197 33.4145C49.7513 32.5682 48.5075 31.6553 46.9482 30.8068C46.8594 30.7579 46.7461 30.7913 46.6995 30.8823L46.7017 30.8934Z" fill="#292929"/>
<path d="M46.5595 30.5914C46.5106 30.6802 46.544 30.7913 46.6328 30.8401C48.2609 31.7264 49.547 32.6948 50.5243 33.5766C50.6176 33.661 50.591 33.8187 50.4732 33.8631C50.4732 33.8631 50.4732 33.8631 50.471 33.8631C50.0268 34.0275 49.5848 33.9764 49.1428 33.8631C48.2565 33.6344 47.4547 33.2079 46.6506 32.7903C45.3135 32.0951 43.9985 31.3555 42.5681 30.8601C42.2216 30.7402 41.8684 30.6313 41.5152 30.5358C41.4442 30.5158 41.3198 30.5514 41.2687 30.6069C39.7295 32.3528 37.7282 33.1746 35.4803 33.4922C33.5457 33.7676 31.6222 33.6521 29.712 33.2679C29.6898 33.2634 29.6698 33.2523 29.6009 33.2279C29.7142 33.1857 29.7919 33.1568 29.8697 33.1279C31.0691 32.6948 32.1597 32.0862 33.0681 31.1755C33.7545 30.487 34.2431 29.6829 34.463 28.7278C34.483 28.6412 34.4941 28.5523 34.5163 28.4279C34.0121 28.4191 33.5279 28.4035 33.0459 28.4013C30.7648 28.3946 28.5081 28.6123 26.3091 29.2498C23.888 29.9539 21.7202 31.0934 20.0121 32.9925C18.4839 34.6939 17.5554 36.6729 17.3933 38.9763C17.3666 39.3628 17.4022 39.7559 17.4378 40.1424C17.5044 40.831 17.8864 41.3241 18.5106 41.5817C19.208 41.8705 19.9277 42.1081 20.6474 42.3436C21.6002 42.6568 22.5287 43.0055 23.3061 43.6652C24.2168 44.4337 24.7365 45.6487 24.7765 46.8392C24.3279 46.0263 23.5615 45.7931 22.7552 45.6798C21.9179 45.5621 21.0693 45.5154 20.2275 45.4288C19.981 45.4044 19.7367 45.3688 19.4946 45.32C19.1259 45.2422 18.7727 45.12 18.4773 44.8268C18.4617 45.029 18.4662 45.2133 18.4306 45.391C18.3529 45.7908 18.1397 46.1285 17.8887 46.4394C17.6288 46.7593 17.36 47.0702 17.0979 47.3879C16.2294 48.4363 15.8141 49.3336 16.125 50.8107C15.9118 50.5219 15.6919 50.2398 15.4898 49.9422C14.4881 48.4785 14.3259 46.9081 14.9012 45.2466C15.1255 44.5958 15.3543 43.945 15.5653 43.2876C15.9362 42.1326 15.9118 40.9798 15.4765 39.8492C14.5214 37.3659 14.417 34.8227 15.03 32.2661C16.2872 27.0086 19.3479 23.0816 24.0013 20.3784C25.3495 19.5966 26.8044 19.0479 28.3193 18.6748C28.3926 18.657 28.4659 18.6392 28.537 18.617C28.5503 18.6148 28.5614 18.6015 28.6058 18.5726C27.553 16.8068 25.9959 15.6562 24.1901 14.7522C24.6943 14.73 25.1963 14.69 25.7005 14.6856C27.5685 14.67 29.3899 14.961 31.1491 15.6007C32.7439 16.1826 34.1787 17.0333 35.4293 18.1928C35.5292 18.2861 35.6802 18.3572 35.818 18.3749C38.2346 18.7281 40.5246 19.4411 42.5925 20.7693C45.5112 22.644 47.448 25.2761 48.4986 28.5634C48.7229 29.2653 49.0494 29.8828 49.4937 30.4581C49.8913 30.9734 50.2756 31.4998 50.6398 32.0374C50.8042 32.2795 50.9263 32.5482 51.0085 32.8281V32.8347C51.0863 33.0924 50.7798 33.2879 50.5776 33.1124C49.6092 32.2661 48.3653 31.3532 46.8061 30.5047C46.7172 30.4559 46.6039 30.4892 46.5573 30.5803L46.5595 30.5914Z" fill="url(#paint3_radial_68_40313)"/>
<g opacity="0.69">
<path d="M46.5595 30.5914C46.5106 30.6802 46.544 30.7913 46.6328 30.8401C48.2609 31.7264 49.547 32.6948 50.5243 33.5766C50.6176 33.661 50.591 33.8187 50.4732 33.8631C50.4732 33.8631 50.4732 33.8631 50.471 33.8631C50.0268 34.0275 49.5848 33.9764 49.1428 33.8631C48.2565 33.6344 47.4547 33.2079 46.6506 32.7903C45.3135 32.0951 43.9985 31.3555 42.5681 30.8601C42.2216 30.7402 41.8684 30.6313 41.5152 30.5358C41.4442 30.5158 41.3198 30.5514 41.2687 30.6069C39.7295 32.3528 37.7282 33.1746 35.4803 33.4922C33.5457 33.7676 31.6222 33.6521 29.712 33.2679C29.6898 33.2634 29.6698 33.2523 29.6009 33.2279C29.7142 33.1857 29.7919 33.1568 29.8697 33.1279C31.0691 32.6948 32.1597 32.0862 33.0681 31.1755C33.7545 30.487 34.2431 29.6829 34.463 28.7278C34.483 28.6412 34.4941 28.5523 34.5163 28.4279C34.0121 28.4191 33.5279 28.4035 33.0459 28.4013C30.7648 28.3946 28.5081 28.6123 26.3091 29.2498C23.888 29.9539 21.7202 31.0934 20.0121 32.9925C18.4839 34.6939 17.5554 36.6729 17.3933 38.9763C17.3666 39.3628 17.4022 39.7559 17.4378 40.1424C17.5044 40.831 17.8864 41.3241 18.5106 41.5817C19.208 41.8705 19.9277 42.1081 20.6474 42.3436C21.6002 42.6568 22.5287 43.0055 23.3061 43.6652C24.2168 44.4337 24.7365 45.6487 24.7765 46.8392C24.3279 46.0263 23.5615 45.7931 22.7552 45.6798C21.9179 45.5621 21.0693 45.5154 20.2275 45.4288C19.981 45.4044 19.7367 45.3688 19.4946 45.32C19.1259 45.2422 18.7727 45.12 18.4773 44.8268C18.4617 45.029 18.4662 45.2133 18.4306 45.391C18.3529 45.7908 18.1397 46.1285 17.8887 46.4394C17.6288 46.7593 17.36 47.0702 17.0979 47.3879C16.2294 48.4363 15.8141 49.3336 16.125 50.8107C15.9118 50.5219 15.6919 50.2398 15.4898 49.9422C14.4881 48.4785 14.3259 46.9081 14.9012 45.2466C15.1255 44.5958 15.3543 43.945 15.5653 43.2876C15.9362 42.1326 15.9118 40.9798 15.4765 39.8492C14.5214 37.3659 14.417 34.8227 15.03 32.2661C16.2872 27.0086 19.3479 23.0816 24.0013 20.3784C25.3495 19.5966 26.8044 19.0479 28.3193 18.6748C28.3926 18.657 28.4659 18.6392 28.537 18.617C28.5503 18.6148 28.5614 18.6015 28.6058 18.5726C27.553 16.8068 25.9959 15.6562 24.1901 14.7522C24.6943 14.73 25.1963 14.69 25.7005 14.6856C27.5685 14.67 29.3899 14.961 31.1491 15.6007C32.7439 16.1826 34.1787 17.0333 35.4293 18.1928C35.5292 18.2861 35.6802 18.3572 35.818 18.3749C38.2346 18.7281 40.5246 19.4411 42.5925 20.7693C45.5112 22.644 47.448 25.2761 48.4986 28.5634C48.7229 29.2653 49.0494 29.8828 49.4937 30.4581C49.8913 30.9734 50.2756 31.4998 50.6398 32.0374C50.8042 32.2795 50.9263 32.5482 51.0085 32.8281V32.8347C51.0863 33.0924 50.7798 33.2879 50.5776 33.1124C49.6092 32.2661 48.3653 31.3532 46.8061 30.5047C46.7172 30.4559 46.6039 30.4892 46.5573 30.5803L46.5595 30.5914Z" fill="#4A4A4A"/>
</g>
<path d="M30.4072 46.9258C30.4428 46.8303 30.3939 46.7259 30.2984 46.6903C28.5615 46.0462 27.151 45.2666 26.056 44.5336C25.9516 44.4625 25.956 44.3026 26.0648 44.2426C26.0648 44.2426 26.0649 44.2426 26.0671 44.2426C26.4824 44.0183 26.9289 44.0027 27.382 44.0538C28.2927 44.1538 29.1478 44.4625 30.003 44.7624C31.4245 45.2599 32.8328 45.8063 34.3188 46.0929C34.6786 46.1617 35.0428 46.2195 35.4071 46.2661C35.4804 46.275 35.5981 46.2239 35.6403 46.1617C36.9175 44.216 38.7811 43.1187 40.9623 42.4834C42.8391 41.937 44.7583 41.7793 46.704 41.8882C46.7262 41.8882 46.7462 41.8971 46.8195 41.9126C46.7129 41.9704 46.6396 42.0103 46.5663 42.0481C45.4401 42.6456 44.4473 43.4052 43.6765 44.4336C43.0946 45.2133 42.7259 46.0795 42.6415 47.0546C42.6326 47.1435 42.6348 47.2323 42.6304 47.3589C43.1301 47.2967 43.6121 47.2434 44.0897 47.1768C46.3486 46.8614 48.552 46.3239 50.6377 45.3799C52.9344 44.3404 54.9201 42.9033 56.3394 40.782C57.6099 38.8807 58.2496 36.7884 58.0831 34.4872C58.0542 34.1007 57.9654 33.7165 57.8721 33.3389C57.7077 32.6659 57.259 32.2328 56.606 32.0662C55.873 31.8796 55.1289 31.7463 54.3848 31.6153C53.3964 31.442 52.4302 31.2266 51.5639 30.6846C50.5533 30.0516 49.8669 28.9232 49.6581 27.7526C50.2179 28.4945 51.0108 28.6167 51.8238 28.6145C52.67 28.6122 53.5163 28.5389 54.3626 28.5034C54.6092 28.4923 54.8579 28.4923 55.1044 28.5078C55.4798 28.5323 55.8486 28.6034 56.1817 28.8521C56.1684 28.65 56.1373 28.4679 56.1484 28.288C56.1684 27.8815 56.3328 27.5172 56.5371 27.1729C56.7481 26.8198 56.9702 26.4733 57.1857 26.1201C57.8965 24.9584 58.1808 24.01 57.6632 22.5929C57.9142 22.8483 58.1741 23.0971 58.4162 23.3614C59.6157 24.6674 59.9977 26.1978 59.6645 27.9259C59.5335 28.6034 59.4002 29.2786 59.2847 29.9605C59.0826 31.1555 59.2692 32.2949 59.86 33.3522C61.1572 35.6733 61.6214 38.1766 61.3792 40.7954C60.8817 46.1773 58.4096 50.4997 54.1849 53.8359C52.961 54.8021 51.5995 55.5484 50.1535 56.1348C50.0846 56.1636 50.0135 56.1903 49.9447 56.2214C49.9313 56.2258 49.9224 56.2392 49.8847 56.2747C51.1774 57.8739 52.8811 58.7913 54.7979 59.4288C54.3026 59.5221 53.8095 59.6331 53.312 59.7086C51.464 59.9885 49.6204 59.9596 47.7901 59.5754C46.1287 59.2244 44.5872 58.5869 43.1857 57.6163C43.0724 57.5385 42.9124 57.4897 42.7747 57.4897C40.3314 57.483 37.9637 57.101 35.7292 56.0792C32.5751 54.6377 30.2828 52.3055 28.7769 49.2025C28.457 48.5384 28.0439 47.9742 27.522 47.4678C27.0555 47.0146 26.6002 46.5482 26.1626 46.0662C25.9649 45.8507 25.805 45.602 25.685 45.3354V45.3288C25.5695 45.0844 25.8472 44.8468 26.0715 44.9934C27.151 45.693 28.5104 46.4216 30.174 47.0391C30.2695 47.0746 30.3762 47.0257 30.4117 46.9302L30.4072 46.9258Z" fill="#292929"/>
<path d="M30.2651 46.6238C30.3006 46.5282 30.2517 46.4239 30.1562 46.3883C28.4193 45.7442 27.0088 44.9645 25.9138 44.2316C25.8094 44.1605 25.8138 44.0006 25.9227 43.9406C25.9227 43.9406 25.9227 43.9406 25.9249 43.9406C26.3402 43.7162 26.7867 43.7007 27.2398 43.7518C28.1505 43.8517 29.0056 44.1605 29.8608 44.4603C31.2823 44.9579 32.6906 45.5043 34.1765 45.7908C34.5363 45.8597 34.9007 45.9174 35.2649 45.9641C35.3382 45.973 35.4559 45.9219 35.4981 45.8597C36.7753 43.9139 38.6389 42.8167 40.8201 42.1814C42.697 41.635 44.616 41.4773 46.5618 41.5861C46.584 41.5861 46.604 41.595 46.6773 41.6106C46.5707 41.6683 46.4974 41.7083 46.4241 41.7461C45.298 42.3436 44.3051 43.1032 43.5343 44.1316C42.9524 44.9112 42.5836 45.7775 42.4992 46.7526C42.4904 46.8414 42.4926 46.9303 42.4882 47.0569C42.9879 46.9947 43.4699 46.9414 43.9474 46.8748C46.2064 46.5593 48.4098 46.0218 50.4955 45.0778C52.7921 44.0383 54.7779 42.6012 56.1972 40.48C57.4677 38.5787 58.1074 36.4863 57.9408 34.1852C57.9119 33.7987 57.8231 33.4145 57.7298 33.0369C57.5655 32.3638 57.1168 31.9307 56.4638 31.7641C55.7308 31.5775 54.9867 31.4443 54.2426 31.3132C53.2542 31.14 52.288 30.9245 51.4217 30.3826C50.4111 29.7495 49.7247 28.6212 49.5159 27.4506C50.0757 28.1925 50.8686 28.3146 51.6816 28.3124C52.5278 28.3102 53.3741 28.2369 54.2204 28.2014C54.4669 28.1903 54.7157 28.1903 54.9623 28.2058C55.3376 28.2302 55.7064 28.3013 56.0395 28.5501C56.0262 28.348 55.9951 28.1658 56.0062 27.9859C56.0262 27.5794 56.1905 27.2152 56.3949 26.8709C56.6059 26.5177 56.828 26.1712 57.0435 25.8181C57.7542 24.6564 58.0386 23.7079 57.521 22.2908C57.772 22.5463 58.0319 22.795 58.274 23.0593C59.4734 24.3654 59.8555 25.8958 59.5223 27.6239C59.3913 28.3013 59.258 28.9766 59.1425 29.6585C58.9404 30.8534 59.1269 31.9929 59.7178 33.0502C61.0149 35.3713 61.4792 37.8746 61.2371 40.4933C60.7395 45.8752 58.2673 50.1976 54.0427 53.5338C52.8188 54.5 51.4572 55.2463 50.0113 55.8327C49.9424 55.8616 49.8713 55.8883 49.8025 55.9194C49.7892 55.9238 49.7803 55.9371 49.7425 55.9727C51.0352 57.5719 52.7388 58.4892 54.6557 59.1267C54.1604 59.22 53.6673 59.3311 53.1698 59.4066C51.3217 59.6865 49.4782 59.6576 47.648 59.2733C45.9865 58.9224 44.445 58.2849 43.0435 57.3143C42.9302 57.2365 42.7702 57.1876 42.6325 57.1876C40.1892 57.181 37.8215 56.7989 35.587 55.7772C32.4329 54.3357 30.1407 52.0034 28.6347 48.9005C28.3149 48.2363 27.9017 47.6722 27.3798 47.1657C26.9133 46.7126 26.458 46.2462 26.0204 45.7642C25.8227 45.5487 25.6628 45.2999 25.5429 45.0334V45.0267C25.4274 44.7824 25.705 44.5447 25.9293 44.6913C27.0088 45.391 28.3682 46.1196 30.0318 46.737C30.1273 46.7726 30.234 46.7237 30.2695 46.6282L30.2651 46.6238Z" fill="url(#paint4_radial_68_40313)"/>
<g opacity="0.69">
<path d="M30.2651 46.6238C30.3006 46.5282 30.2517 46.4239 30.1562 46.3883C28.4193 45.7442 27.0088 44.9645 25.9138 44.2316C25.8094 44.1605 25.8138 44.0006 25.9227 43.9406C25.9227 43.9406 25.9227 43.9406 25.9249 43.9406C26.3402 43.7162 26.7867 43.7007 27.2398 43.7518C28.1505 43.8517 29.0056 44.1605 29.8608 44.4603C31.2823 44.9579 32.6906 45.5043 34.1765 45.7908C34.5363 45.8597 34.9007 45.9174 35.2649 45.9641C35.3382 45.973 35.4559 45.9219 35.4981 45.8597C36.7753 43.9139 38.6389 42.8167 40.8201 42.1814C42.697 41.635 44.616 41.4773 46.5618 41.5861C46.584 41.5861 46.604 41.595 46.6773 41.6106C46.5707 41.6683 46.4974 41.7083 46.4241 41.7461C45.298 42.3436 44.3051 43.1032 43.5343 44.1316C42.9524 44.9112 42.5836 45.7775 42.4992 46.7526C42.4904 46.8414 42.4926 46.9303 42.4882 47.0569C42.9879 46.9947 43.4699 46.9414 43.9474 46.8748C46.2064 46.5593 48.4098 46.0218 50.4955 45.0778C52.7921 44.0383 54.7779 42.6012 56.1972 40.48C57.4677 38.5787 58.1074 36.4863 57.9408 34.1852C57.9119 33.7987 57.8231 33.4145 57.7298 33.0369C57.5655 32.3638 57.1168 31.9307 56.4638 31.7641C55.7308 31.5775 54.9867 31.4443 54.2426 31.3132C53.2542 31.14 52.288 30.9245 51.4217 30.3826C50.4111 29.7495 49.7247 28.6212 49.5159 27.4506C50.0757 28.1925 50.8686 28.3146 51.6816 28.3124C52.5278 28.3102 53.3741 28.2369 54.2204 28.2014C54.4669 28.1903 54.7157 28.1903 54.9623 28.2058C55.3376 28.2302 55.7064 28.3013 56.0395 28.5501C56.0262 28.348 55.9951 28.1658 56.0062 27.9859C56.0262 27.5794 56.1905 27.2152 56.3949 26.8709C56.6059 26.5177 56.828 26.1712 57.0435 25.8181C57.7542 24.6564 58.0386 23.7079 57.521 22.2908C57.772 22.5463 58.0319 22.795 58.274 23.0593C59.4734 24.3654 59.8555 25.8958 59.5223 27.6239C59.3913 28.3013 59.258 28.9766 59.1425 29.6585C58.9404 30.8534 59.1269 31.9929 59.7178 33.0502C61.0149 35.3713 61.4792 37.8746 61.2371 40.4933C60.7395 45.8752 58.2673 50.1976 54.0427 53.5338C52.8188 54.5 51.4572 55.2463 50.0113 55.8327C49.9424 55.8616 49.8713 55.8883 49.8025 55.9194C49.7892 55.9238 49.7803 55.9371 49.7425 55.9727C51.0352 57.5719 52.7388 58.4892 54.6557 59.1267C54.1604 59.22 53.6673 59.3311 53.1698 59.4066C51.3217 59.6865 49.4782 59.6576 47.648 59.2733C45.9865 58.9224 44.445 58.2849 43.0435 57.3143C42.9302 57.2365 42.7702 57.1876 42.6325 57.1876C40.1892 57.181 37.8215 56.7989 35.587 55.7772C32.4329 54.3357 30.1407 52.0034 28.6347 48.9005C28.3149 48.2363 27.9017 47.6722 27.3798 47.1657C26.9133 46.7126 26.458 46.2462 26.0204 45.7642C25.8227 45.5487 25.6628 45.2999 25.5429 45.0334V45.0267C25.4274 44.7824 25.705 44.5447 25.9293 44.6913C27.0088 45.391 28.3682 46.1196 30.0318 46.737C30.1273 46.7726 30.234 46.7237 30.2695 46.6282L30.2651 46.6238Z" fill="#4A4A4A"/>
</g>
<path d="M40.8001 37.4437L39.383 36.0021L38.0658 34.6606H38.0636C37.9681 34.7605 35.4448 37.3859 35.4426 37.3859C34.9539 37.8946 34.7318 38.6942 34.9961 39.3539C35.0317 39.4472 35.0783 39.536 35.1339 39.6204C35.185 39.6982 35.2427 39.7715 35.3049 39.8381C35.3071 39.8403 35.3094 39.8425 35.3138 39.847C35.7114 40.2779 36.3355 40.5089 36.9153 40.4711C37.4994 40.4334 38.1947 40.0713 38.3635 39.4694C38.4479 39.1695 38.3746 38.8541 38.2435 38.5809C38.2435 38.5809 38.168 38.3699 37.9548 38.1989C37.7415 38.0256 37.3883 37.8968 36.8286 38.0678L36.5621 38.1589L35.8469 38.401C35.7291 38.4365 35.6181 38.361 35.587 38.2611C35.567 38.2078 35.5714 38.15 35.607 38.0945C35.6558 38.0145 35.9557 37.8124 36.1023 37.7124C36.1023 37.7124 36.2555 37.5281 36.3888 37.3282C36.5976 37.0128 36.9108 36.7729 37.284 36.6907C37.5638 36.6307 37.9214 36.6352 38.3479 36.7951C38.5922 36.8862 38.8588 37.0261 39.1498 37.2349C39.2031 37.2726 39.2652 37.2993 39.3296 37.3037C39.4252 37.3104 39.5829 37.3393 39.7295 37.4481C39.8894 37.5658 40.036 37.7769 40.0738 38.1611C40.0738 38.1611 39.7917 37.8368 39.3385 37.8635C39.3297 37.8635 39.323 37.8635 39.3141 37.8635C39.3141 37.8635 39.3319 37.8724 39.363 37.8924C39.4696 37.9679 39.7206 38.2078 39.6628 38.7653C39.6628 38.7653 39.6295 39.3361 39.0853 39.867C38.9676 39.9847 38.9565 40.1513 39.0254 40.2757C39.0742 40.3667 39.1631 40.4334 39.2808 40.4489H39.2875C40.0204 40.5422 40.689 40.0935 41.0355 39.4694C41.4109 38.7919 41.3576 38.0123 40.8001 37.4459V37.4437ZM38.0725 35.2958L38.5545 35.8289L38.0836 36.3797L37.9481 36.2354L37.5816 35.8467L38.0636 35.3047L38.0725 35.2958Z" fill="#292929"/>
<path d="M39.4385 41.504C39.4385 41.5751 39.383 41.6328 39.3119 41.6328L37.4572 41.6528C37.3861 41.6528 37.3283 41.5973 37.3283 41.5262C37.3283 41.484 37.3506 41.4418 37.3861 41.4173C37.4483 41.3774 37.5371 41.3951 37.606 41.3707C37.6704 41.3485 37.7282 41.313 37.7792 41.2685C37.8859 41.1775 37.9614 41.0531 38.028 40.9331C38.0591 40.8776 38.0858 40.8221 38.1169 40.7688C38.2168 40.58 38.3101 40.3845 38.3878 40.1846C38.4945 40.5044 38.6411 40.7999 38.8188 41.0864C38.8876 41.1997 38.9898 41.293 39.1142 41.3396C39.1764 41.364 39.243 41.3751 39.3097 41.3796C39.3763 41.384 39.4341 41.4329 39.4341 41.504H39.4385Z" fill="#292929"/>
<path d="M40.6601 37.3059L39.3807 36.0043L38.0635 34.6628L37.9259 34.5228C37.9259 34.5228 35.3049 37.2482 35.3026 37.2482C34.7696 37.8035 34.5519 38.7053 34.9406 39.3961C34.9561 39.425 34.9739 39.4538 34.9939 39.4827C35.0805 39.6137 35.1849 39.7337 35.3071 39.8381C35.3093 39.8403 35.3115 39.8425 35.316 39.847C35.7136 40.1868 36.2644 40.3667 36.7775 40.3312C37.3616 40.2934 38.0569 39.9314 38.2257 39.3294C38.3101 39.0296 38.2368 38.7142 38.1057 38.441C38.1057 38.441 38.0635 38.3255 37.9592 38.1966C37.7992 38.0012 37.4882 37.7768 36.9441 37.8657C36.8663 37.879 36.7819 37.899 36.6931 37.9257L35.7114 38.2588C35.6692 38.2722 35.6269 38.2699 35.5914 38.2588C35.4692 38.2211 35.3915 38.0767 35.4692 37.9545C35.5181 37.8768 35.8202 37.6724 35.9645 37.5725C35.9645 37.5725 36.1178 37.3881 36.2511 37.1882C36.4599 36.8728 36.7753 36.6329 37.1462 36.5508C37.4705 36.4819 37.897 36.4974 38.4167 36.7418C38.6033 36.8262 38.801 36.9417 39.012 37.0927C39.0653 37.1327 39.1275 37.1571 39.1919 37.1616C39.3207 37.1705 39.5584 37.2193 39.7316 37.4437C39.8294 37.5703 39.9094 37.7546 39.9338 38.0167C39.9338 38.0167 39.6428 37.6813 39.1763 37.7191C39.1763 37.7191 39.2563 37.7546 39.3407 37.8568C39.3496 37.8657 39.3563 37.8768 39.3652 37.8879C39.4673 38.0234 39.5628 38.2522 39.5251 38.6231C39.5251 38.6231 39.4917 39.1939 38.9476 39.7248C38.7743 39.8936 38.8321 40.1713 39.0275 40.2712C39.0609 40.289 39.0986 40.3001 39.1408 40.3068H39.1475C39.8827 40.4 40.549 39.9514 40.8955 39.3272C41.2709 38.6498 41.2176 37.8701 40.6601 37.3037V37.3059ZM37.9436 36.2398L37.4416 35.7067L37.9325 35.1559L38.0658 35.3025L38.4167 35.6867L37.9503 36.2309L37.9458 36.2353L37.9436 36.2398Z" fill="url(#paint5_radial_68_40313)"/>
<path d="M39.2963 41.3663C39.2963 41.4374 39.2408 41.4951 39.1697 41.4951L37.3151 41.5151C37.244 41.5151 37.1862 41.4596 37.1862 41.3885C37.1862 41.3463 37.2084 41.3041 37.244 41.2797C37.3062 41.2397 37.395 41.2574 37.4639 41.233C37.5283 41.2108 37.586 41.1753 37.6371 41.1308C37.7437 41.0398 37.8192 40.9154 37.8859 40.7954C37.917 40.7399 37.9436 40.6844 37.9747 40.6311C38.0747 40.4423 38.168 40.2468 38.2457 40.0469C38.3523 40.3668 38.4989 40.6622 38.6766 40.9487C38.7455 41.062 38.8477 41.1553 38.972 41.2019C39.0342 41.2264 39.1009 41.2375 39.1675 41.2419C39.2341 41.2463 39.2919 41.2952 39.2919 41.3663H39.2963Z" fill="url(#paint6_radial_68_40313)"/>
<g opacity="0.69">
<path d="M40.6601 37.3059L39.3807 36.0043L38.0635 34.6628L37.9259 34.5228C37.9259 34.5228 35.3049 37.2482 35.3026 37.2482C34.7696 37.8035 34.5519 38.7053 34.9406 39.3961C34.9561 39.425 34.9739 39.4538 34.9939 39.4827C35.0805 39.6137 35.1849 39.7337 35.3071 39.8381C35.3093 39.8403 35.3115 39.8425 35.316 39.847C35.7136 40.1868 36.2644 40.3667 36.7775 40.3312C37.3616 40.2934 38.0569 39.9314 38.2257 39.3294C38.3101 39.0296 38.2368 38.7142 38.1057 38.441C38.1057 38.441 38.0635 38.3255 37.9592 38.1966C37.7992 38.0012 37.4882 37.7768 36.9441 37.8657C36.8663 37.879 36.7819 37.899 36.6931 37.9257L35.7114 38.2588C35.6692 38.2722 35.6269 38.2699 35.5914 38.2588C35.4692 38.2211 35.3915 38.0767 35.4692 37.9545C35.5181 37.8768 35.8202 37.6724 35.9645 37.5725C35.9645 37.5725 36.1178 37.3881 36.2511 37.1882C36.4599 36.8728 36.7753 36.6329 37.1462 36.5508C37.4705 36.4819 37.897 36.4974 38.4167 36.7418C38.6033 36.8262 38.801 36.9417 39.012 37.0927C39.0653 37.1327 39.1275 37.1571 39.1919 37.1616C39.3207 37.1705 39.5584 37.2193 39.7316 37.4437C39.8294 37.5703 39.9094 37.7546 39.9338 38.0167C39.9338 38.0167 39.6428 37.6813 39.1763 37.7191C39.1763 37.7191 39.2563 37.7546 39.3407 37.8568C39.3496 37.8657 39.3563 37.8768 39.3652 37.8879C39.4673 38.0234 39.5628 38.2522 39.5251 38.6231C39.5251 38.6231 39.4917 39.1939 38.9476 39.7248C38.7743 39.8936 38.8321 40.1713 39.0275 40.2712C39.0609 40.289 39.0986 40.3001 39.1408 40.3068H39.1475C39.8827 40.4 40.549 39.9514 40.8955 39.3272C41.2709 38.6498 41.2176 37.8701 40.6601 37.3037V37.3059ZM37.9436 36.2398L37.4416 35.7067L37.9325 35.1559L38.0658 35.3025L38.4167 35.6867L37.9503 36.2309L37.9458 36.2353L37.9436 36.2398Z" fill="#4A4A4A"/>
<path d="M39.2963 41.3663C39.2963 41.4374 39.2408 41.4951 39.1697 41.4951L37.3151 41.5151C37.244 41.5151 37.1862 41.4596 37.1862 41.3885C37.1862 41.3463 37.2084 41.3041 37.244 41.2797C37.3062 41.2397 37.395 41.2574 37.4639 41.233C37.5283 41.2108 37.586 41.1753 37.6371 41.1308C37.7437 41.0398 37.8192 40.9154 37.8859 40.7954C37.917 40.7399 37.9436 40.6844 37.9747 40.6311C38.0747 40.4423 38.168 40.2468 38.2457 40.0469C38.3523 40.3668 38.4989 40.6622 38.6766 40.9487C38.7455 41.062 38.8477 41.1553 38.972 41.2019C39.0342 41.2264 39.1009 41.2375 39.1675 41.2419C39.2341 41.2463 39.2919 41.2952 39.2919 41.3663H39.2963Z" fill="#4A4A4A"/>
</g>
<path d="M60.6262 11.5693L60.2352 11.9091L59.5845 12.4733L59.0914 12.902L34.4052 34.2963L33.9188 34.7183L23.8613 43.4342L23.3993 43.8362L10.7409 54.8088L10.1323 55.3374L9.48371 55.8994L9.19939 56.146C6.73389 52.2767 5.02362 47.8765 4.28397 43.1543L4.38168 43.0699L5.1213 42.4302L5.83434 41.8061L28.4058 22.2198L28.5503 22.0954L32.5195 18.6459H32.5239L33.479 17.813H33.4812L37.0551 14.71L37.2239 14.5679L39.6716 12.4422L39.6805 12.4378L46.8927 6.17849L47.4924 5.65874L48.041 5.18341L48.6185 4.68143C53.1008 6.1474 57.1767 8.51517 60.6284 11.5715L60.6262 11.5693Z" fill="url(#paint7_linear_68_40313)"/>
<path d="M72.1296 36.1287L72.1051 36.1509L70.7169 37.3415L70.0595 37.9057L47.7878 57.0477L47.2636 57.4986L44.9736 59.4688L44.5671 59.8197L44.4116 59.9508L43.763 60.5061L41.9394 62.0742L41.322 62.6051L33.6633 69.1886L32.8881 69.8506L31.8664 70.7301L31.22 71.2876C28.1593 70.6702 25.2451 69.644 22.542 68.2669L23.0439 67.8359L23.8413 67.1518L24.4899 66.5921L31.7842 60.3217L32.2773 59.8975L34.5363 57.9584L34.9738 57.5786L36.6908 56.1059L37.3949 55.504L40.3513 52.963L41.0176 52.3899L53.6628 41.5217L54.0915 41.1552H54.0959L59.52 36.4886L60.0753 36.0088L68.8778 28.4457L69.4153 27.9859L70.4326 27.1086L70.6059 26.9597C71.5143 29.8673 72.0408 32.9436 72.1318 36.1265L72.1296 36.1287Z" fill="url(#paint8_linear_68_40313)"/>
</g>
<defs>
<filter id="filter0_f_68_40313" x="0.868591" y="0" width="74.2788" height="75.9891" filterUnits="userSpaceOnUse" color-interpolation-filters="sRGB">
<feFlood flood-opacity="0" result="BackgroundImageFix"/>
<feBlend mode="normal" in="SourceGraphic" in2="BackgroundImageFix" result="shape"/>
<feGaussianBlur stdDeviation="1.5" result="effect1_foregroundBlur_68_40313"/>
</filter>
<linearGradient id="paint0_linear_68_40313" x1="26.8888" y1="70.1105" x2="49.1249" y2="5.53438" gradientUnits="userSpaceOnUse">
<stop stop-color="#A7A7A7"/>
<stop offset="0.51" stop-color="#BABABA"/>
<stop offset="1" stop-color="#D2D2D2"/>
</linearGradient>
<linearGradient id="paint1_linear_68_40313" x1="37.9836" y1="6.30289" x2="37.9836" y2="69.4797" gradientUnits="userSpaceOnUse">
<stop stop-color="#3B3B3B"/>
<stop offset="0.22" stop-color="#4F4F4F"/>
<stop offset="0.58" stop-color="#787878"/>
<stop offset="1" stop-color="#EAEAEA"/>
</linearGradient>
<linearGradient id="paint2_linear_68_40313" x1="27.9905" y1="67.0897" x2="48.1143" y2="8.64843" gradientUnits="userSpaceOnUse">
<stop stop-color="#A7A7A7"/>
<stop offset="0.51" stop-color="#BABABA"/>
<stop offset="1" stop-color="#D2D2D2"/>
</linearGradient>
<radialGradient id="paint3_radial_68_40313" cx="0" cy="0" r="1" gradientUnits="userSpaceOnUse" gradientTransform="translate(31.6853 36.1642) rotate(19.77) scale(18.1403 18.1403)">
<stop stop-color="white"/>
<stop offset="0.6" stop-color="#DDDDDD"/>
<stop offset="1" stop-color="#CCCCCC"/>
</radialGradient>
<radialGradient id="paint4_radial_68_40313" cx="0" cy="0" r="1" gradientUnits="userSpaceOnUse" gradientTransform="translate(45.1627 38.6198) rotate(19.77) scale(18.0048 18.0048)">
<stop stop-color="white"/>
<stop offset="0.6" stop-color="#DDDDDD"/>
<stop offset="1" stop-color="#CCCCCC"/>
</radialGradient>
<radialGradient id="paint5_radial_68_40313" cx="0" cy="0" r="1" gradientUnits="userSpaceOnUse" gradientTransform="translate(37.9391 37.4281) scale(3.05411 3.05411)">
<stop stop-color="white"/>
<stop offset="0.6" stop-color="#DDDDDD"/>
<stop offset="1" stop-color="#CCCCCC"/>
</radialGradient>
<radialGradient id="paint6_radial_68_40313" cx="0" cy="0" r="1" gradientUnits="userSpaceOnUse" gradientTransform="translate(38.2435 40.7799) scale(0.908459 0.908457)">
<stop stop-color="white"/>
<stop offset="0.6" stop-color="#DDDDDD"/>
<stop offset="1" stop-color="#CCCCCC"/>
</radialGradient>
<linearGradient id="paint7_linear_68_40313" x1="-7.0751" y1="63.889" x2="53.9049" y2="7.54454" gradientUnits="userSpaceOnUse">
<stop stop-color="white" stop-opacity="0"/>
<stop offset="1" stop-color="white" stop-opacity="0.3"/>
</linearGradient>
<linearGradient id="paint8_linear_68_40313" x1="13.2708" y1="83.6729" x2="74.1486" y2="27.424" gradientUnits="userSpaceOnUse">
<stop stop-color="white" stop-opacity="0"/>
<stop offset="1" stop-color="white" stop-opacity="0.3"/>
</linearGradient>
</defs>
</svg>
