<svg width="81" height="81" viewBox="0 0 81 81" fill="none" xmlns="http://www.w3.org/2000/svg">
<g filter="url(#filter0_f_68_39380)">
<path d="M68.7777 22.5137C68.8355 22.6115 68.8955 22.7092 68.9488 22.8069C69.0309 22.9447 69.1109 23.0868 69.1909 23.2267L69.2153 23.2667C69.2753 23.3733 69.3308 23.4755 69.3863 23.5799C78.0689 39.4502 72.6892 59.4629 57.01 68.7807C54.4223 70.32 51.7147 71.4706 48.9493 72.2546C46.0862 73.0654 43.1654 73.4807 40.2579 73.5229C34.4606 73.6029 28.7211 72.1858 23.6302 69.4204C19.8853 67.3881 16.4936 64.6338 13.686 61.2043C12.7953 60.1204 11.9624 58.9676 11.1961 57.7504L11.1717 57.7104C11.0873 57.5727 11.0006 57.4372 10.9184 57.2973C10.8585 57.204 10.8007 57.1063 10.743 57.0063C1.22081 40.9828 6.48499 20.2681 22.5152 10.7415C26.9286 8.11834 31.6931 6.61905 36.4863 6.15927C40.8421 5.7328 45.22 6.16815 49.3647 7.4009C54.9287 9.04679 60.0752 12.1253 64.2132 16.4744C65.9191 18.2735 67.4584 20.2881 68.78 22.5115L68.7777 22.5137Z" fill="#A37417"/>
<path d="M69.6418 23.9686C79.1662 39.9944 73.902 60.7046 57.8696 70.2334C54.771 72.0747 51.4948 73.3652 48.1586 74.1249C45.3422 74.7735 42.4835 75.0467 39.6515 74.9645C33.9009 74.7935 28.2614 73.1542 23.3037 70.2023C19.6032 67.9922 16.287 65.0514 13.5883 61.4309C12.8842 60.4891 12.2201 59.4963 11.6048 58.4612C11.5182 58.3146 11.4315 58.1702 11.3516 58.0214C11.296 57.9281 11.2427 57.8393 11.1939 57.7482L11.1694 57.7082C2.24701 41.7891 7.60224 21.5786 23.3814 12.2031C27.3196 9.86419 31.5354 8.41599 35.8044 7.80294C40.2113 7.16547 44.6647 7.41868 48.9094 8.49151C54.5134 9.91084 59.7553 12.7562 64.0355 16.8875C65.9657 18.7422 67.7027 20.8612 69.1909 23.2245L69.2153 23.2645C69.2708 23.3534 69.3241 23.4422 69.3797 23.5333C69.3886 23.5399 69.393 23.5488 69.393 23.5555C69.4796 23.6888 69.5618 23.8265 69.644 23.9642L69.6418 23.9686Z" fill="#6D3C1B"/>
<path d="M69.122 23.0935C69.2086 23.2401 69.2975 23.3889 69.3774 23.5355C69.3863 23.5422 69.3908 23.551 69.3908 23.5577C78.5464 39.5213 73.2267 59.9227 57.3498 69.3583C54.5556 71.0175 51.6214 72.228 48.6295 73.0099C45.7864 73.7584 42.89 74.1138 40.0136 74.1005C34.2341 74.0849 28.5368 72.5812 23.4969 69.7359C19.772 67.6391 16.407 64.8071 13.6416 61.3021C12.8242 60.267 12.0579 59.1764 11.3516 58.0236C11.2605 57.8837 11.1717 57.7349 11.085 57.5883C11.0273 57.4928 10.9695 57.395 10.9162 57.2973C1.62508 41.316 6.92479 20.7946 22.8573 11.3257C27.0841 8.81358 31.6309 7.32984 36.2154 6.80342C40.5911 6.29921 45.0001 6.66127 49.1848 7.82738C54.7621 9.38664 59.9464 12.3719 64.1399 16.6343C65.9413 18.4601 67.5605 20.5192 68.9465 22.807C69.0065 22.9002 69.0643 22.998 69.122 23.0935Z" fill="url(#paint0_linear_68_39380)"/>
<path d="M66.9653 24.455C75.7789 39.2858 70.9034 58.4501 56.0748 67.2637C41.2463 76.0773 22.082 71.1996 13.2684 56.3688C4.45705 41.5425 9.33252 22.376 24.1588 13.5646C38.9852 4.75325 58.1516 9.62873 66.963 24.455H66.9653Z" fill="url(#paint1_linear_68_39380)" stroke="#281401" stroke-width="0.00888468" stroke-miterlimit="10"/>
<path d="M66.4299 24.746C75.0503 39.2503 70.277 57.997 55.775 66.6173C41.2707 75.2377 22.5263 70.4688 13.9059 55.9646C5.28554 41.4603 10.0544 22.7159 24.5586 14.0955C39.0629 5.47516 57.8096 10.2418 66.4299 24.746Z" fill="url(#paint2_linear_68_39380)"/>
<g style="mix-blend-mode:multiply">
<path d="M66.0256 31.2896C65.8946 31.6606 65.6303 31.9204 65.3238 32.1426C64.7063 32.5912 64.0066 32.88 63.3136 33.1732C62.3385 33.5885 61.3545 33.975 60.4261 34.4792L60.415 34.4859C60.3195 34.5436 60.2173 34.5903 60.1196 34.6458C58.3049 35.6387 56.4791 36.6426 54.9109 38.0064C51.5258 40.9539 48.645 45.7317 49.3469 50.3806C49.6312 52.2641 50.4086 53.9056 51.8013 55.2294C52.0367 55.4515 52.3077 55.6359 52.5742 55.8158C53.054 56.1379 53.5738 56.1534 54.0669 55.8891C54.6222 55.5959 55.1575 55.2583 55.6861 54.9229C56.3902 54.4764 57.1076 54.0655 57.9428 53.9167C58.9201 53.739 59.9752 54.0477 60.757 54.6497C59.9974 54.5097 59.4421 54.8762 58.9468 55.336C58.427 55.8113 57.945 56.3311 57.4475 56.8264C57.3009 56.9708 57.1476 57.1107 56.9877 57.2373C56.7411 57.4328 56.4791 57.5927 56.1348 57.6305C56.2569 57.746 56.3747 57.8415 56.4702 57.957C56.6834 58.2213 56.79 58.5367 56.8567 58.8632C56.9211 59.1986 56.981 59.5385 57.0454 59.8739C57.2587 60.9845 57.6141 61.7263 58.7291 62.3105C58.4292 62.2927 58.1316 62.2861 57.8362 62.2594C56.3658 62.1284 55.273 61.3976 54.5089 60.1493C54.209 59.6584 53.9136 59.1675 53.6049 58.6878C53.0607 57.8393 52.3055 57.2418 51.3459 56.9242C50.895 56.7731 50.4597 56.5954 50.0488 56.3933C50.031 56.8509 49.9821 57.3151 49.8999 57.786C49.72 58.7788 49.8866 59.7273 50.3708 60.6135C50.644 61.1155 50.935 61.6108 51.2215 62.1061C51.9545 63.3722 52.0723 64.6827 51.4859 66.0376C51.3681 66.3108 51.2304 66.5751 51.1038 66.8461C51.126 65.5867 50.644 64.9204 49.7689 64.2029C49.5046 63.9853 49.2358 63.772 48.9715 63.5521C48.7183 63.3367 48.4917 63.0924 48.3607 62.7792C48.3074 62.6392 48.2785 62.4904 48.2363 62.3283C48.0386 62.6126 47.7721 62.7658 47.4833 62.8902C47.2945 62.9702 47.0991 63.0368 46.9014 63.0968C46.2261 63.2989 45.542 63.4744 44.8757 63.7032C44.236 63.9208 43.6473 64.234 43.4075 64.967C43.252 63.9919 43.4852 62.9191 44.1071 62.1439C44.638 61.482 45.3399 61.0489 46.0684 60.6446C46.6148 60.3403 47.1701 60.0316 47.6921 59.6828C48.1608 59.3763 48.394 58.9121 48.3407 58.3368C48.3096 58.017 48.2785 57.6905 48.1941 57.3773C47.6988 55.5226 46.6259 54.0544 45.1089 52.9038C41.3618 50.0652 35.7911 50.3117 31.5797 51.8777C29.634 52.604 27.8793 53.7279 26.1423 54.8451C26.0468 54.9051 25.9579 54.9717 25.858 55.0317L25.8469 55.0384C24.9606 55.6137 24.1499 56.2956 23.3192 56.9508C22.7306 57.4195 22.142 57.8948 21.4534 58.2235C21.1113 58.3857 20.756 58.4945 20.3695 58.4323C19.9408 58.3613 19.7253 58.108 19.7675 57.6793C19.7897 57.455 19.8386 57.2174 19.9275 57.0108C20.1474 56.5021 20.3784 55.9979 20.6316 55.5026C20.9026 54.9629 21.0714 54.4076 21.1447 53.7967C21.4845 50.9492 22.6484 48.4904 24.7363 46.4958C26.2134 45.0831 27.9725 44.1391 29.8916 43.4683C30.0005 43.4328 30.1137 43.3484 30.1826 43.2595C31.0155 42.1134 32.0573 41.1938 33.2656 40.4653C34.6005 39.6634 36.0421 39.137 37.5724 38.8549C37.9834 38.7772 38.4009 38.7283 38.8185 38.6684C37.4858 39.6923 36.3952 40.8784 35.8155 42.4888C35.8533 42.5043 35.8666 42.511 35.8777 42.5132C35.9377 42.5176 35.9999 42.5221 36.0643 42.5243C37.3614 42.5887 38.6342 42.8042 39.8603 43.2329C41.0397 43.6438 42.1369 44.1524 43.1409 44.7588C43.0832 43.5882 43.1609 42.3821 43.3653 41.1494C43.5763 39.8678 43.9938 38.6461 44.558 37.4778C44.5847 37.4201 44.6136 37.3645 44.6358 37.309C44.6402 37.2979 44.6402 37.2823 44.6447 37.2424C42.9543 36.9803 41.3906 37.3712 39.8536 38.0531C40.1046 37.7155 40.3489 37.3712 40.6132 37.0491C41.5928 35.8408 42.7433 34.8257 44.0871 34.035C45.3021 33.3198 46.6082 32.8467 48.0142 32.6623C48.1252 32.6445 48.254 32.5846 48.3362 32.5068C49.8422 31.143 51.5125 30.048 53.4583 29.4261C56.2081 28.5443 58.9246 28.6975 61.5877 29.7615C62.1586 29.988 62.7294 30.1057 63.3314 30.1257C63.8867 30.1413 64.442 30.179 64.9928 30.2301C65.2171 30.2523 65.4504 30.3212 65.6569 30.41C66.0545 30.5766 66.1745 30.8898 66.0301 31.2985L66.0256 31.2896Z" fill="#3A2415"/>
<path d="M65.6036 31.9471C65.4726 32.318 65.2082 32.5779 64.9017 32.8C64.2842 33.2487 63.5846 33.5375 62.8916 33.8306C61.9165 34.246 60.9325 34.6325 60.004 35.1367L59.9929 35.1434C59.8974 35.2011 59.7952 35.2478 59.6975 35.3033C57.8828 36.2961 56.057 37.3001 54.4889 38.6639C51.1038 41.6114 48.2229 46.3892 48.9248 51.0381C49.2092 52.9216 49.9866 54.5631 51.3792 55.8869C51.6147 56.109 51.8857 56.2933 52.1522 56.4733C52.632 56.7953 53.1517 56.8109 53.6448 56.5466C54.2001 56.2534 54.7354 55.9158 55.2641 55.5804C55.9682 55.1339 56.6856 54.723 57.5208 54.5742C58.4981 54.3965 59.5531 54.7052 60.335 55.3071C59.5754 55.1672 59.0201 55.5337 58.5247 55.9935C58.005 56.4688 57.523 56.9886 57.0255 57.4839C56.8789 57.6283 56.7256 57.7682 56.5657 57.8948C56.3191 58.0903 56.057 58.2502 55.7127 58.288C55.8349 58.4035 55.9526 58.499 56.0481 58.6145C56.2614 58.8788 56.368 59.1942 56.4346 59.5207C56.499 59.8561 56.559 60.1959 56.6234 60.5313C56.8367 61.6419 57.192 62.3838 58.3071 62.968C58.0072 62.9502 57.7096 62.9435 57.4142 62.9169C55.9437 62.7858 54.8509 62.0551 54.0868 60.8068C53.787 60.3159 53.4916 59.825 53.1828 59.3452C52.6386 58.4967 51.8834 57.8993 50.9239 57.5816C50.473 57.4306 50.0377 57.2529 49.6267 57.0508C49.609 57.5083 49.5601 57.9726 49.4779 58.4434C49.298 59.4363 49.4646 60.3848 49.9488 61.271C50.222 61.773 50.513 62.2683 50.7995 62.7636C51.5325 64.0297 51.6502 65.3402 51.0638 66.6951C50.9461 66.9683 50.8084 67.2326 50.6818 67.5036C50.704 66.2442 50.222 65.5778 49.3469 64.8604C49.0826 64.6427 48.8138 64.4295 48.5495 64.2096C48.2962 63.9942 48.0697 63.7498 47.9386 63.4366C47.8853 63.2967 47.8565 63.1479 47.8143 62.9857C47.6166 63.27 47.35 63.4233 47.0613 63.5477C46.8725 63.6277 46.677 63.6943 46.4793 63.7543C45.8041 63.9564 45.12 64.1319 44.4536 64.3606C43.8139 64.5783 43.2253 64.8915 42.9854 65.6245C42.83 64.6494 43.0632 63.5766 43.6851 62.8014C44.216 62.1395 44.9178 61.7063 45.6464 61.3021C46.1928 60.9978 46.7481 60.6891 47.2701 60.3403C47.7387 60.0338 47.972 59.5696 47.9187 58.9943C47.8876 58.6744 47.8565 58.3479 47.7721 58.0348C47.2767 56.1801 46.2039 54.7119 44.6868 53.5613C40.9397 50.7227 35.369 50.9692 31.1577 52.5351C29.212 53.2615 27.4572 54.3854 25.7203 55.5026C25.6248 55.5626 25.5359 55.6292 25.436 55.6892L25.4249 55.6959C24.5386 56.2711 23.7279 56.953 22.8972 57.6083C22.3086 58.0769 21.7199 58.5523 21.0314 58.881C20.6893 59.0432 20.3339 59.152 19.9474 59.0898C19.5188 59.0187 19.3033 58.7655 19.3455 58.3368C19.3677 58.1125 19.4166 57.8748 19.5054 57.6683C19.7253 57.1596 19.9563 56.6554 20.2095 56.1601C20.4805 55.6203 20.6493 55.065 20.7226 54.4542C21.0625 51.6067 22.2264 49.1479 24.3143 47.1532C25.7913 45.7406 27.5505 44.7966 29.4696 44.1258C29.5784 44.0902 29.6917 44.0058 29.7606 43.917C30.5935 42.7709 31.6352 41.8513 32.8436 41.1228C34.1785 40.3209 35.62 39.7945 37.1504 39.5124C37.5613 39.4347 37.9789 39.3858 38.3965 39.3258C37.0638 40.3498 35.9732 41.5359 35.3935 43.1462C35.4312 43.1618 35.4446 43.1684 35.4557 43.1707C35.5156 43.1751 35.5778 43.1796 35.6422 43.1818C36.9394 43.2462 38.2121 43.4617 39.4382 43.8903C40.6177 44.3013 41.7149 44.8099 42.7189 45.4163C42.6611 44.2457 42.7389 43.0396 42.9432 41.8069C43.1542 40.5253 43.5718 39.3036 44.136 38.1353C44.1627 38.0775 44.1915 38.022 44.2137 37.9665C44.2182 37.9554 44.2182 37.9398 44.2226 37.8998C42.5323 37.6377 40.9686 38.0287 39.4316 38.7106C39.6826 38.3729 39.9269 38.0287 40.1912 37.7066C41.1707 36.4983 42.3213 35.4832 43.6651 34.6925C44.8801 33.9772 46.1861 33.5041 47.5921 33.3198C47.7032 33.302 47.832 33.242 47.9142 33.1643C49.4202 31.8005 51.0905 30.7055 53.0362 30.0835C55.786 29.2017 58.5025 29.355 61.1657 30.4189C61.7366 30.6455 62.3074 30.7632 62.9093 30.7832C63.4646 30.7988 64.0199 30.8365 64.5708 30.8876C64.7951 30.9098 65.0283 30.9787 65.2349 31.0675C65.6325 31.2341 65.7524 31.5473 65.6081 31.956L65.6036 31.9471Z" fill="url(#paint3_radial_68_39380)"/>
<path opacity="0.85" d="M65.6036 31.9471C65.4726 32.318 65.2082 32.5779 64.9017 32.8C64.2842 33.2487 63.5846 33.5375 62.8916 33.8306C61.9165 34.246 60.9325 34.6325 60.004 35.1367L59.9929 35.1434C59.8974 35.2011 59.7952 35.2478 59.6975 35.3033C57.8828 36.2961 56.057 37.3001 54.4889 38.6639C51.1038 41.6114 48.2229 46.3892 48.9248 51.0381C49.2092 52.9216 49.9866 54.5631 51.3792 55.8869C51.6147 56.109 51.8857 56.2933 52.1522 56.4733C52.632 56.7953 53.1517 56.8109 53.6448 56.5466C54.2001 56.2534 54.7354 55.9158 55.2641 55.5804C55.9682 55.1339 56.6856 54.723 57.5208 54.5742C58.4981 54.3965 59.5531 54.7052 60.335 55.3071C59.5754 55.1672 59.0201 55.5337 58.5247 55.9935C58.005 56.4688 57.523 56.9886 57.0255 57.4839C56.8789 57.6283 56.7256 57.7682 56.5657 57.8948C56.3191 58.0903 56.057 58.2502 55.7127 58.288C55.8349 58.4035 55.9526 58.499 56.0481 58.6145C56.2614 58.8788 56.368 59.1942 56.4346 59.5207C56.499 59.8561 56.559 60.1959 56.6234 60.5313C56.8367 61.6419 57.192 62.3838 58.3071 62.968C58.0072 62.9502 57.7096 62.9435 57.4142 62.9169C55.9437 62.7858 54.8509 62.0551 54.0868 60.8068C53.787 60.3159 53.4916 59.825 53.1828 59.3452C52.6386 58.4967 51.8834 57.8993 50.9239 57.5816C50.473 57.4306 50.0377 57.2529 49.6267 57.0508C49.609 57.5083 49.5601 57.9726 49.4779 58.4434C49.298 59.4363 49.4646 60.3848 49.9488 61.271C50.222 61.773 50.513 62.2683 50.7995 62.7636C51.5325 64.0297 51.6502 65.3402 51.0638 66.6951C50.9461 66.9683 50.8084 67.2326 50.6818 67.5036C50.704 66.2442 50.222 65.5778 49.3469 64.8604C49.0826 64.6427 48.8138 64.4295 48.5495 64.2096C48.2962 63.9942 48.0697 63.7498 47.9386 63.4366C47.8853 63.2967 47.8565 63.1479 47.8143 62.9857C47.6166 63.27 47.35 63.4233 47.0613 63.5477C46.8725 63.6277 46.677 63.6943 46.4793 63.7543C45.8041 63.9564 45.12 64.1319 44.4536 64.3606C43.8139 64.5783 43.2253 64.8915 42.9854 65.6245C42.83 64.6494 43.0632 63.5766 43.6851 62.8014C44.216 62.1395 44.9178 61.7063 45.6464 61.3021C46.1928 60.9978 46.7481 60.6891 47.2701 60.3403C47.7387 60.0338 47.972 59.5696 47.9187 58.9943C47.8876 58.6744 47.8565 58.3479 47.7721 58.0348C47.2767 56.1801 46.2039 54.7119 44.6868 53.5613C40.9397 50.7227 35.369 50.9692 31.1577 52.5351C29.212 53.2615 27.4572 54.3854 25.7203 55.5026C25.6248 55.5626 25.5359 55.6292 25.436 55.6892L25.4249 55.6959C24.5386 56.2711 23.7279 56.953 22.8972 57.6083C22.3086 58.0769 21.7199 58.5523 21.0314 58.881C20.6893 59.0432 20.3339 59.152 19.9474 59.0898C19.5188 59.0187 19.3033 58.7655 19.3455 58.3368C19.3677 58.1125 19.4166 57.8748 19.5054 57.6683C19.7253 57.1596 19.9563 56.6554 20.2095 56.1601C20.4805 55.6203 20.6493 55.065 20.7226 54.4542C21.0625 51.6067 22.2264 49.1479 24.3143 47.1532C25.7913 45.7406 27.5505 44.7966 29.4696 44.1258C29.5784 44.0902 29.6917 44.0058 29.7606 43.917C30.5935 42.7709 31.6352 41.8513 32.8436 41.1228C34.1785 40.3209 35.62 39.7945 37.1504 39.5124C37.5613 39.4347 37.9789 39.3858 38.3965 39.3258C37.0638 40.3498 35.9732 41.5359 35.3935 43.1462C35.4312 43.1618 35.4446 43.1684 35.4557 43.1707C35.5156 43.1751 35.5778 43.1796 35.6422 43.1818C36.9394 43.2462 38.2121 43.4617 39.4382 43.8903C40.6177 44.3013 41.7149 44.8099 42.7189 45.4163C42.6611 44.2457 42.7389 43.0396 42.9432 41.8069C43.1542 40.5253 43.5718 39.3036 44.136 38.1353C44.1627 38.0775 44.1915 38.022 44.2137 37.9665C44.2182 37.9554 44.2182 37.9398 44.2226 37.8998C42.5323 37.6377 40.9686 38.0287 39.4316 38.7106C39.6826 38.3729 39.9269 38.0287 40.1912 37.7066C41.1707 36.4983 42.3213 35.4832 43.6651 34.6925C44.8801 33.9772 46.1861 33.5041 47.5921 33.3198C47.7032 33.302 47.832 33.242 47.9142 33.1643C49.4202 31.8005 51.0905 30.7055 53.0362 30.0835C55.786 29.2017 58.5025 29.355 61.1657 30.4189C61.7366 30.6455 62.3074 30.7632 62.9093 30.7832C63.4646 30.7988 64.0199 30.8365 64.5708 30.8876C64.7951 30.9098 65.0283 30.9787 65.2349 31.0675C65.6325 31.2341 65.7524 31.5473 65.6081 31.956L65.6036 31.9471Z" fill="#724401"/>
<g style="mix-blend-mode:hard-light">
<path opacity="0.85" d="M65.6036 31.9471C65.4726 32.318 65.2082 32.5779 64.9017 32.8C64.2842 33.2487 63.5846 33.5375 62.8916 33.8306C61.9165 34.246 60.9325 34.6325 60.004 35.1367L59.9929 35.1434C59.8974 35.2011 59.7952 35.2478 59.6975 35.3033C57.8828 36.2961 56.057 37.3001 54.4889 38.6639C51.1038 41.6114 48.2229 46.3892 48.9248 51.0381C49.2092 52.9216 49.9866 54.5631 51.3792 55.8869C51.6147 56.109 51.8857 56.2933 52.1522 56.4733C52.632 56.7953 53.1517 56.8109 53.6448 56.5466C54.2001 56.2534 54.7354 55.9158 55.2641 55.5804C55.9682 55.1339 56.6856 54.723 57.5208 54.5742C58.4981 54.3965 59.5531 54.7052 60.335 55.3071C59.5754 55.1672 59.0201 55.5337 58.5247 55.9935C58.005 56.4688 57.523 56.9886 57.0255 57.4839C56.8789 57.6283 56.7256 57.7682 56.5657 57.8948C56.3191 58.0903 56.057 58.2502 55.7127 58.288C55.8349 58.4035 55.9526 58.499 56.0481 58.6145C56.2614 58.8788 56.368 59.1942 56.4346 59.5207C56.499 59.8561 56.559 60.1959 56.6234 60.5313C56.8367 61.6419 57.192 62.3838 58.3071 62.968C58.0072 62.9502 57.7096 62.9435 57.4142 62.9169C55.9437 62.7858 54.8509 62.0551 54.0868 60.8068C53.787 60.3159 53.4916 59.825 53.1828 59.3452C52.6386 58.4967 51.8834 57.8993 50.9239 57.5816C50.473 57.4306 50.0377 57.2529 49.6267 57.0508C49.609 57.5083 49.5601 57.9726 49.4779 58.4434C49.298 59.4363 49.4646 60.3848 49.9488 61.271C50.222 61.773 50.513 62.2683 50.7995 62.7636C51.5325 64.0297 51.6502 65.3402 51.0638 66.6951C50.9461 66.9683 50.8084 67.2326 50.6818 67.5036C50.704 66.2442 50.222 65.5778 49.3469 64.8604C49.0826 64.6427 48.8138 64.4295 48.5495 64.2096C48.2962 63.9942 48.0697 63.7498 47.9386 63.4366C47.8853 63.2967 47.8565 63.1479 47.8143 62.9857C47.6166 63.27 47.35 63.4233 47.0613 63.5477C46.8725 63.6277 46.677 63.6943 46.4793 63.7543C45.8041 63.9564 45.12 64.1319 44.4536 64.3606C43.8139 64.5783 43.2253 64.8915 42.9854 65.6245C42.83 64.6494 43.0632 63.5766 43.6851 62.8014C44.216 62.1395 44.9178 61.7063 45.6464 61.3021C46.1928 60.9978 46.7481 60.6891 47.2701 60.3403C47.7387 60.0338 47.972 59.5696 47.9187 58.9943C47.8876 58.6744 47.8565 58.3479 47.7721 58.0348C47.2767 56.1801 46.2039 54.7119 44.6868 53.5613C40.9397 50.7227 35.369 50.9692 31.1577 52.5351C29.212 53.2615 27.4572 54.3854 25.7203 55.5026C25.6248 55.5626 25.5359 55.6292 25.436 55.6892L25.4249 55.6959C24.5386 56.2711 23.7279 56.953 22.8972 57.6083C22.3086 58.0769 21.7199 58.5523 21.0314 58.881C20.6893 59.0432 20.3339 59.152 19.9474 59.0898C19.5188 59.0187 19.3033 58.7655 19.3455 58.3368C19.3677 58.1125 19.4166 57.8748 19.5054 57.6683C19.7253 57.1596 19.9563 56.6554 20.2095 56.1601C20.4805 55.6203 20.6493 55.065 20.7226 54.4542C21.0625 51.6067 22.2264 49.1479 24.3143 47.1532C25.7913 45.7406 27.5505 44.7966 29.4696 44.1258C29.5784 44.0902 29.6917 44.0058 29.7606 43.917C30.5935 42.7709 31.6352 41.8513 32.8436 41.1228C34.1785 40.3209 35.62 39.7945 37.1504 39.5124C37.5613 39.4347 37.9789 39.3858 38.3965 39.3258C37.0638 40.3498 35.9732 41.5359 35.3935 43.1462C35.4312 43.1618 35.4446 43.1684 35.4557 43.1707C35.5156 43.1751 35.5778 43.1796 35.6422 43.1818C36.9394 43.2462 38.2121 43.4617 39.4382 43.8903C40.6177 44.3013 41.7149 44.8099 42.7189 45.4163C42.6611 44.2457 42.7389 43.0396 42.9432 41.8069C43.1542 40.5253 43.5718 39.3036 44.136 38.1353C44.1627 38.0775 44.1915 38.022 44.2137 37.9665C44.2182 37.9554 44.2182 37.9398 44.2226 37.8998C42.5323 37.6377 40.9686 38.0287 39.4316 38.7106C39.6826 38.3729 39.9269 38.0287 40.1912 37.7066C41.1707 36.4983 42.3213 35.4832 43.6651 34.6925C44.8801 33.9772 46.1861 33.5041 47.5921 33.3198C47.7032 33.302 47.832 33.242 47.9142 33.1643C49.4202 31.8005 51.0905 30.7055 53.0362 30.0835C55.786 29.2017 58.5025 29.355 61.1657 30.4189C61.7366 30.6455 62.3074 30.7632 62.9093 30.7832C63.4646 30.7988 64.0199 30.8365 64.5708 30.8876C64.7951 30.9098 65.0283 30.9787 65.2349 31.0675C65.6325 31.2341 65.7524 31.5473 65.6081 31.956L65.6036 31.9471Z" fill="#663703"/>
</g>
<path d="M35.9621 18.5112L30.6824 17.0586L25.7691 15.7059V15.7148C25.6781 16.0746 23.3303 25.6523 23.3281 25.659C22.8749 27.5136 23.4413 29.6882 24.9562 30.8743C25.165 31.0431 25.3938 31.1875 25.6403 31.3141C25.8646 31.4296 26.0979 31.5206 26.3378 31.5917C26.3466 31.5939 26.3577 31.5962 26.3666 31.5984C27.8859 32.067 29.6628 31.7605 30.9667 30.8809C32.2816 29.9991 33.4166 28.2044 33.0013 26.5652C32.7925 25.75 32.195 25.1081 31.5131 24.6461C31.5131 24.6461 31.0489 24.2507 30.3181 24.1441C29.5829 24.0286 28.5767 24.2063 27.5017 25.3658L26.9997 25.9411H26.9974L25.6536 27.4848C25.4249 27.7269 25.065 27.7002 24.8562 27.5114C24.7385 27.4137 24.6674 27.2715 24.6763 27.0939C24.6852 26.8406 25.1117 25.9544 25.3182 25.5213C25.3182 25.5213 25.4271 24.8793 25.4693 24.2285C25.5315 23.2024 25.9379 22.2139 26.6976 21.5187C27.2729 20.9967 28.1125 20.5214 29.3319 20.3148C30.0271 20.1949 30.8423 20.1638 31.8085 20.2549C31.9862 20.2704 32.1661 20.2482 32.3238 20.1705C32.557 20.0572 32.9657 19.9106 33.4566 19.9661C33.9919 20.0216 34.6227 20.3215 35.2313 21.1678C35.2313 21.1678 34.1318 20.7902 33.1034 21.4676C33.0857 21.4787 33.0679 21.4921 33.0501 21.5032C33.0501 21.5032 33.1057 21.4987 33.2012 21.5032C33.5566 21.5365 34.4695 21.7541 35.0892 23.1402C35.0892 23.1402 35.7888 24.5217 35.238 26.5075C35.1203 26.9428 35.3224 27.3471 35.6511 27.5492C35.8888 27.6936 36.1886 27.7335 36.4818 27.6092L36.4996 27.6025C38.341 26.8229 39.2983 24.8616 39.265 22.9291C39.2228 20.8324 38.0389 19.0799 35.9643 18.5112H35.9621ZM26.6509 17.1852L28.5034 17.7783L28.1502 19.7084L27.6371 19.5574L26.2511 19.1443L26.6465 17.2207L26.6532 17.1874L26.6509 17.1852Z" fill="#3A2415"/>
<path d="M38.2921 29.877C38.3898 30.0413 38.3343 30.2523 38.1722 30.3501L33.8564 32.9155C33.6921 33.0133 33.481 32.9577 33.3833 32.7956C33.3233 32.6956 33.3189 32.5668 33.3722 32.4624C33.4611 32.2847 33.6965 32.2047 33.8275 32.0537C33.9475 31.916 34.0363 31.7538 34.0963 31.5806C34.2207 31.2208 34.2318 30.8298 34.2251 30.4545C34.2207 30.2857 34.214 30.1169 34.2074 29.948C34.1874 29.3683 34.1407 28.7841 34.0474 28.2089C34.7316 28.8152 35.4779 29.3039 36.2819 29.7348C36.5996 29.9058 36.9616 29.9836 37.3192 29.9258C37.4991 29.897 37.6702 29.8348 37.8323 29.7526C37.9945 29.6704 38.1966 29.7082 38.2943 29.8747L38.2921 29.877Z" fill="#3A2415"/>
<path d="M35.4446 18.378L30.6779 17.0653L25.7714 15.7148L25.2561 15.5726C25.2561 15.5726 22.8194 25.519 22.815 25.5257C22.3197 27.5514 23.0415 29.9614 24.8873 31.052C24.9651 31.0986 25.045 31.143 25.1294 31.1852C25.5115 31.3763 25.9202 31.5118 26.3444 31.5917C26.3533 31.5939 26.3644 31.5962 26.3733 31.5984C27.7682 31.856 29.2986 31.5273 30.4558 30.7499C31.7708 29.8681 32.9058 28.0734 32.4904 26.4342C32.2816 25.619 31.6841 24.9771 31.0022 24.5151C31.0022 24.5151 30.749 24.3018 30.3248 24.1464C29.6829 23.9065 28.65 23.8043 27.4994 24.7527H27.4972C27.3306 24.8904 27.1618 25.0504 26.9908 25.2347L25.145 27.3493C25.0628 27.4359 24.9629 27.487 24.8629 27.5092C24.5253 27.5892 24.1477 27.3515 24.1632 26.9606C24.1744 26.7118 24.6008 25.8211 24.8052 25.388C24.8052 25.388 24.914 24.7461 24.9562 24.0953C25.0184 23.0691 25.4271 22.0807 26.1845 21.3854C26.8509 20.7791 27.8704 20.2415 29.423 20.106C29.9738 20.0505 30.5957 20.055 31.2932 20.1216C31.4731 20.1416 31.6508 20.1149 31.8085 20.0372C32.1217 19.8861 32.7458 19.6729 33.4588 19.9661C33.8609 20.1283 34.2984 20.4525 34.7138 21.0345C34.7138 21.0345 33.5743 20.6413 32.5348 21.3699C32.5348 21.3699 32.7703 21.3477 33.1035 21.4676C33.1346 21.4787 33.1679 21.4921 33.2012 21.5054C33.621 21.6831 34.1607 22.0896 34.5716 23.0091C34.5716 23.0091 35.2691 24.3929 34.716 26.3786C34.5428 27.0094 35.0514 27.5781 35.6489 27.5514C35.7511 27.5447 35.8577 27.5225 35.9621 27.4781L35.9799 27.4714C37.8257 26.6896 38.7785 24.7305 38.7452 22.7981C38.703 20.7013 37.5191 18.9488 35.4446 18.3802V18.378ZM27.6327 19.5752L25.7336 19.011L26.1334 17.0542L26.6465 17.2185L27.9903 17.645L27.6372 19.5574L27.6327 19.5774V19.5752Z" fill="url(#paint4_radial_68_39380)"/>
<path d="M37.7746 29.746C37.8723 29.9103 37.8168 30.1213 37.6546 30.219L33.3389 32.7845C33.1745 32.8822 32.9635 32.8267 32.8658 32.6646C32.8058 32.5646 32.8014 32.4358 32.8547 32.3314C32.9435 32.1537 33.179 32.0737 33.31 31.9227C33.4299 31.785 33.5188 31.6228 33.5788 31.4496C33.7031 31.0898 33.7143 30.6988 33.7076 30.3235C33.7031 30.1546 33.6965 29.9858 33.6898 29.817C33.6698 29.2373 33.6232 28.6531 33.5299 28.0779C34.214 28.6842 34.9603 29.1729 35.7644 29.6038C36.082 29.7748 36.4441 29.8526 36.8017 29.7948C36.9816 29.7659 37.1526 29.7037 37.3148 29.6216C37.4769 29.5394 37.679 29.5771 37.7768 29.7437L37.7746 29.746Z" fill="url(#paint5_radial_68_39380)"/>
<g opacity="0.85">
<path d="M35.4446 18.378L30.6779 17.0653L25.7714 15.7148L25.2561 15.5726C25.2561 15.5726 22.8194 25.519 22.815 25.5257C22.3197 27.5514 23.0415 29.9614 24.8873 31.052C24.9651 31.0986 25.045 31.143 25.1294 31.1852C25.5115 31.3763 25.9202 31.5118 26.3444 31.5917C26.3533 31.5939 26.3644 31.5962 26.3733 31.5984C27.7682 31.856 29.2986 31.5273 30.4558 30.7499C31.7708 29.8681 32.9058 28.0734 32.4904 26.4342C32.2816 25.619 31.6841 24.9771 31.0022 24.5151C31.0022 24.5151 30.749 24.3018 30.3248 24.1464C29.6829 23.9065 28.65 23.8043 27.4994 24.7527H27.4972C27.3306 24.8904 27.1618 25.0504 26.9908 25.2347L25.145 27.3493C25.0628 27.4359 24.9629 27.487 24.8629 27.5092C24.5253 27.5892 24.1477 27.3515 24.1632 26.9606C24.1744 26.7118 24.6008 25.8211 24.8052 25.388C24.8052 25.388 24.914 24.7461 24.9562 24.0953C25.0184 23.0691 25.4271 22.0807 26.1845 21.3854C26.8509 20.7791 27.8704 20.2415 29.423 20.106C29.9738 20.0505 30.5957 20.055 31.2932 20.1216C31.4731 20.1416 31.6508 20.1149 31.8085 20.0372C32.1217 19.8861 32.7458 19.6729 33.4588 19.9661C33.8609 20.1283 34.2984 20.4525 34.7138 21.0345C34.7138 21.0345 33.5743 20.6413 32.5348 21.3699C32.5348 21.3699 32.7703 21.3477 33.1035 21.4676C33.1346 21.4787 33.1679 21.4921 33.2012 21.5054C33.621 21.6831 34.1607 22.0896 34.5716 23.0091C34.5716 23.0091 35.2691 24.3929 34.716 26.3786C34.5428 27.0094 35.0514 27.5781 35.6489 27.5514C35.7511 27.5447 35.8577 27.5225 35.9621 27.4781L35.9799 27.4714C37.8257 26.6896 38.7785 24.7305 38.7452 22.7981C38.703 20.7013 37.5191 18.9488 35.4446 18.3802V18.378ZM27.6327 19.5752L25.7336 19.011L26.1334 17.0542L26.6465 17.2185L27.9903 17.645L27.6372 19.5574L27.6327 19.5774V19.5752Z" fill="#724401"/>
<path d="M37.7746 29.746C37.8723 29.9103 37.8168 30.1213 37.6546 30.219L33.3389 32.7845C33.1745 32.8822 32.9635 32.8267 32.8658 32.6646C32.8058 32.5646 32.8014 32.4358 32.8547 32.3314C32.9435 32.1537 33.179 32.0737 33.31 31.9227C33.4299 31.785 33.5188 31.6228 33.5788 31.4496C33.7031 31.0898 33.7143 30.6988 33.7076 30.3235C33.7031 30.1546 33.6965 29.9858 33.6898 29.817C33.6698 29.2373 33.6232 28.6531 33.5299 28.0779C34.214 28.6842 34.9603 29.1729 35.7644 29.6038C36.082 29.7748 36.4441 29.8526 36.8017 29.7948C36.9816 29.7659 37.1526 29.7037 37.3148 29.6216C37.4769 29.5394 37.679 29.5771 37.7768 29.7437L37.7746 29.746Z" fill="#724401"/>
</g>
<g opacity="0.85">
<path d="M35.4446 18.378L30.6779 17.0653L25.7714 15.7148L25.2561 15.5726C25.2561 15.5726 22.8194 25.519 22.815 25.5257C22.3197 27.5514 23.0415 29.9614 24.8873 31.052C24.9651 31.0986 25.045 31.143 25.1294 31.1852C25.5115 31.3763 25.9202 31.5118 26.3444 31.5917C26.3533 31.5939 26.3644 31.5962 26.3733 31.5984C27.7682 31.856 29.2986 31.5273 30.4558 30.7499C31.7708 29.8681 32.9058 28.0734 32.4904 26.4342C32.2816 25.619 31.6841 24.9771 31.0022 24.5151C31.0022 24.5151 30.749 24.3018 30.3248 24.1464C29.6829 23.9065 28.65 23.8043 27.4994 24.7527H27.4972C27.3306 24.8904 27.1618 25.0504 26.9908 25.2347L25.145 27.3493C25.0628 27.4359 24.9629 27.487 24.8629 27.5092C24.5253 27.5892 24.1477 27.3515 24.1632 26.9606C24.1744 26.7118 24.6008 25.8211 24.8052 25.388C24.8052 25.388 24.914 24.7461 24.9562 24.0953C25.0184 23.0691 25.4271 22.0807 26.1845 21.3854C26.8509 20.7791 27.8704 20.2415 29.423 20.106C29.9738 20.0505 30.5957 20.055 31.2932 20.1216C31.4731 20.1416 31.6508 20.1149 31.8085 20.0372C32.1217 19.8861 32.7458 19.6729 33.4588 19.9661C33.8609 20.1283 34.2984 20.4525 34.7138 21.0345C34.7138 21.0345 33.5743 20.6413 32.5348 21.3699C32.5348 21.3699 32.7703 21.3477 33.1035 21.4676C33.1346 21.4787 33.1679 21.4921 33.2012 21.5054C33.621 21.6831 34.1607 22.0896 34.5716 23.0091C34.5716 23.0091 35.2691 24.3929 34.716 26.3786C34.5428 27.0094 35.0514 27.5781 35.6489 27.5514C35.7511 27.5447 35.8577 27.5225 35.9621 27.4781L35.9799 27.4714C37.8257 26.6896 38.7785 24.7305 38.7452 22.7981C38.703 20.7013 37.5191 18.9488 35.4446 18.3802V18.378ZM27.6327 19.5752L25.7336 19.011L26.1334 17.0542L26.6465 17.2185L27.9903 17.645L27.6372 19.5574L27.6327 19.5774V19.5752Z" fill="#663703"/>
<path d="M37.7746 29.746C37.8723 29.9103 37.8168 30.1213 37.6546 30.219L33.3389 32.7845C33.1745 32.8822 32.9635 32.8267 32.8658 32.6646C32.8058 32.5646 32.8014 32.4358 32.8547 32.3314C32.9435 32.1537 33.179 32.0737 33.31 31.9227C33.4299 31.785 33.5188 31.6228 33.5788 31.4496C33.7031 31.0898 33.7143 30.6988 33.7076 30.3235C33.7031 30.1546 33.6965 29.9858 33.6898 29.817C33.6698 29.2373 33.6232 28.6531 33.5299 28.0779C34.214 28.6842 34.9603 29.1729 35.7644 29.6038C36.082 29.7748 36.4441 29.8526 36.8017 29.7948C36.9816 29.7659 37.1526 29.7037 37.3148 29.6216C37.4769 29.5394 37.679 29.5771 37.7768 29.7437L37.7746 29.746Z" fill="#663703"/>
</g>
</g>
<path d="M49.3625 7.4009L49.1848 7.82737L48.9071 8.4915L48.1808 10.244L47.9454 10.8148L36.0976 39.3636L35.8666 39.9277L31.04 51.5556L30.8179 52.0909L24.743 66.7328L24.4498 67.4392L23.6258 69.4227L23.4947 69.7403L23.3037 70.2067C19.6032 67.9967 16.287 65.0558 13.5883 61.4353L13.6416 61.3065L13.6838 61.2066L14.75 58.6344L15.0898 57.8059L25.9113 31.6805L25.9802 31.5139L27.8837 26.9161H27.886L28.3413 25.8077H28.3435L30.0561 21.6697L30.136 21.4765L31.3088 18.6423L31.3155 18.6334L34.7738 10.284L35.0604 9.58876L35.7978 7.80516L36.2109 6.80563L36.4775 6.16149C40.8332 5.73503 45.2111 6.17038 49.3558 7.40313L49.3625 7.4009Z" fill="url(#paint6_linear_68_39380)"/>
<path d="M68.9465 22.807C69.0065 22.9003 69.0643 22.998 69.122 23.0935C69.2086 23.2401 69.2975 23.3889 69.3775 23.5355C69.3863 23.5422 69.3908 23.5511 69.3908 23.5577L69.3841 23.5777L68.1225 26.5785L67.8049 27.3337L57.05 52.9549L56.7945 53.5591L55.6884 56.1956L55.4929 56.6643L55.4174 56.842L55.102 57.5883L54.2224 59.6873L53.9248 60.3959L50.2265 69.2072L49.8511 70.0957L48.9449 72.2569L48.6273 73.0121L48.1564 74.1271C45.3399 74.7757 42.4813 75.0489 39.6493 74.9667L40.0113 74.1027L40.2535 73.5252L41.0464 71.6394L41.3596 70.8909L44.8824 62.4993L45.12 61.9329L46.2129 59.3364L46.4239 58.8277L47.2546 56.8575L47.5944 56.049L49.0204 52.6484L49.3425 51.8821L55.4485 37.3357L55.6573 36.8448H55.6595L58.2783 30.6011L58.547 29.9614L62.7983 19.835L63.0582 19.2198L64.0333 16.8942L64.1399 16.6388L64.2088 16.4811C65.9146 18.2802 67.4539 20.2948 68.7755 22.5182C68.8333 22.616 68.8932 22.7137 68.9465 22.8114V22.807Z" fill="url(#paint7_linear_68_39380)"/>
</g>
<defs>
<filter id="filter0_f_68_39380" x="0" y="0" width="80.3862" height="80.981" filterUnits="userSpaceOnUse" color-interpolation-filters="sRGB">
<feFlood flood-opacity="0" result="BackgroundImageFix"/>
<feBlend mode="normal" in="SourceGraphic" in2="BackgroundImageFix" result="shape"/>
<feGaussianBlur stdDeviation="3" result="effect1_foregroundBlur_68_39380"/>
</filter>
<linearGradient id="paint0_linear_68_39380" x1="46.957" y1="73.4153" x2="33.2399" y2="7.29434" gradientUnits="userSpaceOnUse">
<stop stop-color="#D3A150"/>
<stop offset="0.42" stop-color="#DDB264"/>
<stop offset="1" stop-color="#EFD186"/>
</linearGradient>
<linearGradient id="paint1_linear_68_39380" x1="24.1569" y1="13.5753" x2="56.0672" y2="67.2757" gradientUnits="userSpaceOnUse">
<stop stop-color="#513A01"/>
<stop offset="0.15" stop-color="#65440B"/>
<stop offset="0.46" stop-color="#986024"/>
<stop offset="0.58" stop-color="#AD6B2F"/>
<stop offset="1" stop-color="#FFE6CA"/>
</linearGradient>
<linearGradient id="paint2_linear_68_39380" x1="46.3704" y1="70.2888" x2="33.9571" y2="10.4492" gradientUnits="userSpaceOnUse">
<stop stop-color="#D3A150"/>
<stop offset="0.42" stop-color="#DDB264"/>
<stop offset="1" stop-color="#EFD186"/>
</linearGradient>
<radialGradient id="paint3_radial_68_39380" cx="0" cy="0" r="1" gradientUnits="userSpaceOnUse" gradientTransform="translate(46.3608 51.5805) rotate(-30.72) scale(22.0651 22.0651)">
<stop stop-color="white"/>
<stop offset="0.6" stop-color="#DDDDDD"/>
<stop offset="1" stop-color="#CCCCCC"/>
</radialGradient>
<radialGradient id="paint4_radial_68_39380" cx="0" cy="0" r="1" gradientUnits="userSpaceOnUse" gradientTransform="translate(29.2055 22.3933) rotate(-30.72) scale(8.27608)">
<stop stop-color="white"/>
<stop offset="0.6" stop-color="#DDDDDD"/>
<stop offset="1" stop-color="#CCCCCC"/>
</radialGradient>
<radialGradient id="paint5_radial_68_39380" cx="0" cy="0" r="1" gradientUnits="userSpaceOnUse" gradientTransform="translate(34.4826 29.8173) rotate(-30.72) scale(2.45439)">
<stop stop-color="white"/>
<stop offset="0.6" stop-color="#DDDDDD"/>
<stop offset="1" stop-color="#CCCCCC"/>
</radialGradient>
<linearGradient id="paint6_linear_68_39380" x1="16.1695" y1="85.9381" x2="39.6705" y2="6.8242" gradientUnits="userSpaceOnUse">
<stop stop-color="white" stop-opacity="0"/>
<stop offset="1" stop-color="white" stop-opacity="0.3"/>
</linearGradient>
<linearGradient id="paint7_linear_68_39380" x1="41.3986" y1="93.4325" x2="64.8985" y2="14.3167" gradientUnits="userSpaceOnUse">
<stop stop-color="white" stop-opacity="0"/>
<stop offset="1" stop-color="white" stop-opacity="0.3"/>
</linearGradient>
</defs>
</svg>
