<svg width="77" height="78" viewBox="0 0 77 78" fill="none" xmlns="http://www.w3.org/2000/svg">
<g filter="url(#filter0_f_68_40507)">
<path d="M72.3373 38.1286C72.3373 38.2107 72.3373 38.2907 72.3351 38.3728V38.5704C72.0977 57.2157 56.9247 72.2593 38.2423 72.2593C36.1483 72.2593 34.1008 72.0684 32.111 71.7087C29.0054 71.1469 26.0485 70.1588 23.3 68.8154C17.7854 66.1198 13.107 61.9786 9.75294 56.8848C7.24406 53.0745 5.4761 48.7313 4.65977 44.0594C4.34922 42.2742 4.17174 40.4401 4.14956 38.5704V38.3728C4.14734 38.2907 4.14734 38.2107 4.14734 38.1286C4.14734 19.2812 19.4091 4 38.2401 4C41.9402 4 45.5005 4.59065 48.8391 5.68089C53.3155 7.1464 57.3861 9.51342 60.8333 12.5688C65.4318 16.6433 68.9234 21.9414 70.7978 27.9544C71.7051 30.861 72.2309 33.9363 72.3218 37.1182C72.3329 37.4535 72.3373 37.791 72.3373 38.1286Z" fill="#787878"/>
<path d="M72.3351 39.8383C72.3351 58.6879 57.0711 73.9669 38.2401 73.9669C19.4091 73.9669 4.14734 58.6879 4.14734 39.8383C4.14734 20.9888 19.4113 5.70975 38.2401 5.70975C57.0689 5.70975 72.3351 20.991 72.3351 39.8383Z" fill="#474747"/>
<path d="M72.3373 38.8125C72.3373 57.6598 57.0733 72.9388 38.2423 72.9388C35.922 72.9388 33.6549 72.7057 31.4655 72.2638C28.4087 71.6465 25.4983 70.6206 22.7987 69.2439C17.3483 66.4661 12.7387 62.265 9.47121 57.1291C7.00892 53.261 5.30087 48.8623 4.56218 44.1416C4.28712 42.4052 4.14734 40.6244 4.14734 38.8125C4.14734 38.7303 4.14734 38.6504 4.14956 38.5682V38.3706C4.38692 19.7231 19.5577 4.68167 38.2401 4.68167C41.7295 4.68167 45.0946 5.2057 48.2623 6.18049C52.7987 7.57494 56.9291 9.89088 60.4407 12.9085C65.0924 16.9076 68.6572 22.1412 70.6226 28.1009C71.5676 30.9653 72.1443 33.9963 72.2974 37.1382C72.3151 37.5468 72.3306 37.9576 72.3351 38.3706V38.5682C72.3373 38.6504 72.3373 38.7303 72.3373 38.8125Z" fill="url(#paint0_linear_68_40507)"/>
<path d="M69.7641 38.8813C69.7641 56.3186 55.6403 70.4586 38.218 70.4586C20.7956 70.4586 6.67178 56.3209 6.67178 38.8813C6.67178 21.4418 20.7956 7.30185 38.218 7.30185C55.6403 7.30185 69.7641 21.4396 69.7641 38.8813Z" fill="url(#paint1_linear_68_40507)"/>
<path d="M69.143 38.8569C69.143 55.9189 55.3275 69.7435 38.2867 69.7435C21.2458 69.7435 7.43039 55.9167 7.43039 38.8569C7.43039 21.797 21.2458 7.97241 38.2867 7.97241C55.3275 7.97241 69.143 21.7993 69.143 38.8569Z" fill="url(#paint2_linear_68_40507)"/>
<path d="M39.4447 10.5414C39.4447 11.041 39.0409 11.4452 38.5418 11.4452C38.0427 11.4452 37.6389 11.041 37.6389 10.5414C37.6389 10.0418 38.0427 9.6377 38.5418 9.6377C39.0409 9.6377 39.4447 10.0418 39.4447 10.5414Z" fill="#474747"/>
<path d="M39.5356 10.3105C39.5356 10.8101 39.1319 11.2142 38.6327 11.2142C38.1336 11.2142 37.7299 10.8101 37.7299 10.3105C37.7299 9.81089 38.1336 9.40677 38.6327 9.40677C39.1319 9.40677 39.5356 9.81089 39.5356 10.3105Z" fill="#E6E7E8"/>
<path d="M39.4912 10.426C39.4912 10.9256 39.0875 11.3297 38.5884 11.3297C38.0893 11.3297 37.6855 10.9256 37.6855 10.426C37.6855 9.92637 38.0893 9.52225 38.5884 9.52225C39.0875 9.52225 39.4912 9.92637 39.4912 10.426Z" fill="#898989"/>
<path d="M34.9837 10.7036C35.0614 11.1965 34.7264 11.6606 34.234 11.7383C33.7415 11.8161 33.2779 11.4808 33.2002 10.9878C33.1226 10.4949 33.4576 10.0308 33.95 9.95309C34.4425 9.87537 34.9061 10.2107 34.9837 10.7036Z" fill="#474747"/>
<path d="M35.0392 10.4616C35.1168 10.9545 34.7819 11.4186 34.2894 11.4963C33.797 11.574 33.3333 11.2387 33.2557 10.7458C33.178 10.2528 33.513 9.78877 34.0055 9.71105C34.498 9.63333 34.9616 9.96863 35.0392 10.4616Z" fill="#E6E7E8"/>
<path d="M35.0126 10.5815C35.0902 11.0744 34.7553 11.5385 34.2628 11.6162C33.7703 11.6939 33.3067 11.3586 33.2291 10.8657C33.1515 10.3727 33.4864 9.90867 33.9789 9.83095C34.4713 9.75324 34.9349 10.0885 35.0126 10.5815Z" fill="#898989"/>
<path d="M30.6048 11.5629C30.7601 12.038 30.4983 12.5487 30.0258 12.702C29.5511 12.8574 29.0409 12.5954 28.8878 12.1224C28.7326 11.6472 28.9943 11.1365 29.4668 10.9833C29.9415 10.8279 30.4495 11.0899 30.6048 11.5629Z" fill="#474747"/>
<path d="M30.6226 11.3119C30.7756 11.7871 30.5161 12.2978 30.0436 12.451C29.5688 12.6042 29.0587 12.3444 28.9056 11.8715C28.7503 11.3963 29.0121 10.8856 29.4845 10.7324C29.9593 10.5792 30.4695 10.839 30.6226 11.3119Z" fill="#E6E7E8"/>
<path d="M30.6137 11.4385C30.769 11.9137 30.5072 12.4244 30.0347 12.5776C29.56 12.7308 29.052 12.471 28.8967 11.9981C28.7437 11.5229 29.001 11.0144 29.4757 10.859C29.9504 10.7058 30.4606 10.9656 30.6137 11.4385Z" fill="#898989"/>
<path d="M26.4144 13.095C26.6407 13.5391 26.4632 14.0854 26.0196 14.3118C25.5759 14.5383 25.0302 14.3607 24.8062 13.9166C24.5799 13.4725 24.7573 12.9285 25.201 12.6998C25.6446 12.4733 26.1903 12.6509 26.4166 13.095H26.4144Z" fill="#474747"/>
<path d="M26.3923 12.8463C26.6185 13.2904 26.4411 13.8366 25.9974 14.0631C25.5538 14.2896 25.0081 14.112 24.7818 13.6679C24.5555 13.2238 24.733 12.6798 25.1767 12.4511C25.6203 12.2246 26.166 12.4022 26.3923 12.8463Z" fill="#E6E7E8"/>
<path d="M26.4034 12.9707C26.6296 13.4148 26.4522 13.961 26.0085 14.1875C25.5648 14.414 25.0192 14.2363 24.7929 13.7922C24.5666 13.3482 24.7441 12.8041 25.1878 12.5754C25.6314 12.3489 26.1771 12.5266 26.4034 12.9707Z" fill="#898989"/>
<path d="M22.5125 15.2666C22.8053 15.6707 22.7165 16.237 22.3128 16.5301C21.9091 16.8232 21.3434 16.7343 21.0506 16.3302C20.7578 15.9261 20.8466 15.3621 21.2503 15.0668C21.654 14.7737 22.2174 14.8625 22.5125 15.2666Z" fill="#474747"/>
<path d="M22.4526 15.0246C22.7454 15.4287 22.6567 15.9927 22.2529 16.288C21.8492 16.5811 21.2835 16.4923 20.9907 16.0882C20.6979 15.6841 20.7866 15.1178 21.1904 14.8247C21.5941 14.5316 22.1597 14.6205 22.4526 15.0246Z" fill="#E6E7E8"/>
<path d="M22.4836 15.1445C22.7764 15.5486 22.6877 16.1148 22.284 16.4079C21.8802 16.701 21.3146 16.6122 21.0218 16.2081C20.729 15.804 20.8177 15.24 21.2214 14.9446C21.6251 14.6515 22.1886 14.7404 22.4836 15.1445Z" fill="#898989"/>
<path d="M19.001 18.02C19.3537 18.3731 19.3537 18.9459 19.001 19.299C18.6483 19.6521 18.076 19.6521 17.7233 19.299C17.3706 18.9459 17.3706 18.3731 17.7233 18.02C18.076 17.667 18.6483 17.667 19.001 18.02Z" fill="#474747"/>
<path d="M18.9034 17.7913C19.2561 18.1443 19.2561 18.7172 18.9034 19.0703C18.5507 19.4233 17.9784 19.4233 17.6256 19.0703C17.2729 18.7172 17.2729 18.1443 17.6256 17.7913C17.9784 17.4382 18.5507 17.4382 18.9034 17.7913Z" fill="#E6E7E8"/>
<path d="M18.9522 17.9068C19.3049 18.2598 19.3049 18.8327 18.9522 19.1857C18.5995 19.5388 18.0272 19.5388 17.6745 19.1857C17.3218 18.8327 17.3218 18.2598 17.6745 17.9068C18.0272 17.5537 18.5995 17.5537 18.9522 17.9068Z" fill="#898989"/>
<path d="M15.9619 21.2907C16.3656 21.5838 16.4543 22.1501 16.1615 22.5542C15.8687 22.9583 15.303 23.0471 14.8993 22.754C14.4956 22.4609 14.4069 21.8947 14.6997 21.4906C14.9925 21.0865 15.5581 20.9976 15.9619 21.2907Z" fill="#474747"/>
<path d="M15.8288 21.0798C16.2325 21.3729 16.3212 21.9391 16.0284 22.3433C15.7356 22.7474 15.17 22.8362 14.7662 22.5431C14.3625 22.25 14.2737 21.6838 14.5666 21.2796C14.8594 20.8755 15.425 20.7867 15.8288 21.0798Z" fill="#E6E7E8"/>
<path d="M15.8953 21.1864C16.299 21.4795 16.3878 22.0457 16.095 22.4498C15.8022 22.8539 15.2365 22.9428 14.8327 22.6497C14.429 22.3566 14.3403 21.7903 14.6331 21.3862C14.9259 20.9821 15.4916 20.8933 15.8953 21.1864Z" fill="#898989"/>
<path d="M13.4708 24.9967C13.9144 25.2232 14.0919 25.7672 13.8656 26.2135C13.6393 26.6576 13.0959 26.8352 12.65 26.6088C12.2063 26.3823 12.0289 25.8383 12.2551 25.3919C12.4814 24.9478 13.0249 24.7702 13.4708 24.9967Z" fill="#474747"/>
<path d="M13.3066 24.8102C13.7503 25.0367 13.9278 25.5807 13.7015 26.027C13.4752 26.4711 12.9318 26.6487 12.4859 26.4222C12.0422 26.1957 11.8648 25.6517 12.091 25.2054C12.3173 24.7613 12.8608 24.5837 13.3066 24.8102Z" fill="#E6E7E8"/>
<path d="M13.3887 24.9034C13.8323 25.1299 14.0098 25.6739 13.7835 26.1203C13.5573 26.5643 13.0138 26.742 12.5679 26.5155C12.1243 26.289 11.9468 25.745 12.173 25.2987C12.3993 24.8546 12.9428 24.6769 13.3887 24.9034Z" fill="#898989"/>
<path d="M11.5897 29.049C12.0644 29.2022 12.3239 29.7129 12.1686 30.1881C12.0133 30.6633 11.5054 30.9231 11.0306 30.7677C10.5559 30.6145 10.2964 30.1037 10.4516 29.6286C10.6047 29.1534 11.1149 28.8936 11.5897 29.049Z" fill="#474747"/>
<path d="M11.3989 28.8892C11.8736 29.0424 12.1331 29.5531 11.9779 30.0283C11.8226 30.5034 11.3146 30.7632 10.8399 30.6078C10.3651 30.4524 10.1056 29.9439 10.2609 29.4687C10.4162 28.9935 10.9242 28.7337 11.3989 28.8892Z" fill="#E6E7E8"/>
<path d="M11.4943 28.9691C11.969 29.1223 12.2285 29.633 12.0733 30.1082C11.918 30.5834 11.41 30.8432 10.9353 30.6877C10.4606 30.5323 10.201 30.0238 10.3541 29.5486C10.5071 29.0734 11.0174 28.8137 11.4921 28.9691H11.4943Z" fill="#898989"/>
<path d="M10.3652 33.3434C10.8576 33.4211 11.1948 33.8852 11.1149 34.3781C11.0373 34.8711 10.5737 35.2064 10.0812 35.1287C9.58877 35.051 9.25162 34.5869 9.33147 34.0939C9.40911 33.601 9.87271 33.2635 10.3652 33.3434Z" fill="#474747"/>
<path d="M10.1522 33.2169C10.6447 33.2946 10.9819 33.7587 10.902 34.2516C10.8244 34.7446 10.3608 35.0821 9.8683 35.0043C9.37584 34.9266 9.03863 34.4626 9.11849 33.9696C9.19613 33.4767 9.65979 33.1392 10.1522 33.2191V33.2169Z" fill="#E6E7E8"/>
<path d="M10.2587 33.2791C10.7512 33.3568 11.0883 33.8208 11.0085 34.3138C10.9308 34.8067 10.4672 35.1442 9.97477 35.0643C9.48231 34.9866 9.14515 34.5225 9.22279 34.0296C9.30043 33.5366 9.76403 33.1991 10.2565 33.2791H10.2587Z" fill="#898989"/>
<path d="M9.82833 37.7777C10.3274 37.7777 10.7311 38.1818 10.7311 38.6814C10.7311 39.181 10.3274 39.5852 9.82833 39.5852C9.32922 39.5852 8.92548 39.181 8.92548 38.6814C8.92548 38.1818 9.32922 37.7777 9.82833 37.7777Z" fill="#474747"/>
<path d="M9.59542 37.6867C10.0945 37.6867 10.4983 38.0908 10.4983 38.5904C10.4983 39.09 10.0945 39.4941 9.59542 39.4941C9.09631 39.4941 8.69257 39.09 8.69257 38.5904C8.69257 38.0908 9.09631 37.6867 9.59542 37.6867Z" fill="#E6E7E8"/>
<path d="M9.71075 37.7311C10.2099 37.7311 10.6135 38.1352 10.6135 38.6348C10.6135 39.1344 10.2099 39.5385 9.71075 39.5385C9.21163 39.5385 8.80789 39.1344 8.80789 38.6348C8.80789 38.1352 9.21163 37.7311 9.71075 37.7311Z" fill="#898989"/>
<path d="M9.98813 42.2408C10.4806 42.1631 10.9442 42.4984 11.0218 42.9936C11.0995 43.4865 10.7645 43.9506 10.2721 44.0283C9.77962 44.106 9.31596 43.7707 9.23832 43.2778C9.16068 42.7848 9.49567 42.3208 9.98813 42.2431V42.2408Z" fill="#474747"/>
<path d="M9.74628 42.1876C10.2387 42.1098 10.7023 42.4451 10.78 42.9381C10.8576 43.431 10.5227 43.8951 10.0302 43.9728C9.53777 44.0505 9.07417 43.7152 8.99653 43.2223C8.91889 42.7293 9.25383 42.2653 9.74628 42.1876Z" fill="#E6E7E8"/>
<path d="M9.86832 42.2142C10.3608 42.1365 10.8244 42.4718 10.902 42.9647C10.9797 43.4577 10.6447 43.9217 10.1523 43.9994C9.6598 44.0772 9.19615 43.7419 9.11851 43.2489C9.04087 42.756 9.37586 42.2919 9.86832 42.2142Z" fill="#898989"/>
<path d="M10.8465 46.6262C11.3213 46.473 11.8293 46.7328 11.9846 47.2058C12.1376 47.681 11.8781 48.1894 11.4056 48.3449C10.9308 48.4981 10.4207 48.2383 10.2676 47.7653C10.1123 47.2902 10.3741 46.7817 10.8465 46.6262Z" fill="#474747"/>
<path d="M10.5981 46.6085C11.0728 46.4531 11.583 46.7129 11.736 47.188C11.8891 47.6632 11.6296 48.1739 11.1549 48.3271C10.6801 48.4826 10.1721 48.2228 10.0169 47.7476C9.86379 47.2724 10.1234 46.7617 10.5958 46.6085H10.5981Z" fill="#E6E7E8"/>
<path d="M10.7223 46.6174C11.197 46.4642 11.7072 46.7217 11.8603 47.1969C12.0156 47.6721 11.756 48.1828 11.2813 48.336C10.8066 48.4892 10.2964 48.2294 10.1434 47.7565C9.99029 47.2813 10.2498 46.7706 10.7223 46.6174Z" fill="#898989"/>
<path d="M12.3772 50.8207C12.8209 50.5942 13.3644 50.7718 13.5929 51.2159C13.8191 51.66 13.6417 52.204 13.198 52.4327C12.7543 52.6592 12.2109 52.4816 11.9846 52.0375C11.7583 51.5934 11.9358 51.0494 12.3795 50.8207H12.3772Z" fill="#474747"/>
<path d="M12.1288 50.8451C12.5724 50.6186 13.1159 50.794 13.3444 51.2404C13.5706 51.6845 13.3932 52.2307 12.9495 52.4572C12.5059 52.6837 11.9624 52.506 11.7339 52.0619C11.5076 51.6178 11.6851 51.0716 12.1288 50.8451Z" fill="#E6E7E8"/>
<path d="M12.253 50.8318C12.6967 50.6053 13.2423 50.7807 13.4686 51.227C13.6949 51.6711 13.5196 52.2151 13.0738 52.4416C12.6301 52.6681 12.0844 52.4905 11.8581 52.0464C11.6319 51.6023 11.8093 51.0561 12.253 50.8318Z" fill="#898989"/>
<path d="M14.5466 54.7243C14.9503 54.4312 15.5137 54.52 15.8088 54.9242C16.1016 55.3283 16.0128 55.8923 15.6091 56.1876C15.2054 56.4807 14.6397 56.3919 14.3469 55.9877C14.0541 55.5836 14.1428 55.0196 14.5466 54.7243Z" fill="#474747"/>
<path d="M14.3048 54.7865C14.7085 54.4934 15.2741 54.5822 15.5669 54.9863C15.8598 55.3905 15.771 55.9567 15.3673 56.2498C14.9636 56.5429 14.4001 56.4541 14.1051 56.0499C13.8123 55.6458 13.901 55.0796 14.3048 54.7865Z" fill="#E6E7E8"/>
<path d="M14.4246 54.7554C14.8283 54.4623 15.3939 54.5511 15.6868 54.9552C15.9796 55.3594 15.8909 55.9234 15.4871 56.2165C15.0834 56.5096 14.5177 56.4207 14.2249 56.0166C13.9321 55.6125 14.0208 55.0485 14.4246 54.7532V54.7554Z" fill="#898989"/>
<path d="M17.2973 58.2415C17.65 57.8885 18.2223 57.8885 18.575 58.2415C18.9277 58.5946 18.9277 59.1675 18.575 59.5205C18.2223 59.8736 17.65 59.8736 17.2973 59.5205C16.9446 59.1675 16.9446 58.5946 17.2973 58.2415Z" fill="#474747"/>
<path d="M17.0688 58.3415C17.4215 57.9884 17.9938 57.9884 18.3466 58.3415C18.6993 58.6945 18.6993 59.2674 18.3466 59.6205C17.9938 59.9735 17.4215 59.9735 17.0688 59.6205C16.7161 59.2674 16.7161 58.6945 17.0688 58.3415Z" fill="#E6E7E8"/>
<path d="M17.1842 58.2904C17.5369 57.9373 18.1092 57.9373 18.4619 58.2904C18.8146 58.6434 18.8146 59.2141 18.4619 59.5672C18.1092 59.9202 17.5369 59.9202 17.1842 59.5672C16.8315 59.2141 16.8315 58.6412 17.1842 58.2882V58.2904Z" fill="#898989"/>
<path d="M20.5648 61.2836C20.8577 60.8794 21.4233 60.7906 21.827 61.0837C22.2308 61.3768 22.3195 61.943 22.0267 62.3472C21.7339 62.7513 21.1682 62.8401 20.7645 62.547C20.3607 62.2539 20.272 61.6877 20.5648 61.2836Z" fill="#474747"/>
<path d="M20.3541 61.4168C20.6469 61.0127 21.2126 60.9239 21.6163 61.217C22.02 61.5101 22.1087 62.0763 21.8159 62.4804C21.5231 62.8845 20.9575 62.9733 20.5537 62.6802C20.15 62.3871 20.0613 61.8209 20.3541 61.4168Z" fill="#E6E7E8"/>
<path d="M20.4606 61.3502C20.7534 60.9461 21.3191 60.8572 21.7228 61.1503C22.1265 61.4434 22.2153 62.0096 21.9225 62.4116C21.6296 62.8157 21.0639 62.9045 20.6602 62.6114C20.2565 62.3183 20.1678 61.7521 20.4606 61.348V61.3502Z" fill="#898989"/>
<path d="M24.2694 63.7772C24.4956 63.3331 25.0391 63.1555 25.485 63.3819C25.9286 63.6084 26.1061 64.1524 25.8798 64.5988C25.6536 65.0428 25.1101 65.2205 24.6642 64.994C24.2206 64.7675 24.0431 64.2235 24.2694 63.7794V63.7772Z" fill="#474747"/>
<path d="M24.0808 63.9415C24.307 63.4974 24.8505 63.3198 25.2964 63.5463C25.74 63.7727 25.9175 64.3168 25.6912 64.7631C25.465 65.2072 24.9215 65.3848 24.4756 65.1583C24.0319 64.9318 23.8545 64.3878 24.0808 63.9415Z" fill="#E6E7E8"/>
<path d="M24.174 63.8593C24.4003 63.4152 24.9437 63.2376 25.3896 63.4641C25.8333 63.6906 26.0107 64.2346 25.7845 64.6809C25.5582 65.125 25.0147 65.3026 24.5689 65.0761C24.1252 64.8497 23.9477 64.3057 24.174 63.8616V63.8593Z" fill="#898989"/>
<path d="M28.3154 65.6601C28.4707 65.185 28.9787 64.9252 29.4535 65.0806C29.9282 65.2338 30.1877 65.7445 30.0324 66.2197C29.8793 66.6949 29.3692 66.9547 28.8944 66.7992C28.4197 66.646 28.1602 66.1353 28.3154 65.6601Z" fill="#474747"/>
<path d="M28.1557 65.8511C28.3088 65.3759 28.819 65.1161 29.2938 65.2715C29.7685 65.427 30.028 65.9355 29.8727 66.4106C29.7174 66.8858 29.2095 67.1456 28.7347 66.9902C28.26 66.8348 28.0005 66.3241 28.1557 65.8511Z" fill="#E6E7E8"/>
<path d="M28.2356 65.7556C28.3887 65.2804 28.8989 65.0206 29.3736 65.1761C29.8483 65.3315 30.1078 65.84 29.9526 66.3152C29.7973 66.7903 29.2893 67.0501 28.8146 66.8947C28.3398 66.7415 28.0803 66.2308 28.2356 65.7556Z" fill="#898989"/>
<path d="M32.6057 66.8858C32.6833 66.3929 33.1469 66.0576 33.6394 66.1353C34.1318 66.213 34.469 66.6771 34.3892 67.1701C34.3115 67.663 33.8479 67.9983 33.3554 67.9206C32.863 67.8429 32.5258 67.3788 32.6057 66.8858Z" fill="#474747"/>
<path d="M32.4792 67.099C32.5568 66.606 33.0205 66.2685 33.513 66.3462C34.0054 66.424 34.3426 66.888 34.2627 67.381C34.1851 67.8739 33.7215 68.2114 33.229 68.1315C32.7366 68.0538 32.3993 67.5897 32.4792 67.0968V67.099Z" fill="#E6E7E8"/>
<path d="M32.5436 66.9924C32.6212 66.4995 33.0848 66.1619 33.5773 66.2419C34.0697 66.3196 34.4047 66.7837 34.3271 67.2766C34.2494 67.7696 33.7858 68.1071 33.2933 68.0271C32.8009 67.9494 32.4659 67.4853 32.5436 66.9924Z" fill="#898989"/>
<path d="M37.0356 67.4232C37.0356 66.9236 37.4415 66.5194 37.9384 66.5194C38.4375 66.5194 38.8412 66.9236 38.8412 67.4232C38.8412 67.9228 38.4375 68.3269 37.9384 68.3269C37.4393 68.3269 37.0356 67.9228 37.0356 67.4232Z" fill="#474747"/>
<path d="M36.9446 67.6563C36.9446 67.1567 37.3483 66.7526 37.8474 66.7526C38.3465 66.7526 38.7503 67.1567 38.7503 67.6563C38.7503 68.1559 38.3443 68.56 37.8474 68.56C37.3483 68.56 36.9446 68.1537 36.9446 67.6563Z" fill="#E6E7E8"/>
<path d="M36.9912 67.5386C36.9912 67.039 37.3949 66.6349 37.894 66.6349C38.3932 66.6349 38.7968 67.039 38.7968 67.5386C38.7968 68.0382 38.3932 68.4424 37.894 68.4424C37.3949 68.4424 36.9912 68.0382 36.9912 67.5386Z" fill="#898989"/>
<path d="M41.4966 67.261C41.419 66.7681 41.7561 66.3062 42.2486 66.2263C42.741 66.1486 43.2046 66.4839 43.2823 66.979C43.3599 67.472 43.025 67.9361 42.5325 68.0138C42.0401 68.0915 41.5765 67.7562 41.4988 67.2633L41.4966 67.261Z" fill="#474747"/>
<path d="M41.4411 67.5053C41.3635 67.0124 41.6984 66.5483 42.1909 66.4706C42.6834 66.3929 43.147 66.7281 43.2246 67.2233C43.3022 67.7163 42.9651 68.1803 42.4748 68.258C41.9824 68.3358 41.5188 67.9982 41.4411 67.5075V67.5053Z" fill="#E6E7E8"/>
<path d="M41.4677 67.3832C41.3901 66.8902 41.7251 66.4262 42.2175 66.3484C42.71 66.2707 43.1736 66.606 43.2512 67.099C43.3289 67.5919 42.9939 68.056 42.5014 68.1337C42.009 68.2114 41.5454 67.8761 41.4677 67.3809V67.3832Z" fill="#898989"/>
<path d="M45.8754 66.404C45.7224 65.9288 45.9819 65.4203 46.4566 65.2649C46.9313 65.1116 47.4415 65.3714 47.5946 65.8444C47.7499 66.3196 47.4903 66.8281 47.0134 66.9835C46.5387 67.1367 46.0285 66.8769 45.8754 66.404Z" fill="#474747"/>
<path d="M45.8599 66.6548C45.7046 66.1797 45.9663 65.669 46.4388 65.5157C46.9135 65.3603 47.4238 65.6201 47.5768 66.0953C47.7299 66.5705 47.4703 67.0812 46.9956 67.2344C46.5209 67.3898 46.0107 67.1278 45.8577 66.6548H45.8599Z" fill="#E6E7E8"/>
<path d="M45.8666 66.5283C45.7135 66.0531 45.9708 65.5424 46.4455 65.3892C46.9202 65.236 47.4282 65.4936 47.5835 65.9687C47.7366 66.4439 47.477 66.9546 47.0045 67.1078C46.5298 67.2633 46.0219 67.0013 45.8666 66.5283Z" fill="#898989"/>
<path d="M50.0658 64.8718C49.8395 64.4277 50.017 63.8815 50.4606 63.655C50.9043 63.4285 51.45 63.6062 51.6763 64.0503C51.9025 64.4966 51.7251 65.0406 51.2814 65.2671C50.8377 65.4936 50.2943 65.3159 50.0658 64.8718Z" fill="#474747"/>
<path d="M50.0902 65.1205C49.864 64.6764 50.0391 64.1302 50.485 63.9037C50.9287 63.6772 51.4744 63.8526 51.7007 64.2989C51.927 64.743 51.7495 65.287 51.3058 65.5157C50.8622 65.7422 50.3165 65.5646 50.0902 65.1205Z" fill="#E6E7E8"/>
<path d="M50.0791 64.9962C49.8528 64.5521 50.0303 64.0059 50.474 63.7816C50.9176 63.5551 51.4611 63.7305 51.6874 64.1768C51.9136 64.6209 51.7362 65.1672 51.2925 65.3936C50.8489 65.6201 50.3054 65.4425 50.0769 64.9984L50.0791 64.9962Z" fill="#898989"/>
<path d="M53.9677 62.7002C53.6749 62.2961 53.7658 61.7299 54.1673 61.4368C54.5711 61.1437 55.1345 61.2325 55.4295 61.6366C55.7223 62.0407 55.6336 62.6047 55.2299 62.9001C54.8262 63.1932 54.2627 63.1043 53.9677 62.7002Z" fill="#474747"/>
<path d="M54.0276 62.9422C53.7348 62.5381 53.8235 61.9718 54.2272 61.6787C54.631 61.3856 55.1966 61.4745 55.4894 61.8786C55.7822 62.2827 55.6935 62.8489 55.2898 63.142C54.8861 63.4351 54.3204 63.3441 54.0276 62.9422Z" fill="#E6E7E8"/>
<path d="M53.9987 62.8201C53.7059 62.416 53.7946 61.852 54.1984 61.5566C54.6021 61.2635 55.1655 61.3524 55.4583 61.7565C55.7512 62.1606 55.6624 62.7268 55.2587 63.0199C54.8549 63.313 54.2893 63.2242 53.9965 62.8201H53.9987Z" fill="#898989"/>
<path d="M57.4793 59.9446C57.1265 59.5915 57.1265 59.0187 57.4793 58.6656C57.832 58.3126 58.4043 58.3126 58.757 58.6656C59.1097 59.0187 59.1097 59.5915 58.757 59.9446C58.4043 60.2977 57.832 60.2977 57.4793 59.9446Z" fill="#474747"/>
<path d="M57.5791 60.1755C57.2264 59.8225 57.2264 59.2496 57.5791 58.8965C57.9318 58.5435 58.5042 58.5435 58.8569 58.8965C59.2096 59.2496 59.2096 59.8225 58.8569 60.1755C58.5042 60.5286 57.9318 60.5286 57.5791 60.1755Z" fill="#E6E7E8"/>
<path d="M57.5303 60.06C57.1776 59.707 57.1776 59.1341 57.5303 58.7811C57.883 58.428 58.4553 58.428 58.808 58.7811C59.1607 59.1341 59.1607 59.707 58.808 60.06C58.4553 60.4131 57.883 60.4131 57.5303 60.06Z" fill="#898989"/>
<path d="M60.5183 56.6739C60.1146 56.3808 60.0258 55.8145 60.3186 55.4104C60.6114 55.0063 61.1771 54.9175 61.5808 55.2106C61.9845 55.5037 62.0733 56.0699 61.7805 56.474C61.4877 56.8781 60.922 56.967 60.5183 56.6739Z" fill="#474747"/>
<path d="M60.6537 56.887C60.2499 56.5939 60.1612 56.0277 60.454 55.6236C60.7468 55.2194 61.3125 55.1306 61.7162 55.4237C62.1199 55.7168 62.2087 56.283 61.9158 56.6872C61.623 57.0913 61.0574 57.1801 60.6537 56.887Z" fill="#E6E7E8"/>
<path d="M60.5849 56.7804C60.1812 56.4873 60.0925 55.9211 60.3853 55.517C60.6781 55.1129 61.2415 55.024 61.6452 55.3171C62.049 55.6102 62.1377 56.1765 61.8449 56.5806C61.5521 56.9847 60.9864 57.0735 60.5827 56.7804H60.5849Z" fill="#898989"/>
<path d="M63.0095 52.9679C62.5658 52.7414 62.3883 52.1974 62.6146 51.7533C62.8409 51.3092 63.3843 51.1316 63.8302 51.3581C64.2739 51.5845 64.4513 52.1286 64.2251 52.5749C63.9988 53.019 63.4553 53.1966 63.0117 52.9701L63.0095 52.9679Z" fill="#474747"/>
<path d="M63.1736 53.1566C62.7277 52.9301 62.5525 52.3861 62.7787 51.9398C63.005 51.4957 63.5485 51.3181 63.9944 51.5446C64.438 51.7711 64.6155 52.3151 64.3892 52.7614C64.163 53.2055 63.6195 53.3831 63.1736 53.1566Z" fill="#E6E7E8"/>
<path d="M63.0915 53.0633C62.6479 52.8369 62.4704 52.2928 62.6967 51.8465C62.9229 51.4024 63.4664 51.2248 63.9101 51.4513C64.3537 51.6778 64.5312 52.224 64.3049 52.6681C64.0787 53.1122 63.5352 53.2898 63.0893 53.0633H63.0915Z" fill="#898989"/>
<path d="M64.8905 48.9178C64.4158 48.7646 64.1563 48.2538 64.3115 47.7787C64.4668 47.3035 64.9748 47.0437 65.4495 47.1991C65.9243 47.3523 66.1838 47.863 66.0285 48.3382C65.8754 48.8134 65.3652 49.0732 64.8905 48.9178Z" fill="#474747"/>
<path d="M65.0835 49.0776C64.6088 48.9222 64.3493 48.4137 64.5045 47.9385C64.6576 47.4634 65.1678 47.2036 65.6425 47.359C66.1172 47.5144 66.3768 48.0229 66.2215 48.4981C66.0662 48.9733 65.5582 49.2331 65.0835 49.0799V49.0776Z" fill="#E6E7E8"/>
<path d="M64.9859 48.9977C64.5134 48.8423 64.2516 48.3338 64.4069 47.8586C64.5599 47.3834 65.0702 47.1236 65.5449 47.2791C66.0196 47.4345 66.2791 47.943 66.1238 48.4182C65.9708 48.8933 65.4606 49.1531 64.9859 48.9977Z" fill="#898989"/>
<path d="M66.1151 44.6234C65.6226 44.5457 65.2876 44.0816 65.3652 43.5886C65.4429 43.0957 65.9065 42.7604 66.399 42.8381C66.8915 42.9158 67.2264 43.3799 67.1488 43.8729C67.0711 44.3658 66.6075 44.7011 66.1151 44.6234Z" fill="#474747"/>
<path d="M66.3302 44.7499C65.8377 44.6722 65.5005 44.2082 65.5804 43.7152C65.658 43.2223 66.1217 42.8848 66.6141 42.9647C67.1066 43.0424 67.4437 43.5065 67.3661 43.9994C67.2885 44.4924 66.8249 44.8299 66.3324 44.7522L66.3302 44.7499Z" fill="#E6E7E8"/>
<path d="M66.2215 44.6856C65.729 44.6078 65.3918 44.1438 65.4717 43.6508C65.5493 43.1579 66.0107 42.8226 66.5054 42.9003C66.9979 42.978 67.335 43.4421 67.2552 43.935C67.1775 44.428 66.7139 44.7655 66.2215 44.6856Z" fill="#898989"/>
<path d="M66.6518 40.1891C66.1527 40.1891 65.749 39.7828 65.749 39.2854C65.749 38.7858 66.1527 38.3817 66.6518 38.3817C67.151 38.3817 67.5547 38.7858 67.5547 39.2854C67.5547 39.7828 67.151 40.1891 66.6518 40.1891Z" fill="#474747"/>
<path d="M66.8848 40.2802C66.3857 40.2802 65.9819 39.8738 65.9819 39.3764C65.9819 38.8768 66.3857 38.4727 66.8848 38.4727C67.3839 38.4727 67.7876 38.8768 67.7876 39.3764C67.7876 39.8761 67.3817 40.2802 66.8848 40.2802Z" fill="#E6E7E8"/>
<path d="M66.7694 40.2335C66.2703 40.2335 65.8665 39.8294 65.8665 39.3298C65.8665 38.8302 66.2703 38.4261 66.7694 38.4261C67.2685 38.4261 67.6723 38.8324 67.6723 39.3298C67.6723 39.8294 67.2685 40.2335 66.7694 40.2335Z" fill="#898989"/>
<path d="M66.4921 35.7238C65.9997 35.8015 65.5382 35.464 65.4584 34.971C65.3807 34.4781 65.7157 34.014 66.2082 33.9363C66.7007 33.8586 67.1643 34.1939 67.2419 34.689C67.3195 35.182 66.9846 35.6438 66.4921 35.7238Z" fill="#474747"/>
<path d="M66.7361 35.7793C66.2436 35.857 65.78 35.5195 65.7024 35.0266C65.6247 34.5336 65.9597 34.0696 66.4522 33.9918C66.9446 33.9141 67.4082 34.2494 67.4859 34.7424C67.5635 35.2353 67.2263 35.6994 66.7361 35.7771V35.7793Z" fill="#E6E7E8"/>
<path d="M66.6141 35.7526C66.1217 35.8304 65.658 35.4951 65.5804 34.9999C65.5027 34.507 65.8377 34.0451 66.3302 33.9652C66.8226 33.8875 67.2862 34.2227 67.3639 34.7157C67.4415 35.2086 67.1066 35.6727 66.6141 35.7504V35.7526Z" fill="#898989"/>
<path d="M65.6336 31.3406C65.1589 31.496 64.6509 31.234 64.4957 30.761C64.3404 30.2858 64.6021 29.7774 65.0746 29.6219C65.5493 29.4687 66.0573 29.7285 66.2126 30.2037C66.3657 30.6789 66.1061 31.1874 65.6314 31.3428L65.6336 31.3406Z" fill="#474747"/>
<path d="M65.8843 31.3561C65.4096 31.5115 64.8993 31.2495 64.7463 30.7743C64.591 30.2992 64.8505 29.7907 65.3253 29.6352C65.8 29.482 66.3101 29.7418 66.4632 30.2148C66.6185 30.69 66.3568 31.2007 65.8843 31.3539V31.3561Z" fill="#E6E7E8"/>
<path d="M65.76 31.3494C65.2853 31.5026 64.7774 31.2428 64.6221 30.7677C64.4668 30.2925 64.7263 29.784 65.201 29.6286C65.6757 29.4753 66.186 29.7351 66.339 30.2081C66.4943 30.6833 66.2325 31.194 65.76 31.3472V31.3494Z" fill="#898989"/>
<path d="M64.1031 27.1461C63.6594 27.3726 63.1159 27.195 62.8875 26.7509C62.6612 26.3068 62.8387 25.7605 63.2823 25.534C63.726 25.3076 64.2695 25.4852 64.4979 25.9293C64.7242 26.3734 64.5467 26.9174 64.1031 27.1461Z" fill="#474747"/>
<path d="M64.3515 27.1217C63.9056 27.3482 63.3621 27.1705 63.1359 26.7264C62.9096 26.2824 63.0848 25.7383 63.5307 25.5096C63.9744 25.2831 64.5201 25.4608 64.7463 25.9049C64.9726 26.349 64.7951 26.8952 64.3515 27.1217Z" fill="#E6E7E8"/>
<path d="M64.2273 27.1328C63.7836 27.3593 63.2401 27.1816 63.0117 26.7375C62.7854 26.2934 62.9628 25.7494 63.4065 25.5229C63.8501 25.2965 64.3959 25.4741 64.6221 25.9182C64.8484 26.3623 64.6709 26.9085 64.2273 27.135V27.1328Z" fill="#898989"/>
<path d="M61.9336 23.2403C61.5298 23.5334 60.9642 23.4424 60.6714 23.0405C60.3786 22.6363 60.4673 22.0701 60.871 21.777C61.2747 21.4839 61.8382 21.5727 62.1332 21.9769C62.426 22.381 62.3373 22.945 61.9336 23.2403Z" fill="#474747"/>
<path d="M62.1776 23.1804C61.7738 23.4735 61.2081 23.3846 60.9153 22.9805C60.6225 22.5764 60.7113 22.0124 61.115 21.7171C61.5187 21.424 62.0844 21.5128 62.3772 21.9169C62.67 22.321 62.5813 22.8873 62.1776 23.1804Z" fill="#E6E7E8"/>
<path d="M62.0556 23.2092C61.6519 23.5023 61.0884 23.4135 60.7934 23.0094C60.5006 22.6053 60.5893 22.0413 60.993 21.7482C61.3967 21.4551 61.9624 21.5439 62.2552 21.948C62.548 22.3521 62.4593 22.9161 62.0556 23.2115V23.2092Z" fill="#898989"/>
<path d="M59.1829 19.7253C58.8302 20.0784 58.2579 20.0784 57.9052 19.7253C57.5525 19.3723 57.5525 18.7994 57.9052 18.4463C58.2579 18.0933 58.8302 18.0933 59.1829 18.4463C59.5356 18.7994 59.5356 19.3723 59.1829 19.7253Z" fill="#474747"/>
<path d="M59.4114 19.6254C59.0587 19.9785 58.4864 19.9785 58.1337 19.6254C57.781 19.2724 57.781 18.6995 58.1337 18.3464C58.4864 17.9934 59.0587 17.9934 59.4114 18.3464C59.7641 18.6995 59.7641 19.2724 59.4114 19.6254Z" fill="#E6E7E8"/>
<path d="M59.296 19.6743C58.9433 20.0273 58.371 20.0273 58.0183 19.6743C57.6656 19.3212 57.6656 18.7506 58.0183 18.3953C58.371 18.0422 58.9433 18.0422 59.296 18.3953C59.6488 18.7483 59.6488 19.3212 59.296 19.6743Z" fill="#898989"/>
<path d="M55.9155 16.6833C55.6227 17.0874 55.057 17.1762 54.6532 16.8831C54.2495 16.59 54.1608 16.0238 54.4536 15.6197C54.7464 15.2155 55.3099 15.1267 55.7158 15.4198C56.1195 15.7129 56.2083 16.2792 55.9155 16.6833Z" fill="#474747"/>
<path d="M56.1262 16.55C55.8334 16.9542 55.2677 17.043 54.864 16.7499C54.4603 16.4568 54.3715 15.8906 54.6643 15.4864C54.9571 15.0823 55.5228 14.9935 55.9265 15.2866C56.3302 15.5797 56.419 16.1459 56.1262 16.55Z" fill="#E6E7E8"/>
<path d="M56.0197 16.6167C55.7269 17.0208 55.1612 17.1096 54.7575 16.8165C54.3537 16.5234 54.265 15.9594 54.5579 15.5531C54.8507 15.1489 55.4163 15.0601 55.82 15.3532C56.2238 15.6463 56.3125 16.2125 56.0197 16.6167Z" fill="#898989"/>
<path d="M52.213 14.1897C51.9867 14.6338 51.4432 14.8114 50.9974 14.5849C50.5537 14.3584 50.3762 13.8144 50.6025 13.3681C50.8288 12.924 51.3722 12.7464 51.8181 12.9729C52.2618 13.1993 52.4392 13.7434 52.213 14.1897Z" fill="#474747"/>
<path d="M52.3993 14.0253C52.1731 14.4717 51.6274 14.6471 51.1837 14.4206C50.7401 14.1941 50.5626 13.6501 50.7889 13.2038C51.0151 12.7597 51.5586 12.582 52.0045 12.8085C52.4481 13.035 52.6256 13.5812 52.3993 14.0253Z" fill="#E6E7E8"/>
<path d="M52.3062 14.1075C52.0799 14.5516 51.5364 14.7292 51.0928 14.5027C50.6491 14.2763 50.4717 13.7322 50.6979 13.2881C50.9242 12.8441 51.4677 12.6664 51.9135 12.8929C52.3572 13.1194 52.5347 13.6634 52.3084 14.1097L52.3062 14.1075Z" fill="#898989"/>
<path d="M48.1647 12.3067C48.0116 12.7819 47.5014 13.0417 47.0267 12.8863C46.552 12.7331 46.2925 12.2224 46.4455 11.7472C46.6008 11.272 47.1088 11.0122 47.5835 11.1676C48.056 11.3208 48.3177 11.8316 48.1625 12.3067H48.1647Z" fill="#474747"/>
<path d="M48.3244 12.1136C48.1691 12.5887 47.6589 12.8485 47.1864 12.6931C46.7117 12.5399 46.4522 12.0292 46.6074 11.554C46.7605 11.0788 47.2707 10.819 47.7454 10.9745C48.2202 11.1277 48.4797 11.6406 48.3266 12.1136H48.3244Z" fill="#E6E7E8"/>
<path d="M48.2446 12.2113C48.0893 12.6865 47.5813 12.9462 47.1065 12.7908C46.6318 12.6376 46.3723 12.1269 46.5276 11.6517C46.6829 11.1765 47.1908 10.9167 47.6656 11.0722C48.1403 11.2254 48.3998 11.7361 48.2446 12.2113Z" fill="#898989"/>
<path d="M43.8746 11.081C43.797 11.574 43.3333 11.9093 42.8408 11.8315C42.3484 11.7538 42.0112 11.2897 42.0911 10.7968C42.1687 10.3039 42.6301 9.96857 43.1248 10.0463C43.6172 10.124 43.9522 10.5881 43.8746 11.081Z" fill="#474747"/>
<path d="M44.001 10.8657C43.9233 11.3586 43.4597 11.6961 42.9673 11.6162C42.4748 11.5385 42.1377 11.0744 42.2175 10.5814C42.2952 10.0885 42.7588 9.75321 43.2512 9.83092C43.7437 9.90864 44.0808 10.3727 44.0032 10.8657H44.001Z" fill="#E6E7E8"/>
<path d="M43.9389 10.9744C43.8613 11.4674 43.3976 11.8027 42.9052 11.725C42.4127 11.6472 42.0778 11.1854 42.1554 10.6902C42.2331 10.1973 42.6967 9.85976 43.1891 9.9397C43.6816 10.0174 44.0188 10.4815 43.9389 10.9744Z" fill="#898989"/>
<path d="M46.9247 31.8846C46.8759 31.9734 46.9091 32.0844 46.9979 32.1333C48.6239 33.0192 49.9083 33.9874 50.8843 34.8689C50.9775 34.9533 50.9509 35.1109 50.8333 35.1553C50.8333 35.1553 50.8333 35.1553 50.8311 35.1553C50.3874 35.3196 49.946 35.2686 49.5045 35.1553C48.6194 34.9266 47.8187 34.5003 47.0156 34.0829C45.6802 33.3878 44.367 32.6484 42.9385 32.1533C42.5924 32.0334 42.2397 31.9246 41.887 31.8291C41.816 31.8091 41.6918 31.8446 41.6407 31.9001C40.1035 33.6454 38.1048 34.467 35.8599 34.7845C33.9278 35.0599 32.0067 34.9444 30.099 34.5602C30.0768 34.5558 30.0569 34.5447 29.9881 34.5203C30.1012 34.4781 30.1789 34.4492 30.2565 34.4204C31.4544 33.9874 32.5436 33.379 33.4509 32.4686C34.1363 31.7802 34.6243 30.9764 34.844 30.0216C34.8639 29.935 34.875 29.8462 34.8972 29.7219C34.3936 29.713 33.91 29.6974 33.4287 29.6952C31.1505 29.6886 28.8967 29.9062 26.7006 30.5434C24.2827 31.2473 22.1177 32.3864 20.4118 34.2849C18.8856 35.9858 17.9584 37.9642 17.7964 40.2668C17.7698 40.6532 17.8053 41.0462 17.8408 41.4326C17.9074 42.1209 18.2889 42.6139 18.9122 42.8715C19.6088 43.1601 20.3275 43.3977 21.0462 43.6331C21.9979 43.9462 22.9251 44.2948 23.7015 44.9542C24.611 45.7225 25.1301 46.9371 25.17 48.1273C24.7219 47.3146 23.9566 47.0815 23.1514 46.9682C22.3151 46.8505 21.4677 46.8039 20.627 46.7173C20.3807 46.6929 20.1367 46.6573 19.8949 46.6085C19.5267 46.5308 19.174 46.4087 18.8789 46.1156C18.8634 46.3176 18.8679 46.5019 18.8324 46.6796C18.7547 47.0792 18.5418 47.4168 18.2911 47.7276C18.0316 48.0474 17.7632 48.3582 17.5014 48.6758C16.6341 49.7238 16.2193 50.6209 16.5298 52.0975C16.3169 51.8088 16.0972 51.5268 15.8954 51.2293C14.8949 49.766 14.733 48.1961 15.3075 46.5352C15.5316 45.8846 15.7601 45.234 15.9708 44.5768C16.3413 43.4221 16.3168 42.2697 15.882 41.1395C14.9282 38.657 14.8239 36.1146 15.4362 33.5588C16.6917 28.303 19.7485 24.3772 24.3958 21.6749C25.7423 20.8933 27.1953 20.3448 28.7082 19.9718C28.7814 19.954 28.8546 19.9363 28.9255 19.9141C28.9389 19.9118 28.95 19.8985 28.9943 19.8697C27.9429 18.1044 26.3879 16.9542 24.5844 16.0504C25.088 16.0282 25.5892 15.9883 26.0928 15.9838C27.9584 15.9683 29.7774 16.2592 31.5342 16.8987C33.127 17.4804 34.56 18.3309 35.8089 19.49C35.9087 19.5832 36.0595 19.6543 36.1971 19.672C38.6106 20.0251 40.8976 20.7379 42.9628 22.0657C45.8777 23.9398 47.812 26.571 48.8613 29.8573C49.0853 30.559 49.4114 31.1763 49.8551 31.7514C50.2521 32.2665 50.6359 32.7928 50.9997 33.3301C51.1638 33.5721 51.2859 33.8408 51.3679 34.1206V34.1273C51.4456 34.3848 51.1394 34.5802 50.9375 34.4048C49.9704 33.5588 48.7281 32.6462 47.1709 31.798C47.0822 31.7491 46.9691 31.7825 46.9225 31.8735L46.9247 31.8846Z" fill="#292929"/>
<path d="M46.7827 31.5826C46.7339 31.6714 46.7672 31.7825 46.8559 31.8313C48.4819 32.7173 49.7663 33.6854 50.7424 34.5669C50.8355 34.6513 50.8089 34.809 50.6914 34.8534C50.6914 34.8534 50.6914 34.8534 50.6891 34.8534C50.2455 35.0177 49.8041 34.9666 49.3626 34.8534C48.4775 34.6247 47.6767 34.1983 46.8737 33.7809C45.5383 33.0859 44.2251 32.3465 42.7965 31.8513C42.4504 31.7314 42.0977 31.6226 41.745 31.5271C41.674 31.5071 41.5498 31.5427 41.4988 31.5982C39.9616 33.3435 37.9629 34.165 35.718 34.4826C33.7858 34.7579 31.8648 34.6424 29.9571 34.2583C29.9349 34.2538 29.9149 34.2427 29.8462 34.2183C29.9593 34.1761 30.0369 34.1473 30.1146 34.1184C31.3125 33.6854 32.4016 33.077 33.3089 32.1666C33.9943 31.4783 34.4824 30.6745 34.702 29.7197C34.7219 29.6331 34.733 29.5442 34.7552 29.4199C34.2517 29.411 33.7681 29.3955 33.2867 29.3932C31.0086 29.3866 28.7548 29.6042 26.5587 30.2415C24.1407 30.9454 21.9757 32.0845 20.2698 33.983C18.7436 35.6838 17.8164 37.6623 17.6545 39.9649C17.6278 40.3512 17.6634 40.7443 17.6989 41.1306C17.7654 41.819 18.1469 42.3119 18.7703 42.5695C19.4668 42.8582 20.1856 43.0957 20.9043 43.3311C21.8559 43.6442 22.7832 43.9928 23.5596 44.6523C24.469 45.4206 24.9882 46.6352 25.0281 47.8253C24.58 47.0126 23.8147 46.7795 23.0094 46.6663C22.1731 46.5486 21.3257 46.5019 20.485 46.4153C20.2388 46.3909 19.9948 46.3554 19.753 46.3065C19.3848 46.2288 19.032 46.1067 18.737 45.8136C18.7215 46.0156 18.7259 46.2 18.6904 46.3776C18.6128 46.7773 18.3999 47.1148 18.1492 47.4256C17.8896 47.7454 17.6212 48.0563 17.3595 48.3738C16.4921 49.4218 16.0773 50.3189 16.3878 51.7955C16.1749 51.5069 15.9553 51.2249 15.7534 50.9273C14.753 49.464 14.591 47.8942 15.1656 46.2333C15.3896 45.5827 15.6181 44.9321 15.8288 44.2748C16.1993 43.1202 16.1749 41.9677 15.7401 40.8375C14.7863 38.355 14.682 35.8126 15.2942 33.2569C16.5498 28.001 19.6065 24.0752 24.2538 21.3729C25.6003 20.5913 27.0534 20.0429 28.5662 19.6698C28.6394 19.6521 28.7126 19.6343 28.7836 19.6121C28.7969 19.6099 28.808 19.5965 28.8524 19.5677C27.8009 17.8024 26.2459 16.6522 24.4424 15.7485C24.946 15.7263 25.4473 15.6863 25.9509 15.6819C27.8164 15.6663 29.6354 15.9572 31.3923 16.5967C32.985 17.1785 34.4181 18.0289 35.667 19.188C35.7668 19.2812 35.9176 19.3523 36.0551 19.3701C38.4686 19.7231 40.7557 20.4359 42.8209 21.7637C45.7357 23.6378 47.67 26.269 48.7193 29.5553C48.9433 30.257 49.2694 30.8743 49.7131 31.4494C50.1101 31.9646 50.4939 32.4908 50.8577 33.0282C51.0219 33.2702 51.1439 33.5389 51.226 33.8186V33.8253C51.3036 34.0829 50.9975 34.2783 50.7956 34.1028C49.8284 33.2569 48.5862 32.3442 47.029 31.496C46.9403 31.4472 46.8271 31.4805 46.7805 31.5715L46.7827 31.5826Z" fill="url(#paint3_radial_68_40507)"/>
<g opacity="0.69">
<path d="M46.7827 31.5826C46.7339 31.6714 46.7672 31.7825 46.8559 31.8313C48.4819 32.7173 49.7663 33.6854 50.7424 34.5669C50.8355 34.6513 50.8089 34.809 50.6914 34.8534C50.6914 34.8534 50.6914 34.8534 50.6891 34.8534C50.2455 35.0177 49.8041 34.9666 49.3626 34.8534C48.4775 34.6247 47.6767 34.1983 46.8737 33.7809C45.5383 33.0859 44.2251 32.3465 42.7965 31.8513C42.4504 31.7314 42.0977 31.6226 41.745 31.5271C41.674 31.5071 41.5498 31.5427 41.4988 31.5982C39.9616 33.3435 37.9629 34.165 35.718 34.4826C33.7858 34.7579 31.8648 34.6424 29.9571 34.2583C29.9349 34.2538 29.9149 34.2427 29.8462 34.2183C29.9593 34.1761 30.0369 34.1473 30.1146 34.1184C31.3125 33.6854 32.4016 33.077 33.3089 32.1666C33.9943 31.4783 34.4824 30.6745 34.702 29.7197C34.7219 29.6331 34.733 29.5442 34.7552 29.4199C34.2517 29.411 33.7681 29.3955 33.2867 29.3932C31.0086 29.3866 28.7548 29.6042 26.5587 30.2415C24.1407 30.9454 21.9757 32.0845 20.2698 33.983C18.7436 35.6838 17.8164 37.6623 17.6545 39.9649C17.6278 40.3512 17.6634 40.7443 17.6989 41.1306C17.7654 41.819 18.1469 42.3119 18.7703 42.5695C19.4668 42.8582 20.1856 43.0957 20.9043 43.3311C21.8559 43.6442 22.7832 43.9928 23.5596 44.6523C24.469 45.4206 24.9882 46.6352 25.0281 47.8253C24.58 47.0126 23.8147 46.7795 23.0094 46.6663C22.1731 46.5486 21.3257 46.5019 20.485 46.4153C20.2388 46.3909 19.9948 46.3554 19.753 46.3065C19.3848 46.2288 19.032 46.1067 18.737 45.8136C18.7215 46.0156 18.7259 46.2 18.6904 46.3776C18.6128 46.7773 18.3999 47.1148 18.1492 47.4256C17.8896 47.7454 17.6212 48.0563 17.3595 48.3738C16.4921 49.4218 16.0773 50.3189 16.3878 51.7955C16.1749 51.5069 15.9553 51.2249 15.7534 50.9273C14.753 49.464 14.591 47.8942 15.1656 46.2333C15.3896 45.5827 15.6181 44.9321 15.8288 44.2748C16.1993 43.1202 16.1749 41.9677 15.7401 40.8375C14.7863 38.355 14.682 35.8126 15.2942 33.2569C16.5498 28.001 19.6065 24.0752 24.2538 21.3729C25.6003 20.5913 27.0534 20.0429 28.5662 19.6698C28.6394 19.6521 28.7126 19.6343 28.7836 19.6121C28.7969 19.6099 28.808 19.5965 28.8524 19.5677C27.8009 17.8024 26.2459 16.6522 24.4424 15.7485C24.946 15.7263 25.4473 15.6863 25.9509 15.6819C27.8164 15.6663 29.6354 15.9572 31.3923 16.5967C32.985 17.1785 34.4181 18.0289 35.667 19.188C35.7668 19.2812 35.9176 19.3523 36.0551 19.3701C38.4686 19.7231 40.7557 20.4359 42.8209 21.7637C45.7357 23.6378 47.67 26.269 48.7193 29.5553C48.9433 30.257 49.2694 30.8743 49.7131 31.4494C50.1101 31.9646 50.4939 32.4908 50.8577 33.0282C51.0219 33.2702 51.1439 33.5389 51.226 33.8186V33.8253C51.3036 34.0829 50.9975 34.2783 50.7956 34.1028C49.8284 33.2569 48.5862 32.3442 47.029 31.496C46.9403 31.4472 46.8271 31.4805 46.7805 31.5715L46.7827 31.5826Z" fill="#4A4A4A"/>
</g>
<path d="M30.6514 47.912C30.6869 47.8165 30.6381 47.7121 30.5427 47.6766C28.808 47.0327 27.3994 46.2533 26.3058 45.5205C26.2015 45.4495 26.206 45.2896 26.3147 45.2297C26.3147 45.2297 26.3147 45.2297 26.3169 45.2297C26.7317 45.0054 27.1776 44.9898 27.6301 45.0409C28.5396 45.1408 29.3936 45.4495 30.2477 45.7492C31.6674 46.2466 33.0738 46.7928 34.5578 47.0793C34.9172 47.1481 35.281 47.2059 35.6448 47.2525C35.718 47.2614 35.8355 47.2103 35.8777 47.1481C37.1532 45.203 39.0143 44.1061 41.1927 43.471C43.0671 42.9248 44.9837 42.7671 46.927 42.8759C46.9491 42.8759 46.9691 42.8848 47.0423 42.9004C46.9358 42.9581 46.8626 42.9981 46.7894 43.0358C45.6647 43.6331 44.6732 44.3925 43.9034 45.4206C43.3222 46.2 42.954 47.066 42.8697 48.0408C42.8608 48.1296 42.8631 48.2184 42.8586 48.345C43.3577 48.2828 43.8391 48.2295 44.316 48.1629C46.572 47.8476 48.7726 47.3102 50.8555 46.3665C53.1492 45.3274 55.1324 43.8907 56.5498 41.7702C57.8187 39.8694 58.4576 37.7778 58.2912 35.4774C58.2624 35.091 58.1737 34.7069 58.0805 34.3294C57.9163 33.6566 57.4682 33.2236 56.816 33.0571C56.084 32.8705 55.3409 32.7373 54.5977 32.6063C53.6106 32.4331 52.6457 32.2177 51.7805 31.6759C50.7712 31.0431 50.0858 29.9151 49.8772 28.7449C50.4362 29.4865 51.2282 29.6087 52.0401 29.6064C52.8852 29.6042 53.7304 29.5309 54.5756 29.4954C54.8218 29.4843 55.0702 29.4843 55.3165 29.4999C55.6914 29.5243 56.0596 29.5953 56.3924 29.844C56.379 29.642 56.348 29.4599 56.3591 29.28C56.3791 28.8737 56.5432 28.5095 56.7473 28.1654C56.958 27.8123 57.1798 27.4659 57.395 27.1129C58.1049 25.9516 58.3888 25.0034 57.8719 23.5868C58.1226 23.8421 58.3822 24.0908 58.624 24.355C59.8218 25.6607 60.2033 27.1906 59.8706 28.9181C59.7397 29.5953 59.6066 30.2704 59.4913 30.952C59.2894 32.1467 59.4758 33.2858 60.0658 34.3427C61.3613 36.6631 61.8249 39.1656 61.5831 41.7835C61.0862 47.1637 58.6173 51.4847 54.3981 54.8198C53.1758 55.7857 51.8161 56.5318 50.372 57.118C50.3032 57.1469 50.2322 57.1735 50.1634 57.2046C50.1501 57.2091 50.1412 57.2224 50.1035 57.2579C51.3945 58.8566 53.096 59.7737 55.0104 60.411C54.5157 60.5042 54.0232 60.6152 53.5264 60.6907C51.6807 60.9705 49.8395 60.9417 48.0117 60.5575C46.3524 60.2067 44.8129 59.5694 43.4132 58.5991C43.3001 58.5214 43.1403 58.4725 43.0028 58.4725C40.5627 58.4658 38.198 58.0839 35.9664 57.0625C32.8164 55.6214 30.5272 53.2899 29.0232 50.1879C28.7037 49.524 28.2912 48.96 27.7699 48.4538C27.304 48.0008 26.8493 47.5345 26.4123 47.0526C26.2149 46.8373 26.0551 46.5886 25.9353 46.3221V46.3154C25.82 46.0712 26.0973 45.8336 26.3213 45.9802C27.3994 46.6796 28.757 47.4079 30.4185 48.0252C30.5139 48.0607 30.6204 48.0119 30.6558 47.9164L30.6514 47.912Z" fill="#292929"/>
<path d="M30.5095 47.61C30.545 47.5145 30.4962 47.4101 30.4008 47.3746C28.6661 46.7307 27.2574 45.9513 26.1638 45.2185C26.0596 45.1475 26.064 44.9876 26.1727 44.9276C26.1727 44.9276 26.1727 44.9276 26.1749 44.9276C26.5898 44.7034 27.0356 44.6878 27.4881 44.7389C28.3976 44.8388 29.2517 45.1475 30.1057 45.4472C31.5254 45.9446 32.9318 46.4908 34.4158 46.7773C34.7752 46.8461 35.139 46.9039 35.5028 46.9505C35.576 46.9594 35.6936 46.9083 35.7357 46.8461C37.0112 44.901 38.8724 43.8041 41.0507 43.169C42.9252 42.6228 44.8418 42.4651 46.785 42.5739C46.8072 42.5739 46.8271 42.5828 46.9003 42.5984C46.7938 42.6561 46.7207 42.6961 46.6475 42.7338C45.5228 43.3311 44.5312 44.0905 43.7615 45.1186C43.1803 45.898 42.812 46.764 42.7277 47.7388C42.7189 47.8276 42.7211 47.9164 42.7167 48.043C43.2158 47.9808 43.6971 47.9275 44.174 47.8609C46.43 47.5456 48.6306 47.0082 50.7135 46.0645C53.0072 45.0253 54.9904 43.5887 56.4079 41.4682C57.6768 39.5674 58.3156 37.4758 58.1492 35.1754C58.1204 34.789 58.0317 34.4049 57.9385 34.0274C57.7743 33.3546 57.3263 32.9216 56.6741 32.755C55.9421 32.5685 55.1989 32.4353 54.4558 32.3043C53.4687 32.1311 52.5037 31.9157 51.6386 31.3739C50.6293 30.7411 49.9438 29.6131 49.7353 28.4429C50.2943 29.1845 51.0862 29.3067 51.8981 29.3044C52.7433 29.3022 53.5884 29.2289 54.4336 29.1934C54.6798 29.1823 54.9283 29.1823 55.1745 29.1979C55.5494 29.2223 55.9177 29.2933 56.2504 29.542C56.2371 29.34 56.206 29.1579 56.2171 28.978C56.2371 28.5717 56.4012 28.2075 56.6053 27.8634C56.816 27.5103 57.0379 27.1639 57.253 26.8109C57.9629 25.6496 58.2469 24.7014 57.73 23.2848C57.9807 23.5401 58.2402 23.7888 58.482 24.053C59.6798 25.3587 60.0614 26.8886 59.7287 28.6161C59.5978 29.2933 59.4647 29.9684 59.3493 30.65C59.1475 31.8447 59.3338 32.9838 59.9238 34.0407C61.2193 36.3611 61.683 38.8636 61.4412 41.4815C60.9443 46.8617 58.4753 51.1827 54.2561 54.5178C53.0339 55.4837 51.6741 56.2298 50.23 56.816C50.1612 56.8449 50.0902 56.8715 50.0215 56.9026C50.0082 56.907 49.9993 56.9204 49.9616 56.9559C51.2526 58.5546 52.954 59.4717 54.8684 60.109C54.3737 60.2022 53.8813 60.3132 53.3844 60.3887C51.5387 60.6685 49.6976 60.6397 47.8697 60.2555C46.2105 59.9047 44.671 59.2674 43.2712 58.2971C43.1581 58.2193 42.9984 58.1705 42.8608 58.1705C40.4207 58.1638 38.0561 57.7819 35.8245 56.7605C32.6745 55.3194 30.3852 52.9879 28.8812 49.8859C28.5618 49.222 28.1492 48.658 27.6279 48.1518C27.1621 47.6988 26.7073 47.2325 26.2703 46.7506C26.0729 46.5353 25.9132 46.2866 25.7934 46.0201V46.0134C25.6781 45.7692 25.9553 45.5316 26.1794 45.6782C27.2575 46.3776 28.615 47.1059 30.2765 47.7232C30.3719 47.7587 30.4784 47.7099 30.5139 47.6144L30.5095 47.61Z" fill="url(#paint4_radial_68_40507)"/>
<g opacity="0.69">
<path d="M30.5095 47.61C30.545 47.5145 30.4962 47.4101 30.4008 47.3746C28.6661 46.7307 27.2574 45.9513 26.1638 45.2185C26.0596 45.1475 26.064 44.9876 26.1727 44.9276C26.1727 44.9276 26.1727 44.9276 26.1749 44.9276C26.5898 44.7034 27.0356 44.6878 27.4881 44.7389C28.3976 44.8388 29.2517 45.1475 30.1057 45.4472C31.5254 45.9446 32.9318 46.4908 34.4158 46.7773C34.7752 46.8461 35.139 46.9039 35.5028 46.9505C35.576 46.9594 35.6936 46.9083 35.7357 46.8461C37.0112 44.901 38.8724 43.8041 41.0507 43.169C42.9252 42.6228 44.8418 42.4651 46.785 42.5739C46.8072 42.5739 46.8271 42.5828 46.9003 42.5984C46.7938 42.6561 46.7207 42.6961 46.6475 42.7338C45.5228 43.3311 44.5312 44.0905 43.7615 45.1186C43.1803 45.898 42.812 46.764 42.7277 47.7388C42.7189 47.8276 42.7211 47.9164 42.7167 48.043C43.2158 47.9808 43.6971 47.9275 44.174 47.8609C46.43 47.5456 48.6306 47.0082 50.7135 46.0645C53.0072 45.0253 54.9904 43.5887 56.4079 41.4682C57.6768 39.5674 58.3156 37.4758 58.1492 35.1754C58.1204 34.789 58.0317 34.4049 57.9385 34.0274C57.7743 33.3546 57.3263 32.9216 56.6741 32.755C55.9421 32.5685 55.1989 32.4353 54.4558 32.3043C53.4687 32.1311 52.5037 31.9157 51.6386 31.3739C50.6293 30.7411 49.9438 29.6131 49.7353 28.4429C50.2943 29.1845 51.0862 29.3067 51.8981 29.3044C52.7433 29.3022 53.5884 29.2289 54.4336 29.1934C54.6798 29.1823 54.9283 29.1823 55.1745 29.1979C55.5494 29.2223 55.9177 29.2933 56.2504 29.542C56.2371 29.34 56.206 29.1579 56.2171 28.978C56.2371 28.5717 56.4012 28.2075 56.6053 27.8634C56.816 27.5103 57.0379 27.1639 57.253 26.8109C57.9629 25.6496 58.2469 24.7014 57.73 23.2848C57.9807 23.5401 58.2402 23.7888 58.482 24.053C59.6798 25.3587 60.0614 26.8886 59.7287 28.6161C59.5978 29.2933 59.4647 29.9684 59.3493 30.65C59.1475 31.8447 59.3338 32.9838 59.9238 34.0407C61.2193 36.3611 61.683 38.8636 61.4412 41.4815C60.9443 46.8617 58.4753 51.1827 54.2561 54.5178C53.0339 55.4837 51.6741 56.2298 50.23 56.816C50.1612 56.8449 50.0902 56.8715 50.0215 56.9026C50.0082 56.907 49.9993 56.9204 49.9616 56.9559C51.2526 58.5546 52.954 59.4717 54.8684 60.109C54.3737 60.2022 53.8813 60.3132 53.3844 60.3887C51.5387 60.6685 49.6976 60.6397 47.8697 60.2555C46.2105 59.9047 44.671 59.2674 43.2712 58.2971C43.1581 58.2193 42.9984 58.1705 42.8608 58.1705C40.4207 58.1638 38.0561 57.7819 35.8245 56.7605C32.6745 55.3194 30.3852 52.9879 28.8812 49.8859C28.5618 49.222 28.1492 48.658 27.6279 48.1518C27.1621 47.6988 26.7073 47.2325 26.2703 46.7506C26.0729 46.5353 25.9132 46.2866 25.7934 46.0201V46.0134C25.6781 45.7692 25.9553 45.5316 26.1794 45.6782C27.2575 46.3776 28.615 47.1059 30.2765 47.7232C30.3719 47.7587 30.4784 47.7099 30.5139 47.6144L30.5095 47.61Z" fill="#4A4A4A"/>
</g>
<path d="M41.0308 38.4328L39.6155 36.9917L38.3001 35.6505H38.2979C38.2025 35.7505 35.6825 38.375 35.6803 38.375C35.1922 38.8835 34.9704 39.6829 35.2344 40.3424C35.2699 40.4356 35.3165 40.5245 35.372 40.6088C35.423 40.6866 35.4807 40.7598 35.5428 40.8264C35.545 40.8287 35.5472 40.8309 35.5516 40.8353C35.9487 41.2661 36.572 41.497 37.151 41.4593C37.7344 41.4215 38.4288 41.0596 38.5973 40.4578C38.6816 40.1581 38.6084 39.8428 38.4775 39.5697C38.4775 39.5697 38.4021 39.3587 38.1892 39.1877C37.9762 39.0145 37.6235 38.8858 37.0645 39.0567L36.7983 39.1478L36.084 39.3898C35.9664 39.4253 35.8555 39.3498 35.8245 39.2499C35.8045 39.1966 35.8089 39.1389 35.8444 39.0834C35.8932 39.0034 36.1927 38.8014 36.3391 38.7015C36.3391 38.7015 36.4922 38.5172 36.6253 38.3173C36.8338 38.002 37.1466 37.7622 37.5192 37.6801C37.7987 37.6201 38.1559 37.6245 38.5818 37.7844C38.8258 37.8754 39.092 38.0153 39.3826 38.2241C39.4359 38.2618 39.4979 38.2884 39.5623 38.2929C39.6577 38.2996 39.8152 38.3284 39.9616 38.4372C40.1213 38.5549 40.2677 38.7659 40.3054 39.15C40.3054 39.15 40.0237 38.8258 39.5711 38.8525C39.5623 38.8525 39.5556 38.8525 39.5468 38.8525C39.5468 38.8525 39.5645 38.8613 39.5956 38.8813C39.7021 38.9568 39.9527 39.1966 39.895 39.754C39.895 39.754 39.8618 40.3246 39.3183 40.8553C39.2007 40.973 39.1896 41.1395 39.2584 41.2639C39.3072 41.3549 39.3959 41.4215 39.5135 41.4371H39.5201C40.2522 41.5303 40.9199 41.0818 41.2659 40.4578C41.6408 39.7806 41.5876 39.0012 41.0308 38.435V38.4328ZM38.3067 36.2856L38.7881 36.8185L38.3178 37.3692L38.1825 37.2248L37.8165 36.8363L38.2979 36.2945L38.3067 36.2856Z" fill="#292929"/>
<path d="M39.671 42.4918C39.671 42.5629 39.6156 42.6206 39.5446 42.6206L37.6923 42.6406C37.6213 42.6406 37.5636 42.5851 37.5636 42.514C37.5636 42.4718 37.5858 42.4296 37.6213 42.4052C37.6834 42.3652 37.7721 42.383 37.8409 42.3586C37.9052 42.3364 37.9629 42.3008 38.0139 42.2564C38.1204 42.1654 38.1959 42.0411 38.2624 41.9211C38.2935 41.8656 38.3201 41.8101 38.3511 41.7568C38.451 41.5681 38.5441 41.3727 38.6218 41.1729C38.7282 41.4926 38.8747 41.7879 39.0521 42.0744C39.1209 42.1876 39.2229 42.2809 39.3471 42.3275C39.4092 42.3519 39.4758 42.363 39.5424 42.3675C39.6089 42.3719 39.6666 42.4208 39.6666 42.4918H39.671Z" fill="#292929"/>
<path d="M40.891 38.2951L39.6133 36.9939L38.2978 35.6528L38.1603 35.5129C38.1603 35.5129 35.5427 38.2374 35.5405 38.2374C35.0081 38.7925 34.7907 39.694 35.1789 40.3846C35.1944 40.4134 35.2122 40.4423 35.2322 40.4712C35.3187 40.6022 35.4229 40.7221 35.5449 40.8265C35.5472 40.8287 35.5494 40.8309 35.5538 40.8353C35.9509 41.1751 36.501 41.3549 37.0134 41.3194C37.5968 41.2816 38.2911 40.9197 38.4597 40.318C38.544 40.0182 38.4708 39.7029 38.3399 39.4298C38.3399 39.4298 38.2978 39.3143 38.1936 39.1855C38.0338 38.9901 37.7233 38.7659 37.1798 38.8547C37.1021 38.868 37.0179 38.888 36.9291 38.9146L35.9487 39.2477C35.9065 39.261 35.8644 39.2588 35.8289 39.2477C35.7069 39.21 35.6292 39.0656 35.7069 38.9435C35.7557 38.8658 36.0574 38.6615 36.2015 38.5616C36.2015 38.5616 36.3546 38.3773 36.4877 38.1774C36.6962 37.8621 37.0112 37.6223 37.3817 37.5402C37.7056 37.4713 38.1315 37.4869 38.6505 37.7311C38.8369 37.8155 39.0343 37.931 39.245 38.082C39.2983 38.1219 39.3604 38.1464 39.4247 38.1508C39.5534 38.1597 39.7907 38.2085 39.9637 38.4328C40.0613 38.5594 40.1412 38.7437 40.1656 39.0057C40.1656 39.0057 39.875 38.6704 39.4092 38.7081C39.4092 38.7081 39.489 38.7437 39.5733 38.8458C39.5822 38.8547 39.5889 38.8658 39.5977 38.8769C39.6998 39.0123 39.7952 39.241 39.7575 39.6119C39.7575 39.6119 39.7242 40.1825 39.1807 40.7132C39.0077 40.882 39.0654 41.1595 39.2606 41.2594C39.2938 41.2772 39.3315 41.2883 39.3737 41.295H39.3804C40.1146 41.3882 40.7801 40.9397 41.1261 40.3157C41.501 39.6385 41.4478 38.8591 40.891 38.2929V38.2951ZM38.178 37.2293L37.6767 36.6964L38.167 36.1457L38.3 36.2923L38.6505 36.6764L38.1847 37.2204L38.1802 37.2248L38.178 37.2293Z" fill="url(#paint5_radial_68_40507)"/>
<path d="M39.529 42.3541C39.529 42.4252 39.4735 42.4829 39.4025 42.4829L37.5503 42.5029C37.4793 42.5029 37.4216 42.4474 37.4216 42.3763C37.4216 42.3341 37.4438 42.2919 37.4793 42.2675C37.5414 42.2275 37.6301 42.2453 37.6989 42.2209C37.7632 42.1987 37.8209 42.1632 37.8719 42.1187C37.9784 42.0277 38.0538 41.9034 38.1204 41.7835C38.1514 41.7279 38.1781 41.6724 38.2091 41.6191C38.309 41.4304 38.4021 41.235 38.4798 41.0352C38.5862 41.3549 38.7326 41.6502 38.9101 41.9367C38.9789 42.0499 39.0809 42.1432 39.2051 42.1898C39.2672 42.2142 39.3338 42.2253 39.4003 42.2298C39.4669 42.2342 39.5246 42.2831 39.5246 42.3541H39.529Z" fill="url(#paint6_radial_68_40507)"/>
<g opacity="0.69">
<path d="M40.891 38.2951L39.6133 36.9939L38.2978 35.6528L38.1603 35.5129C38.1603 35.5129 35.5427 38.2374 35.5405 38.2374C35.0081 38.7925 34.7907 39.694 35.1789 40.3846C35.1944 40.4134 35.2122 40.4423 35.2322 40.4712C35.3187 40.6022 35.4229 40.7221 35.5449 40.8265C35.5472 40.8287 35.5494 40.8309 35.5538 40.8353C35.9509 41.1751 36.501 41.3549 37.0134 41.3194C37.5968 41.2816 38.2911 40.9197 38.4597 40.318C38.544 40.0182 38.4708 39.7029 38.3399 39.4298C38.3399 39.4298 38.2978 39.3143 38.1936 39.1855C38.0338 38.9901 37.7233 38.7659 37.1798 38.8547C37.1021 38.868 37.0179 38.888 36.9291 38.9146L35.9487 39.2477C35.9065 39.261 35.8644 39.2588 35.8289 39.2477C35.7069 39.21 35.6292 39.0656 35.7069 38.9435C35.7557 38.8658 36.0574 38.6615 36.2015 38.5616C36.2015 38.5616 36.3546 38.3773 36.4877 38.1774C36.6962 37.8621 37.0112 37.6223 37.3817 37.5402C37.7056 37.4713 38.1315 37.4869 38.6505 37.7311C38.8369 37.8155 39.0343 37.931 39.245 38.082C39.2983 38.1219 39.3604 38.1464 39.4247 38.1508C39.5534 38.1597 39.7907 38.2085 39.9637 38.4328C40.0613 38.5594 40.1412 38.7437 40.1656 39.0057C40.1656 39.0057 39.875 38.6704 39.4092 38.7081C39.4092 38.7081 39.489 38.7437 39.5733 38.8458C39.5822 38.8547 39.5889 38.8658 39.5977 38.8769C39.6998 39.0123 39.7952 39.241 39.7575 39.6119C39.7575 39.6119 39.7242 40.1825 39.1807 40.7132C39.0077 40.882 39.0654 41.1595 39.2606 41.2594C39.2938 41.2772 39.3315 41.2883 39.3737 41.295H39.3804C40.1146 41.3882 40.7801 40.9397 41.1261 40.3157C41.501 39.6385 41.4478 38.8591 40.891 38.2929V38.2951ZM38.178 37.2293L37.6767 36.6964L38.167 36.1457L38.3 36.2923L38.6505 36.6764L38.1847 37.2204L38.1802 37.2248L38.178 37.2293Z" fill="#4A4A4A"/>
<path d="M39.529 42.3541C39.529 42.4252 39.4735 42.4829 39.4025 42.4829L37.5503 42.5029C37.4793 42.5029 37.4216 42.4474 37.4216 42.3763C37.4216 42.3341 37.4438 42.2919 37.4793 42.2675C37.5414 42.2275 37.6301 42.2453 37.6989 42.2209C37.7632 42.1987 37.8209 42.1632 37.8719 42.1187C37.9784 42.0277 38.0538 41.9034 38.1204 41.7835C38.1514 41.7279 38.1781 41.6724 38.2091 41.6191C38.309 41.4304 38.4021 41.235 38.4798 41.0352C38.5862 41.3549 38.7326 41.6502 38.9101 41.9367C38.9789 42.0499 39.0809 42.1432 39.2051 42.1898C39.2672 42.2142 39.3338 42.2253 39.4003 42.2298C39.4669 42.2342 39.5246 42.2831 39.5246 42.3541H39.529Z" fill="#4A4A4A"/>
</g>
<path d="M60.8311 12.5666L60.4407 12.9063L59.7907 13.4703L59.2983 13.8988L34.6443 35.2864L34.1585 35.7083L24.1141 44.4214L23.6527 44.8233L11.0107 55.7924L10.4029 56.3208L9.75517 56.8826L9.47123 57.1291C7.00893 53.2611 5.30088 48.8623 4.56219 44.1416L4.65979 44.0572L5.39844 43.4177L6.11055 42.7938L28.6527 23.2137L28.7969 23.0894L32.761 19.641H32.7654L33.7193 18.8083H33.7215L37.2907 15.7063L37.4593 15.5642L39.9038 13.4392L39.9127 13.4348L47.1154 7.1775L47.7144 6.65791L48.2623 6.18273L48.8391 5.68091C53.3155 7.14642 57.3861 9.51343 60.8333 12.5688L60.8311 12.5666Z" fill="url(#paint7_linear_68_40507)"/>
<path d="M72.3196 37.1183L72.2952 37.1405L70.9088 38.3306L70.2522 38.8946L48.0095 58.0306L47.486 58.4814L45.1989 60.4509L44.793 60.8017L44.6377 60.9328L43.99 61.4879L42.1687 63.0555L41.5521 63.5862L33.9034 70.1677L33.1292 70.8294L32.1088 71.7087L31.4633 72.266C28.4065 71.6487 25.4962 70.6229 22.7965 69.2462L23.2978 68.8154L24.0942 68.1315L24.7419 67.572L32.0267 61.3036L32.5192 60.8795L34.7752 58.941L35.2122 58.5613L36.927 57.0891L37.6301 56.4874L40.5827 53.9472L41.2482 53.3743L53.8768 42.5096L54.305 42.1432H54.3094L59.7265 37.478L60.281 36.9984L69.072 29.4377L69.6089 28.978L70.6248 28.1009L70.7979 27.9522C71.7052 30.8588 72.2309 33.9341 72.3219 37.116L72.3196 37.1183Z" fill="url(#paint8_linear_68_40507)"/>
<path d="M72.3373 38.8123C72.3373 57.6596 57.0733 72.9387 38.2423 72.9387C35.922 72.9387 33.6549 72.7055 31.4655 72.2637C28.4087 71.6464 25.4983 70.6205 22.7987 69.2438C17.3483 66.466 12.7387 62.2649 9.47121 57.129C7.00892 53.2609 5.30087 48.8622 4.56218 44.1415C4.28712 42.405 4.14734 40.6242 4.14734 38.8123C4.14734 38.7302 4.14734 38.6502 4.14956 38.5681V38.3705C4.38692 19.723 19.5577 4.68155 38.2401 4.68155C41.7295 4.68155 45.0946 5.20558 48.2623 6.18036C52.7987 7.57482 56.9291 9.89076 60.4407 12.9084C65.0924 16.9074 68.6572 22.1411 70.6226 28.1008C71.5676 30.9652 72.1443 33.9961 72.2974 37.1381C72.3151 37.5467 72.3306 37.9575 72.3351 38.3705V38.5681C72.3373 38.6502 72.3373 38.7302 72.3373 38.8123Z" fill="url(#paint9_linear_68_40507)" style="mix-blend-mode:difference"/>
</g>
<defs>
<filter id="filter0_f_68_40507" x="0.147339" y="0" width="76.1899" height="77.9669" filterUnits="userSpaceOnUse" color-interpolation-filters="sRGB">
<feFlood flood-opacity="0" result="BackgroundImageFix"/>
<feBlend mode="normal" in="SourceGraphic" in2="BackgroundImageFix" result="shape"/>
<feGaussianBlur stdDeviation="2" result="effect1_foregroundBlur_68_40507"/>
</filter>
<linearGradient id="paint0_linear_68_40507" x1="27.1376" y1="71.0891" x2="49.3839" y2="6.54703" gradientUnits="userSpaceOnUse">
<stop stop-color="#A7A7A7"/>
<stop offset="0.51" stop-color="#BABABA"/>
<stop offset="1" stop-color="#D2D2D2"/>
</linearGradient>
<linearGradient id="paint1_linear_68_40507" x1="38.218" y1="7.30185" x2="38.218" y2="70.4586" gradientUnits="userSpaceOnUse">
<stop stop-color="#3B3B3B"/>
<stop offset="0.22" stop-color="#4F4F4F"/>
<stop offset="0.58" stop-color="#787878"/>
<stop offset="1" stop-color="#EAEAEA"/>
</linearGradient>
<linearGradient id="paint2_linear_68_40507" x1="28.2379" y1="68.0693" x2="48.3709" y2="9.65884" gradientUnits="userSpaceOnUse">
<stop stop-color="#A7A7A7"/>
<stop offset="0.51" stop-color="#BABABA"/>
<stop offset="1" stop-color="#D2D2D2"/>
</linearGradient>
<radialGradient id="paint3_radial_68_40507" cx="0" cy="0" r="1" gradientUnits="userSpaceOnUse" gradientTransform="translate(31.9279 37.1537) rotate(19.788) scale(18.1187 18.1325)">
<stop stop-color="white"/>
<stop offset="0.6" stop-color="#DDDDDD"/>
<stop offset="1" stop-color="#CCCCCC"/>
</radialGradient>
<radialGradient id="paint4_radial_68_40507" cx="0" cy="0" r="1" gradientUnits="userSpaceOnUse" gradientTransform="translate(45.3878 39.6085) rotate(19.788) scale(17.9834 17.9971)">
<stop stop-color="white"/>
<stop offset="0.6" stop-color="#DDDDDD"/>
<stop offset="1" stop-color="#CCCCCC"/>
</radialGradient>
<radialGradient id="paint5_radial_68_40507" cx="0" cy="0" r="1" gradientUnits="userSpaceOnUse" gradientTransform="translate(38.1736 38.4172) scale(3.05014 3.05314)">
<stop stop-color="white"/>
<stop offset="0.6" stop-color="#DDDDDD"/>
<stop offset="1" stop-color="#CCCCCC"/>
</radialGradient>
<radialGradient id="paint6_radial_68_40507" cx="0" cy="0" r="1" gradientUnits="userSpaceOnUse" gradientTransform="translate(38.4775 41.7679) scale(0.907277 0.908169)">
<stop stop-color="white"/>
<stop offset="0.6" stop-color="#DDDDDD"/>
<stop offset="1" stop-color="#CCCCCC"/>
</radialGradient>
<linearGradient id="paint7_linear_68_40507" x1="-6.78209" y1="64.8696" x2="54.1738" y2="8.60292" gradientUnits="userSpaceOnUse">
<stop stop-color="white" stop-opacity="0"/>
<stop offset="1" stop-color="white" stop-opacity="0.3"/>
</linearGradient>
<linearGradient id="paint8_linear_68_40507" x1="13.5374" y1="84.6473" x2="74.3912" y2="28.476" gradientUnits="userSpaceOnUse">
<stop stop-color="white" stop-opacity="0"/>
<stop offset="1" stop-color="white" stop-opacity="0.3"/>
</linearGradient>
<linearGradient id="paint9_linear_68_40507" x1="27.1376" y1="71.089" x2="49.3839" y2="6.5469" gradientUnits="userSpaceOnUse">
<stop stop-color="#EDEDED"/>
<stop offset="0.51" stop-color="#E8E8E8"/>
<stop offset="1" stop-color="#F2F2F2"/>
</linearGradient>
</defs>
</svg>
