<svg width="25" height="24" viewBox="0 0 25 24" fill="none" xmlns="http://www.w3.org/2000/svg">
<path d="M22.6688 5.7455C22.6889 5.7795 22.7098 5.81351 22.7283 5.84751C22.7569 5.89542 22.7847 5.94488 22.8125 5.99357L22.821 6.00748C22.8419 6.04457 22.8612 6.08012 22.8805 6.11644C25.9014 11.6381 24.0297 18.6009 18.5745 21.8428C17.6742 22.3784 16.7322 22.7787 15.7701 23.0515C14.7739 23.3335 13.7577 23.4781 12.7461 23.4927C10.7291 23.5206 8.73221 23.0275 6.96097 22.0654C5.65804 21.3583 4.47798 20.4 3.50117 19.2068C3.19127 18.8297 2.90148 18.4286 2.63486 18.0051L2.62636 17.9912C2.597 17.9433 2.56686 17.8962 2.53826 17.8475C2.5174 17.815 2.49731 17.781 2.47721 17.7462C-0.835759 12.1713 0.995765 4.96421 6.57303 1.64969C8.10857 0.737017 9.76621 0.21538 11.4339 0.0554119C12.9494 -0.0929647 14.4725 0.0585028 15.9146 0.487404C17.8504 1.06004 19.641 2.13114 21.0807 3.64427C21.6742 4.27024 22.2098 4.97116 22.6696 5.74473L22.6688 5.7455Z" fill="#A37417"/>
<path d="M22.9694 6.25168C26.2832 11.8274 24.4516 19.0329 18.8736 22.3482C17.7956 22.9889 16.6557 23.4379 15.4949 23.7022C14.515 23.9278 13.5205 24.0229 12.5351 23.9943C10.5344 23.9348 8.57225 23.3644 6.84737 22.3374C5.55989 21.5685 4.40611 20.5453 3.46716 19.2856C3.22219 18.958 2.99112 18.6125 2.77706 18.2524C2.74692 18.2014 2.71678 18.1512 2.68896 18.0994C2.66964 18.0669 2.65109 18.036 2.63409 18.0043L2.62559 17.9904C-0.478725 12.4518 1.38448 5.42015 6.87442 2.15818C8.24458 1.34443 9.71135 0.840569 11.1967 0.627277C12.7299 0.405485 14.2793 0.493584 15.7561 0.866844C17.7059 1.36066 19.5297 2.35061 21.0189 3.78801C21.6904 4.43329 22.2948 5.17054 22.8125 5.99279L22.821 6.0067C22.8404 6.03761 22.8589 6.06853 22.8782 6.10021C22.8813 6.10253 22.8829 6.10562 22.8829 6.10794C22.913 6.15431 22.9416 6.20222 22.9702 6.25013L22.9694 6.25168Z" fill="#6D3C1B"/>
<path d="M22.7886 5.94721C22.8187 5.99821 22.8496 6.04999 22.8774 6.10099C22.8805 6.10331 22.8821 6.1064 22.8821 6.10872C26.0675 11.6628 24.2167 18.7609 18.6928 22.0438C17.7206 22.621 16.6997 23.0422 15.6588 23.3142C14.6696 23.5747 13.6619 23.6983 12.6611 23.6937C10.6503 23.6883 8.66807 23.1651 6.9146 22.1751C5.61862 21.4456 4.44784 20.4603 3.48571 19.2408C3.20132 18.8807 2.9347 18.5013 2.68895 18.1002C2.65727 18.0515 2.62636 17.9997 2.59622 17.9487C2.57613 17.9155 2.55603 17.8815 2.53749 17.8475C-0.695114 12.2872 1.14878 5.14737 6.69203 1.85294C8.16266 0.97891 9.74457 0.462681 11.3396 0.279529C12.862 0.104105 14.396 0.230071 15.852 0.635789C17.7925 1.17829 19.5962 2.21693 21.0552 3.69992C21.6819 4.33516 22.2453 5.05154 22.7275 5.84752C22.7484 5.87997 22.7685 5.91398 22.7886 5.94721Z" fill="url(#paint0_linear_68_39377)"/>
<path d="M22.0382 6.42093C25.1046 11.5809 23.4084 18.2486 18.2492 21.315C13.09 24.3815 6.42233 22.6844 3.35588 17.5244C0.290202 12.366 1.98649 5.69759 7.14489 2.63191C12.3033 -0.433767 18.9717 1.26252 22.0374 6.42093H22.0382Z" fill="url(#paint1_linear_68_39377)" stroke="#281401" stroke-width="0.04" stroke-miterlimit="10"/>
<path d="M21.852 6.52216C24.8512 11.5685 23.1905 18.0909 18.1449 21.0901C13.0985 24.0893 6.57691 22.4301 3.5777 17.3838C0.57848 12.3374 2.23767 5.81583 7.28402 2.81661C12.3304 -0.182607 18.8528 1.47581 21.852 6.52216Z" fill="url(#paint2_linear_68_39377)"/>
<g style="mix-blend-mode:multiply">
<path d="M21.7113 8.79881C21.6657 8.92787 21.5738 9.01829 21.4671 9.09557C21.2523 9.25167 21.0089 9.35213 20.7678 9.45414C20.4285 9.59866 20.0861 9.73312 19.7631 9.90855L19.7593 9.91086C19.726 9.93096 19.6905 9.94719 19.6565 9.96651C19.0251 10.3119 18.3899 10.6612 17.8443 11.1357C16.6665 12.1612 15.6642 13.8235 15.9084 15.441C16.0073 16.0963 16.2778 16.6674 16.7624 17.128C16.8443 17.2053 16.9386 17.2694 17.0313 17.332C17.1982 17.4441 17.379 17.4495 17.5506 17.3575C17.7438 17.2555 17.93 17.138 18.114 17.0213C18.3589 16.866 18.6086 16.723 18.8991 16.6713C19.2392 16.6094 19.6062 16.7169 19.8783 16.9263C19.614 16.8776 19.4208 17.0051 19.2484 17.1651C19.0676 17.3305 18.8999 17.5113 18.7268 17.6836C18.6758 17.7339 18.6225 17.7826 18.5668 17.8266C18.481 17.8946 18.3899 17.9502 18.2701 17.9634C18.3126 18.0036 18.3535 18.0368 18.3868 18.077C18.461 18.1689 18.4981 18.2787 18.5212 18.3923C18.5436 18.509 18.5645 18.6272 18.5869 18.7439C18.6611 19.1303 18.7848 19.3884 19.1727 19.5917C19.0684 19.5855 18.9648 19.5832 18.862 19.5739C18.3504 19.5283 17.9702 19.274 17.7044 18.8397C17.6001 18.6689 17.4973 18.4982 17.3899 18.3312C17.2005 18.036 16.9378 17.8281 16.6039 17.7176C16.4471 17.6651 16.2956 17.6033 16.1526 17.5329C16.1464 17.6921 16.1294 17.8537 16.1008 18.0175C16.0382 18.3629 16.0962 18.6929 16.2647 19.0013C16.3597 19.1759 16.461 19.3482 16.5607 19.5206C16.8157 19.9611 16.8566 20.417 16.6526 20.8884C16.6117 20.9835 16.5637 21.0754 16.5197 21.1697C16.5274 20.7315 16.3597 20.4997 16.0552 20.2501C15.9633 20.1744 15.8698 20.1002 15.7778 20.0237C15.6897 19.9487 15.6109 19.8637 15.5653 19.7547C15.5468 19.706 15.5367 19.6543 15.522 19.5978C15.4532 19.6968 15.3605 19.7501 15.26 19.7934C15.1944 19.8212 15.1263 19.8444 15.0576 19.8652C14.8226 19.9356 14.5846 19.9966 14.3528 20.0762C14.1302 20.1519 13.9254 20.2609 13.842 20.5159C13.7879 20.1767 13.869 19.8034 14.0854 19.5337C14.2701 19.3034 14.5143 19.1527 14.7678 19.0121C14.9579 18.9062 15.1511 18.7988 15.3327 18.6774C15.4957 18.5708 15.5769 18.4093 15.5583 18.2091C15.5475 18.0979 15.5367 17.9843 15.5073 17.8753C15.335 17.23 14.9617 16.7192 14.4339 16.3189C13.1302 15.3312 11.192 15.417 9.72683 15.9618C9.04986 16.2146 8.43935 16.6056 7.83503 16.9943C7.8018 17.0152 7.77089 17.0384 7.73611 17.0592L7.73225 17.0615C7.4239 17.2617 7.14183 17.4989 6.85281 17.7269C6.64802 17.89 6.44323 18.0553 6.20366 18.1697C6.08465 18.2261 5.961 18.264 5.82653 18.2424C5.67739 18.2176 5.60242 18.1295 5.61711 17.9804C5.62484 17.9023 5.64184 17.8196 5.67275 17.7478C5.74926 17.5708 5.82963 17.3954 5.91772 17.223C6.012 17.0353 6.07074 16.8421 6.09624 16.6295C6.21448 15.6388 6.61942 14.7833 7.34585 14.0894C7.85976 13.5979 8.47181 13.2694 9.13951 13.036C9.17737 13.0237 9.21678 12.9943 9.24074 12.9634C9.53054 12.5646 9.89298 12.2447 10.3134 11.9912C10.7778 11.7122 11.2794 11.5291 11.8118 11.4309C11.9548 11.4039 12.1001 11.3869 12.2454 11.366C11.7817 11.7223 11.4023 12.135 11.2006 12.6952C11.2137 12.7007 11.2183 12.703 11.2222 12.7037C11.2431 12.7053 11.2647 12.7068 11.2871 12.7076C11.7384 12.73 12.1812 12.805 12.6078 12.9541C13.0182 13.0971 13.3999 13.2741 13.7492 13.485C13.7291 13.0778 13.7562 12.6581 13.8273 12.2292C13.9007 11.7833 14.046 11.3583 14.2423 10.9518C14.2515 10.9317 14.2616 10.9124 14.2693 10.8931C14.2709 10.8892 14.2709 10.8838 14.2724 10.8699C13.6843 10.7787 13.1403 10.9147 12.6055 11.152C12.6928 11.0345 12.7778 10.9147 12.8698 10.8027C13.2106 10.3823 13.6109 10.0291 14.0784 9.75399C14.5012 9.50515 14.9556 9.34054 15.4447 9.2764C15.4834 9.27021 15.5282 9.24935 15.5568 9.2223C16.0807 8.74781 16.6619 8.36682 17.3389 8.15044C18.2956 7.84364 19.2407 7.89696 20.1673 8.26713C20.3659 8.34595 20.5645 8.38691 20.7739 8.39387C20.9671 8.39928 21.1603 8.41242 21.352 8.43019C21.43 8.43792 21.5112 8.46187 21.583 8.49279C21.7214 8.55075 21.7631 8.65971 21.7129 8.8019L21.7113 8.79881Z" fill="#3A2415"/>
<path d="M21.5645 9.02756C21.5189 9.15661 21.4269 9.24703 21.3203 9.32431C21.1054 9.48042 20.862 9.58088 20.6209 9.68289C20.2816 9.8274 19.9393 9.96187 19.6163 10.1373L19.6124 10.1396C19.5792 10.1597 19.5436 10.1759 19.5096 10.1952C18.8782 10.5407 18.243 10.89 17.6974 11.3645C16.5197 12.39 15.5174 14.0523 15.7616 15.6697C15.8605 16.3251 16.131 16.8962 16.6155 17.3567C16.6974 17.434 16.7917 17.4982 16.8844 17.5608C17.0514 17.6728 17.2322 17.6782 17.4038 17.5863C17.597 17.4843 17.7832 17.3668 17.9671 17.2501C18.2121 17.0948 18.4617 16.9518 18.7523 16.9C19.0923 16.8382 19.4594 16.9456 19.7314 17.155C19.4671 17.1064 19.2739 17.2339 19.1016 17.3938C18.9208 17.5592 18.7531 17.74 18.58 17.9124C18.5289 17.9626 18.4756 18.0113 18.42 18.0553C18.3342 18.1234 18.243 18.179 18.1232 18.1921C18.1657 18.2323 18.2067 18.2655 18.2399 18.3057C18.3141 18.3977 18.3512 18.5074 18.3744 18.621C18.3968 18.7377 18.4177 18.856 18.4401 18.9727C18.5143 19.3591 18.6379 19.6172 19.0258 19.8204C18.9215 19.8142 18.818 19.8119 18.7152 19.8026C18.2036 19.757 17.8234 19.5028 17.5575 19.0685C17.4532 18.8977 17.3504 18.7269 17.243 18.56C17.0537 18.2648 16.7909 18.0569 16.4571 17.9464C16.3002 17.8938 16.1487 17.832 16.0058 17.7617C15.9996 17.9209 15.9826 18.0824 15.954 18.2462C15.8914 18.5917 15.9494 18.9217 16.1178 19.23C16.2129 19.4046 16.3141 19.577 16.4138 19.7493C16.6688 20.1898 16.7098 20.6458 16.5058 21.1172C16.4648 21.2122 16.4169 21.3042 16.3728 21.3985C16.3806 20.9603 16.2129 20.7284 15.9084 20.4788C15.8164 20.4031 15.7229 20.3289 15.631 20.2524C15.5429 20.1774 15.464 20.0924 15.4184 19.9835C15.3999 19.9348 15.3899 19.883 15.3752 19.8266C15.3064 19.9255 15.2137 19.9788 15.1132 20.0221C15.0475 20.0499 14.9795 20.0731 14.9107 20.094C14.6758 20.1643 14.4378 20.2254 14.2059 20.305C13.9834 20.3807 13.7786 20.4896 13.6951 20.7447C13.641 20.4054 13.7222 20.0322 13.9385 19.7624C14.1232 19.5322 14.3674 19.3815 14.6209 19.2408C14.811 19.1349 15.0042 19.0275 15.1858 18.9062C15.3489 18.7995 15.43 18.638 15.4115 18.4379C15.4007 18.3266 15.3899 18.213 15.3605 18.104C15.1882 17.4587 14.8149 16.9479 14.2871 16.5476C12.9834 15.56 11.0452 15.6458 9.57998 16.1906C8.90301 16.4433 8.2925 16.8343 7.68818 17.223C7.65495 17.2439 7.62404 17.2671 7.58926 17.288L7.5854 17.2903C7.27705 17.4904 6.99498 17.7277 6.70596 17.9557C6.50116 18.1187 6.29637 18.2841 6.05681 18.3985C5.9378 18.4549 5.81415 18.4927 5.67968 18.4711C5.53053 18.4464 5.45557 18.3583 5.47026 18.2091C5.47799 18.1311 5.49499 18.0484 5.5259 17.9765C5.60241 17.7996 5.68277 17.6241 5.77087 17.4518C5.86515 17.264 5.92389 17.0708 5.94939 16.8583C6.06763 15.8676 6.47257 15.0121 7.199 14.3181C7.71291 13.8266 8.32496 13.4982 8.99266 13.2648C9.03052 13.2524 9.06993 13.2231 9.09389 13.1922C9.38369 12.7934 9.74613 12.4734 10.1665 12.22C10.631 11.941 11.1325 11.7578 11.665 11.6597C11.8079 11.6326 11.9532 11.6156 12.0985 11.5948C11.6348 11.951 11.2554 12.3637 11.0537 12.924C11.0668 12.9294 11.0715 12.9317 11.0753 12.9325C11.0962 12.934 11.1178 12.9356 11.1403 12.9364C11.5916 12.9588 12.0344 13.0337 12.461 13.1829C12.8713 13.3258 13.2531 13.5028 13.6024 13.7138C13.5823 13.3065 13.6093 12.8869 13.6804 12.458C13.7538 12.0121 13.8991 11.5871 14.0954 11.1806C14.1047 11.1605 14.1147 11.1411 14.1225 11.1218C14.124 11.118 14.124 11.1126 14.1256 11.0986C13.5375 11.0075 12.9934 11.1435 12.4586 11.3807C12.546 11.2633 12.631 11.1435 12.7229 11.0314C13.0637 10.611 13.464 10.2578 13.9316 9.98273C14.3543 9.73389 14.8087 9.56929 15.2979 9.50514C15.3365 9.49896 15.3814 9.4781 15.4099 9.45105C15.9339 8.97655 16.515 8.59556 17.192 8.37918C18.1487 8.07238 19.0939 8.12571 20.0204 8.49587C20.219 8.5747 20.4177 8.61566 20.6271 8.62261C20.8203 8.62802 21.0135 8.64116 21.2051 8.65893C21.2832 8.66666 21.3643 8.69062 21.4362 8.72153C21.5745 8.77949 21.6163 8.88845 21.566 9.03065L21.5645 9.02756Z" fill="url(#paint3_radial_68_39377)"/>
<path opacity="0.85" d="M21.5645 9.02756C21.5189 9.15661 21.4269 9.24703 21.3203 9.32431C21.1054 9.48042 20.862 9.58088 20.6209 9.68289C20.2816 9.8274 19.9393 9.96187 19.6163 10.1373L19.6124 10.1396C19.5792 10.1597 19.5436 10.1759 19.5096 10.1952C18.8782 10.5407 18.243 10.89 17.6974 11.3645C16.5197 12.39 15.5174 14.0523 15.7616 15.6697C15.8605 16.3251 16.131 16.8962 16.6155 17.3567C16.6974 17.434 16.7917 17.4982 16.8844 17.5608C17.0514 17.6728 17.2322 17.6782 17.4038 17.5863C17.597 17.4843 17.7832 17.3668 17.9671 17.2501C18.2121 17.0948 18.4617 16.9518 18.7523 16.9C19.0923 16.8382 19.4594 16.9456 19.7314 17.155C19.4671 17.1064 19.2739 17.2339 19.1016 17.3938C18.9208 17.5592 18.7531 17.74 18.58 17.9124C18.5289 17.9626 18.4756 18.0113 18.42 18.0553C18.3342 18.1234 18.243 18.179 18.1232 18.1921C18.1657 18.2323 18.2067 18.2655 18.2399 18.3057C18.3141 18.3977 18.3512 18.5074 18.3744 18.621C18.3968 18.7377 18.4177 18.856 18.4401 18.9727C18.5143 19.3591 18.6379 19.6172 19.0258 19.8204C18.9215 19.8142 18.818 19.8119 18.7152 19.8026C18.2036 19.757 17.8234 19.5028 17.5575 19.0685C17.4532 18.8977 17.3504 18.7269 17.243 18.56C17.0537 18.2648 16.7909 18.0569 16.4571 17.9464C16.3002 17.8938 16.1487 17.832 16.0058 17.7617C15.9996 17.9209 15.9826 18.0824 15.954 18.2462C15.8914 18.5917 15.9494 18.9217 16.1178 19.23C16.2129 19.4046 16.3141 19.577 16.4138 19.7493C16.6688 20.1898 16.7098 20.6458 16.5058 21.1172C16.4648 21.2122 16.4169 21.3042 16.3728 21.3985C16.3806 20.9603 16.2129 20.7284 15.9084 20.4788C15.8164 20.4031 15.7229 20.3289 15.631 20.2524C15.5429 20.1774 15.464 20.0924 15.4184 19.9835C15.3999 19.9348 15.3899 19.883 15.3752 19.8266C15.3064 19.9255 15.2137 19.9788 15.1132 20.0221C15.0475 20.0499 14.9795 20.0731 14.9107 20.094C14.6758 20.1643 14.4378 20.2254 14.2059 20.305C13.9834 20.3807 13.7786 20.4896 13.6951 20.7447C13.641 20.4054 13.7222 20.0322 13.9385 19.7624C14.1232 19.5322 14.3674 19.3815 14.6209 19.2408C14.811 19.1349 15.0042 19.0275 15.1858 18.9062C15.3489 18.7995 15.43 18.638 15.4115 18.4379C15.4007 18.3266 15.3899 18.213 15.3605 18.104C15.1882 17.4587 14.8149 16.9479 14.2871 16.5476C12.9834 15.56 11.0452 15.6458 9.57998 16.1906C8.90301 16.4433 8.2925 16.8343 7.68818 17.223C7.65495 17.2439 7.62404 17.2671 7.58926 17.288L7.5854 17.2903C7.27705 17.4904 6.99498 17.7277 6.70596 17.9557C6.50116 18.1187 6.29637 18.2841 6.05681 18.3985C5.9378 18.4549 5.81415 18.4927 5.67968 18.4711C5.53053 18.4464 5.45557 18.3583 5.47026 18.2091C5.47799 18.1311 5.49499 18.0484 5.5259 17.9765C5.60241 17.7996 5.68277 17.6241 5.77087 17.4518C5.86515 17.264 5.92389 17.0708 5.94939 16.8583C6.06763 15.8676 6.47257 15.0121 7.199 14.3181C7.71291 13.8266 8.32496 13.4982 8.99266 13.2648C9.03052 13.2524 9.06993 13.2231 9.09389 13.1922C9.38369 12.7934 9.74613 12.4734 10.1665 12.22C10.631 11.941 11.1325 11.7578 11.665 11.6597C11.8079 11.6326 11.9532 11.6156 12.0985 11.5948C11.6348 11.951 11.2554 12.3637 11.0537 12.924C11.0668 12.9294 11.0715 12.9317 11.0753 12.9325C11.0962 12.934 11.1178 12.9356 11.1403 12.9364C11.5916 12.9588 12.0344 13.0337 12.461 13.1829C12.8713 13.3258 13.2531 13.5028 13.6024 13.7138C13.5823 13.3065 13.6093 12.8869 13.6804 12.458C13.7538 12.0121 13.8991 11.5871 14.0954 11.1806C14.1047 11.1605 14.1147 11.1411 14.1225 11.1218C14.124 11.118 14.124 11.1126 14.1256 11.0986C13.5375 11.0075 12.9934 11.1435 12.4586 11.3807C12.546 11.2633 12.631 11.1435 12.7229 11.0314C13.0637 10.611 13.464 10.2578 13.9316 9.98273C14.3543 9.73389 14.8087 9.56929 15.2979 9.50514C15.3365 9.49896 15.3814 9.4781 15.4099 9.45105C15.9339 8.97655 16.515 8.59556 17.192 8.37918C18.1487 8.07238 19.0939 8.12571 20.0204 8.49587C20.219 8.5747 20.4177 8.61566 20.6271 8.62261C20.8203 8.62802 21.0135 8.64116 21.2051 8.65893C21.2832 8.66666 21.3643 8.69062 21.4362 8.72153C21.5745 8.77949 21.6163 8.88845 21.566 9.03065L21.5645 9.02756Z" fill="#724401"/>
<g style="mix-blend-mode:hard-light">
<path opacity="0.85" d="M21.5645 9.02756C21.5189 9.15661 21.4269 9.24703 21.3203 9.32431C21.1054 9.48042 20.862 9.58088 20.6209 9.68289C20.2816 9.8274 19.9393 9.96187 19.6163 10.1373L19.6124 10.1396C19.5792 10.1597 19.5436 10.1759 19.5096 10.1952C18.8782 10.5407 18.243 10.89 17.6974 11.3645C16.5197 12.39 15.5174 14.0523 15.7616 15.6697C15.8605 16.3251 16.131 16.8962 16.6155 17.3567C16.6974 17.434 16.7917 17.4982 16.8844 17.5608C17.0514 17.6728 17.2322 17.6782 17.4038 17.5863C17.597 17.4843 17.7832 17.3668 17.9671 17.2501C18.2121 17.0948 18.4617 16.9518 18.7523 16.9C19.0923 16.8382 19.4594 16.9456 19.7314 17.155C19.4671 17.1064 19.2739 17.2339 19.1016 17.3938C18.9208 17.5592 18.7531 17.74 18.58 17.9124C18.5289 17.9626 18.4756 18.0113 18.42 18.0553C18.3342 18.1234 18.243 18.179 18.1232 18.1921C18.1657 18.2323 18.2067 18.2655 18.2399 18.3057C18.3141 18.3977 18.3512 18.5074 18.3744 18.621C18.3968 18.7377 18.4177 18.856 18.4401 18.9727C18.5143 19.3591 18.6379 19.6172 19.0258 19.8204C18.9215 19.8142 18.818 19.8119 18.7152 19.8026C18.2036 19.757 17.8234 19.5028 17.5575 19.0685C17.4532 18.8977 17.3504 18.7269 17.243 18.56C17.0537 18.2648 16.7909 18.0569 16.4571 17.9464C16.3002 17.8938 16.1487 17.832 16.0058 17.7617C15.9996 17.9209 15.9826 18.0824 15.954 18.2462C15.8914 18.5917 15.9494 18.9217 16.1178 19.23C16.2129 19.4046 16.3141 19.577 16.4138 19.7493C16.6688 20.1898 16.7098 20.6458 16.5058 21.1172C16.4648 21.2122 16.4169 21.3042 16.3728 21.3985C16.3806 20.9603 16.2129 20.7284 15.9084 20.4788C15.8164 20.4031 15.7229 20.3289 15.631 20.2524C15.5429 20.1774 15.464 20.0924 15.4184 19.9835C15.3999 19.9348 15.3899 19.883 15.3752 19.8266C15.3064 19.9255 15.2137 19.9788 15.1132 20.0221C15.0475 20.0499 14.9795 20.0731 14.9107 20.094C14.6758 20.1643 14.4378 20.2254 14.2059 20.305C13.9834 20.3807 13.7786 20.4896 13.6951 20.7447C13.641 20.4054 13.7222 20.0322 13.9385 19.7624C14.1232 19.5322 14.3674 19.3815 14.6209 19.2408C14.811 19.1349 15.0042 19.0275 15.1858 18.9062C15.3489 18.7995 15.43 18.638 15.4115 18.4379C15.4007 18.3266 15.3899 18.213 15.3605 18.104C15.1882 17.4587 14.8149 16.9479 14.2871 16.5476C12.9834 15.56 11.0452 15.6458 9.57998 16.1906C8.90301 16.4433 8.2925 16.8343 7.68818 17.223C7.65495 17.2439 7.62404 17.2671 7.58926 17.288L7.5854 17.2903C7.27705 17.4904 6.99498 17.7277 6.70596 17.9557C6.50116 18.1187 6.29637 18.2841 6.05681 18.3985C5.9378 18.4549 5.81415 18.4927 5.67968 18.4711C5.53053 18.4464 5.45557 18.3583 5.47026 18.2091C5.47799 18.1311 5.49499 18.0484 5.5259 17.9765C5.60241 17.7996 5.68277 17.6241 5.77087 17.4518C5.86515 17.264 5.92389 17.0708 5.94939 16.8583C6.06763 15.8676 6.47257 15.0121 7.199 14.3181C7.71291 13.8266 8.32496 13.4982 8.99266 13.2648C9.03052 13.2524 9.06993 13.2231 9.09389 13.1922C9.38369 12.7934 9.74613 12.4734 10.1665 12.22C10.631 11.941 11.1325 11.7578 11.665 11.6597C11.8079 11.6326 11.9532 11.6156 12.0985 11.5948C11.6348 11.951 11.2554 12.3637 11.0537 12.924C11.0668 12.9294 11.0715 12.9317 11.0753 12.9325C11.0962 12.934 11.1178 12.9356 11.1403 12.9364C11.5916 12.9588 12.0344 13.0337 12.461 13.1829C12.8713 13.3258 13.2531 13.5028 13.6024 13.7138C13.5823 13.3065 13.6093 12.8869 13.6804 12.458C13.7538 12.0121 13.8991 11.5871 14.0954 11.1806C14.1047 11.1605 14.1147 11.1411 14.1225 11.1218C14.124 11.118 14.124 11.1126 14.1256 11.0986C13.5375 11.0075 12.9934 11.1435 12.4586 11.3807C12.546 11.2633 12.631 11.1435 12.7229 11.0314C13.0637 10.611 13.464 10.2578 13.9316 9.98273C14.3543 9.73389 14.8087 9.56929 15.2979 9.50514C15.3365 9.49896 15.3814 9.4781 15.4099 9.45105C15.9339 8.97655 16.515 8.59556 17.192 8.37918C18.1487 8.07238 19.0939 8.12571 20.0204 8.49587C20.219 8.5747 20.4177 8.61566 20.6271 8.62261C20.8203 8.62802 21.0135 8.64116 21.2051 8.65893C21.2832 8.66666 21.3643 8.69062 21.4362 8.72153C21.5745 8.77949 21.6163 8.88845 21.566 9.03065L21.5645 9.02756Z" fill="#663703"/>
</g>
<path d="M11.2516 4.35293L9.41465 3.84752L7.70523 3.37689V3.37998C7.67354 3.50517 6.8567 6.83747 6.85593 6.83979C6.69828 7.48507 6.89534 8.24163 7.42238 8.65431C7.49503 8.71304 7.57462 8.76327 7.66041 8.80732C7.73846 8.84751 7.8196 8.87919 7.90306 8.90392C7.90615 8.9047 7.91002 8.90547 7.91311 8.90624C8.4417 9.0693 9.05994 8.96265 9.51357 8.65663C9.97106 8.34983 10.366 7.72541 10.2214 7.15509C10.1488 6.87147 9.94092 6.64813 9.70368 6.48739C9.70368 6.48739 9.54216 6.34983 9.28791 6.31274C9.03212 6.27255 8.68204 6.33438 8.30801 6.73778L8.13336 6.93793H8.13258L7.66504 7.47502C7.58544 7.55926 7.46025 7.54998 7.38761 7.48429C7.34665 7.45029 7.32192 7.40084 7.32501 7.33901C7.3281 7.25091 7.47648 6.94257 7.54835 6.79187C7.54835 6.79187 7.58622 6.56853 7.6009 6.34211C7.62254 5.98507 7.76396 5.64118 8.02825 5.3993C8.22841 5.21769 8.52053 5.05231 8.94479 4.98044C9.18667 4.93871 9.47029 4.92789 9.80646 4.95957C9.86828 4.96498 9.93088 4.95726 9.98574 4.93021C10.0669 4.8908 10.2091 4.83979 10.3799 4.85911C10.5661 4.87843 10.7856 4.98276 10.9973 5.27719C10.9973 5.27719 10.6148 5.14582 10.257 5.38152C10.2508 5.38539 10.2446 5.39002 10.2384 5.39389C10.2384 5.39389 10.2578 5.39234 10.291 5.39389C10.4146 5.40548 10.7323 5.48121 10.9479 5.96343C10.9479 5.96343 11.1913 6.44412 10.9997 7.13499C10.9587 7.28646 11.029 7.42711 11.1434 7.49744C11.2261 7.54767 11.3304 7.56157 11.4324 7.5183L11.4386 7.51598C12.0792 7.24473 12.4123 6.56235 12.4007 5.89002C12.386 5.1605 11.9741 4.55077 11.2524 4.35293H11.2516ZM8.01203 3.89157L8.65654 4.09791L8.53366 4.76947L8.35515 4.71692L7.87292 4.57318L8.01048 3.90394L8.0128 3.89235L8.01203 3.89157Z" fill="#3A2415"/>
<path d="M12.0622 8.30733C12.0962 8.36452 12.0769 8.43793 12.0205 8.47193L10.519 9.36451C10.4618 9.39852 10.3884 9.3792 10.3544 9.32278C10.3335 9.28801 10.332 9.24319 10.3505 9.20686C10.3814 9.14504 10.4633 9.11722 10.5089 9.06467C10.5507 9.01675 10.5816 8.96034 10.6024 8.90006C10.6457 8.77487 10.6496 8.63886 10.6473 8.50825C10.6457 8.44952 10.6434 8.39079 10.6411 8.33206C10.6341 8.13036 10.6179 7.92711 10.5854 7.72696C10.8235 7.93793 11.0831 8.10795 11.3629 8.25787C11.4734 8.31737 11.5993 8.34443 11.7238 8.32433C11.7864 8.31429 11.8459 8.29265 11.9023 8.26405C11.9587 8.23546 12.029 8.2486 12.063 8.30656L12.0622 8.30733Z" fill="#3A2415"/>
<path d="M11.0715 4.30656L9.41308 3.84984L7.70597 3.37998L7.52669 3.33052C7.52669 3.33052 6.67893 6.7911 6.67738 6.79342C6.50505 7.49821 6.75621 8.33668 7.3984 8.71613C7.42545 8.73236 7.45327 8.74781 7.48264 8.7625C7.61556 8.82896 7.75775 8.8761 7.90535 8.90392C7.90845 8.90469 7.91231 8.90546 7.9154 8.90624C8.40072 8.99588 8.93317 8.88151 9.3358 8.61103C9.79329 8.30423 10.1882 7.67981 10.0437 7.10949C9.97104 6.82587 9.76315 6.60253 9.52591 6.44179C9.52591 6.44179 9.43781 6.36761 9.2902 6.31351C9.06687 6.23005 8.70752 6.1945 8.30721 6.52448H8.30644C8.24848 6.57239 8.18974 6.62803 8.13024 6.69218L7.48805 7.42788C7.45945 7.45802 7.42468 7.47579 7.3899 7.48352C7.27244 7.51134 7.14106 7.42865 7.14647 7.29264C7.15034 7.20609 7.29871 6.89619 7.36981 6.7455C7.36981 6.7455 7.40767 6.52217 7.42236 6.29574C7.444 5.93871 7.58619 5.59481 7.84971 5.35293C8.08155 5.14195 8.43627 4.95494 8.97645 4.9078C9.1681 4.88848 9.38448 4.89002 9.62714 4.91321C9.68974 4.92016 9.75156 4.91089 9.80643 4.88384C9.91539 4.83129 10.1325 4.7571 10.3806 4.85911C10.5205 4.91552 10.6727 5.02835 10.8172 5.23082C10.8172 5.23082 10.4208 5.09404 10.0591 5.34752C10.0591 5.34752 10.1411 5.33979 10.257 5.38152C10.2678 5.38538 10.2794 5.39002 10.291 5.39466C10.437 5.45648 10.6248 5.5979 10.7678 5.91784C10.7678 5.91784 11.0104 6.39929 10.818 7.09017C10.7577 7.30964 10.9347 7.50748 11.1426 7.49821C11.1781 7.49589 11.2152 7.48816 11.2516 7.4727L11.2577 7.47038C11.8999 7.19836 12.2315 6.51675 12.2199 5.84442C12.2052 5.1149 11.7933 4.50517 11.0715 4.30733V4.30656ZM8.35358 4.7231L7.69284 4.52681L7.83194 3.84598L8.01046 3.90316L8.478 4.05154L8.35512 4.71691L8.35358 4.72387V4.7231Z" fill="url(#paint4_radial_68_39377)"/>
<path d="M11.8821 8.26172C11.9161 8.31891 11.8968 8.39232 11.8404 8.42632L10.3389 9.3189C10.2817 9.35291 10.2083 9.33358 10.1743 9.27717C10.1534 9.24239 10.1518 9.19757 10.1704 9.16125C10.2013 9.09943 10.2832 9.07161 10.3288 9.01906C10.3705 8.97114 10.4015 8.91473 10.4223 8.85445C10.4656 8.72926 10.4695 8.59325 10.4671 8.46265C10.4656 8.40391 10.4633 8.34518 10.461 8.28645C10.454 8.08475 10.4378 7.8815 10.4053 7.68135C10.6433 7.89232 10.903 8.06234 11.1827 8.21226C11.2933 8.27177 11.4192 8.29881 11.5436 8.27872C11.6062 8.26867 11.6657 8.24703 11.7222 8.21844C11.7786 8.18985 11.8489 8.20299 11.8829 8.26095L11.8821 8.26172Z" fill="url(#paint5_radial_68_39377)"/>
<g opacity="0.85">
<path d="M11.0715 4.30656L9.41308 3.84984L7.70597 3.37998L7.52669 3.33052C7.52669 3.33052 6.67893 6.7911 6.67738 6.79342C6.50505 7.49821 6.75621 8.33668 7.3984 8.71613C7.42545 8.73236 7.45327 8.74781 7.48264 8.7625C7.61556 8.82896 7.75775 8.8761 7.90535 8.90392C7.90845 8.90469 7.91231 8.90546 7.9154 8.90624C8.40072 8.99588 8.93317 8.88151 9.3358 8.61103C9.79329 8.30423 10.1882 7.67981 10.0437 7.10949C9.97104 6.82587 9.76315 6.60253 9.52591 6.44179C9.52591 6.44179 9.43781 6.36761 9.2902 6.31351C9.06687 6.23005 8.70752 6.1945 8.30721 6.52448H8.30644C8.24848 6.57239 8.18974 6.62803 8.13024 6.69218L7.48805 7.42788C7.45945 7.45802 7.42468 7.47579 7.3899 7.48352C7.27244 7.51134 7.14106 7.42865 7.14647 7.29264C7.15034 7.20609 7.29871 6.89619 7.36981 6.7455C7.36981 6.7455 7.40767 6.52217 7.42236 6.29574C7.444 5.93871 7.58619 5.59481 7.84971 5.35293C8.08155 5.14195 8.43627 4.95494 8.97645 4.9078C9.1681 4.88848 9.38448 4.89002 9.62714 4.91321C9.68974 4.92016 9.75156 4.91089 9.80643 4.88384C9.91539 4.83129 10.1325 4.7571 10.3806 4.85911C10.5205 4.91552 10.6727 5.02835 10.8172 5.23082C10.8172 5.23082 10.4208 5.09404 10.0591 5.34752C10.0591 5.34752 10.1411 5.33979 10.257 5.38152C10.2678 5.38538 10.2794 5.39002 10.291 5.39466C10.437 5.45648 10.6248 5.5979 10.7678 5.91784C10.7678 5.91784 11.0104 6.39929 10.818 7.09017C10.7577 7.30964 10.9347 7.50748 11.1426 7.49821C11.1781 7.49589 11.2152 7.48816 11.2516 7.4727L11.2577 7.47038C11.8999 7.19836 12.2315 6.51675 12.2199 5.84442C12.2052 5.1149 11.7933 4.50517 11.0715 4.30733V4.30656ZM8.35358 4.7231L7.69284 4.52681L7.83194 3.84598L8.01046 3.90316L8.478 4.05154L8.35512 4.71691L8.35358 4.72387V4.7231Z" fill="#724401"/>
<path d="M11.8821 8.26172C11.9161 8.31891 11.8968 8.39232 11.8404 8.42632L10.3389 9.3189C10.2817 9.35291 10.2083 9.33358 10.1743 9.27717C10.1534 9.24239 10.1518 9.19757 10.1704 9.16125C10.2013 9.09943 10.2832 9.07161 10.3288 9.01906C10.3705 8.97114 10.4015 8.91473 10.4223 8.85445C10.4656 8.72926 10.4695 8.59325 10.4671 8.46265C10.4656 8.40391 10.4633 8.34518 10.461 8.28645C10.454 8.08475 10.4378 7.8815 10.4053 7.68135C10.6433 7.89232 10.903 8.06234 11.1827 8.21226C11.2933 8.27177 11.4192 8.29881 11.5436 8.27872C11.6062 8.26867 11.6657 8.24703 11.7222 8.21844C11.7786 8.18985 11.8489 8.20299 11.8829 8.26095L11.8821 8.26172Z" fill="#724401"/>
</g>
<g opacity="0.85">
<path d="M11.0715 4.30656L9.41308 3.84984L7.70597 3.37998L7.52669 3.33052C7.52669 3.33052 6.67893 6.7911 6.67738 6.79342C6.50505 7.49821 6.75621 8.33668 7.3984 8.71613C7.42545 8.73236 7.45327 8.74781 7.48264 8.7625C7.61556 8.82896 7.75775 8.8761 7.90535 8.90392C7.90845 8.90469 7.91231 8.90546 7.9154 8.90624C8.40072 8.99588 8.93317 8.88151 9.3358 8.61103C9.79329 8.30423 10.1882 7.67981 10.0437 7.10949C9.97104 6.82587 9.76315 6.60253 9.52591 6.44179C9.52591 6.44179 9.43781 6.36761 9.2902 6.31351C9.06687 6.23005 8.70752 6.1945 8.30721 6.52448H8.30644C8.24848 6.57239 8.18974 6.62803 8.13024 6.69218L7.48805 7.42788C7.45945 7.45802 7.42468 7.47579 7.3899 7.48352C7.27244 7.51134 7.14106 7.42865 7.14647 7.29264C7.15034 7.20609 7.29871 6.89619 7.36981 6.7455C7.36981 6.7455 7.40767 6.52217 7.42236 6.29574C7.444 5.93871 7.58619 5.59481 7.84971 5.35293C8.08155 5.14195 8.43627 4.95494 8.97645 4.9078C9.1681 4.88848 9.38448 4.89002 9.62714 4.91321C9.68974 4.92016 9.75156 4.91089 9.80643 4.88384C9.91539 4.83129 10.1325 4.7571 10.3806 4.85911C10.5205 4.91552 10.6727 5.02835 10.8172 5.23082C10.8172 5.23082 10.4208 5.09404 10.0591 5.34752C10.0591 5.34752 10.1411 5.33979 10.257 5.38152C10.2678 5.38538 10.2794 5.39002 10.291 5.39466C10.437 5.45648 10.6248 5.5979 10.7678 5.91784C10.7678 5.91784 11.0104 6.39929 10.818 7.09017C10.7577 7.30964 10.9347 7.50748 11.1426 7.49821C11.1781 7.49589 11.2152 7.48816 11.2516 7.4727L11.2577 7.47038C11.8999 7.19836 12.2315 6.51675 12.2199 5.84442C12.2052 5.1149 11.7933 4.50517 11.0715 4.30733V4.30656ZM8.35358 4.7231L7.69284 4.52681L7.83194 3.84598L8.01046 3.90316L8.478 4.05154L8.35512 4.71691L8.35358 4.72387V4.7231Z" fill="#663703"/>
<path d="M11.8821 8.26172C11.9161 8.31891 11.8968 8.39232 11.8404 8.42632L10.3389 9.3189C10.2817 9.35291 10.2083 9.33358 10.1743 9.27717C10.1534 9.24239 10.1518 9.19757 10.1704 9.16125C10.2013 9.09943 10.2832 9.07161 10.3288 9.01906C10.3705 8.97114 10.4015 8.91473 10.4223 8.85445C10.4656 8.72926 10.4695 8.59325 10.4671 8.46265C10.4656 8.40391 10.4633 8.34518 10.461 8.28645C10.454 8.08475 10.4378 7.8815 10.4053 7.68135C10.6433 7.89232 10.903 8.06234 11.1827 8.21226C11.2933 8.27177 11.4192 8.29881 11.5436 8.27872C11.6062 8.26867 11.6657 8.24703 11.7222 8.21844C11.7786 8.18985 11.8489 8.20299 11.8829 8.26095L11.8821 8.26172Z" fill="#663703"/>
</g>
</g>
<path d="M15.9138 0.487409L15.852 0.635786L15.7554 0.866851L15.5027 1.47659L15.4208 1.67519L11.2987 11.6079L11.2183 11.8042L9.53901 15.8498L9.46173 16.036L7.34814 21.1303L7.24613 21.3761L6.95942 22.0662L6.91383 22.1767L6.84737 22.339C5.55989 21.57 4.40611 20.5468 3.46716 19.2872L3.48571 19.2424L3.50039 19.2076L3.87134 18.3127L3.98957 18.0244L7.75463 8.93483L7.77859 8.87687L8.44087 7.27718H8.44164L8.60007 6.89156H8.60084L9.19667 5.45184L9.22448 5.38461L9.63252 4.39852L9.63484 4.39543L10.8381 1.4905L10.9378 1.24861L11.1943 0.628058L11.3381 0.2803L11.4308 0.0561901C12.9463 -0.0921865 14.4694 0.059281 15.9115 0.488182L15.9138 0.487409Z" fill="url(#paint6_linear_68_39377)"/>
<path d="M22.7275 5.84751C22.7484 5.87997 22.7685 5.91397 22.7886 5.9472C22.8187 5.99821 22.8496 6.04998 22.8775 6.10099C22.8805 6.10331 22.8821 6.1064 22.8821 6.10871L22.8798 6.11567L22.4408 7.15972L22.3303 7.42247L18.5884 16.3367L18.4996 16.5469L18.1147 17.4642L18.0467 17.6272L18.0204 17.689L17.9107 17.9487L17.6047 18.679L17.5011 18.9255L16.2144 21.9912L16.0838 22.3003L15.7685 23.0522L15.658 23.315L15.4942 23.7029C14.5143 23.9286 13.5197 24.0236 12.5344 23.9951L12.6603 23.6944L12.7446 23.4935L13.0205 22.8374L13.1294 22.577L14.3551 19.6574L14.4378 19.4603L14.818 18.5569L14.8914 18.3799L15.1804 17.6945L15.2987 17.4132L15.7948 16.23L15.9068 15.9634L18.0313 10.9024L18.1039 10.7316H18.1047L19.0158 8.55925L19.1093 8.33668L20.5884 4.81351L20.6789 4.59945L21.0181 3.79033L21.0552 3.70146L21.0792 3.64659C21.6727 4.27256 22.2082 4.97348 22.668 5.74705C22.6881 5.78105 22.709 5.81505 22.7275 5.84906V5.84751Z" fill="url(#paint7_linear_68_39377)"/>
<defs>
<linearGradient id="paint0_linear_68_39377" x1="15.0769" y1="23.4553" x2="10.3044" y2="0.450332" gradientUnits="userSpaceOnUse">
<stop stop-color="#D3A150"/>
<stop offset="0.42" stop-color="#DDB264"/>
<stop offset="1" stop-color="#EFD186"/>
</linearGradient>
<linearGradient id="paint1_linear_68_39377" x1="7.14421" y1="2.63563" x2="18.2465" y2="21.3192" gradientUnits="userSpaceOnUse">
<stop stop-color="#513A01"/>
<stop offset="0.15" stop-color="#65440B"/>
<stop offset="0.46" stop-color="#986024"/>
<stop offset="0.58" stop-color="#AD6B2F"/>
<stop offset="1" stop-color="#FFE6CA"/>
</linearGradient>
<linearGradient id="paint2_linear_68_39377" x1="14.8728" y1="22.3675" x2="10.5539" y2="1.54798" gradientUnits="userSpaceOnUse">
<stop stop-color="#D3A150"/>
<stop offset="0.42" stop-color="#DDB264"/>
<stop offset="1" stop-color="#EFD186"/>
</linearGradient>
<radialGradient id="paint3_radial_68_39377" cx="0" cy="0" r="1" gradientUnits="userSpaceOnUse" gradientTransform="translate(14.8695 15.8585) rotate(-30.72) scale(7.67694 7.67694)">
<stop stop-color="white"/>
<stop offset="0.6" stop-color="#DDDDDD"/>
<stop offset="1" stop-color="#CCCCCC"/>
</radialGradient>
<radialGradient id="paint4_radial_68_39377" cx="0" cy="0" r="1" gradientUnits="userSpaceOnUse" gradientTransform="translate(8.90079 5.70359) rotate(-30.72) scale(2.87943)">
<stop stop-color="white"/>
<stop offset="0.6" stop-color="#DDDDDD"/>
<stop offset="1" stop-color="#CCCCCC"/>
</radialGradient>
<radialGradient id="paint5_radial_68_39377" cx="0" cy="0" r="1" gradientUnits="userSpaceOnUse" gradientTransform="translate(10.7368 8.28654) rotate(-30.72) scale(0.853939)">
<stop stop-color="white"/>
<stop offset="0.6" stop-color="#DDDDDD"/>
<stop offset="1" stop-color="#CCCCCC"/>
</radialGradient>
<linearGradient id="paint6_linear_68_39377" x1="4.36521" y1="27.8122" x2="12.5417" y2="0.286759" gradientUnits="userSpaceOnUse">
<stop stop-color="white" stop-opacity="0"/>
<stop offset="1" stop-color="white" stop-opacity="0.3"/>
</linearGradient>
<linearGradient id="paint7_linear_68_39377" x1="13.143" y1="30.4197" x2="21.3191" y2="2.89354" gradientUnits="userSpaceOnUse">
<stop stop-color="white" stop-opacity="0"/>
<stop offset="1" stop-color="white" stop-opacity="0.3"/>
</linearGradient>
</defs>
</svg>
