<svg width="40" height="40" viewBox="0 0 40 40" fill="none" xmlns="http://www.w3.org/2000/svg">
<rect width="40" height="40" rx="10" fill="url(#paint0_linear_68_38265)"/>
<g clip-path="url(#clip0_68_38265)">
<path d="M26.7474 24.4836V25.2325C26.7474 26.0563 26.0726 26.7303 25.248 26.7303H14.7524C13.9203 26.7303 13.2531 26.0563 13.2531 25.2325V14.7475C13.2531 13.9237 13.9203 13.2496 14.7524 13.2496H25.248C26.0726 13.2496 26.7474 13.9237 26.7474 14.7475V15.4964H20.0002C19.1681 15.4964 18.5008 16.1705 18.5008 16.9943V22.9857C18.5008 23.8095 19.1681 24.4836 20.0002 24.4836H26.7474ZM20.0002 22.9857H27.497V16.9943H20.0002V22.9857ZM22.9989 21.1134C22.3767 21.1134 21.8744 20.6116 21.8744 19.99C21.8744 19.3684 22.3767 18.8666 22.9989 18.8666C23.6212 18.8666 24.1235 19.3684 24.1235 19.99C24.1235 20.6116 23.6212 21.1134 22.9989 21.1134Z" fill="white"/>
</g>
<defs>
<linearGradient id="paint0_linear_68_38265" x1="20.0047" y1="7.69268" x2="20.0047" y2="48.7231" gradientUnits="userSpaceOnUse">
<stop stop-color="#12CB70"/>
<stop offset="1" stop-color="#09AC85"/>
</linearGradient>
<clipPath id="clip0_68_38265">
<rect width="15" height="13.98" fill="white" transform="translate(13 13)"/>
</clipPath>
</defs>
</svg>
