<svg width="48" height="43" viewBox="0 0 48 43" fill="none" xmlns="http://www.w3.org/2000/svg">
<path d="M43.8699 20.8036L23.8579 0C23.8579 0 4.25966 19.9489 4.24602 19.9626C0.0863321 24.2042 -1.55027 31.2555 1.78203 36.4655C4.5006 40.7299 9.91047 43.1666 14.893 42.8802C19.2164 42.6393 24.3807 40.0116 25.6855 35.5881C26.3356 33.3831 25.831 31.0418 24.8672 29.0005C24.8672 29.0005 22.6941 22.6676 14.4475 25.0908L7.16008 27.4866C5.81443 27.8549 4.64153 26.3637 5.40073 25.1999C5.77806 24.627 8.01475 23.1359 9.10581 22.4085C9.10581 22.4085 10.256 21.0537 11.2561 19.5852C12.8382 17.2576 15.1703 15.5027 17.9207 14.9344C21.1894 14.2661 25.8128 14.798 31.6727 19.1033C32.0682 19.3898 32.5228 19.5852 33.0047 19.6216C34.4822 19.7444 37.9645 20.5991 38.4373 26.0227C38.4373 26.0227 36.3097 23.5041 32.8501 23.7633C32.8501 23.7633 35.9551 25.2408 35.3505 30.4599C35.3505 30.4599 35.0641 34.6788 30.9999 38.5704C29.4815 40.0252 30.2998 42.5938 32.3864 42.8939H32.4365C37.8509 43.6395 42.8198 40.3707 45.4429 35.7835C48.2661 30.8054 47.9296 25.0362 43.8608 20.8036H43.8699ZM23.8579 12.7113L20.1847 8.73335L23.8579 4.70537L27.3857 8.67879L23.8579 12.7113Z" fill="url(#paint0_linear_68_38255)"/>
<path d="M28.4615 22.962C28.4615 23.2654 28.2143 23.513 27.9112 23.513H19.8931C19.59 23.513 19.3428 23.2654 19.3428 22.962C19.3428 22.7757 19.4411 22.5974 19.598 22.4963C19.8638 22.3259 20.2547 22.4058 20.5551 22.3073C20.8342 22.2168 21.0868 22.0651 21.3101 21.8761C21.7753 21.4849 22.1077 20.9553 22.4054 20.431C22.5383 20.1968 22.6659 19.9572 22.7936 19.7204C23.2375 18.906 23.6496 18.0649 23.9899 17.2C24.4339 18.5919 25.0613 19.8721 25.811 21.1203C26.1087 21.6153 26.5394 22.0172 27.0791 22.2328C27.3503 22.3392 27.6347 22.3951 27.9245 22.4138C28.2143 22.4324 28.4589 22.6506 28.4589 22.9594L28.4615 22.962Z" fill="url(#paint1_linear_68_38255)"/>
<defs>
<linearGradient id="paint0_linear_68_38255" x1="23.6488" y1="8.26963" x2="23.6488" y2="52.3774" gradientUnits="userSpaceOnUse">
<stop stop-color="#12CB70"/>
<stop offset="1" stop-color="#09AC85"/>
</linearGradient>
<linearGradient id="paint1_linear_68_38255" x1="23.9022" y1="-1.89607" x2="23.9022" y2="23.9228" gradientUnits="userSpaceOnUse">
<stop stop-color="#12CB70"/>
<stop offset="1" stop-color="#09AC85"/>
</linearGradient>
</defs>
</svg>
