<svg width="31" height="27" viewBox="0 0 31 27" fill="none" xmlns="http://www.w3.org/2000/svg">
<g clip-path="url(#clip0_68_40946)">
<path d="M16.5083 6.79424C15.301 6.19968 14.0102 5.76759 12.6606 5.52155C12.4948 5.83696 12.3012 6.2612 12.1677 6.59868C10.7331 6.37159 9.31164 6.37159 7.90339 6.59868C7.76994 6.2612 7.57188 5.83696 7.40465 5.52155C6.05362 5.76759 4.76127 6.20127 3.55399 6.79738C1.11891 10.6706 0.458799 14.4476 0.788855 18.171C2.40393 19.4405 3.96913 20.2117 5.50792 20.7163C5.88785 20.1659 6.22671 19.5809 6.51861 18.9642C5.96266 18.7419 5.43017 18.4674 4.92704 18.1489C5.06052 18.0449 5.19108 17.936 5.31722 17.824C8.38602 19.3348 11.7203 19.3348 14.7524 17.824C14.88 17.936 15.0106 18.0449 15.1426 18.1489C14.638 18.469 14.104 18.7435 13.5481 18.9658C13.84 19.5809 14.1774 20.1675 14.5588 20.7179C16.0991 20.2132 17.6657 19.4421 19.2808 18.171C19.6681 13.8547 18.6192 10.1123 16.5083 6.79424ZM6.93669 15.8811C6.01548 15.8811 5.26001 14.9759 5.26001 13.8735C5.26001 12.7712 5.99934 11.8644 6.93669 11.8644C7.8741 11.8644 8.62951 12.7696 8.61335 13.8735C8.61487 14.9759 7.8741 15.8811 6.93669 15.8811ZM13.133 15.8811C12.2117 15.8811 11.4563 14.9759 11.4563 13.8735C11.4563 12.7712 12.1956 11.8644 13.133 11.8644C14.0703 11.8644 14.8258 12.7696 14.8096 13.8735C14.8096 14.9759 14.0703 15.8811 13.133 15.8811Z" fill="white"/>
</g>
<defs>
<clipPath id="clip0_68_40946">
<rect width="18.6516" height="15.1963" fill="white" transform="translate(0.708679 5.52155)"/>
</clipPath>
</defs>
</svg>
