<svg width="26" height="27" viewBox="0 0 26 27" fill="none" xmlns="http://www.w3.org/2000/svg">
<g clip-path="url(#clip0_68_40949)">
<path d="M18.0426 9.39047L19.4994 11.1317C19.6661 11.3273 19.814 11.4882 19.8738 11.5796C20.3094 12.0201 20.5537 12.6154 20.5534 13.2357C20.5125 13.9675 20.0437 14.466 19.6094 14.999L18.59 16.2167L18.0583 16.8476C18.0393 16.8693 18.027 16.8961 18.0229 16.9249C18.0189 16.9535 18.0234 16.9828 18.0358 17.0089C18.0482 17.0351 18.0679 17.0571 18.0926 17.0721C18.1173 17.0872 18.1459 17.0946 18.1747 17.0936H23.4889C24.3006 17.0936 25.3232 17.7875 25.2634 18.8411C25.2618 19.32 25.0713 19.7788 24.7335 20.1174C24.3958 20.456 23.9383 20.6469 23.4606 20.6486H15.1385C14.591 20.6486 13.1186 20.7086 12.7064 19.431C12.6188 19.1641 12.6067 18.878 12.6718 18.6046C12.7916 18.2003 12.9811 17.8202 13.2319 17.4815C13.6503 16.8507 14.1034 16.2198 14.5501 15.6078C15.1259 14.8066 15.7175 14.0307 16.2995 13.2137C16.3202 13.1871 16.3315 13.1543 16.3315 13.1206C16.3315 13.0869 16.3202 13.0542 16.2995 13.0275L14.1852 10.504C14.1714 10.4857 14.1536 10.4708 14.133 10.4606C14.1126 10.4504 14.0901 10.4451 14.0672 10.4451C14.0443 10.4451 14.0217 10.4504 14.0013 10.4606C13.9808 10.4708 13.963 10.4857 13.9492 10.504C13.3829 11.2705 10.9036 14.6647 10.375 15.3523C9.84637 16.04 8.54384 16.0778 7.82332 15.3523L4.51651 12.0244C4.49539 12.0032 4.46843 11.9887 4.43911 11.9828C4.40975 11.9769 4.37933 11.9799 4.3517 11.9914C4.32405 12.0029 4.30042 12.0224 4.28384 12.0474C4.26725 12.0723 4.25845 12.1017 4.25851 12.1317V18.532C4.26628 18.9862 4.13215 19.4314 3.87484 19.8053C3.61757 20.1792 3.25005 20.4631 2.82378 20.6171C2.5514 20.7122 2.26033 20.7405 1.97478 20.6999C1.68925 20.6592 1.41756 20.5507 1.18234 20.3834C0.947119 20.2161 0.755193 19.9949 0.622575 19.7381C0.489989 19.4813 0.420518 19.1965 0.419983 18.9074V7.40001C0.438955 6.98531 0.587776 6.58716 0.845336 6.26212C1.10289 5.93708 1.45607 5.70169 1.85471 5.58937C2.19665 5.49805 2.55659 5.49896 2.89806 5.59203C3.23954 5.68508 3.5504 5.86701 3.79914 6.11933L8.88362 11.2232C8.89882 11.2387 8.91727 11.2507 8.93758 11.2582C8.95796 11.2658 8.97972 11.2688 9.00135 11.267C9.0229 11.2652 9.04391 11.2586 9.0627 11.2478C9.08149 11.2369 9.09766 11.2221 9.11016 11.2043L12.7221 6.19186C12.889 5.98839 13.0983 5.82396 13.3353 5.71007C13.5723 5.59619 13.8312 5.53563 14.0939 5.53259H23.4889C23.746 5.53304 24.0001 5.58847 24.2341 5.69525C24.4681 5.80207 24.6767 5.95772 24.8459 6.15182C25.015 6.34592 25.1409 6.57401 25.2151 6.82083C25.2893 7.06764 25.3101 7.32748 25.276 7.58297C25.2098 8.02619 24.9855 8.43033 24.6448 8.72035C24.3039 9.01038 23.8698 9.16667 23.4228 9.16021H18.1622C18.1357 9.16085 18.1099 9.16859 18.0875 9.18261C18.065 9.19664 18.0468 9.21645 18.0346 9.23994C18.0223 9.26346 18.0167 9.28984 18.0181 9.31631C18.0195 9.34278 18.028 9.36839 18.0426 9.39047Z" fill="white"/>
</g>
<defs>
<clipPath id="clip0_68_40949">
<rect width="24.878" height="15.1963" fill="white" transform="translate(0.417053 5.52155)"/>
</clipPath>
</defs>
</svg>
