<svg width="30" height="27" viewBox="0 0 30 27" fill="none" xmlns="http://www.w3.org/2000/svg">
<g clip-path="url(#clip0_68_40943)">
<path d="M18.2286 7.27531C17.9356 7.40463 17.6344 7.51379 17.3266 7.6024C17.691 7.19227 17.9688 6.70969 18.1384 6.18159C18.1765 6.06322 18.137 5.93366 18.0393 5.85624C17.9416 5.77876 17.806 5.76948 17.6985 5.83289C17.0448 6.21872 16.3396 6.49599 15.6001 6.65813C14.8553 5.93378 13.8436 5.52155 12.7977 5.52155C10.5901 5.52155 8.79396 7.30896 8.79396 9.50597C8.79396 9.67901 8.80494 9.85108 8.82677 10.0208C6.08725 9.78139 3.5404 8.44136 1.79148 6.30631C1.72915 6.23021 1.63314 6.1892 1.53483 6.19704C1.43646 6.20471 1.34808 6.25991 1.29839 6.34475C0.943673 6.95049 0.756146 7.64329 0.756146 8.34819C0.756146 9.30827 1.10058 10.2192 1.709 10.931C1.524 10.8672 1.34448 10.7875 1.17313 10.6928C1.08115 10.6419 0.968878 10.6427 0.877491 10.6948C0.786049 10.747 0.728709 10.8429 0.726306 10.9477C0.725884 10.9654 0.725884 10.9831 0.725884 11.001C0.725884 12.434 1.5009 13.7243 2.68579 14.4275C2.584 14.4173 2.48227 14.4027 2.38119 14.3835C2.27699 14.3637 2.16984 14.4 2.09958 14.4791C2.02918 14.5581 2.0059 14.6683 2.03833 14.7689C2.47691 16.1316 3.6061 17.134 4.97118 17.4396C3.83899 18.1453 2.54424 18.515 1.18504 18.515C0.90144 18.515 0.616209 18.4984 0.337056 18.4655C0.198381 18.4491 0.0657834 18.5306 0.0185558 18.6618C-0.0286716 18.7931 0.0213835 18.9395 0.139362 19.0148C1.88546 20.129 3.90444 20.7179 5.97794 20.7179C10.0542 20.7179 12.6042 18.8049 14.0255 17.2001C15.7979 15.1991 16.8144 12.5504 16.8144 9.93341C16.8144 9.82408 16.8127 9.71367 16.8093 9.60362C17.5086 9.07931 18.1107 8.44477 18.6005 7.71544C18.6749 7.60467 18.6669 7.45828 18.5807 7.35632C18.4946 7.25429 18.3511 7.2213 18.2286 7.27531Z" fill="white"/>
</g>
<defs>
<clipPath id="clip0_68_40943">
<rect width="18.6516" height="15.1963" fill="white" transform="translate(-6.10352e-05 5.52155)"/>
</clipPath>
</defs>
</svg>
