<svg width="21" height="19" viewBox="0 0 21 19" fill="none" xmlns="http://www.w3.org/2000/svg">
<path d="M0.301958 1.15815C0.50398 0.802763 0.795654 0.508217 1.14707 0.304718C1.49848 0.101219 1.89699 -0.00390983 2.30172 0.000112806L18.6992 0.00011424C19.104 -0.00390832 19.5025 0.101221 19.8539 0.30472C20.2053 0.508219 20.497 0.802765 20.699 1.15815C20.8961 1.50004 21 1.88888 21 2.28484C21 2.6808 20.8961 3.06965 20.699 3.41153L12.5021 17.839C12.2972 18.1925 12.0047 18.4856 11.6536 18.6892C11.3025 18.8929 10.905 19 10.5005 19C10.0959 19 9.69839 18.8929 9.34729 18.6892C8.99619 18.4856 8.70371 18.1925 8.49883 17.839L0.300081 3.41153C0.103235 3.06948 -0.000328545 2.68054 1.46131e-06 2.28458C0.000331467 1.88862 0.104541 1.49987 0.301958 1.15815Z" fill="#F00000"/>
</svg>
