<svg width="18" height="19" viewBox="0 0 18 19" fill="none" xmlns="http://www.w3.org/2000/svg">
<g clip-path="url(#clip0_68_38514)">
<path d="M17.7705 3.77274C17.775 3.72649 17.775 3.6799 17.7705 3.63365C17.7705 2.24274 14.1377 1.10547 9.64591 1.10547C5.15409 1.10547 1.55409 2.25092 1.55409 3.64183C1.54957 3.70175 1.54957 3.76192 1.55409 3.82183C1.5425 3.80593 1.53158 3.78956 1.52137 3.77274V5.85911C1.52137 6.3091 2.02046 6.80001 2.89591 7.25001C2.89591 7.25001 5.04773 8.54274 9.65409 8.59183C11.5996 8.61666 13.5355 8.31521 15.3814 7.70001C16.8705 7.17638 17.7623 6.50547 17.7623 5.9082V3.81365C17.7662 3.78927 17.7662 3.7644 17.7623 3.74001C17.7678 3.75002 17.7706 3.7613 17.7705 3.77274ZM3.575 3.2082C4.17228 2.39001 6.66773 1.80911 9.65409 1.80911C12.6405 1.80911 15.2014 2.42274 15.7577 3.23274C15.8294 3.33015 15.8694 3.44727 15.8723 3.5682C15.8723 3.5682 15.8723 3.8791 15.8723 3.90365C15.7722 3.80561 15.6626 3.7179 15.545 3.64183C14.6695 3.02001 12.3541 2.66001 9.67046 2.66001C6.98682 2.66001 4.76137 2.98729 3.86137 3.59274C3.7101 3.67139 3.57428 3.77671 3.46046 3.90365V3.5682C3.46091 3.4393 3.50089 3.31365 3.575 3.2082ZM16.2732 8.49365V10.58C16.2732 11.1773 15.3895 11.8482 13.8923 12.38C12.047 12.9967 10.1104 13.2955 8.165 13.2636C3.52591 13.2146 1.37409 11.9546 1.37409 11.9546C0.498639 11.48 -0.000451678 10.9891 -0.000451678 10.5391V8.49365C-0.00442229 8.46927 -0.00442229 8.4444 -0.000451678 8.42001C-0.00505777 8.3765 -0.00505777 8.33262 -0.000451678 8.2891C-0.000451678 7.86365 0.465912 7.35638 1.26773 6.96365V7.04547C1.26773 7.52001 1.81591 8.03547 2.78137 8.50183C2.78137 8.50183 4.89227 9.63092 9.40864 9.77001C11.3556 9.82645 13.2965 9.527 15.1359 8.88638C15.5059 8.75849 15.8668 8.6054 16.2159 8.4282C16.2054 8.50734 16.1833 8.58453 16.1505 8.65729C16.19 8.58686 16.2228 8.5129 16.2486 8.43638L16.2732 8.49365ZM17.9995 13.1082V15.1536C17.9995 15.6036 17.5005 16.0946 16.625 16.5446C16.625 16.5446 14.4732 17.8291 9.85864 17.8782C7.91329 17.91 5.97666 17.6112 4.13137 16.9946C2.60955 16.4709 1.72591 15.8 1.72591 15.2273V13.0346C1.74697 13.0933 1.77156 13.1506 1.79955 13.2064C2.12549 13.3697 2.46165 13.5118 2.80591 13.6318C4.64629 14.2686 6.58648 14.5679 8.53318 14.5155C13.0495 14.3682 15.1605 13.2473 15.1605 13.2473C16.1177 12.7809 16.6741 12.2655 16.6741 11.7909V11.7255C17.4923 12.1182 17.9341 12.5436 17.9341 13.0755V13.0264C17.9619 13.0482 17.9843 13.0762 17.9995 13.1082Z" fill="#E9B10E"/>
</g>
<defs>
<clipPath id="clip0_68_38514">
<rect width="18" height="18" fill="white" transform="translate(0 0.5)"/>
</clipPath>
</defs>
</svg>
