<svg width="11" height="12" viewBox="0 0 11 12" fill="none" xmlns="http://www.w3.org/2000/svg">
<g clip-path="url(#clip0_68_38303)">
<path d="M10.8602 2.50012C10.863 2.47185 10.863 2.44338 10.8602 2.41512C10.8602 1.56512 8.64016 0.870117 5.89516 0.870117C3.15016 0.870117 0.950158 1.57012 0.950158 2.42012C0.947391 2.45673 0.947391 2.4935 0.950158 2.53012C0.943075 2.5204 0.936402 2.51039 0.930158 2.50012V3.77512C0.930158 4.05012 1.23516 4.35012 1.77016 4.62512C1.77016 4.62512 3.08516 5.41512 5.90016 5.44512C7.08908 5.46029 8.27214 5.27607 9.40016 4.90012C10.3102 4.58012 10.8552 4.17012 10.8552 3.80512V2.52512C10.8576 2.51022 10.8576 2.49502 10.8552 2.48012C10.8585 2.48623 10.8603 2.49313 10.8602 2.50012ZM2.18516 2.15512C2.55016 1.65512 4.07516 1.30012 5.90016 1.30012C7.72516 1.30012 9.29016 1.67512 9.63016 2.17012C9.67398 2.22964 9.69842 2.30122 9.70016 2.37512C9.70016 2.37512 9.70016 2.56512 9.70016 2.58012C9.63903 2.52021 9.57203 2.4666 9.50016 2.42012C8.96516 2.04012 7.55016 1.82012 5.91016 1.82012C4.27016 1.82012 2.91016 2.02012 2.36016 2.39012C2.26771 2.43818 2.18472 2.50255 2.11516 2.58012V2.37512C2.11544 2.29635 2.13987 2.21956 2.18516 2.15512ZM9.94516 5.38512V6.66012C9.94516 7.02512 9.40516 7.43512 8.49016 7.76012C7.36248 8.13698 6.17898 8.31958 4.99016 8.30012C2.15516 8.27012 0.840158 7.50012 0.840158 7.50012C0.305158 7.21012 0.000158002 6.91012 0.000158002 6.63512V5.38512C-0.00226848 5.37021 -0.00226848 5.35502 0.000158002 5.34012C-0.00265683 5.31352 -0.00265683 5.28671 0.000158002 5.26012C0.000158002 5.00012 0.285158 4.69012 0.775158 4.45012V4.50012C0.775158 4.79012 1.11016 5.10512 1.70016 5.39012C1.70016 5.39012 2.99016 6.08012 5.75016 6.16512C6.93996 6.19961 8.12607 6.01661 9.25016 5.62512C9.47629 5.54696 9.69681 5.45341 9.91016 5.34512C9.90373 5.39349 9.89025 5.44065 9.87016 5.48512C9.8943 5.44208 9.91439 5.39688 9.93016 5.35012L9.94516 5.38512ZM11.0002 8.20512V9.45512C11.0002 9.73012 10.6952 10.0301 10.1602 10.3051C10.1602 10.3051 8.84516 11.0901 6.02516 11.1201C4.83633 11.1396 3.65284 10.957 2.52516 10.5801C1.59516 10.2601 1.05516 9.85012 1.05516 9.50012V8.16012C1.06803 8.19599 1.08305 8.23106 1.10016 8.26512C1.29935 8.36493 1.50477 8.45178 1.71516 8.52512C2.83983 8.91423 4.0255 9.09716 5.21516 9.06512C7.97516 8.97512 9.26516 8.29012 9.26516 8.29012C9.85016 8.00512 10.1902 7.69012 10.1902 7.40012V7.36012C10.6902 7.60012 10.9602 7.86012 10.9602 8.18512V8.15512C10.9772 8.16847 10.9909 8.18558 11.0002 8.20512Z" fill="#E9B10E"/>
</g>
<defs>
<clipPath id="clip0_68_38303">
<rect width="11" height="11" fill="white" transform="translate(0 0.5)"/>
</clipPath>
</defs>
</svg>
