<svg width="16" height="16" viewBox="0 0 16 16" fill="none" xmlns="http://www.w3.org/2000/svg">
<g clip-path="url(#clip0_68_38260)">
<path fill-rule="evenodd" clip-rule="evenodd" d="M15.3861 11.0766C15.3861 14.4732 12.3084 16 7.99983 16C3.69125 16 0.613541 14.4732 0.613541 11.1006C0.613541 7.40802 2.4604 5.53716 6.15297 3.66631L4.84554 1.23088C4.76753 1.1089 4.72409 0.968027 4.71986 0.823295C4.71562 0.678563 4.75074 0.535394 4.82147 0.409054C4.89221 0.282715 4.99591 0.177942 5.12151 0.105907C5.24712 0.0338717 5.38991 -0.002724 5.53468 2.18292e-05H10.7541C10.8898 0.00349382 11.0224 0.0414353 11.1394 0.110275C11.2564 0.179115 11.3539 0.27659 11.4228 0.393526C11.4918 0.510462 11.5298 0.643012 11.5334 0.778704C11.5369 0.914395 11.5059 1.04876 11.4433 1.16916L9.84668 3.66631C13.5381 5.51202 15.3861 7.38288 15.3861 11.0766ZM8.71411 5.58516C8.71411 5.39572 8.63886 5.21404 8.5049 5.08009C8.37095 4.94613 8.18927 4.87088 7.99983 4.87088C7.81039 4.87088 7.6287 4.94613 7.49475 5.08009C7.3608 5.21404 7.28554 5.39572 7.28554 5.58516V6.30174C6.80141 6.32039 6.34074 6.51514 5.99004 6.84943C5.63935 7.18371 5.42276 7.63453 5.38094 8.11721C5.33913 8.59989 5.47497 9.08124 5.76295 9.47085C6.05094 9.86046 6.47126 10.1315 6.94497 10.2332L8.6284 10.6012C8.80094 10.6383 8.95362 10.738 9.057 10.8811C9.16038 11.0241 9.20714 11.2004 9.18826 11.3759C9.16937 11.5514 9.08619 11.7136 8.95474 11.8314C8.82329 11.9492 8.65289 12.0141 8.4764 12.0137H7.52325C7.37549 12.014 7.23129 11.9684 7.11053 11.8832C6.98976 11.7981 6.89838 11.6776 6.84897 11.5383C6.82011 11.4469 6.77317 11.3623 6.71093 11.2895C6.64869 11.2166 6.57243 11.157 6.48668 11.1142C6.40094 11.0715 6.30747 11.0464 6.21183 11.0405C6.11619 11.0346 6.02035 11.048 5.93 11.0799C5.83964 11.1118 5.75664 11.1616 5.68591 11.2262C5.61519 11.2909 5.5582 11.3691 5.51833 11.4562C5.47846 11.5433 5.45653 11.6376 5.45384 11.7334C5.45115 11.8292 5.46776 11.9245 5.50268 12.0137C5.63702 12.3933 5.87547 12.7274 6.19075 12.9778C6.50604 13.2282 6.88543 13.3848 7.28554 13.4297V14.1566C7.28554 14.346 7.3608 14.5277 7.49475 14.6617C7.6287 14.7956 7.81039 14.8709 7.99983 14.8709C8.18927 14.8709 8.37095 14.7956 8.5049 14.6617C8.63886 14.5277 8.71411 14.346 8.71411 14.1566V13.4297C9.2184 13.3724 9.686 13.138 10.0337 12.7683C10.3814 12.3986 10.5867 11.9175 10.6131 11.4107C10.6394 10.9038 10.4851 10.4041 10.1775 10.0003C9.86998 9.59656 9.42918 9.31501 8.93354 9.20574L7.25011 8.83774C7.11353 8.80978 6.99229 8.73188 6.91009 8.61927C6.8279 8.50667 6.79066 8.36745 6.80566 8.22884C6.82067 8.09024 6.88683 7.96222 6.99122 7.86981C7.09561 7.7774 7.23071 7.72725 7.37011 7.72916H8.4764C8.62428 7.72843 8.76871 7.77383 8.88957 7.85905C9.01043 7.94426 9.10171 8.06505 9.15068 8.20459C9.21716 8.37877 9.34909 8.52005 9.51831 8.59827C9.68754 8.6765 9.88064 8.68546 10.0564 8.62325C10.2321 8.56104 10.3766 8.43258 10.4589 8.26532C10.5412 8.09805 10.5549 7.90523 10.497 7.72802C10.3628 7.34847 10.1244 7.01441 9.80904 6.76416C9.49371 6.51391 9.11422 6.3576 8.71411 6.31316V5.58516Z" fill="#FFBE00"/>
</g>
<defs>
<clipPath id="clip0_68_38260">
<rect width="16" height="16" fill="white"/>
</clipPath>
</defs>
</svg>
