<svg width="32" height="20" viewBox="0 0 32 20" fill="none" xmlns="http://www.w3.org/2000/svg">
<g clip-path="url(#clip0_74_24300)">
<path d="M19.6525 10.9208L18.2422 10.9327C16.5085 9.98211 13.3482 9.34583 9.73632 9.34583C5.94401 9.34583 2.64938 10.0473 0.981393 11.0776L-0.179688 11.0873V12.6028C-0.179688 12.6061 -0.179688 12.6094 -0.179688 12.6129C-0.179688 14.4167 4.26064 15.8791 9.73632 15.8791C15.212 15.8791 19.6525 14.4167 19.6525 12.6129C19.6525 12.6094 19.6525 12.6061 19.6525 12.6028V10.9208Z" fill="url(#paint0_linear_74_24300)"/>
<path d="M9.73632 14.2834C15.2128 14.2834 19.6523 12.821 19.6523 11.017C19.6523 9.21302 15.2128 7.75061 9.73632 7.75061C4.25985 7.75061 -0.179688 9.21302 -0.179688 11.017C-0.179688 12.821 4.25985 14.2834 9.73632 14.2834Z" fill="#FF922E"/>
<path d="M9.73702 13.0239C13.1018 13.0239 15.8295 12.1254 15.8295 11.0171C15.8295 9.90871 13.1018 9.01025 9.73702 9.01025C6.37224 9.01025 3.64453 9.90871 3.64453 11.0171C3.64453 12.1254 6.37224 13.0239 9.73702 13.0239Z" fill="white"/>
<path d="M9.74317 8.95439H9.4607C9.24088 8.95747 9.02451 8.96436 8.81158 8.97504L8.8806 9.12725C9.16395 9.11341 9.45433 9.10638 9.74317 9.10638V8.95264V8.95439ZM7.90065 9.0451L7.87867 9.04752H7.87185H7.86768H7.86504H7.86108H7.858H7.85427H7.85119H7.84723H7.84438H7.84042H7.82547H7.82283H7.79228H7.78964H7.77843H7.77579H7.76788H7.76546H7.76238H7.75645H7.75337H7.75029H7.74722H7.74084H7.73447H7.72699H7.7237H7.72062H7.71732H7.71248H7.70919H7.70611H7.70281H7.696H7.68918H7.68237H7.67577H7.66896C7.44974 9.08793 7.23708 9.12426 7.03105 9.15646L7.23372 9.29527C7.49289 9.25419 7.76348 9.21927 8.03804 9.1916L7.90087 9.04422L7.90065 9.0451ZM6.22168 9.3102C5.97262 9.36621 5.73654 9.42771 5.51496 9.49447L5.50968 9.49623L5.50441 9.49777H5.50199H5.49979H5.49737H5.4954H5.4932L5.81062 9.61066C6.02186 9.54631 6.25025 9.48679 6.48722 9.43342L6.22343 9.30603L6.22168 9.3102ZM4.85397 9.72751C4.67251 9.80091 4.49586 9.88562 4.32508 9.98118L4.72933 10.0585C4.8874 9.9702 5.05084 9.89177 5.21864 9.82371L4.85485 9.72707L4.85397 9.72751ZM3.9171 10.2579C3.83141 10.3278 3.75305 10.4062 3.68321 10.4918C3.68255 10.4926 3.68196 10.4934 3.68145 10.4943C3.68099 10.4951 3.6804 10.4958 3.6797 10.4964L3.67794 10.4986L3.6764 10.5008L3.67464 10.503L3.67288 10.5052L3.67112 10.5074V10.5085V10.5096V10.5107V10.5118V10.5131C3.67117 10.5137 3.67117 10.5142 3.67112 10.5147L3.66958 10.5171L3.66673 10.521L4.12219 10.5557C4.19548 10.4543 4.28189 10.3629 4.37916 10.2841L3.94458 10.2274L3.9171 10.2579ZM3.49791 10.8558C3.49133 10.8833 3.48648 10.9113 3.4834 10.9394C3.4834 10.9394 3.4834 10.941 3.4834 10.9419V10.9443V10.9467V10.9482V10.9496V10.9531V10.9564V10.9862V10.9886V10.9897V10.9908V10.9933V10.997V10.9994V11.0005V11.0016V11.004V11.0051V11.0062V11.0086V11.0097V11.0108V11.0119V11.0152V11.0163V11.0174V11.0185V11.0196V11.0207V11.0229V11.024V11.0262C3.4834 11.0262 3.4834 11.0286 3.4834 11.0297V11.0319C3.48472 11.0572 3.48736 11.0823 3.49131 11.1073C3.49118 11.108 3.49118 11.1087 3.49131 11.1094V11.1105V11.1125V11.1176V11.1198C3.49263 11.1268 3.49395 11.1336 3.49549 11.1406L3.96172 11.1299C3.94154 11.0356 3.94267 10.9381 3.96502 10.8443L3.49901 10.8325L3.49791 10.8558ZM4.08548 11.4341L3.62914 11.4677C3.67468 11.5342 3.72619 11.5965 3.78301 11.6537L3.78521 11.6559L3.78741 11.6581L3.78961 11.6605H3.7907V11.6616L3.7918 11.6627H3.7929H3.794L3.7951 11.6638V11.6649V11.666H3.7962L3.7973 11.6671L3.7995 11.6691L3.8017 11.6711L3.80389 11.6732L3.80609 11.6754C3.80781 11.6768 3.80941 11.6783 3.81093 11.6798C3.83027 11.6976 3.85028 11.7154 3.87094 11.733L4.30706 11.6774C4.22368 11.6055 4.14927 11.5238 4.08548 11.4341ZM4.70757 11.9634L4.30178 12.0398L4.32728 12.0545L4.33102 12.0565L4.33432 12.0583H4.33585H4.33739H4.33893H4.34025H4.34135H4.34267H4.34399H4.34531H4.34685H4.34882L4.35212 12.06L4.35542 12.0618C4.44231 12.1095 4.53457 12.1558 4.63217 12.2006L4.63635 12.2026L4.6403 12.2043H4.64272H4.64404H4.64624H4.64756H4.64954L4.65305 12.2059H4.65459H4.65569H4.65701H4.65811H4.65921H4.66053H4.66184H4.66316H4.66492H4.66646H4.66822H4.66976H4.67174L4.67569 12.2076L4.67987 12.2094L4.68427 12.2111C4.72179 12.2281 4.76017 12.2447 4.79945 12.2608L5.16633 12.1654C5.00032 12.097 4.8388 12.0181 4.68273 11.9293L4.70757 11.9634ZM5.77632 12.4092L5.45627 12.5215L5.53936 12.5467L5.54464 12.5483L5.54991 12.5498H5.55233H5.55475H5.55738H5.5598H5.56222L5.56706 12.5511H5.56948H5.57189H5.57409H5.57629H5.57871H5.58069H5.58288H5.58508H5.5875H5.5897H5.59146H5.59365H5.59563H5.59783H5.59937H5.60157H5.60333H5.60531H5.6064H5.60794H5.60926H5.6108H5.6119H5.61388H5.6152H5.6163H5.61827H5.61937H5.62069H5.62179H5.62377H5.62487H5.62619H5.62751H5.62927H5.6308H5.63234H5.63366H5.63498H5.6363H5.63806H5.63916H5.64026H5.64224H5.64333H5.64465H5.64575H5.64773H5.64993H5.65191H5.65301H5.65454H5.65674H5.65828H5.6607H5.66202H5.66312H5.66532H5.66751H5.66971H5.67235H5.67389H5.67653H5.67807H5.68048H5.68202H5.68488L5.6895 12.5524L5.69455 12.5538H5.69741H5.69895H5.70203H5.70356H5.70642L5.71126 12.5551L5.71631 12.5564H5.71917H5.72071H5.72379H5.72533H5.72818L5.73324 12.5579L5.7383 12.5593H5.74137H5.74313H5.74643H5.74819H5.7517L5.75698 12.5608L5.76226 12.5623L5.76753 12.5636L5.77654 12.5661L5.78182 12.5674L5.7871 12.5689L5.79237 12.5702L5.80138 12.5727L5.80666 12.5742L5.81193 12.5755L5.81721 12.5768L5.82622 12.5792L5.83172 12.5808L5.83721 12.5821L5.84249 12.5836L5.84798 12.585H5.8515L5.85678 12.5863L5.86227 12.5876L5.86755 12.5889H5.87085H5.8726H5.8759H5.87766H5.88118L5.88645 12.5902L5.89151 12.5915H5.89459H5.89634H5.8992H5.90096H5.90426L5.90931 12.5929L5.91437 12.5942H5.91767H5.92031H5.92294H5.92448H5.92734H5.9302H5.93305L5.93789 12.5955H5.94031H5.94185H5.94427H5.9458H5.9469H5.9491H5.9979H5.99922H6.00142H6.00252H6.00406H6.00581H6.00823H6.01043H6.01197H6.01439H6.01549H6.01681H6.019H6.02142H6.02296H6.02472H6.02604H6.02714H6.02933H6.03065H6.03197H6.03395H6.03527H6.04186H6.0434H6.04516H6.04626H6.04802H6.04934H6.05088H6.05198H6.05439H6.05615H6.05835H6.06011H6.06231H6.06341H6.06517H6.06736H6.06846H6.07022H6.0722H6.07462H6.0766H6.07901H6.08099H6.08341H6.08539H6.08781H6.09022H6.09286H6.0955H6.09792H6.10056H6.10297H6.10583H6.10847H6.11111L6.1166 12.5968H6.11924H6.12188H6.12452H6.12737H6.13001L6.13573 12.5981L6.14144 12.5994L6.14716 12.6008L6.16518 12.6049L6.43116 12.4782C6.19486 12.4244 5.96845 12.3642 5.75874 12.2992L5.77632 12.4092ZM7.19371 12.7321L6.98708 12.8707C7.03017 12.8777 7.07347 12.8845 7.117 12.8911H7.12337H7.12931H7.13502H7.13788H7.14162H7.14425H7.15503H7.157H7.16646H7.16909H7.17107H7.17855H7.1814H7.1836H7.18646H7.18998H7.19305H7.19591H7.19899L7.20514 12.8922H7.21152H7.21789C7.42217 12.9215 7.63203 12.9475 7.84745 12.9702L7.98814 12.8233C7.71424 12.7949 7.44453 12.7593 7.18624 12.7176L7.19371 12.7321ZM8.83686 12.903L8.76432 13.055H8.81619H8.82301H8.84785H8.86983C9.13977 13.0673 9.41564 13.0741 9.69547 13.0747L9.69898 12.921C9.41014 12.921 9.1202 12.9124 8.83708 12.8979L8.83686 12.903ZM11.4054 12.8468C11.1302 12.874 10.8462 12.8944 10.5613 12.9076L10.6273 13.06L10.7163 13.0558H10.7233H10.7304H10.9031H10.91H10.9168H10.9236H10.9306C11.1371 13.0428 11.3397 13.0265 11.5384 13.0069L11.4054 12.8468ZM12.9642 12.6052C12.725 12.6579 12.472 12.7051 12.2122 12.7455L12.4115 12.8848C12.5648 12.861 12.7145 12.8353 12.8604 12.8077L12.8824 12.8033L12.8883 12.8022L12.8943 12.8011L12.9002 12.8H12.9039H12.9064H12.9099H12.9118H12.9154H12.9209L12.9264 12.7989H12.9294H12.9325H12.9354H12.9369H12.9442H12.9466H12.9492H12.9508H12.9541H12.9554H12.9576H12.9615H12.9637H12.965H12.9664H12.9677H12.9699H12.9727H12.9741H12.9774H12.9791H12.9807H12.9824H12.9846H12.9866H12.989H12.9925H12.9952H12.9971H12.9996H13.0018H13.0044H13.0066H13.009H13.0116H13.0143H13.0169H13.0191H13.0218H13.024H13.0266H13.029H13.0316H13.0371H13.04H13.0429H13.0457H13.0486H13.0514H13.0543H13.0571L13.0631 12.7978L13.0688 12.7967L13.0747 12.7956L13.0807 12.7943C13.1238 12.7853 13.1664 12.7762 13.2086 12.7668L12.9661 12.6047L12.9642 12.6052ZM14.2391 12.2226C14.0575 12.2961 13.8575 12.3658 13.6456 12.4294L13.9604 12.5434C14.191 12.4743 14.4055 12.3996 14.6025 12.3199L14.2411 12.2221L14.2391 12.2226ZM15.1184 11.7339C14.9981 11.8299 14.8698 11.9152 14.7348 11.9891L15.1371 12.0675C15.1608 12.0543 15.1841 12.0411 15.2068 12.0277L15.209 12.0264H15.2101L15.2118 12.0253H15.2131H15.2142H15.2155H15.2169H15.2182H15.2195H15.221H15.2224H15.2239H15.2252H15.2268H15.2281H15.2298H15.2314L15.2331 12.0242L15.2364 12.022L15.2397 12.0201C15.2963 11.9857 15.35 11.9506 15.4009 11.9148L15.4039 11.9126L15.407 11.9105L15.4101 11.9083L15.4129 11.9063H15.4143H15.4158L15.4171 11.9052H15.4184H15.4195H15.4209H15.422H15.4233H15.4244H15.4257H15.427H15.4283L15.4307 11.9032L15.4334 11.9012L15.436 11.8993C15.4609 11.8806 15.4848 11.8619 15.5081 11.843L15.0749 11.785L15.1184 11.7339ZM15.5189 11.1819C15.4912 11.2834 15.4446 11.3787 15.3815 11.4628L15.8363 11.4986C15.8588 11.4678 15.8796 11.4357 15.8987 11.4027L15.9001 11.4005V11.3991V11.3978V11.3967V11.3954V11.3943V11.3928V11.3917V11.3906V11.3895V11.3873C15.9 11.3866 15.9 11.3858 15.9001 11.3851L15.9014 11.3829C15.9014 11.3829 15.9014 11.3814 15.9014 11.3807L15.9027 11.3785C15.9278 11.3294 15.948 11.2779 15.9627 11.2248V11.2237V11.2223V11.2212V11.2201L15.4969 11.2072L15.5189 11.1819ZM15.8677 10.5819L15.4107 10.6142C15.4681 10.6997 15.5081 10.7955 15.5286 10.8964L15.9952 10.8872C15.9913 10.8652 15.9862 10.845 15.9805 10.8241V10.8217V10.8193V10.8182V10.8171V10.816V10.8149V10.8138V10.8127V10.8116V10.8092V10.7872V10.7861V10.785V10.7837V10.7824V10.7809V10.7793V10.7778V10.7754C15.9806 10.7746 15.9806 10.7738 15.9805 10.773V10.7706V10.7681C15.9804 10.7673 15.9804 10.7665 15.9805 10.7657V10.7633C15.9571 10.704 15.9277 10.6474 15.8926 10.5942L15.8677 10.5819ZM15.2083 10.0086L14.8007 10.084C14.9302 10.1587 15.0526 10.2451 15.1663 10.342L15.604 10.2867L15.5732 10.2606L15.5717 10.2592L15.5701 10.2579L15.5686 10.2568L15.5673 10.2557V10.2546L15.5659 10.2535V10.2524L15.5646 10.2513H15.5633H15.562L15.5593 10.2494L15.5567 10.2472C15.4467 10.159 15.3302 10.0793 15.2083 10.0086ZM14.0652 9.52413L13.7428 9.63526C13.9512 9.70115 14.1461 9.77187 14.3229 9.84655L14.6917 9.75211C14.6051 9.71543 14.5145 9.67963 14.4207 9.64492L14.4158 9.64317L14.4112 9.64163L14.4066 9.64009H14.4042H14.4022H14.4002H14.3987H14.3967H14.3952H14.3932H14.3912H14.3895H14.3875H14.3862H14.3844H14.3831H14.3813H14.3802H14.3787H14.3774H14.3754H14.3741H14.3719L14.3675 9.63856L14.3631 9.63702L14.3602 9.63592H14.3587H14.3558L14.3512 9.63438L14.3466 9.63262C14.2606 9.60232 14.1721 9.57304 14.0811 9.54477L14.0652 9.52413ZM12.5412 9.17117L12.3322 9.30888C12.5889 9.35105 12.8378 9.40025 13.0743 9.45472L13.3434 9.32777C13.2163 9.29849 13.0859 9.2706 12.9521 9.24409L12.9459 9.24277H12.9398L12.9178 9.23838H12.9114L12.9053 9.23706H12.9022L12.8896 9.23465H12.8833L12.8771 9.23333L12.8551 9.22916L12.849 9.22806L12.8428 9.22674L12.8365 9.22564L12.827 9.22389L12.8208 9.22257L12.8123 9.21795L12.8061 9.21686L12.8 9.21554L12.7905 9.21378L12.7841 9.21268L12.7778 9.21159L12.7716 9.21049H12.7655L12.7591 9.20939H12.756H12.7498H12.7437L12.7375 9.20829L12.7312 9.20719L12.7248 9.2061H12.7217L12.7153 9.205L12.7092 9.2039L12.703 9.2028H12.7002H12.6971H12.6942H12.6914H12.6885H12.6857H12.6826L12.6766 9.2017H12.6709H12.6681H12.6654H12.6626H12.6602H12.6575H12.6553H12.6527H12.6503H12.6478H12.645H12.6426H12.6397H12.6375H12.6349H12.6329H12.6303H12.6292H12.6272H12.6248H12.6226H12.6182H12.616H12.5925H12.59H12.5859H12.5837H12.5793H12.5771H12.5744H12.5722H12.5681H12.5652H12.5634H12.5604H12.5586H12.5549L12.5489 9.2006H12.5441L12.5412 9.17117ZM10.7691 8.98185L10.6932 9.13384C10.977 9.14921 11.2595 9.17183 11.5327 9.20104L11.6769 9.05455C11.6167 9.04796 11.5562 9.04203 11.4951 9.0361H11.4885H11.4822H11.4791H11.4274H11.4241H11.4206H11.4138H11.407H11.4002C11.1941 9.01765 10.9842 9.00258 10.7704 8.99085L10.7691 8.98185Z" fill="#FF922E"/>
<path d="M9.73714 8.69769C10.6539 8.69536 11.5697 8.75629 12.4781 8.87999C13.3164 8.99683 14.0695 9.16397 14.7163 9.37702C15.363 9.59006 15.8705 9.83825 16.2253 10.1143C16.5924 10.3999 16.7786 10.704 16.7786 11.017C16.7786 11.33 16.5933 11.634 16.2253 11.9195C15.8705 12.1956 15.363 12.4438 14.7163 12.6566C14.0695 12.8694 13.3164 13.037 12.4781 13.1539C11.5697 13.2774 10.6539 13.3382 9.73714 13.3359C8.82048 13.3382 7.90474 13.2774 6.99645 13.1539C6.15806 13.037 5.40496 12.8696 4.75826 12.6566C4.11155 12.4436 3.60377 12.196 3.2503 11.9195C2.88321 11.634 2.69702 11.3298 2.69702 11.0166C2.69702 10.7034 2.88321 10.3999 3.2503 10.1139C3.60487 9.83759 4.11265 9.58962 4.75936 9.37658C5.40606 9.16353 6.15916 8.99639 6.99755 8.87955C7.90582 8.75585 8.82156 8.69494 9.73824 8.69725M9.73824 8.65881C5.78503 8.65881 2.58008 9.71438 2.58008 11.0166C2.58008 12.3188 5.78393 13.375 9.73714 13.375C13.6904 13.375 16.8955 12.3192 16.8955 11.017C16.8955 9.71482 13.6917 8.65925 9.73714 8.65925L9.73824 8.65881Z" fill="#F7FAF6"/>
<path d="M9.73719 8.83953C10.5978 8.83736 11.4576 8.89453 12.3104 9.01063C13.0975 9.12045 13.8051 9.27727 14.4116 9.47735C15.0181 9.67744 15.4955 9.91025 15.8284 10.1694C16.1732 10.4378 16.348 10.7231 16.348 11.017C16.348 11.3109 16.1721 11.5962 15.8284 11.8646C15.4955 12.1239 15.0188 12.3567 14.4116 12.5568C13.8045 12.7569 13.0982 12.9137 12.3104 13.0235C11.4576 13.1396 10.5978 13.1968 9.73719 13.1947C8.87697 13.1968 8.01766 13.1396 7.16531 13.0235C6.37814 12.9137 5.67054 12.7567 5.06385 12.5568C4.45715 12.357 3.97904 12.1239 3.64602 11.8646C3.30134 11.5962 3.12659 11.3111 3.12659 11.017C3.12659 10.7229 3.30134 10.4378 3.64602 10.1694C3.97904 9.91025 4.45561 9.67722 5.06275 9.47735C5.66989 9.27749 6.37704 9.12023 7.16421 9.01063C8.01691 8.89453 8.87662 8.83736 9.73719 8.83953ZM9.73719 8.8011C6.02225 8.8011 3.01074 9.79319 3.01074 11.017C3.01074 12.2408 6.02225 13.2331 9.73828 13.2331C13.4543 13.2331 16.466 12.241 16.466 11.017C16.466 9.79297 13.4528 8.80066 9.73719 8.80066V8.8011Z" fill="#F7FAF6"/>
<path d="M13.0212 11.8518C12.9513 11.8426 12.8801 11.855 12.8174 11.8874H11.8111L11.6689 12.0181C11.6375 12.0469 11.5544 12.0662 11.4614 12.0662L11.6559 11.8885H11.5086L11.3669 12.0179C11.3352 12.0467 11.2521 12.066 11.1591 12.066L11.3535 11.8885H11.2073L11.0657 12.0177C11.0341 12.0464 10.951 12.0658 10.858 12.0658L11.0521 11.8887H9.96684H9.22451C9.25177 11.8545 9.34585 11.8305 9.45335 11.8305H10.0156L10.8775 10.8308H9.35816C8.96249 11.2463 8.56682 11.7155 8.17114 12.1418C8.1052 12.2138 8.26633 12.3023 8.49472 12.303C9.89562 12.3082 11.2963 12.2979 12.6972 12.303C12.7772 12.303 12.8478 12.2858 12.8687 12.2604L13.1434 11.9272C13.1696 11.8956 13.1171 11.8615 13.0212 11.8518Z" fill="#FF922E"/>
<path d="M11.8224 9.73157V9.73047H10.2676C10.1221 9.73047 10.0038 9.76938 10.0038 9.8184H10.7771C10.7411 9.85049 10.6497 9.87225 10.5457 9.87313L10.2491 9.87621C10.1155 10.0192 9.982 10.1625 9.84863 10.306H11.33L11.7496 9.81796H11.7905C11.8582 9.81796 11.9182 9.80169 11.9257 9.77949C11.9332 9.75729 11.8866 9.73618 11.8224 9.73157Z" fill="url(#paint1_linear_74_24300)"/>
<path d="M13.0656 10.4699C13.0656 10.4655 13.0636 10.4614 13.0623 10.457C12.9803 10.1554 12.2017 9.92612 11.2818 9.92612H8.62132C8.40018 9.92612 8.20366 9.9718 8.12717 10.0401L7.9179 10.207H7.68577C7.52552 10.207 7.37429 10.2316 7.27669 10.2729H8.59406L8.93808 10.2747C9.10931 10.2758 9.23131 10.327 9.20537 10.3801L8.89455 10.661H8.74815L9.04447 10.3904H8.95148L8.65517 10.6623H8.46788L8.76464 10.3917C8.27488 10.3887 7.87833 10.3854 7.3888 10.3823C7.27075 10.3823 7.1615 10.4029 7.10677 10.4372C7.08679 10.4488 7.06953 10.4646 7.05621 10.4835C7.03994 10.5088 7.10413 10.5325 7.18195 10.5292H7.18458C7.26943 10.5251 7.30592 10.5005 7.30856 10.4987H8.16102C8.16102 10.5207 8.1054 10.5396 8.03704 10.5396H7.59147C6.97422 11.1438 6.54184 11.5791 6.36224 11.7137C6.18265 11.8484 6.33587 11.9039 6.46644 11.925C6.52651 11.9343 6.58723 11.9388 6.64801 11.9384H7.7726L8.51998 11.2184H8.30016C8.18036 11.2184 8.0832 11.1866 8.0832 11.1471H9.3388C9.87099 11.3937 10.4032 11.643 10.9353 11.8899C11.4469 11.8899 11.9582 11.8872 12.4697 11.8872L10.6944 11.1009L11.2811 11.1062C12.1604 11.1062 12.917 10.8965 13.0489 10.6103C13.0698 10.5666 13.0757 10.5173 13.0656 10.4699ZM8.54922 10.759H8.3771L8.46107 10.6825H8.63275L8.54922 10.759ZM8.78794 10.759H8.65737L8.74068 10.683H8.87125L8.78794 10.759ZM9.5573 10.759C9.3898 10.759 9.18537 10.759 8.94401 10.759L9.02776 10.6834H9.64062L9.5573 10.759ZM9.0504 10.6626L9.3388 10.4001C9.58764 10.4012 9.79405 10.4016 9.94638 10.4018L9.66062 10.6623L9.0504 10.6626ZM9.85098 10.7596H9.71184L9.79559 10.6834H9.93495L9.85098 10.7596ZM9.81801 10.6626L10.1038 10.4021H10.2431L9.95737 10.6623L9.81801 10.6626ZM10.6254 10.7135C10.4206 10.7453 10.2136 10.7607 10.0064 10.7594L10.0901 10.683C10.2467 10.6856 10.3807 10.6847 10.4858 10.683C10.6819 10.6795 10.7716 10.6729 10.8577 10.6573C10.8929 10.6513 10.9277 10.6434 10.9619 10.6338C10.8517 10.6688 10.7388 10.6954 10.6245 10.7133L10.6254 10.7135ZM11.0593 10.5655C11.0239 10.6094 10.8854 10.6314 10.8114 10.6421C10.7118 10.6573 10.6247 10.6593 10.4548 10.6626C10.3207 10.6652 10.2044 10.6643 10.1123 10.6626L10.3968 10.4029C10.4353 10.4007 10.7417 10.3854 10.9353 10.4532C10.9606 10.462 11.1015 10.5114 11.0584 10.5653L11.0593 10.5655Z" fill="#FF922E"/>
<path d="M9.9473 10.4018C9.79496 10.4018 9.58856 10.4018 9.33972 10.4001L9.04956 10.6625H9.66219L9.9473 10.4018ZM9.1498 10.6392L9.38852 10.4234L9.84772 10.4247L9.61274 10.6392H9.1498Z" fill="white"/>
<path d="M8.65808 10.7588L8.78799 10.7586L8.87196 10.6827H8.74117L8.65808 10.7588Z" fill="white"/>
<path d="M8.3772 10.7592H8.54931L8.63285 10.683H8.46117L8.3772 10.7592ZM8.51041 10.7058H8.53239L8.49942 10.7359H8.47743L8.51041 10.7058Z" fill="white"/>
<path d="M13.1356 10.4699C13.1347 10.4654 13.1336 10.4609 13.1323 10.4565C13.0912 10.3052 12.8784 10.1653 12.5335 10.0629C12.1886 9.96058 11.7457 9.90457 11.2825 9.90457H8.6214C8.37234 9.90457 8.14769 9.95641 8.06196 10.0333L7.95777 10.1163L7.87116 10.1844H7.68585C7.50516 10.1844 7.33128 10.2125 7.22116 10.2597L7.13323 10.2968H8.59304L8.93552 10.2986C8.98784 10.2977 9.03993 10.3059 9.08939 10.323C9.12192 10.3357 9.13885 10.3517 9.13775 10.368H8.90233L8.88562 10.3834L8.60601 10.639H8.56798L8.67635 10.5402L8.83023 10.3994L8.86342 10.3691H8.7656L8.07471 10.3645L7.3902 10.3601H7.3825C7.24028 10.3601 7.11059 10.3858 7.04442 10.4275C7.0216 10.4406 7.00193 10.4585 6.98683 10.48C6.97518 10.4982 6.98881 10.5169 7.02442 10.5314C7.06996 10.5472 7.11799 10.5547 7.1662 10.5534C7.17411 10.5534 7.18247 10.5534 7.19038 10.5534H7.19456C7.24637 10.5523 7.29756 10.542 7.34579 10.5231H7.53637L7.52582 10.5334C7.40624 10.6505 7.2937 10.7611 7.18818 10.865C6.75514 11.2907 6.44234 11.5982 6.29902 11.7058C6.08997 11.8624 6.2955 11.9243 6.4364 11.9474C6.50675 11.9581 6.57781 11.9633 6.64897 11.963H7.82214L7.8384 11.9474L8.58579 11.2274L8.61744 11.1969H8.29958C8.25525 11.199 8.21104 11.1904 8.17077 11.1716H9.30196C9.56112 11.292 9.82424 11.4146 10.0788 11.5332C10.3294 11.65 10.5879 11.7704 10.8429 11.8887H10.9288C10.3986 11.6428 9.86843 11.3944 9.33801 11.1486H8.08262C8.08262 11.1881 8.17978 11.22 8.29958 11.22H8.5194L7.77202 11.9399H6.64809C6.58731 11.9403 6.52659 11.9358 6.46652 11.9265C6.33595 11.9046 6.18075 11.8512 6.36232 11.7152C6.54389 11.5793 6.9743 11.1453 7.59155 10.5411H8.03624C8.1046 10.5411 8.16022 10.5226 8.16022 10.5002H7.30776C7.30513 10.502 7.26864 10.5266 7.18379 10.5307H7.16642C7.09542 10.5307 7.04046 10.5088 7.05651 10.4848C7.06983 10.466 7.08709 10.4501 7.10707 10.4385C7.16092 10.4047 7.26732 10.3836 7.38294 10.3836H7.3891C7.87863 10.3867 8.27518 10.39 8.76494 10.393L8.46818 10.6636H8.65547L8.95179 10.393H9.04477L8.74845 10.6636H8.89485L9.20546 10.3821C9.23139 10.3289 9.10939 10.2777 8.93816 10.2766L8.59414 10.2749H7.27677C7.37437 10.2331 7.5256 10.209 7.68585 10.209H7.91798L8.12725 10.0421C8.20286 9.97376 8.40026 9.92807 8.6214 9.92807H11.2825C12.2018 9.92807 12.9804 10.1574 13.063 10.4589C13.0644 10.4633 13.0655 10.4675 13.0663 10.4719C13.076 10.5191 13.0698 10.5682 13.0488 10.6116C12.9169 10.8971 12.16 11.1075 11.281 11.1075L10.6943 11.1022L12.4695 11.8885H12.5575L12.5265 11.8749L11.4933 11.4174L10.8369 11.1266L11.2792 11.1306H11.281C11.7239 11.1306 12.1534 11.0787 12.49 10.9845C12.8265 10.8903 13.0516 10.7585 13.1178 10.6149C13.1395 10.5698 13.1457 10.5189 13.1356 10.4699ZM9.13709 10.3763L9.10566 10.404L9.11049 10.3994L9.13709 10.3752V10.3763Z" fill="white"/>
<path d="M8.94312 10.7584H9.1359H9.55641L9.63972 10.6823H9.02687L8.94312 10.7584ZM9.07501 10.7058H9.53882L9.50629 10.7355H9.04247L9.07501 10.7058Z" fill="white"/>
<path d="M10.9614 10.6338C10.9271 10.6435 10.8923 10.6513 10.8572 10.6573C10.7693 10.6729 10.6814 10.6793 10.4853 10.683C10.4279 10.683 10.3617 10.6846 10.2874 10.6846C10.2261 10.6846 10.1597 10.6846 10.0896 10.683L10.0059 10.7595C10.2131 10.7608 10.4201 10.7454 10.6249 10.7136C10.7389 10.6955 10.8514 10.6689 10.9614 10.6338ZM10.1085 10.7349L10.1391 10.7068C10.1892 10.7068 10.2395 10.7079 10.2892 10.7079C10.3552 10.7079 10.4237 10.7079 10.4901 10.7061H10.5097C10.3766 10.7232 10.2427 10.7328 10.1085 10.7349Z" fill="white"/>
<path d="M10.4539 10.6625C10.6238 10.6592 10.7109 10.6573 10.8105 10.6421C10.8846 10.6307 11.023 10.6096 11.0584 10.5654C11.1024 10.5115 10.9606 10.4621 10.9345 10.453C10.8065 10.4091 10.6291 10.3996 10.5124 10.3996C10.4528 10.3996 10.4089 10.4018 10.3959 10.4027L10.1115 10.6625C10.1618 10.6625 10.2192 10.6641 10.2827 10.6641C10.3357 10.6641 10.3939 10.6636 10.4539 10.6625ZM10.4473 10.4238C10.4651 10.4238 10.4873 10.4238 10.5133 10.4238C10.6232 10.4238 10.7755 10.4319 10.8841 10.47C10.9263 10.4847 11.0213 10.5232 10.9914 10.5605C10.9646 10.5944 10.8503 10.6118 10.7819 10.6221C10.6957 10.6353 10.6225 10.637 10.4506 10.6405C10.3952 10.6416 10.339 10.6421 10.2836 10.6421H10.2108L10.4473 10.4238Z" fill="white"/>
<path d="M10.2417 10.4021H10.1023L9.81653 10.6628H9.95589L10.2417 10.4021Z" fill="white"/>
<path d="M9.8502 10.7595L9.93418 10.6827H9.79481L9.71106 10.759H9.8502V10.7595Z" fill="white"/>
<path d="M6.71189 8.69168C7.71885 8.55405 8.73413 8.48634 9.75044 8.489V7.75085H9.73637C8.35151 7.75085 7.03458 7.84428 5.83789 8.01332L6.71189 8.69168Z" fill="#F7FAF6"/>
<path d="M14.5519 8.16113L13.5205 8.77369C14.4382 8.94149 15.2331 9.16486 15.8827 9.43743L17.552 9.00629C16.7362 8.66278 15.7161 8.37462 14.5519 8.16113Z" fill="white"/>
<path d="M0.0869141 11.8587V13.3658C0.398617 13.8005 0.974101 14.2017 1.75556 14.5501V12.9467L0.128899 11.8009C0.114831 11.82 0.100763 11.8393 0.0869141 11.8587Z" fill="#EDE8E8"/>
<path d="M5.4082 15.5516C6.57324 15.7381 7.86599 15.8519 9.23172 15.8743V14.2793L5.4082 13.9564V15.5516Z" fill="#EDE8E8"/>
<path d="M14.1689 15.5347C15.383 15.3344 16.4551 15.0546 17.3216 14.7159V13.2296L14.1689 14.0104V15.5347Z" fill="#EDE8E8"/>
<path d="M19.6527 12.6123C19.6527 12.6088 19.6527 12.6055 19.6527 12.6022V10.9209L19.5239 10.922L19.3887 11.7685V13.3635C19.5601 13.1223 19.6527 12.8708 19.6527 12.6123Z" fill="#EDE8E8"/>
<path d="M17.5384 11.0188C17.5384 11.2185 17.469 11.417 17.332 11.609L19.3898 11.7684C19.5621 11.5268 19.6535 11.2756 19.6535 11.0171C19.6515 10.826 19.6035 10.6383 19.5137 10.4697L17.4285 10.5859C17.4994 10.7193 17.5371 10.8678 17.5384 11.0188Z" fill="white"/>
<path d="M17.3216 13.2296L15.7422 12.7666C15.0419 13.0256 14.2068 13.2323 13.26 13.3803L14.169 14.0104C15.374 13.8213 16.4445 13.5545 17.3216 13.2296Z" fill="white"/>
<path d="M5.4082 13.9569C6.57324 14.1438 7.86665 14.2574 9.23304 14.2801L9.34295 13.5806C8.33799 13.5666 7.33531 13.4812 6.34243 13.3252L5.4082 13.9569Z" fill="white"/>
<path d="M0.0869141 11.7708C0.396418 12.2026 0.966188 12.601 1.73797 12.9476L3.42266 12.5488C2.80915 12.2676 2.38182 11.9544 2.15321 11.6182L0.0869141 11.7708Z" fill="white"/>
<path d="M0.161011 10.1666L2.25214 10.3601C2.53417 10.0284 3.01096 9.72315 3.66887 9.45234L1.9444 8.99704C1.12755 9.33835 0.513599 9.73479 0.161011 10.1666Z" fill="white"/>
<path d="M6.71189 8.69168C7.71885 8.55405 8.73413 8.48634 9.75044 8.489V7.75085H9.73637C8.35151 7.75085 7.03458 7.84428 5.83789 8.01332L6.71189 8.69168Z" fill="white"/>
<path d="M20.4225 8.35747L19.0124 8.36933C17.2787 7.41853 14.1182 6.78247 10.5054 6.78247C6.71291 6.78247 3.41827 7.48398 1.75029 8.51429L0.590088 8.52395V10.0394C0.590088 10.0427 0.590088 10.046 0.590088 10.0495C0.590088 11.8536 5.03042 13.3151 10.5065 13.3151C15.9827 13.3151 20.4225 11.8536 20.4225 10.0489C20.4225 10.0454 20.4225 10.0421 20.4225 10.0388V8.35747Z" fill="url(#paint2_linear_74_24300)"/>
<path d="M10.5068 11.7203C15.9833 11.7203 20.4228 10.2579 20.4228 8.4539C20.4228 6.64991 15.9833 5.1875 10.5068 5.1875C5.03036 5.1875 0.59082 6.64991 0.59082 8.4539C0.59082 10.2579 5.03036 11.7203 10.5068 11.7203Z" fill="#FF922E"/>
<path d="M10.5065 10.4605C13.8713 10.4605 16.599 9.562 16.599 8.45368C16.599 7.34534 13.8713 6.44688 10.5065 6.44688C7.14177 6.44688 4.41406 7.34534 4.41406 8.45368C4.41406 9.562 7.14177 10.4605 10.5065 10.4605Z" fill="white"/>
<path d="M10.513 6.39043H10.2305C10.0107 6.3935 9.79426 6.4004 9.58119 6.41107L9.65021 6.56328C9.93378 6.54944 10.2239 6.54242 10.513 6.54242V6.38867V6.39043ZM8.67026 6.48114L8.64828 6.48355H8.64169H8.63729H8.63465H8.6307H8.6208H8.61707H8.61377H8.61003H8.60893H8.60498H8.59487H8.59223H8.56101H8.55859H8.54782H8.54497H8.53727H8.53463H8.52584H8.52276H8.51969H8.51573H8.50958H8.5032H8.49946H8.49617H8.49287H8.48979H8.48649H8.48188H8.47836H8.47506H8.47177H8.46495H8.45814H8.45132H8.44451H8.4377C8.21979 6.50859 8.00773 6.53789 7.80154 6.57141L8.00421 6.71022C8.26338 6.66914 8.5342 6.63422 8.80875 6.60655L8.67136 6.45917L8.67026 6.48114ZM6.99129 6.74712C6.74224 6.80312 6.50615 6.86462 6.28457 6.93139L6.2793 6.93315L6.27424 6.93468H6.2716H6.26941H6.26699H6.26501H6.26281L6.58023 7.04758C6.79169 6.98322 7.01987 6.9237 7.25683 6.87033L6.99305 6.74294L6.99129 6.74712ZM5.62358 7.16442C5.44221 7.23747 5.26563 7.32192 5.09492 7.41722L5.49894 7.49453C5.65701 7.40624 5.82045 7.32781 5.98826 7.25974L5.62424 7.16398L5.62358 7.16442ZM4.68671 7.69484C4.60098 7.76499 4.52262 7.84366 4.45283 7.92963L4.45107 7.93204L4.44931 7.93424L4.44755 7.93644L4.44579 7.93863L4.44425 7.94083L4.4425 7.94302L4.44074 7.945V7.9461V7.9472V7.94852V7.95005L4.4392 7.95247L4.43634 7.95642L4.8918 7.99112C4.96516 7.8897 5.05155 7.79835 5.14877 7.71944L4.71419 7.66277L4.68671 7.69484ZM4.26752 8.29268C4.26095 8.32025 4.25609 8.34821 4.25301 8.37636C4.2529 8.37718 4.2529 8.37799 4.25301 8.37878V8.3812V8.38339V8.38493V8.38625V8.38756V8.39086V8.42183V8.42754V8.42995V8.43105V8.43215V8.43457V8.43566V8.43676V8.43786V8.4495V8.45192V8.45302V8.45411V8.45631V8.45741V8.45851V8.4596V8.4607V8.4618V8.464V8.46619C4.25312 8.46738 4.25312 8.46854 4.25301 8.46971V8.4719C4.25416 8.49714 4.25673 8.52231 4.26071 8.54724V8.54834C4.26071 8.54834 4.26071 8.54987 4.26071 8.55053V8.55163V8.55361V8.55866V8.56086C4.26202 8.56788 4.26334 8.57469 4.26488 8.58172L4.73134 8.57096C4.72171 8.52651 4.71685 8.48115 4.71683 8.43566C4.71692 8.38524 4.72281 8.33496 4.73441 8.28587L4.2684 8.27401L4.26752 8.29268ZM4.85487 8.87098L4.39853 8.90458C4.44408 8.97113 4.49558 9.0334 4.5524 9.09061L4.5546 9.09281L4.5568 9.09501L4.559 9.09742V9.09852V9.09962L4.5601 9.10072L4.5612 9.10182V9.10291L4.5623 9.10401L4.5634 9.10511H4.56449V9.10621L4.56647 9.10819L4.56867 9.11016L4.57087 9.11236L4.57307 9.11455L4.57768 9.11917C4.59703 9.13696 4.61703 9.15475 4.63791 9.17232L5.07381 9.11675C4.97839 9.03766 4.89409 8.94605 4.82322 8.8444L4.85487 8.87098ZM5.47696 9.4003L5.07118 9.47673L5.09689 9.49145L5.10041 9.49342L5.10393 9.49518H5.10569H5.10723H5.10877H5.11008H5.11162H5.11316H5.11426H5.11536H5.11668H5.118L5.1202 9.49628L5.12349 9.49804L5.12679 9.49979C5.21355 9.54723 5.30579 9.59351 5.40354 9.6386L5.40772 9.64058L5.41167 9.64234L5.41409 9.64343H5.41519L5.41761 9.64453H5.41871H5.42069L5.4242 9.64607H5.42596H5.42728H5.4286H5.42992H5.43124H5.43234H5.4341H5.43542H5.43739H5.43893H5.44069L5.44465 9.64783L5.44882 9.64958L5.453 9.65134C5.49081 9.66803 5.52906 9.68473 5.56819 9.70098L5.96056 9.63553C5.79458 9.56705 5.63305 9.48817 5.47696 9.39942V9.4003ZM6.54572 9.84616L6.22566 9.95839L6.30875 9.98365L6.31403 9.98519L6.31931 9.98672H6.32194H6.32458H6.32722H6.32964H6.33205L6.33689 9.98804H6.33931H6.34173H6.34414H6.34634H6.34876H6.35074H6.35316H6.35536H6.35777H6.35997H6.36195H6.36415H6.36591H6.36788H6.36964H6.37162H6.37338H6.37536H6.37646H6.378H6.37932H6.38085H6.38195H6.38393H6.38547H6.38657H6.38855H6.39009H6.39228H6.3936H6.39514H6.39668H6.39778H6.39932H6.40064H6.40218H6.40328H6.40481H6.40635H6.40745H6.40877H6.41053H6.41185H6.41295H6.41427H6.41602H6.41734H6.41844H6.42042H6.42174H6.42284H6.42482H6.42614H6.42833H6.42987H6.43207H6.43427H6.43537H6.43669H6.43911H6.44065H6.44306H6.4446H6.44702H6.44856H6.45142L6.45625 9.98936L6.46131 9.99068H6.46417H6.46592H6.469H6.47054H6.47362L6.47867 9.99199L6.48351 9.99331H6.48637H6.48813H6.49098H6.49274H6.4956L6.50044 9.99463L6.50549 9.99595H6.50857H6.51011H6.51362H6.51538H6.51868L6.52396 9.99748L6.52901 9.9988L6.53429 10.0001L6.5433 10.0025L6.54858 10.0041L6.55385 10.0056L6.55913 10.0069L6.56836 10.0093L6.57386 10.0109L6.57913 10.0122L6.58441 10.0135L6.59342 10.0159L6.59869 10.0173L6.60397 10.0186L6.60925 10.0201L6.61452 10.0214H6.61826L6.62375 10.0227L6.62903 10.0241L6.63431 10.0254H6.6376H6.63936H6.64266H6.64442H6.64771L6.65299 10.0267L6.65805 10.028H6.66112H6.66376H6.66662H6.66838H6.67167L6.67673 10.0291L6.68179 10.0304H6.68486H6.6875H6.69014H6.69168H6.69454H6.69739H6.70003L6.70487 10.0317H6.7075H6.70904H6.71168H6.713H6.7152H6.7673H6.76861H6.76993H6.77213H6.77455H6.77631H6.77895H6.78092H6.78224H6.78356H6.78598H6.78708H6.7884H6.78972H6.79169H6.79411H6.79565H6.79741H6.79873H6.80005H6.80203H6.80335H6.80466H6.80664H6.80796H6.81126H6.8128H6.81456H6.81566H6.81741H6.81873H6.82049H6.82269H6.82467H6.82687H6.82797H6.8295H6.83324H6.83544H6.8372H6.83962H6.84137H6.84269H6.84445H6.84687H6.84863H6.85105H6.8528H6.85522H6.85742H6.85984H6.86248H6.86489H6.86731H6.86973H6.87237L6.83962 10.0419L6.87742 10.0317L6.85105 10.0419L6.86248 10.0529L6.86731 10.0638H6.85742L6.85984 10.0748H6.89633L7.20341 9.91446C6.96711 9.86065 6.85017 9.86871 6.63936 9.8037L6.54572 9.84616ZM7.96355 10.1695L7.7578 10.3076C7.80073 10.3146 7.84397 10.3214 7.88749 10.328H7.89386H7.8998H7.90551H7.90837H7.91211H7.91475H7.92574H7.9275H7.93695H7.93959H7.94178H7.94464H7.94838H7.95124H7.95366H7.95651H7.96025H7.96311H7.96596H7.96926L7.97542 10.3291H7.98157H7.98795C8.19238 10.3584 8.40224 10.3844 8.61751 10.4071L8.75841 10.2602C8.48452 10.2318 8.21458 10.1963 7.95629 10.1545L7.96355 10.1695ZM9.60669 10.3403L9.53415 10.4923H9.58625H9.59284H9.61021H9.61746L9.63944 10.4934C9.90967 10.5057 10.185 10.5123 10.4653 10.5132L10.4688 10.3594C10.1798 10.3594 9.88982 10.3509 9.60669 10.3364V10.3403ZM12.1761 10.2837C11.9009 10.3109 11.6171 10.3313 11.332 10.3445L11.398 10.4969L11.4859 10.4928H11.4932H11.5002H11.5154H11.5198H11.6547H11.6732H11.68H11.6868H11.6936H11.7007C11.9069 10.4799 12.1094 10.4635 12.3083 10.4438L12.1744 10.2962L12.1761 10.2837ZM13.7349 10.0421C13.4957 10.0948 13.2427 10.142 12.9829 10.1824L13.1823 10.3217C13.3354 10.2979 13.485 10.2722 13.6311 10.2446L13.6531 10.2402L13.659 10.2391H13.665H13.6707H13.6744H13.6766H13.6801H13.6819H13.6854H13.6909H13.6964H13.6995H13.7028H13.7056H13.7072H13.7136H13.7158H13.7184H13.7199H13.7232H13.7245H13.7267H13.7307H13.7329H13.7342H13.7358H13.7382H13.7408H13.7424H13.7443H13.7472H13.7487H13.7516H13.7538H13.7558H13.7582H13.7602H13.7626H13.7646H13.767H13.7692H13.7716H13.774H13.7764H13.7791H13.7815H13.7841H13.7863H13.789H13.7912H13.7938H13.7962H13.7988L13.8043 10.238H13.8072H13.8101H13.8131H13.816H13.8188H13.8217H13.8248L13.8307 10.2367L13.8364 10.2356L13.8424 10.2345L13.8485 10.2332C13.8916 10.2242 13.9343 10.215 13.9767 10.2055L13.7355 10.0416L13.7349 10.0421ZM15.0098 9.65947C14.828 9.73304 14.628 9.80267 14.4163 9.86636L14.7311 9.98013C14.9615 9.91117 15.176 9.83649 15.3732 9.75677L15.0105 9.65903L15.0098 9.65947ZM15.888 9.17078C15.7678 9.26687 15.6395 9.35227 15.5044 9.426L15.9067 9.50441C15.9304 9.49123 15.9537 9.47805 15.9766 9.46465L15.9788 9.46333H15.9799L15.9819 9.46224H15.9832H15.9845H15.9858H15.9874H15.9887H15.9902H15.9918H15.9933H15.9948H15.9964H15.9979H15.9994L16.0012 9.46114L16.0216 9.43786L16.0252 9.43588C16.0819 9.40133 16.1356 9.36626 16.1863 9.33068L16.1894 9.32848L16.1922 9.32628L16.1951 9.32409L16.1979 9.32189L16.1995 9.32079H16.2008H16.2021H16.2034L16.2048 9.31969H16.2061H16.2074H16.2085H16.2098H16.2111H16.2122H16.2135H16.2147L16.2171 9.31772L16.2197 9.31574L16.2223 9.31376C16.2472 9.29509 16.2714 9.27643 16.2944 9.25754L15.8612 9.19955L15.888 9.17078ZM16.2885 8.61884C16.2608 8.72025 16.2143 8.81552 16.1513 8.89975L16.6059 8.93555C16.6285 8.90474 16.6493 8.87269 16.6684 8.83957L16.6697 8.83738V8.83606V8.83474V8.83364V8.8321V8.83101V8.82991V8.82771C16.6697 8.82707 16.6697 8.82639 16.6697 8.82574V8.82354V8.82134L16.6708 8.81915C16.696 8.76968 16.7162 8.71781 16.731 8.6643V8.66321V8.66189V8.66079V8.65947V8.65837V8.65728L16.2652 8.64432L16.2885 8.61884ZM16.6371 8.0188L16.1799 8.05108C16.2372 8.13659 16.2773 8.23246 16.2977 8.33332L16.7642 8.32365C16.7602 8.30169 16.7554 8.28148 16.7495 8.26062V8.2582V8.25578V8.25469V8.25359V8.25249V8.25139V8.24239V8.23075V8.22965V8.22833V8.22701V8.22547V8.22394V8.2224V8.21998C16.7494 8.21919 16.7494 8.21838 16.7495 8.21757V8.21515V8.21274C16.7495 8.21274 16.7495 8.2112 16.7495 8.21032C16.7494 8.20953 16.7494 8.20872 16.7495 8.2079C16.7259 8.14873 16.6964 8.09207 16.6615 8.03879L16.6371 8.0188ZM15.9777 7.44489L15.5701 7.52023C15.6997 7.59488 15.822 7.68129 15.9357 7.7783L16.3734 7.72471L16.3426 7.69857L16.341 7.69725L16.3393 7.69594L16.338 7.69484H16.3369H16.3358H16.3344L16.3334 7.69374H16.332H16.3309H16.3296L16.3283 7.69264L16.3257 7.69066L16.3228 7.68847C16.2202 7.60784 16.1121 7.53446 15.9992 7.46883L15.9777 7.44489ZM14.8346 6.96038L14.5119 7.07174C14.7203 7.13763 14.9155 7.20835 15.092 7.28302L15.4611 7.18858C15.3744 7.15184 15.2839 7.1161 15.1899 7.0814L15.185 7.07964L15.1806 7.0781L15.1762 7.07657H15.174H15.1721H15.1699H15.1681H15.1659H15.1644H15.1624H15.1606H15.1589H15.1571H15.1556H15.1536H15.1518H15.1507H15.1492H15.1479H15.1459H15.1446H15.1424L15.1382 7.07503L15.1338 7.07349H15.1307H15.1292H15.1261L15.1215 7.07195L15.1169 7.0702C15.031 7.03989 14.9425 7.01061 14.8513 6.98234L14.8346 6.96038ZM13.3106 6.60721L13.1016 6.74514C13.3585 6.78731 13.6083 6.83651 13.8437 6.89098L14.1127 6.76512C13.9857 6.73585 13.8553 6.70795 13.7215 6.68144L13.7153 6.68013L13.7092 6.67903L13.6872 6.67464L13.681 6.67354L13.6746 6.67222H13.6716L13.6588 6.6698L13.6527 6.66871L13.6465 6.66739L13.6245 6.66321H13.6182L13.6118 6.6619L13.6054 6.6608L13.596 6.65904L13.5896 6.65772L13.5832 6.65663H13.5768H13.5705L13.5608 6.65487H13.5546L13.5485 6.65377L13.5423 6.65267L13.5359 6.65157H13.5296H13.5265L13.5203 6.65048L13.5144 6.64938H13.5082L13.5019 6.64828H13.4957H13.4926L13.4865 6.64718L13.4801 6.64608H13.474H13.4709H13.468H13.4649H13.4619H13.459H13.4561H13.4533L13.4476 6.64498H13.4416H13.4386H13.4359H13.4331H13.4306H13.4278H13.4254H13.4225H13.4203H13.4177H13.415H13.4126H13.41H13.4078H13.4052H13.4032H13.4005H13.3983H13.3957H13.3946H13.3926H13.3882H13.386H13.3816H13.3792H13.3753H13.3728H13.3684H13.3662H13.3636H13.3614H13.3399H13.3368H13.3335H13.3304H13.3284H13.3247L13.3188 6.64389H13.3139L13.3106 6.60721ZM11.5387 6.4181L11.4626 6.57009C11.7464 6.58546 12.0289 6.60809 12.3021 6.6373L12.4463 6.4908C12.3861 6.48421 12.3256 6.47806 12.2647 6.47235H12.2584H12.2522H12.2491H12.1968H12.1937H12.19H12.1832H12.1764H12.1693C11.9642 6.4539 11.7543 6.43884 11.5398 6.42711L11.5387 6.4181Z" fill="#FF922E"/>
<path d="M10.506 6.13414C11.4227 6.13183 12.3385 6.19274 13.2467 6.31644C14.0851 6.43328 14.8382 6.60042 15.4849 6.81347C16.1316 7.02651 16.6394 7.2747 16.994 7.55078C17.3611 7.83631 17.5473 8.1405 17.5473 8.45348C17.5473 8.76646 17.3611 9.07043 16.994 9.3564C16.6394 9.63248 16.1316 9.88066 15.4849 10.0935C14.8382 10.3063 14.0851 10.4739 13.2467 10.5907C12.3384 10.7142 11.4227 10.7751 10.506 10.7728C9.58931 10.7751 8.6735 10.7143 7.76513 10.5907C6.92674 10.4739 6.17364 10.3065 5.52694 10.0935C4.88023 9.88044 4.37267 9.63226 4.01788 9.3564C3.65079 9.07087 3.4646 8.76668 3.4646 8.45348C3.4646 8.14028 3.65079 7.83675 4.01788 7.55078C4.37267 7.27448 4.88023 7.02651 5.52694 6.81347C6.17364 6.60042 6.92674 6.43328 7.76513 6.31644C8.67348 6.19274 9.58929 6.13183 10.506 6.13414ZM10.506 6.0957C6.55261 6.0957 3.34766 7.15127 3.34766 8.45348C3.34766 9.75569 6.55261 10.8115 10.506 10.8115C14.4595 10.8115 17.6642 9.75569 17.6642 8.45348C17.6642 7.15127 14.4601 6.0957 10.506 6.0957Z" fill="#F7FAF6"/>
<path d="M10.5065 6.2762C11.3668 6.27412 12.2261 6.33127 13.0784 6.4473C13.8656 6.55712 14.5732 6.71394 15.1799 6.91402C15.7866 7.11411 16.2636 7.34692 16.5966 7.60609C16.9413 7.87448 17.116 8.15979 17.116 8.45366C17.116 8.74753 16.9402 9.03284 16.5966 9.30123C16.2636 9.56062 15.787 9.79343 15.1799 9.99352C14.5727 10.1936 13.8656 10.3504 13.0784 10.4602C12.2261 10.5762 11.3667 10.6333 10.5065 10.6313C9.64589 10.6334 8.78614 10.5762 7.93335 10.4602C7.14618 10.3504 6.43859 10.1934 5.83211 9.99352C5.22563 9.79365 4.74818 9.56062 4.41494 9.30123C4.07026 9.03284 3.89551 8.74775 3.89551 8.45366C3.89551 8.15957 4.07136 7.87448 4.41494 7.60609C4.74796 7.34692 5.22475 7.11389 5.83189 6.91402C6.43903 6.71416 7.14596 6.5569 7.93313 6.4473C8.7859 6.33122 9.64567 6.27405 10.5063 6.2762M10.5063 6.23755C6.7914 6.23755 3.77856 7.22986 3.77856 8.45366C3.77856 9.67746 6.79008 10.6698 10.5063 10.6698C14.2226 10.6698 17.2328 9.67768 17.2328 8.45366C17.2328 7.22964 14.2213 6.23755 10.5063 6.23755Z" fill="#F7FAF6"/>
<path d="M13.7907 9.28854C13.7208 9.27927 13.6496 9.2917 13.587 9.32412H12.5804L12.438 9.4548C12.4063 9.48357 12.3232 9.5029 12.2303 9.5029L12.425 9.32522H12.2775L12.1357 9.45458C12.1041 9.48335 12.0212 9.50268 11.928 9.50268L12.1223 9.32522H11.9764L11.8348 9.45436C11.8032 9.48313 11.7203 9.50246 11.6273 9.50246L11.8212 9.32522L10.7359 9.32631H9.99383C10.0213 9.29205 10.1152 9.26811 10.2227 9.26811H10.7852L11.6466 8.26746H10.1277C9.73202 8.683 9.33635 9.15192 8.94068 9.57845C8.87473 9.65049 9.03586 9.73901 9.26403 9.73967C10.6649 9.74494 12.0658 9.73461 13.4667 9.73967C13.5465 9.73967 13.6171 9.72253 13.638 9.69706L13.9127 9.36387C13.9389 9.33224 13.8864 9.2982 13.7907 9.28854Z" fill="#FF922E"/>
<path d="M12.5922 7.16814H11.0359C10.8903 7.16814 10.7721 7.20704 10.7721 7.25606H11.5452C11.5089 7.28816 11.4175 7.30992 11.3137 7.3108L11.017 7.31388C10.8836 7.45707 10.7501 7.60023 10.6165 7.7434H12.0978L12.5174 7.25562H12.5583C12.626 7.25562 12.686 7.23914 12.6935 7.21694C12.701 7.19473 12.6566 7.17275 12.5922 7.16814Z" fill="url(#paint3_linear_74_24300)"/>
<path d="M13.8353 7.90743C13.8353 7.90304 13.8333 7.89887 13.8322 7.89447C13.75 7.59292 12.9714 7.36362 12.0517 7.36362H9.39119C9.17005 7.36362 8.97244 7.4093 8.89704 7.47761L8.68755 7.64453H8.45564C8.2954 7.64453 8.14416 7.66891 8.04634 7.71042H9.36371L9.70773 7.71218C9.87897 7.71218 10.001 7.76445 9.97503 7.8176L9.6642 8.09895H9.51781L9.81412 7.82836H9.72114L9.42482 8.09895H9.23776L9.53429 7.82836C9.04476 7.82529 8.64798 7.82199 8.15845 7.81892C8.04041 7.81892 7.93116 7.83957 7.87642 7.87383C7.85633 7.8854 7.83899 7.90122 7.82564 7.92017C7.8096 7.94543 7.87356 7.96915 7.95138 7.96585H7.95402C8.03887 7.96168 8.07536 7.93708 8.078 7.93533H8.93045C8.93045 7.95729 8.87506 7.97618 8.80647 7.97618H8.36112C7.74387 8.58105 7.31149 9.01593 7.1319 9.15056C6.95231 9.2852 7.10552 9.34077 7.23609 9.36185C7.29617 9.37112 7.35688 9.3756 7.41766 9.37525H8.54225L9.28963 8.65529H9.06982C8.95002 8.65529 8.85286 8.62344 8.85286 8.58391H10.1082C10.6404 8.83056 11.1724 9.07984 11.7046 9.32671C12.2161 9.32671 12.7276 9.32407 13.2389 9.32407L11.4634 8.53712L12.0501 8.5424C12.9294 8.5424 13.686 8.33264 13.8179 8.04646C13.8387 8.00326 13.8448 7.95443 13.8353 7.90743ZM9.31887 8.19559H9.14675L9.23072 8.11916H9.4024L9.31887 8.19559ZM9.55759 8.19559H9.4268L9.51011 8.1196H9.64068L9.55759 8.19559ZM10.327 8.19559C10.1596 8.19559 9.95518 8.19559 9.71366 8.19559L9.79741 8.12004H10.4094L10.327 8.19559ZM9.82006 8.09917L10.1102 7.83693C10.3593 7.83693 10.5655 7.83847 10.718 7.83869L10.4323 8.09917H9.82006ZM10.6206 8.19625H10.4815L10.5652 8.12004H10.7048L10.6206 8.19625ZM10.5877 8.09917L10.8734 7.83869H11.0128L10.727 8.09895L10.5877 8.09917ZM11.3951 8.15013C11.1903 8.18195 10.9833 8.19731 10.776 8.19603L10.8598 8.1196C11.0163 8.12223 11.1504 8.12136 11.2555 8.1196C11.4515 8.11608 11.5412 8.1095 11.6276 8.0939C11.6627 8.08786 11.6975 8.08002 11.7318 8.0704C11.6214 8.10528 11.5085 8.13185 11.3942 8.14991L11.3951 8.15013ZM11.829 8.00209C11.7936 8.04602 11.6551 8.06798 11.581 8.07875C11.4814 8.09368 11.3946 8.09566 11.2245 8.09917C11.0904 8.10181 10.9741 8.10093 10.8822 8.09917L11.1664 7.83957C11.2049 7.83737 11.5116 7.82199 11.705 7.88986C11.7303 7.89865 11.8712 7.94806 11.8281 8.00187L11.829 8.00209Z" fill="#FF922E"/>
<path d="M10.7171 7.83847C10.5645 7.83847 10.3583 7.83847 10.1093 7.83672L9.81909 8.09918H10.4317L10.7171 7.83847ZM9.91933 8.0761L10.1581 7.86024L10.6173 7.86156L10.3825 8.0761H9.91933Z" fill="white"/>
<path d="M9.42761 8.19544L9.55753 8.19522L9.6415 8.11938H9.51092L9.42761 8.19544Z" fill="white"/>
<path d="M9.14673 8.19591H9.31885L9.40238 8.11963H9.2307L9.14673 8.19591ZM9.27994 8.14249H9.30192L9.26873 8.17261H9.24675L9.27994 8.14249Z" fill="white"/>
<path d="M13.9056 7.90616C13.9056 7.90155 13.9036 7.89715 13.9025 7.89276C13.8612 7.74143 13.6484 7.60153 13.3035 7.49918C12.9586 7.39683 12.5157 7.34082 12.0527 7.34082H9.39161C9.14234 7.34082 8.91769 7.39265 8.83196 7.46953L8.72798 7.55255L8.64115 7.62173H8.45607C8.27516 7.62173 8.1015 7.64985 7.99115 7.69707L7.90432 7.73419H9.36414L9.70683 7.73594C9.75915 7.73493 9.81125 7.74319 9.86071 7.76032C9.89302 7.77306 9.90995 7.78909 9.90885 7.80425H9.67232L9.65562 7.81962L9.37601 8.07616H9.33798L9.44657 7.97732L9.60044 7.83653L9.63363 7.80623H9.53581L8.84493 7.80161L8.15997 7.797H8.15228C8.00983 7.797 7.88014 7.8227 7.81398 7.86421C7.79123 7.87745 7.77157 7.89544 7.75638 7.91692C7.74473 7.93515 7.75858 7.95382 7.79419 7.96832C7.83965 7.98413 7.88762 7.99157 7.93576 7.99028C7.94389 7.99028 7.95202 7.99028 7.95994 7.99028H7.96411C8.01599 7.98918 8.06727 7.97892 8.11557 7.95997H8.30615L8.2956 7.97029C8.17586 8.08742 8.06325 8.19799 7.95774 8.30194C7.52492 8.72759 7.21189 9.03508 7.06857 9.1427C6.85975 9.2993 7.06506 9.36102 7.20596 9.3843C7.2763 9.39497 7.34737 9.4002 7.41852 9.39989H8.59345L8.6095 9.3843L9.35688 8.66434L9.38854 8.63381H9.0698C9.02537 8.63585 8.98112 8.6272 8.94077 8.60855H10.072C10.3311 8.72869 10.5942 8.85147 10.849 8.97007C11.0994 9.08691 11.3579 9.20727 11.6129 9.32566H11.699C11.1686 9.07967 10.6384 8.83126 10.1082 8.58549H8.85284C8.85284 8.62502 8.95 8.65687 9.0698 8.65687H9.28962L8.54223 9.37683H7.41808C7.3573 9.37718 7.29659 9.3727 7.23651 9.36343C7.10594 9.34147 6.95075 9.2881 7.13232 9.15215C7.31389 9.01619 7.74429 8.5811 8.36154 7.97798H8.80624C8.87482 7.97798 8.93021 7.95953 8.93021 7.93713H8.07776C8.07512 7.93888 8.03863 7.96348 7.95378 7.96766H7.93642C7.86563 7.96766 7.81046 7.94569 7.82651 7.92175C7.83985 7.9028 7.85719 7.88699 7.87728 7.87541C7.93114 7.84159 8.03753 7.8205 8.15338 7.8205H8.15931C8.64885 7.82358 9.04562 7.82687 9.53515 7.82995L9.23818 8.09922H9.42525L9.72156 7.82863H9.81454L9.51823 8.09922H9.66463L9.97545 7.81831C10.0014 7.76515 9.87939 7.71398 9.70815 7.71288L9.36414 7.71112H8.04676C8.14458 7.66917 8.29582 7.64523 8.45607 7.64523H8.68797L8.89746 7.47831C8.97286 7.41 9.17048 7.36432 9.39161 7.36432H12.0527C12.9718 7.36432 13.7504 7.59362 13.8333 7.89518C13.8344 7.89957 13.8355 7.90374 13.8363 7.90814C13.846 7.95534 13.8399 8.00442 13.819 8.04782C13.6871 8.33335 12.93 8.54376 12.0512 8.54376L11.4638 8.53739L13.2389 9.32368H13.3268L13.296 9.3105L12.2629 8.85322L11.6063 8.56243L12.0486 8.56638H12.0505C12.4933 8.56638 12.9228 8.51455 13.2595 8.42032C13.5963 8.3261 13.821 8.19432 13.8871 8.05068C13.909 8.00585 13.9155 7.95505 13.9056 7.90616ZM9.90709 7.81259L9.87565 7.84093L9.88071 7.83632L9.90731 7.81216L9.90709 7.81259Z" fill="white"/>
<path d="M9.71289 8.1953H9.90567H10.3262L10.4097 8.12012H9.79686L9.71289 8.1953ZM9.84588 8.14276H10.3097L10.2769 8.17243H9.81313L9.84588 8.14276Z" fill="white"/>
<path d="M11.7312 8.07019C11.6968 8.07982 11.6621 8.08767 11.627 8.09371C11.539 8.10932 11.4511 8.11569 11.2548 8.11943C11.1974 8.11943 11.1313 8.12097 11.057 8.12097C10.9959 8.12097 10.9295 8.12097 10.8591 8.11943L10.7754 8.19593C10.9826 8.1972 11.1896 8.18184 11.3944 8.14998C11.5085 8.13181 11.6211 8.10514 11.7312 8.07019ZM10.8778 8.17131L10.9084 8.14317C10.9585 8.14317 11.0088 8.14427 11.0585 8.14427C11.1245 8.14427 11.193 8.14427 11.2594 8.14251H11.2792C11.1461 8.15963 11.012 8.16924 10.8778 8.17131Z" fill="white"/>
<path d="M11.2231 8.09921C11.3933 8.09569 11.4801 8.09371 11.5797 8.07876C11.6537 8.06733 11.7922 8.04623 11.8276 8.00205C11.8716 7.94819 11.7298 7.89873 11.7036 7.88972C11.5757 7.84576 11.3983 7.8363 11.2818 7.8363C11.222 7.8363 11.1783 7.8385 11.1651 7.83938L10.8809 8.09921C10.931 8.09921 10.9884 8.10075 11.0519 8.10075C11.1049 8.10075 11.1629 8.10031 11.2231 8.09921ZM11.2165 7.86048C11.2343 7.86048 11.2565 7.85939 11.2825 7.85939C11.3924 7.85939 11.5445 7.86752 11.6533 7.90555C11.6955 7.92027 11.7905 7.95874 11.7606 7.99611C11.7335 8.02996 11.6192 8.04733 11.5509 8.05766C11.4649 8.07085 11.3917 8.07261 11.2196 8.07613C11.1642 8.07613 11.1082 8.07766 11.0525 8.07766H10.9798L11.2165 7.86048Z" fill="white"/>
<path d="M11.0112 7.83871H10.8718L10.5861 8.09942H10.7256L11.0112 7.83871Z" fill="white"/>
<path d="M10.6197 8.19612L10.7039 8.11984H10.5643L10.4806 8.19612H10.6197Z" fill="white"/>
<path d="M7.48218 6.12876C8.48921 5.99113 9.50455 5.92341 10.5209 5.92609V5.1875H10.5069C9.12202 5.1875 7.80509 5.28092 6.6084 5.44996L7.48218 6.12876Z" fill="#F7FAF6"/>
<path d="M15.3216 5.59802L14.29 6.21058C15.2078 6.37816 16.0026 6.60175 16.6522 6.87454L18.3215 6.4434C17.5058 6.09923 16.4856 5.81151 15.3216 5.59802Z" fill="white"/>
<path d="M0.856445 9.29536V10.8025C1.16815 11.2371 1.74363 11.6384 2.52486 11.9868V10.3834L0.899749 9.23694C0.884362 9.25671 0.870294 9.27603 0.856445 9.29536Z" fill="#EDE8E8"/>
<path d="M6.17773 12.9884C7.34277 13.1749 8.63574 13.2885 10.0013 13.3111V11.7161L6.17773 11.3926V12.9884Z" fill="#EDE8E8"/>
<path d="M14.9385 12.9713C16.1525 12.771 17.2246 12.4912 18.0911 12.1525V10.6663L14.9385 11.4471V12.9713Z" fill="#EDE8E8"/>
<path d="M20.4222 10.0488C20.4222 10.0453 20.4222 10.042 20.4222 10.0387V8.35742L20.2936 8.35852L20.1582 9.20499V10.7993C20.3305 10.5588 20.4222 10.3073 20.4222 10.0488Z" fill="#EDE8E8"/>
<path d="M18.307 8.45546C18.307 8.65511 18.2375 8.85366 18.1006 9.04562L20.1583 9.20507C20.3306 8.96347 20.4221 8.71221 20.4221 8.4537C20.4202 8.26273 20.3724 8.07503 20.2827 7.90637L18.1971 8.02278C18.2679 8.15612 18.3056 8.3045 18.307 8.45546Z" fill="white"/>
<path d="M18.0909 10.6662L16.5115 10.203C15.8111 10.4622 14.9761 10.6688 14.0293 10.8169L14.9382 11.447C16.1433 11.2579 17.214 10.9911 18.0909 10.6662Z" fill="white"/>
<path d="M6.17773 11.3929C7.34277 11.5798 8.63618 11.6934 10.0026 11.7161L10.1125 11.0166C9.10791 11.0027 8.10559 10.9176 7.11306 10.7618L6.17773 11.3929Z" fill="white"/>
<path d="M0.856445 9.20721C1.16595 9.63879 1.73572 10.0374 2.5075 10.384L4.19219 9.98516C3.57867 9.70402 3.15157 9.39083 2.92274 9.05457L0.856445 9.20721Z" fill="white"/>
<path d="M0.930542 7.60324L3.02167 7.7963C3.30392 7.46443 3.78048 7.15936 4.4384 6.88855L2.71392 6.43369C1.89708 6.775 1.28313 7.17144 0.930542 7.60324Z" fill="white"/>
<path d="M7.48218 6.12876C8.48921 5.99113 9.50455 5.92341 10.5209 5.92609V5.1875H10.5069C9.12202 5.1875 7.80509 5.28092 6.6084 5.44996L7.48218 6.12876Z" fill="white"/>
<path d="M27.8171 15.2946C27.8355 15.2709 27.854 15.247 27.872 15.2228L28.9038 13.8725L28.6363 13.7069C29.5565 10.6603 27.4519 6.94632 23.6185 5.10776C20.5149 3.6193 17.16 3.78314 15.0379 5.29137L14.8911 5.20066L14.109 6.13169C14.0744 6.17154 14.0404 6.21179 14.0072 6.25249L13.9938 6.26853C13.7538 6.56466 13.549 6.88763 13.3836 7.23096C11.8668 10.3873 13.9909 14.554 18.1268 16.5375C21.8305 18.3139 25.8917 17.7367 27.7889 15.3295L27.8171 15.2946Z" fill="url(#paint4_linear_74_24300)"/>
<path d="M29.0529 13.5855C30.5692 10.4291 28.4456 6.26244 24.3097 4.27895C20.1737 2.29545 15.5917 3.24625 14.0755 6.40259C12.5592 9.55896 14.6829 13.7256 18.8188 15.7091C22.9547 17.6926 27.5369 16.7418 29.0529 13.5855Z" fill="#FF922E"/>
<path d="M26.1648 12.2005C27.0964 10.2613 25.7916 7.70139 23.2507 6.48275C20.7096 5.26413 17.8945 5.84829 16.9629 7.78749C16.0313 9.72671 17.3361 12.2867 19.8771 13.5053C22.4182 14.7239 25.2332 14.1398 26.1648 12.2005Z" fill="white"/>
<path d="M16.8347 7.72206V7.72404V7.7258V7.72777V7.72931V7.73107V7.73282V7.7348V7.73634V7.73832V7.74007V7.74183V7.74359V7.74534V7.7471V7.74864V7.7504V7.75193V7.75369V7.75501V7.75698V7.75852V7.7605V7.76182V7.76357V7.76489V7.76665V7.76819V7.76972V7.77104V7.77214V7.7739V7.77521V7.77697V7.77807V7.77961V7.78114V7.78224V7.784V7.78532V7.78664V7.78773V7.78905V7.79037V7.79147V7.79278V7.79432V7.79608V7.79762V7.79871V7.80047V7.80157V7.80377V7.80508L16.8336 7.8075V7.80882L16.832 7.81277L16.8303 7.81673L16.8287 7.82068V7.822L16.8276 7.82463V7.82595L16.8263 7.82859V7.8299L16.8246 7.8343L16.8228 7.83869C16.8228 7.84001 16.8228 7.84132 16.821 7.84286C16.7683 7.97201 16.7242 8.10451 16.6892 8.23952L17.0576 8.36735C17.1043 8.18821 17.1681 8.01398 17.2482 7.84703L16.8347 7.72206ZM16.5326 8.88393C16.5326 8.88898 16.5326 8.89425 16.5326 8.8993V8.90392C16.5326 8.90501 16.5326 8.90589 16.5326 8.90699V8.90853V8.91138V8.91292V8.91753V8.92193V8.92808V8.98167V8.9865V8.99858V9.00077V9.00297V9.00517V9.00736V9.00978V9.01198V9.01439V9.01659V9.019V9.02384V9.02867C16.5326 9.03042 16.5326 9.03196 16.5326 9.0335V9.04228C16.5328 9.04389 16.5328 9.04551 16.5326 9.04712C16.53 9.20117 16.5373 9.35524 16.5546 9.50835L16.9283 9.54415C16.906 9.35236 16.9009 9.15898 16.9131 8.96629L16.5377 8.88371L16.5326 8.88393ZM16.6775 10.144C16.738 10.3525 16.8138 10.5564 16.9041 10.7539L16.9061 10.7587L16.9083 10.7633L16.9094 10.7655V10.7675V10.7697V10.7715V10.7734L17.2565 10.7148C17.1685 10.5257 17.095 10.3302 17.0367 10.1299L16.672 10.1416L16.6775 10.144ZM17.2541 11.3904C17.3862 11.5943 17.5316 11.7892 17.6893 11.974L17.9788 11.8264C17.8328 11.6553 17.6983 11.4749 17.5759 11.2863L17.2541 11.3904ZM18.2107 12.5136C18.3602 12.6502 18.5182 12.7813 18.6847 12.9068L18.6895 12.9103L18.6941 12.9138L18.6987 12.9173L18.7033 12.9208L18.708 12.9241L18.7124 12.9274L18.7168 12.9307L18.719 12.9325L18.7209 12.934L18.7229 12.9355L18.7247 12.9368L18.7266 12.9382L18.7282 12.9393L18.7302 12.9408L18.7317 12.9419C18.7322 12.9425 18.7328 12.943 18.7335 12.9434L18.7348 12.9445L18.7365 12.9458H18.7379L18.7396 12.9472H18.7407L18.7427 12.9485H18.744L18.7456 12.9496L18.7471 12.9507H18.7484L18.7504 12.952H18.7517L18.7539 12.9535H18.7552L18.7576 12.9551V12.9562L18.7598 12.9579H18.7612L18.7638 12.9599C18.7642 12.9604 18.7647 12.9608 18.7653 12.961L18.7684 12.963L18.7733 12.9665L18.7816 12.9726L18.9871 12.7482C18.804 12.6173 18.6285 12.4761 18.4613 12.3254L18.211 12.5136H18.2107ZM19.4663 13.413C19.5279 13.4473 19.5904 13.4807 19.6538 13.5134L19.6591 13.5162L19.6646 13.5189L19.6701 13.5215L19.6734 13.5233H19.6752L19.678 13.5246H19.6798L19.6826 13.5259H19.6842L19.6868 13.5272H19.6884L19.6908 13.5285H19.6923H19.6936H19.6956H19.6969H19.6989H19.7002L19.7024 13.5296H19.7035H19.7048H19.7066H19.7081H19.7092H19.7108H19.7123H19.7139H19.715H19.7165H19.718H19.7196H19.7213H19.7226H19.7242L19.7262 13.5307H19.7275H19.729L19.7312 13.5318H19.733L19.7352 13.5329H19.7367L19.7389 13.534H19.7407H19.7429H19.7446H19.7468L19.749 13.5351H19.7514L19.7536 13.5362L19.7561 13.5373L19.7583 13.5384L19.7605 13.5395L19.7629 13.5406L19.7651 13.5417L19.7675 13.5428L19.7697 13.5439L19.7723 13.5452L19.7745 13.5463L19.7769 13.5476L19.7789 13.5487L19.7813 13.5501L19.7835 13.5512L19.7862 13.5523L19.7886 13.5534L19.791 13.5547L19.7934 13.556L19.7961 13.5573L19.7985 13.5586L19.8009 13.5597L19.8029 13.5608L19.8053 13.5619H19.8073H19.8093L19.8117 13.563H19.8137L19.8159 13.5641H19.8178H19.8198H19.8222L19.8242 13.5652L19.8264 13.5663L19.8288 13.5676H19.8308L19.833 13.5687H19.8354H19.8376L19.84 13.5698H19.8424L19.8475 13.5722L19.8499 13.5736L19.855 13.576L19.8627 13.5797L19.8679 13.5821C19.9266 13.6092 19.9848 13.6353 20.0427 13.6603H20.0453L20.0506 13.6625H20.0528L20.0552 13.6636H20.0572H20.0592H20.0612H20.0627H20.0645H20.0662H20.0675L20.0726 13.6658L20.1216 13.6862L20.226 13.4058C20.121 13.3618 20.0152 13.3148 19.9119 13.2652C19.7976 13.2103 19.6835 13.1514 19.5734 13.0895L19.4663 13.413ZM20.9556 13.7111L20.9061 14.0109C21.0628 14.0558 21.2193 14.0945 21.3757 14.1268L21.3814 14.1281H21.3871L21.3928 14.1295H21.3959H21.3985H21.4014H21.404H21.4067H21.4091H21.4117H21.4142H21.4168H21.419H21.4216H21.4236H21.426H21.4282H21.4304H21.4326H21.435H21.439H21.4407H21.4509H21.4522H21.4566H21.4581H21.4623H21.464H21.4676H21.47H21.4735H21.4759H21.4775H21.4805L21.4858 14.1306L21.4911 14.1317L21.4964 14.1328H21.5019L21.5133 14.1347C21.5596 14.1432 21.6058 14.1513 21.652 14.1589L21.6487 13.8657C21.4146 13.8278 21.1829 13.776 20.9549 13.7106L20.9556 13.7111ZM22.3405 13.9346L22.4033 14.2525C22.4167 14.2525 22.4304 14.2525 22.4438 14.2538H22.5097C22.6427 14.2563 22.7746 14.254 22.9054 14.247H22.9109H22.9164H22.9313H22.936H22.9775H22.983H22.9885C23.0371 14.2436 23.0856 14.2396 23.134 14.2351L23.0166 13.9188C22.7924 13.9399 22.5669 13.9463 22.3418 13.9382L22.3405 13.9346ZM23.697 13.8962L23.8282 14.1165C23.8552 14.1101 23.882 14.1033 23.9091 14.0965L23.9141 14.0952L23.919 14.0939H23.9216H23.924H23.9265H23.9289H23.9313L23.9359 14.0926H23.9381H23.9405H23.9427H23.9447H23.9471H23.9489H23.9511H23.9533H23.9555H23.9574H23.9592H23.9614H23.9632H23.9651H23.9665H23.9684H23.97H23.972H23.9735H23.9748H23.9761H23.9779H23.9792H23.981H23.9832H23.9849H23.986H23.9873H23.9889H23.9902H23.9915H23.9928H23.9942H23.9957H23.9975H23.9986H24.0003H24.0025H24.0043H24.0054H24.0073H24.0102H24.0124H24.0137H24.0148H24.0168H24.0188H24.0199H24.0212H24.0234H24.0263H24.0284H24.0298H24.032H24.0333H24.0359L24.0403 14.0912L24.0449 14.0899H24.0478H24.0493H24.052H24.0535H24.0561L24.0605 14.0886L24.0649 14.0873H24.0676H24.0689H24.0715H24.0731H24.0757L24.0801 14.086L24.0847 14.0844H24.0876H24.0891H24.0922H24.0937H24.0968L24.1014 14.0831L24.106 14.0818L24.1107 14.0803L24.1188 14.0778L24.1236 14.0765L24.1282 14.0752L24.1329 14.0737L24.141 14.071L24.1458 14.0695L24.1504 14.068L24.1551 14.0666L24.163 14.0642L24.1678 14.0627L24.1724 14.0612L24.177 14.0594L24.1817 14.0579L24.1847 14.0568L24.1894 14.0552L24.194 14.0535L24.1986 14.0519H24.2014H24.203H24.2058H24.2074L24.2105 14.0508L24.2151 14.0493L24.2195 14.0478H24.2221H24.2234H24.2258H24.2274H24.2302L24.2346 14.0462L24.239 14.0447H24.2417H24.243H24.2452H24.2465H24.2489H24.2502H24.2527L24.2568 14.0431H24.259H24.2604H24.2626H24.2639H24.2656H24.267H24.2687H24.27H24.2716H24.2733H24.2744H24.2757H24.2777H24.2788H24.2806H24.2817H24.283H24.2845H24.2863H24.2876H24.2894H24.2907H24.292H24.2935H24.2949H24.2968H24.2984H24.3004H24.3017H24.3034H24.305H24.307H24.3085H24.3098H24.3118H24.3133H24.3153H24.3169H24.3188H24.3204H24.3226H24.3245H24.3267H24.3289H24.3309H24.3331H24.3351H24.3373H24.3393H24.3415L24.3461 14.0414H24.3483H24.3505H24.3527H24.3549H24.3571L24.3617 14.0396L24.3663 14.0377L24.3709 14.0357L24.3854 14.0297L24.1689 13.7372C23.975 13.8158 23.9005 13.8477 23.697 13.8962ZM24.793 13.3478L25.0528 13.6186C25.0807 13.6015 25.1084 13.584 25.1355 13.5661L25.1394 13.5635L25.1431 13.561L25.1467 13.5586L25.1484 13.5573L25.15 13.5562L25.1513 13.5551L25.1528 13.554H25.1541H25.1557H25.157L25.1588 13.5529H25.1603H25.1618H25.1632L25.1649 13.5518H25.1664H25.1684L25.1702 13.5507L25.1719 13.5494L25.1759 13.5468L25.1796 13.5441L25.1836 13.5415C25.3074 13.457 25.4254 13.3645 25.5368 13.2645L25.2392 13.0229C25.0998 13.1433 24.9508 13.2518 24.7932 13.3471L24.793 13.3478ZM25.6397 12.5887L25.9694 12.7978L25.9708 12.7961L25.9721 12.7943V12.7932V12.7917L25.9734 12.7899V12.7888L25.9747 12.7871V12.786L25.9774 12.7827L25.98 12.7791L25.9826 12.7756L25.9853 12.7721V12.771L25.987 12.7686V12.7673L25.9899 12.7636L25.9982 12.7521C26.1024 12.6089 26.1941 12.4569 26.2724 12.2979L25.9206 12.1266C25.8387 12.2927 25.7411 12.4505 25.6289 12.5979L25.6397 12.5887ZM26.2209 11.0447C26.2071 11.2317 26.1754 11.4169 26.1266 11.598L26.4942 11.728C26.4992 11.7093 26.5043 11.6906 26.5089 11.672V11.6676L26.5102 11.6632V11.6603V11.659C26.5102 11.6577 26.5102 11.6562 26.5102 11.6548V11.652V11.6507V11.648V11.6467V11.6443V11.6421V11.6399V11.634V11.6322V11.6294V11.6276V11.6247V11.623V11.6184V11.6135V11.6089V11.6076V11.6059V11.603V11.6012V11.5984V11.5966V11.59V11.5885V11.5865V11.585V11.583V11.5813V11.5793V11.5775V11.5755V11.5681V11.5659V11.5639V11.5617V11.5575V11.5534V11.549V11.5446V11.5402V11.5356C26.5375 11.4022 26.5559 11.2672 26.566 11.1314L26.2209 11.0447ZM26.0974 9.88063C26.1515 10.0731 26.1895 10.2696 26.211 10.4684L26.5847 10.5066C26.5726 10.3922 26.555 10.2777 26.532 10.1629C26.532 10.1569 26.5298 10.151 26.5284 10.1453C26.5284 10.1438 26.5284 10.1422 26.5284 10.1407C26.5284 10.1391 26.5284 10.1376 26.5284 10.1361C26.5284 10.1345 26.5284 10.133 26.5284 10.1315V10.1284V10.1268V10.124V10.1227V10.1198V10.1154V10.111V10.1084V10.106V10.1038V10.1025V10.1007V10.0985V10.0974V10.0937V10.0919V10.0888V10.0871V10.0838V10.082V10.0746V10.073V10.0706V10.0682V10.0664V10.0634V10.0614V10.0585V10.0566V10.0548V10.0526V10.0508V10.0489V10.0471V10.0451V10.0432V10.0412V10.0392V10.0374V10.0353V10.0335V10.0315V10.0298V10.0276V10.0232C26.5284 10.0224 26.5284 10.0216 26.5284 10.0208V10.0186V10.0164V10.0142V10.012V10.0096V10.0071C26.5284 10.0056 26.5284 10.0041 26.5284 10.0025C26.5284 10.001 26.5284 9.99945 26.5284 9.99791L26.5271 9.99308C26.5271 9.99133 26.5271 9.98979 26.5271 9.98803C26.5183 9.95333 26.5091 9.91863 26.4994 9.88392L26.1341 9.89337L26.0974 9.88063ZM25.5733 8.72491C25.6898 8.9078 25.7934 9.09862 25.8831 9.29596L26.2312 9.23974C26.1343 9.02717 26.0224 8.82168 25.8967 8.62476L25.5733 8.72667V8.72491ZM24.6971 7.68055C24.8668 7.83774 25.0266 8.00528 25.1757 8.1822L25.4669 8.03658C25.4432 8.00847 25.4192 7.98051 25.3951 7.95268L25.3929 7.94982V7.94851L25.3909 7.94631L25.3898 7.94521L25.3882 7.94367V7.94258L25.3869 7.94126L25.3856 7.93972V7.93862L25.3843 7.93708V7.93599L25.3828 7.93423L25.3814 7.93269L25.3801 7.93094L25.3786 7.92896L25.377 7.92742L25.3753 7.92566L25.3737 7.92413L25.372 7.92215L25.3704 7.92039L25.3687 7.91863L25.3671 7.91688L25.3654 7.9149L25.3616 7.91073L25.3577 7.90656C25.2944 7.83612 25.2289 7.76665 25.1614 7.69812L25.1572 7.69417L25.1533 7.69022L25.1491 7.68626L25.1451 7.68231L25.1434 7.68033L25.1414 7.67836L25.1394 7.67638L25.1377 7.67462L25.1357 7.67264L25.1339 7.67089L25.1322 7.66913L25.1304 7.66759L25.1286 7.66584L25.1271 7.66408L25.1256 7.66232L25.124 7.66056L25.1227 7.65925L25.1212 7.65749L25.1198 7.65617L25.1183 7.65441L25.117 7.6531L25.1155 7.65156L25.1139 7.65024V7.64914L25.1126 7.64783L25.1111 7.64629L25.1095 7.64475V7.64365L25.108 7.64212L25.1045 7.6386L25.1007 7.63509C25.0996 7.63373 25.0983 7.6325 25.097 7.63135C25.0612 7.5965 25.0247 7.56202 24.9871 7.52791L24.6971 7.68055ZM23.5422 6.84265C23.7517 6.96039 23.9542 7.09004 24.1487 7.23096L24.3564 7.00825C24.29 6.95993 24.2223 6.91271 24.1535 6.86659L24.1487 6.86329L24.1456 6.8611H24.1441L24.141 6.85912H24.1397L24.1373 6.85758H24.1357L24.1331 6.85582H24.1318H24.1304L24.1287 6.85451H24.1276L24.1258 6.85319H24.1247L24.123 6.85209H24.1214L24.1195 6.85077H24.1179L24.1159 6.84945H24.1144L24.1122 6.84814L24.1107 6.84704L24.1085 6.8455L24.1065 6.8444L24.0887 6.82398L24.0865 6.82244L24.0819 6.81936L24.077 6.81629L24.0722 6.81322L24.0674 6.81014L24.0623 6.80685C23.9526 6.73584 23.8398 6.6676 23.7242 6.60215L23.7216 6.60061L23.7189 6.59907L23.7165 6.59753L23.7141 6.596L23.7119 6.59468L23.7095 6.59336L23.7075 6.59204L23.7053 6.59073L23.5464 6.84462L23.5422 6.84265ZM22.2642 5.98278L22.2116 6.2817C22.4425 6.3493 22.6693 6.42997 22.8911 6.5233L22.9984 6.24392C22.9487 6.22196 22.8992 6.20285 22.8496 6.18308L22.8438 6.18089L22.8384 6.17869L22.8357 6.17759H22.8331H22.8307H22.828H22.8258H22.8234H22.8212H22.8188H22.8168L22.8142 6.17649H22.812H22.8096H22.8076H22.8056H22.8038H22.8021H22.8008H22.799H22.7975H22.7961H22.7944H22.7933H22.7918H22.7904H22.7887H22.7876H22.786H22.7847H22.783H22.7816H22.7797H22.7783H22.777H22.7755H22.7737H22.7722H22.7702H22.7689H22.7674H22.7658L22.7634 6.1754H22.7619L22.759 6.1743H22.7575L22.7542 6.17298H22.7524L22.7491 6.17166H22.7473L22.7436 6.17035H22.7419L22.7383 6.16903H22.7366L22.7328 6.16771H22.7309L22.7254 6.16551L22.7199 6.16354L22.7142 6.16156L22.7084 6.15936L22.6818 6.12115L22.6761 6.11917C22.5392 6.06909 22.4018 6.024 22.2642 5.98388V5.98278ZM20.7659 5.73174L20.8259 6.04955C21.058 6.05956 21.2892 6.08383 21.5183 6.12225L21.5144 5.81036L21.4456 5.79938H21.4421H21.4401H21.4368H21.435H21.432H21.4289H21.4262H21.3799H21.3772H21.3746H21.3717H21.366H21.3603C21.161 5.77127 20.9636 5.75311 20.7681 5.74491L20.7659 5.73174ZM19.3386 5.85759L19.5048 6.16507C19.7172 6.11623 19.9327 6.08218 20.1498 6.06316L20.0352 5.74777C19.9271 5.75721 19.82 5.76973 19.7143 5.78598H19.709H19.7037H19.6989H19.6965H19.6483H19.6459H19.6413H19.6367H19.6334H19.6316H19.6283H19.6233H19.6182C19.5246 5.80195 19.4324 5.82053 19.3417 5.84177L19.3386 5.85759ZM18.1076 6.34759L18.3655 6.6195C18.538 6.5159 18.7187 6.42657 18.9058 6.35242L18.6915 6.05899C18.5889 6.09984 18.4889 6.14436 18.3914 6.19253L18.387 6.19472L18.3824 6.19692L18.3664 6.20505L18.362 6.20724L18.3574 6.20944L18.3552 6.21054L18.3461 6.21515L18.3417 6.21735L18.3374 6.21976L18.3217 6.22789L18.3173 6.23009L18.313 6.23228L18.3083 6.2347L18.3017 6.23821L18.2973 6.24063L18.2929 6.24282L18.2886 6.24502L18.2842 6.24744L18.2776 6.25095L18.2732 6.25337L18.269 6.25578L18.2646 6.2582L18.2602 6.26061L18.2558 6.26303L18.2536 6.26435L18.2494 6.26655L18.2452 6.26874L18.2411 6.27116L18.2367 6.27357L18.2323 6.27599H18.2301L18.2257 6.27841L18.2215 6.28082L18.2173 6.28324L18.2154 6.28456L18.2132 6.28565H18.2112L18.2092 6.28675L18.207 6.28785L18.205 6.28895H18.2028L18.1989 6.29114L18.1949 6.29356L18.1929 6.29466H18.191H18.1892H18.1874L18.1857 6.29576H18.1841H18.1824H18.1808H18.1791L18.1773 6.29685H18.1758H18.1738H18.1725H18.1707H18.1694L18.1677 6.29795H18.1661H18.1644H18.1628H18.1615H18.16H18.1586H18.1571H18.156H18.1545H18.1534H18.1518H18.1505H18.1494H18.1476H18.1465L18.1446 6.29905L18.1422 6.30037L18.1382 6.30278L18.1351 6.30454L18.1076 6.34759ZM17.1831 7.16024L17.5104 7.37109C17.626 7.22257 17.7554 7.08528 17.8968 6.96103L17.601 6.71702C17.5695 6.74469 17.5388 6.77258 17.5086 6.80135L17.5053 6.80443L17.5023 6.80729L17.5007 6.8086V6.8097V6.8108L17.4994 6.81212L17.4981 6.81344V6.81453L17.4968 6.81585L17.4954 6.81717L17.4939 6.81871L17.4926 6.82024L17.4911 6.82178L17.4895 6.82332L17.4878 6.82486L17.4845 6.82815L17.4812 6.83144L17.4779 6.83474C17.3783 6.93294 17.2854 7.03755 17.1996 7.14794L17.1831 7.16024Z" fill="#FF922E"/>
<path d="M16.2472 7.44417C16.511 6.89641 16.9067 6.43232 17.4239 6.06509C17.924 5.71016 18.5157 5.46022 19.1824 5.32163C19.8492 5.18304 20.5592 5.16327 21.2905 5.26254C22.8418 5.48343 24.2873 6.17673 25.4301 7.24804C25.9652 7.75605 26.3931 8.32161 26.7027 8.92846C27.0122 9.53531 27.1863 10.1534 27.2225 10.765C27.2595 11.3983 27.1447 11.9972 26.8816 12.5441C26.6185 13.091 26.2221 13.5559 25.7049 13.9232C25.2048 14.2781 24.6128 14.528 23.9463 14.6666C23.2799 14.8052 22.5696 14.825 21.8383 14.7257C20.2869 14.5048 18.8414 13.8115 17.6987 12.7402C17.1647 12.2331 16.7354 11.6677 16.4261 11.0607C16.1169 10.4536 15.9425 9.83577 15.9063 9.22409C15.8693 8.59088 15.9841 7.99216 16.2472 7.44505M16.1593 7.40266C15.0644 9.68027 16.5972 12.6882 19.5827 14.12C22.5683 15.5518 25.8761 14.8667 26.9706 12.5874C28.0651 10.308 26.5323 7.30097 23.5467 5.86918C20.5611 4.43738 17.2527 5.1233 16.1588 7.40178L16.1593 7.40266Z" fill="#F7FAF6"/>
<path d="M16.5722 7.60017C16.8193 7.08579 17.191 6.65025 17.6768 6.30433C18.1463 5.97114 18.702 5.73635 19.3285 5.60633C19.955 5.47631 20.6211 5.45786 21.3069 5.55098C22.7639 5.75895 24.1212 6.41054 25.1942 7.417C25.6965 7.89404 26.0985 8.42468 26.3889 8.99463C26.6793 9.56458 26.8435 10.1446 26.8769 10.7188C26.9116 11.3133 26.8039 11.8756 26.5568 12.39C26.3097 12.9043 25.938 13.3399 25.452 13.6847C24.9827 14.0179 24.427 14.2527 23.8003 14.3827C23.1736 14.5127 22.5078 14.5312 21.8219 14.438C20.3647 14.2308 19.007 13.5796 17.9338 12.5731C17.4315 12.0961 17.0297 11.5655 16.7393 10.9955C16.4489 10.4255 16.2845 9.84571 16.2511 9.27137C16.2163 8.67682 16.3241 8.11455 16.5713 7.60017M16.4834 7.55778C15.4547 9.69922 16.8954 12.5261 19.7013 13.8718C22.5073 15.2175 25.616 14.5727 26.6447 12.4315C27.6735 10.2903 26.2328 7.46312 23.4268 6.11742C20.6208 4.77172 17.5126 5.41657 16.483 7.55778H16.4834Z" fill="#F7FAF6"/>
<path d="M24.3879 9.02032C24.3558 9.04997 24.3467 9.09829 24.4131 9.17692L24.1364 9.75786L24.3947 9.98254C24.452 10.0324 24.4729 10.1014 24.4472 10.155L24.0937 9.84747L24.0533 9.93246L24.3109 10.1567C24.3683 10.2066 24.3894 10.2755 24.3635 10.3291L24.0117 10.0216L23.9713 10.1069L24.2283 10.3304C24.2856 10.3803 24.3067 10.4493 24.281 10.5029L23.9293 10.1954L23.631 10.822L23.4259 11.2492C23.3549 11.1958 23.3263 11.1154 23.356 11.0535L23.5117 10.7293L21.4531 9.13234L21.0332 10.0087C21.8764 10.6937 22.8423 11.4376 23.7106 12.1345C23.857 12.252 24.1047 12.256 24.1698 12.1255C24.5696 11.3239 24.9337 10.5051 25.3335 9.70339C25.3555 9.6577 25.3355 9.59774 25.283 9.55777L24.5943 9.03218C24.5283 8.98211 24.4364 8.97508 24.3879 9.02032Z" fill="#FF922E"/>
<path d="M19.1948 7.37855L19.1926 7.37679L19.1845 7.39392L18.7941 8.20657L18.7617 8.27246C18.7215 8.35636 18.778 8.46706 18.8879 8.51977L18.9706 8.34758L19.1025 8.07413C19.166 8.13014 19.1904 8.20591 19.164 8.26763C19.1376 8.32935 19.1137 8.38382 19.0886 8.44202L19.962 9.14485L20.3737 8.29333L19.3722 7.51538L19.3834 7.49166C19.4021 7.45279 19.3814 7.40029 19.3326 7.37152C19.2838 7.34275 19.2231 7.34714 19.1948 7.37855Z" fill="#FF922E"/>
<path d="M21.2341 7.47543L21.2035 7.46313C20.4893 7.1787 19.7483 7.37527 19.4938 7.90525L19.3839 8.13257L18.7563 9.43896C18.6952 9.56635 18.7449 9.73019 18.8809 9.84902L19.2054 10.153L19.1412 10.2867C19.0972 10.3792 19.1111 10.4932 19.1799 10.5956L19.5448 9.83628C19.5777 9.77026 19.6109 9.70487 19.6441 9.64014C19.694 9.54263 19.8448 9.52857 19.9596 9.60193L20.5175 10.09L20.477 10.1743L19.9387 9.70582L19.913 9.75941L20.4517 10.2283L20.4001 10.3362L19.8618 9.86769C19.7191 10.1464 19.6021 10.3715 19.4595 10.6505C19.4252 10.7175 19.4437 10.8042 19.5074 10.8734C19.5354 10.9033 19.5666 10.93 19.6004 10.9531C19.6538 10.9902 19.7259 10.9795 19.7398 10.9312C19.7397 10.9306 19.7397 10.9301 19.7398 10.9296C19.7536 10.8762 19.7074 10.8281 19.7037 10.8246L19.7338 10.762L19.7938 10.6371L19.9398 10.3333C19.9914 10.3581 20.018 10.4102 19.9991 10.4497L19.876 10.7058C21.0905 11.7262 21.9687 12.4539 22.2281 12.7056C22.4875 12.9573 22.6567 12.9298 22.7416 12.8778C22.7768 12.8562 22.8047 12.825 22.8223 12.7877L23.1337 12.1391L21.6902 10.9171L21.6293 11.044C21.5961 11.113 21.4959 11.1339 21.4053 11.0904L21.5469 10.7956L21.7528 10.3669C22.4659 10.3316 23.1847 10.299 23.8978 10.2637C24.0396 9.96894 24.1752 9.67067 24.3168 9.37658L22.0228 9.5356L22.1973 9.20329C22.4407 8.69659 22.1692 8.02978 21.5495 7.63905C21.4491 7.57578 21.3436 7.52105 21.2341 7.47543ZM20.6443 10.3952L20.5973 10.4947L20.4449 10.363L20.4924 10.2641L20.6443 10.3952ZM20.7103 10.2573L20.6746 10.3322L20.5234 10.2004L20.5595 10.1251L20.7103 10.2573ZM20.9235 9.81453C20.8764 9.91051 20.8193 10.0282 20.7529 10.1677L20.6025 10.0359L20.7722 9.68275L20.9235 9.81453ZM20.5619 10.0006L20.0411 9.54504C20.1128 9.40272 20.1708 9.28434 20.2135 9.1967L20.7316 9.64739L20.5619 10.0006ZM21.0063 9.64607L20.9844 9.69L20.967 9.72492L20.8151 9.59314L20.8536 9.51276L21.0063 9.64607ZM20.7744 9.55822L20.2557 9.10819L20.2944 9.02802L20.8122 9.47849L20.7744 9.55822ZM21.1149 9.14904C21.1369 9.31047 21.1024 9.43457 21.049 9.55602L20.8969 9.42424C20.9387 9.3508 20.9755 9.27456 21.0068 9.19604C21.0534 9.07942 21.0626 9.02034 21.0508 8.95445C21.0455 8.92427 21.0368 8.89477 21.0248 8.86659C21.07 8.95519 21.1001 9.05062 21.1141 9.14904H21.1149ZM20.8951 8.73613C20.9868 8.80509 20.9967 8.9081 21.002 8.96323C21.0092 9.03725 20.9896 9.08952 20.9501 9.19121C20.9237 9.25947 20.892 9.32556 20.8553 9.38888L20.3388 8.93951C20.3447 8.91513 20.3944 8.72163 20.6025 8.68451C20.6311 8.67902 20.7832 8.65201 20.8949 8.73613H20.8951Z" fill="#FF922E"/>
<path d="M20.2121 9.19604C20.1695 9.28397 20.1115 9.40221 20.0398 9.54466L20.5605 10.0006L20.7302 9.64709L20.2121 9.19604ZM20.5353 9.91727L20.1068 9.54226C20.1508 9.45433 20.1948 9.3664 20.2372 9.27848L20.6636 9.64975L20.5353 9.91727Z" fill="white"/>
<path d="M20.6737 10.3321L20.7093 10.2569L20.5585 10.125L20.5225 10.2004L20.6737 10.3321Z" fill="white"/>
<path d="M20.5968 10.4949L20.6438 10.3953L20.4919 10.2635L20.4445 10.3624L20.5968 10.4949ZM20.5111 10.3593L20.5172 10.3463L20.5774 10.3984L20.5711 10.4116L20.5111 10.3593Z" fill="white"/>
<path d="M21.2492 7.43346L21.2178 7.4205C20.8593 7.27796 20.4801 7.24677 20.1495 7.33264C19.8189 7.41852 19.5685 7.61268 19.4403 7.87953L19.3304 8.10686L18.7031 9.41346C18.634 9.5571 18.6905 9.74291 18.8433 9.87755L19.0046 10.0287L19.1392 10.1547L19.0877 10.2615C19.0378 10.3656 19.0543 10.4967 19.1317 10.6129L19.193 10.7038L19.2324 10.6217L19.5973 9.86239C19.6294 9.79782 19.6632 9.73193 19.6962 9.66692C19.7061 9.64924 19.7203 9.63433 19.7374 9.62354C19.7546 9.61276 19.7742 9.60645 19.7945 9.6052C19.8347 9.60099 19.8752 9.60863 19.9112 9.62717L19.8852 9.68142L19.8595 9.73501L19.8457 9.76334L19.8762 9.78969L20.384 10.2316L20.3735 10.2536L20.1767 10.0822L19.8969 9.83867L19.8367 9.78618L19.8081 9.84197C19.7364 9.98187 19.6714 10.1084 19.6061 10.2349C19.5408 10.3614 19.4775 10.4848 19.4065 10.6236C19.4065 10.6252 19.4049 10.6265 19.4043 10.6278C19.3649 10.71 19.3882 10.813 19.4652 10.8969C19.4966 10.9311 19.5318 10.9616 19.57 10.988C19.6073 11.0144 19.6527 11.0267 19.6982 11.0227C19.7169 11.0219 19.7351 11.0162 19.751 11.0062C19.7668 10.9962 19.7798 10.9823 19.7887 10.9658C19.791 10.9612 19.7928 10.9563 19.7942 10.9513V10.9487C19.7985 10.9278 19.7982 10.9063 19.7935 10.8855C19.7887 10.8647 19.7796 10.8451 19.7668 10.8281L19.7861 10.7877L19.8191 10.7187L19.8411 10.7363C20.0767 10.9341 20.2989 11.1205 20.5075 11.2955C21.3635 12.0131 21.9821 12.5316 22.1892 12.7326C22.4905 13.0251 22.689 12.9742 22.7805 12.9186C22.8216 12.8935 22.8545 12.8569 22.8752 12.8134L23.1874 12.1653L23.2012 12.1363L23.1698 12.1099L21.7253 10.8872L21.664 10.8352L21.6368 10.8918L21.5759 11.019C21.5666 11.0351 21.5528 11.0482 21.5361 11.0565C21.5194 11.0648 21.5007 11.0679 21.4822 11.0656L21.5994 10.8213L21.7952 10.4135C22.1428 10.3961 22.4967 10.3794 22.8394 10.3632C23.1764 10.3471 23.5241 10.3307 23.8662 10.3137L23.8899 10.2643C23.1792 10.2995 22.463 10.332 21.7524 10.3671L21.5464 10.7958L21.4048 11.0906C21.4954 11.1345 21.5956 11.1126 21.6288 11.0442L21.6897 10.9173L23.1333 12.1391L22.8218 12.7873C22.8042 12.8245 22.7763 12.8558 22.7411 12.8773C22.6563 12.9294 22.4894 12.9592 22.2276 12.7051C21.9658 12.451 21.0905 11.7258 19.8756 10.7064L19.9987 10.4501C20.0176 10.4106 19.991 10.3585 19.9393 10.3337L19.7934 10.6375L19.7333 10.7625L19.7032 10.8251C19.707 10.8286 19.7531 10.8767 19.7393 10.93C19.7392 10.9305 19.7392 10.9311 19.7393 10.9316C19.7384 10.9347 19.7373 10.9377 19.7358 10.9406C19.7162 10.9814 19.65 10.9887 19.5999 10.954C19.5663 10.9307 19.5352 10.9038 19.5074 10.8738C19.4447 10.8055 19.4258 10.7201 19.4577 10.6542C19.4577 10.6531 19.4588 10.652 19.4595 10.6507C19.6021 10.3719 19.7191 10.1468 19.8617 9.8681L20.4001 10.3366L20.4517 10.2287L19.9136 9.76026L19.9393 9.70667L20.4777 10.1752L20.5181 10.0908L19.9602 9.60279C19.8455 9.52921 19.6947 9.54348 19.6448 9.641C19.6113 9.70557 19.5782 9.77096 19.5454 9.83714L19.1805 10.5964C19.1117 10.4941 19.0974 10.3801 19.1418 10.2876L19.206 10.1538L18.8811 9.849C18.745 9.73017 18.6954 9.56633 18.7565 9.43894L19.3845 8.13255L19.4944 7.90523C19.749 7.37547 20.49 7.17868 21.2042 7.46311L21.2347 7.47541C21.3442 7.52103 21.4496 7.57576 21.5499 7.63903C22.1696 8.02976 22.4411 8.69657 22.1977 9.20327L22.0223 9.53558L24.3166 9.37722L24.3407 9.32671L24.3005 9.32956L22.9662 9.42181L22.1177 9.48023L22.2496 9.22963C22.372 8.97463 22.372 8.67 22.2496 8.37195C22.1272 8.07391 21.8871 7.80091 21.5763 7.60323C21.4722 7.53761 21.3628 7.48081 21.2492 7.43346ZM19.9277 9.63529L19.9842 9.68449L19.9751 9.67658L19.9268 9.63463L19.9277 9.63529Z" fill="white"/>
<path d="M20.7519 10.1681C20.7704 10.1293 20.7881 10.0922 20.8051 10.0567C20.8491 9.96479 20.8882 9.88421 20.9225 9.81487L20.7713 9.68298L20.6016 10.0365L20.7519 10.1681ZM20.6682 10.0334L20.7965 9.76585L20.8557 9.81751C20.8218 9.88654 20.7871 9.95842 20.7521 10.0314L20.7258 10.0846L20.6682 10.0334Z" fill="white"/>
<path d="M21.0249 8.86658C21.0363 8.89421 21.0447 8.92303 21.0499 8.95253C21.0611 9.01957 21.0519 9.07826 21.006 9.19433C20.9923 9.22862 20.9756 9.26753 20.9554 9.31017C20.9382 9.34534 20.9189 9.38313 20.8965 9.4227L21.0486 9.55459C21.1022 9.43237 21.1365 9.30883 21.1145 9.14726C21.1003 9.04942 21.0699 8.95457 21.0249 8.86658ZM21.0196 9.47018L20.964 9.42162C20.9791 9.39348 20.9939 9.36488 21.0079 9.33609C21.0264 9.29762 21.0438 9.25785 21.0596 9.21829L21.0642 9.20664C21.0679 9.29692 21.0527 9.387 21.0196 9.47108V9.47018Z" fill="white"/>
<path d="M20.9494 9.19163C20.989 9.08985 21.0086 9.03776 21.0013 8.96346C20.9961 8.90828 20.9862 8.80519 20.8945 8.73616C20.7828 8.65197 20.6307 8.67901 20.6026 8.68407C20.5507 8.69295 20.5018 8.71442 20.4601 8.74663C20.4184 8.77881 20.3853 8.82073 20.3636 8.86872C20.3527 8.89129 20.3442 8.91494 20.3381 8.93928L20.8547 9.38903C20.8708 9.36111 20.8883 9.3288 20.9059 9.29209C20.9207 9.26241 20.9354 9.22812 20.9494 9.19163ZM20.3999 8.9329C20.4043 8.91971 20.4095 8.90679 20.4155 8.89421C20.4342 8.85205 20.463 8.81512 20.4993 8.78664C20.5356 8.75817 20.5783 8.73902 20.6237 8.73089C20.6692 8.72276 20.7835 8.71023 20.8611 8.7687C20.931 8.82145 20.9391 8.90652 20.944 8.9573C20.9501 9.02127 20.9343 9.06567 20.8943 9.16855C20.8815 9.20174 20.8672 9.23449 20.8519 9.26681C20.845 9.28066 20.8382 9.2945 20.831 9.30835L20.3999 8.9329Z" fill="white"/>
<path d="M20.2936 9.02734L20.2549 9.10824L20.7728 9.5593L20.8115 9.47885L20.2936 9.02734Z" fill="white"/>
<path d="M21.005 9.64617L20.8512 9.51318L20.8134 9.59364L20.9652 9.72553L20.9826 9.69058L21.005 9.64617Z" fill="white"/>
<path d="M15.3946 9.18044C15.3528 8.47893 15.4797 7.81475 15.7718 7.20636L14.0792 6.39503L14.0752 6.40294C13.6919 7.20065 13.5415 8.06294 13.5971 8.93818L15.3946 9.18044Z" fill="#F7FAF6"/>
<path d="M16.3506 4.0786L17.4692 5.34654C18.1067 5.00194 18.84 4.78955 19.6454 4.71532L19.1188 3.27979C18.1052 3.37203 17.1617 3.64306 16.3506 4.0786Z" fill="white"/>
<path d="M23.7287 5.50064C24.1824 5.71818 24.6158 5.97542 25.0243 6.26936L25.9596 5.25904C25.0605 4.61252 24.068 4.10675 23.0164 3.75916L22.7061 5.08882C23.0553 5.20424 23.3969 5.34178 23.7287 5.50064Z" fill="white"/>
<path d="M28.591 8.1084L27.0918 8.50923C27.4921 9.198 27.7343 9.90633 27.8119 10.6149L29.5083 10.784C29.4087 9.88151 29.093 8.9709 28.591 8.1084Z" fill="white"/>
<path d="M27.7896 15.3302L27.8168 15.2944C27.8353 15.2707 27.8538 15.2468 27.8718 15.2226L28.9036 13.8723L27.1046 15.7214L27.1486 16.0032C27.3822 15.7987 27.5968 15.5735 27.7896 15.3302Z" fill="#EDE8E8"/>
<path d="M20.3486 17.3202C21.5176 17.5904 22.6728 17.6414 23.7378 17.4891L23.7749 16.7276L20.6199 16.3851L20.3486 17.3202Z" fill="#EDE8E8"/>
<path d="M14.0959 13.1108C14.691 14.0113 15.4922 14.8459 16.4649 15.5501L16.9633 14.5782L14.7754 12.2643L14.0959 13.1108Z" fill="#EDE8E8"/>
<path d="M14.0763 6.40295L13.6738 6.71264C13.5668 6.87941 13.47 7.0525 13.3839 7.23098C13.0221 7.98432 12.8678 8.79521 12.8983 9.62016L13.5975 8.93819L14.0763 6.40295Z" fill="#EDE8E8"/>
<path d="M27.1052 15.7215C27.8557 15.255 28.4742 14.6348 28.9042 13.8724L27.3321 13.0409C27.0004 13.6267 26.5247 14.1142 25.918 14.4905L27.1052 15.7215Z" fill="white"/>
<path d="M20.6201 16.3849C21.6955 16.6814 22.7666 16.7912 23.7752 16.7273L23.3272 15.3179C22.5125 15.3618 21.6766 15.2643 20.8432 15.0264L20.6201 16.3849Z" fill="white"/>
<path d="M16.9632 14.5782L17.9847 13.5854C17.3033 13.0583 16.7342 12.4475 16.2961 11.7708L14.7754 12.2643C15.332 13.1106 16.071 13.9004 16.9632 14.5782Z" fill="white"/>
<path d="M15.3946 9.18044C15.3528 8.47893 15.4797 7.81475 15.7718 7.20636L14.0792 6.39503L14.0752 6.40294C13.6919 7.20065 13.5415 8.06294 13.5971 8.93818L15.3946 9.18044Z" fill="white"/>
<path d="M6.87655 10.0087H6.67871V10.0746H6.87655V10.0087Z" fill="#FF922E"/>
</g>
<defs>
<linearGradient id="paint0_linear_74_24300" x1="3.84519" y1="10.5022" x2="12.1963" y2="13.2579" gradientUnits="userSpaceOnUse">
<stop stop-color="#D86C1A"/>
<stop offset="1" stop-color="#E87E25"/>
</linearGradient>
<linearGradient id="paint1_linear_74_24300" x1="10.9493" y1="9.79553" x2="9.6486" y2="14.9257" gradientUnits="userSpaceOnUse">
<stop stop-color="#FF922E"/>
<stop offset="1" stop-color="#FFC239"/>
</linearGradient>
<linearGradient id="paint2_linear_74_24300" x1="4.61518" y1="7.93885" x2="12.9665" y2="10.6946" gradientUnits="userSpaceOnUse">
<stop stop-color="#D86C1A"/>
<stop offset="1" stop-color="#E87E25"/>
</linearGradient>
<linearGradient id="paint3_linear_74_24300" x1="11.7193" y1="7.2321" x2="10.4188" y2="12.3622" gradientUnits="userSpaceOnUse">
<stop stop-color="#FF922E"/>
<stop offset="1" stop-color="#FFC239"/>
</linearGradient>
<linearGradient id="paint4_linear_74_24300" x1="12.8947" y1="10.8226" x2="28.9038" y2="10.8226" gradientUnits="userSpaceOnUse">
<stop stop-color="#D86C1A"/>
<stop offset="1" stop-color="#E87E25"/>
</linearGradient>
<clipPath id="clip0_74_24300">
<rect width="32" height="18.625" fill="white" transform="translate(0 0.6875)"/>
</clipPath>
</defs>
</svg>
