<svg width="32" height="20" viewBox="0 0 32 20" fill="none" xmlns="http://www.w3.org/2000/svg">
<g clip-path="url(#clip0_74_24204)">
<path d="M20.0119 10.9208L18.6016 10.9327C16.8679 9.98211 13.7075 9.34583 10.0957 9.34583C6.30339 9.34583 3.00875 10.0473 1.34077 11.0776L0.179688 11.0873V12.6028C0.179688 12.6061 0.179688 12.6094 0.179688 12.6129C0.179688 14.4167 4.62002 15.8791 10.0957 15.8791C15.5714 15.8791 20.0119 14.4167 20.0119 12.6129C20.0119 12.6094 20.0119 12.6061 20.0119 12.6028V10.9208Z" fill="url(#paint0_linear_74_24204)"/>
<path d="M10.0957 14.2834C15.5722 14.2834 20.0117 12.821 20.0117 11.017C20.0117 9.21302 15.5722 7.75061 10.0957 7.75061C4.61923 7.75061 0.179688 9.21302 0.179688 11.017C0.179688 12.821 4.61923 14.2834 10.0957 14.2834Z" fill="#FF922E"/>
<path d="M10.0964 13.0239C13.4612 13.0239 16.1889 12.1254 16.1889 11.0171C16.1889 9.90871 13.4612 9.01025 10.0964 9.01025C6.73161 9.01025 4.00391 9.90871 4.00391 11.0171C4.00391 12.1254 6.73161 13.0239 10.0964 13.0239Z" fill="white"/>
<path d="M10.1025 8.95439H9.82007C9.60026 8.95747 9.38389 8.96436 9.17095 8.97504L9.23997 9.12725C9.52332 9.11341 9.8137 9.10638 10.1025 9.10638V8.95264V8.95439ZM8.26002 9.0451L8.23804 9.04752H8.23123H8.22705H8.22441H8.22046H8.21738H8.21364H8.21056H8.20661H8.20375H8.19979H8.18485H8.18221H8.15165H8.14902H8.1378H8.13517H8.12725H8.12484H8.12176H8.11582H8.11275H8.10967H8.10659H8.10022H8.09384H8.08637H8.08307H8.07999H8.0767H8.07186H8.06856H8.06548H8.06219H8.05537H8.04856H8.04174H8.03515H8.02834C7.80911 9.08793 7.59646 9.12426 7.39042 9.15646L7.5931 9.29527C7.85226 9.25419 8.12286 9.21927 8.39741 9.1916L8.26024 9.04422L8.26002 9.0451ZM6.58105 9.3102C6.332 9.36621 6.09591 9.42771 5.87434 9.49447L5.86906 9.49623L5.86378 9.49777H5.86137H5.85917H5.85675H5.85477H5.85257L6.16999 9.61066C6.38124 9.54631 6.60963 9.48679 6.84659 9.43342L6.58281 9.30603L6.58105 9.3102ZM5.21334 9.72751C5.03188 9.80091 4.85523 9.88562 4.68446 9.98118L5.0887 10.0585C5.24678 9.9702 5.41021 9.89177 5.57802 9.82371L5.21422 9.72707L5.21334 9.72751ZM4.27648 10.2579C4.19079 10.3278 4.11242 10.4062 4.04259 10.4918C4.04193 10.4926 4.04134 10.4934 4.04083 10.4943C4.04037 10.4951 4.03977 10.4958 4.03907 10.4964L4.03731 10.4986L4.03577 10.5008L4.03402 10.503L4.03226 10.5052L4.0305 10.5074V10.5085V10.5096V10.5107V10.5118V10.5131C4.03054 10.5137 4.03054 10.5142 4.0305 10.5147L4.02896 10.5171L4.0261 10.521L4.48157 10.5557C4.55485 10.4543 4.64126 10.3629 4.73853 10.2841L4.30395 10.2274L4.27648 10.2579ZM3.85728 10.8558C3.85071 10.8833 3.84585 10.9113 3.84277 10.9394C3.84277 10.9394 3.84277 10.941 3.84277 10.9419V10.9443V10.9467V10.9482V10.9496V10.9531V10.9564V10.9862V10.9886V10.9897V10.9908V10.9933V10.997V10.9994V11.0005V11.0016V11.004V11.0051V11.0062V11.0086V11.0097V11.0108V11.0119V11.0152V11.0163V11.0174V11.0185V11.0196V11.0207V11.0229V11.024V11.0262C3.84277 11.0262 3.84277 11.0286 3.84277 11.0297V11.0319C3.84409 11.0572 3.84673 11.0823 3.85069 11.1073C3.85056 11.108 3.85056 11.1087 3.85069 11.1094V11.1105V11.1125V11.1176V11.1198C3.85201 11.1268 3.85332 11.1336 3.85486 11.1406L4.3211 11.1299C4.30092 11.0356 4.30204 10.9381 4.3244 10.8443L3.85838 10.8325L3.85728 10.8558ZM4.44486 11.4341L3.98851 11.4677C4.03406 11.5342 4.08556 11.5965 4.14239 11.6537L4.14458 11.6559L4.14678 11.6581L4.14898 11.6605H4.15008V11.6616L4.15118 11.6627H4.15228H4.15338L4.15448 11.6638V11.6649V11.666H4.15557L4.15667 11.6671L4.15887 11.6691L4.16107 11.6711L4.16327 11.6732L4.16547 11.6754C4.16718 11.6768 4.16879 11.6783 4.1703 11.6798C4.18965 11.6976 4.20965 11.7154 4.23031 11.733L4.66643 11.6774C4.58306 11.6055 4.50865 11.5238 4.44486 11.4341ZM5.06694 11.9634L4.66116 12.0398L4.68666 12.0545L4.69039 12.0565L4.69369 12.0583H4.69523H4.69677H4.69831H4.69963H4.70072H4.70204H4.70336H4.70468H4.70622H4.7082L4.7115 12.06L4.71479 12.0618C4.80169 12.1095 4.89394 12.1558 4.99154 12.2006L4.99572 12.2026L4.99968 12.2043H5.0021H5.00341H5.00561H5.00693H5.00891L5.01243 12.2059H5.01397H5.01506H5.01638H5.01748H5.01858H5.0199H5.02122H5.02254H5.0243H5.02584H5.02759H5.02913H5.03111L5.03507 12.2076L5.03924 12.2094L5.04364 12.2111C5.08116 12.2281 5.11954 12.2447 5.15883 12.2608L5.5257 12.1654C5.3597 12.097 5.19817 12.0181 5.0421 11.9293L5.06694 11.9634ZM6.1357 12.4092L5.81564 12.5215L5.89874 12.5467L5.90401 12.5483L5.90929 12.5498H5.9117H5.91412H5.91676H5.91918H5.9216L5.92643 12.5511H5.92885H5.93127H5.93347H5.93566H5.93808H5.94006H5.94226H5.94446H5.94687H5.94907H5.95083H5.95303H5.95501H5.95721H5.95875H5.96094H5.9627H5.96468H5.96578H5.96732H5.96864H5.97018H5.97127H5.97325H5.97457H5.97567H5.97765H5.97875H5.98007H5.98117H5.98315H5.98424H5.98556H5.98688H5.98864H5.99018H5.99172H5.99304H5.99436H5.99567H5.99743H5.99853H5.99963H6.00161H6.00271H6.00403H6.00513H6.00711H6.0093H6.01128H6.01238H6.01392H6.01612H6.01766H6.02007H6.02139H6.02249H6.02469H6.02689H6.02909H6.03172H6.03326H6.0359H6.03744H6.03986H6.0414H6.04425L6.04887 12.5524L6.05393 12.5538H6.05678H6.05832H6.0614H6.06294H6.0658L6.07063 12.5551L6.07569 12.5564H6.07855H6.08009H6.08316H6.0847H6.08756L6.09261 12.5579L6.09767 12.5593H6.10075H6.10251H6.1058H6.10756H6.11108L6.11636 12.5608L6.12163 12.5623L6.12691 12.5636L6.13592 12.5661L6.14119 12.5674L6.14647 12.5689L6.15175 12.5702L6.16076 12.5727L6.16603 12.5742L6.17131 12.5755L6.17659 12.5768L6.1856 12.5792L6.19109 12.5808L6.19659 12.5821L6.20186 12.5836L6.20736 12.585H6.21088L6.21615 12.5863L6.22165 12.5876L6.22692 12.5889H6.23022H6.23198H6.23528H6.23704H6.24055L6.24583 12.5902L6.25088 12.5915H6.25396H6.25572H6.25858H6.26034H6.26363L6.26869 12.5929L6.27375 12.5942H6.27704H6.27968H6.28232H6.28386H6.28671H6.28957H6.29243L6.29727 12.5955H6.29968H6.30122H6.30364H6.30518H6.30628H6.30848H6.35728H6.35859H6.36079H6.36189H6.36343H6.36519H6.36761H6.36981H6.37134H6.37376H6.37486H6.37618H6.37838H6.3808H6.38234H6.38409H6.38541H6.38651H6.38871H6.39003H6.39135H6.39333H6.39465H6.40124H6.40278H6.40454H6.40564H6.40739H6.40871H6.41025H6.41135H6.41377H6.41553H6.41773H6.41948H6.42168H6.42278H6.42454H6.42674H6.42784H6.4296H6.43157H6.43399H6.43597H6.43839H6.44037H6.44279H6.44476H6.44718H6.4496H6.45224H6.45488H6.45729H6.45993H6.46235H6.46521H6.46784H6.47048L6.47598 12.5968H6.47862H6.48125H6.48389H6.48675H6.48939L6.4951 12.5981L6.50082 12.5994L6.50653 12.6008L6.52456 12.6049L6.79054 12.4782C6.55423 12.4244 6.32782 12.3642 6.11811 12.2992L6.1357 12.4092ZM7.55309 12.7321L7.34646 12.8707C7.38954 12.8777 7.43285 12.8845 7.47637 12.8911H7.48275H7.48868H7.4944H7.49725H7.50099H7.50363H7.5144H7.51638H7.52583H7.52847H7.53045H7.53792H7.54078H7.54298H7.54583H7.54935H7.55243H7.55529H7.55836L7.56452 12.8922H7.57089H7.57727C7.78155 12.9215 7.99141 12.9475 8.20683 12.9702L8.34751 12.8233C8.07362 12.7949 7.8039 12.7593 7.54561 12.7176L7.55309 12.7321ZM9.19623 12.903L9.12369 13.055H9.17557H9.18238H9.20722H9.2292C9.49914 13.0673 9.77501 13.0741 10.0548 13.0747L10.0584 12.921C9.76952 12.921 9.47958 12.9124 9.19645 12.8979L9.19623 12.903ZM11.7648 12.8468C11.4896 12.874 11.2056 12.8944 10.9207 12.9076L10.9867 13.06L11.0757 13.0558H11.0827H11.0897H11.2625H11.2693H11.2762H11.283H11.29C11.4965 13.0428 11.6991 13.0265 11.8978 13.0069L11.7648 12.8468ZM13.3235 12.6052C13.0844 12.6579 12.8314 12.7051 12.5715 12.7455L12.7709 12.8848C12.9242 12.861 13.0738 12.8353 13.2198 12.8077L13.2418 12.8033L13.2477 12.8022L13.2536 12.8011L13.2596 12.8H13.2633H13.2657H13.2692H13.2712H13.2747H13.2802L13.2857 12.7989H13.2888H13.2919H13.2947H13.2963H13.3035H13.306H13.3086H13.3101H13.3134H13.3147H13.3169H13.3209H13.3231H13.3244H13.3257H13.3271H13.3293H13.3321H13.3334H13.3367H13.3385H13.34H13.3418H13.344H13.346H13.3484H13.3519H13.3545H13.3565H13.3589H13.3611H13.3638H13.366H13.3684H13.371H13.3737H13.3763H13.3785H13.3811H13.3833H13.386H13.3884H13.391H13.3965H13.3994H13.4022H13.4051H13.408H13.4108H13.4137H13.4165L13.4225 12.7978L13.4282 12.7967L13.4341 12.7956L13.44 12.7943C13.4831 12.7853 13.5258 12.7762 13.568 12.7668L13.3255 12.6047L13.3235 12.6052ZM14.5985 12.2226C14.4169 12.2961 14.2169 12.3658 14.005 12.4294L14.3198 12.5434C14.5503 12.4743 14.7649 12.3996 14.9618 12.3199L14.6005 12.2221L14.5985 12.2226ZM15.4778 11.7339C15.3575 11.8299 15.2292 11.9152 15.0942 11.9891L15.4964 12.0675C15.5202 12.0543 15.5435 12.0411 15.5661 12.0277L15.5683 12.0264H15.5694L15.5712 12.0253H15.5725H15.5736H15.5749H15.5762H15.5776H15.5789H15.5804H15.5817H15.5833H15.5846H15.5861H15.5875H15.5892H15.5907L15.5925 12.0242L15.5958 12.022L15.5991 12.0201C15.6557 11.9857 15.7094 11.9506 15.7602 11.9148L15.7633 11.9126L15.7664 11.9105L15.7695 11.9083L15.7723 11.9063H15.7736H15.7752L15.7765 11.9052H15.7778H15.7789H15.7802H15.7813H15.7826H15.7837H15.7851H15.7864H15.7877L15.7901 11.9032L15.7928 11.9012L15.7954 11.8993C15.8202 11.8806 15.8442 11.8619 15.8675 11.843L15.4342 11.785L15.4778 11.7339ZM15.8783 11.1819C15.8506 11.2834 15.8039 11.3787 15.7409 11.4628L16.1957 11.4986C16.2182 11.4678 16.239 11.4357 16.2581 11.4027L16.2594 11.4005V11.3991V11.3978V11.3967V11.3954V11.3943V11.3928V11.3917V11.3906V11.3895V11.3873C16.2594 11.3866 16.2594 11.3858 16.2594 11.3851L16.2608 11.3829C16.2608 11.3829 16.2608 11.3814 16.2608 11.3807L16.2621 11.3785C16.2872 11.3294 16.3073 11.2779 16.3221 11.2248V11.2237V11.2223V11.2212V11.2201L15.8563 11.2072L15.8783 11.1819ZM16.2271 10.5819L15.7701 10.6142C15.8274 10.6997 15.8675 10.7955 15.8879 10.8964L16.3546 10.8872C16.3507 10.8652 16.3456 10.845 16.3399 10.8241V10.8217V10.8193V10.8182V10.8171V10.816V10.8149V10.8138V10.8127V10.8116V10.8092V10.7872V10.7861V10.785V10.7837V10.7824V10.7809V10.7793V10.7778V10.7754C16.34 10.7746 16.34 10.7738 16.3399 10.773V10.7706V10.7681C16.3398 10.7673 16.3398 10.7665 16.3399 10.7657V10.7633C16.3165 10.704 16.287 10.6474 16.252 10.5942L16.2271 10.5819ZM15.5677 10.0086L15.1601 10.084C15.2896 10.1587 15.412 10.2451 15.5257 10.342L15.9633 10.2867L15.9326 10.2606L15.931 10.2592L15.9295 10.2579L15.9279 10.2568L15.9266 10.2557V10.2546L15.9253 10.2535V10.2524L15.924 10.2513H15.9227H15.9214L15.9187 10.2494L15.9161 10.2472C15.8061 10.159 15.6896 10.0793 15.5677 10.0086ZM14.4246 9.52413L14.1021 9.63526C14.3105 9.70115 14.5055 9.77187 14.6822 9.84655L15.0511 9.75211C14.9645 9.71543 14.8739 9.67963 14.7801 9.64492L14.7752 9.64317L14.7706 9.64163L14.766 9.64009H14.7636H14.7616H14.7596H14.7581H14.7561H14.7546H14.7526H14.7506H14.7488H14.7469H14.7455H14.7438H14.7425H14.7407H14.7396H14.7381H14.7368H14.7348H14.7335H14.7313L14.7269 9.63856L14.7225 9.63702L14.7196 9.63592H14.7181H14.7152L14.7106 9.63438L14.706 9.63262C14.62 9.60232 14.5314 9.57304 14.4404 9.54477L14.4246 9.52413ZM12.9006 9.17117L12.6916 9.30888C12.9483 9.35105 13.1971 9.40025 13.4337 9.45472L13.7027 9.32777C13.5757 9.29849 13.4453 9.2706 13.3115 9.24409L13.3053 9.24277H13.2991L13.2772 9.23838H13.2708L13.2646 9.23706H13.2616L13.249 9.23465H13.2426L13.2365 9.23333L13.2145 9.22916L13.2084 9.22806L13.2022 9.22674L13.1958 9.22564L13.1864 9.22389L13.1802 9.22257L13.1716 9.21795L13.1655 9.21686L13.1593 9.21554L13.1499 9.21378L13.1435 9.21268L13.1371 9.21159L13.131 9.21049H13.1248L13.1185 9.20939H13.1154H13.1092H13.1031L13.0969 9.20829L13.0905 9.20719L13.0842 9.2061H13.0811L13.0747 9.205L13.0686 9.2039L13.0624 9.2028H13.0595H13.0565H13.0536H13.0507H13.0479H13.045H13.042L13.036 9.2017H13.0303H13.0274H13.0248H13.0219H13.0195H13.0169H13.0147H13.0121H13.0096H13.0072H13.0044H13.0019H12.9991H12.9969H12.9943H12.9923H12.9896H12.9885H12.9866H12.9841H12.9819H12.9775H12.9753H12.9518H12.9494H12.9452H12.943H12.9386H12.9364H12.9338H12.9316H12.9274H12.9246H12.9228H12.9197H12.918H12.9142L12.9083 9.2006H12.9035L12.9006 9.17117ZM11.1284 8.98185L11.0526 9.13384C11.3364 9.14921 11.6188 9.17183 11.8921 9.20104L12.0363 9.05455C11.9761 9.04796 11.9156 9.04203 11.8545 9.0361H11.8479H11.8415H11.8384H11.7868H11.7835H11.78H11.7732H11.7663H11.7595C11.5535 9.01765 11.3436 9.00258 11.1298 8.99085L11.1284 8.98185Z" fill="#FF922E"/>
<path d="M10.0965 8.69769C11.0133 8.69536 11.9291 8.75629 12.8374 8.87999C13.6758 8.99683 14.4289 9.16397 15.0756 9.37702C15.7223 9.59006 16.2299 9.83825 16.5847 10.1143C16.9518 10.3999 17.138 10.704 17.138 11.017C17.138 11.33 16.9527 11.634 16.5847 11.9195C16.2299 12.1956 15.7223 12.4438 15.0756 12.6566C14.4289 12.8694 13.6758 13.037 12.8374 13.1539C11.9291 13.2774 11.0133 13.3382 10.0965 13.3359C9.17986 13.3382 8.26411 13.2774 7.35582 13.1539C6.51744 13.037 5.76434 12.8696 5.11763 12.6566C4.47093 12.4436 3.96315 12.196 3.60968 11.9195C3.24258 11.634 3.0564 11.3298 3.0564 11.0166C3.0564 10.7034 3.24258 10.3999 3.60968 10.1139C3.96425 9.83759 4.47203 9.58962 5.11873 9.37658C5.76544 9.16353 6.51854 8.99639 7.35692 8.87955C8.26519 8.75585 9.18093 8.69494 10.0976 8.69725M10.0976 8.65881C6.1444 8.65881 2.93945 9.71438 2.93945 11.0166C2.93945 12.3188 6.14331 13.375 10.0965 13.375C14.0497 13.375 17.2549 12.3192 17.2549 11.017C17.2549 9.71482 14.0511 8.65925 10.0965 8.65925L10.0976 8.65881Z" fill="#F7FAF6"/>
<path d="M10.0966 8.83953C10.9572 8.83736 11.817 8.89453 12.6698 9.01063C13.4569 9.12045 14.1645 9.27727 14.771 9.47735C15.3775 9.67744 15.8549 9.91025 16.1877 10.1694C16.5326 10.4378 16.7074 10.7231 16.7074 11.017C16.7074 11.3109 16.5315 11.5962 16.1877 11.8646C15.8549 12.1239 15.3781 12.3567 14.771 12.5568C14.1639 12.7569 13.4576 12.9137 12.6698 13.0235C11.817 13.1396 10.9572 13.1968 10.0966 13.1947C9.23634 13.1968 8.37703 13.1396 7.52468 13.0235C6.73751 12.9137 6.02992 12.7567 5.42322 12.5568C4.81652 12.357 4.33842 12.1239 4.00539 11.8646C3.66072 11.5962 3.48596 11.3111 3.48596 11.017C3.48596 10.7229 3.66072 10.4378 4.00539 10.1694C4.33842 9.91025 4.81498 9.67722 5.42212 9.47735C6.02926 9.27749 6.73642 9.12023 7.52359 9.01063C8.37628 8.89453 9.23599 8.83736 10.0966 8.83953ZM10.0966 8.8011C6.38163 8.8011 3.37012 9.79319 3.37012 11.017C3.37012 12.2408 6.38163 13.2331 10.0977 13.2331C13.8137 13.2331 16.8254 12.241 16.8254 11.017C16.8254 9.79297 13.8122 8.80066 10.0966 8.80066V8.8011Z" fill="#F7FAF6"/>
<path d="M13.3806 11.8518C13.3106 11.8426 13.2395 11.855 13.1768 11.8874H12.1705L12.0283 12.0181C11.9968 12.0469 11.9137 12.0662 11.8208 12.0662L12.0153 11.8885H11.868L11.7262 12.0179C11.6946 12.0467 11.6115 12.066 11.5185 12.066L11.7128 11.8885H11.5667L11.4251 12.0177C11.3934 12.0464 11.3103 12.0658 11.2174 12.0658L11.4115 11.8887H10.3262H9.58389C9.61115 11.8545 9.70523 11.8305 9.81272 11.8305H10.375L11.2369 10.8308H9.71754C9.32187 11.2463 8.92619 11.7155 8.53052 12.1418C8.46457 12.2138 8.6257 12.3023 8.85409 12.303C10.255 12.3082 11.6557 12.2979 13.0566 12.303C13.1366 12.303 13.2072 12.2858 13.228 12.2604L13.5028 11.9272C13.529 11.8956 13.4764 11.8615 13.3806 11.8518Z" fill="#FF922E"/>
<path d="M12.1818 9.73157V9.73047H10.627C10.4815 9.73047 10.3632 9.76938 10.3632 9.8184H11.1365C11.1005 9.85049 11.009 9.87225 10.9051 9.87313L10.6085 9.87621C10.4749 10.0192 10.3414 10.1625 10.208 10.306H11.6894L12.109 9.81796H12.1499C12.2176 9.81796 12.2776 9.80169 12.2851 9.77949C12.2925 9.75729 12.2459 9.73618 12.1818 9.73157Z" fill="url(#paint1_linear_74_24204)"/>
<path d="M13.425 10.4699C13.425 10.4655 13.423 10.4614 13.4217 10.457C13.3397 10.1554 12.5611 9.92612 11.6412 9.92612H8.98069C8.75956 9.92612 8.56304 9.9718 8.48654 10.0401L8.27727 10.207H8.04515C7.8849 10.207 7.73366 10.2316 7.63606 10.2729H8.95343L9.29745 10.2747C9.46869 10.2758 9.59069 10.327 9.56475 10.3801L9.25393 10.661H9.10753L9.40384 10.3904H9.31086L9.01454 10.6623H8.82726L9.12401 10.3917C8.63426 10.3887 8.23771 10.3854 7.74817 10.3823C7.63013 10.3823 7.52088 10.4029 7.46614 10.4372C7.44616 10.4488 7.42891 10.4646 7.41559 10.4835C7.39932 10.5088 7.46351 10.5325 7.54132 10.5292H7.54396C7.62881 10.5251 7.6653 10.5005 7.66794 10.4987H8.52039C8.52039 10.5207 8.46478 10.5396 8.39642 10.5396H7.95084C7.33359 11.1438 6.90121 11.5791 6.72162 11.7137C6.54203 11.8484 6.69524 11.9039 6.82581 11.925C6.88589 11.9343 6.9466 11.9388 7.00738 11.9384H8.13197L8.87936 11.2184H8.65954C8.53974 11.2184 8.44258 11.1866 8.44258 11.1471H9.69818C10.2304 11.3937 10.7625 11.643 11.2947 11.8899C11.8062 11.8899 12.3175 11.8872 12.8291 11.8872L11.0538 11.1009L11.6405 11.1062C12.5198 11.1062 13.2764 10.8965 13.4083 10.6103C13.4292 10.5666 13.435 10.5173 13.425 10.4699ZM8.90859 10.759H8.73647L8.82045 10.6825H8.99212L8.90859 10.759ZM9.14732 10.759H9.01674L9.10005 10.683H9.23063L9.14732 10.759ZM9.91668 10.759C9.74918 10.759 9.54475 10.759 9.30339 10.759L9.38714 10.6834H9.99999L9.91668 10.759ZM9.40978 10.6626L9.69818 10.4001C9.94701 10.4012 10.1534 10.4016 10.3058 10.4018L10.02 10.6623L9.40978 10.6626ZM10.2104 10.7596H10.0712L10.155 10.6834H10.2943L10.2104 10.7596ZM10.1774 10.6626L10.4631 10.4021H10.6025L10.3167 10.6623L10.1774 10.6626ZM10.9848 10.7135C10.78 10.7453 10.573 10.7607 10.3658 10.7594L10.4495 10.683C10.606 10.6856 10.7401 10.6847 10.8452 10.683C11.0413 10.6795 11.131 10.6729 11.2171 10.6573C11.2523 10.6513 11.287 10.6434 11.3213 10.6338C11.211 10.6688 11.0982 10.6954 10.9839 10.7133L10.9848 10.7135ZM11.4187 10.5655C11.3833 10.6094 11.2448 10.6314 11.1707 10.6421C11.0712 10.6573 10.9841 10.6593 10.8142 10.6626C10.6801 10.6652 10.5638 10.6643 10.4717 10.6626L10.7562 10.4029C10.7946 10.4007 11.1011 10.3854 11.2947 10.4532C11.32 10.462 11.4609 10.5114 11.4178 10.5653L11.4187 10.5655Z" fill="#FF922E"/>
<path d="M10.3067 10.4018C10.1543 10.4018 9.94793 10.4018 9.6991 10.4001L9.40894 10.6625H10.0216L10.3067 10.4018ZM9.50917 10.6392L9.7479 10.4234L10.2071 10.4247L9.97211 10.6392H9.50917Z" fill="white"/>
<path d="M9.01746 10.7588L9.14737 10.7586L9.23134 10.6827H9.10055L9.01746 10.7588Z" fill="white"/>
<path d="M8.73657 10.7592H8.90869L8.99222 10.683H8.82054L8.73657 10.7592ZM8.86978 10.7058H8.89176L8.85879 10.7359H8.83681L8.86978 10.7058Z" fill="white"/>
<path d="M13.495 10.4699C13.4941 10.4654 13.493 10.4609 13.4917 10.4565C13.4506 10.3052 13.2378 10.1653 12.8929 10.0629C12.548 9.96058 12.1051 9.90457 11.6419 9.90457H8.98077C8.73172 9.90457 8.50706 9.95641 8.42134 10.0333L8.31714 10.1163L8.23053 10.1844H8.04523C7.86454 10.1844 7.69066 10.2125 7.58053 10.2597L7.4926 10.2968H8.95242L9.29489 10.2986C9.34721 10.2977 9.39931 10.3059 9.44877 10.323C9.4813 10.3357 9.49823 10.3517 9.49713 10.368H9.2617L9.24499 10.3834L8.96539 10.639H8.92736L9.03573 10.5402L9.1896 10.3994L9.22279 10.3691H9.12497L8.43408 10.3645L7.74957 10.3601H7.74188C7.59965 10.3601 7.46996 10.3858 7.4038 10.4275C7.38098 10.4406 7.36131 10.4585 7.3462 10.48C7.33455 10.4982 7.34818 10.5169 7.38379 10.5314C7.42934 10.5472 7.47737 10.5547 7.52558 10.5534C7.53349 10.5534 7.54184 10.5534 7.54976 10.5534H7.55393C7.60574 10.5523 7.65694 10.542 7.70517 10.5231H7.89575L7.8852 10.5334C7.76562 10.6505 7.65307 10.7611 7.54756 10.865C7.11452 11.2907 6.80171 11.5982 6.65839 11.7058C6.44934 11.8624 6.65487 11.9243 6.79578 11.9474C6.86612 11.9581 6.93719 11.9633 7.00834 11.963H8.18151L8.19778 11.9474L8.94516 11.2274L8.97682 11.1969H8.65896C8.61462 11.199 8.57042 11.1904 8.53015 11.1716H9.66133C9.9205 11.292 10.1836 11.4146 10.4382 11.5332C10.6888 11.65 10.9473 11.7704 11.2023 11.8887H11.2882C10.758 11.6428 10.2278 11.3944 9.69738 11.1486H8.442C8.442 11.1881 8.53916 11.22 8.65896 11.22H8.87878L8.13139 11.9399H7.00746C6.94668 11.9403 6.88597 11.9358 6.82589 11.9265C6.69532 11.9046 6.54013 11.8512 6.7217 11.7152C6.90327 11.5793 7.33367 11.1453 7.95092 10.5411H8.39562C8.46398 10.5411 8.51959 10.5226 8.51959 10.5002H7.66714C7.6645 10.502 7.62801 10.5266 7.54316 10.5307H7.5258C7.45479 10.5307 7.39984 10.5088 7.41589 10.4848C7.42921 10.466 7.44646 10.4501 7.46644 10.4385C7.5203 10.4047 7.62669 10.3836 7.74232 10.3836H7.74847C8.23801 10.3867 8.63456 10.39 9.12431 10.393L8.82756 10.6636H9.01485L9.31116 10.393H9.40414L9.10783 10.6636H9.25423L9.56483 10.3821C9.59077 10.3289 9.46877 10.2777 9.29753 10.2766L8.95352 10.2749H7.63614C7.73374 10.2331 7.88498 10.209 8.04523 10.209H8.27735L8.48662 10.0421C8.56224 9.97376 8.75964 9.92807 8.98077 9.92807H11.6419C12.5612 9.92807 13.3398 10.1574 13.4224 10.4589C13.4237 10.4633 13.4248 10.4675 13.4257 10.4719C13.4354 10.5191 13.4292 10.5682 13.4081 10.6116C13.2762 10.8971 12.5194 11.1075 11.6404 11.1075L11.0537 11.1022L12.8289 11.8885H12.9168L12.8858 11.8749L11.8527 11.4174L11.1963 11.1266L11.6386 11.1306H11.6404C12.0833 11.1306 12.5128 11.0787 12.8494 10.9845C13.1859 10.8903 13.411 10.7585 13.4772 10.6149C13.4989 10.5698 13.5051 10.5189 13.495 10.4699ZM9.49647 10.3763L9.46503 10.404L9.46987 10.3994L9.49647 10.3752V10.3763Z" fill="white"/>
<path d="M9.30249 10.7584H9.49527H9.91578L9.99909 10.6823H9.38624L9.30249 10.7584ZM9.43438 10.7058H9.8982L9.86566 10.7355H9.40185L9.43438 10.7058Z" fill="white"/>
<path d="M11.3208 10.6338C11.2865 10.6435 11.2517 10.6513 11.2166 10.6573C11.1287 10.6729 11.0407 10.6793 10.8447 10.683C10.7873 10.683 10.7211 10.6846 10.6468 10.6846C10.5855 10.6846 10.5191 10.6846 10.449 10.683L10.3652 10.7595C10.5725 10.7608 10.7795 10.7454 10.9842 10.7136C11.0983 10.6955 11.2108 10.6689 11.3208 10.6338ZM10.4679 10.7349L10.4984 10.7068C10.5486 10.7068 10.5989 10.7079 10.6486 10.7079C10.7145 10.7079 10.7831 10.7079 10.8495 10.7061H10.8691C10.736 10.7232 10.602 10.7328 10.4679 10.7349Z" fill="white"/>
<path d="M10.8133 10.6625C10.9832 10.6592 11.0703 10.6573 11.1698 10.6421C11.2439 10.6307 11.3824 10.6096 11.4178 10.5654C11.4618 10.5115 11.32 10.4621 11.2938 10.453C11.1659 10.4091 10.9885 10.3996 10.8718 10.3996C10.8122 10.3996 10.7682 10.4018 10.7553 10.4027L10.4708 10.6625C10.5212 10.6625 10.5785 10.6641 10.6421 10.6641C10.695 10.6641 10.7533 10.6636 10.8133 10.6625ZM10.8067 10.4238C10.8245 10.4238 10.8467 10.4238 10.8727 10.4238C10.9826 10.4238 11.1349 10.4319 11.2435 10.47C11.2857 10.4847 11.3807 10.5232 11.3508 10.5605C11.3239 10.5944 11.2096 10.6118 11.1413 10.6221C11.0551 10.6353 10.9819 10.637 10.81 10.6405C10.7546 10.6416 10.6983 10.6421 10.6429 10.6421H10.5702L10.8067 10.4238Z" fill="white"/>
<path d="M10.601 10.4021H10.4617L10.1759 10.6628H10.3153L10.601 10.4021Z" fill="white"/>
<path d="M10.2096 10.7595L10.2936 10.6827H10.1542L10.0704 10.759H10.2096V10.7595Z" fill="white"/>
<path d="M7.07126 8.69168C8.07823 8.55405 9.0935 8.48634 10.1098 8.489V7.75085H10.0957C8.71089 7.75085 7.39396 7.84428 6.19727 8.01332L7.07126 8.69168Z" fill="#F7FAF6"/>
<path d="M14.9113 8.16113L13.8799 8.77369C14.7976 8.94149 15.5925 9.16486 16.2421 9.43743L17.9114 9.00629C17.0956 8.66278 16.0754 8.37462 14.9113 8.16113Z" fill="white"/>
<path d="M0.446289 11.8587V13.3658C0.757992 13.8005 1.33348 14.2017 2.11493 14.5501V12.9467L0.488274 11.8009C0.474206 11.82 0.460138 11.8393 0.446289 11.8587Z" fill="#EDE8E8"/>
<path d="M5.76758 15.5516C6.93262 15.7381 8.22537 15.8519 9.5911 15.8743V14.2793L5.76758 13.9564V15.5516Z" fill="#EDE8E8"/>
<path d="M14.5283 15.5347C15.7424 15.3344 16.8144 15.0546 17.681 14.7159V13.2296L14.5283 14.0104V15.5347Z" fill="#EDE8E8"/>
<path d="M20.012 12.6123C20.012 12.6088 20.012 12.6055 20.012 12.6022V10.9209L19.8832 10.922L19.748 11.7685V13.3635C19.9195 13.1223 20.012 12.8708 20.012 12.6123Z" fill="#EDE8E8"/>
<path d="M17.8978 11.0188C17.8978 11.2185 17.8284 11.417 17.6914 11.609L19.7491 11.7684C19.9215 11.5268 20.0129 11.2756 20.0129 11.0171C20.0108 10.826 19.9629 10.6383 19.8731 10.4697L17.7879 10.5859C17.8587 10.7193 17.8964 10.8678 17.8978 11.0188Z" fill="white"/>
<path d="M17.681 13.2296L16.1016 12.7666C15.4012 13.0256 14.5661 13.2323 13.6194 13.3803L14.5283 14.0104C15.7334 13.8213 16.8039 13.5545 17.681 13.2296Z" fill="white"/>
<path d="M5.76758 13.9569C6.93262 14.1438 8.22603 14.2574 9.59242 14.2801L9.70233 13.5806C8.69736 13.5666 7.69468 13.4812 6.70181 13.3252L5.76758 13.9569Z" fill="white"/>
<path d="M0.446289 11.7708C0.755793 12.2026 1.32556 12.601 2.09734 12.9476L3.78204 12.5488C3.16852 12.2676 2.7412 11.9544 2.51259 11.6182L0.446289 11.7708Z" fill="white"/>
<path d="M0.520386 10.1666L2.61152 10.3601C2.89355 10.0284 3.37033 9.72315 4.02825 9.45234L2.30377 8.99704C1.48693 9.33835 0.872974 9.73479 0.520386 10.1666Z" fill="white"/>
<path d="M7.07126 8.69168C8.07823 8.55405 9.0935 8.48634 10.1098 8.489V7.75085H10.0957C8.71089 7.75085 7.39396 7.84428 6.19727 8.01332L7.07126 8.69168Z" fill="white"/>
<path d="M20.7819 8.35747L19.3718 8.36933C17.6381 7.41853 14.4775 6.78247 10.8648 6.78247C7.07228 6.78247 3.77765 7.48398 2.10966 8.51429L0.949463 8.52395V10.0394C0.949463 10.0427 0.949463 10.046 0.949463 10.0495C0.949463 11.8536 5.38979 13.3151 10.8659 13.3151C16.342 13.3151 20.7819 11.8536 20.7819 10.0489C20.7819 10.0454 20.7819 10.0421 20.7819 10.0388V8.35747Z" fill="url(#paint2_linear_74_24204)"/>
<path d="M10.8662 11.7203C16.3427 11.7203 20.7822 10.2579 20.7822 8.4539C20.7822 6.64991 16.3427 5.1875 10.8662 5.1875C5.38974 5.1875 0.950195 6.64991 0.950195 8.4539C0.950195 10.2579 5.38974 11.7203 10.8662 11.7203Z" fill="#FF922E"/>
<path d="M10.8659 10.4605C14.2307 10.4605 16.9584 9.562 16.9584 8.45368C16.9584 7.34534 14.2307 6.44688 10.8659 6.44688C7.50114 6.44688 4.77344 7.34534 4.77344 8.45368C4.77344 9.562 7.50114 10.4605 10.8659 10.4605Z" fill="white"/>
<path d="M10.8724 6.39043H10.5899C10.3701 6.3935 10.1536 6.4004 9.94057 6.41107L10.0096 6.56328C10.2932 6.54944 10.5833 6.54242 10.8724 6.54242V6.38867V6.39043ZM9.02964 6.48114L9.00766 6.48355H9.00106H8.99667H8.99403H8.99007H8.98018H8.97644H8.97314H8.96941H8.96831H8.96435H8.95424H8.9516H8.92039H8.91797H8.9072H8.90434H8.89665H8.89401H8.88522H8.88214H8.87906H8.87511H8.86895H8.86258H8.85884H8.85554H8.85224H8.84917H8.84587H8.84125H8.83774H8.83444H8.83114H8.82433H8.81751H8.8107H8.80388H8.79707C8.57916 6.50859 8.36711 6.53789 8.16092 6.57141L8.36359 6.71022C8.62275 6.66914 8.89357 6.63422 9.16812 6.60655L9.03074 6.45917L9.02964 6.48114ZM7.35067 6.74712C7.10161 6.80312 6.86553 6.86462 6.64395 6.93139L6.63867 6.93315L6.63362 6.93468H6.63098H6.62878H6.62636H6.62438H6.62219L6.9396 7.04758C7.15107 6.98322 7.37924 6.9237 7.61621 6.87033L7.35242 6.74294L7.35067 6.74712ZM5.98295 7.16442C5.80158 7.23747 5.625 7.32192 5.45429 7.41722L5.85832 7.49453C6.01639 7.40624 6.17982 7.32781 6.34763 7.25974L5.98361 7.16398L5.98295 7.16442ZM5.04609 7.69484C4.96036 7.76499 4.88199 7.84366 4.8122 7.92963L4.81044 7.93204L4.80869 7.93424L4.80693 7.93644L4.80517 7.93863L4.80363 7.94083L4.80187 7.94302L4.80011 7.945V7.9461V7.9472V7.94852V7.95005L4.79857 7.95247L4.79572 7.95642L5.25118 7.99112C5.32453 7.8897 5.41092 7.79835 5.50815 7.71944L5.07357 7.66277L5.04609 7.69484ZM4.6269 8.29268C4.62032 8.32025 4.61546 8.34821 4.61239 8.37636C4.61228 8.37718 4.61228 8.37799 4.61239 8.37878V8.3812V8.38339V8.38493V8.38625V8.38756V8.39086V8.42183V8.42754V8.42995V8.43105V8.43215V8.43457V8.43566V8.43676V8.43786V8.4495V8.45192V8.45302V8.45411V8.45631V8.45741V8.45851V8.4596V8.4607V8.4618V8.464V8.46619C4.6125 8.46738 4.6125 8.46854 4.61239 8.46971V8.4719C4.61353 8.49714 4.6161 8.52231 4.62008 8.54724V8.54834C4.62008 8.54834 4.62008 8.54987 4.62008 8.55053V8.55163V8.55361V8.55866V8.56086C4.6214 8.56788 4.62272 8.57469 4.62426 8.58172L5.09071 8.57096C5.08108 8.52651 5.07623 8.48115 5.0762 8.43566C5.07629 8.38524 5.08218 8.33496 5.09379 8.28587L4.62777 8.27401L4.6269 8.29268ZM5.21425 8.87098L4.75791 8.90458C4.80345 8.97113 4.85496 9.0334 4.91178 9.09061L4.91398 9.09281L4.91618 9.09501L4.91837 9.09742V9.09852V9.09962L4.91947 9.10072L4.92057 9.10182V9.10291L4.92167 9.10401L4.92277 9.10511H4.92387V9.10621L4.92585 9.10819L4.92805 9.11016L4.93024 9.11236L4.93244 9.11455L4.93706 9.11917C4.9564 9.13696 4.97641 9.15475 4.99729 9.17232L5.43319 9.11675C5.33777 9.03766 5.25347 8.94605 5.1826 8.8444L5.21425 8.87098ZM5.83634 9.4003L5.43055 9.47673L5.45627 9.49145L5.45979 9.49342L5.4633 9.49518H5.46506H5.4666H5.46814H5.46946H5.471H5.47254H5.47364H5.47473H5.47605H5.47737L5.47957 9.49628L5.48287 9.49804L5.48617 9.49979C5.57293 9.54723 5.66516 9.59351 5.76292 9.6386L5.76709 9.64058L5.77105 9.64234L5.77347 9.64343H5.77457L5.77699 9.64453H5.77808H5.78006L5.78358 9.64607H5.78534H5.78666H5.78798H5.78929H5.79061H5.79171H5.79347H5.79479H5.79677H5.79831H5.80007L5.80402 9.64783L5.8082 9.64958L5.81238 9.65134C5.85018 9.66803 5.88843 9.68473 5.92756 9.70098L6.31994 9.63553C6.15395 9.56705 5.99243 9.48817 5.83634 9.39942V9.4003ZM6.90509 9.84616L6.58504 9.95839L6.66813 9.98365L6.6734 9.98519L6.67868 9.98672H6.68132H6.68396H6.68659H6.68901H6.69143L6.69627 9.98804H6.69868H6.7011H6.70352H6.70572H6.70814H6.71011H6.71253H6.71473H6.71715H6.71935H6.72132H6.72352H6.72528H6.72726H6.72902H6.731H6.73276H6.73473H6.73583H6.73737H6.73869H6.74023H6.74133H6.74331H6.74485H6.74594H6.74792H6.74946H6.75166H6.75298H6.75452H6.75606H6.75716H6.75869H6.76001H6.76155H6.76265H6.76419H6.76573H6.76683H6.76815H6.7699H6.77122H6.77232H6.77364H6.7754H6.77672H6.77782H6.7798H6.78112H6.78221H6.78419H6.78551H6.78771H6.78925H6.79145H6.79365H6.79474H6.79606H6.79848H6.80002H6.80244H6.80398H6.80639H6.80793H6.81079L6.81563 9.98936L6.82068 9.99068H6.82354H6.8253H6.82838H6.82992H6.83299L6.83805 9.99199L6.84288 9.99331H6.84574H6.8475H6.85036H6.85212H6.85497L6.85981 9.99463L6.86487 9.99595H6.86794H6.86948H6.873H6.87476H6.87806L6.88333 9.99748L6.88839 9.9988L6.89366 10.0001L6.90268 10.0025L6.90795 10.0041L6.91323 10.0056L6.9185 10.0069L6.92773 10.0093L6.93323 10.0109L6.93851 10.0122L6.94378 10.0135L6.95279 10.0159L6.95807 10.0173L6.96335 10.0186L6.96862 10.0201L6.9739 10.0214H6.97763L6.98313 10.0227L6.9884 10.0241L6.99368 10.0254H6.99698H6.99874H7.00203H7.00379H7.00709L7.01236 10.0267L7.01742 10.028H7.0205H7.02314H7.02599H7.02775H7.03105L7.0361 10.0291L7.04116 10.0304H7.04424H7.04688H7.04951H7.05105H7.05391H7.05677H7.05941L7.06424 10.0317H7.06688H7.06842H7.07106H7.07237H7.07457H7.12667H7.12799H7.12931H7.13151H7.13392H7.13568H7.13832H7.1403H7.14162H7.14294H7.14535H7.14645H7.14777H7.14909H7.15107H7.15349H7.15503H7.15679H7.1581H7.15942H7.1614H7.16272H7.16404H7.16602H7.16734H7.17063H7.17217H7.17393H7.17503H7.17679H7.17811H7.17987H7.18206H7.18404H7.18624H7.18734H7.18888H7.19262H7.19481H7.19657H7.19899H7.20075H7.20207H7.20383H7.20624H7.208H7.21042H7.21218H7.2146H7.2168H7.21921H7.22185H7.22427H7.22669H7.22911H7.23174L7.19899 10.0419L7.2368 10.0317L7.21042 10.0419L7.22185 10.0529L7.22669 10.0638H7.2168L7.21921 10.0748H7.2557L7.56279 9.91446C7.32648 9.86065 7.20954 9.86871 6.99874 9.8037L6.90509 9.84616ZM8.32292 10.1695L8.11717 10.3076C8.1601 10.3146 8.20334 10.3214 8.24686 10.328H8.25324H8.25917H8.26489H8.26775H8.27148H8.27412H8.28511H8.28687H8.29632H8.29896H8.30116H8.30402H8.30775H8.31061H8.31303H8.31589H8.31962H8.32248H8.32534H8.32864L8.33479 10.3291H8.34095H8.34732C8.55175 10.3584 8.76161 10.3844 8.97688 10.4071L9.11778 10.2602C8.84389 10.2318 8.57395 10.1963 8.31567 10.1545L8.32292 10.1695ZM9.96606 10.3403L9.89352 10.4923H9.94562H9.95222H9.96958H9.97684L9.99882 10.4934C10.269 10.5057 10.5443 10.5123 10.8247 10.5132L10.8282 10.3594C10.5391 10.3594 10.2492 10.3509 9.96606 10.3364V10.3403ZM12.5355 10.2837C12.2603 10.3109 11.9765 10.3313 11.6914 10.3445L11.7574 10.4969L11.8453 10.4928H11.8525H11.8596H11.8747H11.8791H12.0141H12.0326H12.0394H12.0462H12.053H12.0601C12.2662 10.4799 12.4688 10.4635 12.6676 10.4438L12.5338 10.2962L12.5355 10.2837ZM14.0943 10.0421C13.8551 10.0948 13.6021 10.142 13.3423 10.1824L13.5416 10.3217C13.6948 10.2979 13.8444 10.2722 13.9905 10.2446L14.0125 10.2402L14.0184 10.2391H14.0244H14.0301H14.0338H14.036H14.0395H14.0413H14.0448H14.0503H14.0558H14.0589H14.0622H14.065H14.0666H14.0729H14.0751H14.0778H14.0793H14.0826H14.0839H14.0861H14.0901H14.0923H14.0936H14.0951H14.0976H14.1002H14.1017H14.1037H14.1066H14.1081H14.111H14.1132H14.1151H14.1176H14.1195H14.122H14.1239H14.1263H14.1285H14.131H14.1334H14.1358H14.1384H14.1409H14.1435H14.1457H14.1483H14.1505H14.1532H14.1556H14.1582L14.1637 10.238H14.1666H14.1694H14.1725H14.1754H14.1782H14.1811H14.1842L14.1901 10.2367L14.1958 10.2356L14.2017 10.2345L14.2079 10.2332C14.251 10.2242 14.2937 10.215 14.3361 10.2055L14.0949 10.0416L14.0943 10.0421ZM15.3692 9.65947C15.1874 9.73304 14.9874 9.80267 14.7757 9.86636L15.0905 9.98013C15.3208 9.91117 15.5354 9.83649 15.7326 9.75677L15.3699 9.65903L15.3692 9.65947ZM16.2474 9.17078C16.1272 9.26687 15.9988 9.35227 15.8638 9.426L16.2661 9.50441C16.2898 9.49123 16.3131 9.47805 16.336 9.46465L16.3382 9.46333H16.3393L16.3412 9.46224H16.3426H16.3439H16.3452H16.3467H16.3481H16.3496H16.3511H16.3527H16.3542H16.3557H16.3573H16.3588L16.3606 9.46114L16.381 9.43786L16.3845 9.43588C16.4413 9.40133 16.495 9.36626 16.5457 9.33068L16.5487 9.32848L16.5516 9.32628L16.5545 9.32409L16.5573 9.32189L16.5589 9.32079H16.5602H16.5615H16.5628L16.5641 9.31969H16.5655H16.5668H16.5679H16.5692H16.5705H16.5716H16.5729H16.574L16.5764 9.31772L16.5791 9.31574L16.5817 9.31376C16.6066 9.29509 16.6307 9.27643 16.6538 9.25754L16.2206 9.19955L16.2474 9.17078ZM16.6479 8.61884C16.6202 8.72025 16.5736 8.81552 16.5107 8.89975L16.9653 8.93555C16.9879 8.90474 17.0087 8.87269 17.0277 8.83957L17.029 8.83738V8.83606V8.83474V8.83364V8.8321V8.83101V8.82991V8.82771C17.0291 8.82707 17.0291 8.82639 17.029 8.82574V8.82354V8.82134L17.0301 8.81915C17.0554 8.76968 17.0755 8.71781 17.0904 8.6643V8.66321V8.66189V8.66079V8.65947V8.65837V8.65728L16.6246 8.64432L16.6479 8.61884ZM16.9965 8.0188L16.5393 8.05108C16.5966 8.13659 16.6367 8.23246 16.6571 8.33332L17.1236 8.32365C17.1196 8.30169 17.1148 8.28148 17.1088 8.26062V8.2582V8.25578V8.25469V8.25359V8.25249V8.25139V8.24239V8.23075V8.22965V8.22833V8.22701V8.22547V8.22394V8.2224V8.21998C17.1088 8.21919 17.1088 8.21838 17.1088 8.21757V8.21515V8.21274C17.1088 8.21274 17.1088 8.2112 17.1088 8.21032C17.1088 8.20953 17.1088 8.20872 17.1088 8.2079C17.0853 8.14873 17.0558 8.09207 17.0209 8.03879L16.9965 8.0188ZM16.3371 7.44489L15.9295 7.52023C16.059 7.59488 16.1814 7.68129 16.2951 7.7783L16.7327 7.72471L16.702 7.69857L16.7004 7.69725L16.6987 7.69594L16.6973 7.69484H16.6962H16.6951H16.6938L16.6927 7.69374H16.6914H16.6903H16.689L16.6877 7.69264L16.685 7.69066L16.6822 7.68847C16.5796 7.60784 16.4714 7.53446 16.3586 7.46883L16.3371 7.44489ZM15.194 6.96038L14.8713 7.07174C15.0797 7.13763 15.2749 7.20835 15.4514 7.28302L15.8205 7.18858C15.7337 7.15184 15.6433 7.1161 15.5492 7.0814L15.5444 7.07964L15.54 7.0781L15.5356 7.07657H15.5334H15.5314H15.5292H15.5275H15.5253H15.5237H15.5218H15.52H15.5182H15.5165H15.5149H15.513H15.5112H15.5101H15.5086H15.5072H15.5053H15.5039H15.5018L15.4976 7.07503L15.4932 7.07349H15.4901H15.4886H15.4855L15.4809 7.07195L15.4763 7.0702C15.3904 7.03989 15.3019 7.01061 15.2107 6.98234L15.194 6.96038ZM13.67 6.60721L13.461 6.74514C13.7179 6.78731 13.9676 6.83651 14.2031 6.89098L14.4721 6.76512C14.3451 6.73585 14.2146 6.70795 14.0808 6.68144L14.0747 6.68013L14.0685 6.67903L14.0466 6.67464L14.0404 6.67354L14.034 6.67222H14.0309L14.0182 6.6698L14.012 6.66871L14.0059 6.66739L13.9839 6.66321H13.9775L13.9712 6.6619L13.9648 6.6608L13.9553 6.65904L13.949 6.65772L13.9426 6.65663H13.9362H13.9298L13.9202 6.65487H13.914L13.9078 6.65377L13.9017 6.65267L13.8953 6.65157H13.8889H13.8859L13.8797 6.65048L13.8738 6.64938H13.8676L13.8612 6.64828H13.8551H13.852L13.8459 6.64718L13.8395 6.64608H13.8333H13.8303H13.8274H13.8243H13.8212H13.8184H13.8155H13.8127L13.807 6.64498H13.801H13.7979H13.7953H13.7924H13.79H13.7872H13.7847H13.7819H13.7797H13.7771H13.7744H13.772H13.7694H13.7672H13.7645H13.7625H13.7599H13.7577H13.7551H13.754H13.752H13.7476H13.7454H13.741H13.7386H13.7346H13.7322H13.7278H13.7256H13.723H13.7208H13.6992H13.6962H13.6929H13.6898H13.6878H13.6841L13.6781 6.64389H13.6733L13.67 6.60721ZM11.898 6.4181L11.822 6.57009C12.1058 6.58546 12.3882 6.60809 12.6615 6.6373L12.8057 6.4908C12.7454 6.48421 12.6849 6.47806 12.6241 6.47235H12.6177H12.6116H12.6085H12.5562H12.5531H12.5494H12.5426H12.5357H12.5287C12.3236 6.4539 12.1137 6.43884 11.8991 6.42711L11.898 6.4181Z" fill="#FF922E"/>
<path d="M10.8654 6.13414C11.7821 6.13183 12.6978 6.19274 13.6061 6.31644C14.4445 6.43328 15.1976 6.60042 15.8443 6.81347C16.491 7.02651 16.9988 7.2747 17.3534 7.55078C17.7205 7.83631 17.9066 8.1405 17.9066 8.45348C17.9066 8.76646 17.7205 9.07043 17.3534 9.3564C16.9988 9.63248 16.491 9.88066 15.8443 10.0935C15.1976 10.3063 14.4445 10.4739 13.6061 10.5907C12.6978 10.7142 11.7821 10.7751 10.8654 10.7728C9.94869 10.7751 9.03288 10.7143 8.1245 10.5907C7.28611 10.4739 6.53302 10.3065 5.88631 10.0935C5.2396 9.88044 4.73204 9.63226 4.37726 9.3564C4.01016 9.07087 3.82397 8.76668 3.82397 8.45348C3.82397 8.14028 4.01016 7.83675 4.37726 7.55078C4.73204 7.27448 5.2396 7.02651 5.88631 6.81347C6.53302 6.60042 7.28611 6.43328 8.1245 6.31644C9.03286 6.19274 9.94866 6.13183 10.8654 6.13414ZM10.8654 6.0957C6.91198 6.0957 3.70703 7.15127 3.70703 8.45348C3.70703 9.75569 6.91198 10.8115 10.8654 10.8115C14.8189 10.8115 18.0236 9.75569 18.0236 8.45348C18.0236 7.15127 14.8195 6.0957 10.8654 6.0957Z" fill="#F7FAF6"/>
<path d="M10.8659 6.2762C11.7261 6.27412 12.5855 6.33127 13.4378 6.4473C14.225 6.55712 14.9326 6.71394 15.5393 6.91402C16.146 7.11411 16.623 7.34692 16.956 7.60609C17.3007 7.87448 17.4754 8.15979 17.4754 8.45366C17.4754 8.74753 17.2996 9.03284 16.956 9.30123C16.623 9.56062 16.1464 9.79343 15.5393 9.99352C14.9321 10.1936 14.225 10.3504 13.4378 10.4602C12.5855 10.5762 11.7261 10.6333 10.8659 10.6313C10.0053 10.6334 9.14551 10.5762 8.29273 10.4602C7.50556 10.3504 6.79796 10.1934 6.19148 9.99352C5.585 9.79365 5.10756 9.56062 4.77431 9.30123C4.42964 9.03284 4.25488 8.74775 4.25488 8.45366C4.25488 8.15957 4.43074 7.87448 4.77431 7.60609C5.10734 7.34692 5.58412 7.11389 6.19126 6.91402C6.7984 6.71416 7.50534 6.5569 8.29251 6.4473C9.14527 6.33122 10.005 6.27405 10.8657 6.2762M10.8657 6.23755C7.15077 6.23755 4.13794 7.22986 4.13794 8.45366C4.13794 9.67746 7.14945 10.6698 10.8657 10.6698C14.582 10.6698 17.5921 9.67768 17.5921 8.45366C17.5921 7.22964 14.5806 6.23755 10.8657 6.23755Z" fill="#F7FAF6"/>
<path d="M14.1501 9.28854C14.0802 9.27927 14.009 9.2917 13.9464 9.32412H12.9398L12.7974 9.4548C12.7657 9.48357 12.6826 9.5029 12.5896 9.5029L12.7844 9.32522H12.6369L12.4951 9.45458C12.4635 9.48335 12.3806 9.50268 12.2874 9.50268L12.4817 9.32522H12.3357L12.1942 9.45436C12.1625 9.48313 12.0797 9.50246 11.9867 9.50246L12.1806 9.32522L11.0953 9.32631H10.3532C10.3807 9.29205 10.4745 9.26811 10.582 9.26811H11.1445L12.006 8.26746H10.4871C10.0914 8.683 9.69573 9.15192 9.30005 9.57845C9.23411 9.65049 9.39523 9.73901 9.6234 9.73967C11.0243 9.74494 12.4252 9.73461 13.8261 9.73967C13.9059 9.73967 13.9765 9.72253 13.9974 9.69706L14.2721 9.36387C14.2983 9.33224 14.2457 9.2982 14.1501 9.28854Z" fill="#FF922E"/>
<path d="M12.9516 7.16814H11.3952C11.2497 7.16814 11.1315 7.20704 11.1315 7.25606H11.9046C11.8683 7.28816 11.7768 7.30992 11.6731 7.3108L11.3763 7.31388C11.243 7.45707 11.1095 7.60023 10.9758 7.7434H12.4572L12.8768 7.25562H12.9177C12.9854 7.25562 13.0454 7.23914 13.0529 7.21694C13.0604 7.19473 13.016 7.17275 12.9516 7.16814Z" fill="url(#paint3_linear_74_24204)"/>
<path d="M14.1946 7.90743C14.1946 7.90304 14.1927 7.89887 14.1916 7.89447C14.1093 7.59292 13.3307 7.36362 12.411 7.36362H9.75057C9.52943 7.36362 9.33181 7.4093 9.25641 7.47761L9.04693 7.64453H8.81502C8.65477 7.64453 8.50354 7.66891 8.40572 7.71042H9.72309L10.0671 7.71218C10.2383 7.71218 10.3603 7.76445 10.3344 7.8176L10.0236 8.09895H9.87718L10.1735 7.82836H10.0805L9.7842 8.09895H9.59713L9.89367 7.82836C9.40413 7.82529 9.00736 7.82199 8.51782 7.81892C8.39978 7.81892 8.29053 7.83957 8.2358 7.87383C8.21571 7.8854 8.19836 7.90122 8.18502 7.92017C8.16897 7.94543 8.23294 7.96915 8.31076 7.96585H8.31339C8.39824 7.96168 8.43473 7.93708 8.43737 7.93533H9.28983C9.28983 7.95729 9.23443 7.97618 9.16585 7.97618H8.7205C8.10325 8.58105 7.67086 9.01593 7.49127 9.15056C7.31168 9.2852 7.46489 9.34077 7.59547 9.36185C7.65554 9.37112 7.71626 9.3756 7.77704 9.37525H8.90163L9.64901 8.65529H9.42919C9.30939 8.65529 9.21223 8.62344 9.21223 8.58391H10.4676C10.9998 8.83056 11.5318 9.07984 12.0639 9.32671C12.5755 9.32671 13.087 9.32407 13.5983 9.32407L11.8228 8.53712L12.4095 8.5424C13.2888 8.5424 14.0454 8.33264 14.1773 8.04646C14.1981 8.00326 14.2042 7.95443 14.1946 7.90743ZM9.67825 8.19559H9.50613L9.5901 8.11916H9.76178L9.67825 8.19559ZM9.91697 8.19559H9.78618L9.86949 8.1196H10.0001L9.91697 8.19559ZM10.6863 8.19559C10.519 8.19559 10.3146 8.19559 10.073 8.19559L10.1568 8.12004H10.7688L10.6863 8.19559ZM10.1794 8.09917L10.4696 7.83693C10.7186 7.83693 10.9248 7.83847 11.0774 7.83869L10.7916 8.09917H10.1794ZM10.98 8.19625H10.8409L10.9246 8.12004H11.0642L10.98 8.19625ZM10.947 8.09917L11.2328 7.83869H11.3722L11.0864 8.09895L10.947 8.09917ZM11.7544 8.15013C11.5496 8.18195 11.3426 8.19731 11.1354 8.19603L11.2192 8.1196C11.3757 8.12223 11.5098 8.12136 11.6148 8.1196C11.8109 8.11608 11.9006 8.1095 11.987 8.0939C12.0221 8.08786 12.0569 8.08002 12.0912 8.0704C11.9808 8.10528 11.8679 8.13185 11.7536 8.14991L11.7544 8.15013ZM12.1884 8.00209C12.153 8.04602 12.0145 8.06798 11.9404 8.07875C11.8408 8.09368 11.754 8.09566 11.5839 8.09917C11.4498 8.10181 11.3335 8.10093 11.2416 8.09917L11.5258 7.83957C11.5643 7.83737 11.8709 7.82199 12.0644 7.88986C12.0897 7.89865 12.2306 7.94806 12.1875 8.00187L12.1884 8.00209Z" fill="#FF922E"/>
<path d="M11.0764 7.83847C10.9239 7.83847 10.7177 7.83847 10.4686 7.83672L10.1785 8.09918H10.7911L11.0764 7.83847ZM10.2787 8.0761L10.5174 7.86024L10.9766 7.86156L10.7419 8.0761H10.2787Z" fill="white"/>
<path d="M9.78699 8.19544L9.9169 8.19522L10.0009 8.11938H9.8703L9.78699 8.19544Z" fill="white"/>
<path d="M9.5061 8.19591H9.67822L9.76175 8.11963H9.59007L9.5061 8.19591ZM9.63931 8.14249H9.6613L9.6281 8.17261H9.60612L9.63931 8.14249Z" fill="white"/>
<path d="M14.265 7.90616C14.265 7.90155 14.263 7.89715 14.2619 7.89276C14.2206 7.74143 14.0078 7.60153 13.6629 7.49918C13.318 7.39683 12.875 7.34082 12.4121 7.34082H9.75099C9.50171 7.34082 9.27706 7.39265 9.19133 7.46953L9.08736 7.55255L9.00053 7.62173H8.81544C8.63453 7.62173 8.46087 7.64985 8.35053 7.69707L8.2637 7.73419H9.72351L10.0662 7.73594C10.1185 7.73493 10.1706 7.74319 10.2201 7.76032C10.2524 7.77306 10.2693 7.78909 10.2682 7.80425H10.0317L10.015 7.81962L9.73538 8.07616H9.69735L9.80594 7.97732L9.95982 7.83653L9.99301 7.80623H9.89519L9.2043 7.80161L8.51935 7.797H8.51165C8.36921 7.797 8.23952 7.8227 8.17335 7.86421C8.1506 7.87745 8.13095 7.89544 8.11576 7.91692C8.10411 7.93515 8.11796 7.95382 8.15357 7.96832C8.19903 7.98413 8.24699 7.99157 8.29513 7.99028C8.30326 7.99028 8.3114 7.99028 8.31931 7.99028H8.32349C8.37536 7.98918 8.42665 7.97892 8.47494 7.95997H8.66553L8.65497 7.97029C8.53524 8.08742 8.42263 8.19799 8.31711 8.30194C7.88429 8.72759 7.57127 9.03508 7.42795 9.1427C7.21912 9.2993 7.42443 9.36102 7.56533 9.3843C7.63568 9.39497 7.70674 9.4002 7.7779 9.39989H8.95283L8.96887 9.3843L9.71626 8.66434L9.74791 8.63381H9.42917C9.38475 8.63585 9.3405 8.6272 9.30014 8.60855H10.4313C10.6905 8.72869 10.9536 8.85147 11.2084 8.97007C11.4588 9.08691 11.7173 9.20727 11.9723 9.32566H12.0584C11.528 9.07967 10.9978 8.83126 10.4676 8.58549H9.21221C9.21221 8.62502 9.30937 8.65687 9.42917 8.65687H9.64899L8.90161 9.37683H7.77746C7.71668 9.37718 7.65597 9.3727 7.59589 9.36343C7.46532 9.34147 7.31013 9.2881 7.4917 9.15215C7.67327 9.01619 8.10367 8.5811 8.72092 7.97798H9.16561C9.2342 7.97798 9.28959 7.95953 9.28959 7.93713H8.43713C8.4345 7.93888 8.39801 7.96348 8.31316 7.96766H8.29579C8.22501 7.96766 8.16983 7.94569 8.18588 7.92175C8.19922 7.9028 8.21657 7.88699 8.23666 7.87541C8.29051 7.84159 8.39691 7.8205 8.51275 7.8205H8.51869C9.00822 7.82358 9.40499 7.82687 9.89453 7.82995L9.59755 8.09922H9.78462L10.0809 7.82863H10.1739L9.8776 8.09922H10.024L10.3348 7.81831C10.3608 7.76515 10.2388 7.71398 10.0675 7.71288L9.72351 7.71112H8.40614C8.50396 7.66917 8.65519 7.64523 8.81544 7.64523H9.04735L9.25684 7.47831C9.33223 7.41 9.52985 7.36432 9.75099 7.36432H12.4121C13.3312 7.36432 14.1098 7.59362 14.1926 7.89518C14.1937 7.89957 14.1948 7.90374 14.1957 7.90814C14.2054 7.95534 14.1993 8.00442 14.1783 8.04782C14.0465 8.33335 13.2894 8.54376 12.4106 8.54376L11.8232 8.53739L13.5983 9.32368H13.6862L13.6554 9.3105L12.6223 8.85322L11.9657 8.56243L12.4079 8.56638H12.4099C12.8526 8.56638 13.2822 8.51455 13.6189 8.42032C13.9557 8.3261 14.1803 8.19432 14.2465 8.05068C14.2684 8.00585 14.2749 7.95505 14.265 7.90616ZM10.2665 7.81259L10.235 7.84093L10.2401 7.83632L10.2667 7.81216L10.2665 7.81259Z" fill="white"/>
<path d="M10.0723 8.1953H10.265H10.6856L10.7691 8.12012H10.1562L10.0723 8.1953ZM10.2053 8.14276H10.6691L10.6363 8.17243H10.1725L10.2053 8.14276Z" fill="white"/>
<path d="M12.0905 8.07019C12.0562 8.07982 12.0214 8.08767 11.9863 8.09371C11.8984 8.10932 11.8105 8.11569 11.6142 8.11943C11.5568 8.11943 11.4907 8.12097 11.4164 8.12097C11.3552 8.12097 11.2889 8.12097 11.2185 8.11943L11.1348 8.19593C11.342 8.1972 11.549 8.18184 11.7538 8.14998C11.8679 8.13181 11.9804 8.10514 12.0905 8.07019ZM11.2372 8.17131L11.2678 8.14317C11.3179 8.14317 11.3682 8.14427 11.4179 8.14427C11.4838 8.14427 11.5524 8.14427 11.6188 8.14251H11.6386C11.5054 8.15963 11.3714 8.16924 11.2372 8.17131Z" fill="white"/>
<path d="M11.5825 8.09921C11.7526 8.09569 11.8395 8.09371 11.939 8.07876C12.0131 8.06733 12.1516 8.04623 12.187 8.00205C12.231 7.94819 12.0892 7.89873 12.063 7.88972C11.9351 7.84576 11.7577 7.8363 11.6412 7.8363C11.5814 7.8363 11.5376 7.8385 11.5245 7.83938L11.2402 8.09921C11.2904 8.09921 11.3477 8.10075 11.4113 8.10075C11.4642 8.10075 11.5223 8.10031 11.5825 8.09921ZM11.5759 7.86048C11.5937 7.86048 11.6159 7.85939 11.6418 7.85939C11.7518 7.85939 11.9039 7.86752 12.0127 7.90555C12.0549 7.92027 12.1498 7.95874 12.1199 7.99611C12.0929 8.02996 11.9786 8.04733 11.9102 8.05766C11.8243 8.07085 11.7511 8.07261 11.579 8.07613C11.5236 8.07613 11.4675 8.07766 11.4119 8.07766H11.3392L11.5759 7.86048Z" fill="white"/>
<path d="M11.3706 7.83871H11.2312L10.9454 8.09942H11.085L11.3706 7.83871Z" fill="white"/>
<path d="M10.9791 8.19612L11.0633 8.11984H10.9237L10.84 8.19612H10.9791Z" fill="white"/>
<path d="M7.84155 6.12876C8.84858 5.99113 9.86393 5.92341 10.8803 5.92609V5.1875H10.8663C9.4814 5.1875 8.16446 5.28092 6.96777 5.44996L7.84155 6.12876Z" fill="#F7FAF6"/>
<path d="M15.681 5.59802L14.6494 6.21058C15.5672 6.37816 16.362 6.60175 17.0116 6.87454L18.6809 6.4434C17.8651 6.09923 16.845 5.81151 15.681 5.59802Z" fill="white"/>
<path d="M1.21582 9.29536V10.8025C1.52752 11.2371 2.10301 11.6384 2.88424 11.9868V10.3834L1.25912 9.23694C1.24374 9.25671 1.22967 9.27603 1.21582 9.29536Z" fill="#EDE8E8"/>
<path d="M6.53711 12.9884C7.70215 13.1749 8.99512 13.2885 10.3606 13.3111V11.7161L6.53711 11.3926V12.9884Z" fill="#EDE8E8"/>
<path d="M15.2979 12.9713C16.5119 12.771 17.584 12.4912 18.4505 12.1525V10.6663L15.2979 11.4471V12.9713Z" fill="#EDE8E8"/>
<path d="M20.7816 10.0488C20.7816 10.0453 20.7816 10.042 20.7816 10.0387V8.35742L20.653 8.35852L20.5176 9.20499V10.7993C20.6899 10.5588 20.7816 10.3073 20.7816 10.0488Z" fill="#EDE8E8"/>
<path d="M18.6664 8.45546C18.6664 8.65511 18.5969 8.85366 18.46 9.04562L20.5177 9.20507C20.69 8.96347 20.7815 8.71221 20.7815 8.4537C20.7796 8.26273 20.7318 8.07503 20.6421 7.90637L18.5565 8.02278C18.6273 8.15612 18.665 8.3045 18.6664 8.45546Z" fill="white"/>
<path d="M18.4503 10.6662L16.8709 10.203C16.1705 10.4622 15.3354 10.6688 14.3887 10.8169L15.2976 11.447C16.5027 11.2579 17.5734 10.9911 18.4503 10.6662Z" fill="white"/>
<path d="M6.53711 11.3929C7.70215 11.5798 8.99556 11.6934 10.3619 11.7161L10.4719 11.0166C9.46729 11.0027 8.46496 10.9176 7.47244 10.7618L6.53711 11.3929Z" fill="white"/>
<path d="M1.21582 9.20721C1.52532 9.63879 2.09509 10.0374 2.86687 10.384L4.55156 9.98516C3.93805 9.70402 3.51094 9.39083 3.28211 9.05457L1.21582 9.20721Z" fill="white"/>
<path d="M1.28992 7.60324L3.38104 7.7963C3.66329 7.46443 4.13986 7.15936 4.79777 6.88855L3.0733 6.43369C2.25646 6.775 1.64251 7.17144 1.28992 7.60324Z" fill="white"/>
<path d="M7.84155 6.12876C8.84858 5.99113 9.86393 5.92341 10.8803 5.92609V5.1875H10.8663C9.4814 5.1875 8.16446 5.28092 6.96777 5.44996L7.84155 6.12876Z" fill="white"/>
<path d="M28.1764 15.2946C28.1949 15.2709 28.2134 15.247 28.2314 15.2228L29.2632 13.8725L28.9957 13.7069C29.9158 10.6603 27.8113 6.94632 23.9779 5.10776C20.8743 3.6193 17.5194 3.78314 15.3973 5.29137L15.2504 5.20066L14.4683 6.13169C14.4337 6.17154 14.3998 6.21179 14.3666 6.25249L14.3531 6.26853C14.1131 6.56466 13.9083 6.88763 13.7429 7.23096C12.2262 10.3873 14.3503 14.554 18.4862 16.5375C22.1899 18.3139 26.251 17.7367 28.1483 15.3295L28.1764 15.2946Z" fill="url(#paint4_linear_74_24204)"/>
<path d="M29.4123 13.5855C30.9286 10.4291 28.805 6.26244 24.6691 4.27895C20.5331 2.29545 15.9511 3.24625 14.4349 6.40259C12.9186 9.55896 15.0423 13.7256 19.1782 15.7091C23.3141 17.6926 27.8962 16.7418 29.4123 13.5855Z" fill="#FF922E"/>
<path d="M26.5242 12.2005C27.4558 10.2613 26.1509 7.70139 23.6101 6.48275C21.0689 5.26413 18.2538 5.84829 17.3223 7.78749C16.3907 9.72671 17.6954 12.2867 20.2365 13.5053C22.7776 14.7239 25.5926 14.1398 26.5242 12.2005Z" fill="white"/>
<path d="M17.194 7.72206V7.72404V7.7258V7.72777V7.72931V7.73107V7.73282V7.7348V7.73634V7.73832V7.74007V7.74183V7.74359V7.74534V7.7471V7.74864V7.7504V7.75193V7.75369V7.75501V7.75698V7.75852V7.7605V7.76182V7.76357V7.76489V7.76665V7.76819V7.76972V7.77104V7.77214V7.7739V7.77521V7.77697V7.77807V7.77961V7.78114V7.78224V7.784V7.78532V7.78664V7.78773V7.78905V7.79037V7.79147V7.79278V7.79432V7.79608V7.79762V7.79871V7.80047V7.80157V7.80377V7.80508L17.1929 7.8075V7.80882L17.1914 7.81277L17.1897 7.81673L17.1881 7.82068V7.822L17.187 7.82463V7.82595L17.1857 7.82859V7.8299L17.1839 7.8343L17.1822 7.83869C17.1822 7.84001 17.1822 7.84132 17.1804 7.84286C17.1277 7.97201 17.0836 8.10451 17.0485 8.23952L17.4169 8.36735C17.4637 8.18821 17.5275 8.01398 17.6075 7.84703L17.194 7.72206ZM16.892 8.88393C16.892 8.88898 16.892 8.89425 16.892 8.8993V8.90392C16.892 8.90501 16.892 8.90589 16.892 8.90699V8.90853V8.91138V8.91292V8.91753V8.92193V8.92808V8.98167V8.9865V8.99858V9.00077V9.00297V9.00517V9.00736V9.00978V9.01198V9.01439V9.01659V9.019V9.02384V9.02867C16.892 9.03042 16.892 9.03196 16.892 9.0335V9.04228C16.8921 9.04389 16.8921 9.04551 16.892 9.04712C16.8893 9.20117 16.8967 9.35524 16.914 9.50835L17.2877 9.54415C17.2654 9.35236 17.2603 9.15898 17.2725 8.96629L16.8971 8.88371L16.892 8.88393ZM17.0369 10.144C17.0974 10.3525 17.1732 10.5564 17.2635 10.7539L17.2655 10.7587L17.2677 10.7633L17.2688 10.7655V10.7675V10.7697V10.7715V10.7734L17.6159 10.7148C17.5279 10.5257 17.4544 10.3302 17.3961 10.1299L17.0314 10.1416L17.0369 10.144ZM17.6135 11.3904C17.7456 11.5943 17.891 11.7892 18.0487 11.974L18.3382 11.8264C18.1922 11.6553 18.0576 11.4749 17.9353 11.2863L17.6135 11.3904ZM18.5701 12.5136C18.7196 12.6502 18.8776 12.7813 19.044 12.9068L19.0489 12.9103L19.0535 12.9138L19.0581 12.9173L19.0627 12.9208L19.0673 12.9241L19.0717 12.9274L19.0761 12.9307L19.0783 12.9325L19.0803 12.934L19.0823 12.9355L19.084 12.9368L19.086 12.9382L19.0876 12.9393L19.0895 12.9408L19.0911 12.9419C19.0916 12.9425 19.0922 12.943 19.0928 12.9434L19.0942 12.9445L19.0959 12.9458H19.0972L19.099 12.9472H19.1001L19.1021 12.9485H19.1034L19.1049 12.9496L19.1065 12.9507H19.1078L19.1098 12.952H19.1111L19.1133 12.9535H19.1146L19.117 12.9551V12.9562L19.1192 12.9579H19.1205L19.1232 12.9599C19.1236 12.9604 19.1241 12.9608 19.1247 12.961L19.1278 12.963L19.1326 12.9665L19.141 12.9726L19.3465 12.7482C19.1634 12.6173 18.9879 12.4761 18.8207 12.3254L18.5703 12.5136H18.5701ZM19.8257 13.413C19.8873 13.4473 19.9498 13.4807 20.0132 13.5134L20.0185 13.5162L20.024 13.5189L20.0295 13.5215L20.0328 13.5233H20.0345L20.0374 13.5246H20.0392L20.042 13.5259H20.0436L20.0462 13.5272H20.0477L20.0501 13.5285H20.0517H20.053H20.055H20.0563H20.0583H20.0596L20.0618 13.5296H20.0629H20.0642H20.066H20.0675H20.0686H20.0702H20.0717H20.0732H20.0743H20.0759H20.0774H20.0789H20.0807H20.082H20.0836L20.0855 13.5307H20.0869H20.0884L20.0906 13.5318H20.0924L20.0946 13.5329H20.0961L20.0983 13.534H20.1H20.1022H20.104H20.1062L20.1084 13.5351H20.1108L20.113 13.5362L20.1154 13.5373L20.1176 13.5384L20.1198 13.5395L20.1222 13.5406L20.1244 13.5417L20.1269 13.5428L20.1291 13.5439L20.1317 13.5452L20.1339 13.5463L20.1363 13.5476L20.1383 13.5487L20.1407 13.5501L20.1429 13.5512L20.1456 13.5523L20.148 13.5534L20.1504 13.5547L20.1528 13.556L20.1554 13.5573L20.1579 13.5586L20.1603 13.5597L20.1623 13.5608L20.1647 13.5619H20.1667H20.1686L20.171 13.563H20.173L20.1752 13.5641H20.1772H20.1792H20.1816L20.1836 13.5652L20.1858 13.5663L20.1882 13.5676H20.1902L20.1924 13.5687H20.1948H20.197L20.1994 13.5698H20.2018L20.2069 13.5722L20.2093 13.5736L20.2144 13.576L20.222 13.5797L20.2273 13.5821C20.2859 13.6092 20.3442 13.6353 20.4021 13.6603H20.4047L20.41 13.6625H20.4122L20.4146 13.6636H20.4166H20.4186H20.4205H20.4221H20.4238H20.4256H20.4269L20.432 13.6658L20.481 13.6862L20.5854 13.4058C20.4803 13.3618 20.3746 13.3148 20.2713 13.2652C20.157 13.2103 20.0429 13.1514 19.9328 13.0895L19.8257 13.413ZM21.315 13.7111L21.2655 14.0109C21.4222 14.0558 21.5787 14.0945 21.7351 14.1268L21.7408 14.1281H21.7465L21.7522 14.1295H21.7553H21.7579H21.7608H21.7634H21.7661H21.7685H21.7711H21.7735H21.7762H21.7784H21.781H21.783H21.7854H21.7876H21.7898H21.792H21.7944H21.7984H21.8001H21.8102H21.8116H21.8159H21.8175H21.8217H21.8234H21.8269H21.8294H21.8329H21.8353H21.8368H21.8399L21.8452 14.1306L21.8505 14.1317L21.8557 14.1328H21.8612L21.8727 14.1347C21.919 14.1432 21.9652 14.1513 22.0114 14.1589L22.0081 13.8657C21.7739 13.8278 21.5423 13.776 21.3143 13.7106L21.315 13.7111ZM22.6998 13.9346L22.7627 14.2525C22.7761 14.2525 22.7897 14.2525 22.8032 14.2538H22.8691C23.0021 14.2563 23.134 14.254 23.2648 14.247H23.2703H23.2758H23.2907H23.2953H23.3369H23.3424H23.3479C23.3964 14.2436 23.445 14.2396 23.4934 14.2351L23.376 13.9188C23.1518 13.9399 22.9263 13.9463 22.7012 13.9382L22.6998 13.9346ZM24.0563 13.8962L24.1876 14.1165C24.2146 14.1101 24.2414 14.1033 24.2685 14.0965L24.2735 14.0952L24.2784 14.0939H24.281H24.2834H24.2858H24.2882H24.2907L24.2953 14.0926H24.2975H24.2999H24.3021H24.3041H24.3065H24.3083H24.3104H24.3126H24.3148H24.3168H24.3186H24.3208H24.3225H24.3245H24.3258H24.3278H24.3294H24.3313H24.3329H24.3342H24.3355H24.3373H24.3386H24.3403H24.3425H24.3443H24.3454H24.3467H24.3483H24.3496H24.3509H24.3522H24.3535H24.3551H24.3568H24.3579H24.3597H24.3619H24.3636H24.3647H24.3667H24.3696H24.3718H24.3731H24.3742H24.3762H24.3782H24.3793H24.3806H24.3828H24.3856H24.3878H24.3891H24.3913H24.3927H24.3953L24.3997 14.0912L24.4043 14.0899H24.4072H24.4087H24.4113H24.4129H24.4155L24.4199 14.0886L24.4243 14.0873H24.427H24.4283H24.4309H24.4324H24.4351L24.4395 14.086L24.4441 14.0844H24.447H24.4485H24.4516H24.4531H24.4562L24.4608 14.0831L24.4654 14.0818L24.47 14.0803L24.4782 14.0778L24.483 14.0765L24.4876 14.0752L24.4922 14.0737L24.5004 14.071L24.5052 14.0695L24.5098 14.068L24.5144 14.0666L24.5224 14.0642L24.5272 14.0627L24.5318 14.0612L24.5364 14.0594L24.541 14.0579L24.5441 14.0568L24.5487 14.0552L24.5533 14.0535L24.558 14.0519H24.5608H24.5624H24.5652H24.5668L24.5698 14.0508L24.5745 14.0493L24.5788 14.0478H24.5815H24.5828H24.5852H24.5868H24.5896L24.594 14.0462L24.5984 14.0447H24.601H24.6024H24.6046H24.6059H24.6083H24.6096H24.612L24.6162 14.0431H24.6184H24.6197H24.6219H24.6232H24.625H24.6263H24.6281H24.6294H24.6309H24.6327H24.6338H24.6351H24.6371H24.6382H24.64H24.6411H24.6424H24.6439H24.6457H24.647H24.6487H24.6501H24.6514H24.6529H24.6542H24.6562H24.6578H24.6597H24.6611H24.6628H24.6644H24.6663H24.6679H24.6692H24.6712H24.6727H24.6747H24.6762H24.6782H24.6797H24.6819H24.6839H24.6861H24.6883H24.6903H24.6925H24.6945H24.6967H24.6986H24.7008L24.7055 14.0414H24.7077H24.7099H24.7121H24.7143H24.7165L24.7211 14.0396L24.7257 14.0377L24.7303 14.0357L24.7448 14.0297L24.5283 13.7372C24.3344 13.8158 24.2599 13.8477 24.0563 13.8962ZM25.1524 13.3478L25.4122 13.6186C25.4401 13.6015 25.4678 13.584 25.4948 13.5661L25.4988 13.5635L25.5025 13.561L25.506 13.5586L25.5078 13.5573L25.5093 13.5562L25.5107 13.5551L25.5122 13.554H25.5135H25.5151H25.5164L25.5181 13.5529H25.5197H25.5212H25.5225L25.5243 13.5518H25.5258H25.5278L25.5296 13.5507L25.5313 13.5494L25.5353 13.5468L25.539 13.5441L25.543 13.5415C25.6667 13.457 25.7848 13.3645 25.8962 13.2645L25.5986 13.0229C25.4592 13.1433 25.3102 13.2518 25.1526 13.3471L25.1524 13.3478ZM25.9991 12.5887L26.3288 12.7978L26.3301 12.7961L26.3315 12.7943V12.7932V12.7917L26.3328 12.7899V12.7888L26.3341 12.7871V12.786L26.3367 12.7827L26.3394 12.7791L26.342 12.7756L26.3446 12.7721V12.771L26.3464 12.7686V12.7673L26.3493 12.7636L26.3576 12.7521C26.4618 12.6089 26.5535 12.4569 26.6317 12.2979L26.28 12.1266C26.198 12.2927 26.1004 12.4505 25.9883 12.5979L25.9991 12.5887ZM26.5803 11.0447C26.5664 11.2317 26.5348 11.4169 26.486 11.598L26.8535 11.728C26.8586 11.7093 26.8636 11.6906 26.8683 11.672V11.6676L26.8696 11.6632V11.6603V11.659C26.8696 11.6577 26.8696 11.6562 26.8696 11.6548V11.652V11.6507V11.648V11.6467V11.6443V11.6421V11.6399V11.634V11.6322V11.6294V11.6276V11.6247V11.623V11.6184V11.6135V11.6089V11.6076V11.6059V11.603V11.6012V11.5984V11.5966V11.59V11.5885V11.5865V11.585V11.583V11.5813V11.5793V11.5775V11.5755V11.5681V11.5659V11.5639V11.5617V11.5575V11.5534V11.549V11.5446V11.5402V11.5356C26.8968 11.4022 26.9153 11.2672 26.9254 11.1314L26.5803 11.0447ZM26.4568 9.88063C26.5108 10.0731 26.5489 10.2696 26.5704 10.4684L26.9441 10.5066C26.932 10.3922 26.9144 10.2777 26.8913 10.1629C26.8913 10.1569 26.8891 10.151 26.8878 10.1453C26.8878 10.1438 26.8878 10.1422 26.8878 10.1407C26.8878 10.1391 26.8878 10.1376 26.8878 10.1361C26.8878 10.1345 26.8878 10.133 26.8878 10.1315V10.1284V10.1268V10.124V10.1227V10.1198V10.1154V10.111V10.1084V10.106V10.1038V10.1025V10.1007V10.0985V10.0974V10.0937V10.0919V10.0888V10.0871V10.0838V10.082V10.0746V10.073V10.0706V10.0682V10.0664V10.0634V10.0614V10.0585V10.0566V10.0548V10.0526V10.0508V10.0489V10.0471V10.0451V10.0432V10.0412V10.0392V10.0374V10.0353V10.0335V10.0315V10.0298V10.0276V10.0232C26.8878 10.0224 26.8878 10.0216 26.8878 10.0208V10.0186V10.0164V10.0142V10.012V10.0096V10.0071C26.8878 10.0056 26.8878 10.0041 26.8878 10.0025C26.8878 10.001 26.8878 9.99945 26.8878 9.99791L26.8865 9.99308C26.8865 9.99133 26.8865 9.98979 26.8865 9.98803C26.8777 9.95333 26.8685 9.91863 26.8588 9.88392L26.4935 9.89337L26.4568 9.88063ZM25.9327 8.72491C26.0492 8.9078 26.1527 9.09862 26.2424 9.29596L26.5906 9.23974C26.4937 9.02717 26.3818 8.82168 26.2561 8.62476L25.9327 8.72667V8.72491ZM25.0565 7.68055C25.2262 7.83774 25.386 8.00528 25.5351 8.1822L25.8263 8.03658C25.8026 8.00847 25.7786 7.98051 25.7544 7.95268L25.7522 7.94982V7.94851L25.7503 7.94631L25.7492 7.94521L25.7476 7.94367V7.94258L25.7463 7.94126L25.745 7.93972V7.93862L25.7437 7.93708V7.93599L25.7421 7.93423L25.7408 7.93269L25.7395 7.93094L25.738 7.92896L25.7364 7.92742L25.7347 7.92566L25.7331 7.92413L25.7314 7.92215L25.7298 7.92039L25.7281 7.91863L25.7265 7.91688L25.7248 7.9149L25.721 7.91073L25.7171 7.90656C25.6538 7.83612 25.5883 7.76665 25.5208 7.69812L25.5166 7.69417L25.5126 7.69022L25.5085 7.68626L25.5045 7.68231L25.5027 7.68033L25.5008 7.67836L25.4988 7.67638L25.497 7.67462L25.495 7.67264L25.4933 7.67089L25.4915 7.66913L25.4898 7.66759L25.488 7.66584L25.4865 7.66408L25.4849 7.66232L25.4834 7.66056L25.4821 7.65925L25.4805 7.65749L25.4792 7.65617L25.4777 7.65441L25.4764 7.6531L25.4748 7.65156L25.4733 7.65024V7.64914L25.472 7.64783L25.4704 7.64629L25.4689 7.64475V7.64365L25.4674 7.64212L25.4638 7.6386L25.4601 7.63509C25.459 7.63373 25.4577 7.6325 25.4564 7.63135C25.4205 7.5965 25.384 7.56202 25.3465 7.52791L25.0565 7.68055ZM23.9016 6.84265C24.1111 6.96039 24.3135 7.09004 24.5081 7.23096L24.7158 7.00825C24.6494 6.95993 24.5817 6.91271 24.5129 6.86659L24.5081 6.86329L24.505 6.8611H24.5034L24.5004 6.85912H24.4991L24.4966 6.85758H24.4951L24.4925 6.85582H24.4911H24.4898L24.4881 6.85451H24.487L24.4852 6.85319H24.4841L24.4823 6.85209H24.4808L24.4788 6.85077H24.4773L24.4753 6.84945H24.4738L24.4716 6.84814L24.47 6.84704L24.4678 6.8455L24.4659 6.8444L24.4481 6.82398L24.4459 6.82244L24.4412 6.81936L24.4364 6.81629L24.4316 6.81322L24.4267 6.81014L24.4217 6.80685C24.312 6.73584 24.1992 6.6676 24.0836 6.60215L24.081 6.60061L24.0783 6.59907L24.0759 6.59753L24.0735 6.596L24.0713 6.59468L24.0689 6.59336L24.0669 6.59204L24.0647 6.59073L23.9058 6.84462L23.9016 6.84265ZM22.6236 5.98278L22.571 6.2817C22.8018 6.3493 23.0287 6.42997 23.2505 6.5233L23.3578 6.24392C23.3081 6.22196 23.2586 6.20285 23.2089 6.18308L23.2032 6.18089L23.1977 6.17869L23.1951 6.17759H23.1925H23.19H23.1874H23.1852H23.1828H23.1806H23.1782H23.1762L23.1735 6.17649H23.1714H23.1689H23.167H23.165H23.1632H23.1615H23.1601H23.1584H23.1568H23.1555H23.1538H23.1527H23.1511H23.1498H23.148H23.147H23.1454H23.1441H23.1423H23.141H23.139H23.1377H23.1364H23.1349H23.1331H23.1316H23.1296H23.1283H23.1267H23.1252L23.1228 6.1754H23.1212L23.1184 6.1743H23.1168L23.1135 6.17298H23.1118L23.1085 6.17166H23.1067L23.103 6.17035H23.1012L23.0977 6.16903H23.096L23.0922 6.16771H23.0902L23.0847 6.16551L23.0792 6.16354L23.0735 6.16156L23.0678 6.15936L23.0412 6.12115L23.0355 6.11917C22.8986 6.06909 22.7612 6.024 22.6236 5.98388V5.98278ZM21.1253 5.73174L21.1853 6.04955C21.4174 6.05956 21.6486 6.08383 21.8777 6.12225L21.8738 5.81036L21.805 5.79938H21.8014H21.7995H21.7962H21.7944H21.7913H21.7883H21.7856H21.7392H21.7366H21.734H21.7311H21.7254H21.7197C21.5204 5.77127 21.323 5.75311 21.1275 5.74491L21.1253 5.73174ZM19.698 5.85759L19.8642 6.16507C20.0765 6.11623 20.292 6.08218 20.5091 6.06316L20.3946 5.74777C20.2865 5.75721 20.1794 5.76973 20.0737 5.78598H20.0684H20.0631H20.0583H20.0559H20.0077H20.0053H20.0007H19.9961H19.9928H19.991H19.9877H19.9827H19.9776C19.884 5.80195 19.7918 5.82053 19.7011 5.84177L19.698 5.85759ZM18.467 6.34759L18.7249 6.6195C18.8974 6.5159 19.0781 6.42657 19.2652 6.35242L19.0509 6.05899C18.9483 6.09984 18.8482 6.14436 18.7508 6.19253L18.7464 6.19472L18.7418 6.19692L18.7257 6.20505L18.7213 6.20724L18.7167 6.20944L18.7145 6.21054L18.7055 6.21515L18.7011 6.21735L18.6967 6.21976L18.6811 6.22789L18.6767 6.23009L18.6723 6.23228L18.6677 6.2347L18.6611 6.23821L18.6567 6.24063L18.6523 6.24282L18.6479 6.24502L18.6435 6.24744L18.6369 6.25095L18.6325 6.25337L18.6284 6.25578L18.624 6.2582L18.6196 6.26061L18.6152 6.26303L18.613 6.26435L18.6088 6.26655L18.6046 6.26874L18.6004 6.27116L18.5961 6.27357L18.5917 6.27599H18.5895L18.5851 6.27841L18.5809 6.28082L18.5767 6.28324L18.5747 6.28456L18.5725 6.28565H18.5706L18.5686 6.28675L18.5664 6.28785L18.5644 6.28895H18.5622L18.5582 6.29114L18.5543 6.29356L18.5523 6.29466H18.5503H18.5486H18.5468L18.5451 6.29576H18.5435H18.5418H18.5402H18.5385L18.5367 6.29685H18.5352H18.5332H18.5319H18.5301H18.5288L18.527 6.29795H18.5255H18.5237H18.5222H18.5209H18.5193H18.518H18.5165H18.5154H18.5138H18.5127H18.5112H18.5099H18.5088H18.507H18.5059L18.5039 6.29905L18.5015 6.30037L18.4976 6.30278L18.4945 6.30454L18.467 6.34759ZM17.5425 7.16024L17.8698 7.37109C17.9854 7.22257 18.1148 7.08528 18.2562 6.96103L17.9603 6.71702C17.9289 6.74469 17.8981 6.77258 17.868 6.80135L17.8647 6.80443L17.8616 6.80729L17.8601 6.8086V6.8097V6.8108L17.8588 6.81212L17.8575 6.81344V6.81453L17.8561 6.81585L17.8548 6.81717L17.8533 6.81871L17.852 6.82024L17.8504 6.82178L17.8489 6.82332L17.8471 6.82486L17.8438 6.82815L17.8405 6.83144L17.8372 6.83474C17.7377 6.93294 17.6447 7.03755 17.5589 7.14794L17.5425 7.16024Z" fill="#FF922E"/>
<path d="M16.6066 7.44417C16.8704 6.89641 17.266 6.43232 17.7833 6.06509C18.2834 5.71016 18.8751 5.46022 19.5418 5.32163C20.2085 5.18304 20.9185 5.16327 21.6499 5.26254C23.2011 5.48343 24.6467 6.17673 25.7895 7.24804C26.3245 7.75605 26.7525 8.32161 27.062 8.92846C27.3715 9.53531 27.5456 10.1534 27.5819 10.765C27.6188 11.3983 27.5041 11.9972 27.241 12.5441C26.9778 13.091 26.5815 13.5559 26.0643 13.9232C25.5642 14.2781 24.9722 14.528 24.3057 14.6666C23.6392 14.8052 22.929 14.825 22.1977 14.7257C20.6463 14.5048 19.2008 13.8115 18.058 12.7402C17.5241 12.2331 17.0948 11.6677 16.7855 11.0607C16.4762 10.4536 16.3019 9.83577 16.2656 9.22409C16.2287 8.59088 16.3435 7.99216 16.6066 7.44505M16.5187 7.40266C15.4237 9.68027 16.9565 12.6882 19.9421 14.12C22.9277 15.5518 26.2355 14.8667 27.33 12.5874C28.4245 10.308 26.8917 7.30097 23.9061 5.86918C20.9205 4.43738 17.612 5.1233 16.5182 7.40178L16.5187 7.40266Z" fill="#F7FAF6"/>
<path d="M16.9316 7.60017C17.1787 7.08579 17.5504 6.65025 18.0362 6.30433C18.5057 5.97114 19.0614 5.73635 19.6879 5.60633C20.3144 5.47631 20.9804 5.45786 21.6663 5.55098C23.1232 5.75895 24.4806 6.41054 25.5535 7.417C26.0558 7.89404 26.4579 8.42468 26.7483 8.99463C27.0386 9.56458 27.2028 10.1446 27.2362 10.7188C27.271 11.3133 27.1633 11.8756 26.9162 12.39C26.6691 12.9043 26.2974 13.3399 25.8114 13.6847C25.3421 14.0179 24.7864 14.2527 24.1597 14.3827C23.533 14.5127 22.8671 14.5312 22.1813 14.438C20.7241 14.2308 19.3664 13.5796 18.2932 12.5731C17.7909 12.0961 17.389 11.5655 17.0987 10.9955C16.8083 10.4255 16.6439 9.84571 16.6104 9.27137C16.5757 8.67682 16.6834 8.11455 16.9307 7.60017M16.8428 7.55778C15.814 9.69922 17.2547 12.5261 20.0607 13.8718C22.8667 15.2175 25.9754 14.5727 27.0041 12.4315C28.0329 10.2903 26.5922 7.46312 23.7862 6.11742C20.9802 4.77172 17.872 5.41657 16.8424 7.55778H16.8428Z" fill="#F7FAF6"/>
<path d="M24.7472 9.02032C24.7151 9.04997 24.7061 9.09829 24.7725 9.17692L24.4958 9.75786L24.754 9.98254C24.8114 10.0324 24.8323 10.1014 24.8066 10.155L24.4531 9.84747L24.4127 9.93246L24.6703 10.1567C24.7277 10.2066 24.7488 10.2755 24.7228 10.3291L24.3711 10.0216L24.3307 10.1069L24.5876 10.3304C24.645 10.3803 24.6661 10.4493 24.6404 10.5029L24.2887 10.1954L23.9904 10.822L23.7853 11.2492C23.7143 11.1958 23.6857 11.1154 23.7154 11.0535L23.871 10.7293L21.8124 9.13234L21.3926 10.0087C22.2358 10.6937 23.2017 11.4376 24.07 12.1345C24.2164 12.252 24.4641 12.256 24.5292 12.1255C24.929 11.3239 25.293 10.5051 25.6929 9.70339C25.7149 9.6577 25.6949 9.59774 25.6423 9.55777L24.9536 9.03218C24.8877 8.98211 24.7958 8.97508 24.7472 9.02032Z" fill="#FF922E"/>
<path d="M19.5542 7.37855L19.552 7.37679L19.5438 7.39392L19.1534 8.20657L19.1211 8.27246C19.0809 8.35636 19.1374 8.46706 19.2473 8.51977L19.3299 8.34758L19.4618 8.07413C19.5254 8.13014 19.5498 8.20591 19.5234 8.26763C19.497 8.32935 19.4731 8.38382 19.448 8.44202L20.3213 9.14485L20.7331 8.29333L19.7316 7.51538L19.7428 7.49166C19.7615 7.45279 19.7408 7.40029 19.692 7.37152C19.6432 7.34275 19.5825 7.34714 19.5542 7.37855Z" fill="#FF922E"/>
<path d="M21.5935 7.47543L21.5629 7.46313C20.8487 7.1787 20.1077 7.37527 19.8532 7.90525L19.7432 8.13257L19.1157 9.43896C19.0546 9.56635 19.1042 9.73019 19.2403 9.84902L19.5647 10.153L19.5006 10.2867C19.4566 10.3792 19.4704 10.4932 19.5393 10.5956L19.9041 9.83628C19.9371 9.77026 19.9702 9.70487 20.0035 9.64014C20.0534 9.54263 20.2042 9.52857 20.3189 9.60193L20.8768 10.09L20.8364 10.1743L20.2981 9.70582L20.2723 9.75941L20.8111 10.2283L20.7595 10.3362L20.2211 9.86769C20.0785 10.1464 19.9615 10.3715 19.8189 10.6505C19.7846 10.7175 19.803 10.8042 19.8668 10.8734C19.8948 10.9033 19.926 10.93 19.9598 10.9531C20.0132 10.9902 20.0853 10.9795 20.0991 10.9312C20.0991 10.9306 20.0991 10.9301 20.0991 10.9296C20.113 10.8762 20.0668 10.8281 20.0631 10.8246L20.0932 10.762L20.1532 10.6371L20.2992 10.3333C20.3508 10.3581 20.3774 10.4102 20.3585 10.4497L20.2354 10.7058C21.4499 11.7262 22.3281 12.4539 22.5875 12.7056C22.8469 12.9573 23.0161 12.9298 23.101 12.8778C23.1361 12.8562 23.1641 12.825 23.1816 12.7877L23.4931 12.1391L22.0496 10.9171L21.9887 11.044C21.9555 11.113 21.8553 11.1339 21.7647 11.0904L21.9063 10.7956L22.1122 10.3669C22.8253 10.3316 23.5441 10.299 24.2572 10.2637C24.399 9.96894 24.5346 9.67067 24.6762 9.37658L22.3822 9.5356L22.5567 9.20329C22.8 8.69659 22.5286 8.02978 21.9089 7.63905C21.8085 7.57578 21.703 7.52105 21.5935 7.47543ZM21.0037 10.3952L20.9566 10.4947L20.8043 10.363L20.8518 10.2641L21.0037 10.3952ZM21.0696 10.2573L21.034 10.3322L20.8828 10.2004L20.9188 10.1251L21.0696 10.2573ZM21.2828 9.81453C21.2358 9.91051 21.1787 10.0282 21.1123 10.1677L20.9619 10.0359L21.1316 9.68275L21.2828 9.81453ZM20.9212 10.0006L20.4005 9.54504C20.4722 9.40272 20.5302 9.28434 20.5728 9.1967L21.0909 9.64739L20.9212 10.0006ZM21.3657 9.64607L21.3437 9.69L21.3264 9.72492L21.1745 9.59314L21.2129 9.51276L21.3657 9.64607ZM21.1338 9.55822L20.615 9.10819L20.6537 9.02802L21.1716 9.47849L21.1338 9.55822ZM21.4743 9.14904C21.4963 9.31047 21.4618 9.43457 21.4084 9.55602L21.2563 9.42424C21.2981 9.3508 21.3348 9.27456 21.3662 9.19604C21.4128 9.07942 21.422 9.02034 21.4101 8.95445C21.4049 8.92427 21.3962 8.89477 21.3842 8.86659C21.4293 8.95519 21.4595 9.05062 21.4734 9.14904H21.4743ZM21.2545 8.73613C21.3462 8.80509 21.356 8.9081 21.3613 8.96323C21.3686 9.03725 21.349 9.08952 21.3094 9.19121C21.283 9.25947 21.2514 9.32556 21.2147 9.38888L20.6981 8.93951C20.7041 8.91513 20.7537 8.72163 20.9619 8.68451C20.9905 8.67902 21.1426 8.65201 21.2543 8.73613H21.2545Z" fill="#FF922E"/>
<path d="M20.5715 9.19604C20.5289 9.28397 20.4708 9.40221 20.3992 9.54466L20.9199 10.0006L21.0896 9.64709L20.5715 9.19604ZM20.8946 9.91727L20.4662 9.54226C20.5102 9.45433 20.5541 9.3664 20.5966 9.27848L21.023 9.64975L20.8946 9.91727Z" fill="white"/>
<path d="M21.0331 10.3321L21.0687 10.2569L20.9179 10.125L20.8818 10.2004L21.0331 10.3321Z" fill="white"/>
<path d="M20.9562 10.4949L21.0032 10.3953L20.8513 10.2635L20.8038 10.3624L20.9562 10.4949ZM20.8704 10.3593L20.8766 10.3463L20.9368 10.3984L20.9304 10.4116L20.8704 10.3593Z" fill="white"/>
<path d="M21.6086 7.43346L21.5772 7.4205C21.2186 7.27796 20.8394 7.24677 20.5088 7.33264C20.1782 7.41852 19.9279 7.61268 19.7997 7.87953L19.6898 8.10686L19.0624 9.41346C18.9934 9.5571 19.0499 9.74291 19.2027 9.87755L19.364 10.0287L19.4986 10.1547L19.4471 10.2615C19.3972 10.3656 19.4137 10.4967 19.4911 10.6129L19.5524 10.7038L19.5918 10.6217L19.9567 9.86239C19.9887 9.79782 20.0226 9.73193 20.0556 9.66692C20.0655 9.64924 20.0796 9.63433 20.0968 9.62354C20.114 9.61276 20.1336 9.60645 20.1538 9.6052C20.1941 9.60099 20.2346 9.60863 20.2706 9.62717L20.2446 9.68142L20.2189 9.73501L20.205 9.76334L20.2356 9.78969L20.7434 10.2316L20.7328 10.2536L20.5361 10.0822L20.2563 9.83867L20.196 9.78618L20.1675 9.84197C20.0958 9.98187 20.0307 10.1084 19.9654 10.2349C19.9002 10.3614 19.8369 10.4848 19.7659 10.6236C19.7659 10.6252 19.7643 10.6265 19.7637 10.6278C19.7243 10.71 19.7476 10.813 19.8245 10.8969C19.856 10.9311 19.8911 10.9616 19.9294 10.988C19.9666 11.0144 20.0121 11.0267 20.0575 11.0227C20.0763 11.0219 20.0945 11.0162 20.1103 11.0062C20.1262 10.9962 20.1392 10.9823 20.1481 10.9658C20.1504 10.9612 20.1522 10.9563 20.1536 10.9513V10.9487C20.1579 10.9278 20.1576 10.9063 20.1529 10.8855C20.1481 10.8647 20.139 10.8451 20.1261 10.8281L20.1455 10.7877L20.1784 10.7187L20.2004 10.7363C20.4361 10.9341 20.6582 11.1205 20.8669 11.2955C21.7229 12.0131 22.3415 12.5316 22.5485 12.7326C22.8499 13.0251 23.0484 12.9742 23.1398 12.9186C23.1809 12.8935 23.2139 12.8569 23.2346 12.8134L23.5467 12.1653L23.5606 12.1363L23.5291 12.1099L22.0847 10.8872L22.0234 10.8352L21.9961 10.8918L21.9352 11.019C21.926 11.0351 21.9122 11.0482 21.8955 11.0565C21.8788 11.0648 21.8601 11.0679 21.8416 11.0656L21.9588 10.8213L22.1546 10.4135C22.5021 10.3961 22.8561 10.3794 23.1988 10.3632C23.5357 10.3471 23.8835 10.3307 24.2255 10.3137L24.2493 10.2643C23.5386 10.2995 22.8224 10.332 22.1118 10.3671L21.9058 10.7958L21.7642 11.0906C21.8548 11.1345 21.955 11.1126 21.9882 11.0442L22.0491 10.9173L23.4927 12.1391L23.1812 12.7873C23.1636 12.8245 23.1357 12.8558 23.1005 12.8773C23.0156 12.9294 22.8488 12.9592 22.587 12.7051C22.3252 12.451 21.4499 11.7258 20.2349 10.7064L20.358 10.4501C20.3769 10.4106 20.3503 10.3585 20.2987 10.3337L20.1527 10.6375L20.0927 10.7625L20.0626 10.8251C20.0663 10.8286 20.1125 10.8767 20.0987 10.93C20.0986 10.9305 20.0986 10.9311 20.0987 10.9316C20.0978 10.9347 20.0966 10.9377 20.0951 10.9406C20.0756 10.9814 20.0094 10.9887 19.9593 10.954C19.9256 10.9307 19.8946 10.9038 19.8667 10.8738C19.8041 10.8055 19.7852 10.7201 19.8171 10.6542C19.8171 10.6531 19.8182 10.652 19.8188 10.6507C19.9615 10.3719 20.0784 10.1468 20.2211 9.8681L20.7594 10.3366L20.8111 10.2287L20.273 9.76026L20.2987 9.70667L20.837 10.1752L20.8775 10.0908L20.3196 9.60279C20.2048 9.52921 20.054 9.54348 20.0041 9.641C19.9707 9.70557 19.9376 9.77096 19.9048 9.83714L19.5399 10.5964C19.4711 10.4941 19.4568 10.3801 19.5012 10.2876L19.5654 10.1538L19.2405 9.849C19.1044 9.73017 19.0547 9.56633 19.1158 9.43894L19.7439 8.13255L19.8538 7.90523C20.1083 7.37547 20.8493 7.17868 21.5635 7.46311L21.5941 7.47541C21.7035 7.52103 21.809 7.57576 21.9093 7.63903C22.529 8.02976 22.8004 8.69657 22.5571 9.20327L22.3817 9.53558L24.6759 9.37722L24.7001 9.32671L24.6599 9.32956L23.3256 9.42181L22.4771 9.48023L22.609 9.22963C22.7314 8.97463 22.7314 8.67 22.609 8.37195C22.4865 8.07391 22.2465 7.80091 21.9357 7.60323C21.8316 7.53761 21.7222 7.48081 21.6086 7.43346ZM20.287 9.63529L20.3435 9.68449L20.3345 9.67658L20.2862 9.63463L20.287 9.63529Z" fill="white"/>
<path d="M21.1113 10.1681C21.1298 10.1293 21.1475 10.0922 21.1645 10.0567C21.2085 9.96479 21.2476 9.88421 21.2819 9.81487L21.1306 9.68298L20.9609 10.0365L21.1113 10.1681ZM21.0275 10.0334L21.1559 9.76585L21.215 9.81751C21.1812 9.88654 21.1465 9.95842 21.1115 10.0314L21.0851 10.0846L21.0275 10.0334Z" fill="white"/>
<path d="M21.3842 8.86658C21.3957 8.89421 21.4041 8.92303 21.4093 8.95253C21.4205 9.01957 21.4113 9.07826 21.3653 9.19433C21.3517 9.22862 21.335 9.26753 21.3148 9.31017C21.2976 9.34534 21.2783 9.38313 21.2559 9.4227L21.408 9.55459C21.4616 9.43237 21.4959 9.30883 21.4739 9.14726C21.4596 9.04942 21.4293 8.95457 21.3842 8.86658ZM21.379 9.47018L21.3233 9.42162C21.3385 9.39348 21.3532 9.36488 21.3673 9.33609C21.3858 9.29762 21.4031 9.25785 21.419 9.21829L21.4236 9.20664C21.4273 9.29692 21.4121 9.387 21.379 9.47108V9.47018Z" fill="white"/>
<path d="M21.3088 9.19163C21.3484 9.08985 21.368 9.03776 21.3607 8.96346C21.3554 8.90828 21.3455 8.80519 21.2539 8.73616C21.1422 8.65197 20.9901 8.67901 20.962 8.68407C20.9101 8.69295 20.8611 8.71442 20.8195 8.74663C20.7778 8.77881 20.7447 8.82073 20.723 8.86872C20.7121 8.89129 20.7035 8.91494 20.6975 8.93928L21.2141 9.38903C21.2301 9.36111 21.2477 9.3288 21.2653 9.29209C21.28 9.26241 21.2948 9.22812 21.3088 9.19163ZM20.7593 8.9329C20.7637 8.91971 20.7689 8.90679 20.7749 8.89421C20.7936 8.85205 20.8223 8.81512 20.8586 8.78664C20.8949 8.75817 20.9376 8.73902 20.9831 8.73089C21.0286 8.72276 21.1429 8.71023 21.2205 8.7687C21.2904 8.82145 21.2985 8.90652 21.3033 8.9573C21.3095 9.02127 21.2937 9.06567 21.2537 9.16855C21.2409 9.20174 21.2266 9.23449 21.2112 9.26681C21.2044 9.28066 21.1976 9.2945 21.1903 9.30835L20.7593 8.9329Z" fill="white"/>
<path d="M20.6529 9.02734L20.6143 9.10824L21.1321 9.5593L21.1708 9.47885L20.6529 9.02734Z" fill="white"/>
<path d="M21.3644 9.64617L21.2105 9.51318L21.1727 9.59364L21.3246 9.72553L21.342 9.69058L21.3644 9.64617Z" fill="white"/>
<path d="M15.754 9.18044C15.7122 8.47893 15.839 7.81475 16.1312 7.20636L14.4386 6.39503L14.4346 6.40294C14.0513 7.20065 13.9009 8.06294 13.9565 8.93818L15.754 9.18044Z" fill="#F7FAF6"/>
<path d="M16.71 4.0786L17.8286 5.34654C18.4661 5.00194 19.1994 4.78955 20.0048 4.71532L19.4781 3.27979C18.4646 3.37203 17.5211 3.64306 16.71 4.0786Z" fill="white"/>
<path d="M24.088 5.50064C24.5417 5.71818 24.9752 5.97542 25.3836 6.26936L26.319 5.25904C25.4199 4.61252 24.4274 4.10675 23.3758 3.75916L23.0654 5.08882C23.4147 5.20424 23.7563 5.34178 24.088 5.50064Z" fill="white"/>
<path d="M28.9503 8.1084L27.4512 8.50923C27.8515 9.198 28.0937 9.90633 28.1713 10.6149L29.8676 10.784C29.7681 9.88151 29.4524 8.9709 28.9503 8.1084Z" fill="white"/>
<path d="M28.1489 15.3302L28.1762 15.2944C28.1947 15.2707 28.2131 15.2468 28.2312 15.2226L29.263 13.8723L27.464 15.7214L27.508 16.0032C27.7416 15.7987 27.9562 15.5735 28.1489 15.3302Z" fill="#EDE8E8"/>
<path d="M20.708 17.3202C21.877 17.5904 23.0321 17.6414 24.0972 17.4891L24.1343 16.7276L20.9793 16.3851L20.708 17.3202Z" fill="#EDE8E8"/>
<path d="M14.4553 13.1108C15.0504 14.0113 15.8516 14.8459 16.8243 15.5501L17.3226 14.5782L15.1348 12.2643L14.4553 13.1108Z" fill="#EDE8E8"/>
<path d="M14.4357 6.40295L14.0332 6.71264C13.9262 6.87941 13.8293 7.0525 13.7433 7.23098C13.3814 7.98432 13.2271 8.79521 13.2577 9.62016L13.9569 8.93819L14.4357 6.40295Z" fill="#EDE8E8"/>
<path d="M27.4646 15.7215C28.215 15.255 28.8336 14.6348 29.2636 13.8724L27.6914 13.0409C27.3597 13.6267 26.884 14.1142 26.2773 14.4905L27.4646 15.7215Z" fill="white"/>
<path d="M20.9795 16.3849C22.0548 16.6814 23.126 16.7912 24.1345 16.7273L23.6866 15.3179C22.8719 15.3618 22.0359 15.2643 21.2026 15.0264L20.9795 16.3849Z" fill="white"/>
<path d="M17.3226 14.5782L18.3441 13.5854C17.6627 13.0583 17.0936 12.4475 16.6555 11.7708L15.1348 12.2643C15.6913 13.1106 16.4304 13.9004 17.3226 14.5782Z" fill="white"/>
<path d="M15.754 9.18044C15.7122 8.47893 15.839 7.81475 16.1312 7.20636L14.4386 6.39503L14.4346 6.40294C14.0513 7.20065 13.9009 8.06294 13.9565 8.93818L15.754 9.18044Z" fill="white"/>
<path d="M7.23592 10.0087H7.03809V10.0746H7.23592V10.0087Z" fill="#FF922E"/>
</g>
<defs>
<linearGradient id="paint0_linear_74_24204" x1="4.20456" y1="10.5022" x2="12.5556" y2="13.2579" gradientUnits="userSpaceOnUse">
<stop stop-color="#D86C1A"/>
<stop offset="1" stop-color="#E87E25"/>
</linearGradient>
<linearGradient id="paint1_linear_74_24204" x1="11.3086" y1="9.79553" x2="10.008" y2="14.9257" gradientUnits="userSpaceOnUse">
<stop stop-color="#FF922E"/>
<stop offset="1" stop-color="#FFC239"/>
</linearGradient>
<linearGradient id="paint2_linear_74_24204" x1="4.97456" y1="7.93885" x2="13.3258" y2="10.6946" gradientUnits="userSpaceOnUse">
<stop stop-color="#D86C1A"/>
<stop offset="1" stop-color="#E87E25"/>
</linearGradient>
<linearGradient id="paint3_linear_74_24204" x1="12.0787" y1="7.2321" x2="10.7782" y2="12.3622" gradientUnits="userSpaceOnUse">
<stop stop-color="#FF922E"/>
<stop offset="1" stop-color="#FFC239"/>
</linearGradient>
<linearGradient id="paint4_linear_74_24204" x1="13.2541" y1="10.8226" x2="29.2632" y2="10.8226" gradientUnits="userSpaceOnUse">
<stop stop-color="#D86C1A"/>
<stop offset="1" stop-color="#E87E25"/>
</linearGradient>
<clipPath id="clip0_74_24204">
<rect width="32" height="18.625" fill="white" transform="translate(0 0.6875)"/>
</clipPath>
</defs>
</svg>
