<svg width="32" height="20" viewBox="0 0 32 20" fill="none" xmlns="http://www.w3.org/2000/svg">
<g clip-path="url(#clip0_68_38559)">
<path d="M20.0119 10.9208L18.6016 10.9327C16.8679 9.98211 13.7075 9.34583 10.0957 9.34583C6.30339 9.34583 3.00875 10.0473 1.34077 11.0776L0.179688 11.0873V12.6028C0.179688 12.6061 0.179688 12.6094 0.179688 12.6129C0.179688 14.4167 4.62002 15.8791 10.0957 15.8791C15.5714 15.8791 20.0119 14.4167 20.0119 12.6129C20.0119 12.6094 20.0119 12.6061 20.0119 12.6028V10.9208Z" fill="url(#paint0_linear_68_38559)"/>
<path d="M10.0957 14.2834C15.5722 14.2834 20.0117 12.821 20.0117 11.017C20.0117 9.21302 15.5722 7.75061 10.0957 7.75061C4.61923 7.75061 0.179688 9.21302 0.179688 11.017C0.179688 12.821 4.61923 14.2834 10.0957 14.2834Z" fill="#FF922E"/>
<path d="M10.0964 13.0239C13.4612 13.0239 16.1889 12.1254 16.1889 11.0171C16.1889 9.90871 13.4612 9.01025 10.0964 9.01025C6.73161 9.01025 4.00391 9.90871 4.00391 11.0171C4.00391 12.1254 6.73161 13.0239 10.0964 13.0239Z" fill="white"/>
<path d="M10.1025 8.95439H9.82007C9.60026 8.95747 9.38389 8.96436 9.17095 8.97504L9.23997 9.12725C9.52332 9.11341 9.8137 9.10638 10.1025 9.10638V8.95264V8.95439ZM8.26002 9.0451L8.23804 9.04752H8.23123H8.22705H8.22441H8.22046H8.21738H8.21364H8.21056H8.20661H8.20375H8.19979H8.18485H8.18221H8.15165H8.14902H8.1378H8.13517H8.12725H8.12484H8.12176H8.11582H8.11275H8.10967H8.10659H8.10022H8.09384H8.08637H8.08307H8.07999H8.0767H8.07186H8.06856H8.06548H8.06219H8.05537H8.04856H8.04174H8.03515H8.02834C7.80911 9.08793 7.59646 9.12426 7.39042 9.15646L7.5931 9.29527C7.85226 9.25419 8.12286 9.21927 8.39741 9.1916L8.26024 9.04422L8.26002 9.0451ZM6.58105 9.3102C6.332 9.36621 6.09591 9.42771 5.87434 9.49447L5.86906 9.49623L5.86378 9.49777H5.86137H5.85917H5.85675H5.85477H5.85257L6.16999 9.61066C6.38124 9.54631 6.60963 9.48679 6.84659 9.43342L6.58281 9.30603L6.58105 9.3102ZM5.21334 9.72751C5.03188 9.80091 4.85523 9.88562 4.68446 9.98118L5.0887 10.0585C5.24678 9.9702 5.41021 9.89177 5.57802 9.82371L5.21422 9.72707L5.21334 9.72751ZM4.27648 10.2579C4.19079 10.3278 4.11242 10.4062 4.04259 10.4918C4.04193 10.4926 4.04134 10.4934 4.04083 10.4943C4.04037 10.4951 4.03977 10.4958 4.03907 10.4964L4.03731 10.4986L4.03577 10.5008L4.03402 10.503L4.03226 10.5052L4.0305 10.5074V10.5085V10.5096V10.5107V10.5118V10.5131C4.03054 10.5137 4.03054 10.5142 4.0305 10.5147L4.02896 10.5171L4.0261 10.521L4.48157 10.5557C4.55485 10.4543 4.64126 10.3629 4.73853 10.2841L4.30395 10.2274L4.27648 10.2579ZM3.85728 10.8558C3.85071 10.8833 3.84585 10.9113 3.84277 10.9394C3.84277 10.9394 3.84277 10.941 3.84277 10.9419V10.9443V10.9467V10.9482V10.9496V10.9531V10.9564V10.9862V10.9886V10.9897V10.9908V10.9933V10.997V10.9994V11.0005V11.0016V11.004V11.0051V11.0062V11.0086V11.0097V11.0108V11.0119V11.0152V11.0163V11.0174V11.0185V11.0196V11.0207V11.0229V11.024V11.0262C3.84277 11.0262 3.84277 11.0286 3.84277 11.0297V11.0319C3.84409 11.0572 3.84673 11.0823 3.85069 11.1073C3.85056 11.108 3.85056 11.1087 3.85069 11.1094V11.1105V11.1125V11.1176V11.1198C3.85201 11.1268 3.85332 11.1336 3.85486 11.1406L4.3211 11.1299C4.30092 11.0356 4.30204 10.9381 4.3244 10.8443L3.85838 10.8325L3.85728 10.8558ZM4.44486 11.4341L3.98851 11.4677C4.03406 11.5342 4.08556 11.5965 4.14239 11.6537L4.14458 11.6559L4.14678 11.6581L4.14898 11.6605H4.15008V11.6616L4.15118 11.6627H4.15228H4.15338L4.15448 11.6638V11.6649V11.666H4.15557L4.15667 11.6671L4.15887 11.6691L4.16107 11.6711L4.16327 11.6732L4.16547 11.6754C4.16718 11.6768 4.16879 11.6783 4.1703 11.6798C4.18965 11.6976 4.20965 11.7154 4.23031 11.733L4.66643 11.6774C4.58306 11.6055 4.50865 11.5238 4.44486 11.4341ZM5.06694 11.9634L4.66116 12.0398L4.68666 12.0545L4.69039 12.0565L4.69369 12.0583H4.69523H4.69677H4.69831H4.69963H4.70072H4.70204H4.70336H4.70468H4.70622H4.7082L4.7115 12.06L4.71479 12.0618C4.80169 12.1095 4.89394 12.1558 4.99154 12.2006L4.99572 12.2026L4.99968 12.2043H5.0021H5.00341H5.00561H5.00693H5.00891L5.01243 12.2059H5.01397H5.01506H5.01638H5.01748H5.01858H5.0199H5.02122H5.02254H5.0243H5.02584H5.02759H5.02913H5.03111L5.03507 12.2076L5.03924 12.2094L5.04364 12.2111C5.08116 12.2281 5.11954 12.2447 5.15883 12.2608L5.5257 12.1654C5.3597 12.097 5.19817 12.0181 5.0421 11.9293L5.06694 11.9634ZM6.1357 12.4092L5.81564 12.5215L5.89874 12.5467L5.90401 12.5483L5.90929 12.5498H5.9117H5.91412H5.91676H5.91918H5.9216L5.92643 12.5511H5.92885H5.93127H5.93347H5.93566H5.93808H5.94006H5.94226H5.94446H5.94687H5.94907H5.95083H5.95303H5.95501H5.95721H5.95875H5.96094H5.9627H5.96468H5.96578H5.96732H5.96864H5.97018H5.97127H5.97325H5.97457H5.97567H5.97765H5.97875H5.98007H5.98117H5.98315H5.98424H5.98556H5.98688H5.98864H5.99018H5.99172H5.99304H5.99436H5.99567H5.99743H5.99853H5.99963H6.00161H6.00271H6.00403H6.00513H6.00711H6.0093H6.01128H6.01238H6.01392H6.01612H6.01766H6.02007H6.02139H6.02249H6.02469H6.02689H6.02909H6.03172H6.03326H6.0359H6.03744H6.03986H6.0414H6.04425L6.04887 12.5524L6.05393 12.5538H6.05678H6.05832H6.0614H6.06294H6.0658L6.07063 12.5551L6.07569 12.5564H6.07855H6.08009H6.08316H6.0847H6.08756L6.09261 12.5579L6.09767 12.5593H6.10075H6.10251H6.1058H6.10756H6.11108L6.11636 12.5608L6.12163 12.5623L6.12691 12.5636L6.13592 12.5661L6.14119 12.5674L6.14647 12.5689L6.15175 12.5702L6.16076 12.5727L6.16603 12.5742L6.17131 12.5755L6.17659 12.5768L6.1856 12.5792L6.19109 12.5808L6.19659 12.5821L6.20186 12.5836L6.20736 12.585H6.21088L6.21615 12.5863L6.22165 12.5876L6.22692 12.5889H6.23022H6.23198H6.23528H6.23704H6.24055L6.24583 12.5902L6.25088 12.5915H6.25396H6.25572H6.25858H6.26034H6.26363L6.26869 12.5929L6.27375 12.5942H6.27704H6.27968H6.28232H6.28386H6.28671H6.28957H6.29243L6.29727 12.5955H6.29968H6.30122H6.30364H6.30518H6.30628H6.30848H6.35728H6.35859H6.36079H6.36189H6.36343H6.36519H6.36761H6.36981H6.37134H6.37376H6.37486H6.37618H6.37838H6.3808H6.38234H6.38409H6.38541H6.38651H6.38871H6.39003H6.39135H6.39333H6.39465H6.40124H6.40278H6.40454H6.40564H6.40739H6.40871H6.41025H6.41135H6.41377H6.41553H6.41773H6.41948H6.42168H6.42278H6.42454H6.42674H6.42784H6.4296H6.43157H6.43399H6.43597H6.43839H6.44037H6.44279H6.44476H6.44718H6.4496H6.45224H6.45488H6.45729H6.45993H6.46235H6.46521H6.46784H6.47048L6.47598 12.5968H6.47862H6.48125H6.48389H6.48675H6.48939L6.4951 12.5981L6.50082 12.5994L6.50653 12.6008L6.52456 12.6049L6.79054 12.4782C6.55423 12.4244 6.32782 12.3642 6.11811 12.2992L6.1357 12.4092ZM7.55309 12.7321L7.34646 12.8707C7.38954 12.8777 7.43285 12.8845 7.47637 12.8911H7.48275H7.48868H7.4944H7.49725H7.50099H7.50363H7.5144H7.51638H7.52583H7.52847H7.53045H7.53792H7.54078H7.54298H7.54583H7.54935H7.55243H7.55529H7.55836L7.56452 12.8922H7.57089H7.57727C7.78155 12.9215 7.99141 12.9475 8.20683 12.9702L8.34751 12.8233C8.07362 12.7949 7.8039 12.7593 7.54561 12.7176L7.55309 12.7321ZM9.19623 12.903L9.12369 13.055H9.17557H9.18238H9.20722H9.2292C9.49914 13.0673 9.77501 13.0741 10.0548 13.0747L10.0584 12.921C9.76952 12.921 9.47958 12.9124 9.19645 12.8979L9.19623 12.903ZM11.7648 12.8468C11.4896 12.874 11.2056 12.8944 10.9207 12.9076L10.9867 13.06L11.0757 13.0558H11.0827H11.0897H11.2625H11.2693H11.2762H11.283H11.29C11.4965 13.0428 11.6991 13.0265 11.8978 13.0069L11.7648 12.8468ZM13.3235 12.6052C13.0844 12.6579 12.8314 12.7051 12.5715 12.7455L12.7709 12.8848C12.9242 12.861 13.0738 12.8353 13.2198 12.8077L13.2418 12.8033L13.2477 12.8022L13.2536 12.8011L13.2596 12.8H13.2633H13.2657H13.2692H13.2712H13.2747H13.2802L13.2857 12.7989H13.2888H13.2919H13.2947H13.2963H13.3035H13.306H13.3086H13.3101H13.3134H13.3147H13.3169H13.3209H13.3231H13.3244H13.3257H13.3271H13.3293H13.3321H13.3334H13.3367H13.3385H13.34H13.3418H13.344H13.346H13.3484H13.3519H13.3545H13.3565H13.3589H13.3611H13.3638H13.366H13.3684H13.371H13.3737H13.3763H13.3785H13.3811H13.3833H13.386H13.3884H13.391H13.3965H13.3994H13.4022H13.4051H13.408H13.4108H13.4137H13.4165L13.4225 12.7978L13.4282 12.7967L13.4341 12.7956L13.44 12.7943C13.4831 12.7853 13.5258 12.7762 13.568 12.7668L13.3255 12.6047L13.3235 12.6052ZM14.5985 12.2226C14.4169 12.2961 14.2169 12.3658 14.005 12.4294L14.3198 12.5434C14.5503 12.4743 14.7649 12.3996 14.9618 12.3199L14.6005 12.2221L14.5985 12.2226ZM15.4778 11.7339C15.3575 11.8299 15.2292 11.9152 15.0942 11.9891L15.4964 12.0675C15.5202 12.0543 15.5435 12.0411 15.5661 12.0277L15.5683 12.0264H15.5694L15.5712 12.0253H15.5725H15.5736H15.5749H15.5762H15.5776H15.5789H15.5804H15.5817H15.5833H15.5846H15.5861H15.5875H15.5892H15.5907L15.5925 12.0242L15.5958 12.022L15.5991 12.0201C15.6557 11.9857 15.7094 11.9506 15.7602 11.9148L15.7633 11.9126L15.7664 11.9105L15.7695 11.9083L15.7723 11.9063H15.7736H15.7752L15.7765 11.9052H15.7778H15.7789H15.7802H15.7813H15.7826H15.7837H15.7851H15.7864H15.7877L15.7901 11.9032L15.7928 11.9012L15.7954 11.8993C15.8202 11.8806 15.8442 11.8619 15.8675 11.843L15.4342 11.785L15.4778 11.7339ZM15.8783 11.1819C15.8506 11.2834 15.8039 11.3787 15.7409 11.4628L16.1957 11.4986C16.2182 11.4678 16.239 11.4357 16.2581 11.4027L16.2594 11.4005V11.3991V11.3978V11.3967V11.3954V11.3943V11.3928V11.3917V11.3906V11.3895V11.3873C16.2594 11.3866 16.2594 11.3858 16.2594 11.3851L16.2608 11.3829C16.2608 11.3829 16.2608 11.3814 16.2608 11.3807L16.2621 11.3785C16.2872 11.3294 16.3073 11.2779 16.3221 11.2248V11.2237V11.2223V11.2212V11.2201L15.8563 11.2072L15.8783 11.1819ZM16.2271 10.5819L15.7701 10.6142C15.8274 10.6997 15.8675 10.7955 15.8879 10.8964L16.3546 10.8872C16.3507 10.8652 16.3456 10.845 16.3399 10.8241V10.8217V10.8193V10.8182V10.8171V10.816V10.8149V10.8138V10.8127V10.8116V10.8092V10.7872V10.7861V10.785V10.7837V10.7824V10.7809V10.7793V10.7778V10.7754C16.34 10.7746 16.34 10.7738 16.3399 10.773V10.7706V10.7681C16.3398 10.7673 16.3398 10.7665 16.3399 10.7657V10.7633C16.3165 10.704 16.287 10.6474 16.252 10.5942L16.2271 10.5819ZM15.5677 10.0086L15.1601 10.084C15.2896 10.1587 15.412 10.2451 15.5257 10.342L15.9633 10.2867L15.9326 10.2606L15.931 10.2592L15.9295 10.2579L15.9279 10.2568L15.9266 10.2557V10.2546L15.9253 10.2535V10.2524L15.924 10.2513H15.9227H15.9214L15.9187 10.2494L15.9161 10.2472C15.8061 10.159 15.6896 10.0793 15.5677 10.0086ZM14.4246 9.52413L14.1021 9.63526C14.3105 9.70115 14.5055 9.77187 14.6822 9.84655L15.0511 9.75211C14.9645 9.71543 14.8739 9.67963 14.7801 9.64492L14.7752 9.64317L14.7706 9.64163L14.766 9.64009H14.7636H14.7616H14.7596H14.7581H14.7561H14.7546H14.7526H14.7506H14.7488H14.7469H14.7455H14.7438H14.7425H14.7407H14.7396H14.7381H14.7368H14.7348H14.7335H14.7313L14.7269 9.63856L14.7225 9.63702L14.7196 9.63592H14.7181H14.7152L14.7106 9.63438L14.706 9.63262C14.62 9.60232 14.5314 9.57304 14.4404 9.54477L14.4246 9.52413ZM12.9006 9.17117L12.6916 9.30888C12.9483 9.35105 13.1971 9.40025 13.4337 9.45472L13.7027 9.32777C13.5757 9.29849 13.4453 9.2706 13.3115 9.24409L13.3053 9.24277H13.2991L13.2772 9.23838H13.2708L13.2646 9.23706H13.2616L13.249 9.23465H13.2426L13.2365 9.23333L13.2145 9.22916L13.2084 9.22806L13.2022 9.22674L13.1958 9.22564L13.1864 9.22389L13.1802 9.22257L13.1716 9.21795L13.1655 9.21686L13.1593 9.21554L13.1499 9.21378L13.1435 9.21268L13.1371 9.21159L13.131 9.21049H13.1248L13.1185 9.20939H13.1154H13.1092H13.1031L13.0969 9.20829L13.0905 9.20719L13.0842 9.2061H13.0811L13.0747 9.205L13.0686 9.2039L13.0624 9.2028H13.0595H13.0565H13.0536H13.0507H13.0479H13.045H13.042L13.036 9.2017H13.0303H13.0274H13.0248H13.0219H13.0195H13.0169H13.0147H13.0121H13.0096H13.0072H13.0044H13.0019H12.9991H12.9969H12.9943H12.9923H12.9896H12.9885H12.9866H12.9841H12.9819H12.9775H12.9753H12.9518H12.9494H12.9452H12.943H12.9386H12.9364H12.9338H12.9316H12.9274H12.9246H12.9228H12.9197H12.918H12.9142L12.9083 9.2006H12.9035L12.9006 9.17117ZM11.1284 8.98185L11.0526 9.13384C11.3364 9.14921 11.6188 9.17183 11.8921 9.20104L12.0363 9.05455C11.9761 9.04796 11.9156 9.04203 11.8545 9.0361H11.8479H11.8415H11.8384H11.7868H11.7835H11.78H11.7732H11.7663H11.7595C11.5535 9.01765 11.3436 9.00258 11.1298 8.99085L11.1284 8.98185Z" fill="#FF922E"/>
<path d="M10.0965 8.69769C11.0133 8.69536 11.9291 8.75629 12.8374 8.87999C13.6758 8.99683 14.4289 9.16397 15.0756 9.37702C15.7223 9.59006 16.2299 9.83825 16.5847 10.1143C16.9518 10.3999 17.138 10.704 17.138 11.017C17.138 11.33 16.9527 11.634 16.5847 11.9195C16.2299 12.1956 15.7223 12.4438 15.0756 12.6566C14.4289 12.8694 13.6758 13.037 12.8374 13.1539C11.9291 13.2774 11.0133 13.3382 10.0965 13.3359C9.17986 13.3382 8.26411 13.2774 7.35582 13.1539C6.51744 13.037 5.76434 12.8696 5.11763 12.6566C4.47093 12.4436 3.96315 12.196 3.60968 11.9195C3.24258 11.634 3.0564 11.3298 3.0564 11.0166C3.0564 10.7034 3.24258 10.3999 3.60968 10.1139C3.96425 9.83759 4.47203 9.58962 5.11873 9.37658C5.76544 9.16353 6.51854 8.99639 7.35692 8.87955C8.26519 8.75585 9.18093 8.69494 10.0976 8.69725M10.0976 8.65881C6.1444 8.65881 2.93945 9.71438 2.93945 11.0166C2.93945 12.3188 6.14331 13.375 10.0965 13.375C14.0497 13.375 17.2549 12.3192 17.2549 11.017C17.2549 9.71482 14.0511 8.65925 10.0965 8.65925L10.0976 8.65881Z" fill="#F7FAF6"/>
<path d="M10.0966 8.83953C10.9572 8.83736 11.817 8.89453 12.6698 9.01063C13.4569 9.12045 14.1645 9.27727 14.771 9.47735C15.3775 9.67744 15.8549 9.91025 16.1877 10.1694C16.5326 10.4378 16.7074 10.7231 16.7074 11.017C16.7074 11.3109 16.5315 11.5962 16.1877 11.8646C15.8549 12.1239 15.3781 12.3567 14.771 12.5568C14.1639 12.7569 13.4576 12.9137 12.6698 13.0235C11.817 13.1396 10.9572 13.1968 10.0966 13.1947C9.23634 13.1968 8.37703 13.1396 7.52468 13.0235C6.73751 12.9137 6.02992 12.7567 5.42322 12.5568C4.81652 12.357 4.33842 12.1239 4.00539 11.8646C3.66072 11.5962 3.48596 11.3111 3.48596 11.017C3.48596 10.7229 3.66072 10.4378 4.00539 10.1694C4.33842 9.91025 4.81498 9.67722 5.42212 9.47735C6.02926 9.27749 6.73642 9.12023 7.52359 9.01063C8.37628 8.89453 9.23599 8.83736 10.0966 8.83953ZM10.0966 8.8011C6.38163 8.8011 3.37012 9.79319 3.37012 11.017C3.37012 12.2408 6.38163 13.2331 10.0977 13.2331C13.8137 13.2331 16.8254 12.241 16.8254 11.017C16.8254 9.79297 13.8122 8.80066 10.0966 8.80066V8.8011Z" fill="#F7FAF6"/>
<path d="M13.3806 11.8519C13.3107 11.8426 13.2395 11.855 13.1769 11.8874H12.1705L12.0283 12.0181C11.9969 12.0469 11.9138 12.0662 11.8208 12.0662L12.0153 11.8885H11.8681L11.7263 12.0179C11.6946 12.0467 11.6115 12.066 11.5185 12.066L11.7129 11.8885H11.5667L11.4251 12.0177C11.3935 12.0465 11.3104 12.0658 11.2174 12.0658L11.4115 11.8888H10.3262H9.58392C9.61118 11.8545 9.70526 11.8306 9.81275 11.8306H10.375L11.237 10.8308H9.71757C9.3219 11.2463 8.92622 11.7155 8.53055 12.1418C8.4646 12.2138 8.62573 12.3023 8.85412 12.303C10.255 12.3083 11.6557 12.2979 13.0566 12.303C13.1366 12.303 13.2072 12.2859 13.2281 12.2604L13.5028 11.9272C13.529 11.8956 13.4765 11.8615 13.3806 11.8519Z" fill="#FF922E"/>
<path d="M12.1818 9.73157V9.73047H10.627C10.4815 9.73047 10.3632 9.76938 10.3632 9.8184H11.1365C11.1005 9.85049 11.009 9.87225 10.9051 9.87313L10.6085 9.87621C10.4749 10.0192 10.3414 10.1625 10.208 10.306H11.6894L12.109 9.81796H12.1499C12.2176 9.81796 12.2776 9.80169 12.2851 9.77949C12.2925 9.75729 12.2459 9.73618 12.1818 9.73157Z" fill="url(#paint1_linear_68_38559)"/>
<path d="M13.425 10.4699C13.425 10.4655 13.423 10.4614 13.4217 10.457C13.3397 10.1554 12.5611 9.92612 11.6412 9.92612H8.98074C8.7596 9.92612 8.56308 9.9718 8.48659 10.0401L8.27732 10.207H8.04519C7.88494 10.207 7.73371 10.2316 7.63611 10.2729H8.95348L9.2975 10.2747C9.46873 10.2758 9.59073 10.327 9.5648 10.3801L9.25397 10.661H9.10757L9.40389 10.3904H9.31091L9.01459 10.6623H8.82731L9.12406 10.3917C8.6343 10.3887 8.23775 10.3854 7.74822 10.3823C7.63017 10.3823 7.52092 10.4029 7.46619 10.4372C7.44621 10.4488 7.42895 10.4646 7.41563 10.4835C7.39936 10.5088 7.46355 10.5325 7.54137 10.5292H7.54401C7.62886 10.5251 7.66535 10.5005 7.66798 10.4987H8.52044C8.52044 10.5207 8.46482 10.5396 8.39646 10.5396H7.95089C7.33364 11.1438 6.90126 11.5791 6.72166 11.7137C6.54207 11.8484 6.69529 11.9039 6.82586 11.925C6.88593 11.9343 6.94665 11.9388 7.00743 11.9384H8.13202L8.8794 11.2184H8.65958C8.53978 11.2184 8.44262 11.1866 8.44262 11.1471H9.69823C10.2304 11.3937 10.7626 11.643 11.2948 11.8899C11.8063 11.8899 12.3176 11.8872 12.8291 11.8872L11.0538 11.1009L11.6405 11.1062C12.5198 11.1062 13.2764 10.8965 13.4083 10.6103C13.4292 10.5666 13.4351 10.5173 13.425 10.4699ZM8.90864 10.759H8.73652L8.82049 10.6825H8.99217L8.90864 10.759ZM9.14736 10.759H9.01679L9.1001 10.683H9.23067L9.14736 10.759ZM9.91672 10.759C9.74922 10.759 9.54479 10.759 9.30343 10.759L9.38718 10.6834H10L9.91672 10.759ZM9.40982 10.6626L9.69823 10.4001C9.94706 10.4012 10.1535 10.4016 10.3058 10.4018L10.02 10.6623L9.40982 10.6626ZM10.2104 10.7596H10.0713L10.155 10.6834H10.2944L10.2104 10.7596ZM10.1774 10.6626L10.4632 10.4021H10.6026L10.3168 10.6623L10.1774 10.6626ZM10.9848 10.7135C10.7801 10.7453 10.5731 10.7607 10.3658 10.7594L10.4496 10.683C10.6061 10.6856 10.7402 10.6847 10.8452 10.683C11.0413 10.6795 11.131 10.6729 11.2172 10.6573C11.2523 10.6513 11.2871 10.6434 11.3214 10.6338C11.2111 10.6688 11.0983 10.6954 10.9839 10.7133L10.9848 10.7135ZM11.4187 10.5655C11.3834 10.6094 11.2449 10.6314 11.1708 10.6421C11.0712 10.6573 10.9842 10.6593 10.8142 10.6626C10.6802 10.6652 10.5639 10.6643 10.4718 10.6626L10.7562 10.4029C10.7947 10.4007 11.1011 10.3854 11.2948 10.4532C11.32 10.462 11.4609 10.5114 11.4179 10.5653L11.4187 10.5655Z" fill="#FF922E"/>
<path d="M10.3067 10.4018C10.1543 10.4018 9.94794 10.4018 9.6991 10.4001L9.40894 10.6625H10.0216L10.3067 10.4018ZM9.50918 10.6392L9.7479 10.4234L10.2071 10.4247L9.97212 10.6392H9.50918Z" fill="white"/>
<path d="M9.01745 10.7588L9.14736 10.7586L9.23133 10.6827H9.10054L9.01745 10.7588Z" fill="white"/>
<path d="M8.73652 10.7593H8.90864L8.99217 10.683H8.82049L8.73652 10.7593ZM8.86973 10.7058H8.89171L8.85874 10.736H8.83676L8.86973 10.7058Z" fill="white"/>
<path d="M13.4949 10.4699C13.4941 10.4654 13.493 10.4609 13.4916 10.4565C13.4505 10.3052 13.2377 10.1653 12.8928 10.0629C12.5479 9.96058 12.105 9.90457 11.6419 9.90457H8.98073C8.73168 9.90457 8.50703 9.95641 8.4213 10.0333L8.3171 10.1163L8.2305 10.1844H8.04519C7.8645 10.1844 7.69062 10.2125 7.58049 10.2597L7.49256 10.2968H8.95238L9.29486 10.2986C9.34717 10.2977 9.39927 10.3059 9.44873 10.323C9.48126 10.3357 9.49819 10.3517 9.49709 10.368H9.26166L9.24496 10.3834L8.96535 10.639H8.92732L9.03569 10.5402L9.18956 10.3994L9.22275 10.3691H9.12494L8.43405 10.3645L7.74953 10.3601H7.74184C7.59962 10.3601 7.46992 10.3858 7.40376 10.4275C7.38094 10.4406 7.36127 10.4585 7.34617 10.48C7.33452 10.4982 7.34814 10.5169 7.38375 10.5314C7.4293 10.5472 7.47733 10.5547 7.52554 10.5534C7.53345 10.5534 7.5418 10.5534 7.54972 10.5534H7.55389C7.60571 10.5523 7.6569 10.542 7.70513 10.5231H7.89571L7.88516 10.5334C7.76558 10.6505 7.65303 10.7611 7.54752 10.865C7.11448 11.2907 6.80168 11.5982 6.65835 11.7058C6.44931 11.8624 6.65484 11.9243 6.79574 11.9474C6.86608 11.9581 6.93715 11.9633 7.0083 11.963H8.18148L8.19774 11.9474L8.94512 11.2274L8.97678 11.1969H8.65892C8.61458 11.199 8.57038 11.1904 8.53011 11.1716H9.66129C9.92046 11.292 10.1836 11.4146 10.4381 11.5332C10.6887 11.65 10.9472 11.7704 11.2022 11.8887H11.2882C10.758 11.6428 10.2278 11.3944 9.69734 11.1486H8.44196C8.44196 11.1881 8.53912 11.22 8.65892 11.22H8.87874L8.13136 11.9399H7.00743C6.94665 11.9403 6.88593 11.9358 6.82586 11.9265C6.69528 11.9046 6.54009 11.8512 6.72166 11.7152C6.90323 11.5793 7.33364 11.1453 7.95089 10.5411H8.39558C8.46394 10.5411 8.51956 10.5226 8.51956 10.5002H7.6671C7.66446 10.502 7.62797 10.5266 7.54312 10.5307H7.52576C7.45476 10.5307 7.3998 10.5088 7.41585 10.4848C7.42917 10.466 7.44642 10.4501 7.46641 10.4385C7.52026 10.4047 7.62665 10.3836 7.74228 10.3836H7.74843C8.23797 10.3867 8.63452 10.39 9.12428 10.393L8.82752 10.6636H9.01481L9.31112 10.393H9.40411L9.10779 10.6636H9.25419L9.56479 10.3821C9.59073 10.3289 9.46873 10.2777 9.29749 10.2766L8.95348 10.2749H7.63611C7.73371 10.2331 7.88494 10.209 8.04519 10.209H8.27732L8.48658 10.0421C8.5622 9.97376 8.7596 9.92807 8.98073 9.92807H11.6419C12.5611 9.92807 13.3397 10.1574 13.4224 10.4589C13.4237 10.4633 13.4248 10.4675 13.4257 10.4719C13.4353 10.5191 13.4292 10.5682 13.4081 10.6116C13.2762 10.8971 12.5194 11.1075 11.6403 11.1075L11.0536 11.1022L12.8289 11.8885H12.9168L12.8858 11.8749L11.8527 11.4174L11.1963 11.1266L11.6386 11.1306H11.6403C12.0833 11.1306 12.5128 11.0787 12.8493 10.9845C13.1859 10.8903 13.411 10.7585 13.4771 10.6149C13.4988 10.5698 13.5051 10.5189 13.4949 10.4699ZM9.49643 10.3763L9.465 10.404L9.46983 10.3994L9.49643 10.3752V10.3763Z" fill="white"/>
<path d="M9.30255 10.7583H9.49533H9.91584L9.99916 10.6823H9.3863L9.30255 10.7583ZM9.43444 10.7058H9.89826L9.86573 10.7355H9.40191L9.43444 10.7058Z" fill="white"/>
<path d="M11.3208 10.6335C11.2865 10.6432 11.2517 10.6511 11.2166 10.6571C11.1287 10.6727 11.0407 10.679 10.8447 10.6828C10.7873 10.6828 10.7211 10.6843 10.6468 10.6843C10.5855 10.6843 10.5191 10.6843 10.449 10.6828L10.3652 10.7593C10.5725 10.7606 10.7795 10.7452 10.9842 10.7133C11.0983 10.6953 11.2108 10.6686 11.3208 10.6335ZM10.4679 10.7347L10.4984 10.7065C10.5486 10.7065 10.5989 10.7076 10.6486 10.7076C10.7145 10.7076 10.7831 10.7076 10.8495 10.7059H10.8691C10.736 10.723 10.602 10.7326 10.4679 10.7347Z" fill="white"/>
<path d="M10.8134 10.6625C10.9833 10.6592 11.0703 10.6573 11.1699 10.6421C11.244 10.6307 11.3825 10.6096 11.4179 10.5654C11.4618 10.5115 11.32 10.4621 11.2939 10.453C11.166 10.4091 10.9886 10.3996 10.8718 10.3996C10.8123 10.3996 10.7683 10.4018 10.7553 10.4027L10.4709 10.6625C10.5212 10.6625 10.5786 10.6641 10.6421 10.6641C10.6951 10.6641 10.7534 10.6636 10.8134 10.6625ZM10.8068 10.4238C10.8246 10.4238 10.8468 10.4238 10.8727 10.4238C10.9826 10.4238 11.135 10.4319 11.2435 10.47C11.2858 10.4847 11.3807 10.5232 11.3508 10.5605C11.324 10.5944 11.2097 10.6118 11.1413 10.6221C11.0552 10.6353 10.982 10.637 10.8101 10.6405C10.7547 10.6416 10.6984 10.6421 10.643 10.6421H10.5702L10.8068 10.4238Z" fill="white"/>
<path d="M10.601 10.4021H10.4617L10.1759 10.6628H10.3153L10.601 10.4021Z" fill="white"/>
<path d="M10.2095 10.7595L10.2935 10.6827H10.1541L10.0704 10.759H10.2095V10.7595Z" fill="white"/>
<path d="M7.07126 8.69168C8.07823 8.55405 9.0935 8.48634 10.1098 8.489V7.75085H10.0957C8.71089 7.75085 7.39396 7.84428 6.19727 8.01332L7.07126 8.69168Z" fill="#F7FAF6"/>
<path d="M14.9113 8.16138L13.8799 8.77394C14.7976 8.94174 15.5925 9.16511 16.2421 9.43767L17.9114 9.00653C17.0956 8.66302 16.0754 8.37486 14.9113 8.16138Z" fill="white"/>
<path d="M0.446289 11.8587V13.3658C0.757992 13.8005 1.33348 14.2017 2.11493 14.5501V12.9467L0.488274 11.8009C0.474206 11.82 0.460138 11.8393 0.446289 11.8587Z" fill="#EDE8E8"/>
<path d="M5.76758 15.5516C6.93262 15.7381 8.22537 15.8519 9.5911 15.8743V14.2793L5.76758 13.9564V15.5516Z" fill="#EDE8E8"/>
<path d="M14.5283 15.5347C15.7423 15.3344 16.8144 15.0546 17.6809 14.7159V13.2296L14.5283 14.0104V15.5347Z" fill="#EDE8E8"/>
<path d="M20.012 12.6123C20.012 12.6088 20.012 12.6055 20.012 12.6022V10.9209L19.8832 10.922L19.748 11.7685V13.3635C19.9195 13.1223 20.012 12.8708 20.012 12.6123Z" fill="#EDE8E8"/>
<path d="M17.8978 11.0191C17.8978 11.2187 17.8284 11.4173 17.6914 11.6092L19.7491 11.7687C19.9215 11.5271 20.0129 11.2758 20.0129 11.0173C20.0108 10.8263 19.9629 10.6386 19.8731 10.47L17.7879 10.5862C17.8587 10.7196 17.8964 10.868 17.8978 11.0191Z" fill="white"/>
<path d="M17.6809 13.2296L16.1015 12.7666C15.4012 13.0256 14.5661 13.2323 13.6193 13.3803L14.5283 14.0104C15.7333 13.8213 16.8039 13.5545 17.6809 13.2296Z" fill="white"/>
<path d="M5.76758 13.9569C6.93262 14.1438 8.22603 14.2574 9.59242 14.2801L9.70233 13.5806C8.69736 13.5666 7.69468 13.4812 6.70181 13.3252L5.76758 13.9569Z" fill="white"/>
<path d="M0.446289 11.7706C0.755793 12.2024 1.32556 12.6008 2.09734 12.9474L3.78204 12.5485C3.16852 12.2674 2.7412 11.9542 2.51259 11.6179L0.446289 11.7706Z" fill="white"/>
<path d="M0.520363 10.1666L2.6115 10.3601C2.89352 10.0284 3.37031 9.72315 4.02822 9.45234L2.30375 8.99704C1.4869 9.33835 0.872952 9.73479 0.520363 10.1666Z" fill="white"/>
<path d="M7.07126 8.69168C8.07823 8.55405 9.0935 8.48634 10.1098 8.489V7.75085H10.0957C8.71089 7.75085 7.39396 7.84428 6.19727 8.01332L7.07126 8.69168Z" fill="white"/>
<path d="M20.7819 8.35747L19.3718 8.36933C17.6381 7.41853 14.4775 6.78247 10.8648 6.78247C7.07227 6.78247 3.77763 7.48398 2.10965 8.51429L0.949448 8.52395V10.0394C0.949448 10.0427 0.949448 10.046 0.949448 10.0495C0.949448 11.8536 5.38978 13.3151 10.8659 13.3151C16.342 13.3151 20.7819 11.8536 20.7819 10.0489C20.7819 10.0454 20.7819 10.0421 20.7819 10.0388V8.35747Z" fill="url(#paint2_linear_68_38559)"/>
<path d="M10.8662 11.7201C16.3427 11.7201 20.7822 10.2576 20.7822 8.45366C20.7822 6.64967 16.3427 5.18726 10.8662 5.18726C5.38974 5.18726 0.950195 6.64967 0.950195 8.45366C0.950195 10.2576 5.38974 11.7201 10.8662 11.7201Z" fill="#FF922E"/>
<path d="M10.8659 10.4605C14.2307 10.4605 16.9584 9.56202 16.9584 8.4537C16.9584 7.34536 14.2307 6.4469 10.8659 6.4469C7.50112 6.4469 4.77341 7.34536 4.77341 8.4537C4.77341 9.56202 7.50112 10.4605 10.8659 10.4605Z" fill="white"/>
<path d="M10.8724 6.39018H10.5899C10.3701 6.39326 10.1536 6.40016 9.94057 6.41083L10.0096 6.56304C10.2932 6.5492 10.5833 6.54217 10.8724 6.54217V6.38843V6.39018ZM9.02964 6.48089L9.00766 6.48331H9.00106H8.99667H8.99403H8.99007H8.98018H8.97644H8.97314H8.96941H8.96831H8.96435H8.95424H8.9516H8.92039H8.91797H8.9072H8.90434H8.89665H8.89401H8.88522H8.88214H8.87906H8.87511H8.86895H8.86258H8.85884H8.85554H8.85224H8.84917H8.84587H8.84125H8.83774H8.83444H8.83114H8.82433H8.81751H8.8107H8.80388H8.79707C8.57916 6.50835 8.36711 6.53765 8.16092 6.57116L8.36359 6.70997C8.62275 6.6689 8.89357 6.63398 9.16812 6.6063L9.03074 6.45893L9.02964 6.48089ZM7.35067 6.74687C7.10161 6.80288 6.86553 6.86438 6.64395 6.93114L6.63867 6.9329L6.63362 6.93444H6.63098H6.62878H6.62636H6.62438H6.62219L6.9396 7.04733C7.15107 6.98298 7.37924 6.92346 7.61621 6.87009L7.35242 6.7427L7.35067 6.74687ZM5.98295 7.16418C5.80158 7.23723 5.625 7.32168 5.45429 7.41698L5.85832 7.49429C6.01639 7.40599 6.17982 7.32756 6.34763 7.2595L5.98361 7.16374L5.98295 7.16418ZM5.04609 7.69459C4.96036 7.76474 4.88199 7.84342 4.8122 7.92938L4.81044 7.9318L4.80869 7.934L4.80693 7.93619L4.80517 7.93839L4.80363 7.94058L4.80187 7.94278L4.80011 7.94476V7.94586V7.94695V7.94827V7.94981L4.79857 7.95223L4.79572 7.95618L5.25118 7.99088C5.32453 7.88945 5.41092 7.79811 5.50815 7.71919L5.07357 7.66253L5.04609 7.69459ZM4.6269 8.29244C4.62032 8.32 4.61546 8.34796 4.61239 8.37612C4.61228 8.37693 4.61228 8.37774 4.61239 8.37853V8.38095V8.38315V8.38468V8.386V8.38732V8.39062V8.42158V8.42729V8.42971V8.43081V8.43191V8.43432V8.43542V8.43652V8.43762V8.44926V8.45167V8.45277V8.45387V8.45607V8.45716V8.45826V8.45936V8.46046V8.46156V8.46375V8.46595C4.6125 8.46714 4.6125 8.4683 4.61239 8.46946V8.47166C4.61353 8.4969 4.6161 8.52207 4.62008 8.54699V8.54809C4.62008 8.54809 4.62008 8.54963 4.62008 8.55029V8.55139V8.55336V8.55842V8.56061C4.6214 8.56764 4.62272 8.57445 4.62426 8.58148L5.09071 8.57071C5.08108 8.52626 5.07623 8.48091 5.0762 8.43542C5.07629 8.38499 5.08218 8.33472 5.09379 8.28563L4.62777 8.27377L4.6269 8.29244ZM5.21425 8.87074L4.75791 8.90434C4.80345 8.97089 4.85496 9.03316 4.91178 9.09037L4.91398 9.09257L4.91618 9.09476L4.91837 9.09718V9.09828V9.09938L4.91947 9.10047L4.92057 9.10157V9.10267L4.92167 9.10377L4.92277 9.10487H4.92387V9.10596L4.92585 9.10794L4.92805 9.10992L4.93024 9.11211L4.93244 9.11431L4.93706 9.11892C4.9564 9.13671 4.97641 9.1545 4.99729 9.17207L5.43319 9.11651C5.33777 9.03742 5.25347 8.94581 5.1826 8.84416L5.21425 8.87074ZM5.83634 9.40005L5.43055 9.47649L5.45627 9.4912L5.45979 9.49318L5.4633 9.49494H5.46506H5.4666H5.46814H5.46946H5.471H5.47254H5.47364H5.47473H5.47605H5.47737L5.47957 9.49603L5.48287 9.49779L5.48617 9.49955C5.57293 9.54699 5.66516 9.59327 5.76292 9.63836L5.76709 9.64033L5.77105 9.64209L5.77347 9.64319H5.77457L5.77699 9.64429H5.77808H5.78006L5.78358 9.64583H5.78534H5.78666H5.78798H5.78929H5.79061H5.79171H5.79347H5.79479H5.79677H5.79831H5.80007L5.80402 9.64758L5.8082 9.64934L5.81238 9.6511C5.85018 9.66779 5.88843 9.68448 5.92756 9.70073L6.31994 9.63528C6.15395 9.5668 5.99243 9.48793 5.83634 9.39918V9.40005ZM6.90509 9.84591L6.58504 9.95815L6.66813 9.9834L6.6734 9.98494L6.67868 9.98648H6.68132H6.68396H6.68659H6.68901H6.69143L6.69627 9.9878H6.69868H6.7011H6.70352H6.70572H6.70814H6.71011H6.71253H6.71473H6.71715H6.71935H6.72132H6.72352H6.72528H6.72726H6.72902H6.731H6.73276H6.73473H6.73583H6.73737H6.73869H6.74023H6.74133H6.74331H6.74485H6.74594H6.74792H6.74946H6.75166H6.75298H6.75452H6.75606H6.75716H6.75869H6.76001H6.76155H6.76265H6.76419H6.76573H6.76683H6.76815H6.7699H6.77122H6.77232H6.77364H6.7754H6.77672H6.77782H6.7798H6.78112H6.78221H6.78419H6.78551H6.78771H6.78925H6.79145H6.79365H6.79474H6.79606H6.79848H6.80002H6.80244H6.80398H6.80639H6.80793H6.81079L6.81563 9.98911L6.82068 9.99043H6.82354H6.8253H6.82838H6.82992H6.83299L6.83805 9.99175L6.84288 9.99307H6.84574H6.8475H6.85036H6.85212H6.85497L6.85981 9.99439L6.86487 9.9957H6.86794H6.86948H6.873H6.87476H6.87806L6.88333 9.99724L6.88839 9.99856L6.89366 9.99988L6.90268 10.0023L6.90795 10.0038L6.91323 10.0054L6.9185 10.0067L6.92773 10.0091L6.93323 10.0106L6.93851 10.012L6.94378 10.0133L6.95279 10.0157L6.95807 10.017L6.96335 10.0183L6.96862 10.0199L6.9739 10.0212H6.97763L6.98313 10.0225L6.9884 10.0238L6.99368 10.0251H6.99698H6.99874H7.00203H7.00379H7.00709L7.01236 10.0265L7.01742 10.0278H7.0205H7.02314H7.02599H7.02775H7.03105L7.0361 10.0289L7.04116 10.0302H7.04424H7.04688H7.04951H7.05105H7.05391H7.05677H7.05941L7.06424 10.0315H7.06688H7.06842H7.07106H7.07237H7.07457H7.12667H7.12799H7.12931H7.13151H7.13392H7.13568H7.13832H7.1403H7.14162H7.14294H7.14535H7.14645H7.14777H7.14909H7.15107H7.15349H7.15503H7.15679H7.1581H7.15942H7.1614H7.16272H7.16404H7.16602H7.16734H7.17063H7.17217H7.17393H7.17503H7.17679H7.17811H7.17987H7.18206H7.18404H7.18624H7.18734H7.18888H7.19262H7.19481H7.19657H7.19899H7.20075H7.20207H7.20383H7.20624H7.208H7.21042H7.21218H7.2146H7.2168H7.21921H7.22185H7.22427H7.22669H7.22911H7.23174L7.19899 10.0416L7.2368 10.0315L7.21042 10.0416L7.22185 10.0526L7.22669 10.0636H7.2168L7.21921 10.0746H7.2557L7.56279 9.91422C7.32648 9.86041 7.20954 9.86847 6.99874 9.80346L6.90509 9.84591ZM8.32292 10.1692L8.11717 10.3074C8.1601 10.3144 8.20334 10.3212 8.24686 10.3278H8.25324H8.25917H8.26489H8.26775H8.27148H8.27412H8.28511H8.28687H8.29632H8.29896H8.30116H8.30402H8.30775H8.31061H8.31303H8.31589H8.31962H8.32248H8.32534H8.32864L8.33479 10.3289H8.34095H8.34732C8.55175 10.3582 8.76161 10.3842 8.97688 10.4069L9.11778 10.2599C8.84389 10.2316 8.57395 10.196 8.31567 10.1543L8.32292 10.1692ZM9.96606 10.3401L9.89352 10.4921H9.94562H9.95222H9.96958H9.97684L9.99882 10.4932C10.269 10.5055 10.5443 10.5121 10.8247 10.5129L10.8282 10.3592C10.5391 10.3592 10.2492 10.3506 9.96606 10.3361V10.3401ZM12.5355 10.2834C12.2603 10.3107 11.9765 10.3311 11.6914 10.3443L11.7574 10.4967L11.8453 10.4925H11.8525H11.8596H11.8747H11.8791H12.0141H12.0326H12.0394H12.0462H12.053H12.0601C12.2662 10.4796 12.4688 10.4633 12.6676 10.4435L12.5338 10.2959L12.5355 10.2834ZM14.0943 10.0418C13.8551 10.0945 13.6021 10.1418 13.3423 10.1822L13.5416 10.3214C13.6948 10.2977 13.8444 10.272 13.9905 10.2443L14.0125 10.2399L14.0184 10.2388H14.0244H14.0301H14.0338H14.036H14.0395H14.0413H14.0448H14.0503H14.0558H14.0589H14.0622H14.065H14.0666H14.0729H14.0751H14.0778H14.0793H14.0826H14.0839H14.0861H14.0901H14.0923H14.0936H14.0951H14.0976H14.1002H14.1017H14.1037H14.1066H14.1081H14.111H14.1132H14.1151H14.1176H14.1195H14.122H14.1239H14.1263H14.1285H14.131H14.1334H14.1358H14.1384H14.1409H14.1435H14.1457H14.1483H14.1505H14.1532H14.1556H14.1582L14.1637 10.2377H14.1666H14.1694H14.1725H14.1754H14.1782H14.1811H14.1842L14.1901 10.2364L14.1958 10.2353L14.2017 10.2342L14.2079 10.2329C14.251 10.224 14.2937 10.2148 14.3361 10.2052L14.0949 10.0414L14.0943 10.0418ZM15.3692 9.65922C15.1874 9.7328 14.9874 9.80243 14.7757 9.86612L15.0905 9.97989C15.3208 9.91092 15.5354 9.83625 15.7326 9.75652L15.3699 9.65878L15.3692 9.65922ZM16.2474 9.17054C16.1272 9.26663 15.9988 9.35202 15.8638 9.42575L16.2661 9.50416C16.2898 9.49098 16.3131 9.47781 16.336 9.46441L16.3382 9.46309H16.3393L16.3412 9.46199H16.3426H16.3439H16.3452H16.3467H16.3481H16.3496H16.3511H16.3527H16.3542H16.3557H16.3573H16.3588L16.3606 9.46089L16.381 9.43761L16.3845 9.43564C16.4413 9.40109 16.495 9.36601 16.5457 9.33043L16.5487 9.32823L16.5516 9.32604L16.5545 9.32384L16.5573 9.32165L16.5589 9.32055H16.5602H16.5615H16.5628L16.5641 9.31945H16.5655H16.5668H16.5679H16.5692H16.5705H16.5716H16.5729H16.574L16.5764 9.31747L16.5791 9.3155L16.5817 9.31352C16.6066 9.29485 16.6307 9.27618 16.6538 9.25729L16.2206 9.19931L16.2474 9.17054ZM16.6479 8.6186C16.6202 8.72 16.5736 8.81528 16.5107 8.89951L16.9653 8.93531C16.9879 8.90449 17.0087 8.87245 17.0277 8.83933L17.029 8.83713V8.83581V8.8345V8.8334V8.83186V8.83076V8.82966V8.82747C17.0291 8.82683 17.0291 8.82615 17.029 8.82549V8.82329V8.8211L17.0301 8.8189C17.0554 8.76944 17.0755 8.71756 17.0904 8.66406V8.66296V8.66164V8.66055V8.65923V8.65813V8.65703L16.6246 8.64407L16.6479 8.6186ZM16.9965 8.01855L16.5393 8.05084C16.5966 8.13634 16.6367 8.23221 16.6571 8.33307L17.1236 8.32341C17.1196 8.30144 17.1148 8.28124 17.1088 8.26037V8.25796V8.25554V8.25444V8.25334V8.25225V8.25115V8.24214V8.2305V8.2294V8.22809V8.22677V8.22523V8.22369V8.22216V8.21974C17.1088 8.21895 17.1088 8.21814 17.1088 8.21732V8.21491V8.21249C17.1088 8.21249 17.1088 8.21095 17.1088 8.21008C17.1088 8.20929 17.1088 8.20847 17.1088 8.20766C17.0853 8.14849 17.0558 8.09182 17.0209 8.03854L16.9965 8.01855ZM16.3371 7.44465L15.9295 7.51998C16.059 7.59464 16.1814 7.68104 16.2951 7.77805L16.7327 7.72446L16.702 7.69833L16.7004 7.69701L16.6987 7.69569L16.6973 7.69459H16.6962H16.6951H16.6938L16.6927 7.6935H16.6914H16.6903H16.689L16.6877 7.6924L16.685 7.69042L16.6822 7.68822C16.5796 7.6076 16.4714 7.53422 16.3586 7.46859L16.3371 7.44465ZM15.194 6.96014L14.8713 7.07149C15.0797 7.13738 15.2749 7.2081 15.4514 7.28278L15.8205 7.18834C15.7337 7.15159 15.6433 7.11586 15.5492 7.08115L15.5444 7.0794L15.54 7.07786L15.5356 7.07632H15.5334H15.5314H15.5292H15.5275H15.5253H15.5237H15.5218H15.52H15.5182H15.5165H15.5149H15.513H15.5112H15.5101H15.5086H15.5072H15.5053H15.5039H15.5018L15.4976 7.07479L15.4932 7.07325H15.4901H15.4886H15.4855L15.4809 7.07171L15.4763 7.06995C15.3904 7.03964 15.3019 7.01037 15.2107 6.9821L15.194 6.96014ZM13.67 6.60696L13.461 6.74489C13.7179 6.78706 13.9676 6.83626 14.2031 6.89073L14.4721 6.76488C14.3451 6.7356 14.2146 6.70771 14.0808 6.6812L14.0747 6.67988L14.0685 6.67878L14.0466 6.67439L14.0404 6.67329L14.034 6.67198H14.0309L14.0182 6.66956L14.012 6.66846L14.0059 6.66714L13.9839 6.66297H13.9775L13.9712 6.66165L13.9648 6.66055L13.9553 6.6588L13.949 6.65748L13.9426 6.65638H13.9362H13.9298L13.9202 6.65462H13.914L13.9078 6.65353L13.9017 6.65243L13.8953 6.65133H13.8889H13.8859L13.8797 6.65023L13.8738 6.64913H13.8676L13.8612 6.64804H13.8551H13.852L13.8459 6.64694L13.8395 6.64584H13.8333H13.8303H13.8274H13.8243H13.8212H13.8184H13.8155H13.8127L13.807 6.64474H13.801H13.7979H13.7953H13.7924H13.79H13.7872H13.7847H13.7819H13.7797H13.7771H13.7744H13.772H13.7694H13.7672H13.7645H13.7625H13.7599H13.7577H13.7551H13.754H13.752H13.7476H13.7454H13.741H13.7386H13.7346H13.7322H13.7278H13.7256H13.723H13.7208H13.6992H13.6962H13.6929H13.6898H13.6878H13.6841L13.6781 6.64364H13.6733L13.67 6.60696ZM11.898 6.41786L11.822 6.56985C12.1058 6.58522 12.3882 6.60784 12.6615 6.63705L12.8057 6.49056C12.7454 6.48397 12.6849 6.47782 12.6241 6.47211H12.6177H12.6116H12.6085H12.5562H12.5531H12.5494H12.5426H12.5357H12.5287C12.3236 6.45366 12.1137 6.43859 11.8991 6.42686L11.898 6.41786Z" fill="#FF922E"/>
<path d="M10.8654 6.13438C11.7821 6.13208 12.6978 6.19298 13.6061 6.31668C14.4445 6.43353 15.1976 6.60067 15.8443 6.81371C16.491 7.02676 16.9988 7.27494 17.3534 7.55103C17.7205 7.83655 17.9066 8.14074 17.9066 8.45372C17.9066 8.7667 17.7205 9.07068 17.3534 9.35664C16.9988 9.63272 16.491 9.88091 15.8443 10.0937C15.1976 10.3066 14.4445 10.4741 13.6061 10.591C12.6978 10.7145 11.7821 10.7753 10.8654 10.7731C9.94869 10.7753 9.03288 10.7145 8.1245 10.591C7.28611 10.4741 6.53302 10.3068 5.88631 10.0937C5.2396 9.88069 4.73204 9.6325 4.37726 9.35664C4.01016 9.07111 3.82397 8.76692 3.82397 8.45372C3.82397 8.14052 4.01016 7.83699 4.37726 7.55103C4.73204 7.27473 5.2396 7.02676 5.88631 6.81371C6.53302 6.60067 7.28611 6.43353 8.1245 6.31668C9.03286 6.19298 9.94866 6.13208 10.8654 6.13438ZM10.8654 6.09595C6.91198 6.09595 3.70703 7.15151 3.70703 8.45372C3.70703 9.75594 6.91198 10.8117 10.8654 10.8117C14.8189 10.8117 18.0236 9.75594 18.0236 8.45372C18.0236 7.15151 14.8195 6.09595 10.8654 6.09595Z" fill="#F7FAF6"/>
<path d="M10.8659 6.2762C11.7261 6.27412 12.5854 6.33127 13.4378 6.4473C14.2249 6.55712 14.9325 6.71394 15.5392 6.91402C16.1459 7.11411 16.6229 7.34692 16.956 7.60609C17.3006 7.87448 17.4754 8.15979 17.4754 8.45366C17.4754 8.74753 17.2995 9.03284 16.956 9.30123C16.6229 9.56062 16.1464 9.79343 15.5392 9.99352C14.9321 10.1936 14.2249 10.3504 13.4378 10.4602C12.5854 10.5762 11.7261 10.6333 10.8659 10.6313C10.0052 10.6334 9.14549 10.5762 8.2927 10.4602C7.50553 10.3504 6.79794 10.1934 6.19146 9.99352C5.58498 9.79365 5.10754 9.56062 4.77429 9.30123C4.42962 9.03284 4.25486 8.74775 4.25486 8.45366C4.25486 8.15957 4.43071 7.87448 4.77429 7.60609C5.10732 7.34692 5.5841 7.11389 6.19124 6.91402C6.79838 6.71416 7.50531 6.5569 8.29248 6.4473C9.14525 6.33122 10.005 6.27405 10.8657 6.2762M10.8657 6.23755C7.15075 6.23755 4.13792 7.22986 4.13792 8.45366C4.13792 9.67746 7.14943 10.6698 10.8657 10.6698C14.5819 10.6698 17.5921 9.67768 17.5921 8.45366C17.5921 7.22964 14.5806 6.23755 10.8657 6.23755Z" fill="#F7FAF6"/>
<path d="M14.1501 9.28854C14.0802 9.27927 14.009 9.2917 13.9464 9.32412H12.9398L12.7974 9.4548C12.7657 9.48357 12.6826 9.5029 12.5896 9.5029L12.7844 9.32522H12.6369L12.4951 9.45458C12.4635 9.48335 12.3806 9.50268 12.2874 9.50268L12.4817 9.32522H12.3357L12.1942 9.45436C12.1625 9.48313 12.0797 9.50246 11.9867 9.50246L12.1806 9.32522L11.0953 9.32631H10.3532C10.3807 9.29205 10.4745 9.26811 10.582 9.26811H11.1445L12.006 8.26746H10.4871C10.0914 8.683 9.69573 9.15192 9.30005 9.57845C9.23411 9.65049 9.39523 9.73901 9.6234 9.73967C11.0243 9.74494 12.4252 9.73461 13.8261 9.73967C13.9059 9.73967 13.9765 9.72253 13.9974 9.69706L14.2721 9.36387C14.2983 9.33224 14.2457 9.2982 14.1501 9.28854Z" fill="#FF922E"/>
<path d="M12.9515 7.16815H11.3952C11.2497 7.16815 11.1314 7.20706 11.1314 7.25608H11.9045C11.8683 7.28817 11.7768 7.30993 11.6731 7.31081L11.3763 7.31389C11.243 7.45708 11.1095 7.60025 10.9758 7.74342H12.4572L12.8768 7.25564H12.9177C12.9854 7.25564 13.0454 7.23915 13.0529 7.21695C13.0603 7.19475 13.0159 7.17277 12.9515 7.16815Z" fill="url(#paint3_linear_68_38559)"/>
<path d="M14.1946 7.90743C14.1946 7.90304 14.1926 7.89887 14.1915 7.89447C14.1093 7.59292 13.3307 7.36362 12.411 7.36362H9.75054C9.52941 7.36362 9.33179 7.4093 9.25639 7.47761L9.0469 7.64453H8.815C8.65475 7.64453 8.50351 7.66891 8.40569 7.71042H9.72307L10.0671 7.71218C10.2383 7.71218 10.3603 7.76445 10.3344 7.8176L10.0236 8.09895H9.87716L10.1735 7.82836H10.0805L9.78417 8.09895H9.59711L9.89364 7.82836C9.40411 7.82529 9.00734 7.82199 8.5178 7.81892C8.39976 7.81892 8.29051 7.83957 8.23577 7.87383C8.21568 7.8854 8.19834 7.90122 8.185 7.92017C8.16895 7.94543 8.23292 7.96915 8.31073 7.96585H8.31337C8.39822 7.96168 8.43471 7.93708 8.43735 7.93533H9.2898C9.2898 7.95729 9.23441 7.97618 9.16583 7.97618H8.72047C8.10322 8.58105 7.67084 9.01593 7.49125 9.15056C7.31166 9.2852 7.46487 9.34077 7.59544 9.36185C7.65552 9.37112 7.71623 9.3756 7.77701 9.37525H8.9016L9.64899 8.65529H9.42917C9.30937 8.65529 9.21221 8.62344 9.21221 8.58391H10.4676C10.9998 8.83056 11.5317 9.07984 12.0639 9.32671C12.5754 9.32671 13.0869 9.32407 13.5982 9.32407L11.8228 8.53712L12.4095 8.5424C13.2887 8.5424 14.0454 8.33264 14.1772 8.04646C14.1981 8.00326 14.2042 7.95443 14.1946 7.90743ZM9.67822 8.19559H9.5061L9.59008 8.11916H9.76175L9.67822 8.19559ZM9.91695 8.19559H9.78615L9.86946 8.1196H10L9.91695 8.19559ZM10.6863 8.19559C10.519 8.19559 10.3145 8.19559 10.073 8.19559L10.1568 8.12004H10.7687L10.6863 8.19559ZM10.1794 8.09917L10.4696 7.83693C10.7186 7.83693 10.9248 7.83847 11.0774 7.83869L10.7916 8.09917H10.1794ZM10.98 8.19625H10.8408L10.9246 8.12004H11.0642L10.98 8.19625ZM10.947 8.09917L11.2328 7.83869H11.3721L11.0864 8.09895L10.947 8.09917ZM11.7544 8.15013C11.5496 8.18195 11.3426 8.19731 11.1354 8.19603L11.2191 8.1196C11.3757 8.12223 11.5097 8.12136 11.6148 8.1196C11.8109 8.11608 11.9006 8.1095 11.987 8.0939C12.0221 8.08786 12.0569 8.08002 12.0912 8.0704C11.9808 8.10528 11.8679 8.13185 11.7535 8.14991L11.7544 8.15013ZM12.1883 8.00209C12.1529 8.04602 12.0145 8.06798 11.9404 8.07875C11.8408 8.09368 11.754 8.09566 11.5838 8.09917C11.4497 8.10181 11.3335 8.10093 11.2416 8.09917L11.5258 7.83957C11.5643 7.83737 11.8709 7.82199 12.0644 7.88986C12.0896 7.89865 12.2305 7.94806 12.1874 8.00187L12.1883 8.00209Z" fill="#FF922E"/>
<path d="M11.0765 7.83846C10.9239 7.83846 10.7177 7.83846 10.4687 7.8367L10.1785 8.09916H10.7912L11.0765 7.83846ZM10.2788 8.07608L10.5175 7.86022L10.9767 7.86154L10.7419 8.07608H10.2788Z" fill="white"/>
<path d="M9.78703 8.19544L9.91695 8.19522L10.0009 8.11938H9.87034L9.78703 8.19544Z" fill="white"/>
<path d="M9.5061 8.19591H9.67822L9.76175 8.11963H9.59007L9.5061 8.19591ZM9.63931 8.14249H9.6613L9.6281 8.17261H9.60612L9.63931 8.14249Z" fill="white"/>
<path d="M14.265 7.90591C14.265 7.9013 14.263 7.89691 14.2619 7.89252C14.2206 7.74119 14.0078 7.60128 13.6629 7.49893C13.318 7.39658 12.875 7.34058 12.4121 7.34058H9.75099C9.50171 7.34058 9.27706 7.39241 9.19133 7.46928L9.08736 7.5523L9.00053 7.62149H8.81544C8.63453 7.62149 8.46087 7.6496 8.35053 7.69682L8.2637 7.73394H9.72351L10.0662 7.7357C10.1185 7.73469 10.1706 7.74295 10.2201 7.76008C10.2524 7.77282 10.2693 7.78885 10.2682 7.804H10.0317L10.015 7.81938L9.73538 8.07591H9.69735L9.80594 7.97708L9.95982 7.83629L9.99301 7.80598H9.89519L9.2043 7.80137L8.51935 7.79676H8.51165C8.36921 7.79676 8.23952 7.82245 8.17335 7.86396C8.1506 7.87721 8.13095 7.8952 8.11576 7.91668C8.10411 7.93491 8.11796 7.95358 8.15357 7.96807C8.19903 7.98388 8.24699 7.99133 8.29513 7.99003C8.30326 7.99003 8.3114 7.99003 8.31931 7.99003H8.32349C8.37536 7.98894 8.42665 7.97868 8.47494 7.95973H8.66553L8.65497 7.97005C8.53524 8.08718 8.42263 8.19774 8.31711 8.3017C7.88429 8.72735 7.57127 9.03484 7.42795 9.14246C7.21912 9.29906 7.42443 9.36077 7.56533 9.38405C7.63568 9.39473 7.70674 9.39996 7.7779 9.39965H8.95283L8.96887 9.38405L9.71626 8.66409L9.74791 8.63356H9.42917C9.38475 8.63561 9.3405 8.62695 9.30014 8.60831H10.4313C10.6905 8.72845 10.9536 8.85122 11.2084 8.96982C11.4588 9.08667 11.7173 9.20703 11.9723 9.32541H12.0584C11.528 9.07942 10.9978 8.83101 10.4676 8.58524H9.21221C9.21221 8.62478 9.30937 8.65663 9.42917 8.65663H9.64899L8.90161 9.37659H7.77746C7.71668 9.37694 7.65597 9.37246 7.59589 9.36319C7.46532 9.34123 7.31013 9.28785 7.4917 9.1519C7.67327 9.01595 8.10367 8.58085 8.72092 7.97774H9.16561C9.2342 7.97774 9.28959 7.95929 9.28959 7.93688H8.43713C8.4345 7.93864 8.39801 7.96324 8.31316 7.96741H8.29579C8.22501 7.96741 8.16983 7.94545 8.18588 7.92151C8.19922 7.90255 8.21657 7.88674 8.23666 7.87517C8.29051 7.84134 8.39691 7.82026 8.51275 7.82026H8.51869C9.00822 7.82333 9.40499 7.82663 9.89453 7.8297L9.59755 8.09897H9.78462L10.0809 7.82838H10.1739L9.8776 8.09897H10.024L10.3348 7.81806C10.3608 7.76491 10.2388 7.71374 10.0675 7.71264L9.72351 7.71088H8.40614C8.50396 7.66893 8.65519 7.64499 8.81544 7.64499H9.04735L9.25684 7.47807C9.33223 7.40976 9.52985 7.36408 9.75099 7.36408H12.4121C13.3312 7.36408 14.1098 7.59338 14.1926 7.89493C14.1937 7.89933 14.1948 7.9035 14.1957 7.90789C14.2054 7.95509 14.1993 8.00418 14.1783 8.04758C14.0465 8.3331 13.2894 8.54351 12.4106 8.54351L11.8232 8.53714L13.5983 9.32344H13.6862L13.6554 9.31026L12.6223 8.85298L11.9657 8.56218L12.4079 8.56614H12.4099C12.8526 8.56614 13.2822 8.5143 13.6189 8.42008C13.9557 8.32586 14.1803 8.19407 14.2465 8.05043C14.2684 8.00561 14.2749 7.95481 14.265 7.90591ZM10.2665 7.81235L10.235 7.84068L10.2401 7.83607L10.2667 7.81191L10.2665 7.81235Z" fill="white"/>
<path d="M10.0723 8.19505H10.265H10.6856L10.7691 8.11987H10.1562L10.0723 8.19505ZM10.2053 8.14251H10.6691L10.6363 8.17219H10.1725L10.2053 8.14251Z" fill="white"/>
<path d="M12.0905 8.07019C12.0562 8.07982 12.0214 8.08767 11.9863 8.09371C11.8984 8.10932 11.8105 8.11569 11.6142 8.11943C11.5568 8.11943 11.4907 8.12097 11.4164 8.12097C11.3552 8.12097 11.2889 8.12097 11.2185 8.11943L11.1348 8.19593C11.342 8.1972 11.549 8.18184 11.7538 8.14998C11.8679 8.13181 11.9804 8.10514 12.0905 8.07019ZM11.2372 8.17131L11.2678 8.14317C11.3179 8.14317 11.3682 8.14427 11.4179 8.14427C11.4838 8.14427 11.5524 8.14427 11.6188 8.14251H11.6386C11.5054 8.15963 11.3714 8.16924 11.2372 8.17131Z" fill="white"/>
<path d="M11.5825 8.09921C11.7526 8.09569 11.8395 8.09371 11.939 8.07876C12.0131 8.06733 12.1516 8.04623 12.187 8.00205C12.231 7.94819 12.0892 7.89873 12.063 7.88972C11.9351 7.84576 11.7577 7.8363 11.6412 7.8363C11.5814 7.8363 11.5376 7.8385 11.5245 7.83938L11.2402 8.09921C11.2904 8.09921 11.3477 8.10075 11.4113 8.10075C11.4642 8.10075 11.5223 8.10031 11.5825 8.09921ZM11.5759 7.86048C11.5937 7.86048 11.6159 7.85939 11.6418 7.85939C11.7518 7.85939 11.9039 7.86752 12.0127 7.90555C12.0549 7.92027 12.1498 7.95874 12.1199 7.99611C12.0929 8.02996 11.9786 8.04733 11.9102 8.05766C11.8243 8.07085 11.7511 8.07261 11.579 8.07613C11.5236 8.07613 11.4675 8.07766 11.4119 8.07766H11.3392L11.5759 7.86048Z" fill="white"/>
<path d="M11.3706 7.83871H11.2312L10.9455 8.09942H11.0851L11.3706 7.83871Z" fill="white"/>
<path d="M10.9791 8.19612L11.0633 8.11984H10.9237L10.84 8.19612H10.9791Z" fill="white"/>
<path d="M7.84155 6.12876C8.84858 5.99113 9.86393 5.92341 10.8803 5.92609V5.1875H10.8663C9.4814 5.1875 8.16446 5.28092 6.96777 5.44996L7.84155 6.12876Z" fill="#F7FAF6"/>
<path d="M15.681 5.59802L14.6494 6.21058C15.5672 6.37816 16.362 6.60175 17.0116 6.87454L18.6809 6.4434C17.8651 6.09923 16.845 5.81151 15.681 5.59802Z" fill="white"/>
<path d="M1.21582 9.29536V10.8025C1.52752 11.2371 2.10301 11.6384 2.88424 11.9868V10.3834L1.25912 9.23694C1.24374 9.25671 1.22967 9.27603 1.21582 9.29536Z" fill="#EDE8E8"/>
<path d="M6.53711 12.9882C7.70215 13.1747 8.99512 13.2882 10.3606 13.3108V11.7159L6.53711 11.3923V12.9882Z" fill="#EDE8E8"/>
<path d="M15.2979 12.9713C16.5119 12.771 17.584 12.4912 18.4505 12.1525V10.6663L15.2979 11.4471V12.9713Z" fill="#EDE8E8"/>
<path d="M20.7816 10.0488C20.7816 10.0453 20.7816 10.042 20.7816 10.0387V8.35742L20.653 8.35852L20.5176 9.20499V10.7993C20.6899 10.5588 20.7816 10.3073 20.7816 10.0488Z" fill="#EDE8E8"/>
<path d="M18.6664 8.45546C18.6664 8.65511 18.5969 8.85366 18.46 9.04562L20.5177 9.20507C20.69 8.96347 20.7815 8.71221 20.7815 8.4537C20.7796 8.26273 20.7318 8.07503 20.6421 7.90637L18.5565 8.02278C18.6273 8.15612 18.665 8.3045 18.6664 8.45546Z" fill="white"/>
<path d="M18.4503 10.6662L16.8709 10.203C16.1705 10.4622 15.3354 10.6688 14.3887 10.8169L15.2976 11.447C16.5027 11.2579 17.5734 10.9911 18.4503 10.6662Z" fill="white"/>
<path d="M6.53711 11.3929C7.70215 11.5798 8.99556 11.6934 10.3619 11.7161L10.4719 11.0166C9.46729 11.0027 8.46496 10.9176 7.47244 10.7618L6.53711 11.3929Z" fill="white"/>
<path d="M1.21582 9.20721C1.52532 9.63879 2.09509 10.0374 2.86687 10.384L4.55156 9.98516C3.93805 9.70402 3.51094 9.39083 3.28211 9.05457L1.21582 9.20721Z" fill="white"/>
<path d="M1.28996 7.60324L3.38108 7.7963C3.66333 7.46443 4.1399 7.15936 4.79781 6.88855L3.07334 6.43369C2.2565 6.775 1.64254 7.17144 1.28996 7.60324Z" fill="white"/>
<path d="M7.84155 6.12876C8.84858 5.99113 9.86393 5.92341 10.8803 5.92609V5.1875H10.8663C9.4814 5.1875 8.16446 5.28092 6.96777 5.44996L7.84155 6.12876Z" fill="white"/>
<path d="M28.1764 15.2946C28.1948 15.2709 28.2133 15.2469 28.2313 15.2228L29.2632 13.8725L28.9956 13.7069C29.9158 10.6603 27.8113 6.9463 23.9778 5.10774C20.8742 3.61928 17.5194 3.78313 15.3972 5.29136L15.2504 5.20065L14.4683 6.13168C14.4337 6.17152 14.3998 6.21178 14.3665 6.25248L14.3531 6.26851C14.1131 6.56464 13.9083 6.88762 13.7429 7.23095C12.2261 10.3873 14.3502 14.554 18.4861 16.5375C22.1898 18.3139 26.251 17.7367 28.1482 15.3295L28.1764 15.2946Z" fill="url(#paint4_linear_68_38559)"/>
<path d="M29.4123 13.5855C30.9286 10.4291 28.805 6.26244 24.6691 4.27895C20.5331 2.29545 15.9511 3.24625 14.4349 6.40259C12.9186 9.55896 15.0423 13.7256 19.1782 15.7091C23.3141 17.6926 27.8962 16.7418 29.4123 13.5855Z" fill="#FF922E"/>
<path d="M26.5242 12.2005C27.4558 10.2613 26.151 7.70139 23.6101 6.48275C21.069 5.26413 18.2539 5.84829 17.3223 7.78749C16.3907 9.72671 17.6955 12.2867 20.2365 13.5053C22.7776 14.7239 25.5926 14.1398 26.5242 12.2005Z" fill="white"/>
<path d="M17.194 7.72205V7.72402V7.72578V7.72776V7.72929V7.73105V7.73281V7.73479V7.73632V7.7383V7.74006V7.74181V7.74357V7.74533V7.74709V7.74862V7.75038V7.75192V7.75367V7.75499V7.75697V7.75851V7.76048V7.7618V7.76356V7.76488V7.76663V7.76817V7.76971V7.77103V7.77212V7.77388V7.7752V7.77696V7.77805V7.77959V7.78113V7.78223V7.78398V7.7853V7.78662V7.78772V7.78904V7.79035V7.79145V7.79277V7.79431V7.79606V7.7976V7.7987V7.80046V7.80155V7.80375V7.80507L17.1929 7.80748V7.8088L17.1914 7.81276L17.1896 7.81671L17.1881 7.82066V7.82198L17.187 7.82462V7.82593L17.1857 7.82857V7.82989L17.1839 7.83428L17.1822 7.83867C17.1822 7.83999 17.1822 7.84131 17.1804 7.84285C17.1276 7.97199 17.0836 8.1045 17.0485 8.23951L17.4169 8.36733C17.4637 8.1882 17.5275 8.01396 17.6075 7.84702L17.194 7.72205ZM16.892 8.88391C16.892 8.88896 16.892 8.89424 16.892 8.89929V8.9039C16.892 8.905 16.892 8.90588 16.892 8.90697V8.90851V8.91137V8.91291V8.91752V8.92191V8.92806V8.98165V8.98648V8.99856V9.00076V9.00296V9.00515V9.00735V9.00976V9.01196V9.01438V9.01657V9.01899V9.02382V9.02865C16.892 9.03041 16.892 9.03195 16.892 9.03348V9.04227C16.8921 9.04387 16.8921 9.0455 16.892 9.0471C16.8893 9.20115 16.8967 9.35523 16.914 9.50833L17.2877 9.54413C17.2653 9.35235 17.2603 9.15896 17.2725 8.96628L16.8971 8.88369L16.892 8.88391ZM17.0369 10.144C17.0974 10.3525 17.1731 10.5564 17.2635 10.7539L17.2655 10.7587L17.2677 10.7633L17.2688 10.7655V10.7675V10.7697V10.7715V10.7734L17.6159 10.7148C17.5278 10.5257 17.4544 10.3301 17.396 10.1299L17.0314 10.1415L17.0369 10.144ZM17.6134 11.3904C17.7455 11.5942 17.8909 11.7892 18.0487 11.974L18.3382 11.8264C18.1922 11.6553 18.0576 11.4749 17.9353 11.2863L17.6134 11.3904ZM18.5701 12.5136C18.7196 12.6502 18.8776 12.7813 19.044 12.9067L19.0489 12.9103L19.0535 12.9138L19.0581 12.9173L19.0627 12.9208L19.0673 12.9241L19.0717 12.9274L19.0761 12.9307L19.0783 12.9324L19.0803 12.934L19.0823 12.9355L19.084 12.9368L19.086 12.9381L19.0875 12.9392L19.0895 12.9408L19.0911 12.9419C19.0915 12.9425 19.0921 12.943 19.0928 12.9434L19.0941 12.9445L19.0959 12.9458H19.0972L19.099 12.9472H19.1001L19.1021 12.9485H19.1034L19.1049 12.9496L19.1065 12.9507H19.1078L19.1098 12.952H19.1111L19.1133 12.9535H19.1146L19.117 12.9551V12.9562L19.1192 12.9579H19.1205L19.1232 12.9599C19.1236 12.9604 19.1241 12.9607 19.1247 12.961L19.1278 12.963L19.1326 12.9665L19.141 12.9726L19.3465 12.7482C19.1634 12.6172 18.9879 12.4761 18.8207 12.3254L18.5703 12.5136H18.5701ZM19.8257 13.413C19.8872 13.4473 19.9497 13.4807 20.0132 13.5134L20.0185 13.5162L20.024 13.5189L20.0295 13.5215L20.0328 13.5233H20.0345L20.0374 13.5246H20.0391L20.042 13.5259H20.0435L20.0462 13.5272H20.0477L20.0501 13.5285H20.0517H20.053H20.055H20.0563H20.0583H20.0596L20.0618 13.5296H20.0629H20.0642H20.066H20.0675H20.0686H20.0701H20.0717H20.0732H20.0743H20.0759H20.0774H20.0789H20.0807H20.082H20.0835L20.0855 13.5307H20.0868H20.0884L20.0906 13.5318H20.0923L20.0945 13.5329H20.0961L20.0983 13.534H20.1H20.1022H20.104H20.1062L20.1084 13.5351H20.1108L20.113 13.5362L20.1154 13.5373L20.1176 13.5384L20.1198 13.5395L20.1222 13.5406L20.1244 13.5417L20.1268 13.5428L20.129 13.5439L20.1317 13.5452L20.1339 13.5463L20.1363 13.5476L20.1383 13.5487L20.1407 13.55L20.1429 13.5511L20.1455 13.5522L20.148 13.5533L20.1504 13.5547L20.1528 13.556L20.1554 13.5573L20.1578 13.5586L20.1603 13.5597L20.1622 13.5608L20.1647 13.5619H20.1666H20.1686L20.171 13.563H20.173L20.1752 13.5641H20.1772H20.1792H20.1816L20.1836 13.5652L20.1858 13.5663L20.1882 13.5676H20.1902L20.1924 13.5687H20.1948H20.197L20.1994 13.5698H20.2018L20.2069 13.5722L20.2093 13.5735L20.2143 13.576L20.222 13.5797L20.2273 13.5821C20.2859 13.6092 20.3442 13.6353 20.4021 13.6603H20.4047L20.41 13.6625H20.4122L20.4146 13.6636H20.4166H20.4185H20.4205H20.4221H20.4238H20.4256H20.4269L20.432 13.6658L20.481 13.6862L20.5854 13.4057C20.4803 13.3618 20.3746 13.3148 20.2713 13.2652C20.157 13.2103 20.0429 13.1514 19.9328 13.0895L19.8257 13.413ZM21.315 13.711L21.2655 14.0108C21.4222 14.0558 21.5787 14.0945 21.735 14.1268L21.7408 14.1281H21.7465L21.7522 14.1294H21.7553H21.7579H21.7608H21.7634H21.766H21.7685H21.7711H21.7735H21.7761H21.7783H21.781H21.783H21.7854H21.7876H21.7898H21.792H21.7944H21.7983H21.8001H21.8102H21.8115H21.8159H21.8175H21.8217H21.8234H21.8269H21.8293H21.8329H21.8353H21.8368H21.8399L21.8452 14.1305L21.8504 14.1316L21.8557 14.1327H21.8612L21.8726 14.1347C21.919 14.1432 21.9652 14.1513 22.0114 14.1589L22.0081 13.8657C21.7739 13.8278 21.5423 13.776 21.3143 13.7106L21.315 13.711ZM22.6998 13.9346L22.7627 14.2524C22.7761 14.2524 22.7897 14.2524 22.8031 14.2538H22.8691C23.0021 14.2562 23.134 14.254 23.2648 14.2469H23.2703H23.2757H23.2907H23.2953H23.3369H23.3424H23.3478C23.3964 14.2436 23.445 14.2396 23.4934 14.2351L23.376 13.9188C23.1518 13.9399 22.9262 13.9463 22.7011 13.9381L22.6998 13.9346ZM24.0563 13.8962L24.1876 14.1165C24.2146 14.1101 24.2414 14.1033 24.2684 14.0965L24.2735 14.0952L24.2783 14.0939H24.281H24.2834H24.2858H24.2882H24.2906L24.2953 14.0925H24.2975H24.2999H24.3021H24.3041H24.3065H24.3082H24.3104H24.3126H24.3148H24.3168H24.3186H24.3208H24.3225H24.3245H24.3258H24.3278H24.3293H24.3313H24.3329H24.3342H24.3355H24.3373H24.3386H24.3403H24.3425H24.3443H24.3454H24.3467H24.3482H24.3496H24.3509H24.3522H24.3535H24.3551H24.3568H24.3579H24.3597H24.3619H24.3636H24.3647H24.3667H24.3696H24.3718H24.3731H24.3742H24.3762H24.3781H24.3792H24.3806H24.3828H24.3856H24.3878H24.3891H24.3913H24.3926H24.3953L24.3997 14.0912L24.4043 14.0899H24.4072H24.4087H24.4113H24.4129H24.4155L24.4199 14.0886L24.4243 14.0873H24.4269H24.4283H24.4309H24.4324H24.4351L24.4395 14.086L24.4441 14.0844H24.4469H24.4485H24.4516H24.4531H24.4562L24.4608 14.0831L24.4654 14.0818L24.47 14.0802L24.4782 14.0778L24.483 14.0765L24.4876 14.0752L24.4922 14.0737L24.5004 14.071L24.5052 14.0695L24.5098 14.0679L24.5144 14.0666L24.5223 14.0642L24.5272 14.0627L24.5318 14.0611L24.5364 14.0594L24.541 14.0578L24.5441 14.0567L24.5487 14.0552L24.5533 14.0534L24.5579 14.0519H24.5608H24.5623H24.5652H24.5667L24.5698 14.0508L24.5744 14.0493L24.5788 14.0477H24.5815H24.5828H24.5852H24.5867H24.5896L24.594 14.0462L24.5984 14.0447H24.601H24.6024H24.6045H24.6059H24.6083H24.6096H24.612L24.6162 14.0431H24.6184H24.6197H24.6219H24.6232H24.625H24.6263H24.6281H24.6294H24.6309H24.6327H24.6338H24.6351H24.6371H24.6382H24.6399H24.641H24.6424H24.6439H24.6457H24.647H24.6487H24.6501H24.6514H24.6529H24.6542H24.6562H24.6577H24.6597H24.661H24.6628H24.6643H24.6663H24.6679H24.6692H24.6712H24.6727H24.6747H24.6762H24.6782H24.6797H24.6819H24.6839H24.6861H24.6883H24.6903H24.6925H24.6945H24.6967H24.6986H24.7008L24.7054 14.0414H24.7076H24.7098H24.712H24.7142H24.7164L24.7211 14.0396L24.7257 14.0376L24.7303 14.0357L24.7448 14.0297L24.5283 13.7372C24.3344 13.8157 24.2599 13.8477 24.0563 13.8962ZM25.1523 13.3478L25.4122 13.6186C25.4401 13.6014 25.4678 13.5839 25.4948 13.5661L25.4988 13.5634L25.5025 13.561L25.506 13.5586L25.5078 13.5573L25.5093 13.5562L25.5106 13.5551L25.5122 13.554H25.5135H25.515H25.5164L25.5181 13.5529H25.5197H25.5212H25.5225L25.5243 13.5518H25.5258H25.5278L25.5295 13.5507L25.5313 13.5494L25.5353 13.5468L25.539 13.5441L25.543 13.5415C25.6667 13.457 25.7848 13.3645 25.8962 13.2645L25.5986 13.0229C25.4592 13.1433 25.3102 13.2518 25.1526 13.3471L25.1523 13.3478ZM25.9991 12.5887L26.3288 12.7978L26.3301 12.796L26.3314 12.7943V12.7932V12.7916L26.3328 12.7899V12.7888L26.3341 12.787V12.7859L26.3367 12.7826L26.3394 12.7791L26.342 12.7756L26.3446 12.7721V12.771L26.3464 12.7686V12.7673L26.3492 12.7635L26.3576 12.7521C26.4618 12.6088 26.5535 12.4569 26.6317 12.2979L26.28 12.1266C26.198 12.2927 26.1004 12.4505 25.9883 12.5979L25.9991 12.5887ZM26.5803 11.0447C26.5664 11.2317 26.5348 11.4169 26.486 11.5979L26.8535 11.728C26.8586 11.7093 26.8636 11.6906 26.8682 11.672V11.6676L26.8696 11.6632V11.6603V11.659C26.8696 11.6577 26.8696 11.6561 26.8696 11.6548V11.652V11.6506V11.648V11.6467V11.6443V11.6421V11.6399V11.634V11.6322V11.6293V11.6276V11.6247V11.623V11.6184V11.6135V11.6089V11.6076V11.6058V11.603V11.6012V11.5984V11.5966V11.59V11.5885V11.5865V11.585V11.583V11.5812V11.5793V11.5775V11.5755V11.5681V11.5659V11.5639V11.5617V11.5575V11.5533V11.549V11.5446V11.5402V11.5356C26.8968 11.4022 26.9153 11.2672 26.9254 11.1314L26.5803 11.0447ZM26.4567 9.88061C26.5108 10.0731 26.5488 10.2696 26.5704 10.4684L26.9441 10.5066C26.932 10.3922 26.9144 10.2776 26.8913 10.1628C26.8913 10.1569 26.8891 10.151 26.8878 10.1453C26.8878 10.1437 26.8878 10.1422 26.8878 10.1407C26.8878 10.1391 26.8878 10.1376 26.8878 10.136C26.8878 10.1345 26.8878 10.133 26.8878 10.1314V10.1284V10.1268V10.124V10.1227V10.1198V10.1154V10.111V10.1084V10.106V10.1038V10.1024V10.1007V10.0985V10.0974V10.0937V10.0919V10.0888V10.0871V10.0838V10.082V10.0746V10.073V10.0706V10.0682V10.0664V10.0634V10.0614V10.0585V10.0565V10.0548V10.0526V10.0508V10.0489V10.0471V10.0451V10.0431V10.0412V10.0392V10.0374V10.0352V10.0335V10.0315V10.0297V10.0275V10.0232C26.8878 10.0224 26.8878 10.0216 26.8878 10.0207V10.0185V10.0163V10.0142V10.012V10.0095V10.0071C26.8878 10.0056 26.8878 10.004 26.8878 10.0025C26.8878 10.001 26.8878 9.99944 26.8878 9.9979L26.8865 9.99307C26.8865 9.99131 26.8865 9.98977 26.8865 9.98802C26.8777 9.95331 26.8685 9.91861 26.8588 9.88391L26.4935 9.89335L26.4567 9.88061ZM25.9327 8.7249C26.0492 8.90779 26.1527 9.09861 26.2424 9.29595L26.5906 9.23972C26.4937 9.02716 26.3818 8.82167 26.256 8.62474L25.9327 8.72666V8.7249ZM25.0565 7.68054C25.2262 7.83773 25.386 8.00527 25.535 8.18218L25.8263 8.03656C25.8026 8.00845 25.7786 7.98049 25.7544 7.95266L25.7522 7.94981V7.94849L25.7502 7.94629L25.7491 7.9452L25.7476 7.94366V7.94256L25.7463 7.94124L25.745 7.93971V7.93861L25.7436 7.93707V7.93597L25.7421 7.93421L25.7408 7.93268L25.7395 7.93092L25.7379 7.92894L25.7364 7.92741L25.7346 7.92565L25.7331 7.92411L25.7313 7.92213L25.7298 7.92038L25.728 7.91862L25.7265 7.91686L25.7247 7.91489L25.721 7.91071L25.7171 7.90654C25.6537 7.8361 25.5882 7.76663 25.5208 7.69811L25.5166 7.69415L25.5126 7.6902L25.5084 7.68625L25.5045 7.68229L25.5027 7.68032L25.5007 7.67834L25.4988 7.67636L25.497 7.67461L25.495 7.67263L25.4933 7.67087L25.4915 7.66912L25.4898 7.66758L25.488 7.66582L25.4865 7.66406L25.4849 7.66231L25.4834 7.66055L25.4821 7.65923L25.4805 7.65747L25.4792 7.65616L25.4777 7.6544L25.4764 7.65308L25.4748 7.65154L25.4733 7.65023V7.64913L25.472 7.64781L25.4704 7.64627L25.4689 7.64474V7.64364L25.4673 7.6421L25.4638 7.63859L25.4601 7.63507C25.459 7.63371 25.4577 7.63248 25.4563 7.63134C25.4205 7.59648 25.384 7.562 25.3464 7.52789L25.0565 7.68054ZM23.9016 6.84263C24.1111 6.96038 24.3135 7.09003 24.508 7.23094L24.7158 7.00824C24.6494 6.95992 24.5817 6.91269 24.5129 6.86657L24.508 6.86328L24.505 6.86108H24.5034L24.5004 6.8591H24.499L24.4966 6.85757H24.4951L24.4924 6.85581H24.4911H24.4898L24.488 6.85449H24.4869L24.4852 6.85317H24.4841L24.4823 6.85207H24.4808L24.4788 6.85076H24.4773L24.4753 6.84944H24.4738L24.4716 6.84812L24.47 6.84702L24.4678 6.84549L24.4658 6.84439L24.448 6.82396L24.4458 6.82242L24.4412 6.81935L24.4364 6.81628L24.4316 6.8132L24.4267 6.81013L24.4217 6.80683C24.312 6.73582 24.1992 6.66758 24.0836 6.60213L24.0809 6.60059L24.0783 6.59906L24.0759 6.59752L24.0735 6.59598L24.0713 6.59466L24.0689 6.59335L24.0669 6.59203L24.0647 6.59071L23.9057 6.84461L23.9016 6.84263ZM22.6235 5.98276L22.571 6.28168C22.8018 6.34929 23.0287 6.42996 23.2505 6.52328L23.3577 6.24391C23.3081 6.22194 23.2586 6.20284 23.2089 6.18307L23.2032 6.18087L23.1977 6.17868L23.1951 6.17758H23.1924H23.19H23.1874H23.1852H23.1828H23.1806H23.1781H23.1762L23.1735 6.17648H23.1713H23.1689H23.1669H23.165H23.1632H23.1614H23.1601H23.1584H23.1568H23.1555H23.1537H23.1526H23.1511H23.1498H23.148H23.1469H23.1454H23.1441H23.1423H23.141H23.139H23.1377H23.1364H23.1348H23.1331H23.1315H23.1296H23.1282H23.1267H23.1252L23.1228 6.17538H23.1212L23.1184 6.17428H23.1168L23.1135 6.17297H23.1118L23.1085 6.17165H23.1067L23.103 6.17033H23.1012L23.0977 6.16901H23.0959L23.0922 6.16769H23.0902L23.0847 6.1655L23.0792 6.16352L23.0735 6.16154L23.0678 6.15935L23.0412 6.12113L23.0355 6.11916C22.8985 6.06908 22.7612 6.02399 22.6235 5.98386V5.98276ZM21.1253 5.73172L21.1853 6.04953C21.4174 6.05955 21.6486 6.08382 21.8777 6.12223L21.8737 5.81035L21.8049 5.79937H21.8014H21.7994H21.7962H21.7944H21.7913H21.7882H21.7856H21.7392H21.7366H21.7339H21.7311H21.7254H21.7197C21.5203 5.77125 21.3229 5.75309 21.1275 5.7449L21.1253 5.73172ZM19.698 5.85757L19.8642 6.16506C20.0765 6.11621 20.292 6.08217 20.5091 6.06315L20.3946 5.74775C20.2864 5.7572 20.1794 5.76972 20.0737 5.78597H20.0684H20.0631H20.0583H20.0558H20.0077H20.0053H20.0007H19.9961H19.9928H19.991H19.9877H19.9826H19.9776C19.884 5.80194 19.7918 5.82052 19.7011 5.84176L19.698 5.85757ZM18.467 6.34757L18.7248 6.61948C18.8974 6.51588 19.0781 6.42656 19.2652 6.35241L19.0508 6.05898C18.9482 6.09983 18.8482 6.14435 18.7508 6.19251L18.7464 6.19471L18.7418 6.19691L18.7257 6.20503L18.7213 6.20723L18.7167 6.20942L18.7145 6.21052L18.7055 6.21514L18.7011 6.21733L18.6967 6.21975L18.6811 6.22787L18.6767 6.23007L18.6723 6.23227L18.6677 6.23468L18.6611 6.2382L18.6567 6.24061L18.6523 6.24281L18.6479 6.24501L18.6435 6.24742L18.6369 6.25094L18.6325 6.25335L18.6283 6.25577L18.624 6.25818L18.6196 6.2606L18.6152 6.26302L18.613 6.26433L18.6088 6.26653L18.6046 6.26873L18.6004 6.27114L18.596 6.27356L18.5916 6.27597H18.5894L18.585 6.27839L18.5809 6.28081L18.5767 6.28322L18.5747 6.28454L18.5725 6.28564H18.5705L18.5686 6.28674L18.5664 6.28783L18.5644 6.28893H18.5622L18.5582 6.29113L18.5543 6.29354L18.5523 6.29464H18.5503H18.5486H18.5468L18.545 6.29574H18.5435H18.5417H18.5402H18.5384L18.5367 6.29684H18.5351H18.5332H18.5318H18.5301H18.5288L18.527 6.29794H18.5255H18.5237H18.5222H18.5209H18.5193H18.518H18.5165H18.5154H18.5138H18.5127H18.5112H18.5099H18.5088H18.507H18.5059L18.5039 6.29904L18.5015 6.30035L18.4976 6.30277L18.4945 6.30453L18.467 6.34757ZM17.5424 7.16022L17.8698 7.37107C17.9854 7.22255 18.1148 7.08526 18.2562 6.96101L17.9603 6.717C17.9289 6.74467 17.8981 6.77257 17.868 6.80134L17.8647 6.80441L17.8616 6.80727L17.8601 6.80859V6.80969V6.81078L17.8588 6.8121L17.8574 6.81342V6.81452L17.8561 6.81584L17.8548 6.81715L17.8533 6.81869L17.8519 6.82023L17.8504 6.82177L17.8489 6.8233L17.8471 6.82484L17.8438 6.82813L17.8405 6.83143L17.8372 6.83472C17.7377 6.93292 17.6447 7.03753 17.5589 7.14792L17.5424 7.16022Z" fill="#FF922E"/>
<path d="M16.6066 7.44417C16.8704 6.89641 17.266 6.43232 17.7833 6.06509C18.2834 5.71016 18.8751 5.46022 19.5418 5.32163C20.2085 5.18304 20.9185 5.16327 21.6499 5.26254C23.2011 5.48343 24.6467 6.17673 25.7895 7.24804C26.3245 7.75605 26.7525 8.32161 27.062 8.92846C27.3715 9.53531 27.5456 10.1534 27.5819 10.765C27.6188 11.3983 27.5041 11.9972 27.241 12.5441C26.9778 13.091 26.5815 13.5559 26.0643 13.9232C25.5642 14.2781 24.9722 14.528 24.3057 14.6666C23.6392 14.8052 22.929 14.825 22.1977 14.7257C20.6463 14.5048 19.2008 13.8115 18.058 12.7402C17.5241 12.2331 17.0948 11.6677 16.7855 11.0607C16.4762 10.4536 16.3019 9.83577 16.2656 9.22409C16.2287 8.59088 16.3435 7.99216 16.6066 7.44505M16.5187 7.40266C15.4237 9.68027 16.9565 12.6882 19.9421 14.12C22.9277 15.5518 26.2355 14.8667 27.33 12.5874C28.4245 10.308 26.8917 7.30097 23.9061 5.86918C20.9205 4.43738 17.612 5.1233 16.5182 7.40178L16.5187 7.40266Z" fill="#F7FAF6"/>
<path d="M16.9316 7.60017C17.1786 7.08579 17.5504 6.65025 18.0362 6.30433C18.5057 5.97114 19.0614 5.73635 19.6879 5.60633C20.3144 5.47631 20.9804 5.45786 21.6662 5.55098C23.1232 5.75895 24.4806 6.41054 25.5535 7.417C26.0558 7.89404 26.4578 8.42468 26.7482 8.99463C27.0386 9.56458 27.2028 10.1446 27.2362 10.7188C27.2709 11.3133 27.1632 11.8756 26.9162 12.39C26.6691 12.9043 26.2974 13.3399 25.8114 13.6847C25.342 14.0179 24.7863 14.2527 24.1596 14.3827C23.5329 14.5127 22.8671 14.5312 22.1813 14.438C20.7241 14.2308 19.3663 13.5796 18.2931 12.5731C17.7908 12.0961 17.389 11.5655 17.0986 10.9955C16.8083 10.4255 16.6438 9.84571 16.6104 9.27137C16.5757 8.67682 16.6834 8.11455 16.9307 7.60017M16.8428 7.55778C15.814 9.69922 17.2547 12.5261 20.0607 13.8718C22.8667 15.2175 25.9753 14.5727 27.0041 12.4315C28.0328 10.2903 26.5922 7.46312 23.7862 6.11742C20.9802 4.77172 17.872 5.41657 16.8423 7.55778H16.8428Z" fill="#F7FAF6"/>
<path d="M24.7472 9.02031C24.7151 9.04996 24.7061 9.09828 24.7725 9.17691L24.4957 9.75784L24.754 9.98253C24.8114 10.0324 24.8323 10.1013 24.8066 10.1549L24.4531 9.84745L24.4126 9.93245L24.6703 10.1567C24.7276 10.2066 24.7487 10.2755 24.7228 10.3291L24.3711 10.0216L24.3307 10.1068L24.5876 10.3304C24.645 10.3803 24.6661 10.4492 24.6404 10.5028L24.2887 10.1954L23.9904 10.822L23.7853 11.2492C23.7143 11.1958 23.6857 11.1154 23.7154 11.0535L23.871 10.7293L21.8124 9.13232L21.3926 10.0087C22.2358 10.6937 23.2017 11.4376 24.07 12.1345C24.2164 12.252 24.4641 12.256 24.5292 12.1255C24.929 11.3238 25.293 10.505 25.6929 9.70337C25.7149 9.65769 25.6948 9.59773 25.6423 9.55775L24.9536 9.03217C24.8877 8.98209 24.7958 8.97506 24.7472 9.02031Z" fill="#FF922E"/>
<path d="M19.5542 7.37855L19.552 7.37679L19.5439 7.39392L19.1535 8.20657L19.1212 8.27246C19.081 8.35636 19.1374 8.46706 19.2474 8.51977L19.33 8.34758L19.4619 8.07413C19.5254 8.13014 19.5498 8.20591 19.5235 8.26763C19.4971 8.32935 19.4731 8.38382 19.4481 8.44202L20.3214 9.14485L20.7331 8.29333L19.7316 7.51538L19.7428 7.49166C19.7615 7.45279 19.7409 7.40029 19.6921 7.37152C19.6433 7.34275 19.5826 7.34714 19.5542 7.37855Z" fill="#FF922E"/>
<path d="M21.5935 7.47543L21.5629 7.46313C20.8487 7.1787 20.1077 7.37527 19.8532 7.90525L19.7432 8.13257L19.1157 9.43896C19.0546 9.56635 19.1042 9.73019 19.2403 9.84902L19.5647 10.153L19.5006 10.2867C19.4566 10.3792 19.4704 10.4932 19.5393 10.5956L19.9041 9.83628C19.9371 9.77026 19.9702 9.70487 20.0035 9.64014C20.0534 9.54263 20.2042 9.52857 20.3189 9.60193L20.8768 10.09L20.8364 10.1743L20.2981 9.70582L20.2723 9.75941L20.8111 10.2283L20.7595 10.3362L20.2211 9.86769C20.0785 10.1464 19.9615 10.3715 19.8189 10.6505C19.7846 10.7175 19.803 10.8042 19.8668 10.8734C19.8948 10.9033 19.926 10.93 19.9598 10.9531C20.0132 10.9902 20.0853 10.9795 20.0991 10.9312C20.0991 10.9306 20.0991 10.9301 20.0991 10.9296C20.113 10.8762 20.0668 10.8281 20.0631 10.8246L20.0932 10.762L20.1532 10.6371L20.2992 10.3333C20.3508 10.3581 20.3774 10.4102 20.3585 10.4497L20.2354 10.7058C21.4499 11.7262 22.3281 12.4539 22.5875 12.7056C22.8469 12.9573 23.0161 12.9298 23.101 12.8778C23.1361 12.8562 23.1641 12.825 23.1816 12.7877L23.4931 12.1391L22.0496 10.9171L21.9887 11.044C21.9555 11.113 21.8553 11.1339 21.7647 11.0904L21.9063 10.7956L22.1122 10.3669C22.8253 10.3316 23.5441 10.299 24.2572 10.2637C24.399 9.96894 24.5346 9.67067 24.6762 9.37658L22.3822 9.5356L22.5567 9.20329C22.8 8.69659 22.5286 8.02978 21.9089 7.63905C21.8085 7.57578 21.703 7.52105 21.5935 7.47543ZM21.0037 10.3952L20.9566 10.4947L20.8043 10.363L20.8518 10.2641L21.0037 10.3952ZM21.0696 10.2573L21.034 10.3322L20.8828 10.2004L20.9188 10.1251L21.0696 10.2573ZM21.2828 9.81453C21.2358 9.91051 21.1787 10.0282 21.1123 10.1677L20.9619 10.0359L21.1316 9.68275L21.2828 9.81453ZM20.9212 10.0006L20.4005 9.54504C20.4722 9.40272 20.5302 9.28434 20.5728 9.1967L21.0909 9.64739L20.9212 10.0006ZM21.3657 9.64607L21.3437 9.69L21.3264 9.72492L21.1745 9.59314L21.2129 9.51276L21.3657 9.64607ZM21.1338 9.55822L20.615 9.10819L20.6537 9.02802L21.1716 9.47849L21.1338 9.55822ZM21.4743 9.14904C21.4963 9.31047 21.4618 9.43457 21.4084 9.55602L21.2563 9.42424C21.2981 9.3508 21.3348 9.27456 21.3662 9.19604C21.4128 9.07942 21.422 9.02034 21.4101 8.95445C21.4049 8.92427 21.3962 8.89477 21.3842 8.86659C21.4293 8.95519 21.4595 9.05062 21.4734 9.14904H21.4743ZM21.2545 8.73613C21.3462 8.80509 21.356 8.9081 21.3613 8.96323C21.3686 9.03725 21.349 9.08952 21.3094 9.19121C21.283 9.25947 21.2514 9.32556 21.2147 9.38888L20.6981 8.93951C20.7041 8.91513 20.7537 8.72163 20.9619 8.68451C20.9905 8.67902 21.1426 8.65201 21.2543 8.73613H21.2545Z" fill="#FF922E"/>
<path d="M20.5715 9.19604C20.5289 9.28397 20.4709 9.40221 20.3992 9.54466L20.92 10.0006L21.0896 9.64709L20.5715 9.19604ZM20.8947 9.91727L20.4662 9.54226C20.5102 9.45433 20.5542 9.3664 20.5966 9.27848L21.023 9.64975L20.8947 9.91727Z" fill="white"/>
<path d="M21.0331 10.3323L21.0687 10.2571L20.9179 10.1252L20.8818 10.2006L21.0331 10.3323Z" fill="white"/>
<path d="M20.9562 10.4949L21.0033 10.3953L20.8514 10.2635L20.8039 10.3624L20.9562 10.4949ZM20.8705 10.3593L20.8766 10.3463L20.9369 10.3984L20.9305 10.4116L20.8705 10.3593Z" fill="white"/>
<path d="M21.6086 7.43347L21.5772 7.42051C21.2187 7.27797 20.8395 7.24678 20.5089 7.33266C20.1783 7.41854 19.9279 7.61269 19.7998 7.87955L19.6898 8.10687L19.0625 9.41348C18.9935 9.55712 19.05 9.74293 19.2027 9.87756L19.3641 10.0287L19.4986 10.1547L19.4472 10.2615C19.3973 10.3656 19.4138 10.4967 19.4911 10.6129L19.5525 10.7038L19.5918 10.6217L19.9567 9.86241C19.9888 9.79784 20.0227 9.73195 20.0556 9.66693C20.0655 9.64925 20.0797 9.63434 20.0969 9.62356C20.114 9.61277 20.1336 9.60647 20.1539 9.60522C20.1941 9.601 20.2347 9.60864 20.2706 9.62718L20.2447 9.68143L20.2189 9.73502L20.2051 9.76335L20.2357 9.78971L20.7434 10.2316L20.7329 10.2536L20.5361 10.0823L20.2563 9.83869L20.1961 9.7862L20.1675 9.84198C20.0959 9.98189 20.0308 10.1084 19.9655 10.2349C19.9002 10.3614 19.8369 10.4849 19.7659 10.6237C19.7659 10.6252 19.7644 10.6265 19.7637 10.6278C19.7244 10.71 19.7477 10.813 19.8246 10.8969C19.856 10.9311 19.8912 10.9617 19.9294 10.988C19.9667 11.0145 20.0121 11.0268 20.0576 11.0227C20.0763 11.0219 20.0945 11.0162 20.1104 11.0062C20.1263 10.9963 20.1393 10.9823 20.1482 10.9659C20.1504 10.9612 20.1523 10.9563 20.1537 10.9514V10.9487C20.1579 10.9278 20.1576 10.9063 20.1529 10.8855C20.1482 10.8647 20.1391 10.8451 20.1262 10.8281L20.1455 10.7877L20.1785 10.7188L20.2005 10.7363C20.4361 10.9342 20.6583 11.1205 20.867 11.2955C21.7229 12.0131 22.3415 12.5316 22.5486 12.7326C22.85 13.0251 23.0485 12.9742 23.1399 12.9186C23.181 12.8935 23.214 12.8569 23.2346 12.8134L23.5468 12.1653L23.5606 12.1363L23.5292 12.1099L22.0848 10.8872L22.0234 10.8352L21.9962 10.8918L21.9353 11.019C21.926 11.0351 21.9122 11.0482 21.8955 11.0565C21.8789 11.0648 21.8601 11.0679 21.8416 11.0656L21.9588 10.8213L22.1547 10.4135C22.5022 10.3961 22.8561 10.3794 23.1988 10.3632C23.5358 10.3471 23.8835 10.3307 24.2256 10.3138L24.2493 10.2643C23.5386 10.2995 22.8225 10.332 22.1118 10.3671L21.9058 10.7959L21.7643 11.0906C21.8548 11.1345 21.9551 11.1126 21.9883 11.0443L22.0492 10.9173L23.4927 12.1391L23.1812 12.7873C23.1636 12.8245 23.1357 12.8558 23.1005 12.8773C23.0157 12.9294 22.8489 12.9593 22.5871 12.7051C22.3252 12.451 21.4499 11.7258 20.235 10.7065L20.3581 10.4502C20.377 10.4106 20.3504 10.3586 20.2987 10.3337L20.1528 10.6375L20.0928 10.7625L20.0627 10.8251C20.0664 10.8286 20.1126 10.8767 20.0987 10.9301C20.0986 10.9306 20.0986 10.9311 20.0987 10.9316C20.0979 10.9347 20.0967 10.9377 20.0952 10.9406C20.0756 10.9814 20.0095 10.9887 19.9593 10.954C19.9257 10.9307 19.8947 10.9038 19.8668 10.8738C19.8042 10.8055 19.7852 10.7201 19.8171 10.6542C19.8171 10.6531 19.8182 10.652 19.8189 10.6507C19.9615 10.372 20.0785 10.1468 20.2211 9.86812L20.7595 10.3366L20.8111 10.2288L20.273 9.76028L20.2987 9.70669L20.8371 10.1752L20.8775 10.0908L20.3196 9.6028C20.2049 9.52922 20.0541 9.5435 20.0042 9.64102C19.9708 9.70559 19.9376 9.77098 19.9048 9.83715L19.5399 10.5964C19.4711 10.4941 19.4568 10.3801 19.5012 10.2876L19.5654 10.1539L19.2405 9.84901C19.1045 9.73019 19.0548 9.56634 19.1159 9.43895L19.7439 8.13257L19.8538 7.90525C20.1084 7.37549 20.8494 7.1787 21.5636 7.46312L21.5941 7.47542C21.7036 7.52104 21.8091 7.57577 21.9094 7.63905C22.529 8.02978 22.8005 8.69659 22.5572 9.20329L22.3817 9.53559L24.676 9.37724L24.7002 9.32672L24.6599 9.32958L23.3256 9.42182L22.4771 9.48025L22.609 9.22964C22.7315 8.97465 22.7315 8.67001 22.609 8.37197C22.4866 8.07393 22.2466 7.80092 21.9357 7.60325C21.8316 7.53762 21.7222 7.48083 21.6086 7.43347ZM20.2871 9.63531L20.3436 9.68451L20.3346 9.6766L20.2862 9.63465L20.2871 9.63531Z" fill="white"/>
<path d="M21.1113 10.1681C21.1298 10.1293 21.1475 10.0922 21.1645 10.0567C21.2085 9.96479 21.2476 9.88421 21.2819 9.81487L21.1306 9.68298L20.9609 10.0365L21.1113 10.1681ZM21.0275 10.0334L21.1559 9.76585L21.215 9.81751C21.1812 9.88654 21.1465 9.95842 21.1115 10.0314L21.0851 10.0846L21.0275 10.0334Z" fill="white"/>
<path d="M21.3842 8.86658C21.3957 8.89421 21.4041 8.92303 21.4093 8.95253C21.4205 9.01957 21.4113 9.07826 21.3653 9.19433C21.3517 9.22862 21.335 9.26753 21.3148 9.31017C21.2976 9.34534 21.2783 9.38313 21.2559 9.4227L21.408 9.55459C21.4616 9.43237 21.4959 9.30883 21.4739 9.14726C21.4596 9.04942 21.4293 8.95457 21.3842 8.86658ZM21.379 9.47018L21.3233 9.42162C21.3385 9.39348 21.3532 9.36488 21.3673 9.33609C21.3858 9.29762 21.4031 9.25785 21.419 9.21829L21.4236 9.20664C21.4273 9.29692 21.4121 9.387 21.379 9.47108V9.47018Z" fill="white"/>
<path d="M21.3088 9.19163C21.3484 9.08985 21.3679 9.03776 21.3607 8.96346C21.3554 8.90828 21.3455 8.80519 21.2539 8.73616C21.1422 8.65197 20.9901 8.67901 20.9619 8.68407C20.91 8.69295 20.8611 8.71442 20.8194 8.74663C20.7778 8.77881 20.7447 8.82073 20.723 8.86872C20.7121 8.89129 20.7035 8.91494 20.6975 8.93928L21.2141 9.38903C21.2301 9.36111 21.2477 9.3288 21.2653 9.29209C21.28 9.26241 21.2947 9.22812 21.3088 9.19163ZM20.7593 8.9329C20.7637 8.91971 20.7689 8.90679 20.7749 8.89421C20.7936 8.85205 20.8223 8.81512 20.8586 8.78664C20.8949 8.75817 20.9376 8.73902 20.983 8.73089C21.0285 8.72276 21.1428 8.71023 21.2204 8.7687C21.2903 8.82145 21.2985 8.90652 21.3033 8.9573C21.3095 9.02127 21.2936 9.06567 21.2536 9.16855C21.2409 9.20174 21.2266 9.23449 21.2112 9.26681C21.2044 9.28066 21.1976 9.2945 21.1903 9.30835L20.7593 8.9329Z" fill="white"/>
<path d="M20.6529 9.02734L20.6143 9.10824L21.1321 9.5593L21.1708 9.47885L20.6529 9.02734Z" fill="white"/>
<path d="M21.3644 9.64617L21.2106 9.51318L21.1727 9.59364L21.3246 9.72553L21.342 9.69058L21.3644 9.64617Z" fill="white"/>
<path d="M15.754 9.18042C15.7122 8.47891 15.8391 7.81474 16.1312 7.20635L14.4386 6.39502L14.4347 6.40293C14.0513 7.20064 13.9009 8.06292 13.9565 8.93817L15.754 9.18042Z" fill="#F7FAF6"/>
<path d="M16.71 4.0786L17.8286 5.34654C18.4661 5.00194 19.1994 4.78955 20.0048 4.71532L19.4781 3.27979C18.4646 3.37203 17.5211 3.64306 16.71 4.0786Z" fill="white"/>
<path d="M24.088 5.50064C24.5417 5.71818 24.9752 5.97542 25.3836 6.26936L26.319 5.25904C25.4199 4.61252 24.4274 4.10675 23.3758 3.75916L23.0654 5.08882C23.4147 5.20424 23.7563 5.34178 24.088 5.50064Z" fill="white"/>
<path d="M28.9503 8.1084L27.4512 8.50923C27.8515 9.198 28.0937 9.90633 28.1713 10.6149L29.8676 10.784C29.7681 9.88151 29.4524 8.9709 28.9503 8.1084Z" fill="white"/>
<path d="M28.1489 15.3302L28.1762 15.2944C28.1946 15.2707 28.2131 15.2468 28.2311 15.2226L29.2629 13.8723L27.4639 15.7214L27.5079 16.0032C27.7416 15.7987 27.9561 15.5735 28.1489 15.3302Z" fill="#EDE8E8"/>
<path d="M20.708 17.3202C21.877 17.5904 23.0321 17.6414 24.0972 17.4891L24.1343 16.7276L20.9793 16.3851L20.708 17.3202Z" fill="#EDE8E8"/>
<path d="M14.4553 13.1108C15.0504 14.0113 15.8516 14.8459 16.8243 15.5501L17.3226 14.5782L15.1348 12.2643L14.4553 13.1108Z" fill="#EDE8E8"/>
<path d="M14.4357 6.40295L14.0332 6.71264C13.9262 6.87941 13.8293 7.0525 13.7433 7.23098C13.3814 7.98432 13.2271 8.79521 13.2577 9.62016L13.9569 8.93819L14.4357 6.40295Z" fill="#EDE8E8"/>
<path d="M27.4646 15.7215C28.215 15.255 28.8336 14.6348 29.2636 13.8724L27.6914 13.0409C27.3597 13.6267 26.884 14.1142 26.2773 14.4905L27.4646 15.7215Z" fill="white"/>
<path d="M20.9795 16.3849C22.0549 16.6814 23.126 16.7912 24.1346 16.7273L23.6866 15.3179C22.8719 15.3618 22.036 15.2643 21.2026 15.0264L20.9795 16.3849Z" fill="white"/>
<path d="M17.3226 14.5782L18.3441 13.5854C17.6627 13.0583 17.0936 12.4475 16.6555 11.7708L15.1348 12.2643C15.6914 13.1106 16.4304 13.9004 17.3226 14.5782Z" fill="white"/>
<path d="M15.754 9.18042C15.7122 8.47891 15.8391 7.81474 16.1312 7.20635L14.4386 6.39502L14.4347 6.40293C14.0513 7.20064 13.9009 8.06292 13.9565 8.93817L15.754 9.18042Z" fill="white"/>
<path d="M7.23592 10.0087H7.03809V10.0746H7.23592V10.0087Z" fill="#FF922E"/>
</g>
<defs>
<linearGradient id="paint0_linear_68_38559" x1="4.20456" y1="10.5022" x2="12.5556" y2="13.2579" gradientUnits="userSpaceOnUse">
<stop stop-color="#D86C1A"/>
<stop offset="1" stop-color="#E87E25"/>
</linearGradient>
<linearGradient id="paint1_linear_68_38559" x1="11.3086" y1="9.79553" x2="10.008" y2="14.9257" gradientUnits="userSpaceOnUse">
<stop stop-color="#FF922E"/>
<stop offset="1" stop-color="#FFC239"/>
</linearGradient>
<linearGradient id="paint2_linear_68_38559" x1="4.97454" y1="7.93885" x2="13.3258" y2="10.6946" gradientUnits="userSpaceOnUse">
<stop stop-color="#D86C1A"/>
<stop offset="1" stop-color="#E87E25"/>
</linearGradient>
<linearGradient id="paint3_linear_68_38559" x1="12.0786" y1="7.23212" x2="10.7782" y2="12.3622" gradientUnits="userSpaceOnUse">
<stop stop-color="#FF922E"/>
<stop offset="1" stop-color="#FFC239"/>
</linearGradient>
<linearGradient id="paint4_linear_68_38559" x1="13.254" y1="10.8226" x2="29.2632" y2="10.8226" gradientUnits="userSpaceOnUse">
<stop stop-color="#D86C1A"/>
<stop offset="1" stop-color="#E87E25"/>
</linearGradient>
<clipPath id="clip0_68_38559">
<rect width="32" height="18.625" fill="white" transform="translate(0 0.6875)"/>
</clipPath>
</defs>
</svg>
