<svg width="32" height="20" viewBox="0 0 32 20" fill="none" xmlns="http://www.w3.org/2000/svg">
<g clip-path="url(#clip0_74_24402)">
<path d="M19.84 10.9208L18.4297 10.9327C16.696 9.98211 13.5357 9.34583 9.92382 9.34583C6.13151 9.34583 2.83688 10.0473 1.16889 11.0776L0.0078125 11.0873V12.6028C0.0078125 12.6061 0.0078125 12.6094 0.0078125 12.6129C0.0078125 14.4167 4.44814 15.8791 9.92382 15.8791C15.3995 15.8791 19.84 14.4167 19.84 12.6129C19.84 12.6094 19.84 12.6061 19.84 12.6028V10.9208Z" fill="url(#paint0_linear_74_24402)"/>
<path d="M9.92382 14.2834C15.4003 14.2834 19.8398 12.821 19.8398 11.017C19.8398 9.21302 15.4003 7.75061 9.92382 7.75061C4.44735 7.75061 0.0078125 9.21302 0.0078125 11.017C0.0078125 12.821 4.44735 14.2834 9.92382 14.2834Z" fill="#FF922E"/>
<path d="M9.92452 13.0239C13.2893 13.0239 16.017 12.1254 16.017 11.0171C16.017 9.90871 13.2893 9.01025 9.92452 9.01025C6.55974 9.01025 3.83203 9.90871 3.83203 11.0171C3.83203 12.1254 6.55974 13.0239 9.92452 13.0239Z" fill="white"/>
<path d="M9.93067 8.95439H9.6482C9.42838 8.95747 9.21201 8.96436 8.99908 8.97504L9.0681 9.12725C9.35145 9.11341 9.64183 9.10638 9.93067 9.10638V8.95264V8.95439ZM8.08815 9.0451L8.06617 9.04752H8.05935H8.05518H8.05254H8.04858H8.0455H8.04177H8.03869H8.03473H8.03188H8.02792H8.01297H8.01033H7.97978H7.97714H7.96593H7.96329H7.95538H7.95296H7.94988H7.94395H7.94087H7.93779H7.93472H7.92834H7.92197H7.91449H7.9112H7.90812H7.90482H7.89998H7.89669H7.89361H7.89031H7.8835H7.87668H7.86987H7.86327H7.85646C7.63724 9.08793 7.42458 9.12426 7.21855 9.15646L7.42122 9.29527C7.68039 9.25419 7.95098 9.21927 8.22554 9.1916L8.08837 9.04422L8.08815 9.0451ZM6.40918 9.3102C6.16012 9.36621 5.92404 9.42771 5.70246 9.49447L5.69718 9.49623L5.69191 9.49777H5.68949H5.68729H5.68487H5.6829H5.6807L5.99812 9.61066C6.20936 9.54631 6.43775 9.48679 6.67472 9.43342L6.41093 9.30603L6.40918 9.3102ZM5.04147 9.72751C4.86001 9.80091 4.68336 9.88562 4.51258 9.98118L4.91683 10.0585C5.0749 9.9702 5.23834 9.89177 5.40614 9.82371L5.04235 9.72707L5.04147 9.72751ZM4.1046 10.2579C4.01891 10.3278 3.94055 10.4062 3.87071 10.4918C3.87005 10.4926 3.86946 10.4934 3.86895 10.4943C3.86849 10.4951 3.8679 10.4958 3.8672 10.4964L3.86544 10.4986L3.8639 10.5008L3.86214 10.503L3.86038 10.5052L3.85862 10.5074V10.5085V10.5096V10.5107V10.5118V10.5131C3.85867 10.5137 3.85867 10.5142 3.85862 10.5147L3.85708 10.5171L3.85423 10.521L4.30969 10.5557C4.38298 10.4543 4.46939 10.3629 4.56666 10.2841L4.13208 10.2274L4.1046 10.2579ZM3.68541 10.8558C3.67883 10.8833 3.67398 10.9113 3.6709 10.9394C3.6709 10.9394 3.6709 10.941 3.6709 10.9419V10.9443V10.9467V10.9482V10.9496V10.9531V10.9564V10.9862V10.9886V10.9897V10.9908V10.9933V10.997V10.9994V11.0005V11.0016V11.004V11.0051V11.0062V11.0086V11.0097V11.0108V11.0119V11.0152V11.0163V11.0174V11.0185V11.0196V11.0207V11.0229V11.024V11.0262C3.6709 11.0262 3.6709 11.0286 3.6709 11.0297V11.0319C3.67222 11.0572 3.67486 11.0823 3.67881 11.1073C3.67868 11.108 3.67868 11.1087 3.67881 11.1094V11.1105V11.1125V11.1176V11.1198C3.68013 11.1268 3.68145 11.1336 3.68299 11.1406L4.14922 11.1299C4.12904 11.0356 4.13017 10.9381 4.15252 10.8443L3.68651 10.8325L3.68541 10.8558ZM4.27298 11.4341L3.81664 11.4677C3.86218 11.5342 3.91369 11.5965 3.97051 11.6537L3.97271 11.6559L3.97491 11.6581L3.97711 11.6605H3.9782V11.6616L3.9793 11.6627H3.9804H3.9815L3.9826 11.6638V11.6649V11.666H3.9837L3.9848 11.6671L3.987 11.6691L3.9892 11.6711L3.99139 11.6732L3.99359 11.6754C3.99531 11.6768 3.99691 11.6783 3.99843 11.6798C4.01777 11.6976 4.03778 11.7154 4.05844 11.733L4.49456 11.6774C4.41118 11.6055 4.33677 11.5238 4.27298 11.4341ZM4.89507 11.9634L4.48928 12.0398L4.51478 12.0545L4.51852 12.0565L4.52182 12.0583H4.52335H4.52489H4.52643H4.52775H4.52885H4.53017H4.53149H4.53281H4.53435H4.53632L4.53962 12.06L4.54292 12.0618C4.62981 12.1095 4.72207 12.1558 4.81967 12.2006L4.82385 12.2026L4.8278 12.2043H4.83022H4.83154H4.83374H4.83506H4.83704L4.84055 12.2059H4.84209H4.84319H4.84451H4.84561H4.84671H4.84803H4.84934H4.85066H4.85242H4.85396H4.85572H4.85726H4.85924L4.86319 12.2076L4.86737 12.2094L4.87177 12.2111C4.90929 12.2281 4.94767 12.2447 4.98695 12.2608L5.35383 12.1654C5.18782 12.097 5.0263 12.0181 4.87023 11.9293L4.89507 11.9634ZM5.96382 12.4092L5.64377 12.5215L5.72686 12.5467L5.73214 12.5483L5.73741 12.5498H5.73983H5.74225H5.74488H5.7473H5.74972L5.75456 12.5511H5.75698H5.75939H5.76159H5.76379H5.76621H5.76819H5.77038H5.77258H5.775H5.7772H5.77896H5.78115H5.78313H5.78533H5.78687H5.78907H5.79083H5.79281H5.7939H5.79544H5.79676H5.7983H5.7994H5.80138H5.8027H5.8038H5.80577H5.80687H5.80819H5.80929H5.81127H5.81237H5.81369H5.81501H5.81677H5.8183H5.81984H5.82116H5.82248H5.8238H5.82556H5.82666H5.82776H5.82974H5.83083H5.83215H5.83325H5.83523H5.83743H5.83941H5.84051H5.84204H5.84424H5.84578H5.8482H5.84952H5.85062H5.85282H5.85501H5.85721H5.85985H5.86139H5.86403H5.86557H5.86798H5.86952H5.87238L5.877 12.5524L5.88205 12.5538H5.88491H5.88645H5.88953H5.89106H5.89392L5.89876 12.5551L5.90381 12.5564H5.90667H5.90821H5.91129H5.91283H5.91568L5.92074 12.5579L5.9258 12.5593H5.92887H5.93063H5.93393H5.93569H5.9392L5.94448 12.5608L5.94976 12.5623L5.95503 12.5636L5.96404 12.5661L5.96932 12.5674L5.9746 12.5689L5.97987 12.5702L5.98888 12.5727L5.99416 12.5742L5.99943 12.5755L6.00471 12.5768L6.01372 12.5792L6.01922 12.5808L6.02471 12.5821L6.02999 12.5836L6.03548 12.585H6.039L6.04428 12.5863L6.04977 12.5876L6.05505 12.5889H6.05835H6.0601H6.0634H6.06516H6.06868L6.07395 12.5902L6.07901 12.5915H6.08209H6.08384H6.0867H6.08846H6.09176L6.09681 12.5929L6.10187 12.5942H6.10517H6.10781H6.11044H6.11198H6.11484H6.1177H6.12055L6.12539 12.5955H6.12781H6.12935H6.13177H6.1333H6.1344H6.1366H6.1854H6.18672H6.18892H6.19002H6.19156H6.19331H6.19573H6.19793H6.19947H6.20189H6.20299H6.20431H6.2065H6.20892H6.21046H6.21222H6.21354H6.21464H6.21683H6.21815H6.21947H6.22145H6.22277H6.22936H6.2309H6.23266H6.23376H6.23552H6.23684H6.23838H6.23948H6.24189H6.24365H6.24585H6.24761H6.24981H6.25091H6.25267H6.25486H6.25596H6.25772H6.2597H6.26212H6.2641H6.26651H6.26849H6.27091H6.27289H6.27531H6.27772H6.28036H6.283H6.28542H6.28806H6.29047H6.29333H6.29597H6.29861L6.3041 12.5968H6.30674H6.30938H6.31202H6.31487H6.31751L6.32323 12.5981L6.32894 12.5994L6.33466 12.6008L6.35268 12.6049L6.61866 12.4782C6.38236 12.4244 6.15595 12.3642 5.94624 12.2992L5.96382 12.4092ZM7.38121 12.7321L7.17458 12.8707C7.21767 12.8777 7.26097 12.8845 7.3045 12.8911H7.31087H7.31681H7.32252H7.32538H7.32912H7.33175H7.34253H7.3445H7.35396H7.35659H7.35857H7.36605H7.3689H7.3711H7.37396H7.37748H7.38055H7.38341H7.38649L7.39264 12.8922H7.39902H7.40539C7.60967 12.9215 7.81953 12.9475 8.03495 12.9702L8.17564 12.8233C7.90174 12.7949 7.63203 12.7593 7.37374 12.7176L7.38121 12.7321ZM9.02436 12.903L8.95182 13.055H9.00369H9.01051H9.03535H9.05733C9.32727 13.0673 9.60314 13.0741 9.88297 13.0747L9.88648 12.921C9.59764 12.921 9.3077 12.9124 9.02458 12.8979L9.02436 12.903ZM11.5929 12.8468C11.3177 12.874 11.0337 12.8944 10.7488 12.9076L10.8148 13.06L10.9038 13.0558H10.9108H10.9179H11.0906H11.0975H11.1043H11.1111H11.1181C11.3246 13.0428 11.5272 13.0265 11.7259 13.0069L11.5929 12.8468ZM13.1517 12.6052C12.9125 12.6579 12.6595 12.7051 12.3997 12.7455L12.599 12.8848C12.7523 12.861 12.902 12.8353 13.0479 12.8077L13.0699 12.8033L13.0758 12.8022L13.0818 12.8011L13.0877 12.8H13.0914H13.0939H13.0974H13.0993H13.1029H13.1084L13.1139 12.7989H13.1169H13.12H13.1229H13.1244H13.1317H13.1341H13.1367H13.1383H13.1416H13.1429H13.1451H13.149H13.1512H13.1525H13.1539H13.1552H13.1574H13.1602H13.1616H13.1649H13.1666H13.1682H13.1699H13.1721H13.1741H13.1765H13.18H13.1827H13.1846H13.1871H13.1893H13.1919H13.1941H13.1965H13.1991H13.2018H13.2044H13.2066H13.2093H13.2115H13.2141H13.2165H13.2191H13.2246H13.2275H13.2304H13.2332H13.2361H13.2389H13.2418H13.2446L13.2506 12.7978L13.2563 12.7967L13.2622 12.7956L13.2682 12.7943C13.3113 12.7853 13.3539 12.7762 13.3961 12.7668L13.1536 12.6047L13.1517 12.6052ZM14.4266 12.2226C14.245 12.2961 14.045 12.3658 13.8331 12.4294L14.1479 12.5434C14.3785 12.4743 14.593 12.3996 14.79 12.3199L14.4286 12.2221L14.4266 12.2226ZM15.3059 11.7339C15.1856 11.8299 15.0573 11.9152 14.9223 11.9891L15.3246 12.0675C15.3483 12.0543 15.3716 12.0411 15.3943 12.0277L15.3965 12.0264H15.3976L15.3993 12.0253H15.4006H15.4017H15.403H15.4044H15.4057H15.407H15.4085H15.4099H15.4114H15.4127H15.4143H15.4156H15.4173H15.4189L15.4206 12.0242L15.4239 12.022L15.4272 12.0201C15.4838 11.9857 15.5375 11.9506 15.5884 11.9148L15.5914 11.9126L15.5945 11.9105L15.5976 11.9083L15.6004 11.9063H15.6018H15.6033L15.6046 11.9052H15.6059H15.607H15.6084H15.6095H15.6108H15.6119H15.6132H15.6145H15.6158L15.6182 11.9032L15.6209 11.9012L15.6235 11.8993C15.6484 11.8806 15.6723 11.8619 15.6956 11.843L15.2624 11.785L15.3059 11.7339ZM15.7064 11.1819C15.6787 11.2834 15.6321 11.3787 15.569 11.4628L16.0238 11.4986C16.0463 11.4678 16.0671 11.4357 16.0862 11.4027L16.0876 11.4005V11.3991V11.3978V11.3967V11.3954V11.3943V11.3928V11.3917V11.3906V11.3895V11.3873C16.0875 11.3866 16.0875 11.3858 16.0876 11.3851L16.0889 11.3829C16.0889 11.3829 16.0889 11.3814 16.0889 11.3807L16.0902 11.3785C16.1153 11.3294 16.1355 11.2779 16.1502 11.2248V11.2237V11.2223V11.2212V11.2201L15.6844 11.2072L15.7064 11.1819ZM16.0552 10.5819L15.5982 10.6142C15.6556 10.6997 15.6956 10.7955 15.7161 10.8964L16.1827 10.8872C16.1788 10.8652 16.1737 10.845 16.168 10.8241V10.8217V10.8193V10.8182V10.8171V10.816V10.8149V10.8138V10.8127V10.8116V10.8092V10.7872V10.7861V10.785V10.7837V10.7824V10.7809V10.7793V10.7778V10.7754C16.1681 10.7746 16.1681 10.7738 16.168 10.773V10.7706V10.7681C16.1679 10.7673 16.1679 10.7665 16.168 10.7657V10.7633C16.1446 10.704 16.1152 10.6474 16.0801 10.5942L16.0552 10.5819ZM15.3958 10.0086L14.9882 10.084C15.1177 10.1587 15.2401 10.2451 15.3538 10.342L15.7915 10.2867L15.7607 10.2606L15.7592 10.2592L15.7576 10.2579L15.7561 10.2568L15.7548 10.2557V10.2546L15.7534 10.2535V10.2524L15.7521 10.2513H15.7508H15.7495L15.7468 10.2494L15.7442 10.2472C15.6342 10.159 15.5177 10.0793 15.3958 10.0086ZM14.2527 9.52413L13.9303 9.63526C14.1387 9.70115 14.3336 9.77187 14.5104 9.84655L14.8792 9.75211C14.7926 9.71543 14.702 9.67963 14.6082 9.64492L14.6033 9.64317L14.5987 9.64163L14.5941 9.64009H14.5917H14.5897H14.5877H14.5862H14.5842H14.5827H14.5807H14.5787H14.577H14.575H14.5737H14.5719H14.5706H14.5688H14.5677H14.5662H14.5649H14.5629H14.5616H14.5594L14.555 9.63856L14.5506 9.63702L14.5477 9.63592H14.5462H14.5433L14.5387 9.63438L14.5341 9.63262C14.4481 9.60232 14.3596 9.57304 14.2686 9.54477L14.2527 9.52413ZM12.7287 9.17117L12.5197 9.30888C12.7764 9.35105 13.0253 9.40025 13.2618 9.45472L13.5309 9.32777C13.4038 9.29849 13.2734 9.2706 13.1396 9.24409L13.1334 9.24277H13.1273L13.1053 9.23838H13.0989L13.0928 9.23706H13.0897L13.0771 9.23465H13.0708L13.0646 9.23333L13.0426 9.22916L13.0365 9.22806L13.0303 9.22674L13.024 9.22564L13.0145 9.22389L13.0083 9.22257L12.9998 9.21795L12.9936 9.21686L12.9875 9.21554L12.978 9.21378L12.9716 9.21268L12.9653 9.21159L12.9591 9.21049H12.953L12.9466 9.20939H12.9435H12.9373H12.9312L12.925 9.20829L12.9187 9.20719L12.9123 9.2061H12.9092L12.9028 9.205L12.8967 9.2039L12.8905 9.2028H12.8877H12.8846H12.8817H12.8789H12.876H12.8732H12.8701L12.8641 9.2017H12.8584H12.8556H12.8529H12.8501H12.8477H12.845H12.8428H12.8402H12.8378H12.8353H12.8325H12.8301H12.8272H12.825H12.8224H12.8204H12.8178H12.8167H12.8147H12.8123H12.8101H12.8057H12.8035H12.78H12.7775H12.7734H12.7712H12.7668H12.7646H12.7619H12.7597H12.7556H12.7527H12.7509H12.7479H12.7461H12.7424L12.7364 9.2006H12.7316L12.7287 9.17117ZM10.9566 8.98185L10.8807 9.13384C11.1645 9.14921 11.447 9.17183 11.7202 9.20104L11.8644 9.05455C11.8042 9.04796 11.7437 9.04203 11.6826 9.0361H11.676H11.6697H11.6666H11.6149H11.6116H11.6081H11.6013H11.5945H11.5877C11.3816 9.01765 11.1717 9.00258 10.9579 8.99085L10.9566 8.98185Z" fill="#FF922E"/>
<path d="M9.92464 8.69769C10.8414 8.69536 11.7572 8.75629 12.6656 8.87999C13.5039 8.99683 14.257 9.16397 14.9038 9.37702C15.5505 9.59006 16.058 9.83825 16.4128 10.1143C16.7799 10.3999 16.9661 10.704 16.9661 11.017C16.9661 11.33 16.7808 11.634 16.4128 11.9195C16.058 12.1956 15.5505 12.4438 14.9038 12.6566C14.257 12.8694 13.5039 13.037 12.6656 13.1539C11.7572 13.2774 10.8414 13.3382 9.92464 13.3359C9.00798 13.3382 8.09224 13.2774 7.18395 13.1539C6.34556 13.037 5.59246 12.8696 4.94576 12.6566C4.29905 12.4436 3.79127 12.196 3.4378 11.9195C3.07071 11.634 2.88452 11.3298 2.88452 11.0166C2.88452 10.7034 3.07071 10.3999 3.4378 10.1139C3.79237 9.83759 4.30015 9.58962 4.94686 9.37658C5.59356 9.16353 6.34666 8.99639 7.18505 8.87955C8.09332 8.75585 9.00906 8.69494 9.92574 8.69725M9.92574 8.65881C5.97253 8.65881 2.76758 9.71438 2.76758 11.0166C2.76758 12.3188 5.97143 13.375 9.92464 13.375C13.8779 13.375 17.083 12.3192 17.083 11.017C17.083 9.71482 13.8792 8.65925 9.92464 8.65925L9.92574 8.65881Z" fill="#F7FAF6"/>
<path d="M9.92469 8.83953C10.7853 8.83736 11.6451 8.89453 12.4979 9.01063C13.285 9.12045 13.9926 9.27727 14.5991 9.47735C15.2056 9.67744 15.683 9.91025 16.0159 10.1694C16.3607 10.4378 16.5355 10.7231 16.5355 11.017C16.5355 11.3109 16.3596 11.5962 16.0159 11.8646C15.683 12.1239 15.2063 12.3567 14.5991 12.5568C13.992 12.7569 13.2857 12.9137 12.4979 13.0235C11.6451 13.1396 10.7853 13.1968 9.92469 13.1947C9.06447 13.1968 8.20516 13.1396 7.35281 13.0235C6.56564 12.9137 5.85804 12.7567 5.25135 12.5568C4.64465 12.357 4.16654 12.1239 3.83352 11.8646C3.48884 11.5962 3.31409 11.3111 3.31409 11.017C3.31409 10.7229 3.48884 10.4378 3.83352 10.1694C4.16654 9.91025 4.64311 9.67722 5.25025 9.47735C5.85739 9.27749 6.56454 9.12023 7.35171 9.01063C8.20441 8.89453 9.06412 8.83736 9.92469 8.83953ZM9.92469 8.8011C6.20975 8.8011 3.19824 9.79319 3.19824 11.017C3.19824 12.2408 6.20975 13.2331 9.92578 13.2331C13.6418 13.2331 16.6535 12.241 16.6535 11.017C16.6535 9.79297 13.6403 8.80066 9.92469 8.80066V8.8011Z" fill="#F7FAF6"/>
<path d="M13.2087 11.8518C13.1388 11.8426 13.0676 11.855 13.0049 11.8874H11.9986L11.8564 12.0181C11.825 12.0469 11.7419 12.0662 11.6489 12.0662L11.8434 11.8885H11.6961L11.5544 12.0179C11.5227 12.0467 11.4396 12.066 11.3466 12.066L11.541 11.8885H11.3948L11.2532 12.0177C11.2216 12.0464 11.1385 12.0658 11.0455 12.0658L11.2396 11.8887H10.1543H9.41201C9.43927 11.8545 9.53335 11.8305 9.64085 11.8305H10.2031L11.065 10.8308H9.54566C9.14999 11.2463 8.75432 11.7155 8.35864 12.1418C8.2927 12.2138 8.45383 12.3023 8.68222 12.303C10.0831 12.3082 11.4838 12.2979 12.8847 12.303C12.9647 12.303 13.0353 12.2858 13.0562 12.2604L13.3309 11.9272C13.3571 11.8956 13.3046 11.8615 13.2087 11.8518Z" fill="#FF922E"/>
<path d="M12.0099 9.73157V9.73047H10.4551C10.3096 9.73047 10.1913 9.76938 10.1913 9.8184H10.9646C10.9286 9.85049 10.8372 9.87225 10.7332 9.87313L10.4366 9.87621C10.303 10.0192 10.1695 10.1625 10.0361 10.306H11.5175L11.9371 9.81796H11.978C12.0457 9.81796 12.1057 9.80169 12.1132 9.77949C12.1207 9.75729 12.0741 9.73618 12.0099 9.73157Z" fill="url(#paint1_linear_74_24402)"/>
<path d="M13.2531 10.4699C13.2531 10.4655 13.2511 10.4614 13.2498 10.457C13.1678 10.1554 12.3892 9.92612 11.4693 9.92612H8.80882C8.58768 9.92612 8.39116 9.9718 8.31467 10.0401L8.1054 10.207H7.87327C7.71302 10.207 7.56179 10.2316 7.46419 10.2729H8.78156L9.12558 10.2747C9.29681 10.2758 9.41881 10.327 9.39287 10.3801L9.08205 10.661H8.93565L9.23197 10.3904H9.13898L8.84267 10.6623H8.65538L8.95214 10.3917C8.46238 10.3887 8.06583 10.3854 7.5763 10.3823C7.45825 10.3823 7.349 10.4029 7.29427 10.4372C7.27429 10.4488 7.25703 10.4646 7.24371 10.4835C7.22744 10.5088 7.29163 10.5325 7.36945 10.5292H7.37208C7.45693 10.5251 7.49342 10.5005 7.49606 10.4987H8.34852C8.34852 10.5207 8.2929 10.5396 8.22454 10.5396H7.77897C7.16172 11.1438 6.72934 11.5791 6.54974 11.7137C6.37015 11.8484 6.52337 11.9039 6.65394 11.925C6.71401 11.9343 6.77473 11.9388 6.83551 11.9384H7.9601L8.70748 11.2184H8.48766C8.36786 11.2184 8.2707 11.1866 8.2707 11.1471H9.5263C10.0585 11.3937 10.5907 11.643 11.1228 11.8899C11.6344 11.8899 12.1457 11.8872 12.6572 11.8872L10.8819 11.1009L11.4686 11.1062C12.3479 11.1062 13.1045 10.8965 13.2364 10.6103C13.2573 10.5666 13.2632 10.5173 13.2531 10.4699ZM8.73672 10.759H8.5646L8.64857 10.6825H8.82025L8.73672 10.759ZM8.97544 10.759H8.84487L8.92818 10.683H9.05875L8.97544 10.759ZM9.7448 10.759C9.5773 10.759 9.37287 10.759 9.13151 10.759L9.21526 10.6834H9.82812L9.7448 10.759ZM9.2379 10.6626L9.5263 10.4001C9.77514 10.4012 9.98155 10.4016 10.1339 10.4018L9.84812 10.6623L9.2379 10.6626ZM10.0385 10.7596H9.89934L9.98309 10.6834H10.1225L10.0385 10.7596ZM10.0055 10.6626L10.2913 10.4021H10.4306L10.1449 10.6623L10.0055 10.6626ZM10.8129 10.7135C10.6081 10.7453 10.4011 10.7607 10.1939 10.7594L10.2776 10.683C10.4342 10.6856 10.5682 10.6847 10.6733 10.683C10.8694 10.6795 10.9591 10.6729 11.0452 10.6573C11.0804 10.6513 11.1152 10.6434 11.1494 10.6338C11.0392 10.6688 10.9263 10.6954 10.812 10.7133L10.8129 10.7135ZM11.2468 10.5655C11.2114 10.6094 11.0729 10.6314 10.9989 10.6421C10.8993 10.6573 10.8122 10.6593 10.6423 10.6626C10.5082 10.6652 10.3919 10.6643 10.2998 10.6626L10.5843 10.4029C10.6228 10.4007 10.9292 10.3854 11.1228 10.4532C11.1481 10.462 11.289 10.5114 11.2459 10.5653L11.2468 10.5655Z" fill="#FF922E"/>
<path d="M10.1348 10.4018C9.98246 10.4018 9.77606 10.4018 9.52722 10.4001L9.23706 10.6625H9.84969L10.1348 10.4018ZM9.3373 10.6392L9.57602 10.4234L10.0352 10.4247L9.80024 10.6392H9.3373Z" fill="white"/>
<path d="M8.84558 10.7588L8.97549 10.7586L9.05946 10.6827H8.92867L8.84558 10.7588Z" fill="white"/>
<path d="M8.5647 10.7592H8.73681L8.82035 10.683H8.64867L8.5647 10.7592ZM8.69791 10.7058H8.71989L8.68692 10.7359H8.66493L8.69791 10.7058Z" fill="white"/>
<path d="M13.3231 10.4699C13.3222 10.4654 13.3211 10.4609 13.3198 10.4565C13.2787 10.3052 13.0659 10.1653 12.721 10.0629C12.3761 9.96058 11.9332 9.90457 11.47 9.90457H8.8089C8.55984 9.90457 8.33519 9.95641 8.24946 10.0333L8.14527 10.1163L8.05866 10.1844H7.87335C7.69266 10.1844 7.51878 10.2125 7.40866 10.2597L7.32073 10.2968H8.78054L9.12302 10.2986C9.17534 10.2977 9.22743 10.3059 9.27689 10.323C9.30942 10.3357 9.32635 10.3517 9.32525 10.368H9.08983L9.07312 10.3834L8.79351 10.639H8.75548L8.86385 10.5402L9.01773 10.3994L9.05092 10.3691H8.9531L8.26221 10.3645L7.5777 10.3601H7.57C7.42778 10.3601 7.29809 10.3858 7.23192 10.4275C7.2091 10.4406 7.18943 10.4585 7.17433 10.48C7.16268 10.4982 7.17631 10.5169 7.21192 10.5314C7.25746 10.5472 7.30549 10.5547 7.3537 10.5534C7.36161 10.5534 7.36997 10.5534 7.37788 10.5534H7.38206C7.43387 10.5523 7.48506 10.542 7.53329 10.5231H7.72387L7.71332 10.5334C7.59374 10.6505 7.4812 10.7611 7.37568 10.865C6.94264 11.2907 6.62984 11.5982 6.48652 11.7058C6.27747 11.8624 6.483 11.9243 6.6239 11.9474C6.69425 11.9581 6.76531 11.9633 6.83647 11.963H8.00964L8.0259 11.9474L8.77329 11.2274L8.80494 11.1969H8.48708C8.44275 11.199 8.39854 11.1904 8.35827 11.1716H9.48946C9.74862 11.292 10.0117 11.4146 10.2663 11.5332C10.5169 11.65 10.7754 11.7704 11.0304 11.8887H11.1163C10.5861 11.6428 10.0559 11.3944 9.52551 11.1486H8.27012C8.27012 11.1881 8.36728 11.22 8.48708 11.22H8.7069L7.95952 11.9399H6.83559C6.77481 11.9403 6.71409 11.9358 6.65402 11.9265C6.52345 11.9046 6.36825 11.8512 6.54982 11.7152C6.73139 11.5793 7.1618 11.1453 7.77905 10.5411H8.22374C8.2921 10.5411 8.34772 10.5226 8.34772 10.5002H7.49526C7.49263 10.502 7.45614 10.5266 7.37129 10.5307H7.35392C7.28292 10.5307 7.22796 10.5088 7.24401 10.4848C7.25733 10.466 7.27459 10.4501 7.29457 10.4385C7.34842 10.4047 7.45482 10.3836 7.57044 10.3836H7.5766C8.06613 10.3867 8.46268 10.39 8.95244 10.393L8.65568 10.6636H8.84297L9.13929 10.393H9.23227L8.93595 10.6636H9.08235L9.39296 10.3821C9.41889 10.3289 9.29689 10.2777 9.12566 10.2766L8.78164 10.2749H7.46427C7.56187 10.2331 7.7131 10.209 7.87335 10.209H8.10548L8.31475 10.0421C8.39036 9.97376 8.58776 9.92807 8.8089 9.92807H11.47C12.3893 9.92807 13.1679 10.1574 13.2505 10.4589C13.2519 10.4633 13.253 10.4675 13.2538 10.4719C13.2635 10.5191 13.2573 10.5682 13.2363 10.6116C13.1044 10.8971 12.3475 11.1075 11.4685 11.1075L10.8818 11.1022L12.657 11.8885H12.745L12.714 11.8749L11.6808 11.4174L11.0244 11.1266L11.4667 11.1306H11.4685C11.9114 11.1306 12.3409 11.0787 12.6775 10.9845C13.014 10.8903 13.2391 10.7585 13.3053 10.6149C13.327 10.5698 13.3332 10.5189 13.3231 10.4699ZM9.32459 10.3763L9.29316 10.404L9.29799 10.3994L9.32459 10.3752V10.3763Z" fill="white"/>
<path d="M9.13062 10.7584H9.3234H9.74391L9.82722 10.6823H9.21437L9.13062 10.7584ZM9.26251 10.7058H9.72632L9.69379 10.7355H9.22997L9.26251 10.7058Z" fill="white"/>
<path d="M11.1489 10.6338C11.1146 10.6435 11.0798 10.6513 11.0447 10.6573C10.9568 10.6729 10.8689 10.6793 10.6728 10.683C10.6154 10.683 10.5492 10.6846 10.4749 10.6846C10.4136 10.6846 10.3472 10.6846 10.2771 10.683L10.1934 10.7595C10.4006 10.7608 10.6076 10.7454 10.8124 10.7136C10.9264 10.6955 11.0389 10.6689 11.1489 10.6338ZM10.296 10.7349L10.3266 10.7068C10.3767 10.7068 10.427 10.7079 10.4767 10.7079C10.5427 10.7079 10.6112 10.7079 10.6776 10.7061H10.6972C10.5641 10.7232 10.4302 10.7328 10.296 10.7349Z" fill="white"/>
<path d="M10.6414 10.6625C10.8113 10.6592 10.8984 10.6573 10.998 10.6421C11.0721 10.6307 11.2105 10.6096 11.2459 10.5654C11.2899 10.5115 11.1481 10.4621 11.122 10.453C10.994 10.4091 10.8166 10.3996 10.6999 10.3996C10.6403 10.3996 10.5964 10.4018 10.5834 10.4027L10.299 10.6625C10.3493 10.6625 10.4067 10.6641 10.4702 10.6641C10.5232 10.6641 10.5814 10.6636 10.6414 10.6625ZM10.6348 10.4238C10.6526 10.4238 10.6748 10.4238 10.7008 10.4238C10.8107 10.4238 10.963 10.4319 11.0716 10.47C11.1138 10.4847 11.2088 10.5232 11.1789 10.5605C11.1521 10.5944 11.0378 10.6118 10.9694 10.6221C10.8832 10.6353 10.81 10.637 10.6381 10.6405C10.5827 10.6416 10.5265 10.6421 10.4711 10.6421H10.3983L10.6348 10.4238Z" fill="white"/>
<path d="M10.4292 10.4021H10.2898L10.004 10.6628H10.1434L10.4292 10.4021Z" fill="white"/>
<path d="M10.0377 10.7595L10.1217 10.6827H9.98231L9.89856 10.759H10.0377V10.7595Z" fill="white"/>
<path d="M6.89939 8.69168C7.90635 8.55405 8.92163 8.48634 9.93794 8.489V7.75085H9.92387C8.53901 7.75085 7.22208 7.84428 6.02539 8.01332L6.89939 8.69168Z" fill="#F7FAF6"/>
<path d="M14.7394 8.16113L13.708 8.77369C14.6257 8.94149 15.4206 9.16486 16.0702 9.43743L17.7395 9.00629C16.9237 8.66278 15.9036 8.37462 14.7394 8.16113Z" fill="white"/>
<path d="M0.274414 11.8587V13.3658C0.586117 13.8005 1.1616 14.2017 1.94306 14.5501V12.9467L0.316399 11.8009C0.302331 11.82 0.288263 11.8393 0.274414 11.8587Z" fill="#EDE8E8"/>
<path d="M5.5957 15.5516C6.76074 15.7381 8.05349 15.8519 9.41922 15.8743V14.2793L5.5957 13.9564V15.5516Z" fill="#EDE8E8"/>
<path d="M14.3564 15.5347C15.5705 15.3344 16.6426 15.0546 17.5091 14.7159V13.2296L14.3564 14.0104V15.5347Z" fill="#EDE8E8"/>
<path d="M19.8402 12.6123C19.8402 12.6088 19.8402 12.6055 19.8402 12.6022V10.9209L19.7114 10.922L19.5762 11.7685V13.3635C19.7476 13.1223 19.8402 12.8708 19.8402 12.6123Z" fill="#EDE8E8"/>
<path d="M17.7259 11.0188C17.7259 11.2185 17.6565 11.417 17.5195 11.609L19.5773 11.7684C19.7496 11.5268 19.841 11.2756 19.841 11.0171C19.839 10.826 19.791 10.6383 19.7012 10.4697L17.616 10.5859C17.6869 10.7193 17.7246 10.8678 17.7259 11.0188Z" fill="white"/>
<path d="M17.5091 13.2296L15.9297 12.7666C15.2294 13.0256 14.3943 13.2323 13.4475 13.3803L14.3565 14.0104C15.5615 13.8213 16.632 13.5545 17.5091 13.2296Z" fill="white"/>
<path d="M5.5957 13.9569C6.76074 14.1438 8.05415 14.2574 9.42054 14.2801L9.53045 13.5806C8.52549 13.5666 7.52281 13.4812 6.52993 13.3252L5.5957 13.9569Z" fill="white"/>
<path d="M0.274414 11.7708C0.583918 12.2026 1.15369 12.601 1.92547 12.9476L3.61016 12.5488C2.99665 12.2676 2.56932 11.9544 2.34071 11.6182L0.274414 11.7708Z" fill="white"/>
<path d="M0.348511 10.1666L2.43964 10.3601C2.72167 10.0284 3.19846 9.72315 3.85637 9.45234L2.1319 8.99704C1.31505 9.33835 0.701099 9.73479 0.348511 10.1666Z" fill="white"/>
<path d="M6.89939 8.69168C7.90635 8.55405 8.92163 8.48634 9.93794 8.489V7.75085H9.92387C8.53901 7.75085 7.22208 7.84428 6.02539 8.01332L6.89939 8.69168Z" fill="white"/>
<path d="M20.61 8.35747L19.1999 8.36933C17.4662 7.41853 14.3057 6.78247 10.6929 6.78247C6.90041 6.78247 3.60577 7.48398 1.93779 8.51429L0.777588 8.52395V10.0394C0.777588 10.0427 0.777588 10.046 0.777588 10.0495C0.777588 11.8536 5.21792 13.3151 10.694 13.3151C16.1702 13.3151 20.61 11.8536 20.61 10.0489C20.61 10.0454 20.61 10.0421 20.61 10.0388V8.35747Z" fill="url(#paint2_linear_74_24402)"/>
<path d="M10.6943 11.7203C16.1708 11.7203 20.6103 10.2579 20.6103 8.4539C20.6103 6.64991 16.1708 5.1875 10.6943 5.1875C5.21786 5.1875 0.77832 6.64991 0.77832 8.4539C0.77832 10.2579 5.21786 11.7203 10.6943 11.7203Z" fill="#FF922E"/>
<path d="M10.694 10.4605C14.0588 10.4605 16.7865 9.562 16.7865 8.45368C16.7865 7.34534 14.0588 6.44688 10.694 6.44688C7.32927 6.44688 4.60156 7.34534 4.60156 8.45368C4.60156 9.562 7.32927 10.4605 10.694 10.4605Z" fill="white"/>
<path d="M10.7005 6.39043H10.418C10.1982 6.3935 9.98176 6.4004 9.76869 6.41107L9.83771 6.56328C10.1213 6.54944 10.4114 6.54242 10.7005 6.54242V6.38867V6.39043ZM8.85776 6.48114L8.83578 6.48355H8.82919H8.82479H8.82215H8.8182H8.8083H8.80457H8.80127H8.79753H8.79643H8.79248H8.78237H8.77973H8.74851H8.74609H8.73532H8.73247H8.72477H8.72213H8.71334H8.71026H8.70719H8.70323H8.69708H8.6907H8.68696H8.68367H8.68037H8.67729H8.67399H8.66938H8.66586H8.66256H8.65927H8.65245H8.64564H8.63882H8.63201H8.6252C8.40729 6.50859 8.19523 6.53789 7.98904 6.57141L8.19171 6.71022C8.45088 6.66914 8.7217 6.63422 8.99625 6.60655L8.85886 6.45917L8.85776 6.48114ZM7.17879 6.74712C6.92974 6.80312 6.69365 6.86462 6.47207 6.93139L6.4668 6.93315L6.46174 6.93468H6.4591H6.45691H6.45449H6.45251H6.45031L6.76773 7.04758C6.97919 6.98322 7.20737 6.9237 7.44433 6.87033L7.18055 6.74294L7.17879 6.74712ZM5.81108 7.16442C5.62971 7.23747 5.45313 7.32192 5.28242 7.41722L5.68644 7.49453C5.84451 7.40624 6.00795 7.32781 6.17576 7.25974L5.81174 7.16398L5.81108 7.16442ZM4.87421 7.69484C4.78848 7.76499 4.71012 7.84366 4.64033 7.92963L4.63857 7.93204L4.63681 7.93424L4.63505 7.93644L4.63329 7.93863L4.63175 7.94083L4.63 7.94302L4.62824 7.945V7.9461V7.9472V7.94852V7.95005L4.6267 7.95247L4.62384 7.95642L5.0793 7.99112C5.15266 7.8897 5.23905 7.79835 5.33627 7.71944L4.90169 7.66277L4.87421 7.69484ZM4.45502 8.29268C4.44845 8.32025 4.44359 8.34821 4.44051 8.37636C4.4404 8.37718 4.4404 8.37799 4.44051 8.37878V8.3812V8.38339V8.38493V8.38625V8.38756V8.39086V8.42183V8.42754V8.42995V8.43105V8.43215V8.43457V8.43566V8.43676V8.43786V8.4495V8.45192V8.45302V8.45411V8.45631V8.45741V8.45851V8.4596V8.4607V8.4618V8.464V8.46619C4.44062 8.46738 4.44062 8.46854 4.44051 8.46971V8.4719C4.44166 8.49714 4.44423 8.52231 4.44821 8.54724V8.54834C4.44821 8.54834 4.44821 8.54987 4.44821 8.55053V8.55163V8.55361V8.55866V8.56086C4.44952 8.56788 4.45084 8.57469 4.45238 8.58172L4.91884 8.57096C4.90921 8.52651 4.90435 8.48115 4.90433 8.43566C4.90442 8.38524 4.91031 8.33496 4.92191 8.28587L4.4559 8.27401L4.45502 8.29268ZM5.04237 8.87098L4.58603 8.90458C4.63158 8.97113 4.68308 9.0334 4.7399 9.09061L4.7421 9.09281L4.7443 9.09501L4.7465 9.09742V9.09852V9.09962L4.7476 9.10072L4.7487 9.10182V9.10291L4.7498 9.10401L4.7509 9.10511H4.75199V9.10621L4.75397 9.10819L4.75617 9.11016L4.75837 9.11236L4.76057 9.11455L4.76518 9.11917C4.78453 9.13696 4.80453 9.15475 4.82541 9.17232L5.26131 9.11675C5.16589 9.03766 5.08159 8.94605 5.01072 8.8444L5.04237 8.87098ZM5.66446 9.4003L5.25868 9.47673L5.28439 9.49145L5.28791 9.49342L5.29143 9.49518H5.29319H5.29473H5.29627H5.29758H5.29912H5.30066H5.30176H5.30286H5.30418H5.3055L5.3077 9.49628L5.31099 9.49804L5.31429 9.49979C5.40105 9.54723 5.49329 9.59351 5.59104 9.6386L5.59522 9.64058L5.59917 9.64234L5.60159 9.64343H5.60269L5.60511 9.64453H5.60621H5.60819L5.6117 9.64607H5.61346H5.61478H5.6161H5.61742H5.61874H5.61984H5.6216H5.62292H5.62489H5.62643H5.62819L5.63215 9.64783L5.63632 9.64958L5.6405 9.65134C5.67831 9.66803 5.71656 9.68473 5.75569 9.70098L6.14806 9.63553C5.98208 9.56705 5.82055 9.48817 5.66446 9.39942V9.4003ZM6.73322 9.84616L6.41316 9.95839L6.49625 9.98365L6.50153 9.98519L6.50681 9.98672H6.50944H6.51208H6.51472H6.51714H6.51955L6.52439 9.98804H6.52681H6.52923H6.53164H6.53384H6.53626H6.53824H6.54066H6.54286H6.54527H6.54747H6.54945H6.55165H6.55341H6.55538H6.55714H6.55912H6.56088H6.56286H6.56396H6.5655H6.56682H6.56835H6.56945H6.57143H6.57297H6.57407H6.57605H6.57759H6.57978H6.5811H6.58264H6.58418H6.58528H6.58682H6.58814H6.58968H6.59078H6.59231H6.59385H6.59495H6.59627H6.59803H6.59935H6.60045H6.60177H6.60352H6.60484H6.60594H6.60792H6.60924H6.61034H6.61232H6.61364H6.61583H6.61737H6.61957H6.62177H6.62287H6.62419H6.62661H6.62815H6.63056H6.6321H6.63452H6.63606H6.63892L6.64375 9.98936L6.64881 9.99068H6.65167H6.65342H6.6565H6.65804H6.66112L6.66617 9.99199L6.67101 9.99331H6.67387H6.67563H6.67848H6.68024H6.6831L6.68794 9.99463L6.69299 9.99595H6.69607H6.69761H6.70112H6.70288H6.70618L6.71146 9.99748L6.71651 9.9988L6.72179 10.0001L6.7308 10.0025L6.73608 10.0041L6.74135 10.0056L6.74663 10.0069L6.75586 10.0093L6.76136 10.0109L6.76663 10.0122L6.77191 10.0135L6.78092 10.0159L6.78619 10.0173L6.79147 10.0186L6.79675 10.0201L6.80202 10.0214H6.80576L6.81125 10.0227L6.81653 10.0241L6.82181 10.0254H6.8251H6.82686H6.83016H6.83192H6.83521L6.84049 10.0267L6.84555 10.028H6.84862H6.85126H6.85412H6.85588H6.85917L6.86423 10.0291L6.86929 10.0304H6.87236H6.875H6.87764H6.87918H6.88204H6.88489H6.88753L6.89237 10.0317H6.895H6.89654H6.89918H6.9005H6.9027H6.9548H6.95611H6.95743H6.95963H6.96205H6.96381H6.96645H6.96842H6.96974H6.97106H6.97348H6.97458H6.9759H6.97722H6.97919H6.98161H6.98315H6.98491H6.98623H6.98755H6.98953H6.99085H6.99216H6.99414H6.99546H6.99876H7.0003H7.00206H7.00316H7.00491H7.00623H7.00799H7.01019H7.01217H7.01437H7.01547H7.017H7.02074H7.02294H7.0247H7.02712H7.02887H7.03019H7.03195H7.03437H7.03613H7.03855H7.0403H7.04272H7.04492H7.04734H7.04998H7.05239H7.05481H7.05723H7.05987L7.02712 10.0419L7.06492 10.0317L7.03855 10.0419L7.04998 10.0529L7.05481 10.0638H7.04492L7.04734 10.0748H7.08383L7.39091 9.91446C7.15461 9.86065 7.03767 9.86871 6.82686 9.8037L6.73322 9.84616ZM8.15105 10.1695L7.9453 10.3076C7.98823 10.3146 8.03147 10.3214 8.07499 10.328H8.08136H8.0873H8.09301H8.09587H8.09961H8.10225H8.11324H8.115H8.12445H8.12709H8.12928H8.13214H8.13588H8.13874H8.14116H8.14401H8.14775H8.15061H8.15346H8.15676L8.16292 10.3291H8.16907H8.17545C8.37988 10.3584 8.58974 10.3844 8.80501 10.4071L8.94591 10.2602C8.67202 10.2318 8.40208 10.1963 8.14379 10.1545L8.15105 10.1695ZM9.79419 10.3403L9.72165 10.4923H9.77375H9.78034H9.79771H9.80496L9.82694 10.4934C10.0972 10.5057 10.3725 10.5123 10.6528 10.5132L10.6563 10.3594C10.3673 10.3594 10.0773 10.3509 9.79419 10.3364V10.3403ZM12.3636 10.2837C12.0884 10.3109 11.8046 10.3313 11.5195 10.3445L11.5855 10.4969L11.6734 10.4928H11.6807H11.6877H11.7029H11.7073H11.8422H11.8607H11.8675H11.8743H11.8811H11.8882C12.0944 10.4799 12.2969 10.4635 12.4958 10.4438L12.3619 10.2962L12.3636 10.2837ZM13.9224 10.0421C13.6832 10.0948 13.4302 10.142 13.1704 10.1824L13.3698 10.3217C13.5229 10.2979 13.6725 10.2722 13.8186 10.2446L13.8406 10.2402L13.8465 10.2391H13.8525H13.8582H13.8619H13.8641H13.8676H13.8694H13.8729H13.8784H13.8839H13.887H13.8903H13.8931H13.8947H13.9011H13.9033H13.9059H13.9074H13.9107H13.912H13.9142H13.9182H13.9204H13.9217H13.9233H13.9257H13.9283H13.9299H13.9318H13.9347H13.9362H13.9391H13.9413H13.9433H13.9457H13.9477H13.9501H13.9521H13.9545H13.9567H13.9591H13.9615H13.9639H13.9666H13.969H13.9716H13.9738H13.9765H13.9787H13.9813H13.9837H13.9863L13.9918 10.238H13.9947H13.9976H14.0006H14.0035H14.0063H14.0092H14.0123L14.0182 10.2367L14.0239 10.2356L14.0299 10.2345L14.036 10.2332C14.0791 10.2242 14.1218 10.215 14.1642 10.2055L13.923 10.0416L13.9224 10.0421ZM15.1973 9.65947C15.0155 9.73304 14.8155 9.80267 14.6038 9.86636L14.9186 9.98013C15.149 9.91117 15.3635 9.83649 15.5607 9.75677L15.198 9.65903L15.1973 9.65947ZM16.0755 9.17078C15.9553 9.26687 15.827 9.35227 15.6919 9.426L16.0942 9.50441C16.1179 9.49123 16.1412 9.47805 16.1641 9.46465L16.1663 9.46333H16.1674L16.1694 9.46224H16.1707H16.172H16.1733H16.1749H16.1762H16.1777H16.1793H16.1808H16.1823H16.1839H16.1854H16.1869L16.1887 9.46114L16.2091 9.43786L16.2127 9.43588C16.2694 9.40133 16.3231 9.36626 16.3738 9.33068L16.3769 9.32848L16.3797 9.32628L16.3826 9.32409L16.3854 9.32189L16.387 9.32079H16.3883H16.3896H16.3909L16.3923 9.31969H16.3936H16.3949H16.396H16.3973H16.3986H16.3997H16.401H16.4022L16.4046 9.31772L16.4072 9.31574L16.4098 9.31376C16.4347 9.29509 16.4589 9.27643 16.4819 9.25754L16.0487 9.19955L16.0755 9.17078ZM16.476 8.61884C16.4483 8.72025 16.4018 8.81552 16.3388 8.89975L16.7934 8.93555C16.816 8.90474 16.8368 8.87269 16.8559 8.83957L16.8572 8.83738V8.83606V8.83474V8.83364V8.8321V8.83101V8.82991V8.82771C16.8572 8.82707 16.8572 8.82639 16.8572 8.82574V8.82354V8.82134L16.8583 8.81915C16.8835 8.76968 16.9037 8.71781 16.9185 8.6643V8.66321V8.66189V8.66079V8.65947V8.65837V8.65728L16.4527 8.64432L16.476 8.61884ZM16.8246 8.0188L16.3674 8.05108C16.4247 8.13659 16.4648 8.23246 16.4852 8.33332L16.9517 8.32365C16.9477 8.30169 16.9429 8.28148 16.937 8.26062V8.2582V8.25578V8.25469V8.25359V8.25249V8.25139V8.24239V8.23075V8.22965V8.22833V8.22701V8.22547V8.22394V8.2224V8.21998C16.9369 8.21919 16.9369 8.21838 16.937 8.21757V8.21515V8.21274C16.937 8.21274 16.937 8.2112 16.937 8.21032C16.9369 8.20953 16.9369 8.20872 16.937 8.2079C16.9134 8.14873 16.8839 8.09207 16.849 8.03879L16.8246 8.0188ZM16.1652 7.44489L15.7576 7.52023C15.8872 7.59488 16.0095 7.68129 16.1232 7.7783L16.5609 7.72471L16.5301 7.69857L16.5285 7.69725L16.5268 7.69594L16.5255 7.69484H16.5244H16.5233H16.5219L16.5209 7.69374H16.5195H16.5184H16.5171L16.5158 7.69264L16.5132 7.69066L16.5103 7.68847C16.4077 7.60784 16.2996 7.53446 16.1867 7.46883L16.1652 7.44489ZM15.0221 6.96038L14.6994 7.07174C14.9078 7.13763 15.103 7.20835 15.2795 7.28302L15.6486 7.18858C15.5619 7.15184 15.4714 7.1161 15.3774 7.0814L15.3725 7.07964L15.3681 7.0781L15.3637 7.07657H15.3615H15.3596H15.3574H15.3556H15.3534H15.3519H15.3499H15.3481H15.3464H15.3446H15.3431H15.3411H15.3393H15.3382H15.3367H15.3354H15.3334H15.3321H15.3299L15.3257 7.07503L15.3213 7.07349H15.3182H15.3167H15.3136L15.309 7.07195L15.3044 7.0702C15.2185 7.03989 15.13 7.01061 15.0388 6.98234L15.0221 6.96038ZM13.4981 6.60721L13.2891 6.74514C13.546 6.78731 13.7958 6.83651 14.0312 6.89098L14.3002 6.76512C14.1732 6.73585 14.0428 6.70795 13.909 6.68144L13.9028 6.68013L13.8967 6.67903L13.8747 6.67464L13.8685 6.67354L13.8621 6.67222H13.8591L13.8463 6.6698L13.8402 6.66871L13.834 6.66739L13.812 6.66321H13.8057L13.7993 6.6619L13.7929 6.6608L13.7835 6.65904L13.7771 6.65772L13.7707 6.65663H13.7643H13.758L13.7483 6.65487H13.7421L13.736 6.65377L13.7298 6.65267L13.7234 6.65157H13.7171H13.714L13.7078 6.65048L13.7019 6.64938H13.6957L13.6894 6.64828H13.6832H13.6801L13.674 6.64718L13.6676 6.64608H13.6615H13.6584H13.6555H13.6524H13.6494H13.6465H13.6436H13.6408L13.6351 6.64498H13.6291H13.6261H13.6234H13.6206H13.6181H13.6153H13.6129H13.61H13.6078H13.6052H13.6025H13.6001H13.5975H13.5953H13.5927H13.5907H13.588H13.5858H13.5832H13.5821H13.5801H13.5757H13.5735H13.5691H13.5667H13.5628H13.5603H13.5559H13.5537H13.5511H13.5489H13.5274H13.5243H13.521H13.5179H13.5159H13.5122L13.5063 6.64389H13.5014L13.4981 6.60721ZM11.7262 6.4181L11.6501 6.57009C11.9339 6.58546 12.2164 6.60809 12.4896 6.6373L12.6338 6.4908C12.5736 6.48421 12.5131 6.47806 12.4522 6.47235H12.4459H12.4397H12.4366H12.3843H12.3812H12.3775H12.3707H12.3639H12.3568C12.1517 6.4539 11.9418 6.43884 11.7273 6.42711L11.7262 6.4181Z" fill="#FF922E"/>
<path d="M10.6935 6.13414C11.6102 6.13183 12.526 6.19274 13.4342 6.31644C14.2726 6.43328 15.0257 6.60042 15.6724 6.81347C16.3191 7.02651 16.8269 7.2747 17.1815 7.55078C17.5486 7.83631 17.7348 8.1405 17.7348 8.45348C17.7348 8.76646 17.5486 9.07043 17.1815 9.3564C16.8269 9.63248 16.3191 9.88066 15.6724 10.0935C15.0257 10.3063 14.2726 10.4739 13.4342 10.5907C12.5259 10.7142 11.6102 10.7751 10.6935 10.7728C9.77681 10.7751 8.861 10.7143 7.95263 10.5907C7.11424 10.4739 6.36114 10.3065 5.71444 10.0935C5.06773 9.88044 4.56017 9.63226 4.20538 9.3564C3.83829 9.07087 3.6521 8.76668 3.6521 8.45348C3.6521 8.14028 3.83829 7.83675 4.20538 7.55078C4.56017 7.27448 5.06773 7.02651 5.71444 6.81347C6.36114 6.60042 7.11424 6.43328 7.95263 6.31644C8.86098 6.19274 9.77679 6.13183 10.6935 6.13414ZM10.6935 6.0957C6.74011 6.0957 3.53516 7.15127 3.53516 8.45348C3.53516 9.75569 6.74011 10.8115 10.6935 10.8115C14.647 10.8115 17.8517 9.75569 17.8517 8.45348C17.8517 7.15127 14.6476 6.0957 10.6935 6.0957Z" fill="#F7FAF6"/>
<path d="M10.694 6.2762C11.5543 6.27412 12.4136 6.33127 13.2659 6.4473C14.0531 6.55712 14.7607 6.71394 15.3674 6.91402C15.9741 7.11411 16.4511 7.34692 16.7841 7.60609C17.1288 7.87448 17.3035 8.15979 17.3035 8.45366C17.3035 8.74753 17.1277 9.03284 16.7841 9.30123C16.4511 9.56062 15.9745 9.79343 15.3674 9.99352C14.7602 10.1936 14.0531 10.3504 13.2659 10.4602C12.4136 10.5762 11.5542 10.6333 10.694 10.6313C9.83339 10.6334 8.97364 10.5762 8.12085 10.4602C7.33368 10.3504 6.62609 10.1934 6.01961 9.99352C5.41313 9.79365 4.93568 9.56062 4.60244 9.30123C4.25776 9.03284 4.08301 8.74775 4.08301 8.45366C4.08301 8.15957 4.25886 7.87448 4.60244 7.60609C4.93546 7.34692 5.41225 7.11389 6.01939 6.91402C6.62653 6.71416 7.33346 6.5569 8.12063 6.4473C8.9734 6.33122 9.83317 6.27405 10.6938 6.2762M10.6938 6.23755C6.9789 6.23755 3.96606 7.22986 3.96606 8.45366C3.96606 9.67746 6.97758 10.6698 10.6938 10.6698C14.4101 10.6698 17.4203 9.67768 17.4203 8.45366C17.4203 7.22964 14.4088 6.23755 10.6938 6.23755Z" fill="#F7FAF6"/>
<path d="M13.9782 9.28854C13.9083 9.27927 13.8371 9.2917 13.7745 9.32412H12.7679L12.6255 9.4548C12.5938 9.48357 12.5107 9.5029 12.4178 9.5029L12.6125 9.32522H12.465L12.3232 9.45458C12.2916 9.48335 12.2087 9.50268 12.1155 9.50268L12.3098 9.32522H12.1639L12.0223 9.45436C11.9907 9.48313 11.9078 9.50246 11.8148 9.50246L12.0087 9.32522L10.9234 9.32631H10.1813C10.2088 9.29205 10.3027 9.26811 10.4102 9.26811H10.9727L11.8341 8.26746H10.3152C9.91952 8.683 9.52385 9.15192 9.12818 9.57845C9.06223 9.65049 9.22336 9.73901 9.45153 9.73967C10.8524 9.74494 12.2533 9.73461 13.6542 9.73967C13.734 9.73967 13.8046 9.72253 13.8255 9.69706L14.1002 9.36387C14.1264 9.33224 14.0739 9.2982 13.9782 9.28854Z" fill="#FF922E"/>
<path d="M12.7797 7.16814H11.2234C11.0778 7.16814 10.9596 7.20704 10.9596 7.25606H11.7327C11.6964 7.28816 11.605 7.30992 11.5012 7.3108L11.2045 7.31388C11.0711 7.45707 10.9376 7.60023 10.804 7.7434H12.2853L12.7049 7.25562H12.7458C12.8135 7.25562 12.8735 7.23914 12.881 7.21694C12.8885 7.19473 12.8441 7.17275 12.7797 7.16814Z" fill="url(#paint3_linear_74_24402)"/>
<path d="M14.0228 7.90743C14.0228 7.90304 14.0208 7.89887 14.0197 7.89447C13.9375 7.59292 13.1589 7.36362 12.2392 7.36362H9.57869C9.35755 7.36362 9.15994 7.4093 9.08454 7.47761L8.87505 7.64453H8.64314C8.4829 7.64453 8.33166 7.66891 8.23384 7.71042H9.55121L9.89523 7.71218C10.0665 7.71218 10.1885 7.76445 10.1625 7.8176L9.8517 8.09895H9.70531L10.0016 7.82836H9.90864L9.61232 8.09895H9.42526L9.72179 7.82836C9.23226 7.82529 8.83548 7.82199 8.34595 7.81892C8.22791 7.81892 8.11866 7.83957 8.06392 7.87383C8.04383 7.8854 8.02649 7.90122 8.01314 7.92017C7.9971 7.94543 8.06106 7.96915 8.13888 7.96585H8.14152C8.22637 7.96168 8.26286 7.93708 8.2655 7.93533H9.11795C9.11795 7.95729 9.06256 7.97618 8.99397 7.97618H8.54862C7.93137 8.58105 7.49899 9.01593 7.3194 9.15056C7.13981 9.2852 7.29302 9.34077 7.42359 9.36185C7.48367 9.37112 7.54438 9.3756 7.60516 9.37525H8.72975L9.47713 8.65529H9.25732C9.13752 8.65529 9.04036 8.62344 9.04036 8.58391H10.2957C10.8279 8.83056 11.3599 9.07984 11.8921 9.32671C12.4036 9.32671 12.9151 9.32407 13.4264 9.32407L11.6509 8.53712L12.2376 8.5424C13.1169 8.5424 13.8735 8.33264 14.0054 8.04646C14.0262 8.00326 14.0323 7.95443 14.0228 7.90743ZM9.50637 8.19559H9.33425L9.41822 8.11916H9.5899L9.50637 8.19559ZM9.74509 8.19559H9.6143L9.69761 8.1196H9.82818L9.74509 8.19559ZM10.5145 8.19559C10.3471 8.19559 10.1427 8.19559 9.90116 8.19559L9.98491 8.12004H10.5969L10.5145 8.19559ZM10.0076 8.09917L10.2977 7.83693C10.5468 7.83693 10.753 7.83847 10.9055 7.83869L10.6198 8.09917H10.0076ZM10.8081 8.19625H10.669L10.7527 8.12004H10.8923L10.8081 8.19625ZM10.7752 8.09917L11.0609 7.83869H11.2003L10.9145 8.09895L10.7752 8.09917ZM11.5826 8.15013C11.3778 8.18195 11.1708 8.19731 10.9635 8.19603L11.0473 8.1196C11.2038 8.12223 11.3379 8.12136 11.443 8.1196C11.639 8.11608 11.7287 8.1095 11.8151 8.0939C11.8502 8.08786 11.885 8.08002 11.9193 8.0704C11.8089 8.10528 11.696 8.13185 11.5817 8.14991L11.5826 8.15013ZM12.0165 8.00209C11.9811 8.04602 11.8426 8.06798 11.7685 8.07875C11.6689 8.09368 11.5821 8.09566 11.412 8.09917C11.2779 8.10181 11.1616 8.10093 11.0697 8.09917L11.3539 7.83957C11.3924 7.83737 11.6991 7.82199 11.8925 7.88986C11.9178 7.89865 12.0587 7.94806 12.0156 8.00187L12.0165 8.00209Z" fill="#FF922E"/>
<path d="M10.9046 7.83847C10.752 7.83847 10.5458 7.83847 10.2968 7.83672L10.0066 8.09918H10.6192L10.9046 7.83847ZM10.1068 8.0761L10.3456 7.86024L10.8048 7.86156L10.57 8.0761H10.1068Z" fill="white"/>
<path d="M9.61511 8.19544L9.74503 8.19522L9.829 8.11938H9.69842L9.61511 8.19544Z" fill="white"/>
<path d="M9.33423 8.19591H9.50635L9.58988 8.11963H9.4182L9.33423 8.19591ZM9.46744 8.14249H9.48942L9.45623 8.17261H9.43425L9.46744 8.14249Z" fill="white"/>
<path d="M14.0931 7.90616C14.0931 7.90155 14.0911 7.89715 14.09 7.89276C14.0487 7.74143 13.8359 7.60153 13.491 7.49918C13.1461 7.39683 12.7032 7.34082 12.2402 7.34082H9.57911C9.32984 7.34082 9.10519 7.39265 9.01946 7.46953L8.91548 7.55255L8.82865 7.62173H8.64357C8.46266 7.62173 8.289 7.64985 8.17865 7.69707L8.09182 7.73419H9.55164L9.89433 7.73594C9.94665 7.73493 9.99875 7.74319 10.0482 7.76032C10.0805 7.77306 10.0974 7.78909 10.0963 7.80425H9.85982L9.84312 7.81962L9.56351 8.07616H9.52548L9.63407 7.97732L9.78794 7.83653L9.82113 7.80623H9.72331L9.03243 7.80161L8.34747 7.797H8.33978C8.19733 7.797 8.06764 7.8227 8.00148 7.86421C7.97873 7.87745 7.95907 7.89544 7.94388 7.91692C7.93223 7.93515 7.94608 7.95382 7.98169 7.96832C8.02715 7.98413 8.07512 7.99157 8.12326 7.99028C8.13139 7.99028 8.13952 7.99028 8.14744 7.99028H8.15161C8.20349 7.98918 8.25477 7.97892 8.30307 7.95997H8.49365L8.4831 7.97029C8.36336 8.08742 8.25075 8.19799 8.14524 8.30194C7.71242 8.72759 7.39939 9.03508 7.25607 9.1427C7.04725 9.2993 7.25256 9.36102 7.39346 9.3843C7.4638 9.39497 7.53487 9.4002 7.60602 9.39989H8.78095L8.797 9.3843L9.54438 8.66434L9.57604 8.63381H9.2573C9.21287 8.63585 9.16862 8.6272 9.12827 8.60855H10.2595C10.5186 8.72869 10.7817 8.85147 11.0365 8.97007C11.2869 9.08691 11.5454 9.20727 11.8004 9.32566H11.8865C11.3561 9.07967 10.8259 8.83126 10.2957 8.58549H9.04034C9.04034 8.62502 9.1375 8.65687 9.2573 8.65687H9.47712L8.72973 9.37683H7.60558C7.5448 9.37718 7.48409 9.3727 7.42401 9.36343C7.29344 9.34147 7.13825 9.2881 7.31982 9.15215C7.50139 9.01619 7.93179 8.5811 8.54904 7.97798H8.99374C9.06232 7.97798 9.11771 7.95953 9.11771 7.93713H8.26526C8.26262 7.93888 8.22613 7.96348 8.14128 7.96766H8.12392C8.05313 7.96766 7.99796 7.94569 8.01401 7.92175C8.02735 7.9028 8.04469 7.88699 8.06478 7.87541C8.11864 7.84159 8.22503 7.8205 8.34088 7.8205H8.34681C8.83635 7.82358 9.23312 7.82687 9.72265 7.82995L9.42568 8.09922H9.61275L9.90906 7.82863H10.002L9.70573 8.09922H9.85213L10.163 7.81831C10.1889 7.76515 10.0669 7.71398 9.89565 7.71288L9.55164 7.71112H8.23426C8.33208 7.66917 8.48332 7.64523 8.64357 7.64523H8.87547L9.08496 7.47831C9.16036 7.41 9.35798 7.36432 9.57911 7.36432H12.2402C13.1593 7.36432 13.9379 7.59362 14.0208 7.89518C14.0219 7.89957 14.023 7.90374 14.0238 7.90814C14.0335 7.95534 14.0274 8.00442 14.0065 8.04782C13.8746 8.33335 13.1175 8.54376 12.2387 8.54376L11.6513 8.53739L13.4264 9.32368H13.5143L13.4835 9.3105L12.4504 8.85322L11.7938 8.56243L12.2361 8.56638H12.238C12.6808 8.56638 13.1103 8.51455 13.447 8.42032C13.7838 8.3261 14.0085 8.19432 14.0746 8.05068C14.0965 8.00585 14.103 7.95505 14.0931 7.90616ZM10.0946 7.81259L10.0632 7.84093L10.0682 7.83632L10.0948 7.81216L10.0946 7.81259Z" fill="white"/>
<path d="M9.90039 8.1953H10.0932H10.5137L10.5972 8.12012H9.98436L9.90039 8.1953ZM10.0334 8.14276H10.4972L10.4644 8.17243H10.0006L10.0334 8.14276Z" fill="white"/>
<path d="M11.9187 8.07019C11.8843 8.07982 11.8496 8.08767 11.8145 8.09371C11.7265 8.10932 11.6386 8.11569 11.4423 8.11943C11.3849 8.11943 11.3188 8.12097 11.2445 8.12097C11.1834 8.12097 11.117 8.12097 11.0466 8.11943L10.9629 8.19593C11.1701 8.1972 11.3771 8.18184 11.5819 8.14998C11.696 8.13181 11.8086 8.10514 11.9187 8.07019ZM11.0653 8.17131L11.0959 8.14317C11.146 8.14317 11.1963 8.14427 11.246 8.14427C11.312 8.14427 11.3805 8.14427 11.4469 8.14251H11.4667C11.3336 8.15963 11.1995 8.16924 11.0653 8.17131Z" fill="white"/>
<path d="M11.4106 8.09921C11.5808 8.09569 11.6676 8.09371 11.7672 8.07876C11.8412 8.06733 11.9797 8.04623 12.0151 8.00205C12.0591 7.94819 11.9173 7.89873 11.8911 7.88972C11.7632 7.84576 11.5858 7.8363 11.4693 7.8363C11.4095 7.8363 11.3658 7.8385 11.3526 7.83938L11.0684 8.09921C11.1185 8.09921 11.1759 8.10075 11.2394 8.10075C11.2924 8.10075 11.3504 8.10031 11.4106 8.09921ZM11.404 7.86048C11.4218 7.86048 11.444 7.85939 11.47 7.85939C11.5799 7.85939 11.732 7.86752 11.8408 7.90555C11.883 7.92027 11.978 7.95874 11.9481 7.99611C11.921 8.02996 11.8067 8.04733 11.7384 8.05766C11.6524 8.07085 11.5792 8.07261 11.4071 8.07613C11.3517 8.07613 11.2957 8.07766 11.24 8.07766H11.1673L11.404 7.86048Z" fill="white"/>
<path d="M11.1987 7.83871H11.0593L10.7736 8.09942H10.9131L11.1987 7.83871Z" fill="white"/>
<path d="M10.8072 8.19612L10.8914 8.11984H10.7518L10.6681 8.19612H10.8072Z" fill="white"/>
<path d="M7.66968 6.12876C8.67671 5.99113 9.69205 5.92341 10.7084 5.92609V5.1875H10.6944C9.30952 5.1875 7.99259 5.28092 6.7959 5.44996L7.66968 6.12876Z" fill="#F7FAF6"/>
<path d="M15.5091 5.59802L14.4775 6.21058C15.3953 6.37816 16.1901 6.60175 16.8397 6.87454L18.509 6.4434C17.6933 6.09923 16.6731 5.81151 15.5091 5.59802Z" fill="white"/>
<path d="M1.04395 9.29536V10.8025C1.35565 11.2371 1.93113 11.6384 2.71236 11.9868V10.3834L1.08725 9.23694C1.07186 9.25671 1.05779 9.27603 1.04395 9.29536Z" fill="#EDE8E8"/>
<path d="M6.36523 12.9884C7.53027 13.1749 8.82324 13.2885 10.1888 13.3111V11.7161L6.36523 11.3926V12.9884Z" fill="#EDE8E8"/>
<path d="M15.126 12.9713C16.34 12.771 17.4121 12.4912 18.2786 12.1525V10.6663L15.126 11.4471V12.9713Z" fill="#EDE8E8"/>
<path d="M20.6097 10.0488C20.6097 10.0453 20.6097 10.042 20.6097 10.0387V8.35742L20.4811 8.35852L20.3457 9.20499V10.7993C20.518 10.5588 20.6097 10.3073 20.6097 10.0488Z" fill="#EDE8E8"/>
<path d="M18.4945 8.45546C18.4945 8.65511 18.425 8.85366 18.2881 9.04562L20.3458 9.20507C20.5181 8.96347 20.6096 8.71221 20.6096 8.4537C20.6077 8.26273 20.5599 8.07503 20.4702 7.90637L18.3846 8.02278C18.4554 8.15612 18.4931 8.3045 18.4945 8.45546Z" fill="white"/>
<path d="M18.2784 10.6662L16.699 10.203C15.9986 10.4622 15.1636 10.6688 14.2168 10.8169L15.1257 11.447C16.3308 11.2579 17.4015 10.9911 18.2784 10.6662Z" fill="white"/>
<path d="M6.36523 11.3929C7.53027 11.5798 8.82368 11.6934 10.1901 11.7161L10.3 11.0166C9.29541 11.0027 8.29309 10.9176 7.30056 10.7618L6.36523 11.3929Z" fill="white"/>
<path d="M1.04395 9.20721C1.35345 9.63879 1.92322 10.0374 2.695 10.384L4.37969 9.98516C3.76617 9.70402 3.33907 9.39083 3.11024 9.05457L1.04395 9.20721Z" fill="white"/>
<path d="M1.11804 7.60324L3.20917 7.7963C3.49142 7.46443 3.96798 7.15936 4.6259 6.88855L2.90142 6.43369C2.08458 6.775 1.47063 7.17144 1.11804 7.60324Z" fill="white"/>
<path d="M7.66968 6.12876C8.67671 5.99113 9.69205 5.92341 10.7084 5.92609V5.1875H10.6944C9.30952 5.1875 7.99259 5.28092 6.7959 5.44996L7.66968 6.12876Z" fill="white"/>
<path d="M28.0046 15.2946C28.023 15.2709 28.0415 15.247 28.0595 15.2228L29.0913 13.8725L28.8238 13.7069C29.744 10.6603 27.6394 6.94632 23.806 5.10776C20.7024 3.6193 17.3475 3.78314 15.2254 5.29137L15.0786 5.20066L14.2965 6.13169C14.2619 6.17154 14.2279 6.21179 14.1947 6.25249L14.1813 6.26853C13.9413 6.56466 13.7365 6.88763 13.5711 7.23096C12.0543 10.3873 14.1784 14.554 18.3143 16.5375C22.018 18.3139 26.0792 17.7367 27.9764 15.3295L28.0046 15.2946Z" fill="url(#paint4_linear_74_24402)"/>
<path d="M29.2404 13.5855C30.7567 10.4291 28.6331 6.26244 24.4972 4.27895C20.3612 2.29545 15.7792 3.24625 14.263 6.40259C12.7467 9.55896 14.8704 13.7256 19.0063 15.7091C23.1422 17.6926 27.7244 16.7418 29.2404 13.5855Z" fill="#FF922E"/>
<path d="M26.3523 12.2005C27.2839 10.2613 25.9791 7.70139 23.4382 6.48275C20.8971 5.26413 18.082 5.84829 17.1504 7.78749C16.2188 9.72671 17.5236 12.2867 20.0646 13.5053C22.6057 14.7239 25.4207 14.1398 26.3523 12.2005Z" fill="white"/>
<path d="M17.0222 7.72206V7.72404V7.7258V7.72777V7.72931V7.73107V7.73282V7.7348V7.73634V7.73832V7.74007V7.74183V7.74359V7.74534V7.7471V7.74864V7.7504V7.75193V7.75369V7.75501V7.75698V7.75852V7.7605V7.76182V7.76357V7.76489V7.76665V7.76819V7.76972V7.77104V7.77214V7.7739V7.77521V7.77697V7.77807V7.77961V7.78114V7.78224V7.784V7.78532V7.78664V7.78773V7.78905V7.79037V7.79147V7.79278V7.79432V7.79608V7.79762V7.79871V7.80047V7.80157V7.80377V7.80508L17.0211 7.8075V7.80882L17.0195 7.81277L17.0178 7.81673L17.0162 7.82068V7.822L17.0151 7.82463V7.82595L17.0138 7.82859V7.8299L17.0121 7.8343L17.0103 7.83869C17.0103 7.84001 17.0103 7.84132 17.0085 7.84286C16.9558 7.97201 16.9117 8.10451 16.8767 8.23952L17.2451 8.36735C17.2918 8.18821 17.3556 8.01398 17.4357 7.84703L17.0222 7.72206ZM16.7201 8.88393C16.7201 8.88898 16.7201 8.89425 16.7201 8.8993V8.90392C16.7201 8.90501 16.7201 8.90589 16.7201 8.90699V8.90853V8.91138V8.91292V8.91753V8.92193V8.92808V8.98167V8.9865V8.99858V9.00077V9.00297V9.00517V9.00736V9.00978V9.01198V9.01439V9.01659V9.019V9.02384V9.02867C16.7201 9.03042 16.7201 9.03196 16.7201 9.0335V9.04228C16.7203 9.04389 16.7203 9.04551 16.7201 9.04712C16.7175 9.20117 16.7248 9.35524 16.7421 9.50835L17.1158 9.54415C17.0935 9.35236 17.0884 9.15898 17.1006 8.96629L16.7252 8.88371L16.7201 8.88393ZM16.865 10.144C16.9255 10.3525 17.0013 10.5564 17.0916 10.7539L17.0936 10.7587L17.0958 10.7633L17.0969 10.7655V10.7675V10.7697V10.7715V10.7734L17.444 10.7148C17.356 10.5257 17.2825 10.3302 17.2242 10.1299L16.8595 10.1416L16.865 10.144ZM17.4416 11.3904C17.5737 11.5943 17.7191 11.7892 17.8768 11.974L18.1663 11.8264C18.0203 11.6553 17.8858 11.4749 17.7634 11.2863L17.4416 11.3904ZM18.3982 12.5136C18.5477 12.6502 18.7057 12.7813 18.8722 12.9068L18.877 12.9103L18.8816 12.9138L18.8862 12.9173L18.8908 12.9208L18.8955 12.9241L18.8999 12.9274L18.9043 12.9307L18.9065 12.9325L18.9084 12.934L18.9104 12.9355L18.9122 12.9368L18.9141 12.9382L18.9157 12.9393L18.9177 12.9408L18.9192 12.9419C18.9197 12.9425 18.9203 12.943 18.921 12.9434L18.9223 12.9445L18.924 12.9458H18.9254L18.9271 12.9472H18.9282L18.9302 12.9485H18.9315L18.9331 12.9496L18.9346 12.9507H18.9359L18.9379 12.952H18.9392L18.9414 12.9535H18.9427L18.9451 12.9551V12.9562L18.9473 12.9579H18.9487L18.9513 12.9599C18.9517 12.9604 18.9522 12.9608 18.9528 12.961L18.9559 12.963L18.9608 12.9665L18.9691 12.9726L19.1746 12.7482C18.9915 12.6173 18.816 12.4761 18.6488 12.3254L18.3985 12.5136H18.3982ZM19.6538 13.413C19.7154 13.4473 19.7779 13.4807 19.8413 13.5134L19.8466 13.5162L19.8521 13.5189L19.8576 13.5215L19.8609 13.5233H19.8627L19.8655 13.5246H19.8673L19.8701 13.5259H19.8717L19.8743 13.5272H19.8759L19.8783 13.5285H19.8798H19.8811H19.8831H19.8844H19.8864H19.8877L19.8899 13.5296H19.891H19.8923H19.8941H19.8956H19.8967H19.8983H19.8998H19.9014H19.9025H19.904H19.9055H19.9071H19.9088H19.9101H19.9117L19.9137 13.5307H19.915H19.9165L19.9187 13.5318H19.9205L19.9227 13.5329H19.9242L19.9264 13.534H19.9282H19.9304H19.9321H19.9343L19.9365 13.5351H19.9389L19.9411 13.5362L19.9436 13.5373L19.9458 13.5384L19.948 13.5395L19.9504 13.5406L19.9526 13.5417L19.955 13.5428L19.9572 13.5439L19.9598 13.5452L19.962 13.5463L19.9644 13.5476L19.9664 13.5487L19.9688 13.5501L19.971 13.5512L19.9737 13.5523L19.9761 13.5534L19.9785 13.5547L19.9809 13.556L19.9836 13.5573L19.986 13.5586L19.9884 13.5597L19.9904 13.5608L19.9928 13.5619H19.9948H19.9968L19.9992 13.563H20.0012L20.0034 13.5641H20.0053H20.0073H20.0097L20.0117 13.5652L20.0139 13.5663L20.0163 13.5676H20.0183L20.0205 13.5687H20.0229H20.0251L20.0275 13.5698H20.0299L20.035 13.5722L20.0374 13.5736L20.0425 13.576L20.0502 13.5797L20.0554 13.5821C20.1141 13.6092 20.1723 13.6353 20.2302 13.6603H20.2328L20.2381 13.6625H20.2403L20.2427 13.6636H20.2447H20.2467H20.2487H20.2502H20.252H20.2537H20.255L20.2601 13.6658L20.3091 13.6862L20.4135 13.4058C20.3085 13.3618 20.2027 13.3148 20.0994 13.2652C19.9851 13.2103 19.871 13.1514 19.7609 13.0895L19.6538 13.413ZM21.1431 13.7111L21.0936 14.0109C21.2503 14.0558 21.4068 14.0945 21.5632 14.1268L21.5689 14.1281H21.5746L21.5803 14.1295H21.5834H21.586H21.5889H21.5915H21.5942H21.5966H21.5992H21.6017H21.6043H21.6065H21.6091H21.6111H21.6135H21.6157H21.6179H21.6201H21.6225H21.6265H21.6282H21.6384H21.6397H21.6441H21.6456H21.6498H21.6515H21.6551H21.6575H21.661H21.6634H21.665H21.668L21.6733 14.1306L21.6786 14.1317L21.6839 14.1328H21.6894L21.7008 14.1347C21.7471 14.1432 21.7933 14.1513 21.8395 14.1589L21.8362 13.8657C21.6021 13.8278 21.3704 13.776 21.1424 13.7106L21.1431 13.7111ZM22.528 13.9346L22.5908 14.2525C22.6042 14.2525 22.6179 14.2525 22.6313 14.2538H22.6972C22.8302 14.2563 22.9621 14.254 23.0929 14.247H23.0984H23.1039H23.1188H23.1235H23.165H23.1705H23.176C23.2246 14.2436 23.2731 14.2396 23.3215 14.2351L23.2041 13.9188C22.9799 13.9399 22.7544 13.9463 22.5293 13.9382L22.528 13.9346ZM23.8845 13.8962L24.0157 14.1165C24.0427 14.1101 24.0695 14.1033 24.0966 14.0965L24.1016 14.0952L24.1065 14.0939H24.1091H24.1115H24.114H24.1164H24.1188L24.1234 14.0926H24.1256H24.128H24.1302H24.1322H24.1346H24.1364H24.1386H24.1408H24.143H24.1449H24.1467H24.1489H24.1507H24.1526H24.154H24.1559H24.1575H24.1595H24.161H24.1623H24.1636H24.1654H24.1667H24.1685H24.1707H24.1724H24.1735H24.1748H24.1764H24.1777H24.179H24.1803H24.1817H24.1832H24.185H24.1861H24.1878H24.19H24.1918H24.1929H24.1948H24.1977H24.1999H24.2012H24.2023H24.2043H24.2063H24.2074H24.2087H24.2109H24.2138H24.2159H24.2173H24.2195H24.2208H24.2234L24.2278 14.0912L24.2324 14.0899H24.2353H24.2368H24.2395H24.241H24.2436L24.248 14.0886L24.2524 14.0873H24.2551H24.2564H24.259H24.2606H24.2632L24.2676 14.086L24.2722 14.0844H24.2751H24.2766H24.2797H24.2812H24.2843L24.2889 14.0831L24.2935 14.0818L24.2982 14.0803L24.3063 14.0778L24.3111 14.0765L24.3157 14.0752L24.3204 14.0737L24.3285 14.071L24.3333 14.0695L24.3379 14.068L24.3426 14.0666L24.3505 14.0642L24.3553 14.0627L24.3599 14.0612L24.3645 14.0594L24.3692 14.0579L24.3722 14.0568L24.3769 14.0552L24.3815 14.0535L24.3861 14.0519H24.3889H24.3905H24.3933H24.3949L24.398 14.0508L24.4026 14.0493L24.407 14.0478H24.4096H24.4109H24.4133H24.4149H24.4177L24.4221 14.0462L24.4265 14.0447H24.4292H24.4305H24.4327H24.434H24.4364H24.4377H24.4402L24.4443 14.0431H24.4465H24.4479H24.4501H24.4514H24.4531H24.4545H24.4562H24.4575H24.4591H24.4608H24.4619H24.4632H24.4652H24.4663H24.4681H24.4692H24.4705H24.472H24.4738H24.4751H24.4769H24.4782H24.4795H24.481H24.4824H24.4843H24.4859H24.4879H24.4892H24.4909H24.4925H24.4945H24.496H24.4973H24.4993H24.5008H24.5028H24.5044H24.5063H24.5079H24.5101H24.512H24.5142H24.5164H24.5184H24.5206H24.5226H24.5248H24.5268H24.529L24.5336 14.0414H24.5358H24.538H24.5402H24.5424H24.5446L24.5492 14.0396L24.5538 14.0377L24.5584 14.0357L24.5729 14.0297L24.3564 13.7372C24.1625 13.8158 24.088 13.8477 23.8845 13.8962ZM24.9805 13.3478L25.2403 13.6186C25.2682 13.6015 25.2959 13.584 25.323 13.5661L25.3269 13.5635L25.3306 13.561L25.3342 13.5586L25.3359 13.5573L25.3375 13.5562L25.3388 13.5551L25.3403 13.554H25.3416H25.3432H25.3445L25.3463 13.5529H25.3478H25.3493H25.3507L25.3524 13.5518H25.3539H25.3559L25.3577 13.5507L25.3594 13.5494L25.3634 13.5468L25.3671 13.5441L25.3711 13.5415C25.4949 13.457 25.6129 13.3645 25.7243 13.2645L25.4267 13.0229C25.2873 13.1433 25.1383 13.2518 24.9807 13.3471L24.9805 13.3478ZM25.8272 12.5887L26.1569 12.7978L26.1583 12.7961L26.1596 12.7943V12.7932V12.7917L26.1609 12.7899V12.7888L26.1622 12.7871V12.786L26.1649 12.7827L26.1675 12.7791L26.1701 12.7756L26.1728 12.7721V12.771L26.1745 12.7686V12.7673L26.1774 12.7636L26.1857 12.7521C26.2899 12.6089 26.3816 12.4569 26.4599 12.2979L26.1081 12.1266C26.0262 12.2927 25.9286 12.4505 25.8164 12.5979L25.8272 12.5887ZM26.4084 11.0447C26.3946 11.2317 26.3629 11.4169 26.3141 11.598L26.6817 11.728C26.6867 11.7093 26.6918 11.6906 26.6964 11.672V11.6676L26.6977 11.6632V11.6603V11.659C26.6977 11.6577 26.6977 11.6562 26.6977 11.6548V11.652V11.6507V11.648V11.6467V11.6443V11.6421V11.6399V11.634V11.6322V11.6294V11.6276V11.6247V11.623V11.6184V11.6135V11.6089V11.6076V11.6059V11.603V11.6012V11.5984V11.5966V11.59V11.5885V11.5865V11.585V11.583V11.5813V11.5793V11.5775V11.5755V11.5681V11.5659V11.5639V11.5617V11.5575V11.5534V11.549V11.5446V11.5402V11.5356C26.725 11.4022 26.7434 11.2672 26.7535 11.1314L26.4084 11.0447ZM26.2849 9.88063C26.339 10.0731 26.377 10.2696 26.3985 10.4684L26.7722 10.5066C26.7601 10.3922 26.7425 10.2777 26.7195 10.1629C26.7195 10.1569 26.7173 10.151 26.7159 10.1453C26.7159 10.1438 26.7159 10.1422 26.7159 10.1407C26.7159 10.1391 26.7159 10.1376 26.7159 10.1361C26.7159 10.1345 26.7159 10.133 26.7159 10.1315V10.1284V10.1268V10.124V10.1227V10.1198V10.1154V10.111V10.1084V10.106V10.1038V10.1025V10.1007V10.0985V10.0974V10.0937V10.0919V10.0888V10.0871V10.0838V10.082V10.0746V10.073V10.0706V10.0682V10.0664V10.0634V10.0614V10.0585V10.0566V10.0548V10.0526V10.0508V10.0489V10.0471V10.0451V10.0432V10.0412V10.0392V10.0374V10.0353V10.0335V10.0315V10.0298V10.0276V10.0232C26.7159 10.0224 26.7159 10.0216 26.7159 10.0208V10.0186V10.0164V10.0142V10.012V10.0096V10.0071C26.7159 10.0056 26.7159 10.0041 26.7159 10.0025C26.7159 10.001 26.7159 9.99945 26.7159 9.99791L26.7146 9.99308C26.7146 9.99133 26.7146 9.98979 26.7146 9.98803C26.7058 9.95333 26.6966 9.91863 26.6869 9.88392L26.3216 9.89337L26.2849 9.88063ZM25.7608 8.72491C25.8773 8.9078 25.9809 9.09862 26.0706 9.29596L26.4187 9.23974C26.3218 9.02717 26.2099 8.82168 26.0842 8.62476L25.7608 8.72667V8.72491ZM24.8846 7.68055C25.0543 7.83774 25.2141 8.00528 25.3632 8.1822L25.6544 8.03658C25.6307 8.00847 25.6067 7.98051 25.5826 7.95268L25.5804 7.94982V7.94851L25.5784 7.94631L25.5773 7.94521L25.5757 7.94367V7.94258L25.5744 7.94126L25.5731 7.93972V7.93862L25.5718 7.93708V7.93599L25.5703 7.93423L25.5689 7.93269L25.5676 7.93094L25.5661 7.92896L25.5645 7.92742L25.5628 7.92566L25.5612 7.92413L25.5595 7.92215L25.5579 7.92039L25.5562 7.91863L25.5546 7.91688L25.5529 7.9149L25.5491 7.91073L25.5452 7.90656C25.4819 7.83612 25.4164 7.76665 25.3489 7.69812L25.3447 7.69417L25.3408 7.69022L25.3366 7.68626L25.3326 7.68231L25.3309 7.68033L25.3289 7.67836L25.3269 7.67638L25.3252 7.67462L25.3232 7.67264L25.3214 7.67089L25.3197 7.66913L25.3179 7.66759L25.3161 7.66584L25.3146 7.66408L25.3131 7.66232L25.3115 7.66056L25.3102 7.65925L25.3087 7.65749L25.3073 7.65617L25.3058 7.65441L25.3045 7.6531L25.303 7.65156L25.3014 7.65024V7.64914L25.3001 7.64783L25.2986 7.64629L25.297 7.64475V7.64365L25.2955 7.64212L25.292 7.6386L25.2882 7.63509C25.2871 7.63373 25.2858 7.6325 25.2845 7.63135C25.2487 7.5965 25.2122 7.56202 25.1746 7.52791L24.8846 7.68055ZM23.7297 6.84265C23.9392 6.96039 24.1417 7.09004 24.3362 7.23096L24.5439 7.00825C24.4775 6.95993 24.4098 6.91271 24.341 6.86659L24.3362 6.86329L24.3331 6.8611H24.3316L24.3285 6.85912H24.3272L24.3248 6.85758H24.3232L24.3206 6.85582H24.3193H24.3179L24.3162 6.85451H24.3151L24.3133 6.85319H24.3122L24.3105 6.85209H24.3089L24.307 6.85077H24.3054L24.3034 6.84945H24.3019L24.2997 6.84814L24.2982 6.84704L24.296 6.8455L24.294 6.8444L24.2762 6.82398L24.274 6.82244L24.2694 6.81936L24.2645 6.81629L24.2597 6.81322L24.2549 6.81014L24.2498 6.80685C24.1401 6.73584 24.0273 6.6676 23.9117 6.60215L23.9091 6.60061L23.9064 6.59907L23.904 6.59753L23.9016 6.596L23.8994 6.59468L23.897 6.59336L23.895 6.59204L23.8928 6.59073L23.7339 6.84462L23.7297 6.84265ZM22.4517 5.98278L22.3991 6.2817C22.63 6.3493 22.8568 6.42997 23.0786 6.5233L23.1859 6.24392C23.1362 6.22196 23.0867 6.20285 23.0371 6.18308L23.0313 6.18089L23.0259 6.17869L23.0232 6.17759H23.0206H23.0182H23.0155H23.0133H23.0109H23.0087H23.0063H23.0043L23.0017 6.17649H22.9995H22.9971H22.9951H22.9931H22.9913H22.9896H22.9883H22.9865H22.985H22.9836H22.9819H22.9808H22.9793H22.9779H22.9762H22.9751H22.9735H22.9722H22.9705H22.9691H22.9672H22.9658H22.9645H22.963H22.9612H22.9597H22.9577H22.9564H22.9549H22.9533L22.9509 6.1754H22.9494L22.9465 6.1743H22.945L22.9417 6.17298H22.9399L22.9366 6.17166H22.9348L22.9311 6.17035H22.9294L22.9258 6.16903H22.9241L22.9203 6.16771H22.9184L22.9129 6.16551L22.9074 6.16354L22.9017 6.16156L22.8959 6.15936L22.8693 6.12115L22.8636 6.11917C22.7267 6.06909 22.5893 6.024 22.4517 5.98388V5.98278ZM20.9534 5.73174L21.0134 6.04955C21.2455 6.05956 21.4767 6.08383 21.7058 6.12225L21.7019 5.81036L21.6331 5.79938H21.6296H21.6276H21.6243H21.6225H21.6195H21.6164H21.6137H21.5674H21.5647H21.5621H21.5592H21.5535H21.5478C21.3485 5.77127 21.1511 5.75311 20.9556 5.74491L20.9534 5.73174ZM19.5261 5.85759L19.6923 6.16507C19.9047 6.11623 20.1202 6.08218 20.3373 6.06316L20.2227 5.74777C20.1146 5.75721 20.0075 5.76973 19.9018 5.78598H19.8965H19.8912H19.8864H19.884H19.8358H19.8334H19.8288H19.8242H19.8209H19.8191H19.8158H19.8108H19.8057C19.7121 5.80195 19.6199 5.82053 19.5292 5.84177L19.5261 5.85759ZM18.2951 6.34759L18.553 6.6195C18.7255 6.5159 18.9062 6.42657 19.0933 6.35242L18.879 6.05899C18.7764 6.09984 18.6764 6.14436 18.5789 6.19253L18.5745 6.19472L18.5699 6.19692L18.5539 6.20505L18.5495 6.20724L18.5449 6.20944L18.5427 6.21054L18.5336 6.21515L18.5292 6.21735L18.5249 6.21976L18.5092 6.22789L18.5048 6.23009L18.5005 6.23228L18.4958 6.2347L18.4892 6.23821L18.4848 6.24063L18.4804 6.24282L18.4761 6.24502L18.4717 6.24744L18.4651 6.25095L18.4607 6.25337L18.4565 6.25578L18.4521 6.2582L18.4477 6.26061L18.4433 6.26303L18.4411 6.26435L18.4369 6.26655L18.4327 6.26874L18.4286 6.27116L18.4242 6.27357L18.4198 6.27599H18.4176L18.4132 6.27841L18.409 6.28082L18.4048 6.28324L18.4029 6.28456L18.4007 6.28565H18.3987L18.3967 6.28675L18.3945 6.28785L18.3925 6.28895H18.3903L18.3864 6.29114L18.3824 6.29356L18.3804 6.29466H18.3785H18.3767H18.3749L18.3732 6.29576H18.3716H18.3699H18.3683H18.3666L18.3648 6.29685H18.3633H18.3613H18.36H18.3582H18.3569L18.3552 6.29795H18.3536H18.3519H18.3503H18.349H18.3475H18.3461H18.3446H18.3435H18.342H18.3409H18.3393H18.338H18.3369H18.3351H18.334L18.3321 6.29905L18.3297 6.30037L18.3257 6.30278L18.3226 6.30454L18.2951 6.34759ZM17.3706 7.16024L17.6979 7.37109C17.8135 7.22257 17.9429 7.08528 18.0843 6.96103L17.7885 6.71702C17.757 6.74469 17.7263 6.77258 17.6961 6.80135L17.6928 6.80443L17.6898 6.80729L17.6882 6.8086V6.8097V6.8108L17.6869 6.81212L17.6856 6.81344V6.81453L17.6843 6.81585L17.6829 6.81717L17.6814 6.81871L17.6801 6.82024L17.6786 6.82178L17.677 6.82332L17.6753 6.82486L17.672 6.82815L17.6687 6.83144L17.6654 6.83474C17.5658 6.93294 17.4729 7.03755 17.3871 7.14794L17.3706 7.16024Z" fill="#FF922E"/>
<path d="M16.4347 7.44417C16.6985 6.89641 17.0942 6.43232 17.6114 6.06509C18.1115 5.71016 18.7032 5.46022 19.3699 5.32163C20.0367 5.18304 20.7467 5.16327 21.478 5.26254C23.0293 5.48343 24.4748 6.17673 25.6176 7.24804C26.1527 7.75605 26.5806 8.32161 26.8902 8.92846C27.1997 9.53531 27.3738 10.1534 27.41 10.765C27.447 11.3983 27.3322 11.9972 27.0691 12.5441C26.806 13.091 26.4096 13.5559 25.8924 13.9232C25.3923 14.2781 24.8003 14.528 24.1338 14.6666C23.4674 14.8052 22.7571 14.825 22.0258 14.7257C20.4744 14.5048 19.0289 13.8115 17.8862 12.7402C17.3522 12.2331 16.9229 11.6677 16.6136 11.0607C16.3044 10.4536 16.13 9.83577 16.0938 9.22409C16.0568 8.59088 16.1716 7.99216 16.4347 7.44505M16.3468 7.40266C15.2519 9.68027 16.7847 12.6882 19.7702 14.12C22.7558 15.5518 26.0636 14.8667 27.1581 12.5874C28.2526 10.308 26.7198 7.30097 23.7342 5.86918C20.7486 4.43738 17.4402 5.1233 16.3463 7.40178L16.3468 7.40266Z" fill="#F7FAF6"/>
<path d="M16.7597 7.60017C17.0068 7.08579 17.3785 6.65025 17.8643 6.30433C18.3338 5.97114 18.8895 5.73635 19.516 5.60633C20.1425 5.47631 20.8086 5.45786 21.4944 5.55098C22.9514 5.75895 24.3087 6.41054 25.3817 7.417C25.884 7.89404 26.286 8.42468 26.5764 8.99463C26.8668 9.56458 27.031 10.1446 27.0644 10.7188C27.0991 11.3133 26.9914 11.8756 26.7443 12.39C26.4972 12.9043 26.1255 13.3399 25.6395 13.6847C25.1702 14.0179 24.6145 14.2527 23.9878 14.3827C23.3611 14.5127 22.6953 14.5312 22.0094 14.438C20.5522 14.2308 19.1945 13.5796 18.1213 12.5731C17.619 12.0961 17.2172 11.5655 16.9268 10.9955C16.6364 10.4255 16.472 9.84571 16.4386 9.27137C16.4038 8.67682 16.5116 8.11455 16.7588 7.60017M16.6709 7.55778C15.6422 9.69922 17.0829 12.5261 19.8888 13.8718C22.6948 15.2175 25.8035 14.5727 26.8322 12.4315C27.861 10.2903 26.4203 7.46312 23.6143 6.11742C20.8083 4.77172 17.7001 5.41657 16.6705 7.55778H16.6709Z" fill="#F7FAF6"/>
<path d="M24.5754 9.02032C24.5433 9.04997 24.5342 9.09829 24.6006 9.17692L24.3239 9.75786L24.5822 9.98254C24.6395 10.0324 24.6604 10.1014 24.6347 10.155L24.2812 9.84747L24.2408 9.93246L24.4984 10.1567C24.5558 10.2066 24.5769 10.2755 24.551 10.3291L24.1992 10.0216L24.1588 10.1069L24.4158 10.3304C24.4731 10.3803 24.4942 10.4493 24.4685 10.5029L24.1168 10.1954L23.8185 10.822L23.6134 11.2492C23.5424 11.1958 23.5138 11.1154 23.5435 11.0535L23.6992 10.7293L21.6406 9.13234L21.2207 10.0087C22.0639 10.6937 23.0298 11.4376 23.8981 12.1345C24.0445 12.252 24.2922 12.256 24.3573 12.1255C24.7571 11.3239 25.1212 10.5051 25.521 9.70339C25.543 9.6577 25.523 9.59774 25.4705 9.55777L24.7818 9.03218C24.7158 8.98211 24.6239 8.97508 24.5754 9.02032Z" fill="#FF922E"/>
<path d="M19.3823 7.37855L19.3801 7.37679L19.372 7.39392L18.9816 8.20657L18.9492 8.27246C18.909 8.35636 18.9655 8.46706 19.0754 8.51977L19.1581 8.34758L19.29 8.07413C19.3535 8.13014 19.3779 8.20591 19.3515 8.26763C19.3251 8.32935 19.3012 8.38382 19.2761 8.44202L20.1495 9.14485L20.5612 8.29333L19.5597 7.51538L19.5709 7.49166C19.5896 7.45279 19.5689 7.40029 19.5201 7.37152C19.4713 7.34275 19.4106 7.34714 19.3823 7.37855Z" fill="#FF922E"/>
<path d="M21.4216 7.47543L21.391 7.46313C20.6768 7.1787 19.9358 7.37527 19.6813 7.90525L19.5714 8.13257L18.9438 9.43896C18.8827 9.56635 18.9324 9.73019 19.0684 9.84902L19.3929 10.153L19.3287 10.2867C19.2847 10.3792 19.2986 10.4932 19.3674 10.5956L19.7323 9.83628C19.7652 9.77026 19.7984 9.70487 19.8316 9.64014C19.8815 9.54263 20.0323 9.52857 20.1471 9.60193L20.705 10.09L20.6645 10.1743L20.1262 9.70582L20.1005 9.75941L20.6392 10.2283L20.5876 10.3362L20.0493 9.86769C19.9066 10.1464 19.7896 10.3715 19.647 10.6505C19.6127 10.7175 19.6312 10.8042 19.6949 10.8734C19.7229 10.9033 19.7541 10.93 19.7879 10.9531C19.8413 10.9902 19.9134 10.9795 19.9273 10.9312C19.9272 10.9306 19.9272 10.9301 19.9273 10.9296C19.9411 10.8762 19.8949 10.8281 19.8912 10.8246L19.9213 10.762L19.9813 10.6371L20.1273 10.3333C20.1789 10.3581 20.2055 10.4102 20.1866 10.4497L20.0635 10.7058C21.278 11.7262 22.1562 12.4539 22.4156 12.7056C22.675 12.9573 22.8442 12.9298 22.9291 12.8778C22.9643 12.8562 22.9922 12.825 23.0098 12.7877L23.3212 12.1391L21.8777 10.9171L21.8168 11.044C21.7836 11.113 21.6834 11.1339 21.5928 11.0904L21.7344 10.7956L21.9403 10.3669C22.6534 10.3316 23.3722 10.299 24.0853 10.2637C24.2271 9.96894 24.3627 9.67067 24.5043 9.37658L22.2103 9.5356L22.3848 9.20329C22.6282 8.69659 22.3567 8.02978 21.737 7.63905C21.6366 7.57578 21.5311 7.52105 21.4216 7.47543ZM20.8318 10.3952L20.7848 10.4947L20.6324 10.363L20.6799 10.2641L20.8318 10.3952ZM20.8978 10.2573L20.8621 10.3322L20.7109 10.2004L20.747 10.1251L20.8978 10.2573ZM21.111 9.81453C21.0639 9.91051 21.0068 10.0282 20.9404 10.1677L20.79 10.0359L20.9597 9.68275L21.111 9.81453ZM20.7494 10.0006L20.2286 9.54504C20.3003 9.40272 20.3583 9.28434 20.401 9.1967L20.9191 9.64739L20.7494 10.0006ZM21.1938 9.64607L21.1719 9.69L21.1545 9.72492L21.0026 9.59314L21.0411 9.51276L21.1938 9.64607ZM20.9619 9.55822L20.4432 9.10819L20.4819 9.02802L20.9997 9.47849L20.9619 9.55822ZM21.3024 9.14904C21.3244 9.31047 21.2899 9.43457 21.2365 9.55602L21.0844 9.42424C21.1262 9.3508 21.163 9.27456 21.1943 9.19604C21.2409 9.07942 21.2501 9.02034 21.2383 8.95445C21.233 8.92427 21.2243 8.89477 21.2123 8.86659C21.2575 8.95519 21.2876 9.05062 21.3016 9.14904H21.3024ZM21.0826 8.73613C21.1743 8.80509 21.1842 8.9081 21.1895 8.96323C21.1967 9.03725 21.1771 9.08952 21.1376 9.19121C21.1112 9.25947 21.0795 9.32556 21.0428 9.38888L20.5263 8.93951C20.5322 8.91513 20.5819 8.72163 20.79 8.68451C20.8186 8.67902 20.9707 8.65201 21.0824 8.73613H21.0826Z" fill="#FF922E"/>
<path d="M20.3996 9.19604C20.357 9.28397 20.299 9.40221 20.2273 9.54466L20.748 10.0006L20.9177 9.64709L20.3996 9.19604ZM20.7228 9.91727L20.2943 9.54226C20.3383 9.45433 20.3823 9.3664 20.4247 9.27848L20.8511 9.64975L20.7228 9.91727Z" fill="white"/>
<path d="M20.8612 10.3321L20.8968 10.2569L20.746 10.125L20.71 10.2004L20.8612 10.3321Z" fill="white"/>
<path d="M20.7843 10.4949L20.8313 10.3953L20.6794 10.2635L20.632 10.3624L20.7843 10.4949ZM20.6986 10.3593L20.7047 10.3463L20.7649 10.3984L20.7586 10.4116L20.6986 10.3593Z" fill="white"/>
<path d="M21.4367 7.43346L21.4053 7.4205C21.0468 7.27796 20.6676 7.24677 20.337 7.33264C20.0064 7.41852 19.756 7.61268 19.6278 7.87953L19.5179 8.10686L18.8906 9.41346C18.8215 9.5571 18.878 9.74291 19.0308 9.87755L19.1921 10.0287L19.3267 10.1547L19.2752 10.2615C19.2253 10.3656 19.2418 10.4967 19.3192 10.6129L19.3805 10.7038L19.4199 10.6217L19.7848 9.86239C19.8169 9.79782 19.8507 9.73193 19.8837 9.66692C19.8936 9.64924 19.9078 9.63433 19.9249 9.62354C19.9421 9.61276 19.9617 9.60645 19.982 9.6052C20.0222 9.60099 20.0627 9.60863 20.0987 9.62717L20.0727 9.68142L20.047 9.73501L20.0332 9.76334L20.0637 9.78969L20.5715 10.2316L20.561 10.2536L20.3642 10.0822L20.0844 9.83867L20.0242 9.78618L19.9956 9.84197C19.9239 9.98187 19.8589 10.1084 19.7936 10.2349C19.7283 10.3614 19.665 10.4848 19.594 10.6236C19.594 10.6252 19.5924 10.6265 19.5918 10.6278C19.5524 10.71 19.5757 10.813 19.6527 10.8969C19.6841 10.9311 19.7193 10.9616 19.7575 10.988C19.7948 11.0144 19.8402 11.0267 19.8857 11.0227C19.9044 11.0219 19.9226 11.0162 19.9385 11.0062C19.9543 10.9962 19.9673 10.9823 19.9762 10.9658C19.9785 10.9612 19.9803 10.9563 19.9817 10.9513V10.9487C19.986 10.9278 19.9857 10.9063 19.981 10.8855C19.9762 10.8647 19.9671 10.8451 19.9543 10.8281L19.9736 10.7877L20.0066 10.7187L20.0286 10.7363C20.2642 10.9341 20.4864 11.1205 20.695 11.2955C21.551 12.0131 22.1696 12.5316 22.3767 12.7326C22.678 13.0251 22.8765 12.9742 22.968 12.9186C23.0091 12.8935 23.042 12.8569 23.0627 12.8134L23.3749 12.1653L23.3887 12.1363L23.3573 12.1099L21.9128 10.8872L21.8515 10.8352L21.8243 10.8918L21.7634 11.019C21.7541 11.0351 21.7403 11.0482 21.7236 11.0565C21.7069 11.0648 21.6882 11.0679 21.6697 11.0656L21.7869 10.8213L21.9827 10.4135C22.3303 10.3961 22.6842 10.3794 23.0269 10.3632C23.3639 10.3471 23.7116 10.3307 24.0537 10.3137L24.0774 10.2643C23.3667 10.2995 22.6505 10.332 21.9399 10.3671L21.7339 10.7958L21.5923 11.0906C21.6829 11.1345 21.7831 11.1126 21.8163 11.0442L21.8772 10.9173L23.3208 12.1391L23.0093 12.7873C22.9917 12.8245 22.9638 12.8558 22.9286 12.8773C22.8438 12.9294 22.6769 12.9592 22.4151 12.7051C22.1533 12.451 21.278 11.7258 20.0631 10.7064L20.1862 10.4501C20.2051 10.4106 20.1785 10.3585 20.1268 10.3337L19.9809 10.6375L19.9208 10.7625L19.8907 10.8251C19.8945 10.8286 19.9406 10.8767 19.9268 10.93C19.9267 10.9305 19.9267 10.9311 19.9268 10.9316C19.9259 10.9347 19.9248 10.9377 19.9233 10.9406C19.9037 10.9814 19.8375 10.9887 19.7874 10.954C19.7538 10.9307 19.7227 10.9038 19.6949 10.8738C19.6322 10.8055 19.6133 10.7201 19.6452 10.6542C19.6452 10.6531 19.6463 10.652 19.647 10.6507C19.7896 10.3719 19.9066 10.1468 20.0492 9.8681L20.5876 10.3366L20.6392 10.2287L20.1011 9.76026L20.1268 9.70667L20.6652 10.1752L20.7056 10.0908L20.1477 9.60279C20.033 9.52921 19.8822 9.54348 19.8323 9.641C19.7988 9.70557 19.7657 9.77096 19.7329 9.83714L19.368 10.5964C19.2992 10.4941 19.2849 10.3801 19.3293 10.2876L19.3935 10.1538L19.0686 9.849C18.9325 9.73017 18.8829 9.56633 18.944 9.43894L19.572 8.13255L19.6819 7.90523C19.9365 7.37547 20.6775 7.17868 21.3917 7.46311L21.4222 7.47541C21.5317 7.52103 21.6371 7.57576 21.7374 7.63903C22.3571 8.02976 22.6286 8.69657 22.3852 9.20327L22.2098 9.53558L24.5041 9.37722L24.5282 9.32671L24.488 9.32956L23.1537 9.42181L22.3052 9.48023L22.4371 9.22963C22.5595 8.97463 22.5595 8.67 22.4371 8.37195C22.3147 8.07391 22.0746 7.80091 21.7638 7.60323C21.6597 7.53761 21.5503 7.48081 21.4367 7.43346ZM20.1152 9.63529L20.1717 9.68449L20.1626 9.67658L20.1143 9.63463L20.1152 9.63529Z" fill="white"/>
<path d="M20.9394 10.1681C20.9579 10.1293 20.9756 10.0922 20.9926 10.0567C21.0366 9.96479 21.0757 9.88421 21.11 9.81487L20.9588 9.68298L20.7891 10.0365L20.9394 10.1681ZM20.8557 10.0334L20.984 9.76585L21.0432 9.81751C21.0093 9.88654 20.9746 9.95842 20.9396 10.0314L20.9133 10.0846L20.8557 10.0334Z" fill="white"/>
<path d="M21.2124 8.86658C21.2238 8.89421 21.2322 8.92303 21.2374 8.95253C21.2486 9.01957 21.2394 9.07826 21.1935 9.19433C21.1798 9.22862 21.1631 9.26753 21.1429 9.31017C21.1257 9.34534 21.1064 9.38313 21.084 9.4227L21.2361 9.55459C21.2897 9.43237 21.324 9.30883 21.302 9.14726C21.2878 9.04942 21.2574 8.95457 21.2124 8.86658ZM21.2071 9.47018L21.1515 9.42162C21.1666 9.39348 21.1814 9.36488 21.1954 9.33609C21.2139 9.29762 21.2313 9.25785 21.2471 9.21829L21.2517 9.20664C21.2554 9.29692 21.2402 9.387 21.2071 9.47108V9.47018Z" fill="white"/>
<path d="M21.1369 9.19163C21.1765 9.08985 21.1961 9.03776 21.1888 8.96346C21.1836 8.90828 21.1737 8.80519 21.082 8.73616C20.9703 8.65197 20.8182 8.67901 20.7901 8.68407C20.7382 8.69295 20.6893 8.71442 20.6476 8.74663C20.6059 8.77881 20.5728 8.82073 20.5511 8.86872C20.5402 8.89129 20.5317 8.91494 20.5256 8.93928L21.0422 9.38903C21.0583 9.36111 21.0758 9.3288 21.0934 9.29209C21.1082 9.26241 21.1229 9.22812 21.1369 9.19163ZM20.5874 8.9329C20.5918 8.91971 20.597 8.90679 20.603 8.89421C20.6217 8.85205 20.6505 8.81512 20.6868 8.78664C20.7231 8.75817 20.7658 8.73902 20.8112 8.73089C20.8567 8.72276 20.971 8.71023 21.0486 8.7687C21.1185 8.82145 21.1266 8.90652 21.1315 8.9573C21.1376 9.02127 21.1218 9.06567 21.0818 9.16855C21.069 9.20174 21.0547 9.23449 21.0394 9.26681C21.0325 9.28066 21.0257 9.2945 21.0185 9.30835L20.5874 8.9329Z" fill="white"/>
<path d="M20.4811 9.02734L20.4424 9.10824L20.9603 9.5593L20.999 9.47885L20.4811 9.02734Z" fill="white"/>
<path d="M21.1925 9.64617L21.0387 9.51318L21.0009 9.59364L21.1527 9.72553L21.1701 9.69058L21.1925 9.64617Z" fill="white"/>
<path d="M15.5821 9.18044C15.5403 8.47893 15.6672 7.81475 15.9593 7.20636L14.2667 6.39503L14.2627 6.40294C13.8794 7.20065 13.729 8.06294 13.7846 8.93818L15.5821 9.18044Z" fill="#F7FAF6"/>
<path d="M16.5381 4.0786L17.6567 5.34654C18.2942 5.00194 19.0275 4.78955 19.8329 4.71532L19.3063 3.27979C18.2927 3.37203 17.3492 3.64306 16.5381 4.0786Z" fill="white"/>
<path d="M23.9162 5.50064C24.3699 5.71818 24.8033 5.97542 25.2118 6.26936L26.1471 5.25904C25.248 4.61252 24.2555 4.10675 23.2039 3.75916L22.8936 5.08882C23.2428 5.20424 23.5844 5.34178 23.9162 5.50064Z" fill="white"/>
<path d="M28.7785 8.1084L27.2793 8.50923C27.6796 9.198 27.9218 9.90633 27.9994 10.6149L29.6958 10.784C29.5962 9.88151 29.2805 8.9709 28.7785 8.1084Z" fill="white"/>
<path d="M27.9771 15.3302L28.0043 15.2944C28.0228 15.2707 28.0413 15.2468 28.0593 15.2226L29.0911 13.8723L27.2921 15.7214L27.3361 16.0032C27.5697 15.7987 27.7843 15.5735 27.9771 15.3302Z" fill="#EDE8E8"/>
<path d="M20.5361 17.3202C21.7051 17.5904 22.8603 17.6414 23.9253 17.4891L23.9624 16.7276L20.8074 16.3851L20.5361 17.3202Z" fill="#EDE8E8"/>
<path d="M14.2834 13.1108C14.8785 14.0113 15.6797 14.8459 16.6524 15.5501L17.1508 14.5782L14.9629 12.2643L14.2834 13.1108Z" fill="#EDE8E8"/>
<path d="M14.2638 6.40295L13.8613 6.71264C13.7543 6.87941 13.6575 7.0525 13.5714 7.23098C13.2096 7.98432 13.0553 8.79521 13.0858 9.62016L13.785 8.93819L14.2638 6.40295Z" fill="#EDE8E8"/>
<path d="M27.2927 15.7215C28.0432 15.255 28.6617 14.6348 29.0917 13.8724L27.5196 13.0409C27.1879 13.6267 26.7122 14.1142 26.1055 14.4905L27.2927 15.7215Z" fill="white"/>
<path d="M20.8076 16.3849C21.883 16.6814 22.9541 16.7912 23.9627 16.7273L23.5147 15.3179C22.7 15.3618 21.8641 15.2643 21.0307 15.0264L20.8076 16.3849Z" fill="white"/>
<path d="M17.1507 14.5782L18.1722 13.5854C17.4908 13.0583 16.9217 12.4475 16.4836 11.7708L14.9629 12.2643C15.5195 13.1106 16.2585 13.9004 17.1507 14.5782Z" fill="white"/>
<path d="M15.5821 9.18044C15.5403 8.47893 15.6672 7.81475 15.9593 7.20636L14.2667 6.39503L14.2627 6.40294C13.8794 7.20065 13.729 8.06294 13.7846 8.93818L15.5821 9.18044Z" fill="white"/>
<path d="M7.06405 10.0087H6.86621V10.0746H7.06405V10.0087Z" fill="#FF922E"/>
</g>
<defs>
<linearGradient id="paint0_linear_74_24402" x1="4.03269" y1="10.5022" x2="12.3838" y2="13.2579" gradientUnits="userSpaceOnUse">
<stop stop-color="#D86C1A"/>
<stop offset="1" stop-color="#E87E25"/>
</linearGradient>
<linearGradient id="paint1_linear_74_24402" x1="11.1368" y1="9.79553" x2="9.8361" y2="14.9257" gradientUnits="userSpaceOnUse">
<stop stop-color="#FF922E"/>
<stop offset="1" stop-color="#FFC239"/>
</linearGradient>
<linearGradient id="paint2_linear_74_24402" x1="4.80268" y1="7.93885" x2="13.154" y2="10.6946" gradientUnits="userSpaceOnUse">
<stop stop-color="#D86C1A"/>
<stop offset="1" stop-color="#E87E25"/>
</linearGradient>
<linearGradient id="paint3_linear_74_24402" x1="11.9068" y1="7.2321" x2="10.6063" y2="12.3622" gradientUnits="userSpaceOnUse">
<stop stop-color="#FF922E"/>
<stop offset="1" stop-color="#FFC239"/>
</linearGradient>
<linearGradient id="paint4_linear_74_24402" x1="13.0822" y1="10.8226" x2="29.0913" y2="10.8226" gradientUnits="userSpaceOnUse">
<stop stop-color="#D86C1A"/>
<stop offset="1" stop-color="#E87E25"/>
</linearGradient>
<clipPath id="clip0_74_24402">
<rect width="32" height="18.625" fill="white" transform="translate(0 0.6875)"/>
</clipPath>
</defs>
</svg>
