<svg width="11" height="10" viewBox="0 0 11 10" fill="none" xmlns="http://www.w3.org/2000/svg">
<path fill-rule="evenodd" clip-rule="evenodd" d="M5.20006 6.26043L2.03292 2.46072C1.92569 2.33205 1.78027 2.25977 1.62863 2.25977C1.47699 2.25977 1.33157 2.33205 1.22435 2.46072C1.11712 2.58939 1.05688 2.7639 1.05688 2.94586C1.05688 3.12783 1.11712 3.30234 1.22435 3.431L4.54363 7.41329C4.71776 7.62213 4.95387 7.73945 5.20006 7.73945C5.44625 7.73945 5.68236 7.62213 5.85649 7.41329L9.17577 3.431C9.283 3.30234 9.34323 3.12783 9.34323 2.94586C9.34323 2.7639 9.283 2.58939 9.17577 2.46072C9.06855 2.33205 8.92312 2.25977 8.77149 2.25977C8.61985 2.25977 8.47443 2.33205 8.3672 2.46072L5.20006 6.26043Z" fill="#F5F5F5"/>
</svg>
