<svg width="27" height="25" viewBox="0 0 27 25" fill="none" xmlns="http://www.w3.org/2000/svg">
<path d="M20.3499 9.92293L19.9837 9.7192C19.9269 9.68756 19.8989 9.67169 19.8714 9.65524C19.5983 9.49165 19.3682 9.26564 19.2002 8.99523C19.1833 8.96802 19.1674 8.93949 19.1348 8.8831C19.1023 8.82677 19.0858 8.79823 19.0706 8.76998C18.92 8.48866 18.8385 8.17515 18.8336 7.85606C18.8331 7.82398 18.8332 7.79121 18.8343 7.72604L18.8415 7.30078C18.8529 6.62025 18.8587 6.27894 18.763 5.97262C18.6781 5.70053 18.536 5.44993 18.3462 5.23725C18.1317 4.99685 17.8347 4.82534 17.2402 4.48276L16.7464 4.1982C16.1536 3.85658 15.8571 3.68571 15.5423 3.62057C15.2639 3.56294 14.9765 3.56561 14.6991 3.62789C14.3859 3.69819 14.0931 3.87351 13.5079 4.22396L13.5045 4.22555L13.1507 4.43741C13.0948 4.47091 13.0665 4.48779 13.0384 4.50338C12.7601 4.6581 12.4495 4.74365 12.1312 4.75387C12.0992 4.7549 12.0665 4.7549 12.0013 4.7549C11.9365 4.7549 11.9024 4.7549 11.8704 4.75387C11.5515 4.74361 11.2402 4.65759 10.9615 4.50224C10.9334 4.48658 10.9056 4.46956 10.8496 4.4359L10.4935 4.22213C9.90422 3.86836 9.60915 3.69121 9.29427 3.62057C9.0157 3.55807 8.72737 3.55634 8.44791 3.61471C8.13236 3.68062 7.83577 3.85276 7.24258 4.19703L7.23994 4.1982L6.75228 4.48124L6.74688 4.48454C6.15904 4.82572 5.86441 4.99672 5.6517 5.23614C5.46294 5.4486 5.32185 5.69881 5.2374 5.97018C5.14194 6.27691 5.14703 6.61896 5.15853 7.3027L5.16568 7.72736C5.16676 7.79166 5.16864 7.82362 5.16817 7.85525C5.16343 8.17499 5.08086 8.48914 4.92974 8.77096C4.9148 8.79883 4.8987 8.8267 4.86654 8.88237C4.83436 8.93809 4.81877 8.96579 4.80209 8.99268C4.63336 9.26452 4.40214 9.49186 4.12733 9.65572C4.10015 9.67193 4.0715 9.68752 4.01521 9.71871L3.65365 9.91908C3.05208 10.2524 2.75137 10.4193 2.53256 10.6567C2.33898 10.8667 2.19275 11.1158 2.10349 11.3872C2.00259 11.6939 2.00267 12.0378 2.00424 12.7255L2.00551 13.2877C2.00706 13.9708 2.00919 14.3122 2.11032 14.6168C2.19979 14.8863 2.34495 15.134 2.53744 15.3427C2.75502 15.5787 3.05274 15.7445 3.64974 16.0766L4.00808 16.276C4.06907 16.3099 4.09976 16.3266 4.12917 16.3444C4.40148 16.5083 4.63089 16.735 4.79818 17.0053C4.81625 17.0345 4.8336 17.0648 4.8683 17.1255C4.90256 17.1853 4.92009 17.2152 4.93594 17.2452C5.08261 17.5229 5.16114 17.8315 5.16649 18.1455C5.16707 18.1794 5.16658 18.2137 5.16541 18.2827L5.15853 18.6902C5.14695 19.3763 5.1419 19.7197 5.23792 20.0273C5.32287 20.2994 5.46484 20.55 5.65463 20.7627C5.86915 21.0031 6.16655 21.1745 6.76107 21.5171L7.25478 21.8015C7.84763 22.1432 8.14395 22.3138 8.45869 22.379C8.73714 22.4366 9.02464 22.4344 9.30209 22.3721C9.61567 22.3017 9.90948 22.1258 10.4964 21.7743L10.8502 21.5625C10.9062 21.5289 10.9346 21.5121 10.9626 21.4965C11.2409 21.3418 11.5512 21.2558 11.8695 21.2456C11.9015 21.2446 11.9342 21.2446 11.9994 21.2446C12.0648 21.2446 12.0974 21.2446 12.1295 21.2456C12.4484 21.2559 12.7607 21.3422 13.0394 21.4975C13.0639 21.5112 13.0885 21.526 13.1316 21.5519L13.5078 21.7777C14.0971 22.1315 14.3916 22.3081 14.7065 22.3788C14.985 22.4413 15.2736 22.4438 15.5531 22.3855C15.8685 22.3196 16.1657 22.1471 16.7586 21.803L17.2536 21.5157C17.8418 21.1743 18.1367 21.0031 18.3495 20.7636C18.5383 20.5512 18.6796 20.3011 18.764 20.0297C18.8588 19.7252 18.8531 19.3858 18.8417 18.7119L18.8343 18.2724C18.8332 18.2081 18.8331 18.1761 18.8336 18.1445C18.8383 17.8247 18.9195 17.5104 19.0706 17.2286C19.0856 17.2007 19.1018 17.1726 19.1338 17.1171C19.166 17.0615 19.1827 17.0337 19.1994 17.0068C19.3681 16.7349 19.5995 16.5074 19.8744 16.3435C19.9012 16.3275 19.9289 16.3122 19.9838 16.2818L19.9857 16.2809L20.3472 16.0805C20.9488 15.7472 21.2501 15.5801 21.4689 15.3427C21.6625 15.1327 21.8085 14.8839 21.8978 14.6126C21.9981 14.3077 21.9973 13.9658 21.9958 13.2861L21.9945 12.7119C21.9929 12.0287 21.9921 11.6874 21.891 11.3828C21.8015 11.1133 21.6555 10.8656 21.463 10.6568C21.2457 10.4211 20.9475 10.2553 20.3517 9.92378L20.3499 9.92293Z" stroke="white" stroke-width="2" stroke-linecap="round" stroke-linejoin="round"/>
<path d="M8.00033 13C8.00033 15.2091 9.79119 17 12.0003 17C14.2095 17 16.0003 15.2091 16.0003 13C16.0003 10.7908 14.2095 8.99996 12.0003 8.99996C9.79119 8.99996 8.00033 10.7908 8.00033 13Z" stroke="white" stroke-width="2" stroke-linecap="round" stroke-linejoin="round"/>
</svg>
